<svg xmlns="http://www.w3.org/2000/svg" width="314.5" height="314.5" viewBox="0 0 314.5 314.5">
  <g id="Grupo_57747" data-name="Grupo 57747" transform="translate(-390 -15343.553)">
    <g id="Grupo_57662" data-name="Grupo 57662" transform="translate(390 15343.553)">
      <rect id="Rectángulo_5290" data-name="Rectángulo 5290" width="314.5" height="314.5" rx="10" transform="translate(0 0)" fill="#fff"/>
    </g>
    <g id="color_wheel-01" transform="translate(405.332 15356.743)">
      <g id="Grupo_57635" data-name="Grupo 57635" transform="translate(47.684 52.588)">
        <g id="Grupo_57634" data-name="Grupo 57634" transform="translate(0)">
          <path id="Trazado_101895" data-name="Trazado 101895" d="M767.672,281.608a91.793,91.793,0,0,0-41.13-23.748h0l-23.8,88.808,65.016-65.013Z" transform="translate(-610.823 -254.749)" fill="#fac712"/>
          <path id="Trazado_101896" data-name="Trazado 101896" d="M674.343,251.037a92.6,92.6,0,0,0-47.6,0l.673,2.505c.241.908.492,1.838.745,2.79l.4,1.5c.235.88.476,1.785.73,2.722l.128.489c.191.711.388,1.45.592,2.192l1.391,5.186.085.313,1.077,4.012.288,1.077,17.682,66,14.9-55.546h0Z" transform="translate(-558.625 -247.926)" fill="#feef00"/>
          <path id="Trazado_101897" data-name="Trazado 101897" d="M791.579,375.058h0a91.849,91.849,0,0,0-23.745-41.133l-.05-.085-.016.019h0l-17.7,17.695-47.29,47.29Z" transform="translate(-610.851 -306.934)" fill="#f69f23"/>
          <path id="Trazado_101898" data-name="Trazado 101898" d="M674.364,630.238h0L665.457,597h0L650.565,541.43l-23.8,88.808h0a92.59,92.59,0,0,0,47.6,0Z" transform="translate(-558.646 -449.511)" fill="#7421b0"/>
          <path id="Trazado_101899" data-name="Trazado 101899" d="M560.18,541.43l-65.01,65.007.075.044a91.847,91.847,0,0,0,41.139,23.758h0l8.9-33.232h0Z" transform="translate(-468.26 -449.511)" fill="#3a48ba"/>
          <path id="Trazado_101900" data-name="Trazado 101900" d="M767.678,606.493l.085-.05-.016-.019h0L743.426,582.1h0L702.75,541.43l23.8,88.808h0a91.849,91.849,0,0,0,41.127-23.745Z" transform="translate(-610.83 -449.511)" fill="#d2298e"/>
          <path id="Trazado_101901" data-name="Trazado 101901" d="M507.988,541.43l-88.808,23.8h0a91.837,91.837,0,0,0,23.745,41.13l.044.081h.019l24.322-24.322h0Z" transform="translate(-416.068 -449.511)" fill="#006fc4"/>
          <path id="Trazado_101902" data-name="Trazado 101902" d="M791.555,565.232h0l-33.231-8.9h0l-55.574-14.9,65.013,65.007.047-.085A91.762,91.762,0,0,0,791.555,565.232Z" transform="translate(-610.83 -449.511)" fill="#ff2600"/>
          <path id="Trazado_101903" data-name="Trazado 101903" d="M794.668,489.232a91.96,91.96,0,0,0-3.11-23.8h0l-33.235,8.91h0L702.75,489.232l88.808,23.8h0A91.982,91.982,0,0,0,794.668,489.232Z" transform="translate(-610.83 -397.312)" fill="#fb6312"/>
          <path id="Trazado_101904" data-name="Trazado 101904" d="M501.165,489.232l-88.808-23.8h0a92.59,92.59,0,0,0,0,47.6l33.232-8.9h0Z" transform="translate(-409.245 -397.312)" fill="#00c2af"/>
          <path id="Trazado_101905" data-name="Trazado 101905" d="M560.173,346.668,545.281,291.1h0c-.113-.429-.222-.83-.335-1.253l-.877-3.273c-.4-1.491-.783-2.928-1.146-4.284l-1.071-3.993-.335-1.253-1-3.68c-.028-.1-.053-.194-.078-.291l-4.071-15.214h0a91.777,91.777,0,0,0-41.13,23.752l-.081.044Z" transform="translate(-468.253 -254.749)" fill="#7fd200"/>
          <path id="Trazado_101906" data-name="Trazado 101906" d="M507.988,398.853l-65.01-65.013-.044.078a91.809,91.809,0,0,0-23.755,41.139l33.232,8.9h0Z" transform="translate(-416.068 -306.934)" fill="#00b500"/>
        </g>
        <path id="Trazado_101907" data-name="Trazado 101907" d="M501.168,247.93a91.918,91.918,0,1,0,91.918,91.918A91.916,91.916,0,0,0,501.168,247.93Zm0,168.131a76.212,76.212,0,1,1,76.212-76.212A76.212,76.212,0,0,1,501.168,416.061Z" transform="translate(-409.248 -247.929)" opacity="0.3"/>
        <path id="Trazado_101908" data-name="Trazado 101908" d="M535.612,298.08a76.212,76.212,0,1,0,76.212,76.212A76.222,76.222,0,0,0,535.612,298.08Zm0,136.8A60.585,60.585,0,1,1,596.2,374.3,60.591,60.591,0,0,1,535.612,434.883Z" transform="translate(-443.692 -282.373)" opacity="0.15"/>
        <path id="Trazado_101909" data-name="Trazado 101909" d="M604.136,397.85A44.966,44.966,0,1,0,649.1,442.816,44.966,44.966,0,0,0,604.136,397.85Zm0,74.311a29.345,29.345,0,1,1,29.345-29.345A29.345,29.345,0,0,1,604.136,472.161Z" transform="translate(-512.216 -350.897)" fill="#fff" opacity="0.5"/>
        <path id="Trazado_101910" data-name="Trazado 101910" d="M638.395,447.73a29.345,29.345,0,1,0,29.345,29.345A29.345,29.345,0,0,0,638.395,447.73Zm0,43.065a13.72,13.72,0,1,1,13.72-13.72,13.72,13.72,0,0,1-13.72,13.72Z" transform="translate(-546.475 -385.155)" fill="#fff" opacity="0.75"/>
        <circle id="Elipse_4402" data-name="Elipse 4402" cx="13.72" cy="13.72" r="13.72" transform="translate(78.199 78.199)" fill="#fff"/>
      </g>
      <g id="Grupo_57636" data-name="Grupo 57636" transform="translate(125.113 40.532)">
        <path id="Trazado_101911" data-name="Trazado 101911" d="M659.828,216.266l-.545-1.071-2.07.263-.263,1.171-.47.063,1.077-4.676.523-.066,2.214,4.256Zm-2.505-1.231,1.776-.225-1.2-2.358Z" transform="translate(-656.48 -211.161)"/>
        <path id="Trazado_101912" data-name="Trazado 101912" d="M675.819,214.327l-.429.031-.589-3.789-1.253,3.93-.251.019-1.81-3.667-.016,3.808-.432.031v-4.51l.554-.044,1.785,3.6,1.209-3.824.561-.041Z" transform="translate(-666.48 -209.732)"/>
        <path id="Trazado_101913" data-name="Trazado 101913" d="M692.073,213.96l-.435-1.118-2.086.053-.379,1.146H688.7l1.544-4.541h.526l1.782,4.447Zm-2.383-1.484,1.788-.047-.958-2.458Z" transform="translate(-678.609 -209.478)"/>
        <path id="Trazado_101914" data-name="Trazado 101914" d="M706.418,213.946l-1.118-2.067h-.858l-.034,2.048h-.448l.072-4.5,1.447.022a1.3,1.3,0,0,1,.974.366,1.252,1.252,0,0,1,.313.9,1.184,1.184,0,0,1-.279.789,1.14,1.14,0,0,1-.755.379l1.187,2.089Zm-1.945-4.128-.025,1.669.94.016a.993.993,0,0,0,.711-.213.792.792,0,0,0,.244-.6.8.8,0,0,0-.229-.626.961.961,0,0,0-.7-.241Z" transform="translate(-689.09 -209.43)"/>
        <path id="Trazado_101915" data-name="Trazado 101915" d="M716.75,214.144l.2-4.494.448.019-.2,4.494Z" transform="translate(-697.875 -209.581)"/>
        <path id="Trazado_101916" data-name="Trazado 101916" d="M723.336,214.126l1.61.113-.028.41-2.058-.141.313-4.488.448.031Z" transform="translate(-702.071 -209.835)"/>
        <path id="Trazado_101917" data-name="Trazado 101917" d="M732.845,214.892l1.607.157-.041.413-2.051-.2.445-4.478.445.044Z" transform="translate(-708.596 -210.357)"/>
        <path id="Trazado_101918" data-name="Trazado 101918" d="M743.1,216.9a2.3,2.3,0,0,1-1.077-.423,2.007,2.007,0,0,1-.68-.908,2.725,2.725,0,0,1,.341-2.446,2,2,0,0,1,.9-.686,2.283,2.283,0,0,1,1.153-.113,2.312,2.312,0,0,1,.836.276,2.133,2.133,0,0,1,.626.545,2.087,2.087,0,0,1,.37.789,2.63,2.63,0,0,1,.034.983,2.6,2.6,0,0,1-.313.94,1.989,1.989,0,0,1-.57.658,2.077,2.077,0,0,1-.758.351A2.3,2.3,0,0,1,743.1,216.9Zm-.608-.648a1.879,1.879,0,0,0,.667.222,1.81,1.81,0,0,0,.7-.031,1.641,1.641,0,0,0,.6-.279,1.6,1.6,0,0,0,.454-.536,2.39,2.39,0,0,0,.222-1.582,1.611,1.611,0,0,0-.294-.626,1.683,1.683,0,0,0-.5-.432,1.93,1.93,0,0,0-1.369-.191,1.676,1.676,0,0,0-.608.276,1.592,1.592,0,0,0-.457.532,2.162,2.162,0,0,0-.247.77,2.246,2.246,0,0,0,.025.811,1.566,1.566,0,0,0,.8,1.074Z" transform="translate(-714.665 -211.4)"/>
      </g>
      <g id="Grupo_57637" data-name="Grupo 57637" transform="translate(122.225 29.326)">
        <path id="Trazado_101919" data-name="Trazado 101919" d="M649.371,176.944a1.566,1.566,0,0,1,1.253.313,1.669,1.669,0,0,1,.608,1.115,1.616,1.616,0,0,1-.282,1.228,1.566,1.566,0,0,1-1.115.626l-1.065.147.254,1.832-1.062.144-.7-5.1Zm.15,2.415a.789.789,0,0,0,.557-.279.77.77,0,0,0,.116-.583.751.751,0,0,0-.269-.517.78.78,0,0,0-.626-.125l-.886.122.207,1.5Z" transform="translate(-647.26 -175.895)"/>
        <path id="Trazado_101920" data-name="Trazado 101920" d="M665.7,180.334l-1.566-2.133-.313.028.216,2.261-1.068.1-.485-5.133,1.86-.175a2.193,2.193,0,0,1,.758.05,1.253,1.253,0,0,1,.548.279,1.437,1.437,0,0,1,.338.457,1.769,1.769,0,0,1,.153.592,1.269,1.269,0,0,1-.2.871,1.409,1.409,0,0,1-.764.517l1.763,2.167Zm-2.048-4.093.116,1.228.626-.06c.532-.05.78-.279.742-.689a.57.57,0,0,0-.238-.432.955.955,0,0,0-.626-.106Z" transform="translate(-657.713 -174.762)"/>
        <path id="Trazado_101921" data-name="Trazado 101921" d="M678.443,179.571l-.313-5.142,1.068-.069.313,5.146Z" transform="translate(-668.462 -174.138)"/>
        <path id="Trazado_101922" data-name="Trazado 101922" d="M692.05,178.77l-1.068.022-.42-3.877-1.225,3.912h-.692l-1.384-3.815L687,178.9l-1.068.022.335-5.164,1.528-.031,1.165,3.21L690,173.681l1.525-.031Z" transform="translate(-673.819 -173.65)"/>
        <path id="Trazado_101923" data-name="Trazado 101923" d="M711.049,179.074,710.71,178l-2.164-.072-.41,1.049-1.1-.038,2.073-5.086,1.306.044,1.722,5.218Zm-2.142-2.045,1.535.05-.692-2.211Z" transform="translate(-688.318 -173.787)"/>
        <path id="Trazado_101924" data-name="Trazado 101924" d="M728.338,179.81l-1.159-2.355-.313-.025-.179,2.261-1.068-.081.407-5.139,1.863.147a2.137,2.137,0,0,1,.736.178,1.313,1.313,0,0,1,.492.37,1.421,1.421,0,0,1,.254.51,1.827,1.827,0,0,1,.05.608,1.275,1.275,0,0,1-.348.824,1.444,1.444,0,0,1-.842.379l1.362,2.437Zm-1.309-4.385-.1,1.228.626.05c.532.044.817-.141.849-.548a.554.554,0,0,0-.16-.467.94.94,0,0,0-.592-.213Z" transform="translate(-701.079 -174.213)"/>
        <path id="Trazado_101925" data-name="Trazado 101925" d="M740.68,180.914l.57-5.124,1.062.119-.57,5.124Z" transform="translate(-711.423 -175.12)"/>
        <path id="Trazado_101926" data-name="Trazado 101926" d="M750.4,182.7a2.818,2.818,0,0,1-1.293-.52,2.352,2.352,0,0,1-.792-1.059,3.038,3.038,0,0,1,.413-2.768,2.321,2.321,0,0,1,1.068-.774,3,3,0,0,1,2.675.4,2.32,2.32,0,0,1,.792,1.055,3.028,3.028,0,0,1-.413,2.765,2.362,2.362,0,0,1-1.068.783A2.818,2.818,0,0,1,750.4,182.7Zm-.905-1.585a1.519,1.519,0,0,0,1.049.626,1.5,1.5,0,0,0,1.181-.279,1.9,1.9,0,0,0,.36-2.405,1.638,1.638,0,0,0-2.23-.332,1.879,1.879,0,0,0-.36,2.4Z" transform="translate(-716.55 -176.243)"/>
      </g>
      <g id="Grupo_57638" data-name="Grupo 57638" transform="translate(222.776 186.317)">
        <path id="Trazado_101927" data-name="Trazado 101927" d="M987.11,677.144l2.346-.147.373-.774-1.848-.889.194-.4,4.056,1.951-.626,1.3a1.3,1.3,0,0,1-.742.733,1.224,1.224,0,0,1-.94-.081,1.2,1.2,0,0,1-.6-.586,1.15,1.15,0,0,1-.028-.846l-2.4.207Zm4.563-.031-1.506-.727-.417.855a1,1,0,0,0-.1.733.793.793,0,0,0,.442.476.82.82,0,0,0,.655.05.983.983,0,0,0,.514-.532Z" transform="translate(-981.083 -674.93)"/>
        <path id="Trazado_101928" data-name="Trazado 101928" d="M981.913,688.767a2.3,2.3,0,0,1,.77-.864,1.97,1.97,0,0,1,1.084-.313,2.7,2.7,0,0,1,2.192,1.159,2,2,0,0,1,.335,1.08,2.3,2.3,0,0,1-.288,1.121,2.361,2.361,0,0,1-.548.692,2.166,2.166,0,0,1-.73.41,2.034,2.034,0,0,1-.868.072,2.791,2.791,0,0,1-1.71-.911,2.048,2.048,0,0,1-.423-.761,2.11,2.11,0,0,1-.069-.83A2.34,2.34,0,0,1,981.913,688.767Zm.817-.348a1.817,1.817,0,0,0-.435.551,1.88,1.88,0,0,0-.213.667,1.688,1.688,0,0,0,.053.664,1.609,1.609,0,0,0,.348.626,2.393,2.393,0,0,0,1.409.752,1.6,1.6,0,0,0,.7-.056,1.64,1.64,0,0,0,.579-.313,1.842,1.842,0,0,0,.435-.548,1.928,1.928,0,0,0,.216-.67,1.7,1.7,0,0,0-.053-.667,1.593,1.593,0,0,0-.341-.626,2.194,2.194,0,0,0-.626-.5,2.22,2.22,0,0,0-.773-.254,1.619,1.619,0,0,0-.7.056A1.685,1.685,0,0,0,982.73,688.42Z" transform="translate(-977.473 -683.625)"/>
        <path id="Trazado_101929" data-name="Trazado 101929" d="M976.717,699.461a1.813,1.813,0,0,1,.68-.661l.232.366a1.232,1.232,0,0,0-.539.495.767.767,0,0,0-.081.68,1.086,1.086,0,0,0,.51.567l2.706,1.591-.229.385-2.765-1.625a1.362,1.362,0,0,1-.67-.8A1.253,1.253,0,0,1,976.717,699.461Z" transform="translate(-973.953 -691.324)"/>
        <path id="Trazado_101930" data-name="Trazado 101930" d="M968.706,711.051a2.312,2.312,0,0,1,.836-.8,2.017,2.017,0,0,1,1.109-.235,2.734,2.734,0,0,1,2.076,1.34,1.994,1.994,0,0,1,.244,1.106,2.321,2.321,0,0,1-.382,1.093,2.377,2.377,0,0,1-.6.626,2.1,2.1,0,0,1-.761.348,2.041,2.041,0,0,1-.871,0,2.819,2.819,0,0,1-1.629-1.049,2.061,2.061,0,0,1-.357-.792,2.088,2.088,0,0,1,0-.836A2.315,2.315,0,0,1,968.706,711.051Zm.842-.279a1.979,1.979,0,0,0-.748,1.162,1.635,1.635,0,0,0,0,.664,1.59,1.59,0,0,0,.294.626,2.383,2.383,0,0,0,1.34.868,1.608,1.608,0,0,0,.7,0,1.735,1.735,0,0,0,.6-.276,1.882,1.882,0,0,0,.479-.514,1.845,1.845,0,0,0,.269-.648,1.711,1.711,0,0,0,0-.667,1.636,1.636,0,0,0-.291-.626,2.364,2.364,0,0,0-1.344-.864,1.622,1.622,0,0,0-.7,0A1.725,1.725,0,0,0,969.548,710.772Z" transform="translate(-968.325 -699.025)"/>
      </g>
      <g id="Grupo_57639" data-name="Grupo 57639" transform="translate(224.141 185.44)">
        <path id="Trazado_101931" data-name="Trazado 101931" d="M1031.879,676.107a1.566,1.566,0,0,1-.905.908,1.685,1.685,0,0,1-1.253-.047,1.635,1.635,0,0,1-.911-.867,1.567,1.567,0,0,1,.038-1.278l.417-.99-1.7-.717.416-.987,4.748,2Zm-2.155-1.1a.786.786,0,0,0-.041.626.764.764,0,0,0,.435.4.782.782,0,0,0,.586.031.773.773,0,0,0,.417-.464l.348-.824-1.4-.589Z" transform="translate(-1010.374 -672.13)"/>
        <path id="Trazado_101932" data-name="Trazado 101932" d="M1018.122,688.192l2.624-.244.132-.282-2.051-.968.457-.968,4.66,2.192-.8,1.691a2.159,2.159,0,0,1-.426.626,1.308,1.308,0,0,1-.523.329,1.436,1.436,0,0,1-.564.056,1.762,1.762,0,0,1-.589-.169,1.253,1.253,0,0,1-.645-.626,1.416,1.416,0,0,1-.056-.921l-2.762.41Zm4.563.313-1.115-.523-.269.57c-.229.482-.157.814.213.987a.551.551,0,0,0,.495.016.94.94,0,0,0,.407-.476Z" transform="translate(-1003.519 -681.471)"/>
        <path id="Trazado_101933" data-name="Trazado 101933" d="M1015.389,699.32l4.588,2.349-.489.94-4.588-2.349Z" transform="translate(-1001.679 -690.805)"/>
        <path id="Trazado_101934" data-name="Trazado 101934" d="M1003.81,710.709l.526-.94,3.548,1.616-2.737-3.047.341-.6,4.021.777-3.21-2.211.526-.94,4.272,2.916-.752,1.328-3.354-.626,2.267,2.562-.752,1.331Z" transform="translate(-994.062 -694.953)"/>
        <path id="Trazado_101935" data-name="Trazado 101935" d="M994.769,727.146l1.1.257,1.168-1.823-.692-.889.589-.921,3.32,4.385-.708,1.1-5.362-1.184Zm2.85-.817-.83,1.293,2.255.532Z" transform="translate(-987.448 -707.597)"/>
        <path id="Trazado_101936" data-name="Trazado 101936" d="M986.24,741.6l2.628.213.179-.254-1.851-1.309.626-.874,4.209,2.972-1.077,1.528a2.131,2.131,0,0,1-.529.542,1.287,1.287,0,0,1-.57.235,1.449,1.449,0,0,1-.567-.044,1.739,1.739,0,0,1-.548-.266,1.253,1.253,0,0,1-.529-.72,1.415,1.415,0,0,1,.1-.918l-2.794-.069Zm4.441,1.1L989.676,742l-.366.517q-.46.658.041,1.008a.561.561,0,0,0,.482.1.939.939,0,0,0,.482-.4Z" transform="translate(-981.5 -718.319)"/>
        <path id="Trazado_101937" data-name="Trazado 101937" d="M982.626,751.64l4.115,3.107-.645.852-4.1-3.1Z" transform="translate(-979.082 -726.739)"/>
        <path id="Trazado_101938" data-name="Trazado 101938" d="M973.328,760.92a2.821,2.821,0,0,1,1.106-.846,2.354,2.354,0,0,1,1.315-.144,2.819,2.819,0,0,1,1.3.626,2.771,2.771,0,0,1,.868,1.149,2.333,2.333,0,0,1,.125,1.312,2.819,2.819,0,0,1-.608,1.253,2.781,2.781,0,0,1-1.1.846,2.326,2.326,0,0,1-1.309.141,2.758,2.758,0,0,1-1.3-.626,2.8,2.8,0,0,1-.868-1.149,2.343,2.343,0,0,1-.125-1.315A2.791,2.791,0,0,1,973.328,760.92Zm1.823.031a1.635,1.635,0,0,0-1.425,1.744,1.879,1.879,0,0,0,1.879,1.538,1.635,1.635,0,0,0,1.425-1.748A1.879,1.879,0,0,0,975.151,760.951Z" transform="translate(-972.684 -732.408)"/>
      </g>
      <g id="Grupo_57640" data-name="Grupo 57640" transform="translate(46.63 187.216)">
        <path id="Trazado_101939" data-name="Trazado 101939" d="M427.922,710.025,427.2,711l1.14,1.748,1.165-.276.26.4-4.676,1.068-.288-.442,2.881-3.865Zm0,2.819-.977-1.5-1.6,2.111Z" transform="translate(-418.875 -699.661)"/>
        <path id="Trazado_101940" data-name="Trazado 101940" d="M420.383,701.673l-1.444-2.38.351-.213,1.741,2.859-.313.2-4.579-.382,1.4,2.311-.351.213-1.682-2.765.313-.2Z" transform="translate(-412.494 -692.416)"/>
        <path id="Trazado_101941" data-name="Trazado 101941" d="M413.533,690.057a1.8,1.8,0,0,1,.229.8,1.391,1.391,0,0,1-.2.755,1.538,1.538,0,0,1-.611.57l-2.671,1.447-.216-.395,2.618-1.416a1.137,1.137,0,0,0,.608-.692,1.253,1.253,0,0,0-.789-1.456,1.121,1.121,0,0,0-.914.125l-2.615,1.416-.213-.392,2.675-1.447a1.429,1.429,0,0,1,1.19-.128,1.631,1.631,0,0,1,.908.811Z" transform="translate(-407.858 -685.61)"/>
        <path id="Trazado_101942" data-name="Trazado 101942" d="M409.544,679.429l-.714-1.444.37-.185.911,1.848-4.034,1.995-.2-.4Z" transform="translate(-405.88 -677.8)"/>
      </g>
      <g id="Grupo_57641" data-name="Grupo 57641" transform="translate(32.549 183.559)">
        <path id="Trazado_101943" data-name="Trazado 101943" d="M412.794,761.722a1.566,1.566,0,0,1-.357-1.231,1.66,1.66,0,0,1,.655-1.087,1.635,1.635,0,0,1,1.2-.379,1.591,1.591,0,0,1,1.1.651l.664.842,1.45-1.14.664.839-4.052,3.179Zm2-1.35a.774.774,0,0,0-.523-.338.752.752,0,0,0-.557.191.764.764,0,0,0-.313.495.789.789,0,0,0,.2.589l.554.7,1.19-.94Z" transform="translate(-396.292 -729.926)"/>
        <path id="Trazado_101944" data-name="Trazado 101944" d="M407.661,741.874l-1.055,2.415.182.254,1.842-1.328.626.871-4.184,3.013-1.093-1.5a2.15,2.15,0,0,1-.341-.676,1.339,1.339,0,0,1-.034-.626,1.466,1.466,0,0,1,.225-.523,1.773,1.773,0,0,1,.432-.432,1.253,1.253,0,0,1,.852-.266,1.4,1.4,0,0,1,.833.4l.977-2.618Zm-2.505,3.837,1-.72-.366-.514q-.47-.648-.968-.291a.561.561,0,0,0-.254.423.94.94,0,0,0,.222.589Z" transform="translate(-390.219 -717.447)"/>
        <path id="Trazado_101945" data-name="Trazado 101945" d="M402.293,736.893l-4.284,2.866-.6-.886L401.688,736Z" transform="translate(-385.982 -714.116)"/>
        <path id="Trazado_101946" data-name="Trazado 101946" d="M389.742,716.6l.557.908-3.132,2.321,3.99-.911.363.589-2.628,3.132,3.489-1.738.561.911-4.619,2.327-.8-1.3,2.192-2.631-3.339.745-.8-1.3Z" transform="translate(-377.856 -700.792)"/>
        <path id="Trazado_101947" data-name="Trazado 101947" d="M382.893,701.885l-.755.833,1.03,1.9,1.112-.175.523.961-5.437.786-.626-1.152,3.63-4.121Zm-.661,2.887-.733-1.353-1.566,1.716Z" transform="translate(-373.159 -690.023)"/>
        <path id="Trazado_101948" data-name="Trazado 101948" d="M375.705,688.479l-1.456,2.192.135.279,2.042-.987.467.961-4.641,2.252-.814-1.682a2.233,2.233,0,0,1-.219-.723,1.334,1.334,0,0,1,.072-.626,1.447,1.447,0,0,1,.313-.476,1.8,1.8,0,0,1,.5-.351,1.252,1.252,0,0,1,.886-.116,1.443,1.443,0,0,1,.752.536l1.416-2.408Zm-3.132,3.345,1.105-.536-.276-.567q-.348-.723-.9-.457a.557.557,0,0,0-.313.376.917.917,0,0,0,.116.626Z" transform="translate(-367.985 -680.689)"/>
        <path id="Trazado_101949" data-name="Trazado 101949" d="M371.633,683.007l-4.7,2.1-.435-.977,4.7-2.1Z" transform="translate(-364.752 -677.049)"/>
        <path id="Trazado_101950" data-name="Trazado 101950" d="M366.049,667.792a2.819,2.819,0,0,1,.207,1.375,2.337,2.337,0,0,1-.514,1.218,3.023,3.023,0,0,1-2.6,1.043,2.349,2.349,0,0,1-1.209-.526,3.019,3.019,0,0,1-1.008-2.505,2.334,2.334,0,0,1,.51-1.215,3.032,3.032,0,0,1,2.6-1.043,2.358,2.358,0,0,1,1.212.526A2.764,2.764,0,0,1,366.049,667.792Zm-.908,1.566a1.629,1.629,0,0,0-.839-2.092,1.89,1.89,0,0,0-2.255.905,1.574,1.574,0,0,0,2.13,2.051,1.67,1.67,0,0,0,.965-.852Z" transform="translate(-360.918 -666.124)"/>
      </g>
      <g id="Grupo_57642" data-name="Grupo 57642" transform="translate(31.242 73.219)">
        <path id="Trazado_101951" data-name="Trazado 101951" d="M361.913,414.614a2.506,2.506,0,0,1-.858,1.209,1.566,1.566,0,0,1-1.278.276l.141-1.124a.939.939,0,0,0,.73-.1,1.1,1.1,0,0,0,.457-.6.908.908,0,0,0,.044-.583.529.529,0,0,0-.366-.36.5.5,0,0,0-.423.041,1.151,1.151,0,0,0-.341.26c-.085.1-.21.257-.379.479-.022.028-.041.05-.05.066-.085.113-.157.2-.213.272s-.125.15-.216.247a2.257,2.257,0,0,1-.244.232,1.873,1.873,0,0,1-.26.169,1,1,0,0,1-.291.113,1.19,1.19,0,0,1-.313.016,1.253,1.253,0,0,1-.36-.078,1.375,1.375,0,0,1-.683-.5,1.484,1.484,0,0,1-.263-.786,2.361,2.361,0,0,1,.153-.94,3.025,3.025,0,0,1,.313-.6,2.246,2.246,0,0,1,.423-.485,1.422,1.422,0,0,1,.561-.313,1.6,1.6,0,0,1,.683-.044l-.113,1.062a.833.833,0,0,0-1.008.626.983.983,0,0,0-.056.589.5.5,0,0,0,.348.366.523.523,0,0,0,.557-.2,4.988,4.988,0,0,0,.476-.589l.219-.285c.056-.072.132-.163.229-.269a2.317,2.317,0,0,1,.26-.251,3.036,3.036,0,0,1,.279-.188,1.1,1.1,0,0,1,.313-.128,1.362,1.362,0,0,1,.348-.022,1.252,1.252,0,0,1,.391.081,1.566,1.566,0,0,1,.514.294,1.269,1.269,0,0,1,.313.417,1.566,1.566,0,0,1,.138.5,1.939,1.939,0,0,1,0,.554A3.152,3.152,0,0,1,361.913,414.614Z" transform="translate(-356.744 -380.87)"/>
        <path id="Trazado_101952" data-name="Trazado 101952" d="M369.017,400.42l.225.1-1.03,2.505a.9.9,0,0,0,1.19-.526.876.876,0,0,0,.066-.5.761.761,0,0,0-.225-.423l.485-.821a1.6,1.6,0,0,1,.554.921,1.9,1.9,0,0,1-.128,1.118,1.97,1.97,0,0,1-1.005,1.131,1.841,1.841,0,0,1-1.5-.038,1.86,1.86,0,0,1-1.1-1.024,1.92,1.92,0,0,1,.06-1.459,1.679,1.679,0,0,1,2.405-.977Zm-1.732,1.253a.814.814,0,0,0,.313,1.093l.626-1.566a.767.767,0,0,0-.582.034.821.821,0,0,0-.357.432Z" transform="translate(-363.403 -373.162)"/>
        <path id="Trazado_101953" data-name="Trazado 101953" d="M375.565,390.3a1.951,1.951,0,0,1-1.065,1.071,2,2,0,0,1-2.505-1.134,2.192,2.192,0,0,1,.921-2.446,1.566,1.566,0,0,1,1.159-.147l-.3.908a.824.824,0,0,0-.564.078.94.94,0,0,0-.376.442.843.843,0,0,0,0,.736,1.187,1.187,0,0,0,.626.561,1.155,1.155,0,0,0,.824.091.833.833,0,0,0,.551-.485.914.914,0,0,0,.085-.57.849.849,0,0,0-.313-.482l.485-.821a1.6,1.6,0,0,1,.651.974A1.939,1.939,0,0,1,375.565,390.3Z" transform="translate(-367.16 -364.486)"/>
        <path id="Trazado_101954" data-name="Trazado 101954" d="M377.289,374.758l.46-.918,3.279,1.644-.435.871-.407-.179a1.4,1.4,0,0,1-.066,1.275,1.422,1.422,0,0,1-.749.758,1.225,1.225,0,0,1-1-.106L376.18,377l.46-.921,2.011,1.005a.626.626,0,0,0,.532.063.711.711,0,0,0,.357-.354.827.827,0,0,0,.075-.626.883.883,0,0,0-.5-.51Z" transform="translate(-370.093 -355.037)"/>
        <path id="Trazado_101955" data-name="Trazado 101955" d="M383.895,362.65a1.431,1.431,0,0,1,.786-.717,1.222,1.222,0,0,1,.993.153l2.148,1.218-.52.9-1.957-1.106a.626.626,0,0,0-.529-.091.692.692,0,0,0-.373.332.939.939,0,0,0-.113.291.777.777,0,0,0,0,.294.645.645,0,0,0,.15.294,1.25,1.25,0,0,0,.335.269l1.76,1-.5.9-3.191-1.807.5-.893.354.2a1.422,1.422,0,0,1,.157-1.228Z" transform="translate(-374.695 -346.828)"/>
        <path id="Trazado_101956" data-name="Trazado 101956" d="M389.48,345.647l.536-.877,4.682,2.844-.5.83-.423-.225a1.037,1.037,0,0,1,.113.626,1.545,1.545,0,0,1-.229.664,1.773,1.773,0,0,1-.47.517,1.625,1.625,0,0,1-1.322.3,2.173,2.173,0,0,1-.758-.3,2.083,2.083,0,0,1-.749-.736,1.65,1.65,0,0,1-.238-.893,1.8,1.8,0,0,1,.266-.874,1.644,1.644,0,0,1,.46-.5,1.046,1.046,0,0,1,.564-.194Zm3.567,3.2a.905.905,0,0,0,.11-.742,1.068,1.068,0,0,0-.51-.626,1.08,1.08,0,0,0-.8-.16.917.917,0,0,0-.611.438.94.94,0,0,0-.116.745,1.087,1.087,0,0,0,.52.626,1.074,1.074,0,0,0,.8.163A.915.915,0,0,0,393.047,348.851Z" transform="translate(-379.228 -335.071)"/>
        <path id="Trazado_101957" data-name="Trazado 101957" d="M402.741,339.084a3.483,3.483,0,0,0,.8.42l.085.056-.529.8-.379-.15a1.2,1.2,0,0,1,0,.626,1.9,1.9,0,0,1-.269.626,1.688,1.688,0,0,1-.216.269,1.253,1.253,0,0,1-.26.2.987.987,0,0,1-.313.106.77.77,0,0,1-.335-.019,1.165,1.165,0,0,1-.37-.166,1.084,1.084,0,0,1-.294-.276.957.957,0,0,1-.15-.313,1.2,1.2,0,0,1-.022-.36,2.2,2.2,0,0,1,.072-.388,4.081,4.081,0,0,1,.144-.429l.219-.576a.673.673,0,0,0,.053-.291.235.235,0,0,0-.11-.169.376.376,0,0,0-.391-.044.834.834,0,0,0-.332.313.626.626,0,0,0,.072.905l-.626.67a1.253,1.253,0,0,1-.4-.905,2.123,2.123,0,0,1,.41-1.112q.852-1.284,1.954-.554Zm-.689,1.713a.814.814,0,0,0,.128-.676,1.105,1.105,0,0,0-.52-.626l-.272.861a1.01,1.01,0,0,0-.078.388.357.357,0,0,0,.464.3A.555.555,0,0,0,402.052,340.8Z" transform="translate(-385.89 -330.46)"/>
        <path id="Trazado_101958" data-name="Trazado 101958" d="M406.444,329.41a1.221,1.221,0,0,1-.081-.648,1.453,1.453,0,0,1,.263-.692l.749.529a1.369,1.369,0,0,0-.313.842.965.965,0,0,0,.482.676l1.459,1.03-.6.846-3-2.117.57-.8Z" transform="translate(-390.169 -323.602)"/>
        <path id="Trazado_101959" data-name="Trazado 101959" d="M407.9,322.013a.592.592,0,0,1-.83.125.563.563,0,0,1-.229-.388.583.583,0,0,1,.11-.442.589.589,0,0,1,1.055.266A.57.57,0,0,1,407.9,322.013Zm3.079,2.928-2.947-2.192.626-.83,2.947,2.192Z" transform="translate(-391.149 -318.794)"/>
        <path id="Trazado_101960" data-name="Trazado 101960" d="M419.879,317a2.33,2.33,0,0,1-.817.676,1.682,1.682,0,0,1-.958.15,1.971,1.971,0,0,1-.965-.429,1.8,1.8,0,0,1-.749-1.3,2.327,2.327,0,0,1,1.795-2.286,2.026,2.026,0,0,1,2.192,1.722A2.051,2.051,0,0,1,419.879,317Zm-.648-.5a.94.94,0,0,0,.213-.755,1.271,1.271,0,0,0-1.253-.98.939.939,0,0,0-.686.385.9.9,0,0,0-.2.739,1.272,1.272,0,0,0,1.253.977.908.908,0,0,0,.67-.373Z" transform="translate(-397.71 -313.802)"/>
      </g>
      <g id="Grupo_57643" data-name="Grupo 57643" transform="translate(225.905 72.866)">
        <path id="Trazado_101961" data-name="Trazado 101961" d="M978.887,316.847a2.5,2.5,0,0,1-.567-1.372,1.585,1.585,0,0,1,.448-1.228l.877.72a.94.94,0,0,0-.313.667,1.149,1.149,0,0,0,.266.711.94.94,0,0,0,.47.348.535.535,0,0,0,.5-.119.5.5,0,0,0,.191-.379,1.166,1.166,0,0,0-.038-.429c-.038-.122-.107-.313-.2-.573l-.028-.078-.119-.313c-.028-.081-.06-.188-.094-.313a2.172,2.172,0,0,1-.066-.329,2.017,2.017,0,0,1,0-.313.92.92,0,0,1,.06-.313,1.274,1.274,0,0,1,.417-.545,1.378,1.378,0,0,1,.789-.313,1.472,1.472,0,0,1,.808.194,2.358,2.358,0,0,1,.7.626,2.944,2.944,0,0,1,.354.576,2.26,2.26,0,0,1,.185.626,1.435,1.435,0,0,1-.041.626,1.584,1.584,0,0,1-.313.6l-.839-.661a.836.836,0,0,0,0-1.184,1.011,1.011,0,0,0-.47-.363.51.51,0,0,0-.495.1.52.52,0,0,0-.132.576,5.133,5.133,0,0,0,.244.717c.053.138.094.251.125.338s.066.2.1.338a1.951,1.951,0,0,1,.075.354,2.79,2.79,0,0,1,0,.335,1.032,1.032,0,0,1-.063.338,1.286,1.286,0,0,1-.166.313,1.27,1.27,0,0,1-.279.288,1.537,1.537,0,0,1-.523.276,1.253,1.253,0,0,1-.52.044,1.652,1.652,0,0,1-.5-.15,2.125,2.125,0,0,1-.464-.313A2.793,2.793,0,0,1,978.887,316.847Z" transform="translate(-978.316 -312.674)"/>
        <path id="Trazado_101962" data-name="Trazado 101962" d="M990.2,330.726l-.207.135-1.566-2.211a.9.9,0,0,0-.191,1.287.94.94,0,0,0,.385.313.774.774,0,0,0,.479.038l.435.846a1.6,1.6,0,0,1-1.074-.022,1.916,1.916,0,0,1-.88-.7,1.989,1.989,0,0,1-.42-1.456,2.117,2.117,0,0,1,2.28-1.625,1.926,1.926,0,0,1,1.228.839,1.676,1.676,0,0,1-.457,2.556Zm-.131-2.13a.808.808,0,0,0-1.09-.313l.977,1.369a.771.771,0,0,0,.279-.51.8.8,0,0,0-.166-.545Z" transform="translate(-984.384 -322.729)"/>
        <path id="Trazado_101963" data-name="Trazado 101963" d="M995.2,341.581a1.973,1.973,0,0,1-.338-1.472,2,2,0,0,1,2.3-1.516,2.192,2.192,0,0,1,1.566,2.083,1.565,1.565,0,0,1-.495,1.059l-.607-.736a.808.808,0,0,0,.232-.52.914.914,0,0,0-.172-.554.846.846,0,0,0-.626-.395,1.353,1.353,0,0,0-1.322.871.839.839,0,0,0,.116.727.939.939,0,0,0,.441.373.83.83,0,0,0,.57,0l.435.849a1.566,1.566,0,0,1-1.171.031A1.96,1.96,0,0,1,995.2,341.581Z" transform="translate(-989.66 -330.455)"/>
        <path id="Trazado_101964" data-name="Trazado 101964" d="M1005.7,350.622l.532.88L1003.1,353.4l-.5-.833.366-.251a1.4,1.4,0,0,1-1.043-.733,1.422,1.422,0,0,1-.241-1.037,1.225,1.225,0,0,1,.626-.789l2.114-1.275.532.883-1.932,1.159a.626.626,0,0,0-.335.417.692.692,0,0,0,.11.492.824.824,0,0,0,.479.388.889.889,0,0,0,.7-.153Z" transform="translate(-994.353 -337.266)"/>
        <path id="Trazado_101965" data-name="Trazado 101965" d="M1012.209,363.263a1.431,1.431,0,0,1,.191,1.049,1.231,1.231,0,0,1-.661.755l-2.177,1.171-.485-.908,1.979-1.065a.626.626,0,0,0,.357-.4.7.7,0,0,0-.081-.495,1.015,1.015,0,0,0-.188-.247.778.778,0,0,0-.247-.157.627.627,0,0,0-.332-.031,1.3,1.3,0,0,0-.4.141l-1.782.958-.489-.905,3.232-1.738.485.905-.357.191A1.425,1.425,0,0,1,1012.209,363.263Z" transform="translate(-998.628 -346.133)"/>
        <path id="Trazado_101966" data-name="Trazado 101966" d="M1021.616,376.531l.457.918-4.9,2.446-.435-.871.417-.235a1.055,1.055,0,0,1-.579-.232,1.593,1.593,0,0,1-.438-.548,1.738,1.738,0,0,1-.188-.673,1.638,1.638,0,0,1,.454-1.278,2.262,2.262,0,0,1,.654-.482,2.076,2.076,0,0,1,1.024-.238,1.628,1.628,0,0,1,.88.276,1.726,1.726,0,0,1,.6.689,1.6,1.6,0,0,1,.179.655,1.053,1.053,0,0,1-.135.579ZM1017,377.841a.94.94,0,0,0,.573.489,1.065,1.065,0,0,0,.808-.094,1.08,1.08,0,0,0,.564-.592.906.906,0,0,0-.047-.752.918.918,0,0,0-.57-.495,1.215,1.215,0,0,0-1.381.689A.939.939,0,0,0,1017,377.841Z" transform="translate(-1004.158 -355.713)"/>
        <path id="Trazado_101967" data-name="Trazado 101967" d="M1023.7,392.318a3.285,3.285,0,0,0-.78.451l-.091.041-.395-.874.313-.241a1.162,1.162,0,0,1-.532-.313,1.913,1.913,0,0,1-.492-.88,1.136,1.136,0,0,1-.028-.313.939.939,0,0,1,.069-.313.908.908,0,0,1,.194-.276,1.219,1.219,0,0,1,.338-.222,1.081,1.081,0,0,1,.388-.1.94.94,0,0,1,.344.041,1.148,1.148,0,0,1,.313.172,2.385,2.385,0,0,1,.291.266,4.268,4.268,0,0,1,.282.351l.373.495a.68.68,0,0,0,.219.2.238.238,0,0,0,.2,0,.379.379,0,0,0,.247-.313.854.854,0,0,0-.081-.442.626.626,0,0,0-.808-.423l-.222-.9a1.215,1.215,0,0,1,.98.141,2.11,2.11,0,0,1,.72.94q.626,1.4-.573,1.948Zm-1.084-1.494a.824.824,0,0,0,.5.467,1.1,1.1,0,0,0,.817-.1l-.582-.692a1.081,1.081,0,0,0-.285-.272.313.313,0,0,0-.294,0,.341.341,0,0,0-.21.244.567.567,0,0,0,.05.351Z" transform="translate(-1008.11 -364.878)"/>
        <path id="Trazado_101968" data-name="Trazado 101968" d="M1029.609,401.088a1.179,1.179,0,0,1,.592.276,1.469,1.469,0,0,1,.445.592l-.849.351a1.39,1.39,0,0,0-.539-.727.971.971,0,0,0-.83.05l-1.651.686-.4-.94,3.389-1.406.376.908Z" transform="translate(-1011.327 -372.631)"/>
        <path id="Trazado_101969" data-name="Trazado 101969" d="M1029.72,408.49l3.417-1.334.376.965-3.417,1.331Zm4.118-1.043a.589.589,0,1,1,1.093-.439.584.584,0,0,1-.767.761.56.56,0,0,1-.326-.323Z" transform="translate(-1013.621 -377.204)"/>
        <path id="Trazado_101970" data-name="Trazado 101970" d="M1033.406,418.071a2.276,2.276,0,0,1-.135-1.052,1.659,1.659,0,0,1,.382-.893,1.938,1.938,0,0,1,.877-.586,1.8,1.8,0,0,1,1.5.056,2.327,2.327,0,0,1,.977,2.737,2.023,2.023,0,0,1-2.628.94A2.069,2.069,0,0,1,1033.406,418.071Zm.767-.285a.94.94,0,0,0,.526.586,1.275,1.275,0,0,0,1.491-.532.939.939,0,0,0,.038-.783.9.9,0,0,0-.52-.564,1.271,1.271,0,0,0-1.488.529.9.9,0,0,0-.047.761Z" transform="translate(-1016.051 -383.231)"/>
      </g>
      <g id="Grupo_57644" data-name="Grupo 57644" transform="translate(118.899 252.686)">
        <path id="Trazado_101971" data-name="Trazado 101971" d="M751.991,887.909a2.507,2.507,0,0,1,1.475.175,1.591,1.591,0,0,1,.852.987l-1.055.417a.94.94,0,0,0-.435-.592,1.118,1.118,0,0,0-.748-.116.94.94,0,0,0-.532.241.529.529,0,0,0-.141.495.5.5,0,0,0,.238.351,1.1,1.1,0,0,0,.391.175q.188.044.6.1h.081l.341.056c.088.016.194.041.313.072a2.77,2.77,0,0,1,.313.1,2.688,2.688,0,0,1,.272.147.97.97,0,0,1,.238.2,1.215,1.215,0,0,1,.169.276,1.252,1.252,0,0,1,.1.354,1.372,1.372,0,0,1-.116.839,1.481,1.481,0,0,1-.564.608,2.321,2.321,0,0,1-.893.313,3.112,3.112,0,0,1-.676.028,2.481,2.481,0,0,1-.626-.138,1.5,1.5,0,0,1-.539-.348,1.61,1.61,0,0,1-.363-.579l.987-.407a.836.836,0,0,0,1.027.589,1.035,1.035,0,0,0,.545-.232.51.51,0,0,0,.154-.482c-.028-.188-.175-.313-.439-.395a5.42,5.42,0,0,0-.745-.138l-.354-.053q-.135-.025-.348-.075a2.037,2.037,0,0,1-.344-.11,2.25,2.25,0,0,1-.3-.153,1.05,1.05,0,0,1-.266-.219,1.4,1.4,0,0,1-.188-.294,1.456,1.456,0,0,1-.116-.385,1.616,1.616,0,0,1,.016-.592,1.325,1.325,0,0,1,.216-.476,1.652,1.652,0,0,1,.376-.36,1.979,1.979,0,0,1,.492-.254A2.955,2.955,0,0,1,751.991,887.909Z" transform="translate(-714.694 -887.549)"/>
        <path id="Trazado_101972" data-name="Trazado 101972" d="M736.863,891.926v-.247l2.7-.3a.94.94,0,0,0-.363-.626.914.914,0,0,0-.667-.157.883.883,0,0,0-.467.178.77.77,0,0,0-.266.4l-.94-.034a1.612,1.612,0,0,1,.545-.94,1.9,1.9,0,0,1,1.043-.423,1.97,1.97,0,0,1,1.475.345,1.838,1.838,0,0,1,.683,1.331,1.879,1.879,0,0,1-.376,1.453,1.929,1.929,0,0,1-1.328.661,1.679,1.679,0,0,1-2.011-1.647Zm1.923.924a.811.811,0,0,0,.808-.8l-1.672.185a.771.771,0,0,0,.313.492.8.8,0,0,0,.548.122Z" transform="translate(-705.473 -888.845)"/>
        <path id="Trazado_101973" data-name="Trazado 101973" d="M724.875,891.042a1.945,1.945,0,0,1,1.45.423,2,2,0,0,1,.2,2.747,2.17,2.17,0,0,1-2.584.36,1.584,1.584,0,0,1-.686-.94l.94-.172a.8.8,0,0,0,.341.457.9.9,0,0,0,.567.119.836.836,0,0,0,.645-.344,1.343,1.343,0,0,0-.113-1.566.846.846,0,0,0-.692-.254.941.941,0,0,0-.542.2.83.83,0,0,0-.272.5l-.94-.034a1.566,1.566,0,0,1,.545-1.037A1.9,1.9,0,0,1,724.875,891.042Z" transform="translate(-696.084 -889.721)"/>
        <path id="Trazado_101974" data-name="Trazado 101974" d="M710.789,895.477l-1.027.034-.122-3.664.974-.034.038.442a1.4,1.4,0,0,1,1.149-.551,1.425,1.425,0,0,1,1.024.294,1.253,1.253,0,0,1,.385.94l.081,2.468-1.03.034-.075-2.245a.626.626,0,0,0-.2-.5.7.7,0,0,0-.482-.144.826.826,0,0,0-.573.229.9.9,0,0,0-.21.686Z" transform="translate(-686.778 -890.179)"/>
        <path id="Trazado_101975" data-name="Trazado 101975" d="M696.365,895.865a1.438,1.438,0,0,1-1.008-.344,1.218,1.218,0,0,1-.335-.94l.038-2.471,1.033.019-.038,2.245a.626.626,0,0,0,.175.51.683.683,0,0,0,.47.169.959.959,0,0,0,.313-.044.77.77,0,0,0,.26-.138.672.672,0,0,0,.188-.276,1.187,1.187,0,0,0,.075-.423l.034-2.023,1.027.019-.066,3.664-1.027-.019v-.407A1.4,1.4,0,0,1,696.365,895.865Z" transform="translate(-676.735 -890.463)"/>
        <path id="Trazado_101976" data-name="Trazado 101976" d="M680.754,897.051,679.73,897l.257-5.474.971.047v.479a1.032,1.032,0,0,1,.485-.395,1.565,1.565,0,0,1,.692-.116,1.833,1.833,0,0,1,.68.163,1.756,1.756,0,0,1,.542.4,1.687,1.687,0,0,1,.351.626,2.253,2.253,0,0,1,.1.808,2.1,2.1,0,0,1-.291,1.012,1.663,1.663,0,0,1-.67.626,1.757,1.757,0,0,1-.893.185,1.646,1.646,0,0,1-.658-.166,1.04,1.04,0,0,1-.442-.4Zm1.109-4.667a.917.917,0,0,0-.7.26,1.2,1.2,0,0,0-.072,1.535.9.9,0,0,0,.676.313.918.918,0,0,0,.711-.254,1.077,1.077,0,0,0,.313-.761,1.062,1.062,0,0,0-.241-.783.94.94,0,0,0-.683-.31Z" transform="translate(-666.235 -890.065)"/>
        <path id="Trazado_101977" data-name="Trazado 101977" d="M667.138,891.449a3.445,3.445,0,0,0,0-.9v-.1l.958.081.047.4a1.187,1.187,0,0,1,.542-.313,1.85,1.85,0,0,1,.67-.06,1.816,1.816,0,0,1,.338.06,1.157,1.157,0,0,1,.3.135.919.919,0,0,1,.238.213.858.858,0,0,1,.147.313,1.211,1.211,0,0,1,.028.4,1.075,1.075,0,0,1-.1.388.96.96,0,0,1-.2.282,1.051,1.051,0,0,1-.313.191,1.82,1.82,0,0,1-.376.125,3.981,3.981,0,0,1-.442.078l-.626.081a.693.693,0,0,0-.282.094.229.229,0,0,0-.094.175.376.376,0,0,0,.147.366.832.832,0,0,0,.426.144.626.626,0,0,0,.764-.495l.893.241a1.252,1.252,0,0,1-.6.789,2.141,2.141,0,0,1-1.171.169c-1.024-.088-1.5-.573-1.422-1.45Zm1.835-.216a.826.826,0,0,0-.655.213,1.105,1.105,0,0,0-.313.761l.889-.172a1.021,1.021,0,0,0,.376-.116.313.313,0,0,0,.147-.254.335.335,0,0,0-.11-.313.561.561,0,0,0-.335-.1Z" transform="translate(-657.489 -889.323)"/>
        <path id="Trazado_101978" data-name="Trazado 101978" d="M657.662,892.819a1.156,1.156,0,0,1-.529.382,1.432,1.432,0,0,1-.733.1l.106-.911a1.4,1.4,0,0,0,.9-.116.977.977,0,0,0,.36-.748l.207-1.776,1.027.119-.426,3.642-.977-.113Z" transform="translate(-650.211 -888.842)"/>
        <path id="Trazado_101979" data-name="Trazado 101979" d="M650.97,892.857a.573.573,0,0,1,.395.229.567.567,0,0,1,.113.438.554.554,0,0,1-.232.388.582.582,0,0,1-.438.113.567.567,0,0,1-.385-.229.561.561,0,0,1-.116-.435A.592.592,0,0,1,650.97,892.857Zm1.115-4.106-.5,3.633-1.024-.141.5-3.633Z" transform="translate(-646.021 -888.059)"/>
        <path id="Trazado_101980" data-name="Trazado 101980" d="M638.97,886.9a2.319,2.319,0,0,1,.987.395,1.678,1.678,0,0,1,.592.77,1.953,1.953,0,0,1,.085,1.052,1.8,1.8,0,0,1-.783,1.278,2.327,2.327,0,0,1-2.866-.485,2.02,2.02,0,0,1,.467-2.747A2.054,2.054,0,0,1,638.97,886.9Zm-.125.808a.939.939,0,0,0-.767.172,1.275,1.275,0,0,0-.263,1.566.939.939,0,0,0,.667.417.912.912,0,0,0,.742-.178,1.29,1.29,0,0,0,.266-1.566.9.9,0,0,0-.645-.4Z" transform="translate(-636.64 -886.852)"/>
      </g>
      <g id="Grupo_57645" data-name="Grupo 57645" transform="translate(72.099 232.858)">
        <path id="Trazado_101981" data-name="Trazado 101981" d="M549.91,865.871l.235-.532,1.177.523,1.8-4.071.579.257-1.8,4.071,1.181.523-.235.532Z" transform="translate(-530.272 -849.811)"/>
        <path id="Trazado_101982" data-name="Trazado 101982" d="M543.988,858.336l.078-.147,2.471,1.181a1.234,1.234,0,0,0,.085-.939,1.093,1.093,0,0,0-.586-.626,1.038,1.038,0,0,0-.6-.1,1.065,1.065,0,0,0-.561.244l-.451-.344a1.566,1.566,0,0,1,.864-.42,1.631,1.631,0,0,1,.958.153,1.691,1.691,0,0,1,.94.986,2.079,2.079,0,0,1-1.153,2.4,1.675,1.675,0,0,1-1.331-.1,1.582,1.582,0,0,1-.871-.915,1.794,1.794,0,0,1,.15-1.378Zm.911,1.854a1.108,1.108,0,0,0,.767.091,1.146,1.146,0,0,0,.645-.492l-1.9-.908a1.055,1.055,0,0,0-.034.783A1,1,0,0,0,544.9,860.19Z" transform="translate(-526.051 -846.636)"/>
        <path id="Trazado_101983" data-name="Trazado 101983" d="M535.577,855.944a1.059,1.059,0,0,1-.6.222,1.343,1.343,0,0,1-.683-.144l.266-.517a1.152,1.152,0,0,0,.842.141,1.078,1.078,0,0,0,.626-.611l.858-1.666.548.282-1.6,3.132-.536-.276Z" transform="translate(-519.544 -844.028)"/>
        <path id="Trazado_101984" data-name="Trazado 101984" d="M527.872,847.9a1.679,1.679,0,0,1,.861,1.043,1.788,1.788,0,0,1-.194,1.394,1.807,1.807,0,0,1-1.065.918,1.835,1.835,0,0,1-2.089-.918,1.54,1.54,0,0,1-.11-1.03l.551.194a1.071,1.071,0,0,0,.088.67,1.089,1.089,0,0,0,.464.473,1.039,1.039,0,0,0,.886.072,1.388,1.388,0,0,0,.733-.677,1.36,1.36,0,0,0,.172-.98,1.037,1.037,0,0,0-.542-.7,1.064,1.064,0,0,0-.648-.135,1.087,1.087,0,0,0-.611.288l-.46-.36a1.566,1.566,0,0,1,.94-.464,1.7,1.7,0,0,1,1.024.216Z" transform="translate(-513.323 -840.113)"/>
        <path id="Trazado_101985" data-name="Trazado 101985" d="M517.435,847.563a.417.417,0,0,1,.147.57.386.386,0,0,1-.254.191.414.414,0,0,1-.313-.044.42.42,0,0,1-.188-.254.392.392,0,0,1,.044-.313.385.385,0,0,1,.254-.191A.391.391,0,0,1,517.435,847.563Zm2.468-3.573-1.779,3.022-.536-.313,1.779-3.019Z" transform="translate(-507.54 -837.373)"/>
        <path id="Trazado_101986" data-name="Trazado 101986" d="M513.049,837.808a1.2,1.2,0,0,1,.529.608.877.877,0,0,1-.122.771,1,1,0,0,1-.313.338.776.776,0,0,1-.41.122,1.881,1.881,0,0,1-.454-.047,4.1,4.1,0,0,1-.52-.175l-.532-.219a.313.313,0,0,0-.432.113.626.626,0,0,0-.091.561.905.905,0,0,0,.385.432.915.915,0,0,0,.551.153.674.674,0,0,0,.482-.282l.41.391a1.077,1.077,0,0,1-.767.41,1.638,1.638,0,0,1-.94-.291,1.91,1.91,0,0,1-.4-.313,1.41,1.41,0,0,1-.257-.391.9.9,0,0,1-.06-.479,1.38,1.38,0,0,1,.213-.548l.761-1.231a.626.626,0,0,0,.125-.354.348.348,0,0,0-.188-.225l-.047-.031.235-.379.26.163a.586.586,0,0,1,.313.752l.022.016A1.334,1.334,0,0,1,513.049,837.808Zm-.382.348a.939.939,0,0,0-.82-.106,1.391,1.391,0,0,0-.73.626l.883.335a1.271,1.271,0,0,0,.564.122.454.454,0,0,0,.351-.235.435.435,0,0,0,.059-.417A.726.726,0,0,0,512.667,838.156Z" transform="translate(-502.929 -832.606)"/>
        <path id="Trazado_101987" data-name="Trazado 101987" d="M501.84,836.574a1.065,1.065,0,0,1-.626.153,1.293,1.293,0,0,1-.664-.216l.313-.485a1.159,1.159,0,0,0,.824.232,1.1,1.1,0,0,0,.692-.542l1.027-1.566.517.338-1.929,2.928-.5-.329Z" transform="translate(-496.371 -830.827)"/>
        <path id="Trazado_101988" data-name="Trazado 101988" d="M494.866,833.593a.4.4,0,0,1,.172.269.4.4,0,0,1-.063.313.385.385,0,0,1-.269.172.415.415,0,1,1,.16-.752Zm2.709-3.382-1.982,2.891-.5-.36,1.986-2.891Z" transform="translate(-492.021 -827.874)"/>
        <path id="Trazado_101989" data-name="Trazado 101989" d="M490.088,823.9a1.841,1.841,0,0,1,.6.7,1.6,1.6,0,0,1,.138.886,1.985,1.985,0,0,1-.382.921,1.8,1.8,0,0,1-1.181.777,1.879,1.879,0,0,1-2.051-1.494,2.011,2.011,0,0,1,1.566-2.139A1.717,1.717,0,0,1,490.088,823.9Zm-.313.417a1.093,1.093,0,0,0-.883-.2,1.528,1.528,0,0,0-1.115,1.535,1.134,1.134,0,0,0,1.337.971,1.538,1.538,0,0,0,1.115-1.535,1.077,1.077,0,0,0-.438-.783Z" transform="translate(-487.205 -823.54)"/>
      </g>
      <g id="Grupo_57646" data-name="Grupo 57646" transform="translate(24.617 129.977)">
        <path id="Trazado_101990" data-name="Trazado 101990" d="M337.3,572.446l.576-.056.128,1.281,4.419-.435.063.626-4.419.438.125,1.284-.579.056Z" transform="translate(-336.764 -548.164)"/>
        <path id="Trazado_101991" data-name="Trazado 101991" d="M343.114,561h.169l.191,2.731a1.227,1.227,0,0,0,.871-.395,1.1,1.1,0,0,0,.257-.821,1.047,1.047,0,0,0-.21-.567,1.068,1.068,0,0,0-.489-.366l.078-.564a1.566,1.566,0,0,1,.792.545,1.651,1.651,0,0,1,.338.911,1.685,1.685,0,0,1-.4,1.293,1.823,1.823,0,0,1-1.3.573,1.8,1.8,0,0,1-1.359-.391,1.682,1.682,0,0,1-.576-1.206,1.6,1.6,0,0,1,.366-1.206A1.782,1.782,0,0,1,343.114,561Zm-1.159,1.71a1.077,1.077,0,0,0,.313.708,1.134,1.134,0,0,0,.745.313l-.147-2.1a1.027,1.027,0,0,0-.7.357.971.971,0,0,0-.219.711Z" transform="translate(-339.628 -540.341)"/>
        <path id="Trazado_101992" data-name="Trazado 101992" d="M341.582,553.569a1.059,1.059,0,0,1-.489-.417,1.325,1.325,0,0,1-.213-.667l.582-.025a1.143,1.143,0,0,0,.291.8,1.1,1.1,0,0,0,.842.247l1.879-.078.025.626-3.5.144-.025-.6Z" transform="translate(-339.223 -534.476)"/>
        <path id="Trazado_101993" data-name="Trazado 101993" d="M344.3,541.932a1.694,1.694,0,0,1-.482,1.253,2,2,0,0,1-2.631.044,1.835,1.835,0,0,1-.235-2.271,1.566,1.566,0,0,1,.842-.6l.1.576a1.052,1.052,0,0,0-.72,1.043,1.034,1.034,0,0,0,.373.808,1.384,1.384,0,0,0,.94.313,1.369,1.369,0,0,0,.94-.335,1.037,1.037,0,0,0,.344-.817,1.074,1.074,0,0,0-.2-.626,1.043,1.043,0,0,0-.551-.385l.088-.579a1.541,1.541,0,0,1,.858.579A1.679,1.679,0,0,1,344.3,541.932Z" transform="translate(-339.072 -526.158)"/>
        <path id="Trazado_101994" data-name="Trazado 101994" d="M336.423,535.343a.4.4,0,0,1-.128.291.41.41,0,0,1-.3.119.391.391,0,0,1-.288-.128.41.41,0,0,1-.119-.3.416.416,0,0,1,.128-.288.41.41,0,0,1,.294-.119.417.417,0,0,1,.291.128A.407.407,0,0,1,336.423,535.343Zm4.325.382-3.508-.056v-.626l3.5.056Z" transform="translate(-335.59 -522.429)"/>
        <path id="Trazado_101995" data-name="Trazado 101995" d="M344.5,524.233a1.19,1.19,0,0,1-.269.758.864.864,0,0,1-.73.272,1.024,1.024,0,0,1-.454-.113.8.8,0,0,1-.313-.313,1.743,1.743,0,0,1-.185-.42,3.768,3.768,0,0,1-.1-.539l-.072-.57c-.031-.207-.135-.313-.313-.313a.626.626,0,0,0-.529.2,1.015,1.015,0,0,0-.05,1.1.679.679,0,0,0,.482.279l-.138.551a1.062,1.062,0,0,1-.733-.467,1.626,1.626,0,0,1-.216-.965,2.045,2.045,0,0,1,.081-.5,1.417,1.417,0,0,1,.213-.417.9.9,0,0,1,.388-.291,1.412,1.412,0,0,1,.582-.085l1.447.053a.554.554,0,0,0,.366-.066.345.345,0,0,0,.106-.272v-.056h.445v.313a.583.583,0,0,1-.5.645v.028A1.347,1.347,0,0,1,344.5,524.233Zm-.492-.163a.939.939,0,0,0-.313-.764,1.39,1.39,0,0,0-.918-.313l.144.94a1.252,1.252,0,0,0,.172.551.448.448,0,0,0,.376.191.442.442,0,0,0,.391-.153.736.736,0,0,0,.147-.438Z" transform="translate(-339.216 -513.596)"/>
        <path id="Trazado_101996" data-name="Trazado 101996" d="M342.2,514.479a1.04,1.04,0,0,1-.442-.463,1.341,1.341,0,0,1-.141-.686l.579.038a1.174,1.174,0,0,0,.207.833,1.093,1.093,0,0,0,.811.332l1.879.125-.041.626-3.5-.232.041-.6Z" transform="translate(-339.683 -507.6)"/>
        <path id="Trazado_101997" data-name="Trazado 101997" d="M337.741,508.632a.4.4,0,0,1-.147.285.414.414,0,0,1-.68-.363.389.389,0,0,1,.144-.279.4.4,0,0,1,.313-.1.407.407,0,0,1,.282.15.391.391,0,0,1,.088.307Zm4.287.683-3.492-.3.053-.626,3.492.313Z" transform="translate(-336.498 -504.058)"/>
        <path id="Trazado_101998" data-name="Trazado 101998" d="M346.56,497a1.88,1.88,0,0,1-.313.871,1.619,1.619,0,0,1-.7.557,1.973,1.973,0,0,1-.99.122,1.788,1.788,0,0,1-1.253-.642,1.879,1.879,0,0,1,.285-2.524,2.02,2.02,0,0,1,2.631.313A1.726,1.726,0,0,1,346.56,497Zm-.51-.053a1.068,1.068,0,0,0-.266-.864,1.334,1.334,0,0,0-.905-.435,1.353,1.353,0,0,0-.977.222,1.124,1.124,0,0,0-.185,1.641,1.544,1.544,0,0,0,1.879.213A1.068,1.068,0,0,0,346.049,496.947Z" transform="translate(-340.637 -495.035)"/>
      </g>
      <g id="Grupo_57647" data-name="Grupo 57647" transform="translate(68.186 41.724)">
        <path id="Trazado_101999" data-name="Trazado 101999" d="M477.256,247.46l.357.46-1.021.786,2.709,3.517-.5.388-2.709-3.52-1.024.789-.354-.46Z" transform="translate(-474.71 -236.742)"/>
        <path id="Trazado_102000" data-name="Trazado 102000" d="M490.935,247.543l.091.141-2.217,1.607a1.225,1.225,0,0,0,.8.529,1.1,1.1,0,0,0,.83-.216,1.065,1.065,0,0,0,.373-.476,1.087,1.087,0,0,0,.05-.611l.52-.232a1.594,1.594,0,0,1-.044.961,1.619,1.619,0,0,1-.592.77,1.7,1.7,0,0,1-1.309.345,2.08,2.08,0,0,1-1.566-2.158,1.666,1.666,0,0,1,.72-1.124,1.566,1.566,0,0,1,1.218-.329A1.782,1.782,0,0,1,490.935,247.543Zm-2.064-.081a1.1,1.1,0,0,0-.445.626,1.134,1.134,0,0,0,.122.8l1.7-1.234a1.049,1.049,0,0,0-.673-.4A.983.983,0,0,0,488.872,247.462Z" transform="translate(-483.745 -236.242)"/>
        <path id="Trazado_102001" data-name="Trazado 102001" d="M498.146,241.1a1.031,1.031,0,0,1,.094-.626,1.293,1.293,0,0,1,.451-.532l.329.479a1.156,1.156,0,0,0-.526.673,1.09,1.09,0,0,0,.235.846l1.055,1.547-.51.348-1.973-2.9.5-.338Z" transform="translate(-490.225 -231.577)"/>
        <path id="Trazado_102002" data-name="Trazado 102002" d="M507.729,238.435a1.682,1.682,0,0,1-1.328.26,1.992,1.992,0,0,1-1.428-2.208,1.685,1.685,0,0,1,.78-1.105,1.707,1.707,0,0,1,1.021-.294,1.547,1.547,0,0,1,.958.395l-.435.391a1.093,1.093,0,0,0-1.754.683,1.372,1.372,0,0,0,.247.968,1.35,1.35,0,0,0,.78.626,1.112,1.112,0,0,0,1.3-.648,1.055,1.055,0,0,0,.038-.67l.539-.235a1.544,1.544,0,0,1-.038,1.037A1.7,1.7,0,0,1,507.729,238.435Z" transform="translate(-495.48 -228.243)"/>
        <path id="Trazado_102003" data-name="Trazado 102003" d="M512.771,227.364a.417.417,0,0,1-.57-.141.388.388,0,0,1-.044-.313.4.4,0,0,1,.188-.254.391.391,0,0,1,.313-.047.407.407,0,0,1,.313.5A.394.394,0,0,1,512.771,227.364Zm1.964,3.874-1.807-3.007.532-.313,1.807,3.007Z" transform="translate(-500.419 -222.412)"/>
        <path id="Trazado_102004" data-name="Trazado 102004" d="M522.815,229.406a1.171,1.171,0,0,1-.786.172.868.868,0,0,1-.626-.473,1.027,1.027,0,0,1-.144-.445.83.83,0,0,1,.091-.42,1.681,1.681,0,0,1,.26-.376,3.969,3.969,0,0,1,.4-.376l.448-.363a.313.313,0,0,0,.107-.435.626.626,0,0,0-.448-.345,1.015,1.015,0,0,0-.962.545.664.664,0,0,0,.019.554l-.542.175a1.076,1.076,0,0,1,0-.871,1.657,1.657,0,0,1,.708-.692,1.982,1.982,0,0,1,.47-.2,1.387,1.387,0,0,1,.467-.041.867.867,0,0,1,.451.179,1.387,1.387,0,0,1,.382.445l.717,1.253a.6.6,0,0,0,.251.276.354.354,0,0,0,.288-.053l.05-.028.219.385-.266.153a.583.583,0,0,1-.811-.085l-.025.016a1.337,1.337,0,0,1-.714,1.046Zm-.125-.5a.939.939,0,0,0,.485-.667,1.378,1.378,0,0,0-.213-.94l-.717.626a1.252,1.252,0,0,0-.373.438.454.454,0,0,0,.034.423.448.448,0,0,0,.341.222A.7.7,0,0,0,522.689,228.9Z" transform="translate(-506.185 -221.875)"/>
        <path id="Trazado_102005" data-name="Trazado 102005" d="M531.554,220.976a1.068,1.068,0,0,1,.163-.626,1.3,1.3,0,0,1,.5-.479l.276.51a1.165,1.165,0,0,0-.6.626,1.1,1.1,0,0,0,.144.867l.886,1.65-.545.291-1.657-3.091.532-.285Z" transform="translate(-513.186 -217.792)"/>
        <path id="Trazado_102006" data-name="Trazado 102006" d="M536.112,214.349a.385.385,0,0,1-.313.025.41.41,0,0,1-.266-.523.4.4,0,0,1,.207-.241.4.4,0,0,1,.313-.025.417.417,0,0,1,.266.523.391.391,0,0,1-.207.241Zm1.691,4-1.594-3.132.551-.282,1.6,3.132Z" transform="translate(-516.469 -213.461)"/>
        <path id="Trazado_102007" data-name="Trazado 102007" d="M546.729,216.713a1.845,1.845,0,0,1-.905.191,1.566,1.566,0,0,1-.846-.313,1.939,1.939,0,0,1-.626-.774,1.779,1.779,0,0,1-.122-1.406,1.879,1.879,0,0,1,2.292-1.093,2.014,2.014,0,0,1,1.137,2.39A1.725,1.725,0,0,1,546.729,216.713Zm-.225-.464a1.078,1.078,0,0,0,.595-.68,1.372,1.372,0,0,0-.11-1,1.341,1.341,0,0,0-.708-.711,1.127,1.127,0,0,0-1.491.711,1.538,1.538,0,0,0,.817,1.71A1.056,1.056,0,0,0,546.5,216.25Z" transform="translate(-522.395 -213.236)"/>
      </g>
      <g id="Grupo_57648" data-name="Grupo 57648" transform="translate(183.295 38.383)">
        <path id="Trazado_102008" data-name="Trazado 102008" d="M846.031,203.854l-.232.536-1.181-.517-1.776,4.071-.583-.254,1.779-4.071-1.184-.517.232-.532Z" transform="translate(-842.26 -202.57)"/>
        <path id="Trazado_102009" data-name="Trazado 102009" d="M852.613,215.132l-.078.15-2.477-1.171a1.253,1.253,0,0,0-.078.94,1.093,1.093,0,0,0,.589.626,1.052,1.052,0,0,0,.6.1,1.074,1.074,0,0,0,.557-.251l.454.344a1.594,1.594,0,0,1-.861.426,1.644,1.644,0,0,1-.962-.15,1.691,1.691,0,0,1-.94-.98,1.819,1.819,0,0,1,.135-1.412,1.8,1.8,0,0,1,1.005-1,1.672,1.672,0,0,1,1.331.088,1.566,1.566,0,0,1,.874.911,1.76,1.76,0,0,1-.147,1.378Zm-.921-1.848a1.109,1.109,0,0,0-.767-.088,1.14,1.14,0,0,0-.626.5l1.9.9a1.052,1.052,0,0,0,.031-.783A1,1,0,0,0,851.692,213.284Z" transform="translate(-847.117 -209.498)"/>
        <path id="Trazado_102010" data-name="Trazado 102010" d="M861.845,218.044a1.058,1.058,0,0,1,.6-.222,1.3,1.3,0,0,1,.686.141l-.263.517a1.156,1.156,0,0,0-.846-.135,1.078,1.078,0,0,0-.626.626l-.846,1.669-.551-.279,1.588-3.132.536.272Z" transform="translate(-854.444 -212.639)"/>
        <path id="Trazado_102011" data-name="Trazado 102011" d="M868.688,225.5a1.685,1.685,0,0,1-.868-1.037,2,2,0,0,1,1.253-2.321,1.829,1.829,0,0,1,2.1.905,1.566,1.566,0,0,1,.116,1.03l-.554-.191a1.049,1.049,0,0,0-.091-.67,1.09,1.09,0,0,0-.467-.47,1.037,1.037,0,0,0-.886-.066,1.566,1.566,0,0,0-.892,1.663,1.027,1.027,0,0,0,.542.7,1.052,1.052,0,0,0,1.253-.16l.463.357a1.547,1.547,0,0,1-.94.47,1.71,1.71,0,0,1-1.024-.21Z" transform="translate(-859.781 -215.966)"/>
        <path id="Trazado_102012" data-name="Trazado 102012" d="M877.7,227.124l1.763-3.032.535.313-1.76,3.032Zm2.449-3.586a.4.4,0,0,1-.191-.257.389.389,0,0,1,.041-.313.413.413,0,0,1,.758.1.4.4,0,0,1-.041.313.4.4,0,0,1-.254.191.388.388,0,0,1-.313-.038Z" transform="translate(-866.601 -216.438)"/>
        <path id="Trazado_102013" data-name="Trazado 102013" d="M883.633,234.185a1.19,1.19,0,0,1-.529-.6.861.861,0,0,1,.116-.77,1,1,0,0,1,.313-.341.8.8,0,0,1,.41-.125,1.736,1.736,0,0,1,.454.047,3.53,3.53,0,0,1,.523.175l.532.216a.313.313,0,0,0,.435-.113.627.627,0,0,0,.085-.561.9.9,0,0,0-.388-.432.94.94,0,0,0-.551-.15.677.677,0,0,0-.479.285l-.413-.391a1.074,1.074,0,0,1,.78-.42,1.613,1.613,0,0,1,.939.285,1.806,1.806,0,0,1,.4.313,1.341,1.341,0,0,1,.26.388.909.909,0,0,1,.063.482,1.484,1.484,0,0,1-.207.548l-.758,1.234a.6.6,0,0,0-.122.354.351.351,0,0,0,.188.226l.047.031-.232.379-.26-.16a.586.586,0,0,1-.313-.752H884.9a1.341,1.341,0,0,1-1.268-.144Zm.382-.351a.94.94,0,0,0,.817.1,1.4,1.4,0,0,0,.73-.626l-.886-.332a1.253,1.253,0,0,0-.564-.119.454.454,0,0,0-.351.235.444.444,0,0,0-.056.417A.723.723,0,0,0,884.015,233.834Z" transform="translate(-870.282 -222.096)"/>
        <path id="Trazado_102014" data-name="Trazado 102014" d="M895.17,237.465a1.059,1.059,0,0,1,.626-.157,1.29,1.29,0,0,1,.664.213l-.313.485a1.149,1.149,0,0,0-.824-.225,1.09,1.09,0,0,0-.689.545l-1.021,1.566-.523-.341L895,236.61l.507.329Z" transform="translate(-877.171 -225.949)"/>
        <path id="Trazado_102015" data-name="Trazado 102015" d="M899.52,241.1l1.967-2.9.517.348-1.97,2.9Zm2.69-3.411a.4.4,0,0,1-.175-.266.4.4,0,0,1,.066-.313.42.42,0,1,1,.125.573Z" transform="translate(-881.587 -226.166)"/>
        <path id="Trazado_102016" data-name="Trazado 102016" d="M906.422,249.235a1.839,1.839,0,0,1-.6-.7,1.6,1.6,0,0,1-.144-.886,1.983,1.983,0,0,1,.376-.924,1.81,1.81,0,0,1,1.174-.783,1.879,1.879,0,0,1,2.064,1.481,2.014,2.014,0,0,1-1.547,2.148A1.71,1.71,0,0,1,906.422,249.235Zm.294-.42a1.084,1.084,0,0,0,.883.191,1.516,1.516,0,0,0,1.106-1.538,1.068,1.068,0,0,0-.464-.777,1.053,1.053,0,0,0-.877-.188,1.368,1.368,0,0,0-.817.579,1.351,1.351,0,0,0-.288.958,1.071,1.071,0,0,0,.448.774Z" transform="translate(-885.806 -232.348)"/>
      </g>
      <g id="Grupo_57649" data-name="Grupo 57649" transform="translate(248.846 131.416)">
        <path id="Trazado_102017" data-name="Trazado 102017" d="M1057.463,502.812l-.573.066-.125-1.281-4.422.438-.062-.626,4.422-.438-.128-1.284.579-.056Z" transform="translate(-1052.057 -499.63)"/>
        <path id="Trazado_102018" data-name="Trazado 102018" d="M1055,514.042h-.169l-.188-2.731a1.252,1.252,0,0,0-.874.395,1.112,1.112,0,0,0-.254.821,1.008,1.008,0,0,0,.207.567,1.068,1.068,0,0,0,.489.366l-.078.564a1.591,1.591,0,0,1-.792-.545,1.65,1.65,0,0,1-.338-.911,1.7,1.7,0,0,1,.4-1.293,2.08,2.08,0,0,1,2.659-.182,1.679,1.679,0,0,1,.573,1.206,1.565,1.565,0,0,1-.367,1.206,1.782,1.782,0,0,1-1.268.539Zm1.162-1.707a1.118,1.118,0,0,0-.3-.711,1.14,1.14,0,0,0-.748-.313l.147,2.1a1.037,1.037,0,0,0,.7-.354A.993.993,0,0,0,1056.158,512.335Z" transform="translate(-1052.543 -507.23)"/>
        <path id="Trazado_102019" data-name="Trazado 102019" d="M1056.6,524.929a1.04,1.04,0,0,1,.489.417,1.274,1.274,0,0,1,.213.664l-.579.025a1.158,1.158,0,0,0-.294-.8,1.1,1.1,0,0,0-.842-.247l-1.879.078-.025-.626,3.5-.144.025.6Z" transform="translate(-1053.019 -516.567)"/>
        <path id="Trazado_102020" data-name="Trazado 102020" d="M1053.847,533.107a1.681,1.681,0,0,1,.482-1.253,1.791,1.791,0,0,1,1.309-.52,1.747,1.747,0,0,1,1.556,2.743,1.566,1.566,0,0,1-.842.6l-.1-.576a1.049,1.049,0,0,0,.539-.407,1.082,1.082,0,0,0,.185-.626,1.033,1.033,0,0,0-.376-.8,1.35,1.35,0,0,0-.939-.313,1.371,1.371,0,0,0-.94.332,1.04,1.04,0,0,0-.344.817,1.055,1.055,0,0,0,.755,1.021l-.088.579a1.544,1.544,0,0,1-.858-.583A1.7,1.7,0,0,1,1053.847,533.107Z" transform="translate(-1053.132 -521.403)"/>
        <path id="Trazado_102021" data-name="Trazado 102021" d="M1054.06,544.807l3.508.056v.626l-3.508-.056Zm4.325.382a.4.4,0,0,1,.128-.291.41.41,0,0,1,.313-.119.4.4,0,0,1,.291.128.418.418,0,0,1,.116.3.423.423,0,0,1-.423.407.423.423,0,0,1-.41-.423Z" transform="translate(-1053.28 -530.639)"/>
        <path id="Trazado_102022" data-name="Trazado 102022" d="M1053.632,551.052a1.191,1.191,0,0,1,.269-.761.868.868,0,0,1,.73-.272,1.011,1.011,0,0,1,.454.113.807.807,0,0,1,.313.313,1.732,1.732,0,0,1,.182.42,3.712,3.712,0,0,1,.107.539l.069.57c.031.207.135.313.313.313a.626.626,0,0,0,.532-.2.891.891,0,0,0,.185-.548.91.91,0,0,0-.138-.554.68.68,0,0,0-.482-.279l.138-.551a1.062,1.062,0,0,1,.733.467,1.626,1.626,0,0,1,.216.965,1.953,1.953,0,0,1-.082.507,1.418,1.418,0,0,1-.213.417.893.893,0,0,1-.388.288,1.4,1.4,0,0,1-.579.085l-1.45-.053a.6.6,0,0,0-.366.066.345.345,0,0,0-.107.272v.056h-.448v-.313a.574.574,0,0,1,.5-.645v-.028A1.344,1.344,0,0,1,1053.632,551.052Zm.495.16a.94.94,0,0,0,.313.767,1.412,1.412,0,0,0,.918.313l-.144-.94a1.254,1.254,0,0,0-.172-.551.513.513,0,0,0-.767-.038A.723.723,0,0,0,1054.127,551.212Z" transform="translate(-1052.977 -534.235)"/>
        <path id="Trazado_102023" data-name="Trazado 102023" d="M1056.154,563.625a1.04,1.04,0,0,1,.442.464,1.278,1.278,0,0,1,.141.686l-.58-.037a1.164,1.164,0,0,0-.207-.83,1.077,1.077,0,0,0-.811-.335l-1.879-.125.041-.626,3.5.232-.041.6Z" transform="translate(-1052.73 -543.03)"/>
        <path id="Trazado_102024" data-name="Trazado 102024" d="M1052.753,570.54l3.492.313-.05.626-3.5-.313Zm4.287.683a.4.4,0,0,1,.147-.285.42.42,0,0,1,.313-.1.391.391,0,0,1,.282.147.42.42,0,0,1,.1.313.4.4,0,0,1-.147.282.394.394,0,0,1-.313.1.4.4,0,0,1-.285-.147.416.416,0,0,1-.094-.31Z" transform="translate(-1052.345 -548.332)"/>
        <path id="Trazado_102025" data-name="Trazado 102025" d="M1051.584,577.612a1.824,1.824,0,0,1,.313-.868,1.565,1.565,0,0,1,.7-.557,1.944,1.944,0,0,1,.99-.125,1.788,1.788,0,0,1,1.253.626,1.879,1.879,0,0,1-.285,2.524,2,2,0,0,1-2.628-.313,1.713,1.713,0,0,1-.344-1.287Zm.51.053a1.078,1.078,0,0,0,.266.864,1.522,1.522,0,0,0,1.879.213,1.124,1.124,0,0,0,.185-1.641,1.544,1.544,0,0,0-1.879-.213,1.068,1.068,0,0,0-.451.777Z" transform="translate(-1051.568 -552.113)"/>
      </g>
      <g id="Grupo_57650" data-name="Grupo 57650" transform="translate(182.269 233.623)">
        <path id="Trazado_102026" data-name="Trazado 102026" d="M908.569,831.182l-.338-.473,1.046-.752-2.587-3.608.517-.37,2.587,3.608,1.049-.752.338.473Z" transform="translate(-885.486 -825.98)"/>
        <path id="Trazado_102027" data-name="Trazado 102027" d="M896.926,834.058l-.088-.144,2.271-1.528a1.252,1.252,0,0,0-.777-.557,1.106,1.106,0,0,0-.839.188,1.052,1.052,0,0,0-.388.464,1.08,1.08,0,0,0-.072.608l-.526.213a1.567,1.567,0,0,1,.075-.958,1.647,1.647,0,0,1,.626-.748,1.688,1.688,0,0,1,1.318-.313,1.832,1.832,0,0,1,1.146.839,1.807,1.807,0,0,1,.341,1.372,1.679,1.679,0,0,1-.758,1.1,1.591,1.591,0,0,1-1.228.285A1.776,1.776,0,0,1,896.926,834.058Zm2.058.154a1.087,1.087,0,0,0,.467-.626,1.112,1.112,0,0,0-.1-.8l-1.741,1.174a1.042,1.042,0,0,0,.658.426A.987.987,0,0,0,898.984,834.212Z" transform="translate(-878.462 -829.602)"/>
        <path id="Trazado_102028" data-name="Trazado 102028" d="M892.03,839.773a1.056,1.056,0,0,1-.116.626,1.328,1.328,0,0,1-.47.517l-.313-.492a1.153,1.153,0,0,0,.548-.655,1.08,1.08,0,0,0-.207-.852l-1-1.585.523-.313,1.879,2.963-.507.313Z" transform="translate(-874.345 -833.562)"/>
        <path id="Trazado_102029" data-name="Trazado 102029" d="M879.816,842.6a1.682,1.682,0,0,1,1.334-.213,2,2,0,0,1,1.356,2.258,1.823,1.823,0,0,1-1.851,1.334,1.529,1.529,0,0,1-.94-.429l.448-.376a1.069,1.069,0,0,0,.626.266,1.087,1.087,0,0,0,.626-.16,1.034,1.034,0,0,0,.51-.727,1.566,1.566,0,0,0-.968-1.622,1.095,1.095,0,0,0-1.387,1.275l-.545.213a1.565,1.565,0,0,1,.072-1.037A1.71,1.71,0,0,1,879.816,842.6Z" transform="translate(-866.447 -837.214)"/>
        <path id="Trazado_102030" data-name="Trazado 102030" d="M873.735,847.33l1.7,3.063-.542.313-1.7-3.066Zm1.826,3.937a.4.4,0,0,1,.313-.034.41.41,0,0,1,.285.51.41.41,0,0,1-.51.282.389.389,0,0,1-.247-.194.407.407,0,0,1-.038-.313.4.4,0,0,1,.2-.251Z" transform="translate(-862.477 -840.644)"/>
        <path id="Trazado_102031" data-name="Trazado 102031" d="M863.334,850.848a1.187,1.187,0,0,1,.792-.144.867.867,0,0,1,.6.495,1.03,1.03,0,0,1,.128.451.811.811,0,0,1-.1.413,1.845,1.845,0,0,1-.273.37,3.935,3.935,0,0,1-.413.36l-.457.345a.313.313,0,0,0-.125.432.626.626,0,0,0,.438.36.883.883,0,0,0,.567-.109.939.939,0,0,0,.413-.4.689.689,0,0,0,0-.558l.548-.156a1.084,1.084,0,0,1-.041.871,1.619,1.619,0,0,1-.727.667,2.066,2.066,0,0,1-.479.182,1.469,1.469,0,0,1-.467.025.893.893,0,0,1-.445-.194,1.386,1.386,0,0,1-.366-.46l-.658-1.281a.6.6,0,0,0-.241-.285.348.348,0,0,0-.288.044l-.053.028-.207-.395.272-.144a.589.589,0,0,1,.808.109h.025A1.334,1.334,0,0,1,863.334,850.848Zm.107.511a.939.939,0,0,0-.507.648,1.375,1.375,0,0,0,.179.955l.736-.592a1.223,1.223,0,0,0,.391-.426.448.448,0,0,0-.022-.42.454.454,0,0,0-.329-.263.713.713,0,0,0-.448.1Z" transform="translate(-854.434 -842.95)"/>
        <path id="Trazado_102032" data-name="Trazado 102032" d="M858.575,858.647a1.077,1.077,0,0,1-.182.626,1.305,1.305,0,0,1-.526.464l-.254-.52a1.162,1.162,0,0,0,.626-.6,1.09,1.09,0,0,0-.113-.868l-.827-1.682.554-.272,1.547,3.132-.542.266Z" transform="translate(-851.563 -846.461)"/>
        <path id="Trazado_102033" data-name="Trazado 102033" d="M850.861,859.12l1.488,3.176-.564.263L850.3,859.4Zm1.566,4.071a.4.4,0,0,1,.313-.016.417.417,0,0,1,.238.216.4.4,0,0,1,0,.313.416.416,0,0,1-.767.034.41.41,0,0,1,0-.313.394.394,0,0,1,.2-.251Z" transform="translate(-846.756 -848.741)"/>
        <path id="Trazado_102034" data-name="Trazado 102034" d="M840.041,862.926a1.82,1.82,0,0,1,.911-.16,1.566,1.566,0,0,1,.836.332,1.97,1.97,0,0,1,.6.792,1.789,1.789,0,0,1,.069,1.412,1.879,1.879,0,0,1-2.327,1.011,2.02,2.02,0,0,1-1.055-2.427,1.722,1.722,0,0,1,.965-.961Zm.21.47a1.074,1.074,0,0,0-.626.661,1.519,1.519,0,0,0,.755,1.735,1.128,1.128,0,0,0,1.516-.658,1.347,1.347,0,0,0-.078-1,1.362,1.362,0,0,0-.68-.742,1.065,1.065,0,0,0-.9,0Z" transform="translate(-838.983 -851.241)"/>
      </g>
      <rect id="Rectángulo_5359" data-name="Rectángulo 5359" width="0.313" height="26.113" transform="matrix(0.966, -0.259, 0.259, 0.966, 108.899, 30.516)"/>
      <rect id="Rectángulo_5360" data-name="Rectángulo 5360" width="27.065" height="0.313" transform="translate(163.267 55.664) rotate(-73.79)"/>
      <rect id="Rectángulo_5361" data-name="Rectángulo 5361" width="26.371" height="0.315" transform="translate(26.093 175.581) rotate(-15.005)"/>
      <rect id="Rectángulo_5362" data-name="Rectángulo 5362" width="24.81" height="0.313" transform="translate(56.448 226.423) rotate(-43.38)"/>
      <rect id="Rectángulo_5363" data-name="Rectángulo 5363" width="0.313" height="26.426" transform="translate(228.365 168.454) rotate(-74.98)"/>
      <rect id="Rectángulo_5364" data-name="Rectángulo 5364" width="0.313" height="27.554" transform="matrix(0.689, -0.725, 0.725, 0.689, 204.509, 209.638)"/>
      <g id="Grupo_57651" data-name="Grupo 57651" transform="translate(239.814 47.29)">
        <path id="Trazado_102035" data-name="Trazado 102035" d="M1023.642,236.573a3.538,3.538,0,0,1-.7-1.124,3.037,3.037,0,0,1-.213-1.209,2.961,2.961,0,0,1,.313-1.2,3.6,3.6,0,0,1,.839-1.1,3.467,3.467,0,0,1,1.566-.852,2.872,2.872,0,0,1,1.635.091,3.49,3.49,0,0,1,1.425.977,3.41,3.41,0,0,1,.877,1.738,2.818,2.818,0,0,1-.285,1.807l-1.168-.626a1.754,1.754,0,0,0,.178-1.09,1.973,1.973,0,0,0-.507-1.021,1.879,1.879,0,0,0-1.353-.661,2.336,2.336,0,0,0-2.23,2.026,1.879,1.879,0,0,0,.523,1.409,1.932,1.932,0,0,0,.968.6,1.738,1.738,0,0,0,1.1-.072l.5,1.221a2.844,2.844,0,0,1-1.829.11A3.361,3.361,0,0,1,1023.642,236.573Z" transform="translate(-1022.726 -231.011)"/>
        <path id="Trazado_102036" data-name="Trazado 102036" d="M1036.167,255.016l.723-1.2-1.7-2.076-1.315.479-.861-1.049,6.436-2.242,1.03,1.253-3.445,5.882Zm.125-3.677,1.209,1.475,1.494-2.458Zm5.932-1.832-1.566-.025-.5-.6,1.995-.138Z" transform="translate(-1029.789 -243.188)"/>
        <path id="Trazado_102037" data-name="Trazado 102037" d="M1049.261,266.332l1.212,1.6-.94.708-2.014-2.656,5.1-3.865.8,1.059Z" transform="translate(-1039.755 -252.377)"/>
        <path id="Trazado_102038" data-name="Trazado 102038" d="M1055.78,277.428l5.249-3.658.758,1.09-5.249,3.658Z" transform="translate(-1045.428 -260.379)"/>
        <path id="Trazado_102039" data-name="Trazado 102039" d="M1061.22,285.278l5.324-3.548,1.287,1.926a3.6,3.6,0,0,1,.548,1.237,2.45,2.45,0,0,1,0,1.159,2.846,2.846,0,0,1-.523,1.03,4.56,4.56,0,0,1-2.177,1.45,2.8,2.8,0,0,1-1.153.088,2.45,2.45,0,0,1-1.074-.432,3.564,3.564,0,0,1-.94-.983Zm1.713.454.51.767a1.566,1.566,0,0,0,1.153.786,2.882,2.882,0,0,0,2.506-1.672,1.565,1.565,0,0,0-.285-1.365l-.51-.764Z" transform="translate(-1049.164 -265.846)"/>
        <path id="Trazado_102040" data-name="Trazado 102040" d="M1075.971,307.367a3.5,3.5,0,0,1-.517-1.647,2.934,2.934,0,0,1,.391-1.594,3.512,3.512,0,0,1,1.272-1.253,3.46,3.46,0,0,1,1.71-.526,2.891,2.891,0,0,1,1.585.41,3.53,3.53,0,0,1,1.206,1.253,3.484,3.484,0,0,1,.516,1.644,2.876,2.876,0,0,1-.388,1.588,3.444,3.444,0,0,1-1.275,1.253,3.5,3.5,0,0,1-1.707.526,2.91,2.91,0,0,1-1.588-.41,3.447,3.447,0,0,1-1.206-1.243Zm.811-2.111a2.025,2.025,0,0,0,1.434,2.4,2.349,2.349,0,0,0,2.59-1.547,2.033,2.033,0,0,0-1.434-2.4,2.346,2.346,0,0,0-2.59,1.547Z" transform="translate(-1058.939 -280.004)"/>
        <path id="Trazado_102041" data-name="Trazado 102041" d="M1086.421,326.444a3.073,3.073,0,0,1-.4-1.8,1.957,1.957,0,0,1,.8-1.406l.939,1.062a1.153,1.153,0,0,0-.514.752,1.406,1.406,0,0,0,.176.94,1.137,1.137,0,0,0,.5.523.655.655,0,0,0,.626-.041.626.626,0,0,0,.313-.423,1.526,1.526,0,0,0,.044-.532c-.022-.157-.063-.407-.132-.745,0-.047,0-.078-.019-.1q-.047-.26-.075-.423c-.019-.106-.034-.241-.05-.407a2.362,2.362,0,0,1,.047-.8,1.248,1.248,0,0,1,.138-.366,1.651,1.651,0,0,1,.25-.313,1.762,1.762,0,0,1,.373-.272,1.726,1.726,0,0,1,1.03-.21,1.813,1.813,0,0,1,.94.407,2.932,2.932,0,0,1,.733.914,3.8,3.8,0,0,1,.313.78,2.963,2.963,0,0,1,.1.792,1.824,1.824,0,0,1-.185.774,1.972,1.972,0,0,1-.526.667l-.886-.983a1.039,1.039,0,0,0,.266-1.447,1.284,1.284,0,0,0-.5-.542.626.626,0,0,0-.626.022.649.649,0,0,0-.282.676,7.124,7.124,0,0,0,.15.94c.038.178.063.313.085.438s.041.26.056.435a2.936,2.936,0,0,1,.019.448,3.352,3.352,0,0,1-.047.4,1.374,1.374,0,0,1-.147.4,1.681,1.681,0,0,1-.266.338,1.626,1.626,0,0,1-.4.3,1.915,1.915,0,0,1-.7.225,1.522,1.522,0,0,1-.645-.053,1.966,1.966,0,0,1-.58-.288,2.535,2.535,0,0,1-.5-.47A3.745,3.745,0,0,1,1086.421,326.444Z" transform="translate(-1066.188 -293.42)"/>
      </g>
      <g id="Grupo_57652" data-name="Grupo 57652" transform="translate(139.081 0)">
        <path id="Trazado_102042" data-name="Trazado 102042" d="M799.081,132.781A138.613,138.613,0,0,0,705.4,95.253V94a139.85,139.85,0,0,1,94.524,37.895Z" transform="translate(-704.047 -89.619)"/>
        <path id="Trazado_102043" data-name="Trazado 102043" d="M706.711,80.01l.833.936-4.626,4.093,4.422,4.316-.877.9L701.08,85Z" transform="translate(-701.08 -80.01)"/>
      </g>
      <g id="Grupo_57653" data-name="Grupo 57653" transform="translate(259.135 90.117)">
        <path id="Trazado_102044" data-name="Trazado 102044" d="M1091.949,489.505l-1.1-.6a139.365,139.365,0,0,0,6.073-120.656l1.156-.489A140.636,140.636,0,0,1,1091.949,489.505Z" transform="translate(-1088.836 -367.76)"/>
        <path id="Trazado_102045" data-name="Trazado 102045" d="M1093.446,740.247l-.4-1.187-5.844,2-1.566-5.979-1.212.319,1.907,7.278Z" transform="translate(-1084.42 -620.043)"/>
      </g>
      <g id="Grupo_57654" data-name="Grupo 57654" transform="translate(37.654 238.931)">
        <path id="Trazado_102046" data-name="Trazado 102046" d="M479.833,888.41A140.06,140.06,0,0,1,377.22,843.785l.914-.855A139.346,139.346,0,0,0,498.474,885.9l.169,1.253a140.18,140.18,0,0,1-18.81,1.253Z" transform="translate(-377.22 -842.93)"/>
        <path id="Trazado_102047" data-name="Trazado 102047" d="M749.126,977.7l-.965-.8,3.952-4.748-5.023-3.6.733-1.021,6.116,4.381Z" transform="translate(-631.254 -928.515)"/>
      </g>
      <g id="Grupo_57655" data-name="Grupo 57655" transform="translate(0 94.239)">
        <path id="Trazado_102048" data-name="Trazado 102048" d="M271.019,494.36a140.724,140.724,0,0,1-5.29-110.08l1.174.435a139.481,139.481,0,0,0,5.243,109.09Z" transform="translate(-256.988 -383.228)"/>
        <path id="Trazado_102049" data-name="Trazado 102049" d="M266.92,384.346l.57,1.118,5.5-2.815,2.405,5.69,1.156-.492-2.931-6.928Z" transform="translate(-263.809 -380.92)"/>
      </g>
      <g id="Grupo_57656" data-name="Grupo 57656" transform="translate(16.135 212.246)">
        <path id="Trazado_102050" data-name="Trazado 102050" d="M347.412,820.118,348.956,822l1.124-.921-1.334-1.625.893-.733,1.334,1.625L353,818.68l.849,1.033-4.945,4.071-2.393-2.916Z" transform="translate(-334.608 -799.59)"/>
        <path id="Trazado_102051" data-name="Trazado 102051" d="M342.722,798.656l-1.237,3.029.232.313,2.245-1.7.8,1.059-5.1,3.865-1.4-1.851a2.66,2.66,0,0,1-.445-.83,1.566,1.566,0,0,1-.06-.761,1.719,1.719,0,0,1,.26-.654,2.156,2.156,0,0,1,.523-.548,1.567,1.567,0,0,1,1.049-.357,1.738,1.738,0,0,1,1.046.467l1.134-3.276Zm-2.981,4.832,1.218-.94-.473-.626c-.4-.529-.8-.626-1.209-.335a.7.7,0,0,0-.313.536,1.177,1.177,0,0,0,.291.723Z" transform="translate(-328.584 -784.981)"/>
        <path id="Trazado_102052" data-name="Trazado 102052" d="M335.716,792.6l-5.277,3.617-.749-1.1,5.274-3.617Z" transform="translate(-323.056 -780.922)"/>
        <path id="Trazado_102053" data-name="Trazado 102053" d="M325.466,776.268a3.444,3.444,0,0,1,.586,1.625,2.887,2.887,0,0,1-.313,1.607,3.758,3.758,0,0,1-2.9,1.9,2.91,2.91,0,0,1-1.6-.344,3.506,3.506,0,0,1-1.253-1.187,3.444,3.444,0,0,1-.589-1.622,2.906,2.906,0,0,1,.313-1.6,3.78,3.78,0,0,1,2.906-1.9,2.918,2.918,0,0,1,1.6.344A3.445,3.445,0,0,1,325.466,776.268Zm-.72,2.145a2.023,2.023,0,0,0-1.535-2.339,2.346,2.346,0,0,0-2.521,1.654,2.032,2.032,0,0,0,1.535,2.339A2.346,2.346,0,0,0,324.745,778.414Z" transform="translate(-315.975 -769.408)"/>
        <path id="Trazado_102054" data-name="Trazado 102054" d="M314.565,759.063a3.1,3.1,0,0,1,.482,1.776,1.964,1.964,0,0,1-.742,1.441l-.968-1.024a1.159,1.159,0,0,0,.479-.774,1.391,1.391,0,0,0-.213-.914,1.139,1.139,0,0,0-.526-.5.661.661,0,0,0-.626.069.627.627,0,0,0-.291.435,1.486,1.486,0,0,0-.022.532c.025.16.081.407.163.742a.277.277,0,0,0,.022.1c.041.172.072.313.094.42s.044.241.066.4a2.664,2.664,0,0,1,.028.417,2.615,2.615,0,0,1-.041.382,1.254,1.254,0,0,1-.122.37,1.754,1.754,0,0,1-1.619.861,1.833,1.833,0,0,1-.971-.344,2.969,2.969,0,0,1-.77-.883,3.465,3.465,0,0,1-.344-.767,2.832,2.832,0,0,1-.135-.786,1.807,1.807,0,0,1,.15-.783,1.967,1.967,0,0,1,.5-.686l.94.94a1.043,1.043,0,0,0-.2,1.459,1.253,1.253,0,0,0,.523.517.626.626,0,0,0,.626-.044.655.655,0,0,0,.251-.689,6.7,6.7,0,0,0-.191-.921c-.041-.178-.075-.313-.1-.435s-.05-.257-.078-.432a3.225,3.225,0,0,1-.034-.448,3.058,3.058,0,0,1,.041-.413,1.4,1.4,0,0,1,.128-.41,1.856,1.856,0,0,1,.254-.351A1.621,1.621,0,0,1,311.7,758a1.982,1.982,0,0,1,.686-.257,1.6,1.6,0,0,1,.648.028,2.064,2.064,0,0,1,.592.263,2.608,2.608,0,0,1,.52.448A3.757,3.757,0,0,1,314.565,759.063Z" transform="translate(-308.507 -757.724)"/>
      </g>
    </g>
  </g>
</svg>
