<svg id="info_1_4-03" xmlns="http://www.w3.org/2000/svg" width="426.789" height="227.525" viewBox="0 0 426.789 227.525">
  <rect id="Rectángulo_5381" data-name="Rectángulo 5381" width="213.395" height="173" fill="#29abe2"/>
  <rect id="Rectángulo_5382" data-name="Rectángulo 5382" width="213.395" height="227.526" transform="translate(213.395)" fill="#f2f2f2"/>
  <rect id="Rectángulo_5383" data-name="Rectángulo 5383" width="53.345" height="54.526" transform="translate(0 173)" fill="#29abe2"/>
  <g id="Grupo_57681" data-name="Grupo 57681" transform="translate(53.345 173)" opacity="0.75">
    <rect id="Rectángulo_5384" data-name="Rectángulo 5384" width="53.345" height="54.526" fill="#29abe2"/>
  </g>
  <g id="Grupo_57682" data-name="Grupo 57682" transform="translate(106.697 173)" opacity="0.5">
    <rect id="Rectángulo_5385" data-name="Rectángulo 5385" width="53.345" height="54.526" fill="#29abe2"/>
  </g>
  <g id="Grupo_57683" data-name="Grupo 57683" transform="translate(160.042 173)" opacity="0.25">
    <rect id="Rectángulo_5386" data-name="Rectángulo 5386" width="53.345" height="54.526" fill="#29abe2"/>
  </g>
  <g id="Grupo_57684" data-name="Grupo 57684" transform="translate(238.386 40.819)">
    <path id="Trazado_102259" data-name="Trazado 102259" d="M330.578,75.893,329.1,71.706h-8.527L319.1,75.893H314.78l7.475-20.3h5.157l7.475,20.3Zm-8.77-7.709h6.058l-3.029-8.618Z" transform="translate(-314.78 -54.31)"/>
    <path id="Trazado_102260" data-name="Trazado 102260" d="M354.692,63.33l-6.354,11.36h6.157v3.082h-11.9l6.323-11.36h-5.831V63.33Z" transform="translate(-321.529 -56.189)"/>
    <path id="Trazado_102261" data-name="Trazado 102261" d="M371.695,63.33h4.044V77.772h-3.832L371.8,76.03a5.513,5.513,0,0,1-4.6,2.022,5.649,5.649,0,0,1-3.991-1.295,4.847,4.847,0,0,1-1.386-3.7V63.33h4.059v8.838a2.507,2.507,0,0,0,.719,1.977,2.749,2.749,0,0,0,1.878.636,3.218,3.218,0,0,0,2.272-.825,3.5,3.5,0,0,0,.909-2.673Z" transform="translate(-326.196 -56.189)"/>
    <path id="Trazado_102262" data-name="Trazado 102262" d="M385.73,75.483V53.9h4.09V75.483Z" transform="translate(-331.999 -53.9)"/>
  </g>
  <g id="Grupo_57685" data-name="Grupo 57685" transform="translate(241.953 113.763)">
    <path id="Trazado_102263" data-name="Trazado 102263" d="M323.78,159.627a4.49,4.49,0,0,1-1.643-.3,4.256,4.256,0,0,1-1.318-.841,3.838,3.838,0,0,1-.871-1.356,4.853,4.853,0,0,1-.318-1.795,4.8,4.8,0,0,1,.318-1.78,3.787,3.787,0,0,1,2.189-2.2,4.492,4.492,0,0,1,1.643-.3,4.2,4.2,0,0,1,2.211.591,3.65,3.65,0,0,1,1.492,1.628l-.977.4a2.81,2.81,0,0,0-1.091-1.189,3.12,3.12,0,0,0-1.613-.417,3.385,3.385,0,0,0-1.219.22,2.884,2.884,0,0,0-.977.629,2.8,2.8,0,0,0-.659,1.03,3.788,3.788,0,0,0-.242,1.378,3.871,3.871,0,0,0,.242,1.393,2.8,2.8,0,0,0,.659,1.03,2.884,2.884,0,0,0,.977.629,3.234,3.234,0,0,0,1.219.22,3.12,3.12,0,0,0,1.613-.417,2.749,2.749,0,0,0,1.091-1.181l.977.4a3.635,3.635,0,0,1-1.515,1.628,4.279,4.279,0,0,1-2.189.583Z" transform="translate(-319.524 -150.426)"/>
    <path id="Trazado_102264" data-name="Trazado 102264" d="M334.3,160.433a3.029,3.029,0,0,1-1.515-.363,2.559,2.559,0,0,1-1.053-1.053,3.248,3.248,0,0,1-.386-1.606,2.961,2.961,0,0,1,.825-2.2,3.1,3.1,0,0,1,4.211,0,3.347,3.347,0,0,1,0,4.392A2.825,2.825,0,0,1,334.3,160.433Zm0-.848a1.818,1.818,0,0,0,1.378-.6,2.272,2.272,0,0,0,.545-1.575,2.218,2.218,0,0,0-.545-1.568,1.787,1.787,0,0,0-1.378-.6,1.757,1.757,0,0,0-1.363.6,2.219,2.219,0,0,0-.545,1.568,2.272,2.272,0,0,0,.545,1.575,1.787,1.787,0,0,0,1.356.6Z" transform="translate(-322.367 -151.232)"/>
    <path id="Trazado_102265" data-name="Trazado 102265" d="M343.979,154.389a2.037,2.037,0,0,1,1.462.53,1.969,1.969,0,0,1,.545,1.515v3.915h-1.022v-3.688a1.386,1.386,0,0,0-.356-1.037,1.249,1.249,0,0,0-.909-.341,1.424,1.424,0,0,0-1.038.4,1.658,1.658,0,0,0-.409,1.189v3.476H341.23v-5.816h1.022v.757A1.939,1.939,0,0,1,343.979,154.389Z" transform="translate(-324.766 -151.231)"/>
    <path id="Trazado_102266" data-name="Trazado 102266" d="M350.151,152.28a3.587,3.587,0,0,1,.061-.674,2.569,2.569,0,0,1,.167-.515,1.213,1.213,0,0,1,.273-.371,2.214,2.214,0,0,1,.363-.25,1.658,1.658,0,0,1,.439-.144,3.781,3.781,0,0,1,.5-.076h.568v.856h-.439a.99.99,0,0,0-.212,0,1,1,0,0,0-.182.061.425.425,0,0,0-.174.1l-.136.151a.523.523,0,0,0-.114.212,1.341,1.341,0,0,0-.068.288,2.535,2.535,0,0,0,0,.363v1.2h1.356v.818H351.2v5h-1.015v-5H349v-.818h1.121Zm4.074-.144a.7.7,0,0,1-.7-.7.659.659,0,0,1,.2-.485.7.7,0,0,1,.492-.2.674.674,0,0,1,.477.2.659.659,0,0,1,.2.485.674.674,0,0,1-.2.492A.651.651,0,0,1,354.225,152.136Zm-.523,7.179V153.5h1.03v5.816Z" transform="translate(-326.652 -150.227)"/>
    <path id="Trazado_102267" data-name="Trazado 102267" d="M360.521,160.439a1.984,1.984,0,0,1-1.272-.4,1.424,1.424,0,0,1-.5-1.189,1.726,1.726,0,0,1,.159-.757,1.348,1.348,0,0,1,.469-.523,2.764,2.764,0,0,1,.689-.333,7.155,7.155,0,0,1,.878-.212l.947-.152c.341-.061.515-.242.515-.538a.992.992,0,0,0-.371-.863,1.439,1.439,0,0,0-.916-.28,1.515,1.515,0,0,0-.909.265,1.1,1.1,0,0,0-.432.818l-.924-.2a1.765,1.765,0,0,1,.757-1.242,2.681,2.681,0,0,1,1.583-.417,3.029,3.029,0,0,1,.848.106,2.272,2.272,0,0,1,.7.326,1.469,1.469,0,0,1,.5.621,2.342,2.342,0,0,1,.182.962v2.4a1.038,1.038,0,0,0,.129.606.576.576,0,0,0,.462.159h.091v.757H363.6a.962.962,0,0,1-1.1-.757h-.045A2.272,2.272,0,0,1,360.521,160.439Zm.235-.825a1.515,1.515,0,0,0,1.25-.568,2.273,2.273,0,0,0,.477-1.515l-1.515.3a2.067,2.067,0,0,0-.909.326.854.854,0,0,0-.008,1.272A1.166,1.166,0,0,0,360.756,159.614Z" transform="translate(-329.017 -151.238)"/>
    <path id="Trazado_102268" data-name="Trazado 102268" d="M370.79,153.378a2.529,2.529,0,0,1,1.924.841,3.082,3.082,0,0,1,.757,2.189,3.12,3.12,0,0,1-.757,2.189,2.537,2.537,0,0,1-1.931.841,2.341,2.341,0,0,1-1.242-.341,2.143,2.143,0,0,1-.825-.916v1.128h-.985V150.22h.962V154.6a2.15,2.15,0,0,1,.833-.894,2.325,2.325,0,0,1,1.265-.326Zm-.227,5.165a1.78,1.78,0,0,0,1.363-.591,2.446,2.446,0,0,0,0-3.1,1.78,1.78,0,0,0-1.363-.591,1.749,1.749,0,0,0-1.348.613,2.416,2.416,0,0,0,0,3.029,1.757,1.757,0,0,0,1.348.636Z" transform="translate(-331.197 -150.22)"/>
    <path id="Trazado_102269" data-name="Trazado 102269" d="M377.47,159.308V150.22h1.038v9.088Z" transform="translate(-333.561 -150.22)"/>
    <path id="Trazado_102270" data-name="Trazado 102270" d="M386.521,157.3v.28h-4.544a2.037,2.037,0,0,0,.56,1.515,1.818,1.818,0,0,0,1.325.523,1.765,1.765,0,0,0,.962-.28,1.893,1.893,0,0,0,.666-.757l.924.2a2.635,2.635,0,0,1-1,1.25,2.719,2.719,0,0,1-1.515.454,2.809,2.809,0,0,1-2.158-.856,3.446,3.446,0,0,1,0-4.423,2.8,2.8,0,0,1,2.06-.81,2.628,2.628,0,0,1,1.961.757A2.939,2.939,0,0,1,386.521,157.3Zm-2.7-2.12a1.78,1.78,0,0,0-1.2.416,1.886,1.886,0,0,0-.613,1.2h3.522a1.734,1.734,0,0,0-.507-1.2A1.636,1.636,0,0,0,383.825,155.177Z" transform="translate(-334.403 -151.231)"/>
    <path id="Trazado_102271" data-name="Trazado 102271" d="M324.906,178.749l-2.143-3.787h-1.31v3.787H320.4v-8.33h2.726a2.5,2.5,0,0,1,1.871.659,2.348,2.348,0,0,1,.644,1.7,2.09,2.09,0,0,1-1.848,2.181l2.317,3.787Zm-3.453-7.4v2.81h1.568a1.757,1.757,0,0,0,1.219-.379,1.31,1.31,0,0,0,.4-1.015,1.348,1.348,0,0,0-.409-1.03,1.711,1.711,0,0,0-1.212-.386Z" transform="translate(-319.711 -155.12)"/>
    <path id="Trazado_102272" data-name="Trazado 102272" d="M334.476,176.5v.28h-4.544a2.037,2.037,0,0,0,.56,1.515,1.8,1.8,0,0,0,1.325.523,1.757,1.757,0,0,0,1.621-1.053l.924.2a2.582,2.582,0,0,1-.992,1.25,2.718,2.718,0,0,1-1.515.454,2.81,2.81,0,0,1-2.113-.841,3.446,3.446,0,0,1,0-4.423,2.787,2.787,0,0,1,2.06-.81,2.6,2.6,0,0,1,1.954.757A2.938,2.938,0,0,1,334.476,176.5Zm-2.7-2.12a1.8,1.8,0,0,0-1.212.417,1.915,1.915,0,0,0-.606,1.2h3.484a1.734,1.734,0,0,0-.507-1.2,1.636,1.636,0,0,0-1.159-.416Z" transform="translate(-321.783 -155.891)"/>
    <path id="Trazado_102273" data-name="Trazado 102273" d="M340.045,179.638a2.78,2.78,0,0,1-1.568-.417,1.742,1.742,0,0,1-.757-1.2l.894-.257a1.241,1.241,0,0,0,.47.81,1.575,1.575,0,0,0,.962.288,2.073,2.073,0,0,0,.553-.076.924.924,0,0,0,.432-.288.757.757,0,0,0,.174-.53.813.813,0,0,0-.053-.242.627.627,0,0,0-.091-.189.484.484,0,0,0-.167-.159l-.2-.129-.265-.106-.28-.1-.326-.091-.341-.1c-.242-.076-.447-.144-.606-.212a2.727,2.727,0,0,1-.485-.28,1.083,1.083,0,0,1-.386-.462,1.56,1.56,0,0,1-.129-.651,1.515,1.515,0,0,1,.288-.932,1.606,1.606,0,0,1,.757-.545,2.925,2.925,0,0,1,1.038-.167,2.567,2.567,0,0,1,1.416.379,1.613,1.613,0,0,1,.7,1.136l-.841.212a1.091,1.091,0,0,0-.447-.757,1.378,1.378,0,0,0-.833-.25,1.446,1.446,0,0,0-.757.2.7.7,0,0,0-.326.629.575.575,0,0,0,.091.318.811.811,0,0,0,.174.227.84.84,0,0,0,.318.174,2.723,2.723,0,0,0,.341.129l.424.106h.091l.56.159a4.07,4.07,0,0,1,.5.212,1.707,1.707,0,0,1,.454.318,1.516,1.516,0,0,1,.288.447,1.689,1.689,0,0,1,.113.629,1.749,1.749,0,0,1-.174.757,1.3,1.3,0,0,1-.477.53,2.007,2.007,0,0,1-.674.3,3.107,3.107,0,0,1-.863.174Z" transform="translate(-323.914 -155.896)"/>
    <path id="Trazado_102274" data-name="Trazado 102274" d="M348.827,173.59a2.748,2.748,0,0,1,1.053.212,2.673,2.673,0,0,1,.863.6,2.7,2.7,0,0,1,.583.962,3.567,3.567,0,0,1,.22,1.257,3.03,3.03,0,0,1-.757,2.189,2.537,2.537,0,0,1-1.931.841,2.272,2.272,0,0,1-1.212-.333,2.151,2.151,0,0,1-.833-.894v4.029H345.79V173.7h.984v1.128a2.128,2.128,0,0,1,.833-.9A2.273,2.273,0,0,1,348.827,173.59Zm-.2,5.165a1.749,1.749,0,0,0,1.34-.583,2.453,2.453,0,0,0,0-3.1,1.749,1.749,0,0,0-1.34-.583,1.8,1.8,0,0,0-1.371.606,2.393,2.393,0,0,0,0,3.029A1.8,1.8,0,0,0,348.63,178.755Z" transform="translate(-325.873 -155.892)"/>
    <path id="Trazado_102275" data-name="Trazado 102275" d="M357.8,179.633a3.029,3.029,0,0,1-1.515-.363,2.56,2.56,0,0,1-1.053-1.053,3.249,3.249,0,0,1-.386-1.605,2.961,2.961,0,0,1,.825-2.2,2.855,2.855,0,0,1,2.1-.825,2.885,2.885,0,0,1,2.113.825,3.347,3.347,0,0,1,0,4.392A2.832,2.832,0,0,1,357.8,179.633Zm0-.848a1.787,1.787,0,0,0,1.371-.6,2.272,2.272,0,0,0,.553-1.575,2.226,2.226,0,0,0-.553-1.568,1.765,1.765,0,0,0-1.371-.6,1.734,1.734,0,0,0-1.363.6,2.219,2.219,0,0,0-.545,1.568,2.272,2.272,0,0,0,.545,1.575A1.764,1.764,0,0,0,357.8,178.785Z" transform="translate(-328.07 -155.891)"/>
    <path id="Trazado_102276" data-name="Trazado 102276" d="M367.481,173.589a2.045,2.045,0,0,1,1.469.53,1.969,1.969,0,0,1,.545,1.515v3.915h-1.022v-3.688a1.386,1.386,0,0,0-.356-1.038,1.25,1.25,0,0,0-.909-.341,1.408,1.408,0,0,0-1.037.4,1.658,1.658,0,0,0-.409,1.189v3.476H364.74v-5.816h1.022v.757A1.939,1.939,0,0,1,367.481,173.589Z" transform="translate(-330.472 -155.891)"/>
    <path id="Trazado_102277" data-name="Trazado 102277" d="M375.317,179.633a2.749,2.749,0,0,1-1.56-.432A1.749,1.749,0,0,1,373,178l.894-.258a1.226,1.226,0,0,0,.477.81,1.568,1.568,0,0,0,.954.288,2.137,2.137,0,0,0,.561-.076.97.97,0,0,0,.432-.288.757.757,0,0,0,.167-.53.627.627,0,0,0-.045-.242,1.533,1.533,0,0,0-.091-.189.485.485,0,0,0-.167-.159,1.452,1.452,0,0,0-.47-.235l-.28-.1-.326-.091-.333-.1a5.934,5.934,0,0,1-.606-.212,2.772,2.772,0,0,1-.492-.28,1.129,1.129,0,0,1-.379-.462,1.559,1.559,0,0,1-.129-.651,1.514,1.514,0,0,1,.288-.931,1.6,1.6,0,0,1,.757-.545,2.909,2.909,0,0,1,1.03-.167,2.545,2.545,0,0,1,1.416.379,1.621,1.621,0,0,1,.712,1.136l-.841.212a1.113,1.113,0,0,0-.447-.757,1.394,1.394,0,0,0-.833-.25,1.424,1.424,0,0,0-.757.2.689.689,0,0,0-.326.628.643.643,0,0,0,.083.318.758.758,0,0,0,.492.4,3.24,3.24,0,0,0,.348.129l.424.106h.091l.553.159a4.1,4.1,0,0,1,.507.212,1.839,1.839,0,0,1,.454.318,1.588,1.588,0,0,1,.4,1.075,1.75,1.75,0,0,1-.174.757,1.408,1.408,0,0,1-.477.53,2.12,2.12,0,0,1-.682.3A3.088,3.088,0,0,1,375.317,179.633Z" transform="translate(-332.476 -155.891)"/>
    <path id="Trazado_102278" data-name="Trazado 102278" d="M382.218,179.64a1.991,1.991,0,0,1-1.28-.4,1.424,1.424,0,0,1-.5-1.189,1.727,1.727,0,0,1,.159-.757,1.317,1.317,0,0,1,.477-.523,2.59,2.59,0,0,1,.682-.333,7.684,7.684,0,0,1,.886-.212l.939-.151c.341-.061.515-.242.515-.538a1.007,1.007,0,0,0-.363-.863,1.454,1.454,0,0,0-.916-.28,1.514,1.514,0,0,0-.916.265,1.144,1.144,0,0,0-.432.818l-.924-.2a1.817,1.817,0,0,1,.757-1.242,2.726,2.726,0,0,1,1.59-.417,3.234,3.234,0,0,1,.841.106,2.137,2.137,0,0,1,.7.326,1.417,1.417,0,0,1,.5.621,2.341,2.341,0,0,1,.182.962v2.4a.977.977,0,0,0,.136.606.568.568,0,0,0,.454.159h.1v.757H385.3c-.629,0-1-.257-1.106-.757h-.045a2.219,2.219,0,0,1-1.931.841Zm.235-.825a1.552,1.552,0,0,0,1.25-.568,2.333,2.333,0,0,0,.47-1.515l-1.515.3a2.029,2.029,0,0,0-.9.326.848.848,0,0,0,0,1.272,1.174,1.174,0,0,0,.7.189Z" transform="translate(-334.281 -155.898)"/>
    <path id="Trazado_102279" data-name="Trazado 102279" d="M392.487,172.578a2.514,2.514,0,0,1,1.916.841,3.029,3.029,0,0,1,.757,2.189,3.09,3.09,0,0,1-.757,2.189,2.507,2.507,0,0,1-1.924.841,2.317,2.317,0,0,1-1.242-.341,2.166,2.166,0,0,1-.833-.916v1.128h-.984V169.42h1.015V173.8a2.135,2.135,0,0,1,.825-.894A2.377,2.377,0,0,1,392.487,172.578Zm-.227,5.165a1.8,1.8,0,0,0,1.363-.591,2.469,2.469,0,0,0,0-3.1,1.8,1.8,0,0,0-1.363-.591,1.742,1.742,0,0,0-1.348.613,2.181,2.181,0,0,0-.553,1.515,2.226,2.226,0,0,0,.545,1.515A1.772,1.772,0,0,0,392.26,177.743Z" transform="translate(-336.461 -154.88)"/>
    <path id="Trazado_102280" data-name="Trazado 102280" d="M399.17,178.508V169.42h1.037v9.088Z" transform="translate(-338.828 -154.88)"/>
    <path id="Trazado_102281" data-name="Trazado 102281" d="M408.232,176.507v.28h-4.544a2.037,2.037,0,0,0,.553,1.515,1.825,1.825,0,0,0,1.325.523,1.757,1.757,0,0,0,1.628-1.053l.924.2a2.628,2.628,0,0,1-.992,1.25,2.718,2.718,0,0,1-1.515.454,2.84,2.84,0,0,1-2.1-.81,3.461,3.461,0,0,1,0-4.423,2.772,2.772,0,0,1,2.06-.81,2.62,2.62,0,0,1,1.954.757A2.938,2.938,0,0,1,408.232,176.507Zm-2.688-2.12a1.787,1.787,0,0,0-1.212.417,1.886,1.886,0,0,0-.613,1.2h3.491a1.742,1.742,0,0,0-.515-1.2A1.606,1.606,0,0,0,405.544,174.387Z" transform="translate(-339.688 -155.901)"/>
    <path id="Trazado_102282" data-name="Trazado 102282" d="M325.679,189.62h1.06v8.33h-1.06v-3.7H321.46v3.7H320.4v-8.33h1.06v3.68h4.218Z" transform="translate(-319.711 -159.782)"/>
    <path id="Trazado_102283" data-name="Trazado 102283" d="M334.052,198.833a3.029,3.029,0,0,1-1.515-.364,2.559,2.559,0,0,1-1.053-1.053,3.249,3.249,0,0,1-.386-1.605,2.969,2.969,0,0,1,.826-2.2,3.1,3.1,0,0,1,4.211,0,3.029,3.029,0,0,1,.818,2.2,2.961,2.961,0,0,1-.826,2.2A2.825,2.825,0,0,1,334.052,198.833Zm0-.848a1.818,1.818,0,0,0,1.378-.6,2.272,2.272,0,0,0,.545-1.575,2.219,2.219,0,0,0-.545-1.568,1.787,1.787,0,0,0-1.378-.6,1.757,1.757,0,0,0-1.363.6,2.219,2.219,0,0,0-.545,1.568,2.272,2.272,0,0,0,.545,1.575,1.787,1.787,0,0,0,1.363.6Z" transform="translate(-322.307 -160.551)"/>
    <path id="Trazado_102284" data-name="Trazado 102284" d="M343.734,192.789a2.037,2.037,0,0,1,1.462.53,1.969,1.969,0,0,1,.545,1.515v3.915h-1.022v-3.688a1.379,1.379,0,0,0-.356-1.038,1.25,1.25,0,0,0-.909-.341,1.424,1.424,0,0,0-1.038.4,1.659,1.659,0,0,0-.409,1.189v3.476H341v-5.816h1.022v.757A1.939,1.939,0,0,1,343.734,192.789Z" transform="translate(-324.71 -160.551)"/>
    <path id="Trazado_102285" data-name="Trazado 102285" d="M354.818,195.712v.28h-4.544a2.036,2.036,0,0,0,.553,1.515,1.818,1.818,0,0,0,1.325.523,1.765,1.765,0,0,0,.962-.28,1.847,1.847,0,0,0,.666-.757l.924.2a2.636,2.636,0,0,1-1,1.25,2.681,2.681,0,0,1-1.515.454,2.81,2.81,0,0,1-2.1-.81,3.446,3.446,0,0,1,0-4.423,2.8,2.8,0,0,1,2.067-.81,2.62,2.62,0,0,1,1.954.757,2.923,2.923,0,0,1,.7,2.105Zm-2.689-2.12a1.787,1.787,0,0,0-1.212.417,1.886,1.886,0,0,0-.613,1.2h3.484a1.7,1.7,0,0,0-.507-1.2,1.62,1.62,0,0,0-1.181-.417Z" transform="translate(-326.722 -160.565)"/>
    <path id="Trazado_102286" data-name="Trazado 102286" d="M360.395,198.838a2.749,2.749,0,0,1-1.568-.417,1.75,1.75,0,0,1-.757-1.2l.894-.258a1.227,1.227,0,0,0,.477.81,1.515,1.515,0,0,0,.954.288,2.137,2.137,0,0,0,.56-.076.909.909,0,0,0,.424-.288.757.757,0,0,0,.174-.53.813.813,0,0,0-.045-.242.884.884,0,0,0-.1-.189.423.423,0,0,0-.167-.159,1.243,1.243,0,0,0-.2-.129l-.265-.106-.28-.1-.326-.091-.333-.1a5.939,5.939,0,0,1-.606-.212,2.53,2.53,0,0,1-.492-.28,1.127,1.127,0,0,1-.379-.462,1.447,1.447,0,0,1-.129-.651,1.515,1.515,0,0,1,.28-.931,1.627,1.627,0,0,1,.757-.545,2.876,2.876,0,0,1,1.03-.167,2.545,2.545,0,0,1,1.416.379,1.59,1.59,0,0,1,.7,1.136l-.841.212a1.083,1.083,0,0,0-.439-.757,1.409,1.409,0,0,0-.833-.25,1.424,1.424,0,0,0-.757.2.689.689,0,0,0-.326.629.577.577,0,0,0,.083.318.811.811,0,0,0,.174.227.985.985,0,0,0,.318.174,3.256,3.256,0,0,0,.341.129l.432.106h.083l.56.159a3.508,3.508,0,0,1,.507.212,1.649,1.649,0,0,1,.447.318,1.379,1.379,0,0,1,.288.447,1.66,1.66,0,0,1,.121.629,1.748,1.748,0,0,1-.174.757,1.409,1.409,0,0,1-.477.53,2.12,2.12,0,0,1-.682.3A3.089,3.089,0,0,1,360.395,198.838Z" transform="translate(-328.853 -160.556)"/>
    <path id="Trazado_102287" data-name="Trazado 102287" d="M367.664,198.13a1.514,1.514,0,0,1-1.136-.417,1.591,1.591,0,0,1-.409-1.159v-3.438H364.93V192.3h.432a.833.833,0,0,0,.644-.2.977.977,0,0,0,.189-.682V190.36h.954V192.3h1.333v.818h-1.333v3.317a.856.856,0,0,0,.22.636.757.757,0,0,0,.583.227h.53v.818Z" transform="translate(-330.518 -159.962)"/>
    <path id="Trazado_102288" data-name="Trazado 102288" d="M373.772,198.833a3.029,3.029,0,0,1-1.515-.364,2.56,2.56,0,0,1-1.053-1.053,3.248,3.248,0,0,1-.386-1.605,2.968,2.968,0,0,1,.825-2.2,3.1,3.1,0,0,1,4.211,0,3.03,3.03,0,0,1,.818,2.2,2.961,2.961,0,0,1-.826,2.2,2.825,2.825,0,0,1-2.075.825Zm0-.848a1.787,1.787,0,0,0,1.371-.6,2.219,2.219,0,0,0,.553-1.575,2.188,2.188,0,0,0-.553-1.568,1.764,1.764,0,0,0-1.371-.6,1.734,1.734,0,0,0-1.363.6,2.219,2.219,0,0,0-.545,1.568,2.272,2.272,0,0,0,.545,1.575,1.764,1.764,0,0,0,1.356.6Z" transform="translate(-331.946 -160.551)"/>
    <path id="Trazado_102289" data-name="Trazado 102289" d="M321.453,216.189h2.893v.962H320.4v-8.33h1.053Z" transform="translate(-319.711 -164.442)"/>
    <path id="Trazado_102290" data-name="Trazado 102290" d="M332.382,214.9v.28h-4.544a2.037,2.037,0,0,0,.553,1.515,1.818,1.818,0,0,0,1.325.523,1.757,1.757,0,0,0,1.628-1.053l.924.2a2.628,2.628,0,0,1-.992,1.25,2.718,2.718,0,0,1-1.514.454,2.84,2.84,0,0,1-2.1-.81,3.461,3.461,0,0,1,0-4.423,2.772,2.772,0,0,1,2.03-.833,2.62,2.62,0,0,1,1.954.757A2.923,2.923,0,0,1,332.382,214.9Zm-2.688-2.143a1.787,1.787,0,0,0-1.212.417,1.886,1.886,0,0,0-.614,1.2h3.484a1.7,1.7,0,0,0-.507-1.2A1.605,1.605,0,0,0,329.694,212.757Z" transform="translate(-321.28 -165.213)"/>
    <path id="Trazado_102291" data-name="Trazado 102291" d="M337.431,218.067a1.984,1.984,0,0,1-1.272-.4,1.424,1.424,0,0,1-.5-1.189,1.664,1.664,0,0,1,.159-.757,1.288,1.288,0,0,1,.477-.53,2.59,2.59,0,0,1,.682-.333,6.983,6.983,0,0,1,.886-.212l.939-.151c.341-.061.515-.242.515-.538a1.007,1.007,0,0,0-.363-.863,1.461,1.461,0,0,0-.924-.28,1.515,1.515,0,0,0-.909.265,1.144,1.144,0,0,0-.432.818l-.924-.2a1.817,1.817,0,0,1,.757-1.242,2.726,2.726,0,0,1,1.59-.416,3.27,3.27,0,0,1,.841.106,2.272,2.272,0,0,1,.7.326,1.469,1.469,0,0,1,.5.621,2.339,2.339,0,0,1,.182.962v2.4a.977.977,0,0,0,.136.606.56.56,0,0,0,.454.159h.1v.757h-.507c-.629,0-1-.257-1.106-.757h-.046A2.2,2.2,0,0,1,337.431,218.067Zm.242-.826a1.515,1.515,0,0,0,1.242-.568,2.273,2.273,0,0,0,.477-1.515l-1.515.3a2.029,2.029,0,0,0-.9.326.847.847,0,0,0-.015,1.272,1.174,1.174,0,0,0,.742.167Z" transform="translate(-323.413 -165.222)"/>
    <path id="Trazado_102292" data-name="Trazado 102292" d="M344.65,216.908V207.82h1.022v9.088Z" transform="translate(-325.596 -164.199)"/>
    <path id="Trazado_102293" data-name="Trazado 102293" d="M322.746,236.442a3.786,3.786,0,0,1-2.173-.591,2.492,2.492,0,0,1-1.083-1.613l1.068-.257a1.727,1.727,0,0,0,.757,1.136,2.507,2.507,0,0,0,1.469.417,2.581,2.581,0,0,0,.553-.053,2.272,2.272,0,0,0,.5-.151,1.605,1.605,0,0,0,.409-.273,1.135,1.135,0,0,0,.273-.409,1.31,1.31,0,0,0,.091-.553,1.106,1.106,0,0,0-.068-.394,1.326,1.326,0,0,0-.167-.31,1.016,1.016,0,0,0-.28-.25,2.9,2.9,0,0,0-.341-.2,3.145,3.145,0,0,0-.417-.167l-.439-.144-.477-.129h-.091l-.56-.159a5.184,5.184,0,0,1-.515-.174,3.465,3.465,0,0,1-.492-.227,3.749,3.749,0,0,1-.409-.288,1.266,1.266,0,0,1-.333-.371,1.788,1.788,0,0,1-.2-.47,2.325,2.325,0,0,1,.31-1.871,2.272,2.272,0,0,1,1-.757,3.6,3.6,0,0,1,1.378-.25,3.787,3.787,0,0,1,2,.515,2.272,2.272,0,0,1,1.06,1.515l-1.03.265a1.515,1.515,0,0,0-.689-1.022,2.385,2.385,0,0,0-1.3-.348,2.438,2.438,0,0,0-.636.083,1.719,1.719,0,0,0-.553.235,1.106,1.106,0,0,0-.4.432,1.317,1.317,0,0,0-.151.636,1.044,1.044,0,0,0,.212.636,1.24,1.24,0,0,0,.25.227,2.921,2.921,0,0,0,.311.182,2.566,2.566,0,0,0,.386.151l.416.136.454.121a9.511,9.511,0,0,1,1.606.53,2.022,2.022,0,0,1,1.234,1.515,2.747,2.747,0,0,1,0,.364,2.318,2.318,0,0,1-.235,1.075,1.976,1.976,0,0,1-.659.757,3.46,3.46,0,0,1-.931.417,4.414,4.414,0,0,1-1.1.091Z" transform="translate(-319.49 -169.079)"/>
    <path id="Trazado_102294" data-name="Trazado 102294" d="M334.922,234.082v.28h-4.544a2.037,2.037,0,0,0,.553,1.515,1.81,1.81,0,0,0,1.325.515,1.757,1.757,0,0,0,.962-.273,1.841,1.841,0,0,0,.667-.757l.924.2a2.674,2.674,0,0,1-.992,1.25,2.719,2.719,0,0,1-1.515.454,2.825,2.825,0,0,1-2.1-.81,3.461,3.461,0,0,1,0-4.423,2.772,2.772,0,0,1,2.06-.81,2.62,2.62,0,0,1,1.954.757A2.938,2.938,0,0,1,334.922,234.082Zm-2.688-2.12a1.787,1.787,0,0,0-1.212.417,1.863,1.863,0,0,0-.613,1.2h3.484a1.689,1.689,0,0,0-.507-1.2,1.605,1.605,0,0,0-1.151-.394Z" transform="translate(-321.896 -169.877)"/>
    <path id="Trazado_102295" data-name="Trazado 102295" d="M342.857,231.306h.992v5.521a3.165,3.165,0,0,1-.757,2.272,3.12,3.12,0,0,1-4.9-.984l.841-.417a1.924,1.924,0,0,0,1.946,1.34,1.658,1.658,0,0,0,1.363-.568,2.378,2.378,0,0,0,.477-1.583v-1.075a2.007,2.007,0,0,1-.833.833,2.394,2.394,0,0,1-1.212.318,2.491,2.491,0,0,1-1.878-.818,2.862,2.862,0,0,1-.757-2.067,2.832,2.832,0,0,1,.757-2.06,2.514,2.514,0,0,1,1.893-.818,2.377,2.377,0,0,1,1.212.326,2.1,2.1,0,0,1,.826.863Zm-1.848,4.779a1.75,1.75,0,0,0,1.34-.591,2.12,2.12,0,0,0,0-2.847,1.825,1.825,0,0,0-2.681,0,2.151,2.151,0,0,0,0,2.878A1.765,1.765,0,0,0,341.009,236.085Z" transform="translate(-324.015 -169.873)"/>
    <path id="Trazado_102296" data-name="Trazado 102296" d="M352.029,231.328h1.022v5.8h-.984v-.757a1.863,1.863,0,0,1-.719.651,2.272,2.272,0,0,1-1.022.227,1.991,1.991,0,0,1-1.462-.53,1.953,1.953,0,0,1-.545-1.515V231.29h1.022v3.688a1.356,1.356,0,0,0,.356,1.037,1.257,1.257,0,0,0,.916.348,1.4,1.4,0,0,0,1.03-.4,1.674,1.674,0,0,0,.409-1.189Z" transform="translate(-326.485 -169.895)"/>
    <path id="Trazado_102297" data-name="Trazado 102297" d="M358.32,232.35a1.772,1.772,0,0,1,.719-.757,2.181,2.181,0,0,1,1.121-.3v.962a1.931,1.931,0,0,0-1.356.432,1.8,1.8,0,0,0-.462,1.378v3.067H357.32v-5.816h1Z" transform="translate(-328.671 -169.895)"/>
    <path id="Trazado_102298" data-name="Trazado 102298" d="M364.842,237.233a3.029,3.029,0,0,1-1.515-.363,2.559,2.559,0,0,1-1.053-1.053,3.249,3.249,0,0,1-.386-1.605,2.961,2.961,0,0,1,.825-2.2,2.855,2.855,0,0,1,2.1-.826,2.886,2.886,0,0,1,2.113.826,3.347,3.347,0,0,1,0,4.392,2.84,2.84,0,0,1-2.083.825Zm0-.856a1.78,1.78,0,0,0,1.371-.591,2.271,2.271,0,0,0,.553-1.575,2.226,2.226,0,0,0-.553-1.568,1.765,1.765,0,0,0-1.371-.6,1.734,1.734,0,0,0-1.363.6,2.219,2.219,0,0,0-.545,1.568,2.272,2.272,0,0,0,.545,1.575,1.757,1.757,0,0,0,1.363.56Z" transform="translate(-329.779 -169.87)"/>
  </g>
  <g id="Grupo_57686" data-name="Grupo 57686" transform="translate(242.438 88.287)">
    <path id="Trazado_102299" data-name="Trazado 102299" d="M323.689,117.109a2.582,2.582,0,0,1,1.969.757,2.794,2.794,0,0,1,.757,1.969,2.688,2.688,0,0,1-.757,1.954,2.6,2.6,0,0,1-1.969.757H321.9v3.029H320.13v-8.467Zm-.3,4a1.272,1.272,0,0,0,.977-.333,1.249,1.249,0,0,0,.326-.924,1.272,1.272,0,0,0-.326-.916,1.3,1.3,0,0,0-.977-.341h-1.515v2.514Z" transform="translate(-320.13 -116.707)"/>
    <path id="Trazado_102300" data-name="Trazado 102300" d="M332.482,126.546a3.9,3.9,0,0,1-1.719-.371,2.8,2.8,0,0,1-1.181-1.1,3.225,3.225,0,0,1-.432-1.7,3.029,3.029,0,0,1,.924-2.272,3.855,3.855,0,0,1,4.824,0,3.363,3.363,0,0,1,0,4.627A3.453,3.453,0,0,1,332.482,126.546Zm0-1.356a1.568,1.568,0,0,0,1.2-.5,1.848,1.848,0,0,0,.454-1.31,1.885,1.885,0,0,0-.454-1.318,1.59,1.59,0,0,0-1.2-.492,1.514,1.514,0,0,0-1.166.5,2.113,2.113,0,0,0,0,2.62,1.515,1.515,0,0,0,1.151.5Z" transform="translate(-322.319 -117.473)"/>
    <path id="Trazado_102301" data-name="Trazado 102301" d="M341.613,126.533a3.461,3.461,0,0,1-1.78-.424,1.818,1.818,0,0,1-.863-1.272l1.424-.4a1.144,1.144,0,0,0,1.219.909,1.2,1.2,0,0,0,.621-.144.477.477,0,0,0,.242-.47.523.523,0,0,0-.1-.311.94.94,0,0,0-.31-.227l-.417-.159-.545-.159a5.637,5.637,0,0,1-.56-.174,3.279,3.279,0,0,1-.538-.227,2.028,2.028,0,0,1-.439-.31,1.263,1.263,0,0,1-.333-.477,1.75,1.75,0,0,1-.114-.651,1.56,1.56,0,0,1,.659-1.363,2.984,2.984,0,0,1,1.727-.462,3.029,3.029,0,0,1,1.59.394,1.757,1.757,0,0,1,.818,1.219l-1.325.3a1.022,1.022,0,0,0-1.075-.757,1.166,1.166,0,0,0-.6.136.447.447,0,0,0-.242.409.483.483,0,0,0,0,.182.363.363,0,0,0,.121.144l.174.114a1.123,1.123,0,0,0,.242.1l.265.076.31.083.318.083c.22.061.409.114.576.174a4,4,0,0,1,.523.25,2.015,2.015,0,0,1,.454.356,1.733,1.733,0,0,1,.3.507,1.877,1.877,0,0,1,.114.674,1.81,1.81,0,0,1-.2.878,1.514,1.514,0,0,1-.56.6,2.687,2.687,0,0,1-.757.318A4.12,4.12,0,0,1,341.613,126.533Z" transform="translate(-324.702 -117.46)"/>
    <path id="Trazado_102302" data-name="Trazado 102302" d="M348.212,118.541a.975.975,0,0,1-.7-1.674.969.969,0,0,1,.7-.288.984.984,0,0,1,0,1.961Zm-.871,6.99v-6.059h1.719v6.059Z" transform="translate(-326.705 -116.58)"/>
    <path id="Trazado_102303" data-name="Trazado 102303" d="M354.02,125.823a1.856,1.856,0,0,1-1.378-.492,1.939,1.939,0,0,1-.485-1.409v-2.87h-1.2v-1.31h.386a1,1,0,0,0,.757-.25,1.31,1.31,0,0,0,.242-.909v-.8h1.515v1.961h1.257v1.31h-1.257v2.688c0,.53.235.757.7.757h.553v1.3Z" transform="translate(-327.612 -116.871)"/>
    <path id="Trazado_102304" data-name="Trazado 102304" d="M359.024,118.541a.954.954,0,0,1-.7-.288.924.924,0,0,1-.288-.7.947.947,0,0,1,.288-.689.977.977,0,0,1,.7-.288.962.962,0,0,1,.689.288.977.977,0,0,1,0,1.386A.962.962,0,0,1,359.024,118.541Zm-.871,6.99v-6.058h1.719v6.058Z" transform="translate(-329.33 -116.58)"/>
    <path id="Trazado_102305" data-name="Trazado 102305" d="M366.442,120.37h1.81l-2.6,6.058H364.14l-2.56-6.058h1.833l1.515,4.158Z" transform="translate(-330.19 -117.5)"/>
    <path id="Trazado_102306" data-name="Trazado 102306" d="M373.931,126.545a3.915,3.915,0,0,1-1.727-.371,2.741,2.741,0,0,1-1.174-1.1,3.226,3.226,0,0,1-.432-1.7,2.961,2.961,0,0,1,.924-2.272,3.84,3.84,0,0,1,4.817,0,3.362,3.362,0,0,1,0,4.627,3.438,3.438,0,0,1-2.408.81Zm0-1.356a1.514,1.514,0,0,0,1.2-.5,1.825,1.825,0,0,0,.462-1.31,1.855,1.855,0,0,0-.462-1.318,1.568,1.568,0,0,0-1.2-.485,1.515,1.515,0,0,0-1.166.5,2.113,2.113,0,0,0,0,2.62A1.515,1.515,0,0,0,373.931,125.19Z" transform="translate(-332.378 -117.473)"/>
  </g>
  <g id="Grupo_57687" data-name="Grupo 57687" transform="translate(337.434 114.293)">
    <path id="Trazado_102307" data-name="Trazado 102307" d="M450.084,152.189h-3.431v2.719h3.029v.954h-3.029v3.688H445.57v-8.33h4.506Z" transform="translate(-445.57 -150.993)"/>
    <path id="Trazado_102308" data-name="Trazado 102308" d="M454.539,155.55a1.8,1.8,0,0,1,.757-.757,2.151,2.151,0,0,1,1.113-.3v.962a1.909,1.909,0,0,0-1.348.432,1.8,1.8,0,0,0-.462,1.378v3.1h-1.03v-5.816h1Z" transform="translate(-447.511 -151.786)"/>
    <path id="Trazado_102309" data-name="Trazado 102309" d="M459.337,152.3a.7.7,0,0,1-.7-.7.659.659,0,0,1,.2-.485.7.7,0,0,1,.492-.2.674.674,0,0,1,.477.2.659.659,0,0,1,.2.485.674.674,0,0,1-.2.492A.652.652,0,0,1,459.337,152.3Zm-.523,7.179v-5.816h1.03v5.816Z" transform="translate(-448.742 -150.92)"/>
    <path id="Trazado_102310" data-name="Trazado 102310" d="M465.265,160.434a3.029,3.029,0,0,1-1.515-.363,2.59,2.59,0,0,1-1.045-1.053,3.248,3.248,0,0,1-.386-1.606,2.968,2.968,0,0,1,.825-2.2,3.09,3.09,0,0,1,4.2,0,3.332,3.332,0,0,1,0,4.392A2.84,2.84,0,0,1,465.265,160.434Zm0-.848a1.8,1.8,0,0,0,1.371-.6,2.272,2.272,0,0,0,.545-1.575,2.219,2.219,0,0,0-.545-1.568,1.871,1.871,0,0,0-2.741,0,2.565,2.565,0,0,0,0,3.143A1.787,1.787,0,0,0,465.265,159.585Z" transform="translate(-449.634 -151.762)"/>
    <path id="Trazado_102311" data-name="Trazado 102311" d="M445.58,178.75v-8.33h1.075v8.33Z" transform="translate(-445.572 -155.652)"/>
    <path id="Trazado_102312" data-name="Trazado 102312" d="M452.827,173.589a2.037,2.037,0,0,1,1.462.53,1.969,1.969,0,0,1,.545,1.515v3.915H453.8v-3.681a1.393,1.393,0,0,0-.356-1.045,1.25,1.25,0,0,0-.909-.341,1.424,1.424,0,0,0-1.037.4,1.658,1.658,0,0,0-.409,1.189v3.476H450.07v-5.816h1.022v.757a1.939,1.939,0,0,1,1.734-.9Z" transform="translate(-446.662 -156.421)"/>
    <path id="Trazado_102313" data-name="Trazado 102313" d="M463.121,169.42h1.03v9.088h-.984v-1.128a2.166,2.166,0,0,1-.833.916,2.272,2.272,0,0,1-1.227.341,2.62,2.62,0,0,1-1.053-.22,2.581,2.581,0,0,1-.871-.606,2.817,2.817,0,0,1-.583-.962,3.475,3.475,0,0,1-.212-1.242,3.029,3.029,0,0,1,.757-2.189,2.537,2.537,0,0,1,1.931-.841,2.34,2.34,0,0,1,1.219.333,2.166,2.166,0,0,1,.825.886Zm-1.833,8.33a1.772,1.772,0,0,0,1.356-.606,2.226,2.226,0,0,0,.545-1.515,2.181,2.181,0,0,0-.553-1.515,1.742,1.742,0,0,0-1.348-.613,1.8,1.8,0,0,0-1.363.591,2.219,2.219,0,0,0-.545,1.552,2.189,2.189,0,0,0,.545,1.515,1.8,1.8,0,0,0,1.363.583Z" transform="translate(-448.68 -155.41)"/>
    <path id="Trazado_102314" data-name="Trazado 102314" d="M469.209,171.5a.659.659,0,0,1-.485-.2.673.673,0,0,1-.2-.492.659.659,0,0,1,.2-.485.7.7,0,0,1,.969,0,.659.659,0,0,1,.2.485.674.674,0,0,1-.2.492A.659.659,0,0,1,469.209,171.5Zm-.523,7.179v-5.816h1.03v5.816Z" transform="translate(-451.14 -155.58)"/>
    <path id="Trazado_102315" data-name="Trazado 102315" d="M475.261,170.278h-.439a1.079,1.079,0,0,0-.212,0l-.182.061a.424.424,0,0,0-.174.1l-.136.151a.523.523,0,0,0-.114.212,1.343,1.343,0,0,0-.068.288,2.6,2.6,0,0,0,0,.364v1.2h1.348v.818h-1.371v5h-1.022v-5H471.77v-.818h1.121V171.43a3.6,3.6,0,0,1,.061-.674,2.566,2.566,0,0,1,.167-.515,1.331,1.331,0,0,1,.28-.371,2.165,2.165,0,0,1,.356-.25,1.66,1.66,0,0,1,.439-.144,3.987,3.987,0,0,1,.5-.076h.568Z" transform="translate(-451.928 -155.405)"/>
    <path id="Trazado_102316" data-name="Trazado 102316" d="M482.792,176.507v.28h-4.544a2.038,2.038,0,0,0,.553,1.515,1.825,1.825,0,0,0,1.325.523,1.757,1.757,0,0,0,1.628-1.053l.924.2a2.628,2.628,0,0,1-.992,1.25,2.719,2.719,0,0,1-1.515.454,2.84,2.84,0,0,1-2.1-.81,3.461,3.461,0,0,1,0-4.423,2.772,2.772,0,0,1,2.06-.81,2.621,2.621,0,0,1,1.954.757A2.938,2.938,0,0,1,482.792,176.507Zm-2.688-2.12a1.787,1.787,0,0,0-1.212.417,1.886,1.886,0,0,0-.613,1.2h3.491a1.741,1.741,0,0,0-.515-1.2,1.605,1.605,0,0,0-1.159-.417Z" transform="translate(-453.265 -156.431)"/>
    <path id="Trazado_102317" data-name="Trazado 102317" d="M487.689,174.75a1.75,1.75,0,0,1,.757-.757,2.151,2.151,0,0,1,1.113-.3v.962a1.908,1.908,0,0,0-1.348.432,1.8,1.8,0,0,0-.469,1.378v3.1H486.72v-5.816h.969Z" transform="translate(-455.557 -156.446)"/>
    <path id="Trazado_102318" data-name="Trazado 102318" d="M496.865,176.512v.28h-4.544a2.037,2.037,0,0,0,.553,1.515,1.886,1.886,0,0,0,2.272.242,1.779,1.779,0,0,0,.659-.757l.924.2a2.628,2.628,0,0,1-.992,1.25,2.719,2.719,0,0,1-1.515.454,2.825,2.825,0,0,1-2.1-.81,3.461,3.461,0,0,1,0-4.423,2.771,2.771,0,0,1,2.06-.81,2.621,2.621,0,0,1,1.954.757,2.938,2.938,0,0,1,.727,2.105Zm-2.688-2.12a1.787,1.787,0,0,0-1.212.417,1.886,1.886,0,0,0-.614,1.2h3.484a1.7,1.7,0,0,0-.507-1.2,1.605,1.605,0,0,0-1.151-.417Z" transform="translate(-456.674 -156.436)"/>
    <path id="Trazado_102319" data-name="Trazado 102319" d="M503.509,173.589a2.037,2.037,0,0,1,1.462.53,1.969,1.969,0,0,1,.545,1.515v3.915h-1.022v-3.681a1.394,1.394,0,0,0-.356-1.045,1.249,1.249,0,0,0-.909-.341,1.409,1.409,0,0,0-1.038.4,1.658,1.658,0,0,0-.409,1.189v3.476H500.76v-5.816h1.022v.757A1.939,1.939,0,0,1,503.509,173.589Z" transform="translate(-458.964 -156.421)"/>
    <path id="Trazado_102320" data-name="Trazado 102320" d="M511.224,178.935a1.515,1.515,0,0,1-1.136-.417,1.591,1.591,0,0,1-.409-1.159v-3.423H508.49v-.818h.432a.833.833,0,0,0,.644-.2.977.977,0,0,0,.189-.682V171.18h.954v1.939h1.333v.818h-1.333v3.317a.856.856,0,0,0,.22.636.757.757,0,0,0,.583.227h.53v.818Z" transform="translate(-460.84 -155.837)"/>
    <path id="Trazado_102321" data-name="Trazado 102321" d="M519.993,176.512v.28h-4.544a2.067,2.067,0,0,0,.56,1.515,1.818,1.818,0,0,0,1.325.523,1.765,1.765,0,0,0,.962-.28,1.848,1.848,0,0,0,.666-.757l.924.2a2.636,2.636,0,0,1-1,1.25,2.718,2.718,0,0,1-1.515.454,2.809,2.809,0,0,1-2.09-.81,3.446,3.446,0,0,1,0-4.423,2.8,2.8,0,0,1,2.067-.81,2.62,2.62,0,0,1,1.954.757,2.938,2.938,0,0,1,.689,2.105Zm-2.688-2.12a1.787,1.787,0,0,0-1.212.417,1.885,1.885,0,0,0-.613,1.2h3.484a1.734,1.734,0,0,0-.507-1.2,1.621,1.621,0,0,0-1.151-.417Z" transform="translate(-462.294 -156.436)"/>
    <path id="Trazado_102322" data-name="Trazado 102322" d="M445.58,197.95v-8.33h2.688a4.029,4.029,0,0,1,2.121.538,3.355,3.355,0,0,1,1.3,1.469,5.143,5.143,0,0,1,.424,2.151,5.38,5.38,0,0,1-.25,1.689,3.7,3.7,0,0,1-.719,1.318,3.18,3.18,0,0,1-1.212.863,4.271,4.271,0,0,1-1.666.3Zm1.06-.962h1.59a2.552,2.552,0,0,0,2.083-.856,3.62,3.62,0,0,0,.7-2.355,3.567,3.567,0,0,0-.7-2.34,2.53,2.53,0,0,0-2.075-.848h-1.575Z" transform="translate(-445.572 -160.312)"/>
    <path id="Trazado_102323" data-name="Trazado 102323" d="M457.039,190.7a.659.659,0,0,1-.485-.2.674.674,0,0,1-.2-.492.659.659,0,0,1,.2-.485.681.681,0,0,1,.485-.2.7.7,0,0,1,.485.2.659.659,0,0,1,.2.485.7.7,0,0,1-.689.7Zm-.522,7.179v-5.816h1.03v5.816Z" transform="translate(-448.186 -160.239)"/>
    <path id="Trazado_102324" data-name="Trazado 102324" d="M462.365,198.838a2.749,2.749,0,0,1-1.568-.417,1.75,1.75,0,0,1-.757-1.2l.894-.257a1.287,1.287,0,0,0,.477.81,1.568,1.568,0,0,0,.954.288,2.135,2.135,0,0,0,.56-.076.969.969,0,0,0,.432-.288.826.826,0,0,0,.174-.53.811.811,0,0,0-.053-.242.883.883,0,0,0-.091-.189.485.485,0,0,0-.167-.159,1.73,1.73,0,0,0-.2-.129,1.573,1.573,0,0,0-.258-.106l-.288-.1-.326-.091-.333-.1c-.242-.076-.447-.144-.606-.212a2.778,2.778,0,0,1-.492-.28,1.129,1.129,0,0,1-.379-.462,1.562,1.562,0,0,1-.129-.651,1.515,1.515,0,0,1,.288-.931,1.606,1.606,0,0,1,.757-.545,2.907,2.907,0,0,1,1.03-.167,2.529,2.529,0,0,1,1.416.379,1.621,1.621,0,0,1,.712,1.136l-.841.212a1.09,1.09,0,0,0-.447-.757,1.379,1.379,0,0,0-.833-.25,1.447,1.447,0,0,0-.757.2.689.689,0,0,0-.326.629.644.644,0,0,0,.083.318,1.254,1.254,0,0,0,.174.227.955.955,0,0,0,.326.174,2.729,2.729,0,0,0,.341.129l.424.106h.091l.56.159a4.063,4.063,0,0,1,.5.212,1.839,1.839,0,0,1,.454.318,1.588,1.588,0,0,1,.4,1.075,1.751,1.751,0,0,1-.174.757,1.3,1.3,0,0,1-.477.53,2.075,2.075,0,0,1-.674.3A3.142,3.142,0,0,1,462.365,198.838Z" transform="translate(-449.082 -161.086)"/>
    <path id="Trazado_102325" data-name="Trazado 102325" d="M469.641,198.13a1.515,1.515,0,0,1-1.136-.417,1.568,1.568,0,0,1-.417-1.159v-3.438H466.9V192.3h.439a.856.856,0,0,0,.644-.2,1.022,1.022,0,0,0,.182-.682V190.36h.954V192.3h1.34v.818h-1.34v3.317a.886.886,0,0,0,.22.636.757.757,0,0,0,.583.227h.538v.818Z" transform="translate(-450.747 -160.492)"/>
    <path id="Trazado_102326" data-name="Trazado 102326" d="M474.661,198.837a1.984,1.984,0,0,1-1.272-.4,1.4,1.4,0,0,1-.5-1.189,1.727,1.727,0,0,1,.159-.757,1.294,1.294,0,0,1,.47-.523,2.849,2.849,0,0,1,.682-.333,7.691,7.691,0,0,1,.886-.212l.939-.151c.348-.061.515-.242.515-.538a1.007,1.007,0,0,0-.364-.863,1.439,1.439,0,0,0-.916-.28,1.56,1.56,0,0,0-.916.265,1.143,1.143,0,0,0-.432.818l-.939-.2a1.764,1.764,0,0,1,.757-1.242,2.68,2.68,0,0,1,1.583-.417,3.189,3.189,0,0,1,.841.106,2.134,2.134,0,0,1,.7.326,1.431,1.431,0,0,1,.507.621,2.339,2.339,0,0,1,.182.962v2.4a.984.984,0,0,0,.129.606.576.576,0,0,0,.462.159h.091v.757h-.507a.962.962,0,0,1-1.1-.757h-.053a2.219,2.219,0,0,1-1.908.848Zm.235-.825a1.553,1.553,0,0,0,1.25-.568,2.272,2.272,0,0,0,.47-1.515l-1.515.3a2.067,2.067,0,0,0-.9.326.854.854,0,0,0-.008,1.272,1.151,1.151,0,0,0,.7.189Z" transform="translate(-452.199 -161.085)"/>
    <path id="Trazado_102327" data-name="Trazado 102327" d="M484.581,192.789a2.045,2.045,0,0,1,1.469.53,1.969,1.969,0,0,1,.545,1.515v3.915h-1.022v-3.688a1.386,1.386,0,0,0-.356-1.038,1.249,1.249,0,0,0-.909-.341,1.409,1.409,0,0,0-1.038.4,1.6,1.6,0,0,0-.409,1.189v3.476H481.84v-5.816h1.022v.757A1.939,1.939,0,0,1,484.581,192.789Z" transform="translate(-454.372 -161.081)"/>
    <path id="Trazado_102328" data-name="Trazado 102328" d="M492.3,198.13a1.515,1.515,0,0,1-1.136-.417,1.59,1.59,0,0,1-.409-1.159v-3.438h-1.2V192.3H490a.84.84,0,0,0,.644-.2,1.015,1.015,0,0,0,.189-.682V190.36h.947V192.3h1.34v.818h-1.34v3.317a.863.863,0,0,0,.227.636.757.757,0,0,0,.583.227h.53v.818Z" transform="translate(-456.246 -160.492)"/>
    <path id="Trazado_102329" data-name="Trazado 102329" d="M501.073,195.712v.28h-4.544a2.037,2.037,0,0,0,.56,1.515,1.817,1.817,0,0,0,1.325.523,1.764,1.764,0,0,0,.962-.28,1.849,1.849,0,0,0,.667-.757l.916.2a2.583,2.583,0,0,1-.992,1.25,2.719,2.719,0,0,1-1.515.454,2.809,2.809,0,0,1-2.09-.81,3.446,3.446,0,0,1,0-4.423,2.787,2.787,0,0,1,2.06-.81,2.628,2.628,0,0,1,1.961.757A2.969,2.969,0,0,1,501.073,195.712Zm-2.7-2.12a1.779,1.779,0,0,0-1.2.417,1.886,1.886,0,0,0-.614,1.2h3.484a1.735,1.735,0,0,0-.507-1.2A1.636,1.636,0,0,0,498.377,193.591Z" transform="translate(-457.702 -161.095)"/>
    <path id="Trazado_102330" data-name="Trazado 102330" d="M445.58,217.15v-8.33h1.075v8.33Z" transform="translate(-445.572 -164.972)"/>
    <path id="Trazado_102331" data-name="Trazado 102331" d="M452.827,212a2.037,2.037,0,0,1,1.462.53,1.969,1.969,0,0,1,.545,1.515v3.915H453.8v-3.688a1.386,1.386,0,0,0-.356-1.038,1.25,1.25,0,0,0-.909-.341,1.424,1.424,0,0,0-1.038.4,1.659,1.659,0,0,0-.409,1.189v3.476H450.07v-5.816h1.022v.757a1.939,1.939,0,0,1,1.734-.9Z" transform="translate(-446.662 -165.743)"/>
    <path id="Trazado_102332" data-name="Trazado 102332" d="M464.922,212a1.863,1.863,0,0,1,1.356.5,1.825,1.825,0,0,1,.515,1.386v4.044H465.77v-3.787a1.325,1.325,0,0,0-.318-.962,1.106,1.106,0,0,0-.81-.326,1.144,1.144,0,0,0-.886.371,1.56,1.56,0,0,0-.341,1.1v3.6h-1.038V214.18a1.379,1.379,0,0,0-.326-.985,1.083,1.083,0,0,0-.826-.341,1.143,1.143,0,0,0-.886.379,1.636,1.636,0,0,0-.341,1.128v3.559h-1v-5.816h1.022v.757a1.848,1.848,0,0,1,.666-.636,1.878,1.878,0,0,1,.924-.227,1.962,1.962,0,0,1,1,.25,1.514,1.514,0,0,1,.644.7,1.78,1.78,0,0,1,.7-.7,1.97,1.97,0,0,1,.969-.25Z" transform="translate(-448.829 -165.743)"/>
    <path id="Trazado_102333" data-name="Trazado 102333" d="M475.489,212.135h.992v5.816H475.5v-.757a1.809,1.809,0,0,1-.719.651,2.219,2.219,0,0,1-1.015.227,2.037,2.037,0,0,1-1.469-.523,1.984,1.984,0,0,1-.545-1.515V212.12h1.022v3.7a1.386,1.386,0,0,0,.356,1.038,1.257,1.257,0,0,0,.916.348,1.393,1.393,0,0,0,1.03-.4,1.635,1.635,0,0,0,.409-1.189Z" transform="translate(-451.922 -165.773)"/>
    <path id="Trazado_102334" data-name="Trazado 102334" d="M482.364,217.335a1.515,1.515,0,0,1-1.136-.417,1.59,1.59,0,0,1-.409-1.159v-3.423H479.63v-.818h.439a.818.818,0,0,0,.636-.2.976.976,0,0,0,.189-.682V209.58h.954v1.939h1.333v.818h-1.333v3.317a.856.856,0,0,0,.22.636.757.757,0,0,0,.583.227h.53v.818Z" transform="translate(-453.836 -165.156)"/>
    <path id="Trazado_102335" data-name="Trazado 102335" d="M487.429,218.067a1.992,1.992,0,0,1-1.28-.4,1.424,1.424,0,0,1-.5-1.189,1.667,1.667,0,0,1,.159-.757,1.287,1.287,0,0,1,.477-.53,2.591,2.591,0,0,1,.682-.333,7.317,7.317,0,0,1,.886-.212l.939-.151c.341-.061.515-.242.515-.538a1.007,1.007,0,0,0-.364-.863,1.461,1.461,0,0,0-.924-.28,1.515,1.515,0,0,0-.909.265,1.144,1.144,0,0,0-.432.818l-.924-.2a1.818,1.818,0,0,1,.757-1.242,2.727,2.727,0,0,1,1.59-.417,3.271,3.271,0,0,1,.841.106,2.136,2.136,0,0,1,.7.326,1.469,1.469,0,0,1,.5.621,2.342,2.342,0,0,1,.182.962v2.4a.977.977,0,0,0,.136.606.568.568,0,0,0,.454.159h.1v.757h-.56c-.629,0-1-.257-1.106-.757h-.045a2.2,2.2,0,0,1-1.878.848Zm.235-.826a1.553,1.553,0,0,0,1.25-.568,2.333,2.333,0,0,0,.469-1.515l-1.515.3a2.03,2.03,0,0,0-.9.326.847.847,0,0,0-.015,1.272,1.174,1.174,0,0,0,.682.167Z" transform="translate(-455.296 -165.752)"/>
    <path id="Trazado_102336" data-name="Trazado 102336" d="M497.655,210.988a2.514,2.514,0,0,1,1.916.841,3.029,3.029,0,0,1,.757,2.189,3.089,3.089,0,0,1-.757,2.189,2.522,2.522,0,0,1-1.924.841,2.317,2.317,0,0,1-1.242-.341,2.166,2.166,0,0,1-.833-.916v1.128h-.992V207.83H495.6v4.385a2.136,2.136,0,0,1,.825-.894A2.378,2.378,0,0,1,497.655,210.988Zm-.227,5.165a1.8,1.8,0,0,0,1.363-.591,2.188,2.188,0,0,0,.545-1.515,2.218,2.218,0,0,0-.545-1.553,1.8,1.8,0,0,0-1.363-.591,1.742,1.742,0,0,0-1.348.613,2.181,2.181,0,0,0-.553,1.515,2.227,2.227,0,0,0,.545,1.515,1.764,1.764,0,0,0,1.356.6Z" transform="translate(-457.464 -164.732)"/>
    <path id="Trazado_102337" data-name="Trazado 102337" d="M504.34,216.908V207.82h1.037v9.088Z" transform="translate(-459.833 -164.729)"/>
    <path id="Trazado_102338" data-name="Trazado 102338" d="M513.4,214.907v.28h-4.544a2.037,2.037,0,0,0,.553,1.515,1.818,1.818,0,0,0,1.325.523,1.757,1.757,0,0,0,1.628-1.053l.924.2a2.629,2.629,0,0,1-.992,1.25,2.718,2.718,0,0,1-1.515.454,2.84,2.84,0,0,1-2.1-.81,3.461,3.461,0,0,1,0-4.423,2.772,2.772,0,0,1,2.06-.81,2.62,2.62,0,0,1,1.954.757,2.938,2.938,0,0,1,.7,2.121Zm-2.689-2.121a1.787,1.787,0,0,0-1.212.417,1.885,1.885,0,0,0-.613,1.2h3.484a1.7,1.7,0,0,0-.507-1.2,1.605,1.605,0,0,0-1.151-.439Z" transform="translate(-460.693 -165.75)"/>
    <path id="Trazado_102339" data-name="Trazado 102339" d="M445.58,236.33V228h1.075v8.33Z" transform="translate(-445.572 -169.627)"/>
    <path id="Trazado_102340" data-name="Trazado 102340" d="M452.827,231.189a2.037,2.037,0,0,1,1.462.53,1.969,1.969,0,0,1,.545,1.515v3.87H453.8v-3.688a1.386,1.386,0,0,0-.356-1.038,1.25,1.25,0,0,0-.909-.341,1.424,1.424,0,0,0-1.037.4,1.659,1.659,0,0,0-.409,1.189V237.1H450.07v-5.816h1.022v.757A1.939,1.939,0,0,1,452.827,231.189Z" transform="translate(-446.662 -170.4)"/>
    <path id="Trazado_102341" data-name="Trazado 102341" d="M460.171,237.24a1.984,1.984,0,0,1-1.272-.4,1.424,1.424,0,0,1-.5-1.189,1.727,1.727,0,0,1,.159-.757,1.318,1.318,0,0,1,.477-.523,2.59,2.59,0,0,1,.682-.333,6.977,6.977,0,0,1,.886-.212l.939-.151c.341-.061.515-.242.515-.538a1.007,1.007,0,0,0-.363-.863,1.462,1.462,0,0,0-.924-.28,1.514,1.514,0,0,0-.909.265,1.144,1.144,0,0,0-.432.818l-.924-.2a1.817,1.817,0,0,1,.757-1.242,2.726,2.726,0,0,1,1.59-.417,3.273,3.273,0,0,1,.841.106,2.211,2.211,0,0,1,.7.326,1.469,1.469,0,0,1,.5.621,2.34,2.34,0,0,1,.182.962V235.6a.977.977,0,0,0,.136.606.56.56,0,0,0,.454.159h.1v.757h-.507c-.629,0-1-.257-1.106-.757h-.045A2.227,2.227,0,0,1,460.171,237.24Zm.242-.825a1.552,1.552,0,0,0,1.25-.568,2.333,2.333,0,0,0,.469-1.515l-1.515.3a2.03,2.03,0,0,0-.9.326.847.847,0,0,0-.015,1.272A1.174,1.174,0,0,0,460.413,236.414Z" transform="translate(-448.683 -170.407)"/>
    <path id="Trazado_102342" data-name="Trazado 102342" d="M470.432,231.19a2.748,2.748,0,0,1,1.053.212,2.674,2.674,0,0,1,.863.6,2.818,2.818,0,0,1,.583.962,3.558,3.558,0,0,1,.212,1.257,3.029,3.029,0,0,1-.757,2.189,2.537,2.537,0,0,1-1.931.841,2.317,2.317,0,0,1-1.219-.333,2.181,2.181,0,0,1-.825-.894v4.029h-1.03V231.3h.992v1.128a2.106,2.106,0,0,1,.826-.9A2.31,2.31,0,0,1,470.432,231.19Zm-.2,5.165a1.749,1.749,0,0,0,1.348-.583,2.484,2.484,0,0,0,0-3.1,1.749,1.749,0,0,0-1.348-.583,1.787,1.787,0,0,0-1.363.606,2.37,2.37,0,0,0,0,3.029,1.787,1.787,0,0,0,1.363.629Z" transform="translate(-450.863 -170.401)"/>
    <path id="Trazado_102343" data-name="Trazado 102343" d="M482.082,234.077v.28h-4.544a2.068,2.068,0,0,0,.553,1.515,1.825,1.825,0,0,0,1.325.523,1.757,1.757,0,0,0,1.628-1.053l.924.2a2.582,2.582,0,0,1-.992,1.25,2.719,2.719,0,0,1-1.515.454,2.84,2.84,0,0,1-2.1-.81,3.461,3.461,0,0,1,0-4.423,2.772,2.772,0,0,1,2.06-.81,2.6,2.6,0,0,1,1.954.757A2.938,2.938,0,0,1,482.082,234.077Zm-2.7-2.12a1.8,1.8,0,0,0-1.212.416,1.84,1.84,0,0,0-.606,1.2h3.484a1.742,1.742,0,0,0-.515-1.2,1.606,1.606,0,0,0-1.151-.394Z" transform="translate(-453.092 -170.402)"/>
    <path id="Trazado_102344" data-name="Trazado 102344" d="M487.541,236.515a1.515,1.515,0,0,1-1.136-.417,1.568,1.568,0,0,1-.417-1.159v-3.423H484.8V230.7h.439a.855.855,0,0,0,.644-.2,1.022,1.022,0,0,0,.182-.682V228.76h.954V230.7h1.333v.818h-1.333v3.317a.886.886,0,0,0,.22.636.757.757,0,0,0,.583.227h.53v.818Z" transform="translate(-455.091 -169.811)"/>
    <path id="Trazado_102345" data-name="Trazado 102345" d="M496.3,234.082v.28h-4.544a2.037,2.037,0,0,0,.553,1.515,1.818,1.818,0,0,0,1.325.523,1.765,1.765,0,0,0,.962-.28,1.8,1.8,0,0,0,.666-.757l.924.2a2.673,2.673,0,0,1-.992,1.25,2.719,2.719,0,0,1-1.515.454,2.825,2.825,0,0,1-2.1-.81,3.461,3.461,0,0,1,0-4.423,2.771,2.771,0,0,1,2.06-.81,2.62,2.62,0,0,1,1.954.757,2.938,2.938,0,0,1,.7,2.105Zm-2.689-2.12a1.787,1.787,0,0,0-1.212.417,1.886,1.886,0,0,0-.613,1.2h3.484a1.7,1.7,0,0,0-.507-1.2,1.606,1.606,0,0,0-1.151-.394Z" transform="translate(-456.543 -170.407)"/>
    <path id="Trazado_102346" data-name="Trazado 102346" d="M502.931,231.189a2.045,2.045,0,0,1,1.469.53,1.969,1.969,0,0,1,.545,1.515v3.87h-1.022v-3.688a1.386,1.386,0,0,0-.356-1.038,1.249,1.249,0,0,0-.909-.341,1.408,1.408,0,0,0-1.038.4,1.658,1.658,0,0,0-.409,1.189V237.1H500.19v-5.816h1.022v.757A1.939,1.939,0,0,1,502.931,231.189Z" transform="translate(-458.826 -170.4)"/>
    <path id="Trazado_102347" data-name="Trazado 102347" d="M510.654,236.515a1.515,1.515,0,0,1-1.136-.417,1.59,1.59,0,0,1-.409-1.159v-3.423H507.92V230.7h.432a.833.833,0,0,0,.644-.2.977.977,0,0,0,.189-.682V228.76h.954V230.7h1.333v.818h-1.333v3.317a.856.856,0,0,0,.22.636.758.758,0,0,0,.583.227h.53v.818Z" transform="translate(-460.702 -169.811)"/>
    <path id="Trazado_102348" data-name="Trazado 102348" d="M519.423,234.082v.28h-4.544a2.037,2.037,0,0,0,.56,1.515,1.818,1.818,0,0,0,1.325.523,1.764,1.764,0,0,0,.962-.28,1.848,1.848,0,0,0,.666-.757l.924.2a2.636,2.636,0,0,1-1,1.25,2.718,2.718,0,0,1-1.515.454,2.81,2.81,0,0,1-2.09-.81,3.446,3.446,0,0,1,0-4.423,2.8,2.8,0,0,1,2.068-.81,2.62,2.62,0,0,1,1.954.757A2.938,2.938,0,0,1,519.423,234.082Zm-2.688-2.12a1.787,1.787,0,0,0-1.212.417,1.885,1.885,0,0,0-.613,1.2h3.484a1.735,1.735,0,0,0-.507-1.2,1.629,1.629,0,0,0-1.151-.394Z" transform="translate(-462.155 -170.407)"/>
  </g>
  <g id="Grupo_57688" data-name="Grupo 57688" transform="translate(337.215 88.287)">
    <path id="Trazado_102349" data-name="Trazado 102349" d="M451.126,117.11h1.765v8.55h-2.052l-3.787-6.111v6.111H445.28v-8.55h2.06l3.787,6.058Z" transform="translate(-445.28 -116.709)"/>
    <path id="Trazado_102350" data-name="Trazado 102350" d="M463.493,123.278v.409H458.95a1.56,1.56,0,0,0,.485,1.113,1.651,1.651,0,0,0,1.871.174,1.325,1.325,0,0,0,.515-.613l1.56.227a2.658,2.658,0,0,1-1.068,1.431,3.2,3.2,0,0,1-1.795.507,3.286,3.286,0,0,1-2.37-.841,3.029,3.029,0,0,1-.879-2.317,3.1,3.1,0,0,1,.879-2.325,3.2,3.2,0,0,1,2.317-.848,2.779,2.779,0,0,1,3.029,3.082Zm-3.029-1.878a1.348,1.348,0,0,0-1.477,1.174h2.795a1.28,1.28,0,0,0-.424-.871,1.341,1.341,0,0,0-.863-.3Z" transform="translate(-448.188 -117.455)"/>
    <path id="Trazado_102351" data-name="Trazado 102351" d="M471.221,120.324h1.621v5.627a4.544,4.544,0,0,1-.227,1.515,2.446,2.446,0,0,1-.659,1.038,2.765,2.765,0,0,1-1.015.583,4.179,4.179,0,0,1-1.325.189,3,3,0,0,1-3.135-1.886l1.416-.606a2.052,2.052,0,0,0,.651.886,1.674,1.674,0,0,0,1,.28c1.053,0,1.583-.621,1.583-1.878v-.727a1.916,1.916,0,0,1-.757.6,2.568,2.568,0,0,1-1.083.227,2.711,2.711,0,0,1-1.068-.212,2.84,2.84,0,0,1-.886-.606,2.884,2.884,0,0,1-.6-.954,3.582,3.582,0,0,1,0-2.469,2.718,2.718,0,0,1,.606-.939,2.528,2.528,0,0,1,.886-.591,2.734,2.734,0,0,1,1.075-.22,2.5,2.5,0,0,1,1.128.257,1.749,1.749,0,0,1,.757.666Zm-2.613,4.021a1.469,1.469,0,0,0,1.113.47,1.514,1.514,0,0,0,1.121-.47,1.7,1.7,0,0,0,0-2.317,1.583,1.583,0,0,0-2.272,0,1.621,1.621,0,0,0-.447,1.166,1.59,1.59,0,0,0,.485,1.151Z" transform="translate(-450.425 -117.454)"/>
    <path id="Trazado_102352" data-name="Trazado 102352" d="M482.062,124.77a5.685,5.685,0,0,0,.144,1.515v.167h-1.59l-.136-.659a1.962,1.962,0,0,1-.848.583,3.2,3.2,0,0,1-1.1.2,2.68,2.68,0,0,1-.568-.053,2.085,2.085,0,0,1-.515-.182,1.516,1.516,0,0,1-.424-.318,1.288,1.288,0,0,1-.28-.477,2.12,2.12,0,0,1,0-1.325,1.666,1.666,0,0,1,.3-.492,1.887,1.887,0,0,1,.485-.364,3.789,3.789,0,0,1,.6-.257,7.1,7.1,0,0,1,.757-.189l1-.227a1.075,1.075,0,0,0,.454-.189.4.4,0,0,0,.129-.3.643.643,0,0,0-.3-.591,1.514,1.514,0,0,0-.757-.174,1.045,1.045,0,0,0-1.189.932l-1.515-.273a2.044,2.044,0,0,1,.879-1.393,3.521,3.521,0,0,1,1.908-.447q2.56,0,2.56,2.2Zm-3.029.621a1.371,1.371,0,0,0,1.053-.447,1.84,1.84,0,0,0,.409-1.3l-1.446.409a1.621,1.621,0,0,0-.606.25.515.515,0,0,0-.212.439.561.561,0,0,0,.227.477.931.931,0,0,0,.606.144Z" transform="translate(-452.891 -117.469)"/>
    <path id="Trazado_102353" data-name="Trazado 102353" d="M487.892,125.823a1.84,1.84,0,0,1-1.371-.492,1.909,1.909,0,0,1-.485-1.409v-2.87h-1.2v-1.31h.386a1.022,1.022,0,0,0,.757-.25,1.348,1.348,0,0,0,.242-.909v-.8h1.515v1.961h1.25v1.31h-1.227v2.688c0,.53.235.757.7.757h.545v1.3Z" transform="translate(-454.881 -116.871)"/>
    <path id="Trazado_102354" data-name="Trazado 102354" d="M492.924,118.541a.977.977,0,0,1-.7-.288.954.954,0,0,1-.288-.7.931.931,0,0,1,.3-.689.977.977,0,1,1,1.378,1.386A.947.947,0,0,1,492.924,118.541Zm-.863,6.99v-6.058h1.711v6.058Z" transform="translate(-456.604 -116.58)"/>
    <path id="Trazado_102355" data-name="Trazado 102355" d="M500.362,120.37h1.8l-2.59,6.058H498.06l-2.56-6.058h1.795l1.515,4.158Z" transform="translate(-457.468 -117.5)"/>
    <path id="Trazado_102356" data-name="Trazado 102356" d="M507.832,126.546a3.9,3.9,0,0,1-1.719-.371,2.8,2.8,0,0,1-1.181-1.1,3.227,3.227,0,0,1-.432-1.7,3.03,3.03,0,0,1,.924-2.272,3.855,3.855,0,0,1,4.824,0,3.362,3.362,0,0,1,0,4.627A3.453,3.453,0,0,1,507.832,126.546Zm0-1.356a1.567,1.567,0,0,0,1.2-.5,1.848,1.848,0,0,0,.454-1.31,1.886,1.886,0,0,0-.454-1.318,1.59,1.59,0,0,0-1.2-.492,1.515,1.515,0,0,0-1.174.5,2.143,2.143,0,0,0,0,2.62,1.515,1.515,0,0,0,1.159.5Z" transform="translate(-459.652 -117.473)"/>
  </g>
</svg>
