<svg id="info_1_4-01" xmlns="http://www.w3.org/2000/svg" width="426.789" height="227.525" viewBox="0 0 426.789 227.525">
  <rect id="Rectángulo_5369" data-name="Rectángulo 5369" width="213.395" height="173" fill="red"/>
  <rect id="Rectángulo_5370" data-name="Rectángulo 5370" width="213.395" height="227.526" transform="translate(213.395)" fill="#f2f2f2"/>
  <rect id="Rectángulo_5371" data-name="Rectángulo 5371" width="53.345" height="54.526" transform="translate(0 173)" fill="red"/>
  <g id="Grupo_57664" data-name="Grupo 57664" transform="translate(53.345 173)" opacity="0.75">
    <rect id="Rectángulo_5372" data-name="Rectángulo 5372" width="53.345" height="54.526" fill="red"/>
  </g>
  <g id="Grupo_57665" data-name="Grupo 57665" transform="translate(106.697 173)" opacity="0.5">
    <rect id="Rectángulo_5373" data-name="Rectángulo 5373" width="53.345" height="54.526" fill="red"/>
  </g>
  <g id="Grupo_57666" data-name="Grupo 57666" transform="translate(160.042 173)" opacity="0.25">
    <rect id="Rectángulo_5374" data-name="Rectángulo 5374" width="53.345" height="54.526" fill="red"/>
  </g>
  <g id="Grupo_57667" data-name="Grupo 57667" transform="translate(240.567 41.146)">
    <path id="Trazado_102055" data-name="Trazado 102055" d="M328.406,75.893l-5.3-8.936h-1.227v8.936H317.66V55.59h7.369a8.558,8.558,0,0,1,2.946.47,5.074,5.074,0,0,1,2.045,1.31,5.489,5.489,0,0,1,1.151,1.916,7.016,7.016,0,0,1,.386,2.378A4.93,4.93,0,0,1,330.451,65a5.551,5.551,0,0,1-3.188,1.749l6.111,9.148Zm-6.505-16.8v4.847h2.484q3.166,0,3.166-2.416a2.211,2.211,0,0,0-.757-1.787,3.718,3.718,0,0,0-2.393-.644Z" transform="translate(-317.66 -54.637)"/>
    <path id="Trazado_102056" data-name="Trazado 102056" d="M347.031,77.962a9.087,9.087,0,0,1-4.089-.886,6.581,6.581,0,0,1-2.8-2.6,7.718,7.718,0,0,1-1.022-4.029,7.073,7.073,0,0,1,2.2-5.483,9.171,9.171,0,0,1,11.451,0,7.073,7.073,0,0,1,2.2,5.483,7.1,7.1,0,0,1-2.2,5.5A8.111,8.111,0,0,1,347.031,77.962Zm-.038-3.219a3.726,3.726,0,0,0,2.855-1.151,5.006,5.006,0,0,0,0-6.24,3.711,3.711,0,0,0-2.855-1.181,3.567,3.567,0,0,0-2.779,1.189,5.044,5.044,0,0,0,0,6.225A3.59,3.59,0,0,0,346.993,74.744Z" transform="translate(-322.865 -56.426)"/>
    <path id="Trazado_102057" data-name="Trazado 102057" d="M360.11,82.366V79.2a4.6,4.6,0,0,0,1.515-.2,1.7,1.7,0,0,0,.9-.757,3.257,3.257,0,0,0,.432-1.25,14.236,14.236,0,0,0,.106-1.931V61.146h4.1V75.1q0,3.787-1.643,5.521C364.427,81.783,362.617,82.366,360.11,82.366Zm5.029-23.386a2.34,2.34,0,0,1-2.348-2.333,2.219,2.219,0,0,1,.7-1.636,2.324,2.324,0,1,1,3.287,3.287A2.272,2.272,0,0,1,365.138,58.98Z" transform="translate(-327.962 -54.332)"/>
    <path id="Trazado_102058" data-name="Trazado 102058" d="M381.321,77.962a9.087,9.087,0,0,1-4.089-.886,6.581,6.581,0,0,1-2.8-2.6,7.716,7.716,0,0,1-1.022-4.029,7.073,7.073,0,0,1,2.2-5.483,9.171,9.171,0,0,1,11.451,0,7.073,7.073,0,0,1,2.2,5.483,7.1,7.1,0,0,1-2.2,5.5A8.111,8.111,0,0,1,381.321,77.962Zm-.045-3.219a3.734,3.734,0,0,0,2.863-1.151,5.006,5.006,0,0,0,0-6.24,3.711,3.711,0,0,0-2.863-1.181A3.567,3.567,0,0,0,378.5,67.36a5.044,5.044,0,0,0,0,6.225A3.582,3.582,0,0,0,381.276,74.744Z" transform="translate(-331.187 -56.426)"/>
  </g>
  <g id="Grupo_57668" data-name="Grupo 57668" transform="translate(241.688 114.111)">
    <path id="Trazado_102059" data-name="Trazado 102059" d="M324.861,152.2h-3.378v2.726h2.976v.947h-2.976v2.764h3.378v.962H320.4v-8.33h4.461Z" transform="translate(-319.446 -150.823)"/>
    <path id="Trazado_102060" data-name="Trazado 102060" d="M331.369,154.389a2.037,2.037,0,0,1,1.462.53,1.969,1.969,0,0,1,.545,1.515v3.915h-1.022v-3.688a1.356,1.356,0,0,0-.356-1.038,1.25,1.25,0,0,0-.909-.341,1.424,1.424,0,0,0-1.038.4,1.659,1.659,0,0,0-.409,1.189v3.476H328.62v-5.816h1.045v.757A1.939,1.939,0,0,1,331.369,154.389Z" transform="translate(-321.441 -151.58)"/>
    <path id="Trazado_102061" data-name="Trazado 102061" d="M342.464,157.3v.28H337.92a2.037,2.037,0,0,0,.553,1.515,1.817,1.817,0,0,0,1.325.523,1.764,1.764,0,0,0,.962-.28,1.8,1.8,0,0,0,.666-.757l.924.2a2.635,2.635,0,0,1-1,1.25,2.681,2.681,0,0,1-1.515.454,2.825,2.825,0,0,1-2.09-.856,3.476,3.476,0,0,1,0-4.423,2.8,2.8,0,0,1,2.067-.81,2.62,2.62,0,0,1,1.954.757A2.938,2.938,0,0,1,342.464,157.3Zm-2.688-2.12a1.787,1.787,0,0,0-1.212.417,1.886,1.886,0,0,0-.613,1.2h3.484a1.7,1.7,0,0,0-.507-1.2A1.62,1.62,0,0,0,339.775,155.177Z" transform="translate(-323.463 -151.58)"/>
    <path id="Trazado_102062" data-name="Trazado 102062" d="M347.35,155.55a1.772,1.772,0,0,1,.719-.757,2.181,2.181,0,0,1,1.121-.3v.962a1.931,1.931,0,0,0-1.356.432,1.8,1.8,0,0,0-.462,1.378v3.1H346.35v-5.816h1Z" transform="translate(-325.744 -151.605)"/>
    <path id="Trazado_102063" data-name="Trazado 102063" d="M355.633,154.506h1v5.521a3.158,3.158,0,0,1-.757,2.272,3.12,3.12,0,0,1-4.9-.984l.841-.416a1.931,1.931,0,0,0,1.946,1.348,1.689,1.689,0,0,0,1.371-.568,2.446,2.446,0,0,0,.469-1.59v-1.075a2.067,2.067,0,0,1-.833.841,2.552,2.552,0,0,1-3.09-.507,3.12,3.12,0,0,1,0-4.127,2.522,2.522,0,0,1,1.893-.818,2.431,2.431,0,0,1,1.219.326,2.128,2.128,0,0,1,.818.863Zm-1.84,4.779a1.779,1.779,0,0,0,1.34-.591,2.113,2.113,0,0,0,0-2.847,1.825,1.825,0,0,0-2.681,0,2.022,2.022,0,0,0-.553,1.446,2.045,2.045,0,0,0,.553,1.439A1.787,1.787,0,0,0,353.793,159.285Z" transform="translate(-326.848 -151.583)"/>
    <path id="Trazado_102064" data-name="Trazado 102064" d="M361.22,159.419V153.6h1.03v5.816Zm.129-6.816,1.515-1.924.545.394-1.325,1.515Z" transform="translate(-329.352 -150.68)"/>
    <path id="Trazado_102065" data-name="Trazado 102065" d="M366.528,160.437a1.969,1.969,0,0,1-1.272-.4,1.409,1.409,0,0,1-.507-1.189,1.664,1.664,0,0,1,.167-.757,1.264,1.264,0,0,1,.469-.53,2.849,2.849,0,0,1,.682-.333,7.68,7.68,0,0,1,.886-.212l.939-.151c.348-.061.515-.242.515-.538a1.007,1.007,0,0,0-.364-.863,1.439,1.439,0,0,0-.916-.28,1.56,1.56,0,0,0-.916.265,1.144,1.144,0,0,0-.432.818l-.916-.2a1.765,1.765,0,0,1,.757-1.242,2.68,2.68,0,0,1,1.583-.417,3.187,3.187,0,0,1,.841.106,2.135,2.135,0,0,1,.7.326,1.432,1.432,0,0,1,.507.621,2.339,2.339,0,0,1,.182.962v2.4a.985.985,0,0,0,.129.606.576.576,0,0,0,.462.159h.091v.757h-.507a.962.962,0,0,1-1.1-.757h-.053a2.2,2.2,0,0,1-1.931.848Zm.235-.825a1.552,1.552,0,0,0,1.25-.568,2.272,2.272,0,0,0,.47-1.515l-1.515.3a2.068,2.068,0,0,0-.9.326.854.854,0,0,0-.008,1.272,1.137,1.137,0,0,0,.7.189Z" transform="translate(-330.208 -151.584)"/>
    <path id="Trazado_102066" data-name="Trazado 102066" d="M324.861,171.389h-3.378v2.726h2.976v.954h-2.976v2.719h3.378v.962H320.4v-8.33h4.461Z" transform="translate(-319.446 -155.471)"/>
    <path id="Trazado_102067" data-name="Trazado 102067" d="M327.54,179.556l2.234-2.908-2.234-2.908H328.8l1.613,2.226,1.606-2.226h1.242l-2.272,2.908,2.272,2.908h-1.25l-1.6-2.211-1.613,2.211Z" transform="translate(-321.179 -156.276)"/>
    <path id="Trazado_102068" data-name="Trazado 102068" d="M338.709,179.625a2.779,2.779,0,0,1-2.083-.833,3.3,3.3,0,0,1,0-4.362,2.787,2.787,0,0,1,2.09-.841,2.817,2.817,0,0,1,1.681.515,2.522,2.522,0,0,1,.977,1.409l-.954.159a1.742,1.742,0,0,0-1.712-1.227,1.719,1.719,0,0,0-1.348.6,2.583,2.583,0,0,0,0,3.135,1.817,1.817,0,0,0,3.06-.636l.954.159a2.514,2.514,0,0,1-.984,1.416,2.81,2.81,0,0,1-1.681.507Z" transform="translate(-323.184 -156.24)"/>
    <path id="Trazado_102069" data-name="Trazado 102069" d="M345.609,171.5a.659.659,0,0,1-.485-.2.674.674,0,0,1-.2-.492.659.659,0,0,1,.2-.485.7.7,0,0,1,.969,0,.659.659,0,0,1,.2.485.674.674,0,0,1-.2.492A.659.659,0,0,1,345.609,171.5Zm-.515,7.179v-5.816h1.022v5.816Z" transform="translate(-325.397 -155.398)"/>
    <path id="Trazado_102070" data-name="Trazado 102070" d="M350.831,178.935a1.515,1.515,0,0,1-1.136-.417,1.568,1.568,0,0,1-.417-1.159v-3.423H348.09v-.818h.439a.856.856,0,0,0,.644-.2,1.023,1.023,0,0,0,.182-.682V171.18h.939v1.939h1.34v.818h-1.34v3.317a.886.886,0,0,0,.22.636.757.757,0,0,0,.583.227h.538v.818Z" transform="translate(-326.166 -155.655)"/>
    <path id="Trazado_102071" data-name="Trazado 102071" d="M355.851,179.642a1.924,1.924,0,0,1-1.272-.4,1.4,1.4,0,0,1-.5-1.189,1.667,1.667,0,0,1,.159-.757,1.264,1.264,0,0,1,.47-.53,2.848,2.848,0,0,1,.682-.333,6.459,6.459,0,0,1,.886-.2l.939-.159c.348-.061.515-.242.515-.538a1.007,1.007,0,0,0-.364-.863,1.438,1.438,0,0,0-.916-.28,1.56,1.56,0,0,0-.916.28,1.143,1.143,0,0,0-.432.818l-.916-.189a1.765,1.765,0,0,1,.757-1.25,2.681,2.681,0,0,1,1.583-.417,3.19,3.19,0,0,1,.841.106,2.135,2.135,0,0,1,.7.326,1.431,1.431,0,0,1,.507.621,2.34,2.34,0,0,1,.182.962v2.4a.984.984,0,0,0,.129.606.575.575,0,0,0,.462.159h.091v.757h-.507a.962.962,0,0,1-1.1-.757h-.053a2.2,2.2,0,0,1-1.931.833Zm.235-.825a1.553,1.553,0,0,0,1.25-.568,2.272,2.272,0,0,0,.469-1.515l-1.515.3a2.068,2.068,0,0,0-.9.326.855.855,0,0,0-.008,1.272,1.136,1.136,0,0,0,.7.189Z" transform="translate(-327.618 -156.249)"/>
    <path id="Trazado_102072" data-name="Trazado 102072" d="M365.128,179.625a2.779,2.779,0,0,1-2.083-.833,3.294,3.294,0,0,1,0-4.362,2.772,2.772,0,0,1,2.083-.841,2.817,2.817,0,0,1,1.681.515,2.574,2.574,0,0,1,.984,1.409l-.962.159a1.742,1.742,0,0,0-1.711-1.227,1.719,1.719,0,0,0-1.348.6,2.612,2.612,0,0,0,0,3.135,1.817,1.817,0,0,0,3.06-.636l.962.159a2.568,2.568,0,0,1-.992,1.416,2.81,2.81,0,0,1-1.674.507Z" transform="translate(-329.595 -156.24)"/>
    <path id="Trazado_102073" data-name="Trazado 102073" d="M372.029,171.5a.659.659,0,0,1-.485-.2.674.674,0,0,1-.2-.492.659.659,0,0,1,.2-.485.7.7,0,0,1,.969,0,.659.659,0,0,1,.2.485.674.674,0,0,1-.2.492A.659.659,0,0,1,372.029,171.5Zm-.515,7.179v-5.816h1.03v5.816Z" transform="translate(-331.808 -155.398)"/>
    <path id="Trazado_102074" data-name="Trazado 102074" d="M377.963,178.74a3.03,3.03,0,0,1-1.515-.364,2.59,2.59,0,0,1-1.045-1.053,3.172,3.172,0,0,1-.394-1.605,3.029,3.029,0,0,1,.825-2.2,3.1,3.1,0,0,1,4.211,0,3.332,3.332,0,0,1,0,4.392,2.84,2.84,0,0,1-2.083.826Zm0-.848a1.8,1.8,0,0,0,1.378-.6,2.272,2.272,0,0,0,.545-1.575,2.219,2.219,0,0,0-.545-1.568,1.78,1.78,0,0,0-1.378-.6,1.757,1.757,0,0,0-1.363.6,2.565,2.565,0,0,0,0,3.143,1.787,1.787,0,0,0,1.355.6Zm-.379-6.058,1.515-1.924.545.394-1.325,1.515Z" transform="translate(-332.698 -155.347)"/>
    <path id="Trazado_102075" data-name="Trazado 102075" d="M387.641,173.589a2.022,2.022,0,0,1,1.462.53,1.939,1.939,0,0,1,.553,1.515v3.915h-1.022v-3.681a1.393,1.393,0,0,0-.356-1.045,1.28,1.28,0,0,0-.916-.341,1.4,1.4,0,0,0-1.03.4,1.6,1.6,0,0,0-.409,1.189v3.476H384.9v-5.816h1.022v.757a1.931,1.931,0,0,1,1.719-.9Z" transform="translate(-335.099 -156.239)"/>
    <path id="Trazado_102076" data-name="Trazado 102076" d="M323.55,189.62a2.415,2.415,0,0,1,1.3.348,2.34,2.34,0,0,1,.879.924,2.71,2.71,0,0,1,.3,1.287,2.507,2.507,0,0,1-.689,1.81,2.37,2.37,0,0,1-1.795.757h-2.1v3.234H320.4v-8.33Zm-.151,4.173a1.515,1.515,0,0,0,1.159-.447,1.873,1.873,0,0,0,0-2.355,1.515,1.515,0,0,0-1.159-.454h-1.946v3.256Z" transform="translate(-319.446 -160.13)"/>
    <path id="Trazado_102077" data-name="Trazado 102077" d="M330.429,198.837a2.007,2.007,0,0,1-1.28-.4,1.424,1.424,0,0,1-.5-1.189,1.576,1.576,0,0,1,.167-.757,1.265,1.265,0,0,1,.469-.53,2.848,2.848,0,0,1,.682-.333,7.681,7.681,0,0,1,.886-.212l.939-.151c.348-.061.515-.242.515-.538a1.007,1.007,0,0,0-.364-.863,1.439,1.439,0,0,0-.916-.28,1.561,1.561,0,0,0-.916.265,1.143,1.143,0,0,0-.432.818l-.916-.2a1.765,1.765,0,0,1,.757-1.242,2.681,2.681,0,0,1,1.583-.416,3.189,3.189,0,0,1,.841.144,2.138,2.138,0,0,1,.7.326,1.432,1.432,0,0,1,.507.621,2.338,2.338,0,0,1,.182.962v2.4a.985.985,0,0,0,.129.606.575.575,0,0,0,.462.159h.091v.757h-.507a.962.962,0,0,1-1.1-.757h-.053A2.2,2.2,0,0,1,330.429,198.837Zm.235-.825a1.553,1.553,0,0,0,1.25-.568,2.272,2.272,0,0,0,.47-1.515l-1.515.3a2.066,2.066,0,0,0-.9.326.84.84,0,0,0-.008,1.272,1.136,1.136,0,0,0,.727.189Z" transform="translate(-321.447 -160.903)"/>
    <path id="Trazado_102078" data-name="Trazado 102078" d="M339.325,198.838a2.749,2.749,0,0,1-1.568-.417,1.726,1.726,0,0,1-.757-1.2l.894-.257a1.227,1.227,0,0,0,.477.81,1.515,1.515,0,0,0,.954.288,2.137,2.137,0,0,0,.56-.076.909.909,0,0,0,.424-.288.757.757,0,0,0,.174-.53,1.145,1.145,0,0,0-.045-.242.881.881,0,0,0-.1-.189.423.423,0,0,0-.167-.159,1.7,1.7,0,0,0-.2-.129l-.265-.106-.28-.1-.326-.091-.333-.1a5.949,5.949,0,0,1-.606-.212,2.53,2.53,0,0,1-.492-.28,1.129,1.129,0,0,1-.379-.462,1.446,1.446,0,0,1-.129-.651,1.515,1.515,0,0,1,.28-.932,1.629,1.629,0,0,1,.757-.545,2.877,2.877,0,0,1,1.03-.167,2.544,2.544,0,0,1,1.416.379,1.59,1.59,0,0,1,.7,1.136l-.841.212a1.106,1.106,0,0,0-.439-.757,1.409,1.409,0,0,0-.833-.25,1.423,1.423,0,0,0-.757.2.689.689,0,0,0-.326.629.575.575,0,0,0,.083.318.81.81,0,0,0,.174.227.985.985,0,0,0,.318.174,2.715,2.715,0,0,0,.341.129l.432.106h.083l.56.159a4.651,4.651,0,0,1,.507.212,1.651,1.651,0,0,1,.447.318,1.517,1.517,0,0,1,.288.447,1.689,1.689,0,0,1,.121.629,1.748,1.748,0,0,1-.174.757,1.409,1.409,0,0,1-.477.53,2.12,2.12,0,0,1-.682.3A3.091,3.091,0,0,1,339.325,198.838Z" transform="translate(-323.474 -160.904)"/>
    <path id="Trazado_102079" data-name="Trazado 102079" d="M345.487,190.7a.7.7,0,0,1-.7-.7.659.659,0,0,1,.2-.485.7.7,0,0,1,.492-.2.682.682,0,0,1,.682.682.674.674,0,0,1-.2.492A.644.644,0,0,1,345.487,190.7Zm-.523,7.179v-5.816h1.03v5.816Z" transform="translate(-325.365 -160.058)"/>
    <path id="Trazado_102080" data-name="Trazado 102080" d="M351.42,197.94a3.029,3.029,0,0,1-1.515-.363,2.56,2.56,0,0,1-1.03-1.053,3.25,3.25,0,0,1-.386-1.605,2.969,2.969,0,0,1,.826-2.2,2.855,2.855,0,0,1,2.1-.825,2.885,2.885,0,0,1,2.113.825,3.029,3.029,0,0,1,.818,2.2,2.961,2.961,0,0,1-.825,2.2A2.832,2.832,0,0,1,351.42,197.94Zm0-.848a1.8,1.8,0,0,0,1.371-.6,2.272,2.272,0,0,0,.553-1.575,2.227,2.227,0,0,0-.553-1.568,1.772,1.772,0,0,0-1.371-.6,1.734,1.734,0,0,0-1.363.6,2.219,2.219,0,0,0-.545,1.568,2.272,2.272,0,0,0,.545,1.575,1.764,1.764,0,0,0,1.363.6Zm-.386-6.058,1.515-1.924.545.394-1.325,1.515Z" transform="translate(-326.262 -160.007)"/>
    <path id="Trazado_102081" data-name="Trazado 102081" d="M361.121,192.789a2.052,2.052,0,0,1,1.469.53,1.969,1.969,0,0,1,.545,1.515v3.915h-1.022v-3.688a1.385,1.385,0,0,0-.356-1.038,1.249,1.249,0,0,0-.909-.341,1.409,1.409,0,0,0-1.037.4,1.628,1.628,0,0,0-.409,1.189v3.476H358.38v-5.816H359.4v.757A1.939,1.939,0,0,1,361.121,192.789Z" transform="translate(-328.663 -160.899)"/>
    <path id="Trazado_102082" data-name="Trazado 102082" d="M323.78,217.257a4.491,4.491,0,0,1-1.643-.3,4.257,4.257,0,0,1-1.318-.841,3.787,3.787,0,0,1-.871-1.356,5.179,5.179,0,0,1,0-3.575,3.854,3.854,0,0,1,.878-1.356,4.006,4.006,0,0,1,1.31-.841,4.491,4.491,0,0,1,1.643-.3,4.2,4.2,0,0,1,2.211.591,3.65,3.65,0,0,1,1.492,1.605l-.977.4a2.81,2.81,0,0,0-1.091-1.189,3.119,3.119,0,0,0-1.613-.417,3.385,3.385,0,0,0-1.219.22,2.885,2.885,0,0,0-.977.629,2.8,2.8,0,0,0-.659,1.03,3.787,3.787,0,0,0-.242,1.378,3.869,3.869,0,0,0,.242,1.393,2.8,2.8,0,0,0,.659,1.03,2.886,2.886,0,0,0,.977.629,3.233,3.233,0,0,0,1.219.22,3.119,3.119,0,0,0,1.613-.417,2.772,2.772,0,0,0,1.091-1.174l.977.394a3.635,3.635,0,0,1-1.515,1.628A4.278,4.278,0,0,1,323.78,217.257Z" transform="translate(-319.259 -164.761)"/>
    <path id="Trazado_102083" data-name="Trazado 102083" d="M334.3,218.063a3.029,3.029,0,0,1-1.515-.363,2.56,2.56,0,0,1-1.053-1.053,3.249,3.249,0,0,1-.386-1.605,2.969,2.969,0,0,1,.825-2.2,3.1,3.1,0,0,1,4.211,0,3.029,3.029,0,0,1,.818,2.2,2.961,2.961,0,0,1-.826,2.2A2.825,2.825,0,0,1,334.3,218.063Zm0-.848a1.818,1.818,0,0,0,1.378-.6,2.272,2.272,0,0,0,.545-1.575,2.219,2.219,0,0,0-.545-1.568,1.788,1.788,0,0,0-1.378-.6,1.749,1.749,0,0,0-1.363.6,2.219,2.219,0,0,0-.545,1.568,2.272,2.272,0,0,0,.545,1.575,1.772,1.772,0,0,0,1.356.576Z" transform="translate(-322.102 -165.567)"/>
    <path id="Trazado_102084" data-name="Trazado 102084" d="M342.23,213.15a1.772,1.772,0,0,1,.719-.757,2.2,2.2,0,0,1,1.121-.3v.962a1.893,1.893,0,0,0-1.348.432,1.8,1.8,0,0,0-.47,1.378v3.1H341.23v-5.816h1Z" transform="translate(-324.501 -165.584)"/>
    <path id="Trazado_102085" data-name="Trazado 102085" d="M347.678,218.053a1.992,1.992,0,0,1-1.28-.4,1.424,1.424,0,0,1-.5-1.189,1.665,1.665,0,0,1,.159-.757,1.287,1.287,0,0,1,.477-.53,2.716,2.716,0,0,1,.682-.333,6.455,6.455,0,0,1,.886-.2l.939-.159c.341-.061.515-.242.515-.538a1.007,1.007,0,0,0-.363-.863,1.439,1.439,0,0,0-.947-.326,1.56,1.56,0,0,0-.916.265,1.143,1.143,0,0,0-.432.818l-.924-.189a1.818,1.818,0,0,1,.757-1.25,2.727,2.727,0,0,1,1.59-.416,3.233,3.233,0,0,1,.841.106,2.135,2.135,0,0,1,.7.326,1.515,1.515,0,0,1,.507.621,2.479,2.479,0,0,1,.174.962v2.4a.977.977,0,0,0,.136.606.575.575,0,0,0,.462.159h.129v.757h-.507a.962.962,0,0,1-1.1-.757h-.053a2.2,2.2,0,0,1-1.939.894Zm.235-.825a1.552,1.552,0,0,0,1.25-.568,2.333,2.333,0,0,0,.47-1.515l-1.515.3a2.03,2.03,0,0,0-.9.326.847.847,0,0,0-.015,1.272,1.174,1.174,0,0,0,.712.167Z" transform="translate(-325.633 -165.556)"/>
    <path id="Trazado_102086" data-name="Trazado 102086" d="M353.09,219.8v-.871a1.7,1.7,0,0,0,.833-.167.916.916,0,0,0,.394-.568,4.758,4.758,0,0,0,.114-1.2v-5.733h1.03v5.733a3.354,3.354,0,0,1-.538,2.173,2.272,2.272,0,0,1-1.833.636Zm1.863-9.906a.659.659,0,0,1-.485-.2.674.674,0,0,1-.2-.492.659.659,0,0,1,.2-.485.7.7,0,0,1,.969,0,.659.659,0,0,1,.2.485.674.674,0,0,1-.2.492A.659.659,0,0,1,354.953,209.9Z" transform="translate(-327.379 -164.718)"/>
    <path id="Trazado_102087" data-name="Trazado 102087" d="M363.933,214.912v.28h-4.544a2.067,2.067,0,0,0,.56,1.515,1.818,1.818,0,0,0,1.325.523,1.765,1.765,0,0,0,.962-.28,1.847,1.847,0,0,0,.667-.757l.924.2a2.635,2.635,0,0,1-1,1.25,2.718,2.718,0,0,1-1.514.454,2.81,2.81,0,0,1-2.09-.81,3.446,3.446,0,0,1,0-4.423,2.8,2.8,0,0,1,2.067-.81,2.62,2.62,0,0,1,1.954.757A2.938,2.938,0,0,1,363.933,214.912Zm-2.688-2.12a1.787,1.787,0,0,0-1.212.417,1.886,1.886,0,0,0-.613,1.2H362.9a1.734,1.734,0,0,0-.507-1.2,1.628,1.628,0,0,0-1.151-.439Z" transform="translate(-328.673 -165.573)"/>
    <path id="Trazado_102088" data-name="Trazado 102088" d="M325.441,236.33l-.719-1.992h-3.787l-.689,1.992H319.14l3.067-8.33h1.265l3.075,8.33Zm-4.135-2.916h3.1l-1.59-4.332Z" transform="translate(-319.14 -169.445)"/>
    <path id="Trazado_102089" data-name="Trazado 102089" d="M332.341,236.515a1.515,1.515,0,0,1-1.136-.417,1.568,1.568,0,0,1-.416-1.159v-3.423H329.6V230.7h.439a.818.818,0,0,0,.636-.2.977.977,0,0,0,.189-.682V228.76h.954V230.7h1.333v.818h-1.333v3.317a.886.886,0,0,0,.22.636.757.757,0,0,0,.583.227h.53v.818Z" transform="translate(-321.679 -169.629)"/>
    <path id="Trazado_102090" data-name="Trazado 102090" d="M341.1,234.082v.28H336.56a2.037,2.037,0,0,0,.553,1.515,1.817,1.817,0,0,0,1.325.523,1.765,1.765,0,0,0,.962-.28,1.8,1.8,0,0,0,.666-.757l.924.2a2.673,2.673,0,0,1-.992,1.25,2.718,2.718,0,0,1-1.515.454,2.825,2.825,0,0,1-2.1-.81,3.476,3.476,0,0,1,0-4.423,2.8,2.8,0,0,1,2.068-.81,2.621,2.621,0,0,1,1.954.757,2.938,2.938,0,0,1,.7,2.105Zm-2.688-2.12a1.787,1.787,0,0,0-1.212.416,1.886,1.886,0,0,0-.613,1.2h3.484a1.7,1.7,0,0,0-.507-1.2,1.621,1.621,0,0,0-1.151-.394Z" transform="translate(-323.133 -170.226)"/>
    <path id="Trazado_102091" data-name="Trazado 102091" d="M347.734,231.189a2.045,2.045,0,0,1,1.469.53,1.969,1.969,0,0,1,.545,1.515v3.87h-1.022v-3.688a1.385,1.385,0,0,0-.356-1.038,1.25,1.25,0,0,0-.909-.341,1.409,1.409,0,0,0-1.038.4,1.659,1.659,0,0,0-.409,1.189V237.1H345v-5.816h1.022v.757A1.939,1.939,0,0,1,347.734,231.189Z" transform="translate(-325.416 -170.218)"/>
    <path id="Trazado_102092" data-name="Trazado 102092" d="M356.139,237.225a2.779,2.779,0,0,1-2.083-.833,3.3,3.3,0,0,1,0-4.362,2.787,2.787,0,0,1,2.09-.841,2.818,2.818,0,0,1,1.681.515,2.522,2.522,0,0,1,.977,1.409l-.954.159a1.779,1.779,0,0,0-.659-.909,1.8,1.8,0,0,0-1.053-.318,1.719,1.719,0,0,0-1.348.6,2.575,2.575,0,0,0,0,3.128,1.719,1.719,0,0,0,1.348.6,1.8,1.8,0,0,0,1.053-.318,1.78,1.78,0,0,0,.659-.909l.954.159a2.515,2.515,0,0,1-.984,1.416A2.81,2.81,0,0,1,356.139,237.225Z" transform="translate(-327.414 -170.219)"/>
    <path id="Trazado_102093" data-name="Trazado 102093" d="M363.039,229.1a.659.659,0,0,1-.485-.2.674.674,0,0,1-.2-.492.659.659,0,0,1,.2-.485.7.7,0,0,1,.969,0,.659.659,0,0,1,.2.485.674.674,0,0,1-.2.492A.659.659,0,0,1,363.039,229.1Zm-.515,7.179v-5.816h1.022v5.8Z" transform="translate(-329.627 -169.377)"/>
    <path id="Trazado_102094" data-name="Trazado 102094" d="M368.973,236.34a3.029,3.029,0,0,1-1.515-.364,2.6,2.6,0,0,1-1.053-1.053,3.248,3.248,0,0,1-.386-1.606,3.029,3.029,0,0,1,.825-2.2,3.1,3.1,0,0,1,4.211,0,3.332,3.332,0,0,1,0,4.392A2.855,2.855,0,0,1,368.973,236.34Zm0-.848a1.8,1.8,0,0,0,1.378-.6,2.271,2.271,0,0,0,.545-1.575,2.219,2.219,0,0,0-.545-1.568,1.779,1.779,0,0,0-1.378-.6,1.757,1.757,0,0,0-1.363.6,2.218,2.218,0,0,0-.538,1.568,2.272,2.272,0,0,0,.538,1.575,1.787,1.787,0,0,0,1.356.6Zm-.386-6.059,1.515-1.924.545.394-1.325,1.515Z" transform="translate(-330.517 -169.326)"/>
    <path id="Trazado_102095" data-name="Trazado 102095" d="M378.649,231.189a2.037,2.037,0,0,1,1.462.53,1.969,1.969,0,0,1,.545,1.515v3.87h-1.022v-3.688a1.355,1.355,0,0,0-.356-1.037,1.25,1.25,0,0,0-.909-.341,1.424,1.424,0,0,0-1.038.4,1.658,1.658,0,0,0-.409,1.189V237.1H375.9v-5.816h1.022v.757A1.938,1.938,0,0,1,378.649,231.189Z" transform="translate(-332.915 -170.218)"/>
  </g>
  <g id="Grupo_57669" data-name="Grupo 57669" transform="translate(242.438 88.287)">
    <path id="Trazado_102096" data-name="Trazado 102096" d="M323.689,117.109a2.582,2.582,0,0,1,1.969.757,2.794,2.794,0,0,1,.757,1.969,2.688,2.688,0,0,1-.757,1.954,2.6,2.6,0,0,1-1.969.757H321.9v3.029H320.13v-8.467Zm-.3,4a1.272,1.272,0,0,0,.977-.333,1.249,1.249,0,0,0,.326-.924,1.272,1.272,0,0,0-.326-.916,1.3,1.3,0,0,0-.977-.341h-1.515v2.514Z" transform="translate(-320.13 -116.707)"/>
    <path id="Trazado_102097" data-name="Trazado 102097" d="M332.482,126.546a3.9,3.9,0,0,1-1.719-.371,2.8,2.8,0,0,1-1.181-1.1,3.225,3.225,0,0,1-.432-1.7,3.029,3.029,0,0,1,.924-2.272,3.855,3.855,0,0,1,4.824,0,3.363,3.363,0,0,1,0,4.627A3.423,3.423,0,0,1,332.482,126.546Zm0-1.356a1.568,1.568,0,0,0,1.2-.5,1.848,1.848,0,0,0,.454-1.31,1.885,1.885,0,0,0-.454-1.318,1.59,1.59,0,0,0-1.2-.492,1.514,1.514,0,0,0-1.166.5,2.113,2.113,0,0,0,0,2.62,1.515,1.515,0,0,0,1.151.5Z" transform="translate(-322.319 -117.473)"/>
    <path id="Trazado_102098" data-name="Trazado 102098" d="M341.613,126.533a3.461,3.461,0,0,1-1.78-.424,1.818,1.818,0,0,1-.863-1.272l1.424-.4a1.144,1.144,0,0,0,1.219.909,1.2,1.2,0,0,0,.621-.144.477.477,0,0,0,.242-.47.523.523,0,0,0-.1-.311.94.94,0,0,0-.31-.227l-.417-.159-.545-.159a5.637,5.637,0,0,1-.56-.174,3.279,3.279,0,0,1-.538-.227,2.028,2.028,0,0,1-.439-.31,1.263,1.263,0,0,1-.333-.477,1.75,1.75,0,0,1-.114-.651,1.56,1.56,0,0,1,.659-1.363,2.984,2.984,0,0,1,1.727-.462,3.029,3.029,0,0,1,1.59.394,1.757,1.757,0,0,1,.818,1.219l-1.325.3a1.022,1.022,0,0,0-1.075-.757,1.166,1.166,0,0,0-.6.136.447.447,0,0,0-.242.409.483.483,0,0,0,0,.182.363.363,0,0,0,.121.144l.174.114a1.123,1.123,0,0,0,.242.1,2.186,2.186,0,0,0,.265.076l.31.083.318.083c.22.061.409.114.576.174a4,4,0,0,1,.523.25,2.015,2.015,0,0,1,.454.356,1.733,1.733,0,0,1,.3.507,1.877,1.877,0,0,1,.114.674,1.81,1.81,0,0,1-.2.878,1.514,1.514,0,0,1-.56.6,2.687,2.687,0,0,1-.757.318A4.12,4.12,0,0,1,341.613,126.533Z" transform="translate(-324.702 -117.46)"/>
    <path id="Trazado_102099" data-name="Trazado 102099" d="M348.212,118.541a.975.975,0,0,1-.7-1.674.969.969,0,0,1,.7-.288.984.984,0,0,1,0,1.961Zm-.871,6.99v-6.059h1.719v6.059Z" transform="translate(-326.705 -116.58)"/>
    <path id="Trazado_102100" data-name="Trazado 102100" d="M354.02,125.823a1.825,1.825,0,0,1-1.378-.492,1.939,1.939,0,0,1-.485-1.409v-2.87h-1.2v-1.31h.386a1,1,0,0,0,.757-.25,1.31,1.31,0,0,0,.242-.909v-.8h1.515v1.961h1.257v1.31h-1.257v2.688c0,.53.235.757.7.757h.553v1.3Z" transform="translate(-327.612 -116.871)"/>
    <path id="Trazado_102101" data-name="Trazado 102101" d="M359.024,118.541a.954.954,0,0,1-.7-.288.924.924,0,0,1-.288-.7.947.947,0,0,1,.288-.689.977.977,0,0,1,.7-.288.962.962,0,0,1,.689.288.977.977,0,0,1,0,1.386A.962.962,0,0,1,359.024,118.541Zm-.871,6.99v-6.058h1.719v6.058Z" transform="translate(-329.33 -116.58)"/>
    <path id="Trazado_102102" data-name="Trazado 102102" d="M366.442,120.37h1.81l-2.6,6.058H364.14l-2.56-6.058h1.833l1.515,4.158Z" transform="translate(-330.19 -117.5)"/>
    <path id="Trazado_102103" data-name="Trazado 102103" d="M373.931,126.545a3.915,3.915,0,0,1-1.727-.371,2.741,2.741,0,0,1-1.174-1.1,3.226,3.226,0,0,1-.432-1.7,2.961,2.961,0,0,1,.924-2.272,3.84,3.84,0,0,1,4.817,0,3.362,3.362,0,0,1,0,4.627A3.4,3.4,0,0,1,373.931,126.545Zm0-1.356a1.514,1.514,0,0,0,1.2-.5,1.825,1.825,0,0,0,.462-1.31,1.855,1.855,0,0,0-.462-1.318,1.568,1.568,0,0,0-1.2-.485,1.515,1.515,0,0,0-1.166.5,2.113,2.113,0,0,0,0,2.62A1.515,1.515,0,0,0,373.931,125.19Z" transform="translate(-332.378 -117.473)"/>
  </g>
  <g id="Grupo_57670" data-name="Grupo 57670" transform="translate(336.465 114.294)">
    <path id="Trazado_102104" data-name="Trazado 102104" d="M450.046,152.2h-3.393v2.726h3.029v.947h-3.029v2.764h3.385v.962H445.57v-8.33h4.468Z" transform="translate(-444.601 -151.006)"/>
    <path id="Trazado_102105" data-name="Trazado 102105" d="M456.551,154.389a2.052,2.052,0,0,1,1.469.53,1.969,1.969,0,0,1,.545,1.515v3.915h-1.022v-3.688a1.386,1.386,0,0,0-.356-1.038,1.272,1.272,0,0,0-.916-.341,1.4,1.4,0,0,0-1.03.4,1.6,1.6,0,0,0-.409,1.189v3.476H453.81v-5.816h1.022v.757A1.939,1.939,0,0,1,456.551,154.389Z" transform="translate(-446.6 -151.762)"/>
    <path id="Trazado_102106" data-name="Trazado 102106" d="M464.983,160.433a3.03,3.03,0,0,1-1.515-.363,2.59,2.59,0,0,1-1.045-1.053,3.257,3.257,0,0,1-.394-1.606,3.029,3.029,0,0,1,.826-2.2,3.1,3.1,0,0,1,4.211,0,3.332,3.332,0,0,1,0,4.392A2.84,2.84,0,0,1,464.983,160.433Zm0-.848a1.8,1.8,0,0,0,1.378-.6,2.272,2.272,0,0,0,.545-1.575,2.219,2.219,0,0,0-.545-1.568,1.78,1.78,0,0,0-1.378-.6,1.757,1.757,0,0,0-1.363.6,2.565,2.565,0,0,0,0,3.143,1.788,1.788,0,0,0,1.356.6Z" transform="translate(-448.595 -151.763)"/>
    <path id="Trazado_102107" data-name="Trazado 102107" d="M470.15,162.2v-.871a1.7,1.7,0,0,0,.833-.167.917.917,0,0,0,.394-.568,4.759,4.759,0,0,0,.114-1.2v-5.733h1.03v5.733a3.355,3.355,0,0,1-.538,2.174,2.272,2.272,0,0,1-1.833.636Zm1.863-9.906a.659.659,0,0,1-.485-.2.674.674,0,0,1-.2-.492.659.659,0,0,1,.2-.485.7.7,0,0,1,.969,0,.659.659,0,0,1,.2.485.674.674,0,0,1-.2.492A.659.659,0,0,1,472.013,152.3Z" transform="translate(-450.566 -150.921)"/>
    <path id="Trazado_102108" data-name="Trazado 102108" d="M478.332,160.433a3.029,3.029,0,0,1-1.515-.363,2.559,2.559,0,0,1-1.053-1.053,3.249,3.249,0,0,1-.386-1.606,2.969,2.969,0,0,1,.826-2.2,3.1,3.1,0,0,1,4.211,0,3.029,3.029,0,0,1,.818,2.2,2.961,2.961,0,0,1-.825,2.2,2.825,2.825,0,0,1-2.075.825Zm0-.848a1.787,1.787,0,0,0,1.371-.6,2.219,2.219,0,0,0,.553-1.575,2.189,2.189,0,0,0-.553-1.568,1.764,1.764,0,0,0-1.371-.6,1.734,1.734,0,0,0-1.363.6,2.219,2.219,0,0,0-.545,1.568,2.272,2.272,0,0,0,.545,1.575,1.765,1.765,0,0,0,1.356.6Z" transform="translate(-451.834 -151.763)"/>
    <path id="Trazado_102109" data-name="Trazado 102109" d="M448.735,170.42a2.453,2.453,0,0,1,1.31.348,2.324,2.324,0,0,1,.871.924,2.717,2.717,0,0,1,.31,1.287,2.544,2.544,0,0,1-.689,1.81,2.37,2.37,0,0,1-1.8.757H446.66v3.234H445.6v-8.33Zm-.151,4.173a1.515,1.515,0,0,0,1.159-.447,1.847,1.847,0,0,0,0-2.355,1.514,1.514,0,0,0-1.159-.454H446.66v3.256Z" transform="translate(-444.608 -155.653)"/>
    <path id="Trazado_102110" data-name="Trazado 102110" d="M459.392,176.512v.28h-4.544a2.037,2.037,0,0,0,.56,1.515,1.817,1.817,0,0,0,1.325.523,1.765,1.765,0,0,0,.962-.28,1.848,1.848,0,0,0,.666-.757l.916.2a2.582,2.582,0,0,1-.992,1.25,2.719,2.719,0,0,1-1.515.454,2.81,2.81,0,0,1-2.09-.81,3.448,3.448,0,0,1,0-4.423,2.787,2.787,0,0,1,2.06-.81,2.628,2.628,0,0,1,1.961.757A2.969,2.969,0,0,1,459.392,176.512Zm-2.7-2.12a1.779,1.779,0,0,0-1.2.416,1.886,1.886,0,0,0-.613,1.2h3.484a1.734,1.734,0,0,0-.507-1.2A1.636,1.636,0,0,0,456.7,174.391Z" transform="translate(-446.616 -156.436)"/>
    <path id="Trazado_102111" data-name="Trazado 102111" d="M463.28,178.508V169.42h1.03v9.088Z" transform="translate(-448.899 -155.41)"/>
    <path id="Trazado_102112" data-name="Trazado 102112" d="M467.859,171.5a.659.659,0,0,1-.485-.2.674.674,0,0,1-.2-.492.659.659,0,0,1,.2-.485.7.7,0,0,1,.969,0,.659.659,0,0,1,.2.485.675.675,0,0,1-.2.492A.659.659,0,0,1,467.859,171.5Zm-.522,7.179v-5.816h1.03v5.816Z" transform="translate(-449.843 -155.581)"/>
    <path id="Trazado_102113" data-name="Trazado 102113" d="M475.55,173.714h1v5.5a2.96,2.96,0,0,1-5.665,1.287l.848-.417a1.924,1.924,0,0,0,1.954,1.4,1.681,1.681,0,0,0,1.363-.568,2.446,2.446,0,0,0,.469-1.59v-1.075a2.067,2.067,0,0,1-.833.841,2.552,2.552,0,0,1-3.09-.507,2.9,2.9,0,0,1-.757-2.067,2.863,2.863,0,0,1,.757-2.06,2.522,2.522,0,0,1,1.893-.818,2.408,2.408,0,0,1,1.257.273,2.128,2.128,0,0,1,.818.863Zm-1.84,4.786a1.78,1.78,0,0,0,1.34-.6,2.052,2.052,0,0,0,.553-1.424,2,2,0,0,0-.553-1.424,1.734,1.734,0,0,0-1.34-.6,1.764,1.764,0,0,0-1.34.576,2.045,2.045,0,0,0-.545,1.447,2.014,2.014,0,0,0,.553,1.439A1.765,1.765,0,0,0,473.709,178.5Z" transform="translate(-450.733 -156.433)"/>
    <path id="Trazado_102114" data-name="Trazado 102114" d="M482.13,174.75a1.772,1.772,0,0,1,.719-.757,2.181,2.181,0,0,1,1.121-.3v.962a1.931,1.931,0,0,0-1.356.432,1.8,1.8,0,0,0-.462,1.378v3.1H481.13v-5.816h1Z" transform="translate(-453.231 -156.447)"/>
    <path id="Trazado_102115" data-name="Trazado 102115" d="M488.653,179.633a3.029,3.029,0,0,1-1.515-.363,2.561,2.561,0,0,1-1.053-1.053,3.249,3.249,0,0,1-.386-1.605,2.969,2.969,0,0,1,.826-2.2,2.855,2.855,0,0,1,2.1-.825,2.885,2.885,0,0,1,2.113.825,3.029,3.029,0,0,1,.818,2.2,2.961,2.961,0,0,1-.826,2.2,2.84,2.84,0,0,1-2.075.825Zm0-.848a1.787,1.787,0,0,0,1.371-.6,2.272,2.272,0,0,0,.553-1.575,2.227,2.227,0,0,0-.553-1.568,1.765,1.765,0,0,0-1.371-.6,1.734,1.734,0,0,0-1.363.6,2.219,2.219,0,0,0-.545,1.568,2.272,2.272,0,0,0,.545,1.575,1.764,1.764,0,0,0,1.363.6Z" transform="translate(-454.339 -156.422)"/>
    <path id="Trazado_102116" data-name="Trazado 102116" d="M445.58,197.95v-8.33h2.688a4.029,4.029,0,0,1,2.121.538,3.355,3.355,0,0,1,1.3,1.469,5.143,5.143,0,0,1,.424,2.151,5.38,5.38,0,0,1-.25,1.689,3.7,3.7,0,0,1-.719,1.318,3.18,3.18,0,0,1-1.212.863,4.271,4.271,0,0,1-1.666.3Zm1.06-.962h1.59a2.552,2.552,0,0,0,2.083-.856,3.62,3.62,0,0,0,.7-2.355,3.567,3.567,0,0,0-.7-2.34,2.53,2.53,0,0,0-2.075-.848h-1.575Z" transform="translate(-444.603 -160.312)"/>
    <path id="Trazado_102117" data-name="Trazado 102117" d="M461.509,195.7v.28h-4.544a2.037,2.037,0,0,0,.553,1.515,1.818,1.818,0,0,0,1.325.523,1.764,1.764,0,0,0,.962-.28,1.794,1.794,0,0,0,.666-.757l.924.2a2.636,2.636,0,0,1-1,1.25,2.681,2.681,0,0,1-1.515.454,2.825,2.825,0,0,1-2.136-.856,3.476,3.476,0,0,1,0-4.423,2.8,2.8,0,0,1,2.067-.81,2.62,2.62,0,0,1,1.954.757A2.938,2.938,0,0,1,461.509,195.7Zm-2.688-2.12a1.787,1.787,0,0,0-1.212.417,1.885,1.885,0,0,0-.613,1.2h3.484a1.7,1.7,0,0,0-.507-1.2A1.62,1.62,0,0,0,458.821,193.577Z" transform="translate(-447.12 -161.081)"/>
    <path id="Trazado_102118" data-name="Trazado 102118" d="M467.095,198.843a2.749,2.749,0,0,1-1.568-.417,1.749,1.749,0,0,1-.757-1.2l.894-.257a1.226,1.226,0,0,0,.477.81,1.553,1.553,0,0,0,.954.288,2.136,2.136,0,0,0,.56-.076.969.969,0,0,0,.432-.288.757.757,0,0,0,.167-.53.628.628,0,0,0-.045-.242.882.882,0,0,0-.1-.189.454.454,0,0,0-.159-.159,1.455,1.455,0,0,0-.469-.235l-.28-.1-.326-.091-.333-.1a5.934,5.934,0,0,1-.606-.212,2.527,2.527,0,0,1-.492-.28,1.128,1.128,0,0,1-.379-.462,1.447,1.447,0,0,1-.121-.636,1.515,1.515,0,0,1,.28-.931,1.628,1.628,0,0,1,.757-.545,2.91,2.91,0,0,1,1.03-.167,2.545,2.545,0,0,1,1.416.379,1.591,1.591,0,0,1,.7,1.136l-.833.212a1.113,1.113,0,0,0-.447-.757,1.408,1.408,0,0,0-.833-.25,1.425,1.425,0,0,0-.757.2.689.689,0,0,0-.326.629.576.576,0,0,0,.083.318.757.757,0,0,0,.492.4,3.235,3.235,0,0,0,.348.129l.424.106h.091l.553.159a4.657,4.657,0,0,1,.507.212,1.84,1.84,0,0,1,.454.318,1.513,1.513,0,0,1,.28.447,1.691,1.691,0,0,1,.121.629,1.75,1.75,0,0,1-.174.757,1.408,1.408,0,0,1-.477.53,2.119,2.119,0,0,1-.682.3A3.091,3.091,0,0,1,467.095,198.843Z" transform="translate(-449.26 -161.091)"/>
    <path id="Trazado_102119" data-name="Trazado 102119" d="M473.991,198.837a1.984,1.984,0,0,1-1.272-.4,1.424,1.424,0,0,1-.5-1.189,1.666,1.666,0,0,1,.159-.757,1.287,1.287,0,0,1,.477-.53,2.589,2.589,0,0,1,.682-.333,6.977,6.977,0,0,1,.886-.212l.939-.151c.341-.061.515-.242.515-.538a1.007,1.007,0,0,0-.364-.863,1.461,1.461,0,0,0-.924-.28,1.514,1.514,0,0,0-.909.265,1.144,1.144,0,0,0-.432.818l-.924-.2a1.818,1.818,0,0,1,.757-1.242,2.726,2.726,0,0,1,1.59-.417,3.27,3.27,0,0,1,.841.106,2.135,2.135,0,0,1,.7.326,1.469,1.469,0,0,1,.5.621,2.34,2.34,0,0,1,.182.962v2.4a.977.977,0,0,0,.136.606.56.56,0,0,0,.454.159h.1v.757h-.507c-.629,0-1-.257-1.106-.757h-.045A2.2,2.2,0,0,1,473.991,198.837Zm.242-.825a1.553,1.553,0,0,0,1.25-.568,2.332,2.332,0,0,0,.47-1.515l-1.515.3a2.029,2.029,0,0,0-.9.326.847.847,0,0,0-.015,1.272,1.174,1.174,0,0,0,.712.189Z" transform="translate(-451.067 -161.086)"/>
    <path id="Trazado_102120" data-name="Trazado 102120" d="M483.589,189.478h-.439a1.071,1.071,0,0,0-.212,0l-.182.061a.424.424,0,0,0-.174.1l-.136.151a.523.523,0,0,0-.113.212,2.022,2.022,0,0,0-.068.288,2.617,2.617,0,0,0,0,.363v1.2h1.348v.848h-1.348v5h-1.022v-5H480.12v-.818h1.121V190.66a3.59,3.59,0,0,1,.061-.674,2.574,2.574,0,0,1,.167-.515,1.332,1.332,0,0,1,.28-.371,2.164,2.164,0,0,1,.356-.25,1.66,1.66,0,0,1,.439-.144,4.231,4.231,0,0,1,.5-.076h.568Z" transform="translate(-452.986 -160.073)"/>
    <path id="Trazado_102121" data-name="Trazado 102121" d="M486.26,197.819V192h1.03v5.816Zm.129-6.816,1.515-1.924.545.394-1.325,1.515Z" transform="translate(-454.476 -160.182)"/>
    <path id="Trazado_102122" data-name="Trazado 102122" d="M492.652,198.833a3.029,3.029,0,0,1-1.515-.363,2.56,2.56,0,0,1-1.053-1.053,3.249,3.249,0,0,1-.386-1.606,2.968,2.968,0,0,1,.825-2.2,2.855,2.855,0,0,1,2.1-.825,2.885,2.885,0,0,1,2.113.825,3.03,3.03,0,0,1,.818,2.2,2.961,2.961,0,0,1-.826,2.2A2.839,2.839,0,0,1,492.652,198.833Zm0-.848a1.787,1.787,0,0,0,1.371-.6,2.271,2.271,0,0,0,.553-1.575,2.227,2.227,0,0,0-.553-1.568,1.764,1.764,0,0,0-1.371-.6,1.734,1.734,0,0,0-1.363.6,2.219,2.219,0,0,0-.545,1.568,2.272,2.272,0,0,0,.545,1.575,1.764,1.764,0,0,0,1.363.6Z" transform="translate(-455.309 -161.082)"/>
    <path id="Trazado_102123" data-name="Trazado 102123" d="M450.616,217.15l-.712-1.992h-3.786l-.712,1.992H444.3l3.075-8.33h1.265l3.067,8.33Zm-4.143-2.893h3.1l-1.552-4.339Z" transform="translate(-444.292 -164.972)"/>
    <path id="Trazado_102124" data-name="Trazado 102124" d="M459.885,212.106h.992v5.521a2.96,2.96,0,0,1-5.665,1.287l.848-.416a1.924,1.924,0,0,0,1.946,1.348,1.658,1.658,0,0,0,1.363-.568,2.4,2.4,0,0,0,.47-1.59v-1.075a2.052,2.052,0,0,1-.825.841,2.469,2.469,0,0,1-1.212.31,2.506,2.506,0,0,1-1.886-.818,2.893,2.893,0,0,1-.757-2.067,2.832,2.832,0,0,1,.757-2.06A2.491,2.491,0,0,1,457.8,212a2.385,2.385,0,0,1,1.219.326,2.1,2.1,0,0,1,.826.863Zm-1.818,4.786a1.757,1.757,0,0,0,1.34-.6,2.121,2.121,0,0,0,0-2.847,1.764,1.764,0,0,0-1.348-.6,1.787,1.787,0,0,0-1.34.575,2.045,2.045,0,0,0-.545,1.446,2.014,2.014,0,0,0,.553,1.439A1.8,1.8,0,0,0,458.067,216.892Z" transform="translate(-446.927 -165.744)"/>
    <path id="Trazado_102125" data-name="Trazado 102125" d="M466.469,213.15a1.8,1.8,0,0,1,.757-.757,2.151,2.151,0,0,1,1.113-.3v.962a1.908,1.908,0,0,0-1.348.432,1.8,1.8,0,0,0-.47,1.378v3.1H465.5v-5.816h1Z" transform="translate(-449.437 -165.766)"/>
    <path id="Trazado_102126" data-name="Trazado 102126" d="M475.652,214.907v.28h-4.544a2.037,2.037,0,0,0,.553,1.515,1.817,1.817,0,0,0,1.325.523,1.757,1.757,0,0,0,1.628-1.053l.924.2a2.627,2.627,0,0,1-.992,1.25,2.719,2.719,0,0,1-1.515.454,2.84,2.84,0,0,1-2.1-.81,3.461,3.461,0,0,1,0-4.423,2.772,2.772,0,0,1,2.06-.81,2.62,2.62,0,0,1,1.954.757A2.938,2.938,0,0,1,475.652,214.907Zm-2.688-2.121a1.787,1.787,0,0,0-1.212.417,1.886,1.886,0,0,0-.614,1.2h3.484a1.7,1.7,0,0,0-.507-1.2,1.605,1.605,0,0,0-1.151-.439Z" transform="translate(-450.563 -165.751)"/>
    <path id="Trazado_102127" data-name="Trazado 102127" d="M481.255,218.073a2.749,2.749,0,0,1-1.568-.417,1.749,1.749,0,0,1-.757-1.2l.894-.257a1.287,1.287,0,0,0,.477.81,1.567,1.567,0,0,0,.954.3,2.133,2.133,0,0,0,.56-.076.969.969,0,0,0,.432-.288.757.757,0,0,0,.167-.53.63.63,0,0,0-.045-.242.886.886,0,0,0-.091-.189.485.485,0,0,0-.167-.159,1.737,1.737,0,0,0-.2-.129,1.919,1.919,0,0,0-.258-.106l-.288-.1-.326-.091-.333-.1c-.242-.076-.447-.144-.606-.212a2.777,2.777,0,0,1-.492-.28,1.128,1.128,0,0,1-.379-.462,1.56,1.56,0,0,1-.129-.651,1.515,1.515,0,0,1,.288-.924,1.575,1.575,0,0,1,.757-.553,2.907,2.907,0,0,1,1.03-.167,2.529,2.529,0,0,1,1.416.379,1.62,1.62,0,0,1,.712,1.136l-.841.212a1.113,1.113,0,0,0-.447-.757,1.394,1.394,0,0,0-.833-.25,1.447,1.447,0,0,0-.757.2.689.689,0,0,0-.326.629.643.643,0,0,0,.083.318,1.248,1.248,0,0,0,.174.227.955.955,0,0,0,.326.174,2.733,2.733,0,0,0,.341.129l.424.106h.091l.56.159a4.062,4.062,0,0,1,.5.212,1.84,1.84,0,0,1,.454.318,1.589,1.589,0,0,1,.4,1.075,1.749,1.749,0,0,1-.174.757,1.363,1.363,0,0,1-.477.538,2.273,2.273,0,0,1-.674.288A3.143,3.143,0,0,1,481.255,218.073Z" transform="translate(-452.697 -165.758)"/>
    <path id="Trazado_102128" data-name="Trazado 102128" d="M487.389,209.9a.659.659,0,0,1-.485-.2.674.674,0,0,1-.2-.492.659.659,0,0,1,.2-.485.7.7,0,0,1,.969,0,.659.659,0,0,1,.2.485.674.674,0,0,1-.2.492.659.659,0,0,1-.485.2Zm-.522,7.179v-5.816h1.03v5.816Z" transform="translate(-454.582 -164.9)"/>
    <path id="Trazado_102129" data-name="Trazado 102129" d="M493.322,217.17a3.029,3.029,0,0,1-1.515-.363,2.605,2.605,0,0,1-1.053-1.053,3.249,3.249,0,0,1-.386-1.605,2.969,2.969,0,0,1,.825-2.2,3.1,3.1,0,0,1,4.211,0,3.332,3.332,0,0,1,0,4.392,2.855,2.855,0,0,1-2.083.825Zm0-.848a1.817,1.817,0,0,0,1.378-.6,2.272,2.272,0,0,0,.545-1.575,2.218,2.218,0,0,0-.545-1.568,1.787,1.787,0,0,0-1.378-.6,1.757,1.757,0,0,0-1.363.6,2.219,2.219,0,0,0-.545,1.568,2.272,2.272,0,0,0,.545,1.575,1.787,1.787,0,0,0,1.356.576Zm-.386-6.058,1.515-1.924.545.394-1.325,1.515Z" transform="translate(-455.472 -164.856)"/>
    <path id="Trazado_102130" data-name="Trazado 102130" d="M503,212a2.037,2.037,0,0,1,1.462.53,1.969,1.969,0,0,1,.545,1.515v3.915h-1.022v-3.688a1.363,1.363,0,0,0-.356-1.045,1.25,1.25,0,0,0-.909-.341,1.424,1.424,0,0,0-1.038.4,1.658,1.658,0,0,0-.409,1.189v3.476H500.25v-5.816h1.022v.757A1.939,1.939,0,0,1,503,212Z" transform="translate(-457.871 -165.743)"/>
    <path id="Trazado_102131" data-name="Trazado 102131" d="M449.621,228v.969h-2.136v7.361h-1.053v-7.346H444.29V228Z" transform="translate(-444.29 -169.627)"/>
    <path id="Trazado_102132" data-name="Trazado 102132" d="M456.813,234.082v.28h-4.544a2.067,2.067,0,0,0,.56,1.515,1.818,1.818,0,0,0,1.325.523,1.765,1.765,0,0,0,.962-.28,1.848,1.848,0,0,0,.666-.757l.924.2a2.635,2.635,0,0,1-1,1.25,2.7,2.7,0,0,1-1.515.454,2.809,2.809,0,0,1-2.09-.81,3.446,3.446,0,0,1,0-4.423,2.8,2.8,0,0,1,2.067-.81,2.621,2.621,0,0,1,1.954.757A2.939,2.939,0,0,1,456.813,234.082Zm-2.688-2.12a1.787,1.787,0,0,0-1.212.416,1.886,1.886,0,0,0-.613,1.2h3.484a1.734,1.734,0,0,0-.507-1.2,1.621,1.621,0,0,0-1.174-.394Z" transform="translate(-445.991 -170.408)"/>
    <path id="Trazado_102133" data-name="Trazado 102133" d="M463.441,231.189a2.052,2.052,0,0,1,1.469.53,1.969,1.969,0,0,1,.545,1.515v3.87h-1.022v-3.688a1.386,1.386,0,0,0-.356-1.038,1.265,1.265,0,0,0-.909-.341,1.409,1.409,0,0,0-1.037.4,1.6,1.6,0,0,0-.409,1.189V237.1H460.7v-5.816h1.022v.757A1.939,1.939,0,0,1,463.441,231.189Z" transform="translate(-448.273 -170.4)"/>
    <path id="Trazado_102134" data-name="Trazado 102134" d="M471.255,237.238a2.749,2.749,0,0,1-1.568-.417,1.749,1.749,0,0,1-.757-1.2l.894-.257a1.227,1.227,0,0,0,.477.81,1.515,1.515,0,0,0,.954.288,2.133,2.133,0,0,0,.56-.076.909.909,0,0,0,.424-.288.757.757,0,0,0,.174-.53.628.628,0,0,0-.045-.242.882.882,0,0,0-.1-.189.454.454,0,0,0-.159-.159,1.743,1.743,0,0,0-.2-.129,1.715,1.715,0,0,0-.265-.106l-.28-.1-.326-.091-.333-.1a5.949,5.949,0,0,1-.606-.212,2.528,2.528,0,0,1-.492-.28,1.128,1.128,0,0,1-.379-.462,1.445,1.445,0,0,1-.129-.651,1.514,1.514,0,0,1,.28-.932,1.628,1.628,0,0,1,.757-.545,2.877,2.877,0,0,1,1.03-.167,2.544,2.544,0,0,1,1.416.379,1.59,1.59,0,0,1,.7,1.136l-.841.212a1.083,1.083,0,0,0-.439-.757,1.409,1.409,0,0,0-.833-.25,1.423,1.423,0,0,0-.757.2.689.689,0,0,0-.326.629.575.575,0,0,0,.083.318.81.81,0,0,0,.174.227.983.983,0,0,0,.318.174,3.234,3.234,0,0,0,.348.129l.424.106h.083l.56.159a4.634,4.634,0,0,1,.507.212,1.651,1.651,0,0,1,.447.318,1.379,1.379,0,0,1,.288.447,1.689,1.689,0,0,1,.121.629,1.75,1.75,0,0,1-.174.757,1.408,1.408,0,0,1-.477.53,2.12,2.12,0,0,1-.682.3A3.088,3.088,0,0,1,471.255,237.238Z" transform="translate(-450.27 -170.406)"/>
    <path id="Trazado_102135" data-name="Trazado 102135" d="M477.437,229.1a.7.7,0,0,1-.7-.7.659.659,0,0,1,.2-.469.7.7,0,0,1,.977,0,.651.651,0,0,1,.2.485.681.681,0,0,1-.682.7Zm-.5,7.164v-5.816h1.03v5.816Z" transform="translate(-452.165 -169.564)"/>
    <path id="Trazado_102136" data-name="Trazado 102136" d="M483.382,236.34a3.029,3.029,0,0,1-1.515-.364,2.56,2.56,0,0,1-.992-1.053,3.249,3.249,0,0,1-.386-1.606,2.968,2.968,0,0,1,.826-2.2,2.855,2.855,0,0,1,2.1-.825,2.885,2.885,0,0,1,2.113.825,3.029,3.029,0,0,1,.818,2.2,2.961,2.961,0,0,1-.826,2.2,2.832,2.832,0,0,1-2.136.825Zm0-.848a1.788,1.788,0,0,0,1.371-.6,2.272,2.272,0,0,0,.553-1.575,2.227,2.227,0,0,0-.553-1.568,1.764,1.764,0,0,0-1.371-.6,1.734,1.734,0,0,0-1.363.6,2.219,2.219,0,0,0-.545,1.568,2.272,2.272,0,0,0,.545,1.575A1.764,1.764,0,0,0,483.382,235.492ZM483,229.434l1.515-1.924.545.394-1.325,1.515Z" transform="translate(-453.074 -169.508)"/>
    <path id="Trazado_102137" data-name="Trazado 102137" d="M493.042,231.189a2.045,2.045,0,0,1,1.469.53,1.969,1.969,0,0,1,.545,1.515v3.87h-1.022v-3.688a1.386,1.386,0,0,0-.356-1.038,1.25,1.25,0,0,0-.909-.341,1.409,1.409,0,0,0-1.038.4,1.659,1.659,0,0,0-.409,1.189V237.1H490.3v-5.816h1.022v.757A1.939,1.939,0,0,1,493.042,231.189Z" transform="translate(-455.456 -170.4)"/>
  </g>
  <g id="Grupo_57671" data-name="Grupo 57671" transform="translate(337.215 88.287)">
    <path id="Trazado_102138" data-name="Trazado 102138" d="M451.126,117.11h1.765v8.55h-2.052l-3.787-6.111v6.111H445.28v-8.55h2.06l3.787,6.058Z" transform="translate(-445.28 -116.709)"/>
    <path id="Trazado_102139" data-name="Trazado 102139" d="M463.493,123.278v.409H458.95a1.56,1.56,0,0,0,.485,1.113,1.651,1.651,0,0,0,1.871.174,1.325,1.325,0,0,0,.515-.613l1.56.227a2.658,2.658,0,0,1-1.068,1.431,3.2,3.2,0,0,1-1.795.507,3.286,3.286,0,0,1-2.37-.841,3.029,3.029,0,0,1-.879-2.317,3.1,3.1,0,0,1,.879-2.325,3.2,3.2,0,0,1,2.317-.848,2.779,2.779,0,0,1,3.029,3.082Zm-3.029-1.878a1.348,1.348,0,0,0-1.477,1.174h2.795a1.28,1.28,0,0,0-.424-.871,1.341,1.341,0,0,0-.863-.3Z" transform="translate(-448.188 -117.455)"/>
    <path id="Trazado_102140" data-name="Trazado 102140" d="M471.221,120.324h1.621v5.627a4.544,4.544,0,0,1-.227,1.515,2.446,2.446,0,0,1-.659,1.038,2.765,2.765,0,0,1-1.015.583,4.179,4.179,0,0,1-1.325.189,3,3,0,0,1-3.135-1.886l1.416-.606a2.052,2.052,0,0,0,.651.886,1.674,1.674,0,0,0,1,.28c1.053,0,1.583-.621,1.583-1.878v-.727a1.916,1.916,0,0,1-.757.6,2.568,2.568,0,0,1-1.083.227,2.711,2.711,0,0,1-1.068-.212,2.84,2.84,0,0,1-.886-.606,2.884,2.884,0,0,1-.6-.954,3.582,3.582,0,0,1,0-2.469,2.718,2.718,0,0,1,.606-.939,2.528,2.528,0,0,1,.886-.591,2.734,2.734,0,0,1,1.075-.22,2.5,2.5,0,0,1,1.128.257,1.749,1.749,0,0,1,.757.666Zm-2.613,4.021a1.469,1.469,0,0,0,1.113.47,1.514,1.514,0,0,0,1.121-.47,1.7,1.7,0,0,0,0-2.317,1.583,1.583,0,0,0-2.272,0,1.621,1.621,0,0,0-.447,1.166,1.59,1.59,0,0,0,.485,1.151Z" transform="translate(-450.425 -117.454)"/>
    <path id="Trazado_102141" data-name="Trazado 102141" d="M482.062,124.77a5.685,5.685,0,0,0,.144,1.515v.167h-1.59l-.136-.659a1.962,1.962,0,0,1-.848.583,3.2,3.2,0,0,1-1.1.2,2.68,2.68,0,0,1-.568-.053,2.085,2.085,0,0,1-.515-.182,1.516,1.516,0,0,1-.424-.318,1.288,1.288,0,0,1-.28-.477,2.12,2.12,0,0,1,0-1.325,1.666,1.666,0,0,1,.3-.492,1.887,1.887,0,0,1,.485-.364,3.789,3.789,0,0,1,.6-.257,7.1,7.1,0,0,1,.757-.189l1-.227a1.075,1.075,0,0,0,.454-.189.4.4,0,0,0,.129-.3.643.643,0,0,0-.3-.591,1.514,1.514,0,0,0-.757-.174,1.045,1.045,0,0,0-1.189.932l-1.515-.273a2.044,2.044,0,0,1,.879-1.393,3.521,3.521,0,0,1,1.908-.447q2.56,0,2.56,2.2Zm-3.029.621a1.371,1.371,0,0,0,1.053-.447,1.84,1.84,0,0,0,.409-1.3l-1.446.409a1.621,1.621,0,0,0-.606.25.515.515,0,0,0-.212.439.561.561,0,0,0,.227.477.931.931,0,0,0,.606.144Z" transform="translate(-452.891 -117.469)"/>
    <path id="Trazado_102142" data-name="Trazado 102142" d="M487.892,125.823a1.81,1.81,0,0,1-1.371-.492,1.909,1.909,0,0,1-.485-1.409v-2.87h-1.2v-1.31h.386a1.022,1.022,0,0,0,.757-.25,1.348,1.348,0,0,0,.242-.909v-.8h1.515v1.961h1.25v1.31h-1.227v2.688c0,.53.235.757.7.757h.545v1.3Z" transform="translate(-454.881 -116.871)"/>
    <path id="Trazado_102143" data-name="Trazado 102143" d="M492.924,118.541a.977.977,0,0,1-.7-.288.954.954,0,0,1-.288-.7.931.931,0,0,1,.3-.689.977.977,0,1,1,1.378,1.386A.947.947,0,0,1,492.924,118.541Zm-.863,6.99v-6.058h1.711v6.058Z" transform="translate(-456.604 -116.58)"/>
    <path id="Trazado_102144" data-name="Trazado 102144" d="M500.362,120.37h1.8l-2.59,6.058H498.06l-2.56-6.058h1.795l1.515,4.158Z" transform="translate(-457.468 -117.5)"/>
    <path id="Trazado_102145" data-name="Trazado 102145" d="M507.832,126.546a3.9,3.9,0,0,1-1.719-.371,2.8,2.8,0,0,1-1.181-1.1,3.227,3.227,0,0,1-.432-1.7,3.03,3.03,0,0,1,.924-2.272,3.855,3.855,0,0,1,4.824,0,3.362,3.362,0,0,1,0,4.627,3.423,3.423,0,0,1-2.416.81Zm0-1.356a1.567,1.567,0,0,0,1.2-.5,1.848,1.848,0,0,0,.454-1.31,1.886,1.886,0,0,0-.454-1.318,1.59,1.59,0,0,0-1.2-.492,1.515,1.515,0,0,0-1.174.5,2.143,2.143,0,0,0,0,2.62,1.515,1.515,0,0,0,1.159.5Z" transform="translate(-459.652 -117.473)"/>
  </g>
</svg>
