<svg id="info_1_4-08" xmlns="http://www.w3.org/2000/svg" width="426.789" height="227.525" viewBox="0 0 426.789 227.525">
  <rect id="Rectángulo_5411" data-name="Rectángulo 5411" width="53.345" height="54.526" transform="translate(0 173)" fill="#754c24"/>
  <g id="Grupo_57730" data-name="Grupo 57730">
    <rect id="Rectángulo_5412" data-name="Rectángulo 5412" width="213.395" height="173" fill="#754c24"/>
    <rect id="Rectángulo_5413" data-name="Rectángulo 5413" width="213.395" height="227.526" transform="translate(213.395)" fill="#f2f2f2"/>
    <g id="Grupo_57722" data-name="Grupo 57722" transform="translate(53.345 173)" opacity="0.75">
      <rect id="Rectángulo_5414" data-name="Rectángulo 5414" width="53.345" height="54.526" fill="#754c24"/>
    </g>
    <g id="Grupo_57723" data-name="Grupo 57723" transform="translate(106.697 173)" opacity="0.5">
      <rect id="Rectángulo_5415" data-name="Rectángulo 5415" width="53.345" height="54.526" fill="#754c24"/>
    </g>
    <g id="Grupo_57724" data-name="Grupo 57724" transform="translate(160.042 173)" opacity="0.25">
      <rect id="Rectángulo_5416" data-name="Rectángulo 5416" width="53.345" height="54.526" fill="#754c24"/>
    </g>
    <g id="Grupo_57725" data-name="Grupo 57725" transform="translate(239.749 40.819)">
      <path id="Trazado_102825" data-name="Trazado 102825" d="M340.693,75.893h-4.2l-1.333-15.3-5.142,15.3h-2.726l-5.142-15.3-1.348,15.3H316.58l1.7-20.3H324.3l4.324,12.746,4.385-12.746h6.013Z" transform="translate(-316.58 -54.31)"/>
      <path id="Trazado_102826" data-name="Trazado 102826" d="M364.942,73.751a13.42,13.42,0,0,0,.356,3.522v.394h-3.787l-.318-1.575a4.688,4.688,0,0,1-2.022,1.393,7.474,7.474,0,0,1-2.613.462,7,7,0,0,1-1.356-.121,4.726,4.726,0,0,1-1.212-.432,3.6,3.6,0,0,1-1.007-.757,3.317,3.317,0,0,1-.674-1.144,4.665,4.665,0,0,1-.25-1.568,4.257,4.257,0,0,1,.265-1.568,3.536,3.536,0,0,1,.7-1.174,4.134,4.134,0,0,1,1.136-.856,8.433,8.433,0,0,1,1.431-.621,16.384,16.384,0,0,1,1.719-.447l2.37-.538a2.628,2.628,0,0,0,1.075-.454.909.909,0,0,0,.318-.757,1.515,1.515,0,0,0-.712-1.386,3.233,3.233,0,0,0-1.719-.424q-2.484,0-2.825,2.2l-3.582-.644a4.839,4.839,0,0,1,2.09-3.294,8.33,8.33,0,0,1,4.544-1.06q6.059,0,6.059,5.21ZM357.823,75.2a3.271,3.271,0,0,0,2.5-1.045,4.415,4.415,0,0,0,.969-3.1l-3.431,1a4.09,4.09,0,0,0-1.439.591,1.212,1.212,0,0,0-.5,1.037,1.356,1.356,0,0,0,.53,1.151,2.272,2.272,0,0,0,1.371.364Z" transform="translate(-325.19 -56.083)"/>
      <path id="Trazado_102827" data-name="Trazado 102827" d="M378.147,65.552a4.718,4.718,0,0,1,1.893-1.734,5.786,5.786,0,0,1,2.825-.757v3.6a5.5,5.5,0,0,0-3.453.894,3.815,3.815,0,0,0-1.068,3.1v7.051H374.27V63.264h3.877Z" transform="translate(-330.581 -56.123)"/>
      <path id="Trazado_102828" data-name="Trazado 102828" d="M392.637,65.552a4.719,4.719,0,0,1,1.893-1.734,5.786,5.786,0,0,1,2.825-.757v3.6a5.5,5.5,0,0,0-3.453.894,3.815,3.815,0,0,0-1.068,3.1v7.051H388.76V63.264h3.877Z" transform="translate(-334.097 -56.123)"/>
      <path id="Trazado_102829" data-name="Trazado 102829" d="M409.461,75.764a9.087,9.087,0,0,1-4.089-.886,6.641,6.641,0,0,1-2.81-2.6,7.784,7.784,0,0,1-1.015-4.029,7.066,7.066,0,0,1,2.189-5.483,9.179,9.179,0,0,1,11.458,0,7.066,7.066,0,0,1,2.189,5.483,7.1,7.1,0,0,1-2.189,5.5,8.126,8.126,0,0,1-5.733,2.014Zm0-3.219a3.733,3.733,0,0,0,2.84-1.151,5.036,5.036,0,0,0,0-6.24,3.711,3.711,0,0,0-2.84-1.2,3.544,3.544,0,0,0-2.772,1.189,5.044,5.044,0,0,0,0,6.225A3.559,3.559,0,0,0,409.461,72.545Zm-1.212-13.473,3.688-5.172,1.992,1.409L410.741,59.1Z" transform="translate(-337.198 -53.9)"/>
      <path id="Trazado_102830" data-name="Trazado 102830" d="M434.98,62.995a5.635,5.635,0,0,1,4,1.265,4.816,4.816,0,0,1,1.393,3.7v9.724h-4.059V68.834a2.491,2.491,0,0,0-.757-1.992,2.7,2.7,0,0,0-1.863-.636,3.786,3.786,0,0,0-1.2.182,3.309,3.309,0,0,0-1.015.576,2.522,2.522,0,0,0-.719,1.083,5,5,0,0,0-.273,1.674v7.967H426.43V63.245h4.052v1.6a5.574,5.574,0,0,1,4.5-1.848Z" transform="translate(-343.24 -56.103)"/>
    </g>
    <g id="Grupo_57726" data-name="Grupo 57726" transform="translate(242.058 113.763)">
      <path id="Trazado_102831" data-name="Trazado 102831" d="M324.861,152.2h-3.378v2.726h2.976v.954h-2.976v2.757h3.378v.962H320.4v-8.33h4.461Z" transform="translate(-319.816 -150.475)"/>
      <path id="Trazado_102832" data-name="Trazado 102832" d="M330.3,160.438a2.749,2.749,0,0,1-1.568-.417,1.75,1.75,0,0,1-.757-1.2l.894-.257a1.287,1.287,0,0,0,.477.81,1.567,1.567,0,0,0,.954.288,2.137,2.137,0,0,0,.56-.076.97.97,0,0,0,.432-.288.825.825,0,0,0,.174-.53.809.809,0,0,0-.053-.242.886.886,0,0,0-.091-.189.484.484,0,0,0-.167-.159,1.723,1.723,0,0,0-.2-.129,1.574,1.574,0,0,0-.258-.106l-.288-.1-.326-.091-.333-.1c-.242-.076-.447-.144-.606-.212a2.77,2.77,0,0,1-.492-.28,1.128,1.128,0,0,1-.379-.462,1.561,1.561,0,0,1-.129-.651,1.515,1.515,0,0,1,.288-.924,1.575,1.575,0,0,1,.757-.553,2.908,2.908,0,0,1,1.03-.167,2.53,2.53,0,0,1,1.416.379,1.621,1.621,0,0,1,.712,1.136l-.841.212a1.114,1.114,0,0,0-.447-.757,1.378,1.378,0,0,0-.833-.25,1.447,1.447,0,0,0-.757.2.689.689,0,0,0-.326.629.644.644,0,0,0,.083.318,1.249,1.249,0,0,0,.174.227.956.956,0,0,0,.326.174,2.737,2.737,0,0,0,.341.129l.424.106h.091l.56.159a4.048,4.048,0,0,1,.5.212,1.837,1.837,0,0,1,.454.318,1.588,1.588,0,0,1,.4,1.075,1.749,1.749,0,0,1-.174.757,1.363,1.363,0,0,1-.477.538,2.271,2.271,0,0,1-.674.288A3.1,3.1,0,0,1,330.3,160.438Z" transform="translate(-321.656 -151.236)"/>
      <path id="Trazado_102833" data-name="Trazado 102833" d="M337.581,159.74a1.515,1.515,0,0,1-1.136-.417,1.567,1.567,0,0,1-.416-1.159v-3.423H334.84v-.818h.439a.856.856,0,0,0,.644-.2,1.022,1.022,0,0,0,.182-.682V152h.954v1.939h1.34v.818h-1.34v3.3a.886.886,0,0,0,.22.636.757.757,0,0,0,.583.227h.538v.818Z" transform="translate(-323.321 -150.652)"/>
      <path id="Trazado_102834" data-name="Trazado 102834" d="M342.6,160.437a1.969,1.969,0,0,1-1.272-.4,1.424,1.424,0,0,1-.5-1.189,1.667,1.667,0,0,1,.159-.757,1.265,1.265,0,0,1,.469-.53,2.849,2.849,0,0,1,.682-.333,6.46,6.46,0,0,1,.886-.2l.939-.159c.348-.061.515-.242.515-.538a1.007,1.007,0,0,0-.364-.863,1.438,1.438,0,0,0-.916-.28,1.559,1.559,0,0,0-.916.265,1.143,1.143,0,0,0-.432.818l-.916-.189a1.764,1.764,0,0,1,.757-1.25,2.681,2.681,0,0,1,1.583-.417,3.187,3.187,0,0,1,.841.106,2.135,2.135,0,0,1,.7.326,1.431,1.431,0,0,1,.507.621,2.338,2.338,0,0,1,.182.962v2.4a.984.984,0,0,0,.129.606.576.576,0,0,0,.462.159h.091v.757h-.507a.962.962,0,0,1-1.1-.757h-.053A2.2,2.2,0,0,1,342.6,160.437Zm.235-.825a1.552,1.552,0,0,0,1.249-.568,2.272,2.272,0,0,0,.47-1.515l-1.515.3a2.067,2.067,0,0,0-.9.326.855.855,0,0,0-.008,1.272A1.151,1.151,0,0,0,342.836,159.612Z" transform="translate(-324.773 -151.236)"/>
      <path id="Trazado_102835" data-name="Trazado 102835" d="M352.867,153.378a2.545,2.545,0,0,1,1.924.841,3.082,3.082,0,0,1,.757,2.189,3.12,3.12,0,0,1-.757,2.189,2.537,2.537,0,0,1-1.931.841,2.318,2.318,0,0,1-1.242-.341,2.166,2.166,0,0,1-.833-.916v1.128H349.8V150.22h1.015V154.6a2.151,2.151,0,0,1,.833-.894A2.325,2.325,0,0,1,352.867,153.378Zm-.227,5.165a1.8,1.8,0,0,0,1.363-.591,2.188,2.188,0,0,0,.553-1.515,2.226,2.226,0,0,0-.553-1.515,1.8,1.8,0,0,0-1.363-.591,1.742,1.742,0,0,0-1.348.613,2.393,2.393,0,0,0,0,3.029,1.749,1.749,0,0,0,1.348.568Z" transform="translate(-326.952 -150.22)"/>
      <path id="Trazado_102836" data-name="Trazado 102836" d="M359.55,159.308V150.22h1.038v9.088Z" transform="translate(-329.318 -150.22)"/>
      <path id="Trazado_102837" data-name="Trazado 102837" d="M368.623,157.307v.28h-4.544a2.037,2.037,0,0,0,.56,1.515,1.818,1.818,0,0,0,1.325.523,1.757,1.757,0,0,0,1.621-1.053l.924.2a2.582,2.582,0,0,1-.992,1.25,2.719,2.719,0,0,1-1.515.454,2.809,2.809,0,0,1-2.09-.81,3.446,3.446,0,0,1,0-4.423,2.787,2.787,0,0,1,2.06-.81,2.628,2.628,0,0,1,1.962.757A2.969,2.969,0,0,1,368.623,157.307Zm-2.7-2.12a1.78,1.78,0,0,0-1.2.417,1.885,1.885,0,0,0-.613,1.2h3.461a1.735,1.735,0,0,0-.507-1.2A1.636,1.636,0,0,0,365.927,155.187Z" transform="translate(-330.182 -151.241)"/>
      <path id="Trazado_102838" data-name="Trazado 102838" d="M325.679,170.42h1.06v8.33h-1.06v-3.7H321.46v3.7H320.4v-8.33h1.06V174.1h4.218Z" transform="translate(-319.816 -155.122)"/>
      <path id="Trazado_102839" data-name="Trazado 102839" d="M334.052,179.633a3.029,3.029,0,0,1-1.515-.364,2.56,2.56,0,0,1-1.053-1.053,3.249,3.249,0,0,1-.386-1.605,2.969,2.969,0,0,1,.826-2.2,3.1,3.1,0,0,1,4.211,0,3.029,3.029,0,0,1,.818,2.2,2.961,2.961,0,0,1-.826,2.2A2.825,2.825,0,0,1,334.052,179.633Zm0-.848a1.818,1.818,0,0,0,1.378-.6,2.537,2.537,0,0,0,0-3.143,1.787,1.787,0,0,0-1.378-.6,1.749,1.749,0,0,0-1.363.6,2.537,2.537,0,0,0,0,3.143,1.772,1.772,0,0,0,1.363.6Z" transform="translate(-322.412 -155.892)"/>
      <path id="Trazado_102840" data-name="Trazado 102840" d="M343.734,173.589a2.037,2.037,0,0,1,1.462.53,1.969,1.969,0,0,1,.545,1.515v3.915h-1.022v-3.681a1.394,1.394,0,0,0-.356-1.045,1.25,1.25,0,0,0-.909-.333,1.416,1.416,0,0,0-1.037.394,1.658,1.658,0,0,0-.409,1.189v3.476H341v-5.816h1.022v.757A1.939,1.939,0,0,1,343.734,173.589Z" transform="translate(-324.816 -155.891)"/>
      <path id="Trazado_102841" data-name="Trazado 102841" d="M354.818,176.512v.28h-4.544a2.037,2.037,0,0,0,.553,1.515,1.818,1.818,0,0,0,1.325.523,1.764,1.764,0,0,0,.962-.28,1.848,1.848,0,0,0,.667-.757l.924.2a2.635,2.635,0,0,1-1,1.25,2.7,2.7,0,0,1-1.515.454,2.81,2.81,0,0,1-2.1-.81,3.446,3.446,0,0,1,0-4.423,2.8,2.8,0,0,1,2.067-.81,2.62,2.62,0,0,1,1.954.757A2.946,2.946,0,0,1,354.818,176.512Zm-2.689-2.12a1.825,1.825,0,0,0-1.212.417,1.885,1.885,0,0,0-.613,1.2h3.484a1.7,1.7,0,0,0-.507-1.2,1.651,1.651,0,0,0-1.181-.417Z" transform="translate(-326.828 -155.906)"/>
      <path id="Trazado_102842" data-name="Trazado 102842" d="M360.395,179.638a2.749,2.749,0,0,1-1.568-.417,1.727,1.727,0,0,1-.757-1.2l.894-.257a1.227,1.227,0,0,0,.477.81,1.515,1.515,0,0,0,.954.288,2.135,2.135,0,0,0,.56-.076.909.909,0,0,0,.424-.288.757.757,0,0,0,.174-.53.807.807,0,0,0-.045-.242,1.1,1.1,0,0,0-.1-.189.484.484,0,0,0-.167-.159,1.235,1.235,0,0,0-.2-.129,1.725,1.725,0,0,0-.265-.106l-.28-.1-.326-.091-.333-.1a5.952,5.952,0,0,1-.606-.212,2.529,2.529,0,0,1-.492-.28,1.128,1.128,0,0,1-.379-.462,1.445,1.445,0,0,1-.129-.651,1.515,1.515,0,0,1,.28-.924,1.59,1.59,0,0,1,.757-.553,2.879,2.879,0,0,1,1.03-.167,2.544,2.544,0,0,1,1.416.379,1.59,1.59,0,0,1,.7,1.136l-.841.212a1.1,1.1,0,0,0-.439-.757,1.409,1.409,0,0,0-.833-.25,1.424,1.424,0,0,0-.757.2.689.689,0,0,0-.326.629.576.576,0,0,0,.083.318.812.812,0,0,0,.174.227.976.976,0,0,0,.318.182l.341.121.432.106h.083c.235.053.416.106.56.151a4.663,4.663,0,0,1,.507.212,1.653,1.653,0,0,1,.447.318,1.341,1.341,0,0,1,.288.454,1.622,1.622,0,0,1,.121.621,1.749,1.749,0,0,1-.174.757,1.515,1.515,0,0,1-.477.538,2.274,2.274,0,0,1-.682.288A3.09,3.09,0,0,1,360.395,179.638Z" transform="translate(-328.959 -155.896)"/>
      <path id="Trazado_102843" data-name="Trazado 102843" d="M367.664,178.935a1.515,1.515,0,0,1-1.136-.417,1.591,1.591,0,0,1-.409-1.159v-3.423H364.93v-.818h.432a.833.833,0,0,0,.644-.2.977.977,0,0,0,.189-.682V171.18h.954v1.939h1.333v.818h-1.333v3.317a.856.856,0,0,0,.22.636.757.757,0,0,0,.583.227h.53v.818Z" transform="translate(-330.623 -155.307)"/>
      <path id="Trazado_102844" data-name="Trazado 102844" d="M373.772,179.633a3.029,3.029,0,0,1-1.515-.364,2.56,2.56,0,0,1-1.053-1.053,3.248,3.248,0,0,1-.386-1.605,2.968,2.968,0,0,1,.825-2.2,3.1,3.1,0,0,1,4.211,0,3.03,3.03,0,0,1,.818,2.2,2.961,2.961,0,0,1-.826,2.2,2.825,2.825,0,0,1-2.075.825Zm0-.848a1.787,1.787,0,0,0,1.371-.6,2.507,2.507,0,0,0,0-3.143,1.764,1.764,0,0,0-1.371-.6,1.734,1.734,0,0,0-1.363.6,2.537,2.537,0,0,0,0,3.143,1.765,1.765,0,0,0,1.356.6Z" transform="translate(-332.052 -155.892)"/>
      <path id="Trazado_102845" data-name="Trazado 102845" d="M323.78,198.027a4.491,4.491,0,0,1-1.643-.3,4.255,4.255,0,0,1-1.318-.841,3.785,3.785,0,0,1-.871-1.356,4.853,4.853,0,0,1-.318-1.795,4.8,4.8,0,0,1,.318-1.78,3.853,3.853,0,0,1,.878-1.356,4.006,4.006,0,0,1,1.31-.841,4.491,4.491,0,0,1,1.643-.3,4.2,4.2,0,0,1,2.211.591,3.65,3.65,0,0,1,1.492,1.628l-.977.4a2.81,2.81,0,0,0-1.091-1.189,3.12,3.12,0,0,0-1.613-.416,3.385,3.385,0,0,0-1.219.22,2.885,2.885,0,0,0-.977.629,2.8,2.8,0,0,0-.659,1.03,3.788,3.788,0,0,0-.242,1.378,3.871,3.871,0,0,0,.242,1.393,2.8,2.8,0,0,0,.659,1.03,2.884,2.884,0,0,0,.977.629,3.234,3.234,0,0,0,1.219.22,3.12,3.12,0,0,0,1.613-.417,2.749,2.749,0,0,0,1.091-1.181l.977.4a3.635,3.635,0,0,1-1.515,1.628A4.279,4.279,0,0,1,323.78,198.027Z" transform="translate(-319.629 -159.745)"/>
      <path id="Trazado_102846" data-name="Trazado 102846" d="M333.219,198.84a1.991,1.991,0,0,1-1.28-.4,1.424,1.424,0,0,1-.5-1.189,1.728,1.728,0,0,1,.159-.757,1.319,1.319,0,0,1,.477-.523,2.589,2.589,0,0,1,.682-.333,7.685,7.685,0,0,1,.886-.212l.939-.152c.341-.061.515-.242.515-.538a1.007,1.007,0,0,0-.364-.863,1.454,1.454,0,0,0-.916-.28,1.515,1.515,0,0,0-.916.265,1.144,1.144,0,0,0-.432.818l-.924-.2a1.817,1.817,0,0,1,.757-1.242,2.726,2.726,0,0,1,1.59-.417,3.234,3.234,0,0,1,.841.106,2.136,2.136,0,0,1,.7.326,1.417,1.417,0,0,1,.5.621,2.342,2.342,0,0,1,.182.962v2.4a.977.977,0,0,0,.136.606.568.568,0,0,0,.454.159h.1v.757H336.3c-.629,0-1-.257-1.106-.757h-.045a2.2,2.2,0,0,1-1.931.841Zm.235-.825a1.553,1.553,0,0,0,1.25-.568,2.333,2.333,0,0,0,.469-1.515l-1.515.3a2.03,2.03,0,0,0-.9.326.848.848,0,0,0,0,1.272A1.174,1.174,0,0,0,333.453,198.014Z" transform="translate(-322.495 -160.558)"/>
      <path id="Trazado_102847" data-name="Trazado 102847" d="M340.4,197.708V188.62h1.03v9.088Z" transform="translate(-324.67 -159.539)"/>
      <path id="Trazado_102848" data-name="Trazado 102848" d="M344.979,190.7a.659.659,0,0,1-.485-.2.674.674,0,0,1-.2-.492.659.659,0,0,1,.2-.485.682.682,0,0,1,.485-.2.7.7,0,0,1,.485.2.659.659,0,0,1,.2.485.7.7,0,0,1-.689.7Zm-.522,7.179v-5.816h1.03v5.816Z" transform="translate(-325.614 -159.709)"/>
      <path id="Trazado_102849" data-name="Trazado 102849" d="M352.769,188.62h1.03v9.088h-.992v-1.128a2.2,2.2,0,0,1-.826.916,2.31,2.31,0,0,1-1.234.341,2.619,2.619,0,0,1-1.053-.22,2.477,2.477,0,0,1-.863-.606,2.721,2.721,0,0,1-.591-.962,3.476,3.476,0,0,1-.212-1.242,3.029,3.029,0,0,1,.757-2.189,2.56,2.56,0,0,1,1.931-.841,2.34,2.34,0,0,1,1.219.333,2.165,2.165,0,0,1,.825.886Zm-1.833,8.33a1.772,1.772,0,0,0,1.356-.606,2.226,2.226,0,0,0,.545-1.515,2.2,2.2,0,0,0-.553-1.515,1.726,1.726,0,0,0-1.348-.613,1.772,1.772,0,0,0-1.356.591,2.189,2.189,0,0,0-.553,1.515,2.159,2.159,0,0,0,.553,1.515,1.772,1.772,0,0,0,1.356.621Z" transform="translate(-326.52 -159.539)"/>
      <path id="Trazado_102850" data-name="Trazado 102850" d="M360.683,198.833a3.029,3.029,0,0,1-1.515-.364,2.657,2.657,0,0,1-1.053-1.053,3.248,3.248,0,0,1-.386-1.605,3.029,3.029,0,0,1,.826-2.2,3.1,3.1,0,0,1,4.211,0,3.332,3.332,0,0,1,0,4.392A2.855,2.855,0,0,1,360.683,198.833Zm0-.848a1.8,1.8,0,0,0,1.378-.6,2.537,2.537,0,0,0,0-3.143,1.78,1.78,0,0,0-1.378-.6,1.757,1.757,0,0,0-1.363.6,2.567,2.567,0,0,0,0,3.143,1.787,1.787,0,0,0,1.356.6Z" transform="translate(-328.875 -160.551)"/>
      <path id="Trazado_102851" data-name="Trazado 102851" d="M323.78,217.257a4.491,4.491,0,0,1-1.643-.3,4.257,4.257,0,0,1-1.318-.841,3.787,3.787,0,0,1-.871-1.356,5.179,5.179,0,0,1,0-3.574,3.855,3.855,0,0,1,.878-1.356,3.786,3.786,0,0,1,1.31-.833,4.346,4.346,0,0,1,1.643-.3,4.2,4.2,0,0,1,2.211.591,3.65,3.65,0,0,1,1.492,1.605l-.977.4a2.81,2.81,0,0,0-1.091-1.189,3.12,3.12,0,0,0-1.613-.417,3.385,3.385,0,0,0-1.219.22,2.886,2.886,0,0,0-.977.629,2.8,2.8,0,0,0-.659,1.03,3.786,3.786,0,0,0-.242,1.386,3.854,3.854,0,0,0,.242,1.386,2.8,2.8,0,0,0,.659,1.03,2.886,2.886,0,0,0,.977.629,3.234,3.234,0,0,0,1.219.227,3.127,3.127,0,0,0,1.613-.424,2.772,2.772,0,0,0,1.091-1.174l.977.394a3.635,3.635,0,0,1-1.515,1.628A4.278,4.278,0,0,1,323.78,217.257Z" transform="translate(-319.629 -164.412)"/>
      <path id="Trazado_102852" data-name="Trazado 102852" d="M334.3,218.063a3.029,3.029,0,0,1-1.515-.363,2.56,2.56,0,0,1-1.053-1.053,3.249,3.249,0,0,1-.386-1.605,2.969,2.969,0,0,1,.825-2.2,3.1,3.1,0,0,1,4.211,0,3.029,3.029,0,0,1,.818,2.2,2.961,2.961,0,0,1-.826,2.2A2.825,2.825,0,0,1,334.3,218.063Zm0-.848a1.818,1.818,0,0,0,1.378-.6,2.272,2.272,0,0,0,.545-1.575,2.219,2.219,0,0,0-.545-1.568,1.788,1.788,0,0,0-1.378-.6,1.749,1.749,0,0,0-1.363.6,2.219,2.219,0,0,0-.545,1.568,2.272,2.272,0,0,0,.545,1.575,1.772,1.772,0,0,0,1.356.576Z" transform="translate(-322.473 -165.218)"/>
      <path id="Trazado_102853" data-name="Trazado 102853" d="M343.979,212a2.037,2.037,0,0,1,1.462.53,1.969,1.969,0,0,1,.545,1.515v3.915h-1.022v-3.688a1.393,1.393,0,0,0-.356-1.045,1.25,1.25,0,0,0-.909-.333,1.416,1.416,0,0,0-1.038.394,1.658,1.658,0,0,0-.409,1.189v3.476H341.23v-5.816h1.022v.757a1.939,1.939,0,0,1,1.727-.894Z" transform="translate(-324.872 -165.213)"/>
      <path id="Trazado_102854" data-name="Trazado 102854" d="M352.521,208.719h-.439a.989.989,0,0,0-.212,0l-.182.061a.425.425,0,0,0-.174.1,1.439,1.439,0,0,0-.136.151.522.522,0,0,0-.114.212,1.341,1.341,0,0,0-.068.288,2.536,2.536,0,0,0,0,.364v1.2h1.356v.818H351.2v5h-1.015v-5H349v-.818h1.121V209.87a3.587,3.587,0,0,1,.061-.674,2.573,2.573,0,0,1,.167-.515,1.174,1.174,0,0,1,.273-.363,1.877,1.877,0,0,1,.364-.257,1.576,1.576,0,0,1,.439-.144,3.8,3.8,0,0,1,.5-.076h.568Z" transform="translate(-326.757 -164.204)"/>
      <path id="Trazado_102855" data-name="Trazado 102855" d="M357.412,218.056a3.029,3.029,0,0,1-1.515-.364,2.605,2.605,0,0,1-1.022-1.075,3.249,3.249,0,0,1-.386-1.605,2.969,2.969,0,0,1,.826-2.2,3.1,3.1,0,0,1,4.211,0,3.332,3.332,0,0,1,0,4.392A2.855,2.855,0,0,1,357.412,218.056Zm0-.848a1.818,1.818,0,0,0,1.378-.6,2.272,2.272,0,0,0,.545-1.575,2.219,2.219,0,0,0-.545-1.568,1.787,1.787,0,0,0-1.378-.6,1.757,1.757,0,0,0-1.363.6,2.219,2.219,0,0,0-.538,1.568,2.273,2.273,0,0,0,.538,1.575,1.787,1.787,0,0,0,1.356.576Z" transform="translate(-328.089 -165.211)"/>
      <path id="Trazado_102856" data-name="Trazado 102856" d="M365.339,213.15a1.8,1.8,0,0,1,.757-.757,2.151,2.151,0,0,1,1.113-.3v.962a1.908,1.908,0,0,0-1.348.432,1.8,1.8,0,0,0-.469,1.378v3.1H364.37v-5.816h1Z" transform="translate(-330.487 -165.235)"/>
      <path id="Trazado_102857" data-name="Trazado 102857" d="M371.7,217.335a1.515,1.515,0,0,1-1.136-.417,1.567,1.567,0,0,1-.417-1.159v-3.423H369v-.818h.439a.856.856,0,0,0,.644-.2,1.023,1.023,0,0,0,.182-.682V209.58h.954v1.939h1.34v.818h-1.34v3.317a.886.886,0,0,0,.22.636.757.757,0,0,0,.583.227h.538v.818Z" transform="translate(-331.611 -164.626)"/>
      <path id="Trazado_102858" data-name="Trazado 102858" d="M376.709,218.067a1.961,1.961,0,0,1-1.28-.4,1.424,1.424,0,0,1-.5-1.189,1.576,1.576,0,0,1,.167-.757,1.264,1.264,0,0,1,.469-.53,2.849,2.849,0,0,1,.682-.333,6.457,6.457,0,0,1,.886-.2l.939-.159c.348-.061.515-.242.515-.538a1.007,1.007,0,0,0-.364-.863,1.439,1.439,0,0,0-.916-.28,1.515,1.515,0,0,0-.916.273,1.113,1.113,0,0,0-.432.81l-.916-.189a1.765,1.765,0,0,1,.757-1.25,2.681,2.681,0,0,1,1.583-.416,3.188,3.188,0,0,1,.841.106,2.137,2.137,0,0,1,.7.326,1.431,1.431,0,0,1,.507.621,2.34,2.34,0,0,1,.182.962v2.4a.984.984,0,0,0,.129.606.575.575,0,0,0,.462.159h.076v.757h-.507a.962.962,0,0,1-1.1-.757h-.053a2.219,2.219,0,0,1-1.916.848Zm.235-.825a1.568,1.568,0,0,0,1.25-.56,2.325,2.325,0,0,0,.47-1.515l-1.515.3a2.165,2.165,0,0,0-.9.326.84.84,0,0,0-.008,1.272,1.135,1.135,0,0,0,.7.159Z" transform="translate(-333.049 -165.222)"/>
      <path id="Trazado_102859" data-name="Trazado 102859" d="M387.02,210.988a2.545,2.545,0,0,1,1.924.841,3.438,3.438,0,0,1,0,4.377,2.507,2.507,0,0,1-1.924.841,2.317,2.317,0,0,1-1.242-.341,2.166,2.166,0,0,1-.833-.916v1.128h-.984V207.83h1.015v4.385a2.105,2.105,0,0,1,.833-.894A2.326,2.326,0,0,1,387.02,210.988Zm-.227,5.172a1.81,1.81,0,0,0,1.363-.6,2.469,2.469,0,0,0,0-3.1,1.8,1.8,0,0,0-1.363-.591,1.742,1.742,0,0,0-1.348.613,2.393,2.393,0,0,0,0,3.029,1.727,1.727,0,0,0,1.318.636Z" transform="translate(-335.242 -164.201)"/>
      <path id="Trazado_102860" data-name="Trazado 102860" d="M393.66,216.908V207.82h1.015v9.088Z" transform="translate(-337.596 -164.199)"/>
      <path id="Trazado_102861" data-name="Trazado 102861" d="M402.733,214.907v.28h-4.544a2.037,2.037,0,0,0,.56,1.515,1.8,1.8,0,0,0,1.325.523,1.757,1.757,0,0,0,1.621-1.053l.924.2a2.583,2.583,0,0,1-.992,1.25,2.718,2.718,0,0,1-1.515.454,2.81,2.81,0,0,1-2.09-.81,3.438,3.438,0,0,1,0-4.415,2.749,2.749,0,0,1,2.06-.818,2.605,2.605,0,0,1,1.954.757A2.954,2.954,0,0,1,402.733,214.907Zm-2.7-2.12a1.8,1.8,0,0,0-1.212.416,1.916,1.916,0,0,0-.606,1.2H401.7a1.734,1.734,0,0,0-.507-1.2,1.636,1.636,0,0,0-1.159-.439Z" transform="translate(-338.46 -165.22)"/>
      <path id="Trazado_102862" data-name="Trazado 102862" d="M326,228h1.053v8.33h-1.121l-4.491-6.74v6.74H320.4V228h1.106L326,234.71Z" transform="translate(-319.816 -169.097)"/>
      <path id="Trazado_102863" data-name="Trazado 102863" d="M337.123,234.077v.28h-4.544a2.037,2.037,0,0,0,.56,1.515,1.817,1.817,0,0,0,1.325.523,1.757,1.757,0,0,0,1.621-1.053l.924.2a2.583,2.583,0,0,1-.992,1.25,2.719,2.719,0,0,1-1.515.454,2.81,2.81,0,0,1-2.09-.81,3.446,3.446,0,0,1,0-4.423,2.787,2.787,0,0,1,2.06-.81,2.628,2.628,0,0,1,1.961.757A2.969,2.969,0,0,1,337.123,234.077Zm-2.7-2.12a1.78,1.78,0,0,0-1.2.417,1.885,1.885,0,0,0-.613,1.2h3.484a1.734,1.734,0,0,0-.507-1.2,1.636,1.636,0,0,0-1.159-.394Z" transform="translate(-322.537 -169.872)"/>
      <path id="Trazado_102864" data-name="Trazado 102864" d="M344.6,231.33h1.022v5.8h-.985v-.757a1.864,1.864,0,0,1-.719.651,2.273,2.273,0,0,1-1.022.227,2.029,2.029,0,0,1-1.462-.523,1.984,1.984,0,0,1-.545-1.515V231.3h1.022v3.688a1.386,1.386,0,0,0,.356,1.037,1.257,1.257,0,0,0,.916.348,1.4,1.4,0,0,0,1.03-.4,1.674,1.674,0,0,0,.409-1.189Z" transform="translate(-324.787 -169.897)"/>
      <path id="Trazado_102865" data-name="Trazado 102865" d="M351.461,236.515a1.515,1.515,0,0,1-1.136-.417,1.6,1.6,0,0,1-.417-1.159v-3.423H348.72V230.7h.439a.84.84,0,0,0,.644-.2,1.015,1.015,0,0,0,.189-.682V228.76h.947V230.7h1.34v.818h-1.34v3.317a.863.863,0,0,0,.227.636.758.758,0,0,0,.583.227h.53v.818Z" transform="translate(-326.689 -169.281)"/>
      <path id="Trazado_102866" data-name="Trazado 102866" d="M356.379,232.35a1.749,1.749,0,0,1,.757-.757,2.151,2.151,0,0,1,1.113-.3v.962a1.909,1.909,0,0,0-1.348.432,1.8,1.8,0,0,0-.47,1.378v3.067H355.41v-5.816h1Z" transform="translate(-328.313 -169.895)"/>
      <path id="Trazado_102867" data-name="Trazado 102867" d="M361.819,237.237a2.007,2.007,0,0,1-1.28-.4,1.424,1.424,0,0,1-.5-1.189,1.666,1.666,0,0,1,.159-.757,1.34,1.34,0,0,1,.477-.53,2.846,2.846,0,0,1,.682-.333,7.682,7.682,0,0,1,.886-.212l.939-.151c.348-.061.515-.242.515-.538a1.007,1.007,0,0,0-.364-.863,1.439,1.439,0,0,0-.916-.28,1.56,1.56,0,0,0-.916.265,1.143,1.143,0,0,0-.432.818l-.924-.2a1.8,1.8,0,0,1,.757-1.242,2.681,2.681,0,0,1,1.583-.417,3.189,3.189,0,0,1,.841.106,2.136,2.136,0,0,1,.7.326,1.431,1.431,0,0,1,.507.621,2.475,2.475,0,0,1,.174.962v2.37a.977.977,0,0,0,.136.606.575.575,0,0,0,.462.159h.091v.757h-.507a.962.962,0,0,1-1.1-.757h-.053a2.2,2.2,0,0,1-1.924.878Zm.235-.826a1.552,1.552,0,0,0,1.249-.568,2.332,2.332,0,0,0,.47-1.515l-1.515.3a2.067,2.067,0,0,0-.9.326.84.84,0,0,0-.008,1.272A1.136,1.136,0,0,0,362.053,236.412Z" transform="translate(-329.435 -169.874)"/>
      <path id="Trazado_102868" data-name="Trazado 102868" d="M369,236.088V227h1.03v9.088Z" transform="translate(-331.611 -168.854)"/>
    </g>
    <g id="Grupo_57727" data-name="Grupo 57727" transform="translate(242.438 88.287)">
      <path id="Trazado_102869" data-name="Trazado 102869" d="M323.689,117.109a2.582,2.582,0,0,1,1.969.757,2.794,2.794,0,0,1,.757,1.969,2.659,2.659,0,0,1-.757,1.954,2.6,2.6,0,0,1-1.969.757H321.9v3.029H320.13v-8.467Zm-.3,4a1.272,1.272,0,0,0,.977-.333,1.249,1.249,0,0,0,.326-.924,1.272,1.272,0,0,0-.326-.916,1.3,1.3,0,0,0-.977-.341h-1.515v2.514Z" transform="translate(-320.13 -116.707)"/>
      <path id="Trazado_102870" data-name="Trazado 102870" d="M332.482,126.546a3.9,3.9,0,0,1-1.719-.371,2.8,2.8,0,0,1-1.181-1.1,3.225,3.225,0,0,1-.432-1.7,3.029,3.029,0,0,1,.924-2.272,3.855,3.855,0,0,1,4.824,0,3.363,3.363,0,0,1,0,4.627A3.423,3.423,0,0,1,332.482,126.546Zm0-1.356a1.568,1.568,0,0,0,1.2-.5,1.848,1.848,0,0,0,.454-1.31,1.885,1.885,0,0,0-.454-1.318,1.59,1.59,0,0,0-1.2-.492,1.514,1.514,0,0,0-1.166.5,2.113,2.113,0,0,0,0,2.62,1.515,1.515,0,0,0,1.151.5Z" transform="translate(-322.319 -117.473)"/>
      <path id="Trazado_102871" data-name="Trazado 102871" d="M341.613,126.533a3.461,3.461,0,0,1-1.78-.424,1.818,1.818,0,0,1-.863-1.272l1.424-.4a1.144,1.144,0,0,0,1.219.909,1.2,1.2,0,0,0,.621-.144.477.477,0,0,0,.242-.47.523.523,0,0,0-.1-.311.848.848,0,0,0-.31-.227l-.417-.159-.545-.159a5.637,5.637,0,0,1-.56-.174,3.592,3.592,0,0,1-.538-.227,2.028,2.028,0,0,1-.439-.31,1.263,1.263,0,0,1-.333-.477,1.75,1.75,0,0,1-.114-.651,1.56,1.56,0,0,1,.659-1.363,2.984,2.984,0,0,1,1.727-.462,3.029,3.029,0,0,1,1.59.394,1.757,1.757,0,0,1,.818,1.219l-1.325.3a1.022,1.022,0,0,0-1.075-.757,1.25,1.25,0,0,0-.6.136.447.447,0,0,0-.242.409.483.483,0,0,0,0,.182.363.363,0,0,0,.121.144l.174.114a1.123,1.123,0,0,0,.242.1,2.186,2.186,0,0,0,.265.076l.31.083.318.083a5.3,5.3,0,0,1,.576.174,4,4,0,0,1,.523.25,2.015,2.015,0,0,1,.454.356,1.733,1.733,0,0,1,.3.507,1.877,1.877,0,0,1,.114.674,1.81,1.81,0,0,1-.2.878,1.514,1.514,0,0,1-.56.6,2.687,2.687,0,0,1-.757.318A4.12,4.12,0,0,1,341.613,126.533Z" transform="translate(-324.702 -117.46)"/>
      <path id="Trazado_102872" data-name="Trazado 102872" d="M348.212,118.541a.975.975,0,0,1-.7-1.674.969.969,0,0,1,.7-.288.984.984,0,0,1,0,1.961Zm-.871,6.99v-6.059h1.719v6.059Z" transform="translate(-326.705 -116.58)"/>
      <path id="Trazado_102873" data-name="Trazado 102873" d="M354.02,125.823a1.825,1.825,0,0,1-1.378-.492,1.939,1.939,0,0,1-.485-1.409v-2.87h-1.2v-1.31h.386a.977.977,0,0,0,.757-.257,1.272,1.272,0,0,0,.242-.9v-.8h1.515v1.961h1.257v1.31h-1.257v2.688c0,.53.235.757.7.757h.553v1.3Z" transform="translate(-327.612 -116.871)"/>
      <path id="Trazado_102874" data-name="Trazado 102874" d="M359.024,118.541a.954.954,0,0,1-.7-.288.924.924,0,0,1-.288-.7.947.947,0,0,1,.288-.689.977.977,0,0,1,.7-.288.962.962,0,0,1,.689.288.977.977,0,0,1,0,1.386A.962.962,0,0,1,359.024,118.541Zm-.871,6.99v-6.058h1.719v6.058Z" transform="translate(-329.33 -116.58)"/>
      <path id="Trazado_102875" data-name="Trazado 102875" d="M366.442,120.37h1.81l-2.6,6.058H364.14l-2.56-6.058h1.833l1.515,4.158Z" transform="translate(-330.19 -117.5)"/>
      <path id="Trazado_102876" data-name="Trazado 102876" d="M373.931,126.545a3.915,3.915,0,0,1-1.727-.371,2.741,2.741,0,0,1-1.174-1.1,3.226,3.226,0,0,1-.432-1.7,2.961,2.961,0,0,1,.924-2.272,3.84,3.84,0,0,1,4.817,0,3.362,3.362,0,0,1,0,4.627A3.4,3.4,0,0,1,373.931,126.545Zm0-1.356a1.514,1.514,0,0,0,1.2-.5,1.825,1.825,0,0,0,.462-1.31,1.855,1.855,0,0,0-.462-1.318,1.568,1.568,0,0,0-1.2-.485,1.515,1.515,0,0,0-1.166.5,2.113,2.113,0,0,0,0,2.62A1.515,1.515,0,0,0,373.931,125.19Z" transform="translate(-332.378 -117.473)"/>
    </g>
    <g id="Grupo_57728" data-name="Grupo 57728" transform="translate(327.377 113.763)">
      <path id="Trazado_102877" data-name="Trazado 102877" d="M438.616,159.55l-.712-1.992h-3.787l-.712,1.992H432.3l3.075-8.33h1.265l3.067,8.33Zm-4.142-2.923h3.1l-1.552-4.339Z" transform="translate(-432.292 -150.463)"/>
      <path id="Trazado_102878" data-name="Trazado 102878" d="M447.029,153.378a2.545,2.545,0,0,1,1.924.841,3.438,3.438,0,0,1,0,4.377,2.507,2.507,0,0,1-1.924.841,2.317,2.317,0,0,1-1.242-.341,2.165,2.165,0,0,1-.833-.916v1.128H444V150.22h1.015V154.6a2.151,2.151,0,0,1,.833-.894A2.324,2.324,0,0,1,447.029,153.378Zm-.227,5.165a1.8,1.8,0,0,0,1.363-.591,2.188,2.188,0,0,0,.545-1.515,2.219,2.219,0,0,0-.545-1.515,1.8,1.8,0,0,0-1.363-.591,1.742,1.742,0,0,0-1.348.613,2.393,2.393,0,0,0,0,3.029,1.749,1.749,0,0,0,1.363.568Z" transform="translate(-435.132 -150.22)"/>
      <path id="Trazado_102879" data-name="Trazado 102879" d="M457.3,154.535h1.022v5.816h-.977v-.757a1.833,1.833,0,0,1-.757.651,2.2,2.2,0,0,1-1.015.227,2.022,2.022,0,0,1-1.462-.522,1.962,1.962,0,0,1-.553-1.515V154.52h1.022v3.688a1.363,1.363,0,0,0,.364,1.037,1.227,1.227,0,0,0,.909.348,1.408,1.408,0,0,0,1.037-.4,1.636,1.636,0,0,0,.4-1.189Z" transform="translate(-437.45 -151.264)"/>
      <path id="Trazado_102880" data-name="Trazado 102880" d="M463.6,155.55a1.8,1.8,0,0,1,.757-.757,2.151,2.151,0,0,1,1.113-.3v.962a1.909,1.909,0,0,0-1.348.432,1.8,1.8,0,0,0-.462,1.378v3.1H462.6v-5.816h1Z" transform="translate(-439.646 -151.256)"/>
      <path id="Trazado_102881" data-name="Trazado 102881" d="M468.94,155.55a1.772,1.772,0,0,1,.719-.757,2.2,2.2,0,0,1,1.121-.3v.962a1.931,1.931,0,0,0-1.356.432,1.832,1.832,0,0,0-.462,1.378v3.1H467.94v-5.816h1Z" transform="translate(-440.942 -151.256)"/>
      <path id="Trazado_102882" data-name="Trazado 102882" d="M473.779,152.3a.659.659,0,0,1-.485-.2.674.674,0,0,1-.2-.492.659.659,0,0,1,.2-.485.7.7,0,0,1,.969,0,.659.659,0,0,1,.2.485.674.674,0,0,1-.2.492.659.659,0,0,1-.485.2Zm-.515,7.179v-5.816h1.022v5.816Z" transform="translate(-442.192 -150.39)"/>
      <path id="Trazado_102883" data-name="Trazado 102883" d="M481.537,150.22h1.022v9.088h-.992v-1.128a2.143,2.143,0,0,1-.826.916,2.309,2.309,0,0,1-1.234.341,2.619,2.619,0,0,1-1.053-.22,2.552,2.552,0,0,1-.863-.606,2.7,2.7,0,0,1-.583-.962,3.326,3.326,0,0,1-.22-1.242,3.082,3.082,0,0,1,.757-2.189,2.56,2.56,0,0,1,1.931-.841,2.317,2.317,0,0,1,1.219.333,2.181,2.181,0,0,1,.833.886Zm-1.84,8.33a1.765,1.765,0,0,0,1.356-.606,2.416,2.416,0,0,0,0-3.029,1.827,1.827,0,0,0-2.711-.023,2.189,2.189,0,0,0-.553,1.515,2.159,2.159,0,0,0,.553,1.515,1.772,1.772,0,0,0,1.356.621Z" transform="translate(-443.088 -150.22)"/>
      <path id="Trazado_102884" data-name="Trazado 102884" d="M489.442,160.434a3.03,3.03,0,0,1-1.515-.363,2.59,2.59,0,0,1-1.053-1.053,3.25,3.25,0,0,1-.386-1.606,2.969,2.969,0,0,1,.825-2.2,3.09,3.09,0,0,1,4.2,0,3.332,3.332,0,0,1,0,4.392A2.84,2.84,0,0,1,489.442,160.434Zm0-.848a1.8,1.8,0,0,0,1.378-.6,2.272,2.272,0,0,0,.545-1.575,2.219,2.219,0,0,0-.545-1.568,1.78,1.78,0,0,0-1.378-.6,1.757,1.757,0,0,0-1.363.6,2.565,2.565,0,0,0,0,3.143,1.787,1.787,0,0,0,1.356.6Z" transform="translate(-445.443 -151.232)"/>
      <path id="Trazado_102885" data-name="Trazado 102885" d="M436.735,170.42a2.454,2.454,0,0,1,1.31.348,2.326,2.326,0,0,1,.871.924,2.718,2.718,0,0,1,.311,1.287,2.544,2.544,0,0,1-.689,1.81,2.37,2.37,0,0,1-1.8.757H434.66v3.234H433.6v-8.33Zm-.151,4.173a1.515,1.515,0,0,0,1.159-.447,1.847,1.847,0,0,0,0-2.355,1.515,1.515,0,0,0-1.159-.454H434.66v3.256Z" transform="translate(-432.608 -155.122)"/>
      <path id="Trazado_102886" data-name="Trazado 102886" d="M447.393,176.512v.28h-4.544a2.037,2.037,0,0,0,.56,1.515,1.817,1.817,0,0,0,1.325.523,1.765,1.765,0,0,0,.962-.28,1.847,1.847,0,0,0,.666-.757l.916.2a2.582,2.582,0,0,1-.992,1.25,2.719,2.719,0,0,1-1.515.454,2.81,2.81,0,0,1-2.09-.81,3.446,3.446,0,0,1,0-4.423,2.787,2.787,0,0,1,2.06-.81,2.628,2.628,0,0,1,1.961.757A2.976,2.976,0,0,1,447.393,176.512Zm-2.7-2.12a1.779,1.779,0,0,0-1.2.416,1.886,1.886,0,0,0-.614,1.2h3.484a1.734,1.734,0,0,0-.507-1.2A1.636,1.636,0,0,0,444.7,174.391Z" transform="translate(-434.617 -155.905)"/>
      <path id="Trazado_102887" data-name="Trazado 102887" d="M452.963,179.638a2.786,2.786,0,0,1-1.575-.417,1.742,1.742,0,0,1-.757-1.2l.894-.257a1.226,1.226,0,0,0,.477.81,1.514,1.514,0,0,0,.954.288,2.181,2.181,0,0,0,.56-.076.908.908,0,0,0,.424-.288.757.757,0,0,0,.174-.53,1.149,1.149,0,0,0-.045-.242.89.89,0,0,0-.1-.189.485.485,0,0,0-.167-.159l-.2-.129-.265-.106-.28-.1-.326-.091-.341-.1a5.729,5.729,0,0,1-.6-.212,2.53,2.53,0,0,1-.492-.28,1.143,1.143,0,0,1-.386-.462,1.561,1.561,0,0,1-.121-.651,1.515,1.515,0,0,1,.28-.924,1.613,1.613,0,0,1,.757-.553,2.954,2.954,0,0,1,1.038-.167,2.544,2.544,0,0,1,1.416.379,1.59,1.59,0,0,1,.7,1.136l-.841.212a1.106,1.106,0,0,0-.439-.757,1.416,1.416,0,0,0-.841-.25,1.446,1.446,0,0,0-.757.2.7.7,0,0,0-.326.629.576.576,0,0,0,.091.318.812.812,0,0,0,.174.227,1.137,1.137,0,0,0,.318.182l.341.121.424.106h.091c.227.053.417.106.56.151a4.064,4.064,0,0,1,.5.212,1.59,1.59,0,0,1,.454.318,1.46,1.46,0,0,1,.288.454,1.622,1.622,0,0,1,.113.621,1.651,1.651,0,0,1-.174.757,1.364,1.364,0,0,1-.477.538,2.158,2.158,0,0,1-.674.288A3.09,3.09,0,0,1,452.963,179.638Z" transform="translate(-436.741 -155.896)"/>
      <path id="Trazado_102888" data-name="Trazado 102888" d="M459.861,179.639a1.939,1.939,0,0,1-1.272-.4,1.424,1.424,0,0,1-.5-1.189,1.663,1.663,0,0,1,.159-.757,1.317,1.317,0,0,1,.47-.53,2.765,2.765,0,0,1,.689-.333,6.058,6.058,0,0,1,.879-.2l.947-.159c.341-.061.515-.242.515-.538a1.007,1.007,0,0,0-.363-.863,1.659,1.659,0,0,0-1.833,0,1.068,1.068,0,0,0-.432.81l-.924-.189a1.764,1.764,0,0,1,.757-1.25,2.7,2.7,0,0,1,1.583-.417,3.294,3.294,0,0,1,.848.106,2.273,2.273,0,0,1,.7.326,1.469,1.469,0,0,1,.5.621,2.342,2.342,0,0,1,.182.962v2.4a1.037,1.037,0,0,0,.129.606.576.576,0,0,0,.462.159h.091v.757h-.507a.962.962,0,0,1-1.1-.757h-.038a2.211,2.211,0,0,1-1.946.841Zm.235-.825a1.515,1.515,0,0,0,1.25-.56,2.325,2.325,0,0,0,.477-1.515l-1.515.3a1.992,1.992,0,0,0-.9.326.847.847,0,0,0-.015,1.272A1.166,1.166,0,0,0,460.1,178.814Z" transform="translate(-438.55 -155.898)"/>
      <path id="Trazado_102889" data-name="Trazado 102889" d="M471.037,169.42h1.022v9.088h-.992v-1.128a2.143,2.143,0,0,1-.826.916,2.31,2.31,0,0,1-1.234.341,2.62,2.62,0,0,1-1.053-.22,2.551,2.551,0,0,1-.863-.606,2.74,2.74,0,0,1-.583-.954,3.4,3.4,0,0,1-.22-1.25,3.083,3.083,0,0,1,.757-2.189,2.56,2.56,0,0,1,1.931-.841,2.317,2.317,0,0,1,1.219.333,2.181,2.181,0,0,1,.833.886Zm-1.84,8.33a1.734,1.734,0,0,0,1.356-.606,2.416,2.416,0,0,0,0-3.029,1.827,1.827,0,0,0-2.711-.023,2.188,2.188,0,0,0-.553,1.552,2.158,2.158,0,0,0,.553,1.515,1.772,1.772,0,0,0,1.356.583Z" transform="translate(-440.54 -154.88)"/>
      <path id="Trazado_102890" data-name="Trazado 102890" d="M478.945,179.634a3.03,3.03,0,0,1-1.515-.363,2.591,2.591,0,0,1-1.045-1.053,3.249,3.249,0,0,1-.386-1.605,2.969,2.969,0,0,1,.825-2.2,3.09,3.09,0,0,1,4.2,0,3.332,3.332,0,0,1,0,4.392A2.84,2.84,0,0,1,478.945,179.634Zm0-.848a1.8,1.8,0,0,0,1.378-.6,2.272,2.272,0,0,0,.545-1.575,2.219,2.219,0,0,0-.545-1.568,1.78,1.78,0,0,0-1.378-.6,1.757,1.757,0,0,0-1.363.6,2.565,2.565,0,0,0,0,3.143,1.787,1.787,0,0,0,1.356.6Z" transform="translate(-442.897 -155.892)"/>
      <path id="Trazado_102891" data-name="Trazado 102891" d="M438.616,197.953l-.712-1.984h-3.787l-.712,1.992H432.3l3.075-8.33h1.265l3.067,8.33Zm-4.142-2.931h3.1l-1.552-4.355Z" transform="translate(-432.292 -159.784)"/>
      <path id="Trazado_102892" data-name="Trazado 102892" d="M446.7,192.789a2.052,2.052,0,0,1,1.469.53,1.969,1.969,0,0,1,.545,1.515v3.915H447.7v-3.688a1.386,1.386,0,0,0-.356-1.038,1.265,1.265,0,0,0-.909-.341,1.409,1.409,0,0,0-1.038.4,1.6,1.6,0,0,0-.409,1.189v3.476H444v-5.816h1.022v.757A1.939,1.939,0,0,1,446.7,192.789Z" transform="translate(-435.132 -160.551)"/>
      <path id="Trazado_102893" data-name="Trazado 102893" d="M454.411,198.13a1.514,1.514,0,0,1-1.136-.417,1.6,1.6,0,0,1-.417-1.159v-3.438H451.67V192.3h.439a.841.841,0,0,0,.644-.2,1.015,1.015,0,0,0,.189-.682V190.36h.947V192.3h1.34v.818h-1.34v3.317a.863.863,0,0,0,.227.636.758.758,0,0,0,.583.227h.53v.818Z" transform="translate(-436.993 -159.962)"/>
      <path id="Trazado_102894" data-name="Trazado 102894" d="M458.779,190.7a.659.659,0,0,1-.485-.2.674.674,0,0,1-.2-.492.658.658,0,0,1,.2-.485.681.681,0,0,1,.485-.2.7.7,0,0,1,.485.2.659.659,0,0,1,.2.485.7.7,0,0,1-.689.7Zm-.523,7.179v-5.816h1.03v5.816Z" transform="translate(-438.551 -159.709)"/>
      <path id="Trazado_102895" data-name="Trazado 102895" d="M464.687,198.825a2.78,2.78,0,0,1-2.083-.833,2.976,2.976,0,0,1-.825-2.181,2.946,2.946,0,0,1,.825-2.181,2.772,2.772,0,0,1,2.083-.841,2.817,2.817,0,0,1,1.681.515,2.522,2.522,0,0,1,.977,1.409l-.954.159a1.742,1.742,0,0,0-1.712-1.227,1.719,1.719,0,0,0-1.348.6,2.575,2.575,0,0,0,0,3.128,1.719,1.719,0,0,0,1.348.6,1.742,1.742,0,0,0,1.712-1.227l.954.159a2.514,2.514,0,0,1-.984,1.416A2.81,2.81,0,0,1,464.687,198.825Z" transform="translate(-439.446 -160.551)"/>
      <path id="Trazado_102896" data-name="Trazado 102896" d="M474.729,192.933h1.022v5.816H474.8v-.757a1.863,1.863,0,0,1-.719.651,2.271,2.271,0,0,1-1.022.227,2.007,2.007,0,0,1-1.462-.53,1.954,1.954,0,0,1-.545-1.515V192.91h1.022V196.6a1.386,1.386,0,0,0,.356,1.038,1.257,1.257,0,0,0,.916.348,1.393,1.393,0,0,0,1.03-.4,1.674,1.674,0,0,0,.409-1.189Z" transform="translate(-441.695 -160.58)"/>
      <path id="Trazado_102897" data-name="Trazado 102897" d="M481.211,198.84a1.984,1.984,0,0,1-1.272-.4,1.424,1.424,0,0,1-.5-1.189,1.726,1.726,0,0,1,.159-.757,1.318,1.318,0,0,1,.477-.523,2.591,2.591,0,0,1,.682-.333,6.987,6.987,0,0,1,.886-.212l.939-.151c.341-.061.515-.242.515-.538a1.007,1.007,0,0,0-.364-.863,1.461,1.461,0,0,0-.924-.28,1.514,1.514,0,0,0-.909.265,1.144,1.144,0,0,0-.432.818l-.924-.2a1.764,1.764,0,0,1,.757-1.242,2.7,2.7,0,0,1,1.583-.417,3.294,3.294,0,0,1,.848.106,2.271,2.271,0,0,1,.7.326,1.469,1.469,0,0,1,.5.621,2.341,2.341,0,0,1,.182.962v2.4a.977.977,0,0,0,.136.606.561.561,0,0,0,.454.159h.1v.757h-.515a.969.969,0,0,1-1.1-.757h-.045A2.227,2.227,0,0,1,481.211,198.84Zm.242-.825a1.515,1.515,0,0,0,1.242-.568,2.272,2.272,0,0,0,.477-1.515l-1.515.3a1.992,1.992,0,0,0-.9.326.847.847,0,0,0-.015,1.272,1.174,1.174,0,0,0,.712.189Z" transform="translate(-443.732 -160.558)"/>
      <path id="Trazado_102898" data-name="Trazado 102898" d="M492.4,188.62h1.022v9.088h-.954v-1.128a2.144,2.144,0,0,1-.826.916,2.272,2.272,0,0,1-1.227.341,2.659,2.659,0,0,1-1.06-.22,2.628,2.628,0,0,1-.863-.606,2.7,2.7,0,0,1-.583-.962,3.474,3.474,0,0,1-.22-1.242,3.082,3.082,0,0,1,.757-2.189,2.567,2.567,0,0,1,1.939-.841,2.317,2.317,0,0,1,1.212.333,2.18,2.18,0,0,1,.833.886Zm-1.833,8.33a1.757,1.757,0,0,0,1.348-.606,2.416,2.416,0,0,0,0-3.029,1.749,1.749,0,0,0-1.348-.613,1.78,1.78,0,0,0-1.363.591,2.446,2.446,0,0,0,0,3.1,1.78,1.78,0,0,0,1.363.553Z" transform="translate(-445.734 -159.539)"/>
      <path id="Trazado_102899" data-name="Trazado 102899" d="M500.292,198.833a3.029,3.029,0,0,1-1.515-.364,2.561,2.561,0,0,1-1.053-1.053,3.248,3.248,0,0,1-.386-1.606,2.961,2.961,0,0,1,.825-2.2,2.855,2.855,0,0,1,2.1-.825,2.885,2.885,0,0,1,2.113.825,3.347,3.347,0,0,1,0,4.392,2.832,2.832,0,0,1-2.083.825Zm0-.848a1.787,1.787,0,0,0,1.371-.6,2.272,2.272,0,0,0,.553-1.575,2.226,2.226,0,0,0-.553-1.568,1.764,1.764,0,0,0-1.371-.6,1.735,1.735,0,0,0-1.363.6,2.219,2.219,0,0,0-.545,1.568,2.272,2.272,0,0,0,.545,1.575,1.765,1.765,0,0,0,1.363.6Z" transform="translate(-448.076 -160.551)"/>
      <path id="Trazado_102900" data-name="Trazado 102900" d="M435.954,217.272a3.787,3.787,0,0,1-2.173-.591,2.484,2.484,0,0,1-1.09-1.613l1.075-.257a1.742,1.742,0,0,0,.757,1.136,2.514,2.514,0,0,0,1.477.417,2.56,2.56,0,0,0,.545-.053,2.271,2.271,0,0,0,.5-.151,1.8,1.8,0,0,0,.416-.273,1.037,1.037,0,0,0,.265-.409,1.439,1.439,0,0,0,.1-.553,1.3,1.3,0,0,0-.076-.394,1.1,1.1,0,0,0-.167-.311.916.916,0,0,0-.28-.25,2.478,2.478,0,0,0-.757-.371l-.447-.136-.477-.136h-.091l-.553-.151-.523-.182a3.409,3.409,0,0,1-.492-.227,3.747,3.747,0,0,1-.409-.288,1.513,1.513,0,0,1-.333-.371,2.158,2.158,0,0,1-.28-1.06,2.121,2.121,0,0,1,.386-1.28,2.272,2.272,0,0,1,1-.757,3.636,3.636,0,0,1,1.378-.25,3.786,3.786,0,0,1,2.007.515,2.272,2.272,0,0,1,1.06,1.515l-1.03.257a1.56,1.56,0,0,0-.7-1.022,2.363,2.363,0,0,0-1.3-.348,2.538,2.538,0,0,0-.644.083,1.794,1.794,0,0,0-.553.235,1.159,1.159,0,0,0-.4.432,1.334,1.334,0,0,0-.144.636.922.922,0,0,0,.061.356,1.08,1.08,0,0,0,.144.28,1.122,1.122,0,0,0,.258.227,2.849,2.849,0,0,0,.311.189,3.972,3.972,0,0,0,.386.144l.417.136.454.121a9.764,9.764,0,0,1,1.605.53,2.037,2.037,0,0,1,1.234,1.515,2.757,2.757,0,0,1,0,.363,2.318,2.318,0,0,1-.242,1.075,2.022,2.022,0,0,1-.651.757,3.409,3.409,0,0,1-.939.416A4.354,4.354,0,0,1,435.954,217.272Z" transform="translate(-432.387 -164.427)"/>
      <path id="Trazado_102901" data-name="Trazado 102901" d="M446.752,212.135h1.022v5.816H446.8v-.757a1.809,1.809,0,0,1-.719.651,2.22,2.22,0,0,1-1.015.227,2.037,2.037,0,0,1-1.469-.523,1.984,1.984,0,0,1-.545-1.515V212.12h1.022v3.7a1.386,1.386,0,0,0,.356,1.038,1.257,1.257,0,0,0,.916.348,1.394,1.394,0,0,0,1.03-.4,1.636,1.636,0,0,0,.409-1.189Z" transform="translate(-434.9 -165.243)"/>
      <path id="Trazado_102902" data-name="Trazado 102902" d="M454.3,218.065a2.779,2.779,0,0,1-2.083-.833,3.3,3.3,0,0,1,0-4.362,3.029,3.029,0,0,1,3.787-.326,2.522,2.522,0,0,1,.977,1.409l-.954.159a1.742,1.742,0,0,0-1.712-1.227,1.719,1.719,0,0,0-1.348.6,2.575,2.575,0,0,0,0,3.128,1.719,1.719,0,0,0,1.348.6,1.742,1.742,0,0,0,1.712-1.227l.954.159a2.515,2.515,0,0,1-.984,1.416,2.81,2.81,0,0,1-1.7.507Z" transform="translate(-436.926 -165.22)"/>
      <path id="Trazado_102903" data-name="Trazado 102903" d="M461.2,209.9a.659.659,0,0,1-.485-.2.674.674,0,0,1-.2-.492.659.659,0,0,1,.2-.485.7.7,0,0,1,.969,0,.659.659,0,0,1,.2.485.674.674,0,0,1-.2.492.659.659,0,0,1-.485.2Zm-.515,7.179v-5.816h1.03v5.816Z" transform="translate(-439.139 -164.369)"/>
      <path id="Trazado_102904" data-name="Trazado 102904" d="M467.133,218.063a3.029,3.029,0,0,1-1.515-.363,2.659,2.659,0,0,1-1.053-1.053,3.249,3.249,0,0,1-.386-1.605,3.029,3.029,0,0,1,.825-2.2,3.1,3.1,0,0,1,4.211,0,3.332,3.332,0,0,1,0,4.392A2.84,2.84,0,0,1,467.133,218.063Zm0-.848a1.8,1.8,0,0,0,1.378-.6,2.272,2.272,0,0,0,.545-1.575,2.219,2.219,0,0,0-.545-1.568,1.78,1.78,0,0,0-1.378-.6,1.757,1.757,0,0,0-1.363.6,2.565,2.565,0,0,0,0,3.143,1.787,1.787,0,0,0,1.356.576Z" transform="translate(-440.029 -165.218)"/>
      <path id="Trazado_102905" data-name="Trazado 102905" d="M437.621,228v.969h-2.136v7.361h-1.053v-7.346H432.29V228Z" transform="translate(-432.29 -169.097)"/>
      <path id="Trazado_102906" data-name="Trazado 102906" d="M441.189,232.35a1.749,1.749,0,0,1,.757-.757,2.151,2.151,0,0,1,1.113-.3v.962a1.908,1.908,0,0,0-1.348.432,1.8,1.8,0,0,0-.47,1.378v3.067H440.22v-5.816h1Z" transform="translate(-434.215 -169.895)"/>
      <path id="Trazado_102907" data-name="Trazado 102907" d="M445.987,229.1a.7.7,0,0,1-.7-.7.659.659,0,0,1,.2-.485.7.7,0,0,1,.492-.2.674.674,0,0,1,.477.2.659.659,0,0,1,.2.485.674.674,0,0,1-.2.492.651.651,0,0,1-.477.2Zm-.523,7.179v-5.816h1.03v5.8Z" transform="translate(-435.445 -169.029)"/>
      <path id="Trazado_102908" data-name="Trazado 102908" d="M451.315,237.238a2.748,2.748,0,0,1-1.568-.417,1.726,1.726,0,0,1-.757-1.2l.894-.257a1.227,1.227,0,0,0,.477.81,1.515,1.515,0,0,0,.954.288,2.134,2.134,0,0,0,.56-.076.909.909,0,0,0,.424-.288.757.757,0,0,0,.174-.53.811.811,0,0,0-.045-.242.888.888,0,0,0-.1-.189.424.424,0,0,0-.167-.159,1.242,1.242,0,0,0-.2-.129l-.265-.106-.28-.1-.326-.091-.341-.1c-.242-.076-.439-.144-.6-.212a2.531,2.531,0,0,1-.492-.28,1.127,1.127,0,0,1-.379-.462,1.446,1.446,0,0,1-.129-.651,1.515,1.515,0,0,1,.28-.931,1.628,1.628,0,0,1,.757-.545,2.879,2.879,0,0,1,1.03-.167,2.545,2.545,0,0,1,1.416.379,1.59,1.59,0,0,1,.7,1.136l-.841.212a1.083,1.083,0,0,0-.439-.757,1.408,1.408,0,0,0-.833-.25,1.454,1.454,0,0,0-.757.2.7.7,0,0,0-.318.629.576.576,0,0,0,.083.318.81.81,0,0,0,.174.227.986.986,0,0,0,.318.174,3.256,3.256,0,0,0,.341.129l.432.106h.083l.56.159a3.516,3.516,0,0,1,.507.212,1.65,1.65,0,0,1,.447.318,1.514,1.514,0,0,1,.288.447,1.688,1.688,0,0,1,.114.629,1.65,1.65,0,0,1-.174.757,1.332,1.332,0,0,1-.469.53,2.12,2.12,0,0,1-.682.3A3.091,3.091,0,0,1,451.315,237.238Z" transform="translate(-436.343 -169.875)"/>
      <path id="Trazado_102909" data-name="Trazado 102909" d="M458.584,236.515a1.515,1.515,0,0,1-1.136-.417,1.59,1.59,0,0,1-.409-1.159v-3.423H455.85V230.7h.432a.833.833,0,0,0,.644-.2.977.977,0,0,0,.189-.682V228.76h.954V230.7H459.4v.818h-1.333v3.317a.856.856,0,0,0,.22.636.758.758,0,0,0,.583.227h.53v.818Z" transform="translate(-438.008 -169.281)"/>
      <path id="Trazado_102910" data-name="Trazado 102910" d="M467.352,234.082v.28h-4.544a2.037,2.037,0,0,0,.56,1.515,1.818,1.818,0,0,0,1.325.522,1.764,1.764,0,0,0,.962-.28,1.847,1.847,0,0,0,.666-.757l.924.2a2.635,2.635,0,0,1-1,1.25,2.719,2.719,0,0,1-1.515.454,2.81,2.81,0,0,1-2.09-.81,3.447,3.447,0,0,1,0-4.423,2.8,2.8,0,0,1,2.06-.81,2.628,2.628,0,0,1,1.961.757A2.924,2.924,0,0,1,467.352,234.082Zm-2.7-2.12a1.78,1.78,0,0,0-1.2.416,1.886,1.886,0,0,0-.614,1.2h3.484a1.734,1.734,0,0,0-.507-1.2,1.636,1.636,0,0,0-1.159-.394Z" transform="translate(-439.46 -169.877)"/>
    </g>
    <g id="Grupo_57729" data-name="Grupo 57729" transform="translate(328.127 88.287)">
      <path id="Trazado_102911" data-name="Trazado 102911" d="M439.126,117.11h1.765v8.55h-2.052l-3.787-6.111v6.111H433.28v-8.55h2.06l3.787,6.058Z" transform="translate(-433.28 -116.709)"/>
      <path id="Trazado_102912" data-name="Trazado 102912" d="M451.493,123.278v.409H446.95a1.56,1.56,0,0,0,.485,1.113,1.689,1.689,0,0,0,1.87.174,1.325,1.325,0,0,0,.515-.613l1.56.227a2.7,2.7,0,0,1-1.068,1.431,3.2,3.2,0,0,1-1.795.507,3.287,3.287,0,0,1-2.37-.841,3.029,3.029,0,0,1-.879-2.317,3.1,3.1,0,0,1,.879-2.325,3.2,3.2,0,0,1,2.317-.848,2.779,2.779,0,0,1,3.029,3.082Zm-3.029-1.878a1.348,1.348,0,0,0-1.477,1.174h2.795a1.28,1.28,0,0,0-.424-.871,1.34,1.34,0,0,0-.863-.3Z" transform="translate(-436.188 -117.455)"/>
      <path id="Trazado_102913" data-name="Trazado 102913" d="M459.221,120.324h1.621v5.627a4.547,4.547,0,0,1-.227,1.515,2.5,2.5,0,0,1-.659,1.037,2.764,2.764,0,0,1-1.015.583,4.179,4.179,0,0,1-1.325.189,3,3,0,0,1-3.135-1.886l1.416-.606a2.053,2.053,0,0,0,.651.886,1.673,1.673,0,0,0,1,.28c1.053,0,1.583-.621,1.583-1.878v-.727a1.916,1.916,0,0,1-.757.6,2.567,2.567,0,0,1-1.083.227,2.711,2.711,0,0,1-1.068-.212,2.839,2.839,0,0,1-.886-.606,2.884,2.884,0,0,1-.6-.954,3.582,3.582,0,0,1,0-2.469,2.72,2.72,0,0,1,.606-.939,2.53,2.53,0,0,1,.886-.591,2.7,2.7,0,0,1,1.075-.22,2.5,2.5,0,0,1,1.128.257,1.749,1.749,0,0,1,.757.666Zm-2.613,4.021a1.469,1.469,0,0,0,1.113.47,1.515,1.515,0,0,0,1.121-.47,1.7,1.7,0,0,0,0-2.317,1.583,1.583,0,0,0-2.272,0,1.621,1.621,0,0,0-.447,1.166,1.59,1.59,0,0,0,.485,1.151Z" transform="translate(-438.425 -117.454)"/>
      <path id="Trazado_102914" data-name="Trazado 102914" d="M470.06,124.77a5.688,5.688,0,0,0,.144,1.515v.167h-1.59l-.136-.659a1.961,1.961,0,0,1-.848.583,3.21,3.21,0,0,1-1.106.2,3.439,3.439,0,0,1-.568-.053,2.03,2.03,0,0,1-.507-.182,1.514,1.514,0,0,1-.424-.318,1.259,1.259,0,0,1-.28-.485,1.764,1.764,0,0,1-.114-.659,1.825,1.825,0,0,1,.114-.659,1.574,1.574,0,0,1,.3-.492,1.886,1.886,0,0,1,.485-.364,3.784,3.784,0,0,1,.6-.257,7.084,7.084,0,0,1,.757-.189l1-.227a.992.992,0,0,0,.447-.189.379.379,0,0,0,.136-.3.644.644,0,0,0-.3-.591,1.515,1.515,0,0,0-.757-.174,1.045,1.045,0,0,0-1.189.931l-1.515-.273a2.045,2.045,0,0,1,.878-1.393,3.521,3.521,0,0,1,1.908-.447q2.56,0,2.56,2.2Zm-3.029.613a1.363,1.363,0,0,0,1.053-.439,1.84,1.84,0,0,0,.409-1.3l-1.446.409a1.621,1.621,0,0,0-.606.25.515.515,0,0,0-.212.439.561.561,0,0,0,.227.477.924.924,0,0,0,.606.144Z" transform="translate(-440.888 -117.469)"/>
      <path id="Trazado_102915" data-name="Trazado 102915" d="M475.892,125.823a1.81,1.81,0,0,1-1.371-.492,1.908,1.908,0,0,1-.485-1.409v-2.87h-1.2v-1.31h.386a1,1,0,0,0,.757-.257,1.31,1.31,0,0,0,.242-.9v-.8h1.515v1.961h1.25v1.31h-1.227v2.688c0,.53.235.757.7.757h.545v1.3Z" transform="translate(-442.881 -116.871)"/>
      <path id="Trazado_102916" data-name="Trazado 102916" d="M480.924,118.541a.969.969,0,0,1-.7-.288.954.954,0,0,1-.288-.7.932.932,0,0,1,.3-.689.977.977,0,1,1,1.378,1.386A.947.947,0,0,1,480.924,118.541Zm-.863,6.99v-6.058h1.712v6.058Z" transform="translate(-444.604 -116.58)"/>
      <path id="Trazado_102917" data-name="Trazado 102917" d="M488.362,120.37h1.8l-2.59,6.058H486.06l-2.56-6.058h1.795l1.515,4.158Z" transform="translate(-445.468 -117.5)"/>
      <path id="Trazado_102918" data-name="Trazado 102918" d="M495.832,126.546a3.9,3.9,0,0,1-1.719-.371,2.8,2.8,0,0,1-1.182-1.1,3.226,3.226,0,0,1-.432-1.7,3.029,3.029,0,0,1,.924-2.272,3.855,3.855,0,0,1,4.824,0,3.362,3.362,0,0,1,0,4.627,3.423,3.423,0,0,1-2.416.81Zm0-1.356a1.568,1.568,0,0,0,1.2-.5,1.848,1.848,0,0,0,.454-1.31,1.886,1.886,0,0,0-.454-1.318,1.591,1.591,0,0,0-1.2-.492,1.515,1.515,0,0,0-1.174.5,2.143,2.143,0,0,0,0,2.62,1.515,1.515,0,0,0,1.159.5Z" transform="translate(-447.652 -117.473)"/>
    </g>
  </g>
</svg>
