<svg id="info_1_4-10" xmlns="http://www.w3.org/2000/svg" width="426.789" height="227.525" viewBox="0 0 426.789 227.525">
  <rect id="Rectángulo_5423" data-name="Rectángulo 5423" width="53.345" height="54.526" transform="translate(0 173)"/>
  <rect id="Rectángulo_5424" data-name="Rectángulo 5424" width="213.395" height="173"/>
  <rect id="Rectángulo_5425" data-name="Rectángulo 5425" width="213.395" height="227.526" transform="translate(213.395)" fill="#f2f2f2"/>
  <g id="Grupo_57739" data-name="Grupo 57739" transform="translate(53.345 173)" opacity="0.75">
    <rect id="Rectángulo_5426" data-name="Rectángulo 5426" width="53.345" height="54.526"/>
  </g>
  <g id="Grupo_57740" data-name="Grupo 57740" transform="translate(106.697 173)" opacity="0.5">
    <rect id="Rectángulo_5427" data-name="Rectángulo 5427" width="53.345" height="54.526"/>
  </g>
  <g id="Grupo_57741" data-name="Grupo 57741" transform="translate(160.042 173)" opacity="0.25">
    <rect id="Rectángulo_5428" data-name="Rectángulo 5428" width="53.345" height="54.526"/>
  </g>
  <g id="Grupo_57742" data-name="Grupo 57742" transform="translate(240.59 42.099)">
    <path id="Trazado_103023" data-name="Trazado 103023" d="M331.556,55.59h4.2v20.3h-4.869l-8.989-14.51v14.51h-4.2V55.59h4.824l9.042,14.434Z" transform="translate(-317.69 -55.59)"/>
    <path id="Trazado_103024" data-name="Trazado 103024" d="M360.9,70.241l-.045.969h-10.7a3.726,3.726,0,0,0,1.189,2.643,3.688,3.688,0,0,0,2.545.909,3.544,3.544,0,0,0,1.9-.5A3.029,3.029,0,0,0,357,72.808l3.711.553a6.323,6.323,0,0,1-2.552,3.385,7.52,7.52,0,0,1-4.271,1.2,7.831,7.831,0,0,1-5.627-1.984,7.278,7.278,0,0,1-2.083-5.521,7.308,7.308,0,0,1,2.09-5.513,7.573,7.573,0,0,1,5.5-2.014,6.63,6.63,0,0,1,7.134,7.323Zm-7.126-4.461a3.21,3.21,0,0,0-3.514,2.787h6.634a3.029,3.029,0,0,0-1.007-2.067A3.158,3.158,0,0,0,353.772,65.78Z" transform="translate(-324.6 -57.366)"/>
    <path id="Trazado_103025" data-name="Trazado 103025" d="M379.226,63.228h3.847V76.609a10.741,10.741,0,0,1-.538,3.6,5.976,5.976,0,0,1-1.568,2.461,6.6,6.6,0,0,1-2.363,1.371,10.269,10.269,0,0,1-3.15.447q-5.718,0-7.444-4.483l3.355-1.431a4.968,4.968,0,0,0,1.56,2.1,4.014,4.014,0,0,0,2.378.674c2.5,0,3.787-1.515,3.787-4.461V75.2a4.544,4.544,0,0,1-1.818,1.424,6,6,0,0,1-2.567.538,6.43,6.43,0,0,1-2.537-.507,6.361,6.361,0,0,1-2.1-1.439,6.526,6.526,0,0,1-1.424-2.272,8.331,8.331,0,0,1,0-5.854,6.339,6.339,0,0,1,1.431-2.272,6.755,6.755,0,0,1,2.105-1.409,6.581,6.581,0,0,1,2.552-.5,5.862,5.862,0,0,1,2.681.6A4.226,4.226,0,0,1,379.2,65.1Zm-6.2,9.55a3.7,3.7,0,0,0,5.3,0,4.044,4.044,0,0,0,0-5.5,3.749,3.749,0,0,0-5.3,0,3.862,3.862,0,0,0-1.06,2.779,3.787,3.787,0,0,0,1.06,2.719Z" transform="translate(-329.902 -57.366)"/>
    <path id="Trazado_103026" data-name="Trazado 103026" d="M397.327,65.552a4.748,4.748,0,0,1,1.9-1.734,5.74,5.74,0,0,1,2.825-.757v3.6a5.521,5.521,0,0,0-3.461.894,3.815,3.815,0,0,0-1.068,3.1v7.051H393.45V63.264h3.877Z" transform="translate(-336.076 -57.403)"/>
    <path id="Trazado_103027" data-name="Trazado 103027" d="M414.181,77.962a9.171,9.171,0,0,1-4.089-.878,6.642,6.642,0,0,1-2.8-2.605,7.717,7.717,0,0,1-1.022-4.029,7.073,7.073,0,0,1,2.2-5.483,9.171,9.171,0,0,1,11.45,0A7.066,7.066,0,0,1,422.1,70.45a7.1,7.1,0,0,1-2.189,5.5A8.111,8.111,0,0,1,414.181,77.962Zm-.045-3.219A3.711,3.711,0,0,0,417,73.593a5.006,5.006,0,0,0,0-6.24,3.711,3.711,0,0,0-2.863-1.181,3.567,3.567,0,0,0-2.772,1.166,5.044,5.044,0,0,0,0,6.255,3.582,3.582,0,0,0,2.772,1.151Z" transform="translate(-339.185 -57.379)"/>
  </g>
  <g id="Grupo_57743" data-name="Grupo 57743" transform="translate(241.665 113.763)">
    <path id="Trazado_103028" data-name="Trazado 103028" d="M323.55,151.22a2.416,2.416,0,0,1,1.3.348,2.339,2.339,0,0,1,.879.924,2.71,2.71,0,0,1,.3,1.287,2.507,2.507,0,0,1-.689,1.81,2.37,2.37,0,0,1-1.795.757h-2.1v3.234H320.4v-8.33Zm-.151,4.173a1.515,1.515,0,0,0,1.159-.447,1.873,1.873,0,0,0,0-2.355,1.515,1.515,0,0,0-1.159-.454h-1.946v3.256Z" transform="translate(-319.423 -150.463)"/>
    <path id="Trazado_103029" data-name="Trazado 103029" d="M331.543,160.433a3.029,3.029,0,0,1-1.515-.363,2.605,2.605,0,0,1-1.053-1.053,3.249,3.249,0,0,1-.386-1.606,3.029,3.029,0,0,1,.825-2.2,3.1,3.1,0,0,1,4.211,0,3.332,3.332,0,0,1,0,4.392A2.855,2.855,0,0,1,331.543,160.433Zm0-.848a1.8,1.8,0,0,0,1.378-.6,2.272,2.272,0,0,0,.545-1.575,2.219,2.219,0,0,0-.545-1.568,1.78,1.78,0,0,0-1.378-.6,1.757,1.757,0,0,0-1.363.6,2.219,2.219,0,0,0-.538,1.568,2.272,2.272,0,0,0,.538,1.575,1.788,1.788,0,0,0,1.356.6Z" transform="translate(-321.41 -151.232)"/>
    <path id="Trazado_103030" data-name="Trazado 103030" d="M342.627,150.22h1.022v9.088h-.992v-1.128a2.144,2.144,0,0,1-.825.916,2.31,2.31,0,0,1-1.235.341,2.62,2.62,0,0,1-1.053-.22,2.476,2.476,0,0,1-.863-.606,2.719,2.719,0,0,1-.591-.962,3.476,3.476,0,0,1-.212-1.242,3.082,3.082,0,0,1,.757-2.189,2.56,2.56,0,0,1,1.931-.841,2.317,2.317,0,0,1,1.219.333,2.181,2.181,0,0,1,.833.886Zm-1.84,8.33a1.765,1.765,0,0,0,1.356-.606,2.227,2.227,0,0,0,.545-1.515,2.181,2.181,0,0,0-.553-1.515,1.727,1.727,0,0,0-1.348-.613,1.772,1.772,0,0,0-1.356.591,2.189,2.189,0,0,0-.553,1.515,2.159,2.159,0,0,0,.553,1.515,1.772,1.772,0,0,0,1.356.621Z" transform="translate(-323.664 -150.22)"/>
    <path id="Trazado_103031" data-name="Trazado 103031" d="M353.232,157.307v.28h-4.544a2.067,2.067,0,0,0,.553,1.515,1.825,1.825,0,0,0,1.325.523,1.757,1.757,0,0,0,1.628-1.053l.924.2a2.582,2.582,0,0,1-.992,1.25,2.718,2.718,0,0,1-1.515.454,2.84,2.84,0,0,1-2.1-.81,3.461,3.461,0,0,1,0-4.423,2.772,2.772,0,0,1,2.06-.81,2.62,2.62,0,0,1,1.954.757A2.938,2.938,0,0,1,353.232,157.307Zm-2.7-2.12a1.8,1.8,0,0,0-1.212.417,1.886,1.886,0,0,0-.613,1.2H352.2a1.742,1.742,0,0,0-.515-1.2,1.606,1.606,0,0,0-1.174-.417Z" transform="translate(-326.052 -151.241)"/>
    <path id="Trazado_103032" data-name="Trazado 103032" d="M358.089,155.55a1.8,1.8,0,0,1,.757-.757,2.151,2.151,0,0,1,1.113-.3v.962a1.909,1.909,0,0,0-1.348.432,1.8,1.8,0,0,0-.47,1.378v3.1H357.12v-5.816h1Z" transform="translate(-328.335 -151.256)"/>
    <path id="Trazado_103033" data-name="Trazado 103033" d="M364.613,160.433a3.029,3.029,0,0,1-1.515-.363,2.658,2.658,0,0,1-1.053-1.053,3.249,3.249,0,0,1-.386-1.606,3.029,3.029,0,0,1,.825-2.2,3.1,3.1,0,0,1,4.211,0,3.332,3.332,0,0,1,0,4.392,2.855,2.855,0,0,1-2.083.825Zm0-.848a1.8,1.8,0,0,0,1.378-.6,2.272,2.272,0,0,0,.545-1.575,2.219,2.219,0,0,0-.545-1.568,1.78,1.78,0,0,0-1.378-.6,1.757,1.757,0,0,0-1.363.6,2.219,2.219,0,0,0-.538,1.568,2.271,2.271,0,0,0,.538,1.575,1.787,1.787,0,0,0,1.356.6Z" transform="translate(-329.436 -151.232)"/>
    <path id="Trazado_103034" data-name="Trazado 103034" d="M373.255,160.438a2.78,2.78,0,0,1-1.568-.417,1.719,1.719,0,0,1-.757-1.2l.894-.257a1.241,1.241,0,0,0,.47.81,1.575,1.575,0,0,0,.962.288,2.075,2.075,0,0,0,.553-.076.969.969,0,0,0,.432-.288.757.757,0,0,0,.174-.53.808.808,0,0,0-.053-.242.755.755,0,0,0-.091-.189.486.486,0,0,0-.167-.159l-.2-.129a2.1,2.1,0,0,0-.265-.106l-.28-.1-.326-.091-.341-.1c-.242-.076-.447-.144-.606-.212a2.72,2.72,0,0,1-.485-.28,1.083,1.083,0,0,1-.386-.462,1.56,1.56,0,0,1-.129-.651,1.515,1.515,0,0,1,.288-.924,1.576,1.576,0,0,1,.757-.553,2.923,2.923,0,0,1,1.037-.167,2.567,2.567,0,0,1,1.416.379,1.636,1.636,0,0,1,.7,1.136l-.841.212a1.106,1.106,0,0,0-.447-.757,1.378,1.378,0,0,0-.833-.25,1.447,1.447,0,0,0-.757.2.689.689,0,0,0-.326.629.575.575,0,0,0,.091.318.809.809,0,0,0,.174.227.839.839,0,0,0,.318.174,2.716,2.716,0,0,0,.341.129l.424.106h.091l.56.159a4.053,4.053,0,0,1,.5.212,1.84,1.84,0,0,1,.454.318,1.514,1.514,0,0,1,.288.447,1.689,1.689,0,0,1,.114.629,1.75,1.75,0,0,1-.174.757,1.364,1.364,0,0,1-.477.538,2.158,2.158,0,0,1-.674.288A3.106,3.106,0,0,1,373.255,160.438Z" transform="translate(-331.686 -151.237)"/>
    <path id="Trazado_103035" data-name="Trazado 103035" d="M381.213,160.433a3.029,3.029,0,0,1-1.515-.363,2.59,2.59,0,0,1-1.045-1.053,3.173,3.173,0,0,1-.394-1.606,3.029,3.029,0,0,1,.826-2.2,3.1,3.1,0,0,1,4.211,0,3.332,3.332,0,0,1,0,4.392A2.84,2.84,0,0,1,381.213,160.433Zm0-.848a1.8,1.8,0,0,0,1.378-.6,2.272,2.272,0,0,0,.545-1.575,2.219,2.219,0,0,0-.545-1.568,1.78,1.78,0,0,0-1.378-.6,1.757,1.757,0,0,0-1.363.6,2.565,2.565,0,0,0,0,3.143,1.787,1.787,0,0,0,1.356.6Z" transform="translate(-333.464 -151.232)"/>
    <path id="Trazado_103036" data-name="Trazado 103036" d="M323.78,178.827a4.491,4.491,0,0,1-1.643-.3,4.257,4.257,0,0,1-1.318-.841,3.786,3.786,0,0,1-.871-1.356,5.179,5.179,0,0,1,0-3.574,3.854,3.854,0,0,1,.878-1.356,4.135,4.135,0,0,1,1.31-.841,4.491,4.491,0,0,1,1.643-.3,4.2,4.2,0,0,1,2.211.591,3.65,3.65,0,0,1,1.492,1.628l-.977.4a2.809,2.809,0,0,0-1.091-1.189,3.12,3.12,0,0,0-1.613-.417,3.384,3.384,0,0,0-1.219.22,2.885,2.885,0,0,0-.977.629,2.8,2.8,0,0,0-.659,1.03,3.787,3.787,0,0,0-.242,1.378,3.869,3.869,0,0,0,.242,1.393,2.8,2.8,0,0,0,.659,1.03,2.886,2.886,0,0,0,.977.629,3.235,3.235,0,0,0,1.219.22,3.12,3.12,0,0,0,1.613-.417,2.771,2.771,0,0,0,1.091-1.174l.977.394a3.635,3.635,0,0,1-1.515,1.628,4.278,4.278,0,0,1-2.189.583Z" transform="translate(-319.236 -155.086)"/>
    <path id="Trazado_103037" data-name="Trazado 103037" d="M334.3,179.633a3.029,3.029,0,0,1-1.515-.364,2.559,2.559,0,0,1-1.053-1.053,3.249,3.249,0,0,1-.386-1.605,2.969,2.969,0,0,1,.825-2.2,3.1,3.1,0,0,1,4.211,0,3.029,3.029,0,0,1,.818,2.2,2.961,2.961,0,0,1-.826,2.2,2.825,2.825,0,0,1-2.075.825Zm0-.848a1.817,1.817,0,0,0,1.378-.6,2.537,2.537,0,0,0,0-3.143,1.787,1.787,0,0,0-1.378-.6,1.749,1.749,0,0,0-1.363.6,2.537,2.537,0,0,0,0,3.143,1.772,1.772,0,0,0,1.356.6Z" transform="translate(-322.079 -155.892)"/>
    <path id="Trazado_103038" data-name="Trazado 103038" d="M343.979,173.589a2.037,2.037,0,0,1,1.462.53,1.969,1.969,0,0,1,.545,1.515v3.915h-1.022v-3.681a1.393,1.393,0,0,0-.356-1.045,1.25,1.25,0,0,0-.909-.341,1.424,1.424,0,0,0-1.038.4,1.659,1.659,0,0,0-.409,1.189v3.476H341.23v-5.816h1.022v.757A1.939,1.939,0,0,1,343.979,173.589Z" transform="translate(-324.478 -155.891)"/>
    <path id="Trazado_103039" data-name="Trazado 103039" d="M351.711,178.935a1.515,1.515,0,0,1-1.136-.417,1.568,1.568,0,0,1-.417-1.159v-3.423H349v-.818h.439a.818.818,0,0,0,.636-.2.977.977,0,0,0,.189-.682V171.18h.954v1.939h1.333v.818h-1.333v3.317a.886.886,0,0,0,.22.636.757.757,0,0,0,.583.227h.53v.818Z" transform="translate(-326.364 -155.307)"/>
    <path id="Trazado_103040" data-name="Trazado 103040" d="M356.61,174.75a1.772,1.772,0,0,1,.719-.757,2.158,2.158,0,0,1,1.121-.3v.962a1.931,1.931,0,0,0-1.356.432,1.8,1.8,0,0,0-.462,1.378v3.1H355.61v-5.816h1Z" transform="translate(-327.968 -155.916)"/>
    <path id="Trazado_103041" data-name="Trazado 103041" d="M363.135,179.634a3.03,3.03,0,0,1-1.515-.363,2.59,2.59,0,0,1-1.045-1.053,3.249,3.249,0,0,1-.386-1.605,2.969,2.969,0,0,1,.826-2.2,3.09,3.09,0,0,1,4.2,0,3.332,3.332,0,0,1,0,4.392A2.84,2.84,0,0,1,363.135,179.634Zm0-.848a1.8,1.8,0,0,0,1.371-.6,2.537,2.537,0,0,0,0-3.143,1.87,1.87,0,0,0-2.741,0,2.567,2.567,0,0,0,0,3.143A1.787,1.787,0,0,0,363.135,178.785Z" transform="translate(-329.079 -155.892)"/>
    <path id="Trazado_103042" data-name="Trazado 103042" d="M370.07,178.508V169.42h1.03v9.088Z" transform="translate(-331.477 -154.88)"/>
    <path id="Trazado_103043" data-name="Trazado 103043" d="M375.428,179.637a1.961,1.961,0,0,1-1.28-.4,1.424,1.424,0,0,1-.5-1.189,1.576,1.576,0,0,1,.167-.757,1.265,1.265,0,0,1,.469-.53,2.848,2.848,0,0,1,.682-.333,6.455,6.455,0,0,1,.886-.2l.939-.159c.348-.061.515-.242.515-.538a1.007,1.007,0,0,0-.363-.863,1.439,1.439,0,0,0-.916-.28,1.561,1.561,0,0,0-.916.265,1.144,1.144,0,0,0-.432.818l-.924-.189a1.8,1.8,0,0,1,.757-1.25,2.681,2.681,0,0,1,1.583-.417,3.189,3.189,0,0,1,.841.106,2.135,2.135,0,0,1,.7.326,1.431,1.431,0,0,1,.507.621,2.476,2.476,0,0,1,.174.962v2.4a.977.977,0,0,0,.136.606.576.576,0,0,0,.462.159h.091v.757h-.553a.962.962,0,0,1-1.1-.757h-.053A2.2,2.2,0,0,1,375.428,179.637Zm.235-.825a1.552,1.552,0,0,0,1.25-.568,2.271,2.271,0,0,0,.47-1.515l-1.515.3a2.067,2.067,0,0,0-.9.326.84.84,0,0,0-.008,1.272,1.136,1.136,0,0,0,.674.189Z" transform="translate(-332.345 -155.895)"/>
    <path id="Trazado_103044" data-name="Trazado 103044" d="M386.559,169.42h1.022v9.088H386.6v-1.128a2.166,2.166,0,0,1-.833.916,2.272,2.272,0,0,1-1.227.341,2.619,2.619,0,0,1-1.053-.22,2.582,2.582,0,0,1-.871-.606,2.815,2.815,0,0,1-.583-.962,3.476,3.476,0,0,1-.212-1.242,3.029,3.029,0,0,1,.757-2.189,2.537,2.537,0,0,1,1.931-.841,2.34,2.34,0,0,1,1.234.311,2.164,2.164,0,0,1,.825.886Zm-1.833,8.33a1.749,1.749,0,0,0,1.356-.606,2.227,2.227,0,0,0,.545-1.515,2.181,2.181,0,0,0-.553-1.515,1.742,1.742,0,0,0-1.348-.613,1.8,1.8,0,0,0-1.363.591,2.219,2.219,0,0,0-.545,1.552,2.188,2.188,0,0,0,.545,1.515,1.8,1.8,0,0,0,1.363.583Z" transform="translate(-334.327 -154.88)"/>
    <path id="Trazado_103045" data-name="Trazado 103045" d="M394.473,179.633a3.029,3.029,0,0,1-1.515-.364,2.605,2.605,0,0,1-1.053-1.053,3.249,3.249,0,0,1-.386-1.606,3.029,3.029,0,0,1,.825-2.2,3.1,3.1,0,0,1,4.211,0,3.332,3.332,0,0,1,0,4.392,2.855,2.855,0,0,1-2.083.825Zm0-.848a1.8,1.8,0,0,0,1.378-.6,2.537,2.537,0,0,0,0-3.143,1.78,1.78,0,0,0-1.378-.6,1.757,1.757,0,0,0-1.363.6,2.567,2.567,0,0,0,0,3.143,1.787,1.787,0,0,0,1.356.6Z" transform="translate(-336.682 -155.892)"/>
    <path id="Trazado_103046" data-name="Trazado 103046" d="M402.4,174.75a1.8,1.8,0,0,1,.757-.757,2.151,2.151,0,0,1,1.113-.3v.962a1.909,1.909,0,0,0-1.348.432,1.8,1.8,0,0,0-.47,1.378v3.1H401.4v-5.816h1Z" transform="translate(-339.081 -155.916)"/>
    <path id="Trazado_103047" data-name="Trazado 103047" d="M325.434,197.95l-.719-1.992h-3.787l-.712,1.992H319.11l3.067-8.33h1.265l3.075,8.33Zm-4.135-2.923h3.1l-1.59-4.362Z" transform="translate(-319.11 -159.782)"/>
    <path id="Trazado_103048" data-name="Trazado 103048" d="M334.339,192.935h1.03v5.816h-.985v-.757a1.833,1.833,0,0,1-.757.651,2.2,2.2,0,0,1-1.015.227,2.022,2.022,0,0,1-1.462-.523,1.961,1.961,0,0,1-.553-1.515V192.92h1.06v3.688a1.386,1.386,0,0,0,.356,1.045,1.272,1.272,0,0,0,.916.341,1.4,1.4,0,0,0,1.03-.4,1.636,1.636,0,0,0,.4-1.189Z" transform="translate(-321.897 -160.583)"/>
    <path id="Trazado_103049" data-name="Trazado 103049" d="M341.221,198.13a1.515,1.515,0,0,1-1.136-.417,1.568,1.568,0,0,1-.417-1.159v-3.438H338.48V192.3h.439a.856.856,0,0,0,.644-.2,1.022,1.022,0,0,0,.182-.682V190.36h.954V192.3h1.34v.818H340.7v3.317a.886.886,0,0,0,.22.636.757.757,0,0,0,.583.227h.538v.818Z" transform="translate(-323.811 -159.962)"/>
    <path id="Trazado_103050" data-name="Trazado 103050" d="M347.323,198.833a3.03,3.03,0,0,1-1.515-.364,2.59,2.59,0,0,1-1.045-1.053,3.173,3.173,0,0,1-.394-1.605,3.029,3.029,0,0,1,.826-2.2,3.1,3.1,0,0,1,4.211,0,3.332,3.332,0,0,1,0,4.392A2.84,2.84,0,0,1,347.323,198.833Zm0-.848a1.8,1.8,0,0,0,1.378-.6,2.272,2.272,0,0,0,.545-1.575,2.219,2.219,0,0,0-.545-1.568,1.78,1.78,0,0,0-1.378-.6,1.757,1.757,0,0,0-1.363.6,2.565,2.565,0,0,0,0,3.143,1.787,1.787,0,0,0,1.356.6Z" transform="translate(-325.24 -160.551)"/>
    <path id="Trazado_103051" data-name="Trazado 103051" d="M355.257,193.95a1.772,1.772,0,0,1,.719-.757,2.151,2.151,0,0,1,1.113-.3v.962a1.909,1.909,0,0,0-1.348.432,1.8,1.8,0,0,0-.462,1.378v3.1h-1.03v-5.816h1.007Z" transform="translate(-327.638 -160.576)"/>
    <path id="Trazado_103052" data-name="Trazado 103052" d="M360.057,190.7a.7.7,0,0,1-.7-.7.659.659,0,0,1,.2-.485.7.7,0,0,1,.977,0,.682.682,0,0,1,.2.485.7.7,0,0,1-.2.492A.674.674,0,0,1,360.057,190.7Zm-.523,7.179v-5.816H360.6v5.816Z" transform="translate(-328.878 -159.709)"/>
    <path id="Trazado_103053" data-name="Trazado 103053" d="M365.274,198.13a1.514,1.514,0,0,1-1.136-.417,1.59,1.59,0,0,1-.409-1.159v-3.438H362.54V192.3h.432a.84.84,0,0,0,.644-.2.977.977,0,0,0,.189-.682V190.36h.954V192.3h1.333v.818h-1.333v3.317a.856.856,0,0,0,.22.636.757.757,0,0,0,.583.227h.53v.818Z" transform="translate(-329.65 -159.962)"/>
    <path id="Trazado_103054" data-name="Trazado 103054" d="M370.291,198.84a1.939,1.939,0,0,1-1.272-.4,1.424,1.424,0,0,1-.5-1.189,1.664,1.664,0,0,1,.159-.757,1.286,1.286,0,0,1,.477-.53,2.589,2.589,0,0,1,.682-.333,5.964,5.964,0,0,1,.886-.2l.939-.159c.341-.061.515-.242.515-.538a1.007,1.007,0,0,0-.363-.863,1.659,1.659,0,0,0-1.833,0,1.113,1.113,0,0,0-.432.81l-.924-.189a1.817,1.817,0,0,1,.757-1.25,2.726,2.726,0,0,1,1.59-.416,3.268,3.268,0,0,1,.841.106,2.212,2.212,0,0,1,.7.326,1.469,1.469,0,0,1,.5.621,2.338,2.338,0,0,1,.182.962v2.4a.977.977,0,0,0,.136.606.561.561,0,0,0,.454.159h.1v.757h-.507c-.629,0-1-.257-1.106-.757h-.045A2.2,2.2,0,0,1,370.291,198.84Zm.242-.825a1.568,1.568,0,0,0,1.25-.56,2.363,2.363,0,0,0,.47-1.515l-1.515.3a2.03,2.03,0,0,0-.9.326.847.847,0,0,0-.015,1.272A1.174,1.174,0,0,0,370.533,198.014Z" transform="translate(-331.1 -160.558)"/>
    <path id="Trazado_103055" data-name="Trazado 103055" d="M378.479,193.95a1.794,1.794,0,0,1,.757-.757,2.151,2.151,0,0,1,1.113-.3v.962a1.909,1.909,0,0,0-1.348.432,1.8,1.8,0,0,0-.462,1.378v3.1h-1.03v-5.816h1Z" transform="translate(-333.283 -160.576)"/>
    <path id="Trazado_103056" data-name="Trazado 103056" d="M383.277,190.7a.7.7,0,0,1-.7-.7.659.659,0,0,1,.2-.485.7.7,0,0,1,.492-.2.674.674,0,0,1,.477.2.659.659,0,0,1,.2.485.674.674,0,0,1-.2.492A.652.652,0,0,1,383.277,190.7Zm-.523,7.179v-5.816h1.03v5.816Z" transform="translate(-334.514 -159.709)"/>
    <path id="Trazado_103057" data-name="Trazado 103057" d="M389.2,198.834a3.029,3.029,0,0,1-1.515-.363,2.59,2.59,0,0,1-1.045-1.053,3.248,3.248,0,0,1-.386-1.605,2.968,2.968,0,0,1,.825-2.2,3.09,3.09,0,0,1,4.2,0,3.332,3.332,0,0,1,0,4.392A2.84,2.84,0,0,1,389.2,198.834Zm0-.848a1.8,1.8,0,0,0,1.371-.6,2.272,2.272,0,0,0,.545-1.575,2.219,2.219,0,0,0-.545-1.568,1.871,1.871,0,0,0-2.741,0,2.565,2.565,0,0,0,0,3.143A1.787,1.787,0,0,0,389.2,197.985Z" transform="translate(-335.406 -160.552)"/>
    <path id="Trazado_103058" data-name="Trazado 103058" d="M320.4,217.15v-8.33h2.681a3.991,3.991,0,0,1,2.12.538,3.264,3.264,0,0,1,1.3,1.469,5.143,5.143,0,0,1,.424,2.151,5.612,5.612,0,0,1-.242,1.689,3.954,3.954,0,0,1-.72,1.318,3.158,3.158,0,0,1-1.212.863,4.338,4.338,0,0,1-1.674.3Zm1.053-.962h1.6a2.537,2.537,0,0,0,2.075-.856,4.264,4.264,0,0,0,0-4.7,2.544,2.544,0,0,0-2.075-.848h-1.6Z" transform="translate(-319.423 -164.441)"/>
    <path id="Trazado_103059" data-name="Trazado 103059" d="M331.857,209.9a.7.7,0,0,1-.7-.7.659.659,0,0,1,.2-.485.7.7,0,0,1,.492-.2.674.674,0,0,1,.477.2.659.659,0,0,1,.2.485.674.674,0,0,1-.2.492.651.651,0,0,1-.477.2Zm-.522,7.179v-5.816h1.03v5.816Z" transform="translate(-322.034 -164.369)"/>
    <path id="Trazado_103060" data-name="Trazado 103060" d="M337.185,218.063a2.749,2.749,0,0,1-1.568-.417,1.727,1.727,0,0,1-.757-1.2l.894-.257a1.227,1.227,0,0,0,.477.81,1.515,1.515,0,0,0,.954.288,2.136,2.136,0,0,0,.56-.076.909.909,0,0,0,.424-.288.757.757,0,0,0,.174-.53,1.154,1.154,0,0,0-.045-.242,1.1,1.1,0,0,0-.1-.189.425.425,0,0,0-.2-.174,1.712,1.712,0,0,0-.2-.129,2.107,2.107,0,0,0-.265-.106l-.28-.1-.326-.091-.341-.1c-.242-.076-.439-.144-.6-.212a2.531,2.531,0,0,1-.492-.28,1.069,1.069,0,0,1-.379-.462,1.448,1.448,0,0,1-.129-.651,1.515,1.515,0,0,1,.28-.924,1.59,1.59,0,0,1,.757-.553,2.877,2.877,0,0,1,1.03-.167,2.544,2.544,0,0,1,1.416.379,1.59,1.59,0,0,1,.7,1.136l-.841.212a1.1,1.1,0,0,0-.439-.757,1.408,1.408,0,0,0-.833-.25,1.454,1.454,0,0,0-.757.2.7.7,0,0,0-.318.629.576.576,0,0,0,.083.318.811.811,0,0,0,.174.227,1.136,1.136,0,0,0,.318.182l.341.121.432.106h.083c.235.053.417.106.56.151a4.657,4.657,0,0,1,.507.212,1.652,1.652,0,0,1,.447.318,1.461,1.461,0,0,1,.288.454,1.623,1.623,0,0,1,.114.621,1.652,1.652,0,0,1-.174.757,1.408,1.408,0,0,1-.47.538,2.272,2.272,0,0,1-.682.288A3.089,3.089,0,0,1,337.185,218.063Z" transform="translate(-322.932 -165.218)"/>
    <path id="Trazado_103061" data-name="Trazado 103061" d="M345.139,218.065a2.779,2.779,0,0,1-2.083-.833,3.3,3.3,0,0,1,0-4.362,2.787,2.787,0,0,1,2.09-.841,2.817,2.817,0,0,1,1.681.515,2.522,2.522,0,0,1,.977,1.409l-.954.159a1.742,1.742,0,0,0-1.711-1.227,1.719,1.719,0,0,0-1.348.6,2.582,2.582,0,0,0,0,3.135,1.817,1.817,0,0,0,3.06-.636l.954.159a2.515,2.515,0,0,1-.984,1.416A2.81,2.81,0,0,1,345.139,218.065Z" transform="translate(-324.722 -165.22)"/>
    <path id="Trazado_103062" data-name="Trazado 103062" d="M352.039,209.9a.659.659,0,0,1-.485-.2.674.674,0,0,1-.2-.492.659.659,0,0,1,.2-.485.7.7,0,0,1,.969,0,.659.659,0,0,1,.2.485.674.674,0,0,1-.2.492A.659.659,0,0,1,352.039,209.9Zm-.515,7.179v-5.816h1.022v5.816Z" transform="translate(-326.934 -164.369)"/>
    <path id="Trazado_103063" data-name="Trazado 103063" d="M358.764,212a2.621,2.621,0,0,1,1.053.22,2.544,2.544,0,0,1,.863.591,2.892,2.892,0,0,1,.583.962,3.568,3.568,0,0,1,.22,1.257,3.082,3.082,0,0,1-.757,2.2,2.552,2.552,0,0,1-1.931.833,2.34,2.34,0,0,1-1.219-.333,2.181,2.181,0,0,1-.826-.894v4.029h-1.03v-8.755h.969v1.136a2.083,2.083,0,0,1,.826-.909A2.309,2.309,0,0,1,358.764,212Zm-.2,5.165a1.749,1.749,0,0,0,1.348-.583,2.484,2.484,0,0,0,0-3.1,1.749,1.749,0,0,0-1.348-.583,1.772,1.772,0,0,0-1.363.613,2.173,2.173,0,0,0-.56,1.515,2.2,2.2,0,0,0,.56,1.515,1.764,1.764,0,0,0,1.363.621Z" transform="translate(-327.995 -165.213)"/>
    <path id="Trazado_103064" data-name="Trazado 103064" d="M365.46,216.908V207.82H366.5v9.088Z" transform="translate(-330.359 -164.199)"/>
    <path id="Trazado_103065" data-name="Trazado 103065" d="M370.039,209.9a.659.659,0,0,1-.485-.2.674.674,0,0,1-.2-.492.658.658,0,0,1,.2-.485.7.7,0,0,1,.969,0,.659.659,0,0,1,.2.485.674.674,0,0,1-.2.492A.659.659,0,0,1,370.039,209.9Zm-.515,7.179v-5.816h1.022v5.816Z" transform="translate(-331.303 -164.369)"/>
    <path id="Trazado_103066" data-name="Trazado 103066" d="M376.429,212a2.022,2.022,0,0,1,1.462.53,1.969,1.969,0,0,1,.553,1.515v3.915h-1.03v-3.688a1.393,1.393,0,0,0-.348-1.045,1.28,1.28,0,0,0-.916-.333,1.386,1.386,0,0,0-1.03.394,1.6,1.6,0,0,0-.409,1.189v3.476h-1.03v-5.816h1v.757A1.931,1.931,0,0,1,376.429,212Z" transform="translate(-332.354 -165.212)"/>
    <path id="Trazado_103067" data-name="Trazado 103067" d="M383.778,218.067a1.923,1.923,0,0,1-1.272-.4,1.408,1.408,0,0,1-.507-1.189,1.665,1.665,0,0,1,.167-.757,1.264,1.264,0,0,1,.469-.53,2.848,2.848,0,0,1,.682-.333,6.459,6.459,0,0,1,.886-.2l.939-.159c.348-.061.515-.242.515-.538a1.007,1.007,0,0,0-.363-.863,1.439,1.439,0,0,0-.916-.28,1.515,1.515,0,0,0-.916.273,1.113,1.113,0,0,0-.432.81l-.916-.189a1.764,1.764,0,0,1,.757-1.25,2.681,2.681,0,0,1,1.583-.417,3.189,3.189,0,0,1,.841.106,2.135,2.135,0,0,1,.7.326,1.431,1.431,0,0,1,.507.621,2.34,2.34,0,0,1,.182.962v2.4a.984.984,0,0,0,.129.606.575.575,0,0,0,.462.159h.091v.757h-.507a.962.962,0,0,1-1.1-.757h-.053a2.2,2.2,0,0,1-1.931.848Zm.235-.825a1.567,1.567,0,0,0,1.25-.56,2.326,2.326,0,0,0,.47-1.515l-1.515.3a2.166,2.166,0,0,0-.9.326.855.855,0,0,0-.008,1.272,1.136,1.136,0,0,0,.7.159Z" transform="translate(-334.372 -165.222)"/>
    <path id="Trazado_103068" data-name="Trazado 103068" d="M394.949,207.82h1.03v9.088h-.992v-1.128a2.2,2.2,0,0,1-.825.916,2.31,2.31,0,0,1-1.234.341,2.619,2.619,0,0,1-1.053-.22,2.476,2.476,0,0,1-.863-.606,2.758,2.758,0,0,1-.591-.954,3.553,3.553,0,0,1-.212-1.25,3.029,3.029,0,0,1,.757-2.189,2.544,2.544,0,0,1,1.931-.841,2.34,2.34,0,0,1,1.219.333,2.165,2.165,0,0,1,.825.886Zm-1.833,8.33a1.75,1.75,0,0,0,1.356-.606,2.226,2.226,0,0,0,.545-1.515,2.2,2.2,0,0,0-.553-1.515,1.742,1.742,0,0,0-1.348-.613,1.8,1.8,0,0,0-1.363.591,2.219,2.219,0,0,0-.545,1.552,2.189,2.189,0,0,0,.545,1.515,1.8,1.8,0,0,0,1.363.583Z" transform="translate(-336.364 -164.199)"/>
    <path id="Trazado_103069" data-name="Trazado 103069" d="M402.863,218.063a3.03,3.03,0,0,1-1.515-.364,2.658,2.658,0,0,1-1.053-1.053,3.248,3.248,0,0,1-.386-1.605,3.029,3.029,0,0,1,.825-2.2,3.1,3.1,0,0,1,4.211,0,3.332,3.332,0,0,1,0,4.392,2.855,2.855,0,0,1-2.083.825Zm0-.848a1.8,1.8,0,0,0,1.378-.6,2.537,2.537,0,0,0,0-3.143,1.779,1.779,0,0,0-1.378-.6,1.757,1.757,0,0,0-1.363.6,2.567,2.567,0,0,0,0,3.143,1.787,1.787,0,0,0,1.356.576Z" transform="translate(-338.719 -165.218)"/>
    <path id="Trazado_103070" data-name="Trazado 103070" d="M324.861,228.985h-3.378v2.726h2.976v.947h-2.976v2.726h3.378v.947H320.4V228h4.461Z" transform="translate(-319.423 -169.097)"/>
    <path id="Trazado_103071" data-name="Trazado 103071" d="M328.62,236.088V227h1.045v9.088Z" transform="translate(-321.418 -168.854)"/>
    <path id="Trazado_103072" data-name="Trazado 103072" d="M337.693,234.082v.28h-4.544a2.037,2.037,0,0,0,.56,1.515,1.817,1.817,0,0,0,1.325.522,1.764,1.764,0,0,0,.962-.28,1.847,1.847,0,0,0,.666-.757l.916.2a2.583,2.583,0,0,1-.992,1.25,2.719,2.719,0,0,1-1.515.454,2.81,2.81,0,0,1-2.09-.81,3.446,3.446,0,0,1,0-4.423,2.787,2.787,0,0,1,2.06-.81,2.628,2.628,0,0,1,1.961.757,2.969,2.969,0,0,1,.689,2.105Zm-2.7-2.12a1.78,1.78,0,0,0-1.2.416,1.886,1.886,0,0,0-.613,1.2h3.484a1.735,1.735,0,0,0-.507-1.2,1.636,1.636,0,0,0-1.159-.394Z" transform="translate(-322.282 -169.877)"/>
    <path id="Trazado_103073" data-name="Trazado 103073" d="M345.625,231.306h.992v5.521a2.96,2.96,0,0,1-5.665,1.287l.848-.417a1.924,1.924,0,0,0,1.946,1.348,1.658,1.658,0,0,0,1.363-.568,2.446,2.446,0,0,0,.469-1.59v-1.075a2.052,2.052,0,0,1-.825.841,2.56,2.56,0,0,1-3.1-.507,2.893,2.893,0,0,1-.757-2.067,2.832,2.832,0,0,1,.757-2.06,2.492,2.492,0,0,1,1.886-.818,2.385,2.385,0,0,1,1.219.326,2.151,2.151,0,0,1,.825.863Zm-1.848,4.779a1.78,1.78,0,0,0,1.34-.591,2.113,2.113,0,0,0,0-2.847,1.734,1.734,0,0,0-1.34-.6,1.764,1.764,0,0,0-1.34.576,2.044,2.044,0,0,0-.545,1.446,2.015,2.015,0,0,0,.553,1.439,1.757,1.757,0,0,0,1.333.576Z" transform="translate(-324.397 -169.873)"/>
    <path id="Trazado_103074" data-name="Trazado 103074" d="M352.431,237.24a1.984,1.984,0,0,1-1.272-.4,1.424,1.424,0,0,1-.5-1.189,1.725,1.725,0,0,1,.159-.757,1.317,1.317,0,0,1,.477-.523,2.588,2.588,0,0,1,.682-.333,6.982,6.982,0,0,1,.886-.212l.939-.151c.341-.061.515-.242.515-.538a1.007,1.007,0,0,0-.363-.863,1.461,1.461,0,0,0-.924-.28,1.514,1.514,0,0,0-.909.265,1.144,1.144,0,0,0-.432.818l-.924-.2a1.788,1.788,0,0,1,.757-1.242,2.726,2.726,0,0,1,1.59-.417,3.272,3.272,0,0,1,.841.106,2.273,2.273,0,0,1,.7.326,1.469,1.469,0,0,1,.5.621,2.338,2.338,0,0,1,.182.962V235.6a.977.977,0,0,0,.136.606.553.553,0,0,0,.454.159h.1v.757h-.568a.969.969,0,0,1-1.1-.757h-.045A2.226,2.226,0,0,1,352.431,237.24Zm.242-.825a1.515,1.515,0,0,0,1.242-.568,2.272,2.272,0,0,0,.477-1.515l-1.515.3a1.992,1.992,0,0,0-.9.326.847.847,0,0,0-.015,1.272,1.174,1.174,0,0,0,.689.189Z" transform="translate(-326.766 -169.877)"/>
    <path id="Trazado_103075" data-name="Trazado 103075" d="M362.329,231.189a2.037,2.037,0,0,1,1.462.53,1.969,1.969,0,0,1,.545,1.515v3.87h-1.022v-3.688a1.356,1.356,0,0,0-.356-1.037,1.249,1.249,0,0,0-.909-.341,1.424,1.424,0,0,0-1.038.4,1.659,1.659,0,0,0-.409,1.189V237.1H359.58v-5.816H360.6v.757A1.939,1.939,0,0,1,362.329,231.189Z" transform="translate(-328.932 -169.87)"/>
    <path id="Trazado_103076" data-name="Trazado 103076" d="M370.051,236.515a1.515,1.515,0,0,1-1.136-.417,1.568,1.568,0,0,1-.417-1.159v-3.423H367.31V230.7h.439a.856.856,0,0,0,.644-.2,1.022,1.022,0,0,0,.182-.682V228.76h.954V230.7h1.333v.818h-1.333v3.317a.886.886,0,0,0,.22.636.757.757,0,0,0,.583.227h.53v.818Z" transform="translate(-330.808 -169.281)"/>
    <path id="Trazado_103077" data-name="Trazado 103077" d="M378.8,234.082v.28h-4.544a2.037,2.037,0,0,0,.553,1.515,1.886,1.886,0,0,0,2.272.242,1.78,1.78,0,0,0,.659-.757l.924.2a2.627,2.627,0,0,1-.992,1.25,2.719,2.719,0,0,1-1.515.454,2.825,2.825,0,0,1-2.1-.81,3.461,3.461,0,0,1,0-4.423,2.772,2.772,0,0,1,2.06-.81,2.62,2.62,0,0,1,1.954.757A2.938,2.938,0,0,1,378.8,234.082Zm-2.688-2.12a1.787,1.787,0,0,0-1.212.417,1.886,1.886,0,0,0-.613,1.2h3.484a1.7,1.7,0,0,0-.507-1.2,1.606,1.606,0,0,0-1.174-.394Z" transform="translate(-332.253 -169.877)"/>
  </g>
  <g id="Grupo_57744" data-name="Grupo 57744" transform="translate(242.438 88.287)">
    <path id="Trazado_103078" data-name="Trazado 103078" d="M323.689,117.109a2.582,2.582,0,0,1,1.969.757,2.794,2.794,0,0,1,.757,1.969,2.659,2.659,0,0,1-.757,1.954,2.6,2.6,0,0,1-1.969.757H321.9v3.029H320.13v-8.467Zm-.3,4a1.272,1.272,0,0,0,.977-.333,1.249,1.249,0,0,0,.326-.924,1.272,1.272,0,0,0-.326-.916,1.3,1.3,0,0,0-.977-.341h-1.515v2.514Z" transform="translate(-320.13 -116.707)"/>
    <path id="Trazado_103079" data-name="Trazado 103079" d="M332.482,126.546a3.9,3.9,0,0,1-1.719-.371,2.8,2.8,0,0,1-1.181-1.1,3.225,3.225,0,0,1-.432-1.7,3.029,3.029,0,0,1,.924-2.272,3.855,3.855,0,0,1,4.824,0,3.363,3.363,0,0,1,0,4.627A3.423,3.423,0,0,1,332.482,126.546Zm0-1.356a1.568,1.568,0,0,0,1.2-.5,1.848,1.848,0,0,0,.454-1.31,1.885,1.885,0,0,0-.454-1.318,1.59,1.59,0,0,0-1.2-.492,1.514,1.514,0,0,0-1.166.5,2.113,2.113,0,0,0,0,2.62,1.515,1.515,0,0,0,1.151.5Z" transform="translate(-322.319 -117.473)"/>
    <path id="Trazado_103080" data-name="Trazado 103080" d="M341.613,126.533a3.461,3.461,0,0,1-1.78-.424,1.818,1.818,0,0,1-.863-1.272l1.424-.4a1.144,1.144,0,0,0,1.219.909,1.2,1.2,0,0,0,.621-.144.477.477,0,0,0,.242-.47.523.523,0,0,0-.1-.311.94.94,0,0,0-.31-.227l-.417-.159-.545-.159a5.637,5.637,0,0,1-.56-.174,3.592,3.592,0,0,1-.538-.227,2.028,2.028,0,0,1-.439-.31,1.263,1.263,0,0,1-.333-.477,1.75,1.75,0,0,1-.114-.651,1.56,1.56,0,0,1,.659-1.363,2.984,2.984,0,0,1,1.727-.462,3.029,3.029,0,0,1,1.59.394,1.757,1.757,0,0,1,.818,1.219l-1.325.3a1.022,1.022,0,0,0-1.075-.757,1.166,1.166,0,0,0-.6.136.462.462,0,0,0-.2.591.364.364,0,0,0,.121.144l.174.114a1.123,1.123,0,0,0,.242.1,2.186,2.186,0,0,0,.265.076l.31.083.318.083a5.3,5.3,0,0,1,.576.174,3.994,3.994,0,0,1,.523.25,2.014,2.014,0,0,1,.454.356,1.735,1.735,0,0,1,.3.507,1.905,1.905,0,0,1,.114.674,1.809,1.809,0,0,1-.2.878,1.515,1.515,0,0,1-.56.6,2.688,2.688,0,0,1-.757.318A4.122,4.122,0,0,1,341.613,126.533Z" transform="translate(-324.702 -117.46)"/>
    <path id="Trazado_103081" data-name="Trazado 103081" d="M348.212,118.541a.975.975,0,0,1-.7-1.674.969.969,0,0,1,.7-.288.984.984,0,0,1,0,1.961Zm-.871,6.99v-6.059h1.719v6.059Z" transform="translate(-326.705 -116.58)"/>
    <path id="Trazado_103082" data-name="Trazado 103082" d="M354.02,125.823a1.825,1.825,0,0,1-1.378-.492,1.939,1.939,0,0,1-.485-1.409v-2.87h-1.2v-1.31h.386a.977.977,0,0,0,.757-.257,1.272,1.272,0,0,0,.242-.9v-.8h1.515v1.961h1.257v1.31h-1.257v2.688c0,.53.235.757.7.757h.553v1.3Z" transform="translate(-327.612 -116.871)"/>
    <path id="Trazado_103083" data-name="Trazado 103083" d="M359.024,118.541a.954.954,0,0,1-.7-.288.924.924,0,0,1-.288-.7.947.947,0,0,1,.288-.689.977.977,0,0,1,.7-.288.962.962,0,0,1,.689.288.977.977,0,0,1,0,1.386A.962.962,0,0,1,359.024,118.541Zm-.871,6.99v-6.058h1.719v6.058Z" transform="translate(-329.33 -116.58)"/>
    <path id="Trazado_103084" data-name="Trazado 103084" d="M366.442,120.37h1.81l-2.6,6.058H364.14l-2.56-6.058h1.833l1.515,4.158Z" transform="translate(-330.19 -117.5)"/>
    <path id="Trazado_103085" data-name="Trazado 103085" d="M373.931,126.545a3.915,3.915,0,0,1-1.727-.371,2.741,2.741,0,0,1-1.174-1.1,3.226,3.226,0,0,1-.432-1.7,2.961,2.961,0,0,1,.924-2.272,3.84,3.84,0,0,1,4.817,0,3.362,3.362,0,0,1,0,4.627A3.4,3.4,0,0,1,373.931,126.545Zm0-1.356a1.514,1.514,0,0,0,1.2-.5,1.825,1.825,0,0,0,.462-1.31,1.855,1.855,0,0,0-.462-1.318,1.568,1.568,0,0,0-1.2-.485,1.515,1.515,0,0,0-1.166.5,2.113,2.113,0,0,0,0,2.62A1.515,1.515,0,0,0,373.931,125.19Z" transform="translate(-332.378 -117.473)"/>
  </g>
  <g id="Grupo_57745" data-name="Grupo 57745" transform="translate(327.385 114.293)">
    <path id="Trazado_103086" data-name="Trazado 103086" d="M436.959,159.626a4.423,4.423,0,0,1-1.636-.3,4.089,4.089,0,0,1-1.318-.841,3.787,3.787,0,0,1-.879-1.356,5.12,5.12,0,0,1,0-3.575A3.84,3.84,0,0,1,434,152.2a4.089,4.089,0,0,1,1.318-.841,4.6,4.6,0,0,1,3.264,0,3.772,3.772,0,0,1,2.189,2.189,4.833,4.833,0,0,1,.318,1.78,4.916,4.916,0,0,1-.318,1.795,3.856,3.856,0,0,1-.879,1.356,4.053,4.053,0,0,1-1.31.841A4.438,4.438,0,0,1,436.959,159.626Zm0-1a3.029,3.029,0,0,0,2.2-.879,3.249,3.249,0,0,0,.871-2.408,3.785,3.785,0,0,0-.235-1.378,2.8,2.8,0,0,0-.659-1.03,2.884,2.884,0,0,0-.977-.629,3.3,3.3,0,0,0-1.2-.22,3.346,3.346,0,0,0-1.212.22,2.847,2.847,0,0,0-.984.629,2.8,2.8,0,0,0-.659,1.03,3.785,3.785,0,0,0-.235,1.378,3.915,3.915,0,0,0,.235,1.4,2.839,2.839,0,0,0,.659,1.037,3.081,3.081,0,0,0,.984.629A3.346,3.346,0,0,0,436.959,158.627Z" transform="translate(-432.423 -150.955)"/>
    <path id="Trazado_103087" data-name="Trazado 103087" d="M449.167,154.39a2.6,2.6,0,0,1,1.053.22,2.546,2.546,0,0,1,.863.591,2.772,2.772,0,0,1,.583.962,3.564,3.564,0,0,1,.22,1.257,3.03,3.03,0,0,1-.757,2.189,2.537,2.537,0,0,1-1.931.841,2.272,2.272,0,0,1-1.212-.333,2.2,2.2,0,0,1-.833-.894v4.029H446.13V154.5h.984v1.128a2.128,2.128,0,0,1,.833-.9,2.272,2.272,0,0,1,1.219-.341Zm-.2,5.165a1.749,1.749,0,0,0,1.34-.583,2.454,2.454,0,0,0,0-3.1,1.749,1.749,0,0,0-1.34-.583,1.8,1.8,0,0,0-1.371.606,2.393,2.393,0,0,0,0,3.029A1.8,1.8,0,0,0,448.97,159.555Z" transform="translate(-435.656 -151.762)"/>
    <path id="Trazado_103088" data-name="Trazado 103088" d="M456.86,155.55a1.771,1.771,0,0,1,.719-.757,2.2,2.2,0,0,1,1.121-.3v.962a1.908,1.908,0,0,0-1.348.432,1.8,1.8,0,0,0-.47,1.378v3.1H455.86v-5.816h1Z" transform="translate(-438.018 -151.786)"/>
    <path id="Trazado_103089" data-name="Trazado 103089" d="M466.052,157.312v.28h-4.544a2.037,2.037,0,0,0,.553,1.515,1.817,1.817,0,0,0,1.325.523,1.765,1.765,0,0,0,.962-.28,1.8,1.8,0,0,0,.666-.757l.924.2a2.673,2.673,0,0,1-.992,1.25,2.719,2.719,0,0,1-1.515.454,2.825,2.825,0,0,1-2.1-.81,3.461,3.461,0,0,1,0-4.423,2.771,2.771,0,0,1,2.06-.81,2.62,2.62,0,0,1,1.954.757A2.938,2.938,0,0,1,466.052,157.312Zm-2.688-2.12a1.787,1.787,0,0,0-1.212.417,1.886,1.886,0,0,0-.613,1.2h3.484a1.7,1.7,0,0,0-.507-1.2,1.606,1.606,0,0,0-1.151-.417Z" transform="translate(-439.152 -151.776)"/>
    <path id="Trazado_103090" data-name="Trazado 103090" d="M471.625,160.438a2.749,2.749,0,0,1-1.568-.417,1.749,1.749,0,0,1-.757-1.2l.894-.257a1.227,1.227,0,0,0,.477.81,1.567,1.567,0,0,0,.954.288,2.135,2.135,0,0,0,.56-.076.969.969,0,0,0,.432-.288.757.757,0,0,0,.167-.53.629.629,0,0,0-.045-.242c0-.068-.061-.136-.091-.189a.484.484,0,0,0-.167-.159,1.455,1.455,0,0,0-.47-.235l-.28-.1-.326-.091-.333-.1a5.956,5.956,0,0,1-.606-.212,2.771,2.771,0,0,1-.492-.28,1.128,1.128,0,0,1-.379-.462,1.56,1.56,0,0,1-.129-.651,1.515,1.515,0,0,1,.28-.924,1.591,1.591,0,0,1,.757-.553,2.91,2.91,0,0,1,1.03-.167,2.544,2.544,0,0,1,1.416.379,1.621,1.621,0,0,1,.712,1.136l-.841.212a1.136,1.136,0,0,0-.447-.757,1.394,1.394,0,0,0-.833-.25,1.424,1.424,0,0,0-.757.2.689.689,0,0,0-.326.629.644.644,0,0,0,.083.318.757.757,0,0,0,.492.4,3.23,3.23,0,0,0,.348.129l.424.106h.091l.553.159a4.1,4.1,0,0,1,.507.212,1.84,1.84,0,0,1,.454.318,1.588,1.588,0,0,1,.4,1.075,1.75,1.75,0,0,1-.174.757,1.514,1.514,0,0,1-.477.538,2.271,2.271,0,0,1-.682.288,3.091,3.091,0,0,1-.856.174Z" transform="translate(-441.28 -151.767)"/>
    <path id="Trazado_103091" data-name="Trazado 103091" d="M477.779,152.3a.659.659,0,0,1-.485-.2.674.674,0,0,1-.2-.492.659.659,0,0,1,.2-.485.682.682,0,0,1,.485-.2.7.7,0,0,1,.485.2.659.659,0,0,1,.2.485.7.7,0,0,1-.689.7Zm-.523,7.179v-5.816h1.03v5.816Z" transform="translate(-443.17 -150.92)"/>
    <path id="Trazado_103092" data-name="Trazado 103092" d="M484.778,154.54h1.1l-2.37,5.816h-.871l-2.355-5.816h1.091l1.7,4.627Z" transform="translate(-443.944 -151.799)"/>
    <path id="Trazado_103093" data-name="Trazado 103093" d="M491.252,160.433a3.029,3.029,0,0,1-1.515-.363,2.605,2.605,0,0,1-1.053-1.053,3.248,3.248,0,0,1-.386-1.606,2.968,2.968,0,0,1,.825-2.2,3.1,3.1,0,0,1,4.211,0,3.029,3.029,0,0,1,.818,2.2,2.961,2.961,0,0,1-.825,2.2,2.825,2.825,0,0,1-2.075.825Zm0-.848a1.818,1.818,0,0,0,1.378-.6,2.272,2.272,0,0,0,.545-1.575,2.219,2.219,0,0,0-.545-1.568,1.787,1.787,0,0,0-1.378-.6,1.757,1.757,0,0,0-1.363.6,2.219,2.219,0,0,0-.545,1.568,2.272,2.272,0,0,0,.545,1.575,1.787,1.787,0,0,0,1.356.6Z" transform="translate(-445.89 -151.762)"/>
    <path id="Trazado_103094" data-name="Trazado 103094" d="M438.084,171.389h-3.431v2.719h3.029v.962h-3.029v3.681H433.57v-8.33h4.506Z" transform="translate(-432.608 -155.652)"/>
    <path id="Trazado_103095" data-name="Trazado 103095" d="M442.539,174.75a1.8,1.8,0,0,1,.757-.757,2.151,2.151,0,0,1,1.113-.3v.962a1.909,1.909,0,0,0-1.348.432,1.8,1.8,0,0,0-.47,1.378v3.1H441.57v-5.816h1Z" transform="translate(-434.55 -156.446)"/>
    <path id="Trazado_103096" data-name="Trazado 103096" d="M447.337,171.5a.7.7,0,0,1-.7-.7.658.658,0,0,1,.2-.485.7.7,0,0,1,.492-.2.674.674,0,0,1,.477.2.659.659,0,0,1,.2.485.674.674,0,0,1-.2.492.652.652,0,0,1-.477.2Zm-.522,7.179v-5.816h1.03v5.816Z" transform="translate(-435.78 -155.58)"/>
    <path id="Trazado_103097" data-name="Trazado 103097" d="M453.265,179.634a3.029,3.029,0,0,1-1.515-.363,2.591,2.591,0,0,1-1.045-1.053,3.248,3.248,0,0,1-.386-1.605,2.968,2.968,0,0,1,.825-2.2,3.09,3.09,0,0,1,4.2,0,3.332,3.332,0,0,1,0,4.392,2.84,2.84,0,0,1-2.083.825Zm0-.848a1.8,1.8,0,0,0,1.371-.6,2.272,2.272,0,0,0,.545-1.575,2.219,2.219,0,0,0-.545-1.568,1.871,1.871,0,0,0-2.742,0,2.565,2.565,0,0,0,0,3.143A1.787,1.787,0,0,0,453.265,178.785Z" transform="translate(-436.672 -156.422)"/>
    <path id="Trazado_103098" data-name="Trazado 103098" d="M438.616,197.953l-.712-1.984h-3.787l-.712,1.992H432.3l3.075-8.33h1.265l3.067,8.33Zm-4.142-2.923h3.1l-1.552-4.362Z" transform="translate(-432.3 -160.315)"/>
    <path id="Trazado_103099" data-name="Trazado 103099" d="M449.907,192.787a1.871,1.871,0,0,1,1.356.5,1.825,1.825,0,0,1,.515,1.386v4.044h-1.022v-3.787a1.3,1.3,0,0,0-.326-.962,1.091,1.091,0,0,0-.81-.318,1.159,1.159,0,0,0-.886.363,1.6,1.6,0,0,0-.333,1.1v3.6h-1.045v-3.734a1.378,1.378,0,0,0-.318-.992,1.091,1.091,0,0,0-.826-.333,1.136,1.136,0,0,0-.886.371,1.635,1.635,0,0,0-.341,1.128v3.559H444v-5.816h1.022v.757a1.749,1.749,0,0,1,.666-.644,1.878,1.878,0,0,1,.924-.227,1.931,1.931,0,0,1,.992.25,1.514,1.514,0,0,1,.644.7,1.8,1.8,0,0,1,.7-.7A1.954,1.954,0,0,1,449.907,192.787Z" transform="translate(-435.139 -161.079)"/>
    <path id="Trazado_103100" data-name="Trazado 103100" d="M461.832,195.712v.28h-4.544a2.037,2.037,0,0,0,.553,1.515,1.818,1.818,0,0,0,1.325.523,1.787,1.787,0,0,0,.969-.28,1.825,1.825,0,0,0,.659-.757l.924.2a2.628,2.628,0,0,1-.992,1.25,2.718,2.718,0,0,1-1.515.454,2.84,2.84,0,0,1-2.1-.81,3.461,3.461,0,0,1,0-4.423,2.772,2.772,0,0,1,2.06-.81,2.621,2.621,0,0,1,1.954.757A2.946,2.946,0,0,1,461.832,195.712Zm-2.688-2.12a1.787,1.787,0,0,0-1.212.416,1.886,1.886,0,0,0-.613,1.2H460.8a1.7,1.7,0,0,0-.507-1.2,1.606,1.606,0,0,0-1.151-.416Z" transform="translate(-438.128 -161.095)"/>
    <path id="Trazado_103101" data-name="Trazado 103101" d="M468.469,192.789a2.037,2.037,0,0,1,1.462.53,1.969,1.969,0,0,1,.545,1.515v3.915h-1.022v-3.68a1.393,1.393,0,0,0-.356-1.045,1.25,1.25,0,0,0-.909-.333,1.416,1.416,0,0,0-1.038.394,1.659,1.659,0,0,0-.409,1.189v3.476H465.72v-5.816h1.022v.757a1.939,1.939,0,0,1,1.727-.9Z" transform="translate(-440.411 -161.081)"/>
    <path id="Trazado_103102" data-name="Trazado 103102" d="M475.811,198.84a1.939,1.939,0,0,1-1.272-.4,1.424,1.424,0,0,1-.5-1.189,1.666,1.666,0,0,1,.159-.757,1.288,1.288,0,0,1,.477-.53,2.591,2.591,0,0,1,.682-.333,5.969,5.969,0,0,1,.886-.2l.939-.159c.341-.061.515-.242.515-.538a1.007,1.007,0,0,0-.363-.863,1.659,1.659,0,0,0-1.833,0,1.113,1.113,0,0,0-.432.81l-.924-.189a1.817,1.817,0,0,1,.757-1.25,2.726,2.726,0,0,1,1.59-.416,3.27,3.27,0,0,1,.841.106,2.136,2.136,0,0,1,.7.326,1.469,1.469,0,0,1,.5.621,2.34,2.34,0,0,1,.182.962v2.4a.976.976,0,0,0,.136.606.56.56,0,0,0,.454.159h.1v.757H478.9c-.629,0-1-.257-1.106-.757h-.045A2.227,2.227,0,0,1,475.811,198.84Zm.242-.825a1.568,1.568,0,0,0,1.25-.56,2.363,2.363,0,0,0,.47-1.515l-1.515.3a2.029,2.029,0,0,0-.9.326.848.848,0,0,0,0,1.272A1.174,1.174,0,0,0,476.053,198.014Z" transform="translate(-442.429 -161.088)"/>
    <path id="Trazado_103103" data-name="Trazado 103103" d="M483.56,197.931h3.1v.825H482l3.029-4.983h-2.885v-.833H486.6Z" transform="translate(-444.362 -161.118)"/>
    <path id="Trazado_103104" data-name="Trazado 103104" d="M490.958,198.837a1.946,1.946,0,0,1-1.28-.4,1.424,1.424,0,0,1-.5-1.189,1.665,1.665,0,0,1,.159-.757,1.288,1.288,0,0,1,.477-.53,2.59,2.59,0,0,1,.682-.333,6.208,6.208,0,0,1,.886-.2l.939-.159c.341-.061.515-.242.515-.538a1.007,1.007,0,0,0-.364-.863,1.461,1.461,0,0,0-.924-.28,1.515,1.515,0,0,0-.909.273,1.113,1.113,0,0,0-.432.81l-.924-.189a1.817,1.817,0,0,1,.757-1.25,2.727,2.727,0,0,1,1.59-.417,3.271,3.271,0,0,1,.841.106,2.136,2.136,0,0,1,.7.326,1.469,1.469,0,0,1,.5.621,2.339,2.339,0,0,1,.182.962v2.4a.977.977,0,0,0,.136.606.568.568,0,0,0,.454.159h.1v.757h-.507c-.629,0-1-.257-1.106-.757h-.106a2.219,2.219,0,0,1-1.871.848Zm.235-.825a1.568,1.568,0,0,0,1.25-.56,2.363,2.363,0,0,0,.469-1.515l-1.515.3a2.029,2.029,0,0,0-.9.326.848.848,0,0,0,0,1.272,1.174,1.174,0,0,0,.7.182Z" transform="translate(-446.103 -161.085)"/>
    <path id="Trazado_103105" data-name="Trazado 103105" d="M500.879,192.789a2.022,2.022,0,0,1,1.462.53,1.969,1.969,0,0,1,.553,1.515v3.915h-1.03v-3.681a1.394,1.394,0,0,0-.348-1.045,1.28,1.28,0,0,0-.916-.333,1.4,1.4,0,0,0-1.03.394,1.6,1.6,0,0,0-.409,1.189v3.476h-1.03v-5.816h1.03v.757a1.931,1.931,0,0,1,1.719-.9Z" transform="translate(-448.276 -161.081)"/>
    <path id="Trazado_103106" data-name="Trazado 103106" d="M508.6,198.13a1.515,1.515,0,0,1-1.136-.417,1.568,1.568,0,0,1-.417-1.159v-3.438H505.86V192.3h.439a.856.856,0,0,0,.644-.2,1.022,1.022,0,0,0,.182-.682V190.36h.954V192.3h1.34v.818h-1.34v3.317a.886.886,0,0,0,.22.636.758.758,0,0,0,.583.227h.538v.818Z" transform="translate(-450.152 -160.492)"/>
    <path id="Trazado_103107" data-name="Trazado 103107" d="M517.362,195.712v.28h-4.544a2.037,2.037,0,0,0,.553,1.515,1.824,1.824,0,0,0,1.325.523,1.787,1.787,0,0,0,.969-.28,1.826,1.826,0,0,0,.659-.757l.924.2a2.628,2.628,0,0,1-.992,1.25,2.719,2.719,0,0,1-1.515.454,2.84,2.84,0,0,1-2.1-.81,3.461,3.461,0,0,1,0-4.423,2.772,2.772,0,0,1,2.06-.81,2.62,2.62,0,0,1,1.954.757,2.945,2.945,0,0,1,.7,2.105Zm-2.689-2.12a1.787,1.787,0,0,0-1.212.417,1.885,1.885,0,0,0-.613,1.2h3.491a1.742,1.742,0,0,0-.515-1.2A1.606,1.606,0,0,0,514.674,193.591Z" transform="translate(-451.605 -161.095)"/>
    <path id="Trazado_103108" data-name="Trazado 103108" d="M436.735,208.82a2.454,2.454,0,0,1,1.31.348,2.326,2.326,0,0,1,.871.924,2.719,2.719,0,0,1,.31,1.287,2.544,2.544,0,0,1-.689,1.81,2.37,2.37,0,0,1-1.8.757H434.66v3.234H433.6v-8.33Zm-.151,4.173a1.515,1.515,0,0,0,1.159-.447,1.847,1.847,0,0,0,0-2.355,1.515,1.515,0,0,0-1.159-.454H434.66v3.256Z" transform="translate(-432.615 -164.972)"/>
    <path id="Trazado_103109" data-name="Trazado 103109" d="M447.393,214.9v.28h-4.544a2.037,2.037,0,0,0,.56,1.515,1.818,1.818,0,0,0,1.325.523,1.764,1.764,0,0,0,.962-.28,1.848,1.848,0,0,0,.667-.757l.916.2a2.583,2.583,0,0,1-.992,1.25,2.718,2.718,0,0,1-1.515.454,2.81,2.81,0,0,1-2.09-.81,3.446,3.446,0,0,1,0-4.423A2.787,2.787,0,0,1,444.7,212a2.628,2.628,0,0,1,1.961.757A2.969,2.969,0,0,1,447.393,214.9Zm-2.7-2.143a1.78,1.78,0,0,0-1.2.417,1.885,1.885,0,0,0-.613,1.2h3.484a1.734,1.734,0,0,0-.507-1.2A1.636,1.636,0,0,0,444.7,212.757Z" transform="translate(-434.625 -165.743)"/>
    <path id="Trazado_103110" data-name="Trazado 103110" d="M452.963,218.051a2.787,2.787,0,0,1-1.575-.417,1.742,1.742,0,0,1-.757-1.2l.894-.257a1.227,1.227,0,0,0,.477.81,1.515,1.515,0,0,0,.954.288,2.179,2.179,0,0,0,.56-.076.909.909,0,0,0,.424-.288.757.757,0,0,0,.174-.53,1.154,1.154,0,0,0-.045-.242,1.106,1.106,0,0,0-.1-.189.485.485,0,0,0-.167-.159l-.2-.129a2.111,2.111,0,0,0-.265-.106l-.28-.1-.326-.091-.341-.1a5.736,5.736,0,0,1-.6-.212,2.529,2.529,0,0,1-.492-.28,1.143,1.143,0,0,1-.394-.515,1.56,1.56,0,0,1-.121-.651,1.515,1.515,0,0,1,.28-.932,1.65,1.65,0,0,1,.757-.545,2.951,2.951,0,0,1,1.038-.167,2.545,2.545,0,0,1,1.416.379,1.59,1.59,0,0,1,.7,1.136l-.841.212a1.106,1.106,0,0,0-.439-.757,1.416,1.416,0,0,0-.841-.25,1.446,1.446,0,0,0-.757.2.7.7,0,0,0-.326.629.575.575,0,0,0,.091.318.81.81,0,0,0,.174.227.984.984,0,0,0,.318.174,2.726,2.726,0,0,0,.341.129l.424.106h.091l.56.159a4.062,4.062,0,0,1,.5.212,1.59,1.59,0,0,1,.454.318,1.514,1.514,0,0,1,.288.447,1.691,1.691,0,0,1,.114.629,1.651,1.651,0,0,1-.174.757,1.3,1.3,0,0,1-.477.53,2.007,2.007,0,0,1-.674.3A3.089,3.089,0,0,1,452.963,218.051Z" transform="translate(-436.749 -165.736)"/>
    <path id="Trazado_103111" data-name="Trazado 103111" d="M459.861,218.07a1.984,1.984,0,0,1-1.272-.4,1.424,1.424,0,0,1-.5-1.189,1.728,1.728,0,0,1,.159-.757,1.348,1.348,0,0,1,.47-.523,2.764,2.764,0,0,1,.689-.333,7.164,7.164,0,0,1,.878-.212l.947-.151c.341-.061.515-.242.515-.538a1.007,1.007,0,0,0-.363-.863,1.462,1.462,0,0,0-.924-.28,1.515,1.515,0,0,0-.909.265,1.1,1.1,0,0,0-.432.818l-.924-.2a1.765,1.765,0,0,1,.757-1.242,2.7,2.7,0,0,1,1.583-.417,3.294,3.294,0,0,1,.848.106,2.273,2.273,0,0,1,.7.326,1.468,1.468,0,0,1,.5.621,2.342,2.342,0,0,1,.182.962v2.4a1.038,1.038,0,0,0,.129.606.576.576,0,0,0,.462.159h.091v.757h-.507a.962.962,0,0,1-1.1-.757h-.038A2.211,2.211,0,0,1,459.861,218.07Zm.235-.825a1.515,1.515,0,0,0,1.25-.568,2.272,2.272,0,0,0,.477-1.515l-1.515.3a1.992,1.992,0,0,0-.9.326.847.847,0,0,0-.015,1.272,1.166,1.166,0,0,0,.7.167Z" transform="translate(-438.558 -165.755)"/>
    <path id="Trazado_103112" data-name="Trazado 103112" d="M471.037,207.82h1.022v9.088h-.992v-1.128a2.143,2.143,0,0,1-.826.916,2.31,2.31,0,0,1-1.234.341,2.62,2.62,0,0,1-1.053-.22,2.552,2.552,0,0,1-.863-.606,2.7,2.7,0,0,1-.583-.962,3.326,3.326,0,0,1-.22-1.242,3.083,3.083,0,0,1,.757-2.189,2.559,2.559,0,0,1,1.931-.841,2.317,2.317,0,0,1,1.219.333,2.18,2.18,0,0,1,.833.886Zm-1.84,8.33a1.765,1.765,0,0,0,1.356-.606,2.416,2.416,0,0,0,0-3.029,1.827,1.827,0,0,0-2.711-.023,2.188,2.188,0,0,0-.553,1.552,2.158,2.158,0,0,0,.553,1.515,1.772,1.772,0,0,0,1.356.583Z" transform="translate(-440.548 -164.729)"/>
    <path id="Trazado_103113" data-name="Trazado 103113" d="M478.945,218.061a3.029,3.029,0,0,1-1.515-.364,2.591,2.591,0,0,1-1.045-1.053,3.249,3.249,0,0,1-.386-1.613,2.961,2.961,0,0,1,.826-2.2,3.09,3.09,0,0,1,4.2,0,3.332,3.332,0,0,1,0,4.392A2.84,2.84,0,0,1,478.945,218.061Zm0-.848a1.8,1.8,0,0,0,1.378-.6,2.537,2.537,0,0,0,0-3.143,1.78,1.78,0,0,0-1.378-.6,1.757,1.757,0,0,0-1.363.6,2.567,2.567,0,0,0,0,3.143,1.788,1.788,0,0,0,1.356.576Z" transform="translate(-442.905 -165.746)"/>
    <path id="Trazado_103114" data-name="Trazado 103114" d="M442.288,236.33h-1.03l-.553-6.876-2.666,6.876h-.629l-2.643-6.816-.568,6.816h-1.03L433.8,228h1.4l2.522,6.5,2.537-6.5h1.4Z" transform="translate(-432.511 -169.627)"/>
    <path id="Trazado_103115" data-name="Trazado 103115" d="M448.991,237.24a1.984,1.984,0,0,1-1.272-.4,1.424,1.424,0,0,1-.5-1.189,1.725,1.725,0,0,1,.159-.757,1.317,1.317,0,0,1,.477-.523,2.589,2.589,0,0,1,.682-.333,6.975,6.975,0,0,1,.886-.212l.939-.151c.341-.061.515-.242.515-.538a1.007,1.007,0,0,0-.363-.863,1.462,1.462,0,0,0-.924-.28,1.514,1.514,0,0,0-.909.265,1.143,1.143,0,0,0-.432.818l-.924-.2a1.818,1.818,0,0,1,.757-1.242,2.726,2.726,0,0,1,1.59-.417,3.273,3.273,0,0,1,.841.106,2.211,2.211,0,0,1,.7.326,1.469,1.469,0,0,1,.5.621,2.341,2.341,0,0,1,.182.962V235.6a.977.977,0,0,0,.136.606.56.56,0,0,0,.454.159h.1v.757h-.507c-.629,0-1-.257-1.106-.757h-.045A2.227,2.227,0,0,1,448.991,237.24Zm.242-.825a1.552,1.552,0,0,0,1.25-.568,2.332,2.332,0,0,0,.47-1.515l-1.515.3a2.03,2.03,0,0,0-.9.326.848.848,0,0,0,0,1.272A1.174,1.174,0,0,0,449.233,236.414Z" transform="translate(-435.92 -170.407)"/>
    <path id="Trazado_103116" data-name="Trazado 103116" d="M456.17,236.088V227h1.037v9.088Z" transform="translate(-438.093 -169.384)"/>
    <path id="Trazado_103117" data-name="Trazado 103117" d="M465.233,234.082v.28h-4.544a2.037,2.037,0,0,0,.56,1.515,1.818,1.818,0,0,0,1.325.523,1.765,1.765,0,0,0,.962-.28,1.848,1.848,0,0,0,.666-.757l.924.2a2.635,2.635,0,0,1-1,1.25,2.719,2.719,0,0,1-1.515.454,2.81,2.81,0,0,1-2.09-.81,3.446,3.446,0,0,1,0-4.423,2.8,2.8,0,0,1,2.068-.81,2.621,2.621,0,0,1,1.954.757A2.923,2.923,0,0,1,465.233,234.082Zm-2.688-2.12a1.788,1.788,0,0,0-1.212.417,1.885,1.885,0,0,0-.613,1.2H464.2a1.735,1.735,0,0,0-.507-1.2,1.621,1.621,0,0,0-1.144-.394Z" transform="translate(-438.954 -170.407)"/>
    <path id="Trazado_103118" data-name="Trazado 103118" d="M472.168,231.335h1.1l-2.37,5.8h-.871l-2.355-5.816h1.091l1.7,4.627Z" transform="translate(-440.884 -170.432)"/>
    <path id="Trazado_103119" data-name="Trazado 103119" d="M478.642,237.233a3.029,3.029,0,0,1-1.515-.364,2.6,2.6,0,0,1-1.053-1.053,3.248,3.248,0,0,1-.386-1.605,2.969,2.969,0,0,1,.825-2.2,3.1,3.1,0,0,1,4.211,0,3.332,3.332,0,0,1,0,4.392A2.855,2.855,0,0,1,478.642,237.233Zm0-.848a1.8,1.8,0,0,0,1.378-.6,2.272,2.272,0,0,0,.545-1.575,2.219,2.219,0,0,0-.545-1.568,1.78,1.78,0,0,0-1.378-.6,1.757,1.757,0,0,0-1.363.6,2.219,2.219,0,0,0-.545,1.568,2.271,2.271,0,0,0,.545,1.575,1.787,1.787,0,0,0,1.356.6Z" transform="translate(-442.829 -170.401)"/>
    <path id="Trazado_103120" data-name="Trazado 103120" d="M485.57,236.088V227h1.038v9.088Z" transform="translate(-445.228 -169.384)"/>
    <path id="Trazado_103121" data-name="Trazado 103121" d="M491.972,237.233a3.028,3.028,0,0,1-1.515-.363,2.559,2.559,0,0,1-1.053-1.053,3.248,3.248,0,0,1-.386-1.605,2.969,2.969,0,0,1,.826-2.2,2.855,2.855,0,0,1,2.1-.825,2.885,2.885,0,0,1,2.113.826,3.029,3.029,0,0,1,.818,2.2,2.962,2.962,0,0,1-.825,2.2A2.84,2.84,0,0,1,491.972,237.233Zm0-.848a1.787,1.787,0,0,0,1.371-.6,2.272,2.272,0,0,0,.553-1.575,2.226,2.226,0,0,0-.553-1.568,1.765,1.765,0,0,0-1.371-.6,1.734,1.734,0,0,0-1.363.6,2.219,2.219,0,0,0-.545,1.568,2.272,2.272,0,0,0,.545,1.575A1.764,1.764,0,0,0,491.972,236.385Z" transform="translate(-446.064 -170.4)"/>
  </g>
  <g id="Grupo_57746" data-name="Grupo 57746" transform="translate(328.127 88.287)">
    <path id="Trazado_103122" data-name="Trazado 103122" d="M439.126,117.11h1.765v8.55h-2.052l-3.787-6.111v6.111H433.28v-8.55h2.06l3.787,6.058Z" transform="translate(-433.28 -116.709)"/>
    <path id="Trazado_103123" data-name="Trazado 103123" d="M451.493,123.278v.409H446.95a1.56,1.56,0,0,0,.485,1.113,1.689,1.689,0,0,0,1.87.174,1.325,1.325,0,0,0,.515-.613l1.56.227a2.7,2.7,0,0,1-1.068,1.431,3.143,3.143,0,0,1-1.795.507,3.287,3.287,0,0,1-2.37-.841,3.029,3.029,0,0,1-.879-2.317,3.1,3.1,0,0,1,.879-2.325,3.2,3.2,0,0,1,2.317-.848,2.779,2.779,0,0,1,3.029,3.082Zm-3.029-1.878a1.348,1.348,0,0,0-1.477,1.174h2.795a1.28,1.28,0,0,0-.424-.871,1.34,1.34,0,0,0-.863-.3Z" transform="translate(-436.188 -117.455)"/>
    <path id="Trazado_103124" data-name="Trazado 103124" d="M459.221,120.324h1.621v5.627a4.547,4.547,0,0,1-.227,1.515,2.446,2.446,0,0,1-.659,1.037,2.764,2.764,0,0,1-1.015.583,4.179,4.179,0,0,1-1.325.189,3,3,0,0,1-3.135-1.886l1.416-.606a2.053,2.053,0,0,0,.651.886,1.673,1.673,0,0,0,1,.28c1.053,0,1.583-.621,1.583-1.878v-.727a1.916,1.916,0,0,1-.757.6,2.567,2.567,0,0,1-1.083.227,2.711,2.711,0,0,1-1.068-.212,2.839,2.839,0,0,1-.886-.606,2.884,2.884,0,0,1-.6-.954,3.582,3.582,0,0,1,0-2.469,2.72,2.72,0,0,1,.606-.939,2.53,2.53,0,0,1,.886-.591,2.7,2.7,0,0,1,1.075-.22,2.5,2.5,0,0,1,1.128.257,1.749,1.749,0,0,1,.757.666Zm-2.613,4.021a1.469,1.469,0,0,0,1.113.47,1.515,1.515,0,0,0,1.121-.47,1.7,1.7,0,0,0,0-2.317,1.583,1.583,0,0,0-2.272,0,1.621,1.621,0,0,0-.447,1.166,1.59,1.59,0,0,0,.485,1.151Z" transform="translate(-438.425 -117.454)"/>
    <path id="Trazado_103125" data-name="Trazado 103125" d="M470.06,124.77a5.688,5.688,0,0,0,.144,1.515v.167h-1.59l-.136-.659a1.961,1.961,0,0,1-.848.583,3.21,3.21,0,0,1-1.106.2,3.439,3.439,0,0,1-.568-.053,2.03,2.03,0,0,1-.507-.182,1.514,1.514,0,0,1-.424-.318,1.259,1.259,0,0,1-.28-.485,1.764,1.764,0,0,1-.114-.659,1.825,1.825,0,0,1,.114-.659,1.574,1.574,0,0,1,.3-.492,1.886,1.886,0,0,1,.485-.364,3.784,3.784,0,0,1,.6-.257,7.084,7.084,0,0,1,.757-.189l1-.227a.992.992,0,0,0,.447-.189.379.379,0,0,0,.136-.3.644.644,0,0,0-.3-.591,1.515,1.515,0,0,0-.757-.174,1.045,1.045,0,0,0-1.189.931l-1.515-.273a2.045,2.045,0,0,1,.878-1.393,3.521,3.521,0,0,1,1.908-.447q2.56,0,2.56,2.2Zm-3.029.613a1.363,1.363,0,0,0,1.053-.439,1.84,1.84,0,0,0,.409-1.3l-1.446.409a1.621,1.621,0,0,0-.606.25.515.515,0,0,0-.212.439.561.561,0,0,0,.227.477.924.924,0,0,0,.606.144Z" transform="translate(-440.888 -117.469)"/>
    <path id="Trazado_103126" data-name="Trazado 103126" d="M475.892,125.823a1.81,1.81,0,0,1-1.371-.492,1.908,1.908,0,0,1-.485-1.409v-2.87h-1.2v-1.31h.386a1,1,0,0,0,.757-.257,1.31,1.31,0,0,0,.242-.9v-.8h1.515v1.961h1.25v1.31h-1.227v2.688c0,.53.235.757.7.757h.545v1.3Z" transform="translate(-442.881 -116.871)"/>
    <path id="Trazado_103127" data-name="Trazado 103127" d="M480.924,118.541a.969.969,0,0,1-.7-.288.954.954,0,0,1-.288-.7.932.932,0,0,1,.3-.689.977.977,0,1,1,1.378,1.386A.947.947,0,0,1,480.924,118.541Zm-.863,6.99v-6.058h1.712v6.058Z" transform="translate(-444.604 -116.58)"/>
    <path id="Trazado_103128" data-name="Trazado 103128" d="M488.362,120.37h1.8l-2.59,6.058H486.06l-2.56-6.058h1.795l1.515,4.158Z" transform="translate(-445.468 -117.5)"/>
    <path id="Trazado_103129" data-name="Trazado 103129" d="M495.832,126.546a3.9,3.9,0,0,1-1.719-.371,2.8,2.8,0,0,1-1.182-1.1,3.226,3.226,0,0,1-.432-1.7,3.029,3.029,0,0,1,.924-2.272,3.855,3.855,0,0,1,4.824,0,3.362,3.362,0,0,1,0,4.627,3.423,3.423,0,0,1-2.416.81Zm0-1.356a1.568,1.568,0,0,0,1.2-.5,1.848,1.848,0,0,0,.454-1.31,1.886,1.886,0,0,0-.454-1.318,1.591,1.591,0,0,0-1.2-.492,1.515,1.515,0,0,0-1.174.5,2.143,2.143,0,0,0,0,2.62,1.515,1.515,0,0,0,1.159.5Z" transform="translate(-447.652 -117.473)"/>
  </g>
</svg>
