<svg xmlns="http://www.w3.org/2000/svg" width="426.789" height="227.525" viewBox="0 0 426.789 227.525">
  <g id="info_1_4-07" transform="translate(0)">
    <rect id="Rectángulo_5405" data-name="Rectángulo 5405" width="213.395" height="173" transform="translate(0)" fill="#8cc63f"/>
    <rect id="Rectángulo_5406" data-name="Rectángulo 5406" width="213.395" height="227.526" transform="translate(213.395)" fill="#f2f2f2"/>
    <rect id="Rectángulo_5407" data-name="Rectángulo 5407" width="53.345" height="54.526" transform="translate(0 173)" fill="#8cc63f"/>
    <g id="Grupo_57714" data-name="Grupo 57714" transform="translate(53.345 173)" opacity="0.75">
      <rect id="Rectángulo_5408" data-name="Rectángulo 5408" width="53.345" height="54.526" fill="#8cc63f"/>
    </g>
    <g id="Grupo_57715" data-name="Grupo 57715" transform="translate(106.697 173)" opacity="0.5">
      <rect id="Rectángulo_5409" data-name="Rectángulo 5409" width="53.345" height="54.526" fill="#8cc63f"/>
    </g>
    <g id="Grupo_57716" data-name="Grupo 57716" transform="translate(160.042 173)" opacity="0.25">
      <rect id="Rectángulo_5410" data-name="Rectángulo 5410" width="53.345" height="54.526" fill="#8cc63f"/>
    </g>
    <g id="Grupo_57717" data-name="Grupo 57717" transform="translate(238.386 40.819)">
      <path id="Trazado_102713" data-name="Trazado 102713" d="M329.9,55.59h4.476l-7.5,20.3H322.24l-7.46-20.3h4.468l5.3,15.389Z" transform="translate(-314.78 -54.31)"/>
      <path id="Trazado_102714" data-name="Trazado 102714" d="M355.281,70.24v.969H344.557a3.786,3.786,0,0,0,1.151,2.643,3.718,3.718,0,0,0,2.545.909,3.567,3.567,0,0,0,1.908-.5,3.075,3.075,0,0,0,1.212-1.454l3.711.553a6.361,6.361,0,0,1-2.529,3.385,7.573,7.573,0,0,1-4.271,1.2,7.808,7.808,0,0,1-5.627-1.984,7.255,7.255,0,0,1-2.09-5.521,7.285,7.285,0,0,1,2.1-5.513,7.573,7.573,0,0,1,5.49-2.014,6.575,6.575,0,0,1,7.126,7.323Zm-7.126-4.461a3.2,3.2,0,0,0-3.514,2.787h6.634a3.029,3.029,0,0,0-1-2.067,3.165,3.165,0,0,0-2.09-.719Z" transform="translate(-321.035 -56.086)"/>
      <path id="Trazado_102715" data-name="Trazado 102715" d="M367.977,65.552a4.7,4.7,0,0,1,1.9-1.734,5.733,5.733,0,0,1,2.817-.757v3.6a5.5,5.5,0,0,0-3.453.894,3.815,3.815,0,0,0-1.068,3.1v7.051H364.1V63.264h3.877Z" transform="translate(-326.749 -56.123)"/>
      <path id="Trazado_102716" data-name="Trazado 102716" d="M388.359,53.9H392.4V75.483h-3.84l-.1-1.878a4.165,4.165,0,0,1-1.833,1.636,6.2,6.2,0,0,1-2.7.583,6.983,6.983,0,0,1-2.7-.523,6.528,6.528,0,0,1-3.711-3.847A8.848,8.848,0,0,1,377,68.289a8.2,8.2,0,0,1,.954-4.021,6.482,6.482,0,0,1,2.522-2.62,6.944,6.944,0,0,1,3.461-.856,6.377,6.377,0,0,1,2.62.523,4.188,4.188,0,0,1,1.81,1.515Zm-3.5,18.562a3.567,3.567,0,0,0,2.726-1.151,4.733,4.733,0,0,0,0-6.058,3.582,3.582,0,0,0-2.719-1.159,3.627,3.627,0,0,0-2.749,1.144,4.786,4.786,0,0,0,0,6.058,3.65,3.65,0,0,0,2.749,1.166Z" transform="translate(-329.88 -53.9)"/>
      <path id="Trazado_102717" data-name="Trazado 102717" d="M416.093,70.245l-.038.969H405.347a3.726,3.726,0,0,0,1.151,2.643,3.688,3.688,0,0,0,2.545.909,3.544,3.544,0,0,0,1.886-.5,3.09,3.09,0,0,0,1.234-1.439l3.7.553a6.323,6.323,0,0,1-2.529,3.385,7.52,7.52,0,0,1-4.271,1.2,7.831,7.831,0,0,1-5.627-1.984,7.278,7.278,0,0,1-2.083-5.521,7.308,7.308,0,0,1,2.09-5.513,7.573,7.573,0,0,1,5.5-2.014,7.247,7.247,0,0,1,5.18,1.84A7.174,7.174,0,0,1,416.093,70.245Zm-7.126-4.461a3.2,3.2,0,0,0-3.514,2.787h6.634A3.029,3.029,0,0,0,411.1,66.5,3.188,3.188,0,0,0,408.967,65.785Z" transform="translate(-335.788 -56.091)"/>
    </g>
    <g id="Grupo_57718" data-name="Grupo 57718" transform="translate(241.665 114.294)">
      <path id="Trazado_102718" data-name="Trazado 102718" d="M325.434,159.55l-.719-1.992h-3.787l-.712,1.992H319.11l3.067-8.33h1.265l3.075,8.33Zm-4.135-2.923h3.1l-1.59-4.339Z" transform="translate(-319.11 -150.994)"/>
      <path id="Trazado_102719" data-name="Trazado 102719" d="M331.769,155.55a1.8,1.8,0,0,1,.757-.757,2.151,2.151,0,0,1,1.113-.3v.962a1.909,1.909,0,0,0-1.348.432,1.8,1.8,0,0,0-.469,1.378v3.1H330.8v-5.816h1Z" transform="translate(-321.947 -151.787)"/>
      <path id="Trazado_102720" data-name="Trazado 102720" d="M342.083,154.389a1.863,1.863,0,0,1,1.356.5,1.825,1.825,0,0,1,.515,1.386v4.044h-1.022v-3.787a1.325,1.325,0,0,0-.318-.962,1.121,1.121,0,0,0-.81-.326,1.166,1.166,0,0,0-.894.371,1.6,1.6,0,0,0-.333,1.1v3.6h-1.045V156.57a1.371,1.371,0,0,0-.318-.985,1.1,1.1,0,0,0-.826-.341,1.143,1.143,0,0,0-.886.379,1.636,1.636,0,0,0-.341,1.128v3.559H336.1V154.5h1.022v.757a1.786,1.786,0,0,1,.666-.636,1.878,1.878,0,0,1,.924-.227,1.931,1.931,0,0,1,.992.25,1.515,1.515,0,0,1,.651.7,1.734,1.734,0,0,1,.7-.7A1.954,1.954,0,0,1,342.083,154.389Z" transform="translate(-323.233 -151.762)"/>
      <path id="Trazado_102721" data-name="Trazado 102721" d="M351.323,160.433a3.029,3.029,0,0,1-1.515-.363,2.591,2.591,0,0,1-1.045-1.053,3.174,3.174,0,0,1-.394-1.606,3.029,3.029,0,0,1,.826-2.2,3.1,3.1,0,0,1,4.211,0,3.332,3.332,0,0,1,0,4.392A2.84,2.84,0,0,1,351.323,160.433Zm0-.848a1.8,1.8,0,0,0,1.378-.6,2.272,2.272,0,0,0,.545-1.575,2.219,2.219,0,0,0-.545-1.568,1.779,1.779,0,0,0-1.378-.6,1.757,1.757,0,0,0-1.363.6,2.565,2.565,0,0,0,0,3.143,1.788,1.788,0,0,0,1.356.6Z" transform="translate(-326.21 -151.763)"/>
      <path id="Trazado_102722" data-name="Trazado 102722" d="M361,154.389a2.022,2.022,0,0,1,1.462.53,1.969,1.969,0,0,1,.553,1.515v3.915h-1.03v-3.68a1.394,1.394,0,0,0-.348-1.045,1.28,1.28,0,0,0-.916-.341,1.4,1.4,0,0,0-1.03.4,1.6,1.6,0,0,0-.409,1.189v3.476h-1.03v-5.816h1.03v.757a1.931,1.931,0,0,1,1.719-.9Z" transform="translate(-328.609 -151.762)"/>
      <path id="Trazado_102723" data-name="Trazado 102723" d="M367.609,152.3a.659.659,0,0,1-.485-.2.674.674,0,0,1-.2-.492.659.659,0,0,1,.2-.485.7.7,0,0,1,.969,0,.659.659,0,0,1,.2.485.674.674,0,0,1-.2.492A.659.659,0,0,1,367.609,152.3Zm-.515,7.179v-5.816h1.022v5.816Z" transform="translate(-330.713 -150.921)"/>
      <path id="Trazado_102724" data-name="Trazado 102724" d="M372.429,160.437a2.007,2.007,0,0,1-1.28-.4,1.424,1.424,0,0,1-.5-1.189,1.576,1.576,0,0,1,.167-.757,1.265,1.265,0,0,1,.469-.53,2.848,2.848,0,0,1,.682-.333,6.454,6.454,0,0,1,.886-.2l.939-.159c.348-.061.515-.242.515-.538a1.007,1.007,0,0,0-.363-.863,1.439,1.439,0,0,0-.916-.28,1.56,1.56,0,0,0-.916.265,1.144,1.144,0,0,0-.432.818l-.916-.189a1.765,1.765,0,0,1,.757-1.25,2.681,2.681,0,0,1,1.583-.417,3.188,3.188,0,0,1,.841.106,2.134,2.134,0,0,1,.7.326,1.431,1.431,0,0,1,.507.621,2.338,2.338,0,0,1,.182.962v2.4a.984.984,0,0,0,.129.606.576.576,0,0,0,.462.159h.091v.757h-.507a.962.962,0,0,1-1.1-.757h-.053A2.2,2.2,0,0,1,372.429,160.437Zm.235-.825a1.552,1.552,0,0,0,1.25-.568,2.272,2.272,0,0,0,.47-1.515l-1.515.3a2.067,2.067,0,0,0-.9.326.84.84,0,0,0-.008,1.272,1.136,1.136,0,0,0,.727.189Z" transform="translate(-331.617 -151.767)"/>
      <path id="Trazado_102725" data-name="Trazado 102725" d="M324.346,174.412a2.166,2.166,0,0,1,1.2.757,2.037,2.037,0,0,1,.447,1.363,2.188,2.188,0,0,1-.644,1.628,2.325,2.325,0,0,1-1.712.629H320.4v-8.33h2.522a2.559,2.559,0,0,1,1.787.613,2.067,2.067,0,0,1,.674,1.6,2.143,2.143,0,0,1-.265,1.068A1.741,1.741,0,0,1,324.346,174.412Zm.045-1.712a1.272,1.272,0,0,0-.4-.962,1.515,1.515,0,0,0-1.075-.379H321.4v2.719h1.727a1.189,1.189,0,0,0,.924-.394A1.453,1.453,0,0,0,324.391,172.7Zm-.932,5.119a1.514,1.514,0,0,0,1.1-.409,1.469,1.469,0,0,0,0-2.052,1.62,1.62,0,0,0-1.159-.4h-1.961v2.863Z" transform="translate(-319.423 -155.662)"/>
      <path id="Trazado_102726" data-name="Trazado 102726" d="M331.241,179.637a1.939,1.939,0,0,1-1.272-.4,1.424,1.424,0,0,1-.5-1.189,1.665,1.665,0,0,1,.159-.757,1.317,1.317,0,0,1,.47-.53,2.845,2.845,0,0,1,.682-.333,6.454,6.454,0,0,1,.886-.2l.939-.159c.348-.061.515-.242.515-.538a1.007,1.007,0,0,0-.363-.863,1.439,1.439,0,0,0-.916-.28,1.469,1.469,0,0,0-.909.273,1.068,1.068,0,0,0-.432.81l-.924-.189a1.765,1.765,0,0,1,.757-1.25,2.68,2.68,0,0,1,1.583-.417,3.189,3.189,0,0,1,.841.106,2.135,2.135,0,0,1,.7.326,1.432,1.432,0,0,1,.507.621,2.341,2.341,0,0,1,.182.962v2.4a1.038,1.038,0,0,0,.129.606.576.576,0,0,0,.462.159h.091v.757h-.507a.962.962,0,0,1-1.1-.757h-.045A2.226,2.226,0,0,1,331.241,179.637Zm.235-.825a1.568,1.568,0,0,0,1.25-.56,2.324,2.324,0,0,0,.477-1.515l-1.515.3a2.068,2.068,0,0,0-.9.326.854.854,0,0,0-.008,1.272A1.151,1.151,0,0,0,331.476,178.812Z" transform="translate(-321.623 -156.426)"/>
      <path id="Trazado_102727" data-name="Trazado 102727" d="M338.42,178.508V169.42h1.037v9.088Z" transform="translate(-323.796 -155.411)"/>
      <path id="Trazado_102728" data-name="Trazado 102728" d="M343.741,179.637a1.939,1.939,0,0,1-1.272-.4,1.424,1.424,0,0,1-.5-1.189,1.665,1.665,0,0,1,.159-.757,1.316,1.316,0,0,1,.47-.53,2.844,2.844,0,0,1,.682-.333,6.452,6.452,0,0,1,.886-.2l.939-.159c.348-.061.515-.242.515-.538a1.007,1.007,0,0,0-.363-.863,1.439,1.439,0,0,0-.916-.28,1.469,1.469,0,0,0-.909.273,1.068,1.068,0,0,0-.432.81l-.924-.189a1.764,1.764,0,0,1,.757-1.25,2.681,2.681,0,0,1,1.583-.417,3.188,3.188,0,0,1,.841.106,2.135,2.135,0,0,1,.7.326,1.432,1.432,0,0,1,.507.621,2.343,2.343,0,0,1,.182.962v2.4a1.038,1.038,0,0,0,.129.606.576.576,0,0,0,.462.159h.053v.757h-.507a.962.962,0,0,1-1.1-.757h-.045A2.226,2.226,0,0,1,343.741,179.637Zm.235-.825a1.568,1.568,0,0,0,1.25-.56,2.324,2.324,0,0,0,.477-1.515l-1.515.3a2.068,2.068,0,0,0-.9.326.854.854,0,0,0-.008,1.272A1.151,1.151,0,0,0,343.976,178.812Z" transform="translate(-324.657 -156.426)"/>
      <path id="Trazado_102729" data-name="Trazado 102729" d="M353.661,173.589a2.045,2.045,0,0,1,1.469.53,1.969,1.969,0,0,1,.545,1.515v3.915h-1.022v-3.681a1.393,1.393,0,0,0-.356-1.045,1.249,1.249,0,0,0-.909-.333,1.4,1.4,0,0,0-1.038.394,1.659,1.659,0,0,0-.409,1.189v3.476H350.92v-5.816h1.022v.757a1.939,1.939,0,0,1,1.719-.9Z" transform="translate(-326.83 -156.422)"/>
      <path id="Trazado_102730" data-name="Trazado 102730" d="M362.069,179.625a2.779,2.779,0,0,1-2.083-.833,3.3,3.3,0,0,1,0-4.362,2.787,2.787,0,0,1,2.09-.841,2.817,2.817,0,0,1,1.681.515,2.522,2.522,0,0,1,.977,1.409l-.954.159a1.742,1.742,0,0,0-1.712-1.227,1.719,1.719,0,0,0-1.348.6,2.583,2.583,0,0,0,0,3.135,1.817,1.817,0,0,0,3.06-.636l.954.159a2.552,2.552,0,0,1-.984,1.416A2.81,2.81,0,0,1,362.069,179.625Z" transform="translate(-328.831 -156.422)"/>
      <path id="Trazado_102731" data-name="Trazado 102731" d="M373.452,176.507v.28h-4.544a2.037,2.037,0,0,0,.553,1.515,1.818,1.818,0,0,0,1.325.523,1.757,1.757,0,0,0,1.628-1.053l.924.2a2.628,2.628,0,0,1-.992,1.25,2.718,2.718,0,0,1-1.515.454,2.84,2.84,0,0,1-2.1-.81,3.461,3.461,0,0,1,0-4.423,2.771,2.771,0,0,1,2.06-.81,2.62,2.62,0,0,1,1.954.757,2.946,2.946,0,0,1,.7,2.12Zm-2.688-2.12a1.825,1.825,0,0,0-1.212.417,1.886,1.886,0,0,0-.613,1.2h3.484a1.7,1.7,0,0,0-.507-1.2A1.636,1.636,0,0,0,370.764,174.387Z" transform="translate(-330.959 -156.432)"/>
      <path id="Trazado_102732" data-name="Trazado 102732" d="M324.861,190.589h-3.378v2.726h2.976v.947h-2.976v2.726h3.378v.962H320.4v-8.33h4.461Z" transform="translate(-319.423 -160.313)"/>
      <path id="Trazado_102733" data-name="Trazado 102733" d="M330.3,198.838a2.749,2.749,0,0,1-1.568-.417,1.749,1.749,0,0,1-.757-1.2l.894-.257a1.287,1.287,0,0,0,.477.81,1.568,1.568,0,0,0,.954.288,2.136,2.136,0,0,0,.56-.076.969.969,0,0,0,.432-.288.825.825,0,0,0,.174-.53.809.809,0,0,0-.053-.242.884.884,0,0,0-.091-.189.484.484,0,0,0-.167-.159,1.731,1.731,0,0,0-.2-.129,1.573,1.573,0,0,0-.258-.106l-.288-.1-.326-.091-.333-.1c-.242-.076-.447-.144-.606-.212a2.773,2.773,0,0,1-.492-.28,1.128,1.128,0,0,1-.379-.462,1.561,1.561,0,0,1-.129-.651,1.515,1.515,0,0,1,.288-.931,1.606,1.606,0,0,1,.757-.545,2.908,2.908,0,0,1,1.03-.167,2.529,2.529,0,0,1,1.416.379,1.621,1.621,0,0,1,.712,1.136l-.841.212a1.091,1.091,0,0,0-.447-.757,1.378,1.378,0,0,0-.833-.25,1.446,1.446,0,0,0-.757.2.689.689,0,0,0-.326.629.643.643,0,0,0,.083.318,1.245,1.245,0,0,0,.174.227.955.955,0,0,0,.326.174,2.732,2.732,0,0,0,.341.129l.424.106h.091l.56.159a4.055,4.055,0,0,1,.5.212,1.837,1.837,0,0,1,.454.318,1.587,1.587,0,0,1,.4,1.075,1.749,1.749,0,0,1-.174.757,1.3,1.3,0,0,1-.477.53,2.074,2.074,0,0,1-.674.3A3.143,3.143,0,0,1,330.3,198.838Z" transform="translate(-321.263 -161.087)"/>
      <path id="Trazado_102734" data-name="Trazado 102734" d="M337.581,198.13a1.515,1.515,0,0,1-1.136-.417,1.567,1.567,0,0,1-.416-1.159v-3.438H334.84V192.3h.439a.856.856,0,0,0,.644-.2,1.023,1.023,0,0,0,.182-.682V190.36h.954V192.3h1.34v.818h-1.34v3.317a.886.886,0,0,0,.22.636.757.757,0,0,0,.583.227h.538v.818Z" transform="translate(-322.928 -160.492)"/>
      <path id="Trazado_102735" data-name="Trazado 102735" d="M342.6,198.837a1.984,1.984,0,0,1-1.272-.4,1.4,1.4,0,0,1-.5-1.189,1.725,1.725,0,0,1,.159-.757,1.3,1.3,0,0,1,.47-.522,2.846,2.846,0,0,1,.682-.333,7.683,7.683,0,0,1,.886-.212l.939-.151c.348-.061.515-.242.515-.538a1.007,1.007,0,0,0-.363-.863,1.439,1.439,0,0,0-.916-.28,1.56,1.56,0,0,0-.916.265,1.143,1.143,0,0,0-.432.818l-.893-.2a1.764,1.764,0,0,1,.757-1.242,2.681,2.681,0,0,1,1.583-.417,3.187,3.187,0,0,1,.841.106,2.135,2.135,0,0,1,.7.326,1.43,1.43,0,0,1,.507.621,2.34,2.34,0,0,1,.182.962v2.4a.984.984,0,0,0,.129.606.576.576,0,0,0,.462.159h.091v.757h-.508a.962.962,0,0,1-1.1-.757h-.053A2.2,2.2,0,0,1,342.6,198.837Zm.235-.825a1.552,1.552,0,0,0,1.25-.568,2.271,2.271,0,0,0,.47-1.515l-1.515.3a2.068,2.068,0,0,0-.9.326.854.854,0,0,0-.008,1.272,1.151,1.151,0,0,0,.7.189Z" transform="translate(-324.38 -161.086)"/>
      <path id="Trazado_102736" data-name="Trazado 102736" d="M352.867,191.778a2.544,2.544,0,0,1,1.924.841,3.083,3.083,0,0,1,.757,2.189,3.12,3.12,0,0,1-.757,2.189,2.537,2.537,0,0,1-1.931.841,2.317,2.317,0,0,1-1.242-.341,2.166,2.166,0,0,1-.833-.916v1.128H349.8V188.62h1.015V193a2.151,2.151,0,0,1,.833-.894A2.325,2.325,0,0,1,352.867,191.778Zm-.227,5.165a1.787,1.787,0,0,0,1.363-.591,2.188,2.188,0,0,0,.553-1.515,2.226,2.226,0,0,0-.553-1.515,1.788,1.788,0,0,0-1.363-.591,1.742,1.742,0,0,0-1.348.613,2.272,2.272,0,0,0-.553,1.515,2.2,2.2,0,0,0,.553,1.515,1.749,1.749,0,0,0,1.348.568Z" transform="translate(-326.558 -160.07)"/>
      <path id="Trazado_102737" data-name="Trazado 102737" d="M360.019,190.7a.674.674,0,0,1-.492-.2.7.7,0,0,1-.2-.492.682.682,0,0,1,.2-.485.7.7,0,0,1,.977,0,.659.659,0,0,1,.2.485.7.7,0,0,1-.689.7Zm-.523,7.179v-5.816h1.03v5.816Z" transform="translate(-328.871 -160.24)"/>
      <path id="Trazado_102738" data-name="Trazado 102738" d="M363.66,197.708V188.62h1.015v9.088Z" transform="translate(-329.922 -160.07)"/>
      <path id="Trazado_102739" data-name="Trazado 102739" d="M368.247,190.7a.7.7,0,0,1-.7-.7.658.658,0,0,1,.2-.485.7.7,0,0,1,.492-.2.673.673,0,0,1,.477.2.659.659,0,0,1,.2.485.674.674,0,0,1-.2.492A.651.651,0,0,1,368.247,190.7Zm-.523,7.179v-5.816h1.03v5.816Z" transform="translate(-330.866 -160.24)"/>
      <path id="Trazado_102740" data-name="Trazado 102740" d="M376.037,188.62h1.022v9.088h-.985v-1.128a2.166,2.166,0,0,1-.833.916,2.272,2.272,0,0,1-1.227.341,2.673,2.673,0,0,1-1.924-.825,2.817,2.817,0,0,1-.583-.962,3.476,3.476,0,0,1-.22-1.242,3.029,3.029,0,0,1,.8-2.189,2.537,2.537,0,0,1,1.931-.841,2.317,2.317,0,0,1,1.212.333,2.181,2.181,0,0,1,.833.886Zm-1.833,8.33a1.749,1.749,0,0,0,1.348-.606,2.393,2.393,0,0,0,0-3.029,1.75,1.75,0,0,0-1.348-.613,1.787,1.787,0,0,0-1.363.591,2.227,2.227,0,0,0-.553,1.515,2.188,2.188,0,0,0,.553,1.515,1.787,1.787,0,0,0,1.363.621Z" transform="translate(-331.773 -160.07)"/>
      <path id="Trazado_102741" data-name="Trazado 102741" d="M382.861,198.84a1.984,1.984,0,0,1-1.272-.4,1.424,1.424,0,0,1-.5-1.189,1.726,1.726,0,0,1,.159-.757,1.318,1.318,0,0,1,.477-.522,2.587,2.587,0,0,1,.682-.333,6.98,6.98,0,0,1,.886-.212l.939-.151c.341-.061.515-.242.515-.538a1.007,1.007,0,0,0-.364-.863,1.462,1.462,0,0,0-.924-.28,1.515,1.515,0,0,0-.909.265,1.143,1.143,0,0,0-.432.818l-.924-.2a1.818,1.818,0,0,1,.757-1.242,2.726,2.726,0,0,1,1.59-.416,3.27,3.27,0,0,1,.841.106,2.21,2.21,0,0,1,.7.326,1.469,1.469,0,0,1,.5.621,2.342,2.342,0,0,1,.182.962v2.4a.976.976,0,0,0,.136.606.56.56,0,0,0,.454.159h.1v.757h-.507c-.629,0-1-.257-1.106-.757h-.038A2.2,2.2,0,0,1,382.861,198.84Zm.242-.825a1.553,1.553,0,0,0,1.25-.568,2.332,2.332,0,0,0,.47-1.515l-1.515.3a2.029,2.029,0,0,0-.9.326.847.847,0,0,0-.015,1.272A1.174,1.174,0,0,0,383.1,198.014Z" transform="translate(-334.151 -161.088)"/>
      <path id="Trazado_102742" data-name="Trazado 102742" d="M394.037,188.62h1.022v9.088h-.985v-1.128a2.166,2.166,0,0,1-.833.916,2.272,2.272,0,0,1-1.227.341,2.673,2.673,0,0,1-1.924-.825,2.817,2.817,0,0,1-.583-.962,3.474,3.474,0,0,1-.22-1.242,3.029,3.029,0,0,1,.8-2.189,2.537,2.537,0,0,1,1.931-.841,2.317,2.317,0,0,1,1.212.333,2.181,2.181,0,0,1,.833.886Zm-1.833,8.33a1.749,1.749,0,0,0,1.348-.606,2.393,2.393,0,0,0,0-3.029,1.75,1.75,0,0,0-1.348-.613,1.787,1.787,0,0,0-1.363.591,2.226,2.226,0,0,0-.553,1.515,2.188,2.188,0,0,0,.553,1.515,1.787,1.787,0,0,0,1.363.621Z" transform="translate(-336.141 -160.07)"/>
      <path id="Trazado_102743" data-name="Trazado 102743" d="M322.746,217.272a3.786,3.786,0,0,1-2.173-.591,2.476,2.476,0,0,1-1.083-1.613l1.068-.257a1.727,1.727,0,0,0,.757,1.136,2.507,2.507,0,0,0,1.469.416,3.2,3.2,0,0,0,.553-.045,2.751,2.751,0,0,0,.5-.159,1.6,1.6,0,0,0,.409-.273,1.136,1.136,0,0,0,.273-.409,1.288,1.288,0,0,0,.091-.553,1.1,1.1,0,0,0-.068-.394,1.323,1.323,0,0,0-.167-.311,1.014,1.014,0,0,0-.28-.25,2.891,2.891,0,0,0-.341-.2,3.141,3.141,0,0,0-.416-.167l-.439-.136-.477-.136h-.091l-.56-.151-.515-.182a2.782,2.782,0,0,1-.492-.227,3.745,3.745,0,0,1-.409-.288,1.264,1.264,0,0,1-.333-.371,1.788,1.788,0,0,1-.2-.47,2.109,2.109,0,0,1-.076-.591,2.136,2.136,0,0,1,.386-1.28,2.31,2.31,0,0,1,1-.757,3.6,3.6,0,0,1,1.378-.25,3.787,3.787,0,0,1,2,.515,2.272,2.272,0,0,1,1.06,1.515l-1.03.257a1.515,1.515,0,0,0-.689-1.022,2.385,2.385,0,0,0-1.3-.341,2.438,2.438,0,0,0-.636.076,1.719,1.719,0,0,0-.553.235,1.106,1.106,0,0,0-.4.432,1.363,1.363,0,0,0-.151.636,1.045,1.045,0,0,0,.212.636,1.241,1.241,0,0,0,.25.227l.311.189a3.8,3.8,0,0,0,.386.151l.416.129.454.121a9.511,9.511,0,0,1,1.606.53,2.022,2.022,0,0,1,1.234,1.515,2.746,2.746,0,0,1,0,.363,2.317,2.317,0,0,1-.235,1.075,1.977,1.977,0,0,1-.659.757,3.462,3.462,0,0,1-.932.416,4.416,4.416,0,0,1-1.1.1Z" transform="translate(-319.202 -164.958)"/>
      <path id="Trazado_102744" data-name="Trazado 102744" d="M334.922,214.912v.28h-4.544a2.037,2.037,0,0,0,.553,1.515,1.817,1.817,0,0,0,1.325.523,1.765,1.765,0,0,0,.962-.28,1.794,1.794,0,0,0,.666-.757l.924.2a2.673,2.673,0,0,1-.992,1.25,2.719,2.719,0,0,1-1.515.454,2.825,2.825,0,0,1-2.1-.81,3.029,3.029,0,0,1-.8-2.211,2.977,2.977,0,0,1,.8-2.2,2.749,2.749,0,0,1,2.06-.818,2.62,2.62,0,0,1,1.954.757A2.946,2.946,0,0,1,334.922,214.912Zm-2.688-2.12a1.787,1.787,0,0,0-1.212.417,1.886,1.886,0,0,0-.614,1.2h3.484a1.7,1.7,0,0,0-.507-1.2,1.605,1.605,0,0,0-1.151-.439Z" transform="translate(-321.608 -165.756)"/>
      <path id="Trazado_102745" data-name="Trazado 102745" d="M342.857,212.106h.992v5.521a3.158,3.158,0,0,1-.757,2.272,3.12,3.12,0,0,1-4.9-.984l.841-.416a1.931,1.931,0,0,0,1.946,1.348,1.658,1.658,0,0,0,1.363-.568,2.4,2.4,0,0,0,.477-1.59v-1.075a2.067,2.067,0,0,1-.833.841,2.552,2.552,0,0,1-3.09-.507,2.862,2.862,0,0,1-.757-2.067,2.832,2.832,0,0,1,.757-2.06A2.514,2.514,0,0,1,340.79,212a2.378,2.378,0,0,1,1.212.326,2.1,2.1,0,0,1,.825.863Zm-1.848,4.786a1.757,1.757,0,0,0,1.34-.6,2.12,2.12,0,0,0,0-2.847,1.765,1.765,0,0,0-1.348-.6,1.742,1.742,0,0,0-1.333.583,1.992,1.992,0,0,0-.553,1.439,2.045,2.045,0,0,0,.553,1.439A1.8,1.8,0,0,0,341.009,216.892Z" transform="translate(-323.727 -165.744)"/>
      <path id="Trazado_102746" data-name="Trazado 102746" d="M352.029,212.133h1.022v5.816h-.984v-.757a1.864,1.864,0,0,1-.719.651,2.272,2.272,0,0,1-1.022.227,2.022,2.022,0,0,1-1.462-.523,1.977,1.977,0,0,1-.545-1.515V212.11h1.022v3.7a1.386,1.386,0,0,0,.356,1.045,1.28,1.28,0,0,0,.916.341,1.4,1.4,0,0,0,1.03-.4,1.674,1.674,0,0,0,.409-1.189Z" transform="translate(-326.197 -165.771)"/>
      <path id="Trazado_102747" data-name="Trazado 102747" d="M358.32,213.15a1.772,1.772,0,0,1,.719-.757,2.181,2.181,0,0,1,1.121-.3v.962a1.931,1.931,0,0,0-1.356.432,1.8,1.8,0,0,0-.462,1.378v3.1H357.32v-5.816h1Z" transform="translate(-328.383 -165.766)"/>
      <path id="Trazado_102748" data-name="Trazado 102748" d="M363.119,209.9a.659.659,0,0,1-.485-.2.674.674,0,0,1-.2-.492.659.659,0,0,1,.2-.485.7.7,0,0,1,.969,0,.659.659,0,0,1,.2.485.674.674,0,0,1-.2.492A.658.658,0,0,1,363.119,209.9Zm-.523,7.179v-5.816h1.022v5.816Z" transform="translate(-329.623 -164.9)"/>
      <path id="Trazado_102749" data-name="Trazado 102749" d="M370.909,207.82h1.03v9.088h-.992v-1.128a2.143,2.143,0,0,1-.825.916,2.31,2.31,0,0,1-1.234.341,2.62,2.62,0,0,1-1.053-.22,2.476,2.476,0,0,1-.863-.606,2.756,2.756,0,0,1-.591-.954,3.552,3.552,0,0,1-.212-1.25,3.083,3.083,0,0,1,.757-2.189,2.56,2.56,0,0,1,1.931-.841,2.341,2.341,0,0,1,1.219.333,2.166,2.166,0,0,1,.825.886Zm-1.833,8.33a1.742,1.742,0,0,0,1.356-.613,2.227,2.227,0,0,0,.545-1.515,2.181,2.181,0,0,0-.553-1.515,1.727,1.727,0,0,0-1.348-.613,1.772,1.772,0,0,0-1.356.591,2.446,2.446,0,0,0,0,3.1,1.78,1.78,0,0,0,1.348.568Z" transform="translate(-330.53 -164.73)"/>
      <path id="Trazado_102750" data-name="Trazado 102750" d="M377.741,218.067a1.939,1.939,0,0,1-1.272-.4,1.424,1.424,0,0,1-.5-1.189,1.666,1.666,0,0,1,.159-.757,1.316,1.316,0,0,1,.47-.53,2.845,2.845,0,0,1,.682-.333,6.453,6.453,0,0,1,.886-.2l.939-.159c.348-.061.515-.242.515-.538a1.007,1.007,0,0,0-.363-.863,1.439,1.439,0,0,0-.916-.28,1.469,1.469,0,0,0-.909.273,1.068,1.068,0,0,0-.432.81l-.924-.189a1.765,1.765,0,0,1,.757-1.25,2.681,2.681,0,0,1,1.583-.417,3.188,3.188,0,0,1,.841.106,2.136,2.136,0,0,1,.7.326,1.431,1.431,0,0,1,.507.621,2.337,2.337,0,0,1,.182.962v2.4a1.038,1.038,0,0,0,.129.606.575.575,0,0,0,.462.159h.053v.757h-.507a.962.962,0,0,1-1.1-.757h-.045A2.272,2.272,0,0,1,377.741,218.067Zm.235-.825a1.567,1.567,0,0,0,1.249-.56,2.325,2.325,0,0,0,.477-1.515l-1.515.3a2.166,2.166,0,0,0-.9.326.854.854,0,0,0-.008,1.272,1.151,1.151,0,0,0,.7.159Z" transform="translate(-332.908 -165.753)"/>
      <path id="Trazado_102751" data-name="Trazado 102751" d="M388.909,207.82h1.03v9.088h-.992v-1.128a2.143,2.143,0,0,1-.825.916,2.31,2.31,0,0,1-1.234.341,2.62,2.62,0,0,1-1.053-.22,2.477,2.477,0,0,1-.863-.606,2.757,2.757,0,0,1-.591-.954,3.551,3.551,0,0,1-.212-1.25,3.082,3.082,0,0,1,.757-2.189,2.56,2.56,0,0,1,1.931-.841,2.341,2.341,0,0,1,1.219.333,2.166,2.166,0,0,1,.825.886Zm-1.833,8.33a1.742,1.742,0,0,0,1.356-.613,2.227,2.227,0,0,0,.545-1.515,2.182,2.182,0,0,0-.553-1.515,1.727,1.727,0,0,0-1.348-.613,1.772,1.772,0,0,0-1.356.591,2.446,2.446,0,0,0,0,3.1,1.78,1.78,0,0,0,1.348.568Z" transform="translate(-334.898 -164.73)"/>
      <path id="Trazado_102752" data-name="Trazado 102752" d="M323.55,228a2.415,2.415,0,0,1,1.3.348,2.339,2.339,0,0,1,.879.924,2.711,2.711,0,0,1,.3,1.287,2.507,2.507,0,0,1-.689,1.81,2.37,2.37,0,0,1-1.795.757h-2.1v3.2H320.4V228Zm-.151,4.173a1.515,1.515,0,0,0,1.159-.447,1.873,1.873,0,0,0,0-2.355,1.515,1.515,0,0,0-1.159-.454h-1.946v3.256Z" transform="translate(-319.423 -169.627)"/>
      <path id="Trazado_102753" data-name="Trazado 102753" d="M330.429,237.237a2.007,2.007,0,0,1-1.28-.4,1.424,1.424,0,0,1-.5-1.189,1.576,1.576,0,0,1,.167-.757,1.265,1.265,0,0,1,.469-.53,2.848,2.848,0,0,1,.682-.333,7.677,7.677,0,0,1,.886-.212l.939-.151c.348-.061.515-.242.515-.538a1.007,1.007,0,0,0-.364-.863,1.439,1.439,0,0,0-.916-.28,1.56,1.56,0,0,0-.916.265,1.143,1.143,0,0,0-.432.818l-.916-.2a1.765,1.765,0,0,1,.757-1.242,2.681,2.681,0,0,1,1.583-.417,3.189,3.189,0,0,1,.841.106,2.137,2.137,0,0,1,.7.326,1.431,1.431,0,0,1,.507.621,2.339,2.339,0,0,1,.182.962v2.37a.984.984,0,0,0,.129.606.575.575,0,0,0,.462.159h.091v.757h-.508a.962.962,0,0,1-1.1-.757h-.053a2.2,2.2,0,0,1-1.931.878Zm.235-.826a1.552,1.552,0,0,0,1.25-.568,2.272,2.272,0,0,0,.47-1.515l-1.515.3a2.067,2.067,0,0,0-.9.326.84.84,0,0,0-.008,1.272,1.136,1.136,0,0,0,.727.189Z" transform="translate(-321.424 -170.405)"/>
      <path id="Trazado_102754" data-name="Trazado 102754" d="M338.207,236.326h3.1v.81H336.67l3.067-4.983h-2.893v-.833H341.3Z" transform="translate(-323.372 -170.433)"/>
    </g>
    <g id="Grupo_57719" data-name="Grupo 57719" transform="translate(242.438 88.287)">
      <path id="Trazado_102755" data-name="Trazado 102755" d="M323.682,117.109a2.59,2.59,0,0,1,1.977.757,2.794,2.794,0,0,1,.757,1.969,2.688,2.688,0,0,1-.757,1.954,2.605,2.605,0,0,1-1.977.757H321.9v3.029H320.13v-8.467Zm-.3,4a1.272,1.272,0,0,0,.977-.333,1.249,1.249,0,0,0,.326-.924,1.272,1.272,0,0,0-.326-.916,1.3,1.3,0,0,0-.977-.341h-1.515v2.514Z" transform="translate(-320.13 -116.707)"/>
      <path id="Trazado_102756" data-name="Trazado 102756" d="M332.482,126.546a3.9,3.9,0,0,1-1.719-.371,2.8,2.8,0,0,1-1.181-1.1,3.225,3.225,0,0,1-.432-1.7,3.029,3.029,0,0,1,.924-2.272,3.855,3.855,0,0,1,4.824,0,3.363,3.363,0,0,1,0,4.627A3.423,3.423,0,0,1,332.482,126.546Zm0-1.356a1.568,1.568,0,0,0,1.2-.5,1.848,1.848,0,0,0,.454-1.31,1.885,1.885,0,0,0-.454-1.318,1.59,1.59,0,0,0-1.2-.492,1.515,1.515,0,0,0-1.174.5,2.143,2.143,0,0,0,0,2.62,1.515,1.515,0,0,0,1.159.5Z" transform="translate(-322.319 -117.473)"/>
      <path id="Trazado_102757" data-name="Trazado 102757" d="M341.613,126.533a3.461,3.461,0,0,1-1.78-.424,1.818,1.818,0,0,1-.863-1.272l1.424-.4a1.144,1.144,0,0,0,1.219.909,1.2,1.2,0,0,0,.621-.144.477.477,0,0,0,.242-.47.523.523,0,0,0-.1-.311.848.848,0,0,0-.31-.227l-.417-.159-.545-.159a5.637,5.637,0,0,1-.56-.174,3.279,3.279,0,0,1-.538-.227,2.028,2.028,0,0,1-.439-.31,1.263,1.263,0,0,1-.333-.477,1.75,1.75,0,0,1-.114-.651,1.56,1.56,0,0,1,.659-1.363,2.984,2.984,0,0,1,1.727-.462,3.029,3.029,0,0,1,1.59.394,1.757,1.757,0,0,1,.818,1.219l-1.325.3a1.03,1.03,0,0,0-1.083-.757,1.234,1.234,0,0,0-.591.136.447.447,0,0,0-.242.409.485.485,0,0,0,0,.182.363.363,0,0,0,.121.144l.174.114a1.123,1.123,0,0,0,.242.1,2.187,2.187,0,0,0,.265.076l.31.083.318.083a4.692,4.692,0,0,1,.568.174,3.647,3.647,0,0,1,.53.25,2.015,2.015,0,0,1,.454.356,1.733,1.733,0,0,1,.3.507,1.879,1.879,0,0,1,.114.674,1.811,1.811,0,0,1-.2.878,1.515,1.515,0,0,1-.56.6,2.688,2.688,0,0,1-.757.318A4.119,4.119,0,0,1,341.613,126.533Z" transform="translate(-324.702 -117.46)"/>
      <path id="Trazado_102758" data-name="Trazado 102758" d="M348.212,118.541a.975.975,0,0,1-.7-1.674.969.969,0,0,1,.7-.288.984.984,0,0,1,0,1.961Zm-.871,6.99v-6.059h1.719v6.059Z" transform="translate(-326.705 -116.58)"/>
      <path id="Trazado_102759" data-name="Trazado 102759" d="M354.02,125.823a1.825,1.825,0,0,1-1.378-.492,1.939,1.939,0,0,1-.485-1.409v-2.87h-1.2v-1.31h.386a.977.977,0,0,0,.757-.257,1.272,1.272,0,0,0,.242-.9v-.8h1.515v1.961h1.257v1.31h-1.257v2.688c0,.53.235.757.7.757h.553v1.3Z" transform="translate(-327.612 -116.871)"/>
      <path id="Trazado_102760" data-name="Trazado 102760" d="M359.024,118.541a.954.954,0,0,1-.7-.288.981.981,0,0,1,.7-1.674.962.962,0,0,1,.689.288.977.977,0,0,1,0,1.386A.962.962,0,0,1,359.024,118.541Zm-.871,6.99v-6.058h1.719v6.058Z" transform="translate(-329.33 -116.58)"/>
      <path id="Trazado_102761" data-name="Trazado 102761" d="M366.442,120.37h1.81l-2.6,6.058H364.14l-2.56-6.058h1.833l1.515,4.158Z" transform="translate(-330.19 -117.5)"/>
      <path id="Trazado_102762" data-name="Trazado 102762" d="M373.931,126.545a3.916,3.916,0,0,1-1.727-.371,2.8,2.8,0,0,1-1.181-1.1,3.293,3.293,0,0,1-.424-1.7,2.961,2.961,0,0,1,.924-2.272,3.84,3.84,0,0,1,4.817,0,3.363,3.363,0,0,1,0,4.627A3.4,3.4,0,0,1,373.931,126.545Zm0-1.356a1.515,1.515,0,0,0,1.2-.5,1.825,1.825,0,0,0,.462-1.31,1.855,1.855,0,0,0-.462-1.318,1.568,1.568,0,0,0-1.2-.485,1.514,1.514,0,0,0-1.166.5,2.113,2.113,0,0,0,0,2.62,1.514,1.514,0,0,0,1.166.492Z" transform="translate(-332.378 -117.473)"/>
    </g>
    <g id="Grupo_57720" data-name="Grupo 57720" transform="translate(327.385 113.763)">
      <path id="Trazado_102763" data-name="Trazado 102763" d="M438.616,159.55l-.712-1.992h-3.787l-.712,1.992H432.3l3.075-8.33h1.265l3.067,8.33Zm-4.142-2.923h3.1l-1.552-4.339Z" transform="translate(-432.3 -150.463)"/>
      <path id="Trazado_102764" data-name="Trazado 102764" d="M447.029,153.378a2.545,2.545,0,0,1,1.924.841,3.438,3.438,0,0,1,0,4.377,2.507,2.507,0,0,1-1.924.841,2.317,2.317,0,0,1-1.242-.341,2.165,2.165,0,0,1-.833-.916v1.128H444V150.22h1.015V154.6a2.151,2.151,0,0,1,.833-.894A2.324,2.324,0,0,1,447.029,153.378Zm-.227,5.165a1.8,1.8,0,0,0,1.363-.591,2.188,2.188,0,0,0,.545-1.515,2.219,2.219,0,0,0-.545-1.515,1.8,1.8,0,0,0-1.363-.591,1.742,1.742,0,0,0-1.348.613,2.393,2.393,0,0,0,0,3.029,1.749,1.749,0,0,0,1.363.568Z" transform="translate(-435.139 -150.22)"/>
      <path id="Trazado_102765" data-name="Trazado 102765" d="M457.3,154.535h1.022v5.816h-.977v-.757a1.833,1.833,0,0,1-.757.651,2.2,2.2,0,0,1-1.015.227,2.022,2.022,0,0,1-1.462-.522,1.962,1.962,0,0,1-.553-1.515V154.52h1.022v3.688a1.363,1.363,0,0,0,.364,1.037,1.227,1.227,0,0,0,.909.348,1.408,1.408,0,0,0,1.037-.4,1.636,1.636,0,0,0,.4-1.189Z" transform="translate(-437.458 -151.264)"/>
      <path id="Trazado_102766" data-name="Trazado 102766" d="M463.6,155.55a1.8,1.8,0,0,1,.757-.757,2.151,2.151,0,0,1,1.113-.3v.962a1.909,1.909,0,0,0-1.348.432,1.8,1.8,0,0,0-.462,1.378v3.1H462.6v-5.816h1Z" transform="translate(-439.653 -151.256)"/>
      <path id="Trazado_102767" data-name="Trazado 102767" d="M468.94,155.55a1.772,1.772,0,0,1,.719-.757,2.2,2.2,0,0,1,1.121-.3v.962a1.931,1.931,0,0,0-1.356.432,1.832,1.832,0,0,0-.462,1.378v3.1H467.94v-5.816h1Z" transform="translate(-440.949 -151.256)"/>
      <path id="Trazado_102768" data-name="Trazado 102768" d="M473.779,152.3a.659.659,0,0,1-.485-.2.674.674,0,0,1-.2-.492.659.659,0,0,1,.2-.485.7.7,0,0,1,.969,0,.659.659,0,0,1,.2.485.674.674,0,0,1-.2.492.659.659,0,0,1-.485.2Zm-.515,7.179v-5.816h1.03v5.816Z" transform="translate(-442.199 -150.39)"/>
      <path id="Trazado_102769" data-name="Trazado 102769" d="M483.335,154.389a1.871,1.871,0,0,1,1.356.5,1.825,1.825,0,0,1,.515,1.386v4.044h-1.03v-3.787a1.325,1.325,0,0,0-.318-.962,1.105,1.105,0,0,0-.81-.326,1.166,1.166,0,0,0-.886.371,1.56,1.56,0,0,0-.341,1.1v3.6h-1.038v-3.741a1.34,1.34,0,0,0-.326-.984,1.075,1.075,0,0,0-.825-.341,1.128,1.128,0,0,0-.878.379,1.636,1.636,0,0,0-.341,1.128v3.559H477.39V154.5h1.022v.757a1.735,1.735,0,0,1,.666-.636,1.878,1.878,0,0,1,.924-.227,1.953,1.953,0,0,1,.992.25,1.514,1.514,0,0,1,.644.7,1.833,1.833,0,0,1,.7-.7A2,2,0,0,1,483.335,154.389Z" transform="translate(-443.243 -151.231)"/>
      <path id="Trazado_102770" data-name="Trazado 102770" d="M490.779,152.3a.659.659,0,0,1-.485-.2.674.674,0,0,1-.2-.492.659.659,0,0,1,.2-.485.682.682,0,0,1,.485-.2.7.7,0,0,1,.485.2.659.659,0,0,1,.2.485A.7.7,0,0,1,490.779,152.3Zm-.522,7.179v-5.816h1.03v5.816Z" transform="translate(-446.325 -150.39)"/>
      <path id="Trazado_102771" data-name="Trazado 102771" d="M499.378,157.312v.28h-4.544a2.037,2.037,0,0,0,.553,1.515,1.818,1.818,0,0,0,1.325.523,1.764,1.764,0,0,0,.962-.28,1.848,1.848,0,0,0,.666-.757l.924.2a2.636,2.636,0,0,1-1,1.25,2.681,2.681,0,0,1-1.515.454,2.809,2.809,0,0,1-2.1-.81,3.446,3.446,0,0,1,0-4.423,2.8,2.8,0,0,1,2.067-.81,2.62,2.62,0,0,1,1.954.757A2.937,2.937,0,0,1,499.378,157.312Zm-2.688-2.12a1.787,1.787,0,0,0-1.212.417,1.886,1.886,0,0,0-.613,1.2h3.484a1.7,1.7,0,0,0-.507-1.2A1.621,1.621,0,0,0,496.69,155.191Z" transform="translate(-447.237 -151.246)"/>
      <path id="Trazado_102772" data-name="Trazado 102772" d="M506.011,154.389a2.053,2.053,0,0,1,1.469.53,1.969,1.969,0,0,1,.545,1.515v3.915H507v-3.681a1.394,1.394,0,0,0-.356-1.045,1.249,1.249,0,0,0-.909-.341,1.408,1.408,0,0,0-1.037.4,1.6,1.6,0,0,0-.409,1.189v3.476H503.27v-5.816h1.022v.757A1.939,1.939,0,0,1,506.011,154.389Z" transform="translate(-449.524 -151.231)"/>
      <path id="Trazado_102773" data-name="Trazado 102773" d="M513.734,159.74a1.515,1.515,0,0,1-1.136-.417,1.6,1.6,0,0,1-.417-1.159v-3.423H511v-.818h.439a.84.84,0,0,0,.644-.2,1.016,1.016,0,0,0,.189-.682V152h.947v1.939h1.34v.818h-1.34v3.3a.864.864,0,0,0,.227.636.757.757,0,0,0,.583.227h.53v.818Z" transform="translate(-451.4 -150.652)"/>
      <path id="Trazado_102774" data-name="Trazado 102774" d="M519.835,160.434a3.03,3.03,0,0,1-1.515-.363,2.59,2.59,0,0,1-1.045-1.053,3.249,3.249,0,0,1-.386-1.605,2.97,2.97,0,0,1,.826-2.2,3.09,3.09,0,0,1,4.2,0,3.332,3.332,0,0,1,0,4.392A2.839,2.839,0,0,1,519.835,160.434Zm0-.848a1.8,1.8,0,0,0,1.371-.6,2.272,2.272,0,0,0,.545-1.575,2.22,2.22,0,0,0-.545-1.568,1.773,1.773,0,0,0-1.371-.6,1.734,1.734,0,0,0-1.363.6,2.219,2.219,0,0,0-.545,1.568,2.272,2.272,0,0,0,.545,1.575,1.765,1.765,0,0,0,1.363.6Z" transform="translate(-452.828 -151.232)"/>
      <path id="Trazado_102775" data-name="Trazado 102775" d="M438.046,171.389h-3.393v2.726h3.029v.954h-3.029v2.719h3.385v.962H433.57v-8.33h4.468Z" transform="translate(-432.608 -155.122)"/>
      <path id="Trazado_102776" data-name="Trazado 102776" d="M443.495,179.638a2.749,2.749,0,0,1-1.568-.417,1.727,1.727,0,0,1-.757-1.2l.894-.257a1.226,1.226,0,0,0,.477.81,1.514,1.514,0,0,0,.954.288,2.136,2.136,0,0,0,.56-.076.908.908,0,0,0,.424-.288.757.757,0,0,0,.174-.53,1.155,1.155,0,0,0-.045-.242.89.89,0,0,0-.1-.189.424.424,0,0,0-.167-.159,1.708,1.708,0,0,0-.2-.129l-.265-.106-.28-.1-.326-.091-.341-.1c-.242-.076-.439-.144-.6-.212a2.528,2.528,0,0,1-.492-.28,1.129,1.129,0,0,1-.379-.462,1.449,1.449,0,0,1-.129-.651,1.515,1.515,0,0,1,.28-.924,1.591,1.591,0,0,1,.757-.553,2.879,2.879,0,0,1,1.03-.167,2.544,2.544,0,0,1,1.416.379,1.59,1.59,0,0,1,.7,1.136l-.841.212a1.105,1.105,0,0,0-.439-.757,1.408,1.408,0,0,0-.833-.25,1.454,1.454,0,0,0-.757.2.7.7,0,0,0-.318.629.576.576,0,0,0,.083.318.81.81,0,0,0,.174.227,1.136,1.136,0,0,0,.318.182l.341.121.432.106h.083c.235.053.417.106.56.151a4.658,4.658,0,0,1,.507.212,1.652,1.652,0,0,1,.447.318,1.463,1.463,0,0,1,.288.454,1.623,1.623,0,0,1,.114.621,1.651,1.651,0,0,1-.174.757,1.409,1.409,0,0,1-.47.538,2.273,2.273,0,0,1-.682.288A3.089,3.089,0,0,1,443.495,179.638Z" transform="translate(-434.453 -155.896)"/>
      <path id="Trazado_102777" data-name="Trazado 102777" d="M450.757,178.935a1.515,1.515,0,0,1-1.136-.417,1.59,1.59,0,0,1-.409-1.159v-3.423H448v-.818h.432a.841.841,0,0,0,.644-.2.978.978,0,0,0,.189-.682V171.18h1.007v1.939H451.6v.818h-1.333v3.317a.856.856,0,0,0,.22.636.757.757,0,0,0,.583.227h.53v.818Z" transform="translate(-436.11 -155.307)"/>
      <path id="Trazado_102778" data-name="Trazado 102778" d="M455.781,179.64a1.939,1.939,0,0,1-1.272-.4,1.424,1.424,0,0,1-.5-1.189,1.667,1.667,0,0,1,.159-.757,1.287,1.287,0,0,1,.477-.53,2.589,2.589,0,0,1,.682-.333,5.971,5.971,0,0,1,.886-.2l.939-.159c.341-.061.515-.242.515-.538a1.008,1.008,0,0,0-.363-.863,1.659,1.659,0,0,0-1.833,0,1.113,1.113,0,0,0-.432.81l-.924-.189a1.817,1.817,0,0,1,.757-1.25,2.726,2.726,0,0,1,1.59-.417,3.27,3.27,0,0,1,.841.106,2.27,2.27,0,0,1,.7.326,1.47,1.47,0,0,1,.5.621,2.34,2.34,0,0,1,.182.962v2.4a.977.977,0,0,0,.136.606.56.56,0,0,0,.454.159h.1v.757h-.507c-.629,0-1-.257-1.106-.757h-.045A2.2,2.2,0,0,1,455.781,179.64Zm.242-.825a1.514,1.514,0,0,0,1.242-.56,2.324,2.324,0,0,0,.477-1.515l-1.515.3a2.03,2.03,0,0,0-.9.326.847.847,0,0,0-.015,1.272A1.174,1.174,0,0,0,456.023,178.814Z" transform="translate(-437.568 -155.898)"/>
      <path id="Trazado_102779" data-name="Trazado 102779" d="M465.719,173.589a2.022,2.022,0,0,1,1.462.53,1.969,1.969,0,0,1,.545,1.515v3.915H466.7v-3.681a1.363,1.363,0,0,0-.356-1.045,1.249,1.249,0,0,0-.909-.333,1.416,1.416,0,0,0-1.038.394,1.659,1.659,0,0,0-.409,1.189v3.476H463v-5.816h1.022v.757A1.954,1.954,0,0,1,465.719,173.589Z" transform="translate(-439.751 -155.891)"/>
      <path id="Trazado_102780" data-name="Trazado 102780" d="M474.07,179.625a2.787,2.787,0,0,1-2.083-.833,3.317,3.317,0,0,1,0-4.362,3.029,3.029,0,0,1,3.786-.326,2.575,2.575,0,0,1,.984,1.409l-.962.159a1.742,1.742,0,0,0-.659-.909,1.788,1.788,0,0,0-1.053-.318,1.688,1.688,0,0,0-1.34.6,2.583,2.583,0,0,0,0,3.135,1.711,1.711,0,0,0,1.34.591,1.787,1.787,0,0,0,1.053-.318,1.742,1.742,0,0,0,.659-.909l.962.159a2.589,2.589,0,0,1-.984,1.416A2.832,2.832,0,0,1,474.07,179.625Z" transform="translate(-441.733 -155.891)"/>
      <path id="Trazado_102781" data-name="Trazado 102781" d="M481.751,179.639a1.939,1.939,0,0,1-1.272-.4,1.424,1.424,0,0,1-.5-1.189,1.668,1.668,0,0,1,.159-.757,1.319,1.319,0,0,1,.47-.53,2.765,2.765,0,0,1,.689-.333,5.969,5.969,0,0,1,.886-.2l.939-.159c.341-.061.515-.242.515-.538a1.008,1.008,0,0,0-.364-.863,1.659,1.659,0,0,0-1.833,0,1.114,1.114,0,0,0-.432.81l-.924-.189a1.765,1.765,0,0,1,.757-1.25,2.7,2.7,0,0,1,1.583-.417,3.3,3.3,0,0,1,.848.106,2.271,2.271,0,0,1,.7.326,1.469,1.469,0,0,1,.5.621,2.338,2.338,0,0,1,.182.962v2.4a.976.976,0,0,0,.136.606.553.553,0,0,0,.454.159h.045v.757h-.515a.969.969,0,0,1-1.1-.757h-.045A2.211,2.211,0,0,1,481.751,179.639Zm.242-.825a1.514,1.514,0,0,0,1.242-.56,2.325,2.325,0,0,0,.477-1.515l-1.515.3a1.991,1.991,0,0,0-.9.326.847.847,0,0,0-.015,1.272A1.174,1.174,0,0,0,481.993,178.814Z" transform="translate(-443.87 -155.898)"/>
      <path id="Trazado_102782" data-name="Trazado 102782" d="M494.875,173.587a1.863,1.863,0,0,1,1.356.5,1.8,1.8,0,0,1,.515,1.386v4.044h-1.022v-3.787a1.325,1.325,0,0,0-.318-.962,1.1,1.1,0,0,0-.81-.318,1.136,1.136,0,0,0-.886.364,1.559,1.559,0,0,0-.341,1.1v3.6H492.33v-3.734a1.386,1.386,0,0,0-.326-.992,1.083,1.083,0,0,0-.825-.333,1.136,1.136,0,0,0-.886.371,1.636,1.636,0,0,0-.341,1.128v3.559H488.93v-5.816h1.022v.757a1.81,1.81,0,0,1,.667-.644,1.885,1.885,0,0,1,.931-.227,1.954,1.954,0,0,1,.992.25,1.515,1.515,0,0,1,.644.7,1.833,1.833,0,0,1,.7-.7A1.97,1.97,0,0,1,494.875,173.587Z" transform="translate(-446.044 -155.889)"/>
      <path id="Trazado_102783" data-name="Trazado 102783" d="M502.337,171.5a.7.7,0,0,1-.7-.7.658.658,0,0,1,.2-.485.7.7,0,0,1,.492-.2.674.674,0,0,1,.477.2.659.659,0,0,1,.2.485.675.675,0,0,1-.2.492A.652.652,0,0,1,502.337,171.5Zm-.522,7.179v-5.816h1.03v5.816Z" transform="translate(-449.128 -155.05)"/>
      <path id="Trazado_102784" data-name="Trazado 102784" d="M510.933,176.507v.28h-4.544a2.037,2.037,0,0,0,.56,1.515,1.817,1.817,0,0,0,1.325.523,1.757,1.757,0,0,0,1.621-1.053l.924.2a2.583,2.583,0,0,1-.992,1.25,2.718,2.718,0,0,1-1.515.454,2.81,2.81,0,0,1-2.09-.81,3.446,3.446,0,0,1,0-4.423,2.787,2.787,0,0,1,2.06-.81,2.628,2.628,0,0,1,1.962.757A2.977,2.977,0,0,1,510.933,176.507Zm-2.7-2.12a1.78,1.78,0,0,0-1.2.417,1.886,1.886,0,0,0-.613,1.2H509.9a1.735,1.735,0,0,0-.507-1.2,1.636,1.636,0,0,0-1.159-.417Z" transform="translate(-450.045 -155.901)"/>
      <path id="Trazado_102785" data-name="Trazado 102785" d="M517.559,173.589a2.022,2.022,0,0,1,1.462.53,1.969,1.969,0,0,1,.553,1.515v3.915h-1.03v-3.681a1.394,1.394,0,0,0-.348-1.045,1.28,1.28,0,0,0-.916-.333,1.4,1.4,0,0,0-1.03.394,1.6,1.6,0,0,0-.409,1.189v3.476h-1.03v-5.816h1.03v.757A1.931,1.931,0,0,1,517.559,173.589Z" transform="translate(-452.324 -155.891)"/>
      <path id="Trazado_102786" data-name="Trazado 102786" d="M525.281,178.935a1.515,1.515,0,0,1-1.136-.417,1.567,1.567,0,0,1-.417-1.159v-3.423H522.54v-.818h.439a.856.856,0,0,0,.644-.2,1.024,1.024,0,0,0,.182-.682V171.18h.954v1.939h1.34v.818h-1.34v3.317a.886.886,0,0,0,.22.636.757.757,0,0,0,.583.227h.538v.818Z" transform="translate(-454.2 -155.307)"/>
      <path id="Trazado_102787" data-name="Trazado 102787" d="M531.395,179.633a3.03,3.03,0,0,1-1.515-.363,2.589,2.589,0,0,1-1.007-1.053,3.173,3.173,0,0,1-.394-1.605,3.03,3.03,0,0,1,.826-2.2,3.1,3.1,0,0,1,4.211,0,3.332,3.332,0,0,1,0,4.392A2.84,2.84,0,0,1,531.395,179.633Zm0-.848a1.8,1.8,0,0,0,1.378-.6,2.272,2.272,0,0,0,.545-1.575,2.218,2.218,0,0,0-.545-1.568,1.78,1.78,0,0,0-1.378-.6,1.757,1.757,0,0,0-1.363.6,2.565,2.565,0,0,0,0,3.143,1.787,1.787,0,0,0,1.356.6Z" transform="translate(-455.641 -155.892)"/>
      <path id="Trazado_102788" data-name="Trazado 102788" d="M433.58,197.95v-8.33h1.075v8.33Z" transform="translate(-432.611 -159.782)"/>
      <path id="Trazado_102789" data-name="Trazado 102789" d="M440.827,192.789a2.037,2.037,0,0,1,1.462.53,1.969,1.969,0,0,1,.545,1.515v3.915H441.8v-3.688a1.386,1.386,0,0,0-.356-1.038,1.25,1.25,0,0,0-.909-.341,1.424,1.424,0,0,0-1.038.4,1.658,1.658,0,0,0-.409,1.189v3.476H438.07v-5.816h1.022v.757A1.939,1.939,0,0,1,440.827,192.789Z" transform="translate(-433.7 -160.551)"/>
      <path id="Trazado_102790" data-name="Trazado 102790" d="M448.655,198.838a2.749,2.749,0,0,1-1.568-.417,1.749,1.749,0,0,1-.757-1.2l.894-.257a1.287,1.287,0,0,0,.477.81,1.568,1.568,0,0,0,.954.288,2.136,2.136,0,0,0,.56-.076.969.969,0,0,0,.432-.288.757.757,0,0,0,.167-.53.629.629,0,0,0-.045-.242.889.889,0,0,0-.091-.189.486.486,0,0,0-.167-.159,1.733,1.733,0,0,0-.2-.129,1.716,1.716,0,0,0-.265-.106l-.28-.1-.326-.091-.333-.1c-.242-.076-.447-.144-.606-.212a2.775,2.775,0,0,1-.492-.28,1.128,1.128,0,0,1-.379-.462,1.561,1.561,0,0,1-.129-.651,1.515,1.515,0,0,1,.288-.931,1.606,1.606,0,0,1,.757-.545,2.907,2.907,0,0,1,1.03-.167,2.529,2.529,0,0,1,1.416.379,1.621,1.621,0,0,1,.712,1.136l-.841.212a1.113,1.113,0,0,0-.447-.757,1.393,1.393,0,0,0-.833-.25,1.447,1.447,0,0,0-.757.2.689.689,0,0,0-.326.629.644.644,0,0,0,.083.318.757.757,0,0,0,.492.4,3.229,3.229,0,0,0,.348.129l.424.106h.091l.56.159a4.064,4.064,0,0,1,.5.212,1.84,1.84,0,0,1,.454.318,1.589,1.589,0,0,1,.4,1.075,1.75,1.75,0,0,1-.174.757,1.348,1.348,0,0,1-.477.53,2.076,2.076,0,0,1-.674.3A3.142,3.142,0,0,1,448.655,198.838Z" transform="translate(-435.705 -160.556)"/>
      <path id="Trazado_102791" data-name="Trazado 102791" d="M454.779,190.7a.659.659,0,0,1-.485-.2.674.674,0,0,1-.2-.492.659.659,0,0,1,.2-.485.7.7,0,0,1,.969,0,.659.659,0,0,1,.2.485.675.675,0,0,1-.2.492.659.659,0,0,1-.485.2Zm-.522,7.179v-5.816h1.03v5.816Z" transform="translate(-437.588 -159.709)"/>
      <path id="Trazado_102792" data-name="Trazado 102792" d="M461.542,192.79a2.749,2.749,0,0,1,1.053.212,2.673,2.673,0,0,1,.863.6,2.816,2.816,0,0,1,.583.962,3.561,3.561,0,0,1,.212,1.257,3.029,3.029,0,0,1-.757,2.189,2.537,2.537,0,0,1-1.931.841,2.317,2.317,0,0,1-1.219-.333,2.2,2.2,0,0,1-.833-.894v4.029H458.49V192.9h.992v1.128a2.105,2.105,0,0,1,.825-.9,2.31,2.31,0,0,1,1.234-.341Zm-.2,5.165a1.75,1.75,0,0,0,1.348-.583,2.484,2.484,0,0,0,0-3.1,1.749,1.749,0,0,0-1.348-.583,1.787,1.787,0,0,0-1.363.606,2.37,2.37,0,0,0,0,3.029A1.787,1.787,0,0,0,461.337,197.955Z" transform="translate(-438.656 -160.551)"/>
      <path id="Trazado_102793" data-name="Trazado 102793" d="M468.7,190.7a.659.659,0,0,1-.485-.2.674.674,0,0,1-.2-.492.659.659,0,0,1,.2-.485.7.7,0,0,1,.969,0,.659.659,0,0,1,.2.485.674.674,0,0,1-.2.492.659.659,0,0,1-.485.2Zm-.515,7.179v-5.816h1.03v5.816Z" transform="translate(-440.966 -159.709)"/>
      <path id="Trazado_102794" data-name="Trazado 102794" d="M476.477,188.62H477.5v9.088h-.992v-1.128a2.144,2.144,0,0,1-.826.916,2.272,2.272,0,0,1-1.234.341,2.65,2.65,0,0,1-1.053-.22,2.551,2.551,0,0,1-.863-.606,2.7,2.7,0,0,1-.583-.962,3.477,3.477,0,0,1-.22-1.242,3.082,3.082,0,0,1,.757-2.189,2.56,2.56,0,0,1,1.931-.841,2.317,2.317,0,0,1,1.219.333,2.181,2.181,0,0,1,.833.886Zm-1.833,8.33a1.757,1.757,0,0,0,1.348-.606,2.416,2.416,0,0,0,0-3.029,1.749,1.749,0,0,0-1.348-.613,1.78,1.78,0,0,0-1.363.591,2.446,2.446,0,0,0,0,3.1,1.78,1.78,0,0,0,1.378.553Z" transform="translate(-441.868 -159.539)"/>
      <path id="Trazado_102795" data-name="Trazado 102795" d="M487.073,195.712v.28h-4.544a2.037,2.037,0,0,0,.56,1.515,1.818,1.818,0,0,0,1.325.523,1.764,1.764,0,0,0,.962-.28,1.894,1.894,0,0,0,.666-.757l.916.2a2.582,2.582,0,0,1-.992,1.25,2.718,2.718,0,0,1-1.514.454,2.81,2.81,0,0,1-2.09-.81,3.446,3.446,0,0,1,0-4.423,2.787,2.787,0,0,1,2.06-.81,2.628,2.628,0,0,1,1.961.757A2.968,2.968,0,0,1,487.073,195.712Zm-2.7-2.12a1.78,1.78,0,0,0-1.2.417,1.886,1.886,0,0,0-.613,1.2h3.484a1.734,1.734,0,0,0-.507-1.2A1.636,1.636,0,0,0,484.377,193.591Z" transform="translate(-444.255 -160.565)"/>
      <path id="Trazado_102796" data-name="Trazado 102796" d="M491.3,197.931h3.1v.825H489.76l3.067-4.983h-2.885v-.833H494.4Z" transform="translate(-446.245 -160.588)"/>
      <path id="Trazado_102797" data-name="Trazado 102797" d="M438.046,209.8h-3.393v2.726h3.029v.984h-3.029v2.726h3.385v.962H433.57v-8.33h4.468Z" transform="translate(-432.608 -164.454)"/>
      <path id="Trazado_102798" data-name="Trazado 102798" d="M444.551,212a2.052,2.052,0,0,1,1.469.53,1.969,1.969,0,0,1,.545,1.515v3.915h-1.022v-3.688a1.386,1.386,0,0,0-.356-1.038,1.272,1.272,0,0,0-.916-.341,1.4,1.4,0,0,0-1.03.4,1.6,1.6,0,0,0-.409,1.189v3.476H441.81v-5.816h1.022v.757a1.939,1.939,0,0,1,1.719-.9Z" transform="translate(-434.608 -165.213)"/>
      <path id="Trazado_102799" data-name="Trazado 102799" d="M455.653,214.907v.28h-4.544a2.037,2.037,0,0,0,.56,1.515,1.8,1.8,0,0,0,1.325.523,1.757,1.757,0,0,0,1.621-1.053l.924.2a2.582,2.582,0,0,1-.992,1.25,2.719,2.719,0,0,1-1.515.454,2.81,2.81,0,0,1-2.09-.81,3.446,3.446,0,0,1,0-4.423,2.772,2.772,0,0,1,2.06-.81,2.605,2.605,0,0,1,1.954.757A2.938,2.938,0,0,1,455.653,214.907Zm-2.7-2.12a1.8,1.8,0,0,0-1.212.417,1.84,1.84,0,0,0-.606,1.2h3.484a1.772,1.772,0,0,0-.507-1.2,1.636,1.636,0,0,0-1.159-.439Z" transform="translate(-436.629 -165.22)"/>
      <path id="Trazado_102800" data-name="Trazado 102800" d="M460.539,213.15a1.8,1.8,0,0,1,.757-.757,2.151,2.151,0,0,1,1.113-.3v.962a1.908,1.908,0,0,0-1.348.432,1.8,1.8,0,0,0-.462,1.378v3.1h-1.03v-5.816h1Z" transform="translate(-438.918 -165.235)"/>
      <path id="Trazado_102801" data-name="Trazado 102801" d="M468.373,212.14h1.1l-2.363,5.816h-.863l-2.355-5.816h1.083l1.7,4.627Z" transform="translate(-439.967 -165.247)"/>
      <path id="Trazado_102802" data-name="Trazado 102802" d="M473.761,218.069a1.984,1.984,0,0,1-1.272-.4,1.424,1.424,0,0,1-.5-1.189,1.728,1.728,0,0,1,.159-.757,1.348,1.348,0,0,1,.47-.523,2.763,2.763,0,0,1,.689-.333,7.169,7.169,0,0,1,.879-.212l.947-.151c.341-.061.508-.242.508-.538a1.008,1.008,0,0,0-.363-.863,1.439,1.439,0,0,0-.916-.28,1.515,1.515,0,0,0-.909.265,1.1,1.1,0,0,0-.432.818l-.924-.2a1.764,1.764,0,0,1,.757-1.242,2.68,2.68,0,0,1,1.583-.417,3.294,3.294,0,0,1,.848.106,2.271,2.271,0,0,1,.7.326,1.47,1.47,0,0,1,.5.621,2.341,2.341,0,0,1,.182.962v2.4a1.037,1.037,0,0,0,.129.606.576.576,0,0,0,.462.159h.038v.757h-.508a.962.962,0,0,1-1.1-.757h-.045A2.272,2.272,0,0,1,473.761,218.069Zm.235-.825a1.515,1.515,0,0,0,1.25-.568,2.272,2.272,0,0,0,.477-1.515l-1.515.3a2.067,2.067,0,0,0-.909.326.854.854,0,0,0-.008,1.272,1.166,1.166,0,0,0,.7.167Z" transform="translate(-441.931 -165.224)"/>
      <path id="Trazado_102803" data-name="Trazado 102803" d="M483.071,218.065a2.78,2.78,0,0,1-2.083-.833,3.317,3.317,0,0,1,0-4.362,3.029,3.029,0,0,1,3.787-.326,2.575,2.575,0,0,1,.985,1.409l-.962.159a1.742,1.742,0,0,0-1.711-1.227,1.689,1.689,0,0,0-1.341.6,2.575,2.575,0,0,0,0,3.128,1.688,1.688,0,0,0,1.34.6,1.742,1.742,0,0,0,1.712-1.227l.962.159a2.59,2.59,0,0,1-.985,1.416,2.847,2.847,0,0,1-1.7.507Z" transform="translate(-443.918 -165.22)"/>
      <path id="Trazado_102804" data-name="Trazado 102804" d="M489.947,209.9a.7.7,0,0,1-.7-.7.658.658,0,0,1,.2-.485.7.7,0,0,1,.492-.2.674.674,0,0,1,.477.2.659.659,0,0,1,.2.485.675.675,0,0,1-.2.492.651.651,0,0,1-.477.2Zm-.523,7.179v-5.816h1.03v5.816Z" transform="translate(-446.121 -164.369)"/>
      <path id="Trazado_102805" data-name="Trazado 102805" d="M495.891,217.17a3.029,3.029,0,0,1-1.515-.363,2.59,2.59,0,0,1-1.045-1.053,3.248,3.248,0,0,1-.333-1.613,2.969,2.969,0,0,1,.826-2.2,3.09,3.09,0,0,1,4.2,0,3.332,3.332,0,0,1,0,4.392A2.84,2.84,0,0,1,495.891,217.17Zm0-.848a1.8,1.8,0,0,0,1.378-.6,2.272,2.272,0,0,0,.545-1.575,2.219,2.219,0,0,0-.545-1.568,1.78,1.78,0,0,0-1.378-.6,1.757,1.757,0,0,0-1.363.6,2.565,2.565,0,0,0,0,3.143,1.787,1.787,0,0,0,1.356.576Zm-.379-6.058,1.515-1.924.545.394-1.325,1.515Z" transform="translate(-447.03 -164.325)"/>
      <path id="Trazado_102806" data-name="Trazado 102806" d="M505.551,212a2.052,2.052,0,0,1,1.469.53,1.969,1.969,0,0,1,.545,1.515v3.915h-1.022v-3.688a1.386,1.386,0,0,0-.356-1.038,1.272,1.272,0,0,0-.916-.341,1.4,1.4,0,0,0-1.03.4,1.6,1.6,0,0,0-.409,1.189v3.476H502.81v-5.816h1.022v.757a1.939,1.939,0,0,1,1.719-.9Z" transform="translate(-449.412 -165.213)"/>
      <path id="Trazado_102807" data-name="Trazado 102807" d="M438.046,228.985h-3.393v2.726h3.029v.947h-3.029v2.726h3.385v.947H433.57V228h4.468Z" transform="translate(-432.608 -169.097)"/>
      <path id="Trazado_102808" data-name="Trazado 102808" d="M444.551,231.189a2.053,2.053,0,0,1,1.469.53,1.969,1.969,0,0,1,.545,1.515v3.87h-1.022v-3.688a1.378,1.378,0,0,0-.356-1.038,1.272,1.272,0,0,0-.916-.341,1.4,1.4,0,0,0-1.03.4,1.6,1.6,0,0,0-.409,1.189V237.1H441.81v-5.816h1.022v.757A1.939,1.939,0,0,1,444.551,231.189Z" transform="translate(-434.608 -169.87)"/>
      <path id="Trazado_102809" data-name="Trazado 102809" d="M453.1,227.878h-.432a.992.992,0,0,0-.212,0l-.189.061a.423.423,0,0,0-.174.1l-.136.151a.636.636,0,0,0-.114.212,2.1,2.1,0,0,0-.061.288,1.765,1.765,0,0,0,0,.363v1.2h1.348v.818h-1.348v5.028h-1.045v-5H449.61v-.818h1.128V229.06a3.034,3.034,0,0,1,.061-.674,2.165,2.165,0,0,1,.167-.515,1.3,1.3,0,0,1,.273-.371,2.17,2.17,0,0,1,.356-.25,1.762,1.762,0,0,1,.439-.144,4.115,4.115,0,0,1,.507-.076h.56Z" transform="translate(-436.501 -168.861)"/>
      <path id="Trazado_102810" data-name="Trazado 102810" d="M460.642,234.082v.28H456.1a2.037,2.037,0,0,0,.56,1.515,1.818,1.818,0,0,0,1.325.523,1.765,1.765,0,0,0,.962-.28,1.849,1.849,0,0,0,.666-.757l.916.2a2.582,2.582,0,0,1-.992,1.25,2.719,2.719,0,0,1-1.515.454,2.81,2.81,0,0,1-2.09-.81,3.447,3.447,0,0,1,0-4.423,2.787,2.787,0,0,1,2.06-.81,2.628,2.628,0,0,1,1.961.757A2.954,2.954,0,0,1,460.642,234.082Zm-2.7-2.12a1.78,1.78,0,0,0-1.2.416,1.886,1.886,0,0,0-.613,1.2h3.484a1.734,1.734,0,0,0-.507-1.2,1.636,1.636,0,0,0-1.159-.394Z" transform="translate(-437.839 -169.877)"/>
      <path id="Trazado_102811" data-name="Trazado 102811" d="M465.53,232.35a1.771,1.771,0,0,1,.719-.757,2.158,2.158,0,0,1,1.121-.3v.962a1.916,1.916,0,0,0-1.356.432,1.8,1.8,0,0,0-.462,1.378v3.067H464.53v-5.816h1Z" transform="translate(-440.122 -169.895)"/>
      <path id="Trazado_102812" data-name="Trazado 102812" d="M475.8,231.187a1.863,1.863,0,0,1,1.356.5,1.8,1.8,0,0,1,.515,1.386V237.1h-1.022v-3.787a1.325,1.325,0,0,0-.318-.962,1.105,1.105,0,0,0-.81-.326,1.144,1.144,0,0,0-.886.371,1.56,1.56,0,0,0-.341,1.1v3.6H473.26v-3.741a1.378,1.378,0,0,0-.326-.985,1.083,1.083,0,0,0-.825-.341,1.144,1.144,0,0,0-.886.379,1.636,1.636,0,0,0-.341,1.128V237.1H469.86v-5.816h1.022v.757a1.848,1.848,0,0,1,.666-.636,1.878,1.878,0,0,1,.924-.227,1.962,1.962,0,0,1,1,.25,1.514,1.514,0,0,1,.644.7,1.833,1.833,0,0,1,.7-.7A1.969,1.969,0,0,1,475.8,231.187Z" transform="translate(-441.415 -169.868)"/>
      <path id="Trazado_102813" data-name="Trazado 102813" d="M487.753,234.082v.28h-4.544a2.037,2.037,0,0,0,.56,1.515,1.817,1.817,0,0,0,1.325.523,1.765,1.765,0,0,0,.962-.28,1.847,1.847,0,0,0,.666-.757l.916.2a2.582,2.582,0,0,1-.992,1.25,2.719,2.719,0,0,1-1.514.454,2.81,2.81,0,0,1-2.09-.81,3.446,3.446,0,0,1,0-4.423,2.787,2.787,0,0,1,2.06-.81,2.628,2.628,0,0,1,1.961.757A2.953,2.953,0,0,1,487.753,234.082Zm-2.7-2.12a1.78,1.78,0,0,0-1.2.416,1.886,1.886,0,0,0-.613,1.2h3.484a1.734,1.734,0,0,0-.507-1.2,1.636,1.636,0,0,0-1.128-.394Z" transform="translate(-444.42 -169.877)"/>
      <path id="Trazado_102814" data-name="Trazado 102814" d="M495.787,227h1.022v9.088h-.992v-1.128a2.143,2.143,0,0,1-.825.916,2.31,2.31,0,0,1-1.234.341A2.62,2.62,0,0,1,492.7,236a2.657,2.657,0,0,1-.863-.606,2.7,2.7,0,0,1-.583-.962,3.323,3.323,0,0,1-.22-1.242A3.082,3.082,0,0,1,491.8,231a2.56,2.56,0,0,1,1.931-.841,2.317,2.317,0,0,1,1.219.333,2.181,2.181,0,0,1,.833.886Zm-1.833,8.33a1.757,1.757,0,0,0,1.348-.606,2.416,2.416,0,0,0,0-3.029,1.749,1.749,0,0,0-1.348-.613,1.78,1.78,0,0,0-1.363.591,2.189,2.189,0,0,0-.553,1.553,2.158,2.158,0,0,0,.553,1.515A1.78,1.78,0,0,0,493.954,235.33Z" transform="translate(-446.554 -168.854)"/>
      <path id="Trazado_102815" data-name="Trazado 102815" d="M502.611,237.237a1.984,1.984,0,0,1-1.272-.4,1.424,1.424,0,0,1-.5-1.189,1.668,1.668,0,0,1,.159-.757,1.317,1.317,0,0,1,.47-.53,2.765,2.765,0,0,1,.689-.333,7.167,7.167,0,0,1,.878-.212l.947-.151c.341-.061.515-.242.515-.538a1.007,1.007,0,0,0-.364-.863,1.462,1.462,0,0,0-.924-.28,1.515,1.515,0,0,0-.909.265,1.1,1.1,0,0,0-.432.818l-.909-.2a1.765,1.765,0,0,1,.757-1.242,2.7,2.7,0,0,1,1.583-.417,3.3,3.3,0,0,1,.848.106,2.274,2.274,0,0,1,.7.326,1.468,1.468,0,0,1,.5.621,2.339,2.339,0,0,1,.182.962v2.37a1.036,1.036,0,0,0,.129.606.575.575,0,0,0,.462.159h.1v.757h-.515a.969.969,0,0,1-1.1-.757h-.045A2.211,2.211,0,0,1,502.611,237.237Zm.235-.825a1.515,1.515,0,0,0,1.25-.568,2.272,2.272,0,0,0,.477-1.515l-1.515.3a1.992,1.992,0,0,0-.9.326.847.847,0,0,0-.015,1.272A1.166,1.166,0,0,0,502.846,236.412Z" transform="translate(-448.933 -169.874)"/>
      <path id="Trazado_102816" data-name="Trazado 102816" d="M513.787,227h1.022v9.088h-.992v-1.128a2.145,2.145,0,0,1-.826.916,2.31,2.31,0,0,1-1.234.341A2.62,2.62,0,0,1,510.7,236a2.657,2.657,0,0,1-.863-.606,2.7,2.7,0,0,1-.583-.962,3.325,3.325,0,0,1-.22-1.242A3.082,3.082,0,0,1,509.8,231a2.559,2.559,0,0,1,1.931-.841,2.318,2.318,0,0,1,1.219.333,2.181,2.181,0,0,1,.833.886Zm-1.833,8.33a1.757,1.757,0,0,0,1.348-.606,2.416,2.416,0,0,0,0-3.029,1.75,1.75,0,0,0-1.348-.613,1.78,1.78,0,0,0-1.363.591,2.189,2.189,0,0,0-.553,1.552,2.159,2.159,0,0,0,.553,1.515,1.779,1.779,0,0,0,1.363.591Z" transform="translate(-450.923 -168.854)"/>
    </g>
    <g id="Grupo_57721" data-name="Grupo 57721" transform="translate(328.127 88.287)">
      <path id="Trazado_102817" data-name="Trazado 102817" d="M439.126,117.11h1.765v8.55h-2.052l-3.787-6.111v6.111H433.28v-8.55h2.06l3.787,6.058Z" transform="translate(-433.28 -116.709)"/>
      <path id="Trazado_102818" data-name="Trazado 102818" d="M451.493,123.278v.409H446.95a1.56,1.56,0,0,0,.485,1.113,1.689,1.689,0,0,0,1.87.174,1.325,1.325,0,0,0,.515-.613l1.56.227a2.658,2.658,0,0,1-1.068,1.431,3.2,3.2,0,0,1-1.795.507,3.287,3.287,0,0,1-2.37-.841,3.029,3.029,0,0,1-.879-2.317,3.1,3.1,0,0,1,.879-2.325,3.2,3.2,0,0,1,2.317-.848,2.779,2.779,0,0,1,3.029,3.082Zm-3.029-1.878a1.348,1.348,0,0,0-1.477,1.174h2.795a1.28,1.28,0,0,0-.424-.871,1.34,1.34,0,0,0-.863-.3Z" transform="translate(-436.188 -117.455)"/>
      <path id="Trazado_102819" data-name="Trazado 102819" d="M459.221,120.324h1.621v5.627a4.547,4.547,0,0,1-.227,1.515,2.5,2.5,0,0,1-.659,1.038,2.764,2.764,0,0,1-1.015.583,4.18,4.18,0,0,1-1.325.189,3,3,0,0,1-3.135-1.886l1.416-.606a2.053,2.053,0,0,0,.651.886,1.673,1.673,0,0,0,1,.28c1.053,0,1.583-.621,1.583-1.878v-.727a1.916,1.916,0,0,1-.757.6,2.568,2.568,0,0,1-1.083.227,2.711,2.711,0,0,1-1.068-.212,2.839,2.839,0,0,1-.886-.606,2.884,2.884,0,0,1-.6-.954,3.582,3.582,0,0,1,0-2.469,2.72,2.72,0,0,1,.606-.939,2.53,2.53,0,0,1,.886-.591,2.733,2.733,0,0,1,1.075-.22,2.5,2.5,0,0,1,1.128.257,1.749,1.749,0,0,1,.757.666Zm-2.613,4.021a1.469,1.469,0,0,0,1.113.47,1.515,1.515,0,0,0,1.121-.47,1.7,1.7,0,0,0,0-2.317,1.583,1.583,0,0,0-2.272,0,1.621,1.621,0,0,0-.447,1.166,1.59,1.59,0,0,0,.485,1.151Z" transform="translate(-438.425 -117.454)"/>
      <path id="Trazado_102820" data-name="Trazado 102820" d="M470.062,124.77a5.688,5.688,0,0,0,.144,1.515v.167h-1.59l-.136-.659a1.961,1.961,0,0,1-.848.583,3.2,3.2,0,0,1-1.1.2,3.3,3.3,0,0,1-.568-.053,2.084,2.084,0,0,1-.515-.182,1.515,1.515,0,0,1-.424-.318,1.259,1.259,0,0,1-.28-.485,1.773,1.773,0,0,1-.106-.659,1.825,1.825,0,0,1,.106-.659,1.574,1.574,0,0,1,.3-.492,1.884,1.884,0,0,1,.485-.364,3.786,3.786,0,0,1,.6-.257,7.085,7.085,0,0,1,.757-.189l1-.227a1.076,1.076,0,0,0,.454-.189.4.4,0,0,0,.129-.3.644.644,0,0,0-.3-.591,1.515,1.515,0,0,0-.757-.174,1.045,1.045,0,0,0-1.189.931l-1.515-.273a2.045,2.045,0,0,1,.878-1.393,3.521,3.521,0,0,1,1.908-.447q2.56,0,2.56,2.2Zm-3.029.613a1.363,1.363,0,0,0,1.053-.439,1.84,1.84,0,0,0,.409-1.3l-1.446.409a1.621,1.621,0,0,0-.606.25.515.515,0,0,0-.212.439.561.561,0,0,0,.227.477.924.924,0,0,0,.606.144Z" transform="translate(-440.891 -117.469)"/>
      <path id="Trazado_102821" data-name="Trazado 102821" d="M475.892,125.823a1.81,1.81,0,0,1-1.371-.492,1.908,1.908,0,0,1-.485-1.409v-2.87h-1.2v-1.31h.386a1,1,0,0,0,.757-.257,1.31,1.31,0,0,0,.242-.9v-.8h1.515v1.961h1.25v1.31h-1.227v2.688c0,.53.235.757.7.757h.545v1.3Z" transform="translate(-442.881 -116.871)"/>
      <path id="Trazado_102822" data-name="Trazado 102822" d="M480.924,118.541a.977.977,0,0,1-.7-.288.954.954,0,0,1-.288-.7.932.932,0,0,1,.3-.689.977.977,0,1,1,1.378,1.386A.947.947,0,0,1,480.924,118.541Zm-.863,6.99v-6.058h1.712v6.058Z" transform="translate(-444.604 -116.58)"/>
      <path id="Trazado_102823" data-name="Trazado 102823" d="M488.362,120.37h1.8l-2.59,6.058H486.06l-2.56-6.058h1.795l1.515,4.158Z" transform="translate(-445.468 -117.5)"/>
      <path id="Trazado_102824" data-name="Trazado 102824" d="M495.832,126.546a3.9,3.9,0,0,1-1.719-.371,2.8,2.8,0,0,1-1.182-1.1,3.226,3.226,0,0,1-.432-1.7,3.029,3.029,0,0,1,.924-2.272,3.855,3.855,0,0,1,4.824,0,3.362,3.362,0,0,1,0,4.627,3.423,3.423,0,0,1-2.416.81Zm0-1.356a1.568,1.568,0,0,0,1.2-.5,1.848,1.848,0,0,0,.454-1.31,1.886,1.886,0,0,0-.454-1.318,1.591,1.591,0,0,0-1.2-.492,1.515,1.515,0,0,0-1.174.5,2.143,2.143,0,0,0,0,2.62,1.515,1.515,0,0,0,1.159.5Z" transform="translate(-447.652 -117.473)"/>
    </g>
  </g>
</svg>
