<svg id="info_1_4-09" xmlns="http://www.w3.org/2000/svg" width="426.789" height="227.525" viewBox="0 0 426.789 227.525">
  <rect id="Rectángulo_5417" data-name="Rectángulo 5417" width="53.345" height="54.526" transform="translate(0 173)" fill="#999"/>
  <rect id="Rectángulo_5418" data-name="Rectángulo 5418" width="213.395" height="173" fill="#999"/>
  <rect id="Rectángulo_5419" data-name="Rectángulo 5419" width="213.395" height="227.526" transform="translate(213.395)" fill="#f2f2f2"/>
  <g id="Grupo_57731" data-name="Grupo 57731" transform="translate(53.345 173)" opacity="0.75">
    <rect id="Rectángulo_5420" data-name="Rectángulo 5420" width="53.345" height="54.526" fill="#999"/>
  </g>
  <g id="Grupo_57732" data-name="Grupo 57732" transform="translate(106.697 173)" opacity="0.5">
    <rect id="Rectángulo_5421" data-name="Rectángulo 5421" width="53.345" height="54.526" fill="#999"/>
  </g>
  <g id="Grupo_57733" data-name="Grupo 57733" transform="translate(160.042 173)" opacity="0.25">
    <rect id="Rectángulo_5422" data-name="Rectángulo 5422" width="53.345" height="54.526" fill="#999"/>
  </g>
  <g id="Grupo_57734" data-name="Grupo 57734" transform="translate(239.193 41.144)">
    <path id="Trazado_102919" data-name="Trazado 102919" d="M326.027,76.088a10.943,10.943,0,0,1-4.052-.757,9.451,9.451,0,0,1-3.234-2.075,9.261,9.261,0,0,1-2.12-3.287,12.352,12.352,0,0,1,0-8.618,9.4,9.4,0,0,1,2.181-3.264A9.845,9.845,0,0,1,322.1,56a11.436,11.436,0,0,1,4.142-.757,11.125,11.125,0,0,1,5.3,1.242,9.034,9.034,0,0,1,3.658,3.537l-3.7,1.969a5.43,5.43,0,0,0-2.143-2.272,6.142,6.142,0,0,0-3.1-.757,5.907,5.907,0,0,0-4.438,1.787,6.816,6.816,0,0,0-1.719,4.93,7.005,7.005,0,0,0,1.719,4.96,5.945,5.945,0,0,0,4.589,1.855,6.855,6.855,0,0,0,2.476-.432,5.037,5.037,0,0,0,1.969-1.416,5.15,5.15,0,0,0,1.121-2.408h-5.551V64.782h9.542V75.808h-3.347V73Q330.541,76.088,326.027,76.088Z" transform="translate(-315.845 -54.55)"/>
    <path id="Trazado_102920" data-name="Trazado 102920" d="M351.337,65.552a4.673,4.673,0,0,1,1.893-1.734,5.763,5.763,0,0,1,2.825-.757v3.6a5.5,5.5,0,0,0-3.453.894,3.815,3.815,0,0,0-1.068,3.1v7.051H347.46V63.264h3.877Z" transform="translate(-323.518 -56.449)"/>
    <path id="Trazado_102921" data-name="Trazado 102921" d="M363.92,58.98a2.327,2.327,0,0,1-2.34-2.333,2.212,2.212,0,0,1,.689-1.636,2.272,2.272,0,0,1,1.651-.682,2.325,2.325,0,1,1,0,4.65ZM361.9,75.588V61.146h4.074V75.588Z" transform="translate(-326.945 -54.33)"/>
    <path id="Trazado_102922" data-name="Trazado 102922" d="M377.556,77.968a8.065,8.065,0,0,1-4.218-1.007,4.264,4.264,0,0,1-2.067-3.029l3.385-.962a2.719,2.719,0,0,0,2.9,2.143,3.029,3.029,0,0,0,1.477-.326,1.151,1.151,0,0,0,.576-1.121,1.174,1.174,0,0,0-.235-.757,1.939,1.939,0,0,0-.757-.538c-.333-.144-.659-.273-.985-.379s-.757-.227-1.28-.371a13.939,13.939,0,0,1-1.34-.417,9.324,9.324,0,0,1-1.272-.538,5.461,5.461,0,0,1-1.053-.757,3.121,3.121,0,0,1-.757-1.136,4.075,4.075,0,0,1-.273-1.515,3.7,3.7,0,0,1,1.568-3.234A7.028,7.028,0,0,1,377.306,63a7.149,7.149,0,0,1,3.787.924,4.2,4.2,0,0,1,1.931,2.863l-3.135.7a2.446,2.446,0,0,0-2.567-1.825,2.787,2.787,0,0,0-1.424.326,1.037,1.037,0,0,0-.56.954,1.119,1.119,0,0,0,.083.432.931.931,0,0,0,.3.356c.144.1.28.189.409.265a3.263,3.263,0,0,0,.576.235l.636.182.757.189.757.2c.515.136.969.28,1.356.417a8.688,8.688,0,0,1,1.25.591,4.362,4.362,0,0,1,1.083.856,3.786,3.786,0,0,1,.712,1.189,4.4,4.4,0,0,1,.28,1.613,4.3,4.3,0,0,1-.485,2.09,3.62,3.62,0,0,1-1.378,1.416,6.559,6.559,0,0,1-1.878.757A9.6,9.6,0,0,1,377.556,77.968Z" transform="translate(-329.296 -56.43)"/>
  </g>
  <g id="Grupo_57735" data-name="Grupo 57735" transform="translate(241.665 113.763)">
    <path id="Trazado_102923" data-name="Trazado 102923" d="M326,151.22h1.053v8.33h-1.121l-4.491-6.74v6.74H320.4v-8.33h1.106L326,157.93Z" transform="translate(-319.423 -150.463)"/>
    <path id="Trazado_102924" data-name="Trazado 102924" d="M337.123,157.307v.28h-4.544a2.037,2.037,0,0,0,.56,1.515,1.818,1.818,0,0,0,1.325.523,1.757,1.757,0,0,0,1.621-1.053l.924.2a2.583,2.583,0,0,1-.992,1.25,2.719,2.719,0,0,1-1.515.454,2.81,2.81,0,0,1-2.09-.81,3.446,3.446,0,0,1,0-4.423,2.787,2.787,0,0,1,2.06-.81,2.628,2.628,0,0,1,1.961.757A2.969,2.969,0,0,1,337.123,157.307Zm-2.7-2.12a1.78,1.78,0,0,0-1.2.417,1.886,1.886,0,0,0-.613,1.2h3.484a1.734,1.734,0,0,0-.507-1.2A1.636,1.636,0,0,0,334.427,155.187Z" transform="translate(-322.144 -151.241)"/>
    <path id="Trazado_102925" data-name="Trazado 102925" d="M344.6,154.535h1.022v5.816h-.985v-.757a1.863,1.863,0,0,1-.719.651,2.272,2.272,0,0,1-1.022.227,2.029,2.029,0,0,1-1.462-.523,1.984,1.984,0,0,1-.545-1.515V154.52h1.022v3.688a1.386,1.386,0,0,0,.356,1.037,1.257,1.257,0,0,0,.916.348,1.4,1.4,0,0,0,1.03-.4,1.674,1.674,0,0,0,.409-1.189Z" transform="translate(-324.394 -151.264)"/>
    <path id="Trazado_102926" data-name="Trazado 102926" d="M351.461,159.74a1.515,1.515,0,0,1-1.136-.417,1.6,1.6,0,0,1-.417-1.159v-3.423H348.72v-.818h.439a.841.841,0,0,0,.644-.2,1.015,1.015,0,0,0,.189-.682V152h.947v1.939h1.34v.818h-1.34v3.3a.863.863,0,0,0,.227.636.757.757,0,0,0,.583.227h.53v.818Z" transform="translate(-326.296 -150.652)"/>
    <path id="Trazado_102927" data-name="Trazado 102927" d="M356.379,155.55a1.75,1.75,0,0,1,.757-.757,2.152,2.152,0,0,1,1.113-.3v.962a1.909,1.909,0,0,0-1.348.432,1.8,1.8,0,0,0-.469,1.378v3.1H355.41v-5.816h1Z" transform="translate(-327.92 -151.256)"/>
    <path id="Trazado_102928" data-name="Trazado 102928" d="M361.819,160.437a2.007,2.007,0,0,1-1.28-.4,1.424,1.424,0,0,1-.5-1.189,1.666,1.666,0,0,1,.159-.757,1.34,1.34,0,0,1,.477-.53,2.846,2.846,0,0,1,.682-.333,6.452,6.452,0,0,1,.886-.2l.939-.159c.348-.061.515-.242.515-.538a1.007,1.007,0,0,0-.364-.863,1.439,1.439,0,0,0-.916-.28,1.56,1.56,0,0,0-.916.265,1.144,1.144,0,0,0-.432.818l-.924-.189a1.8,1.8,0,0,1,.757-1.25,2.681,2.681,0,0,1,1.583-.417,3.188,3.188,0,0,1,.841.106,2.135,2.135,0,0,1,.7.326,1.431,1.431,0,0,1,.507.621,2.475,2.475,0,0,1,.174.962v2.4a.977.977,0,0,0,.136.606.575.575,0,0,0,.462.159h.091v.757h-.507a.962.962,0,0,1-1.1-.757h-.053A2.2,2.2,0,0,1,361.819,160.437Zm.235-.825a1.552,1.552,0,0,0,1.249-.568,2.272,2.272,0,0,0,.47-1.515l-1.515.3a2.067,2.067,0,0,0-.9.326.84.84,0,0,0-.008,1.272A1.136,1.136,0,0,0,362.053,159.612Z" transform="translate(-329.042 -151.236)"/>
    <path id="Trazado_102929" data-name="Trazado 102929" d="M369,159.308V150.22h1.03v9.088Z" transform="translate(-331.218 -150.22)"/>
    <path id="Trazado_102930" data-name="Trazado 102930" d="M323.55,170.42a2.416,2.416,0,0,1,1.3.348,2.34,2.34,0,0,1,.879.924,2.711,2.711,0,0,1,.3,1.287,2.507,2.507,0,0,1-.689,1.81,2.37,2.37,0,0,1-1.795.757h-2.1v3.234H320.4v-8.33Zm-.151,4.173a1.515,1.515,0,0,0,1.159-.447,1.873,1.873,0,0,0,0-2.355,1.515,1.515,0,0,0-1.159-.454h-1.946v3.256Z" transform="translate(-319.423 -155.122)"/>
    <path id="Trazado_102931" data-name="Trazado 102931" d="M330.949,174.75a1.8,1.8,0,0,1,.757-.757,2.152,2.152,0,0,1,1.113-.3v.962a1.908,1.908,0,0,0-1.348.432,1.8,1.8,0,0,0-.47,1.378v3.1H329.98v-5.816h1Z" transform="translate(-321.748 -155.916)"/>
    <path id="Trazado_102932" data-name="Trazado 102932" d="M336.428,179.637a1.961,1.961,0,0,1-1.28-.4,1.424,1.424,0,0,1-.5-1.189,1.576,1.576,0,0,1,.167-.757,1.265,1.265,0,0,1,.469-.53,2.846,2.846,0,0,1,.682-.333,6.454,6.454,0,0,1,.886-.2l.939-.159c.348-.061.515-.242.515-.538a1.007,1.007,0,0,0-.363-.863,1.439,1.439,0,0,0-.916-.28,1.56,1.56,0,0,0-.916.265,1.144,1.144,0,0,0-.432.818l-.924-.189a1.8,1.8,0,0,1,.757-1.25,2.681,2.681,0,0,1,1.583-.417,3.189,3.189,0,0,1,.841.106,2.134,2.134,0,0,1,.7.326,1.432,1.432,0,0,1,.507.621,2.347,2.347,0,0,1,.174.962v2.4a.977.977,0,0,0,.136.606.575.575,0,0,0,.462.159h.091v.757h-.553a.962.962,0,0,1-1.1-.757h-.053A2.2,2.2,0,0,1,336.428,179.637Zm.235-.825a1.552,1.552,0,0,0,1.25-.568,2.272,2.272,0,0,0,.47-1.515l-1.515.3a2.067,2.067,0,0,0-.9.326.84.84,0,0,0-.008,1.272,1.136,1.136,0,0,0,.674.189Z" transform="translate(-322.88 -155.895)"/>
    <path id="Trazado_102933" data-name="Trazado 102933" d="M345.669,179.625a2.779,2.779,0,0,1-2.083-.833,3.3,3.3,0,0,1,0-4.362,3.029,3.029,0,0,1,3.787-.326,2.522,2.522,0,0,1,.977,1.409l-.954.159a1.742,1.742,0,0,0-1.711-1.227,1.719,1.719,0,0,0-1.348.6,2.583,2.583,0,0,0,0,3.135,1.817,1.817,0,0,0,3.06-.636l.954.159a2.514,2.514,0,0,1-.984,1.416A2.809,2.809,0,0,1,345.669,179.625Z" transform="translate(-324.85 -155.891)"/>
    <path id="Trazado_102934" data-name="Trazado 102934" d="M353.681,178.935a1.514,1.514,0,0,1-1.136-.417,1.568,1.568,0,0,1-.417-1.159v-3.423H350.94v-.818h.439a.856.856,0,0,0,.644-.2,1.022,1.022,0,0,0,.182-.682V171.18h.954v1.939h1.34v.818h-1.34v3.317a.863.863,0,0,0,.227.636.757.757,0,0,0,.576.227h.538v.818Z" transform="translate(-326.835 -155.307)"/>
    <path id="Trazado_102935" data-name="Trazado 102935" d="M358.057,171.5a.7.7,0,0,1-.7-.7.659.659,0,0,1,.2-.485.7.7,0,0,1,.977,0,.682.682,0,0,1,.2.485.7.7,0,0,1-.2.492A.674.674,0,0,1,358.057,171.5Zm-.522,7.179v-5.816H358.6v5.816Z" transform="translate(-328.393 -155.05)"/>
    <path id="Trazado_102936" data-name="Trazado 102936" d="M363.959,179.625a2.78,2.78,0,0,1-2.083-.833,3.3,3.3,0,0,1,0-4.362,2.787,2.787,0,0,1,2.09-.841,2.817,2.817,0,0,1,1.681.515,2.522,2.522,0,0,1,.977,1.409l-.954.159a1.742,1.742,0,0,0-1.711-1.227,1.719,1.719,0,0,0-1.348.6,2.582,2.582,0,0,0,0,3.135,1.817,1.817,0,0,0,3.059-.636l.954.159a2.514,2.514,0,0,1-.984,1.416,2.81,2.81,0,0,1-1.681.507Z" transform="translate(-329.289 -155.891)"/>
    <path id="Trazado_102937" data-name="Trazado 102937" d="M372.683,179.633a3.029,3.029,0,0,1-1.515-.363,2.658,2.658,0,0,1-1.053-1.053,3.249,3.249,0,0,1-.386-1.605,3.029,3.029,0,0,1,.825-2.2,3.1,3.1,0,0,1,4.211,0,3.332,3.332,0,0,1,0,4.392,2.855,2.855,0,0,1-2.083.825Zm0-.848a1.8,1.8,0,0,0,1.378-.6,2.537,2.537,0,0,0,0-3.143,1.78,1.78,0,0,0-1.378-.6,1.757,1.757,0,0,0-1.363.6,2.567,2.567,0,0,0,0,3.143,1.787,1.787,0,0,0,1.356.6Z" transform="translate(-331.394 -155.892)"/>
    <path id="Trazado_102938" data-name="Trazado 102938" d="M323.78,198.027a4.491,4.491,0,0,1-1.643-.3,4.256,4.256,0,0,1-1.318-.841,3.786,3.786,0,0,1-.871-1.356,5.179,5.179,0,0,1,0-3.574,3.854,3.854,0,0,1,.878-1.356,4.006,4.006,0,0,1,1.31-.841,4.49,4.49,0,0,1,1.643-.3,4.2,4.2,0,0,1,2.211.591,3.65,3.65,0,0,1,1.492,1.628l-.977.4a2.809,2.809,0,0,0-1.091-1.189,3.12,3.12,0,0,0-1.613-.416,3.385,3.385,0,0,0-1.219.22,2.886,2.886,0,0,0-.977.629,2.8,2.8,0,0,0-.659,1.03,3.787,3.787,0,0,0-.242,1.378,3.869,3.869,0,0,0,.242,1.393,2.8,2.8,0,0,0,.659,1.03,2.886,2.886,0,0,0,.977.629,3.234,3.234,0,0,0,1.219.227,3.127,3.127,0,0,0,1.613-.424,2.771,2.771,0,0,0,1.091-1.174l.977.394a3.635,3.635,0,0,1-1.515,1.628A4.279,4.279,0,0,1,323.78,198.027Z" transform="translate(-319.236 -159.745)"/>
    <path id="Trazado_102939" data-name="Trazado 102939" d="M334.3,198.833a3.029,3.029,0,0,1-1.515-.364,2.559,2.559,0,0,1-1.053-1.053,3.249,3.249,0,0,1-.386-1.605,2.969,2.969,0,0,1,.825-2.2,3.1,3.1,0,0,1,4.211,0,3.029,3.029,0,0,1,.818,2.2,2.961,2.961,0,0,1-.826,2.2A2.825,2.825,0,0,1,334.3,198.833Zm0-.848a1.818,1.818,0,0,0,1.378-.6,2.272,2.272,0,0,0,.545-1.575,2.219,2.219,0,0,0-.545-1.568,1.787,1.787,0,0,0-1.378-.6,1.757,1.757,0,0,0-1.363.6,2.219,2.219,0,0,0-.545,1.568,2.272,2.272,0,0,0,.545,1.575,1.787,1.787,0,0,0,1.355.6Z" transform="translate(-322.079 -160.551)"/>
    <path id="Trazado_102940" data-name="Trazado 102940" d="M343.979,192.789a2.037,2.037,0,0,1,1.462.53,1.969,1.969,0,0,1,.545,1.515v3.915h-1.022v-3.68a1.393,1.393,0,0,0-.356-1.045,1.25,1.25,0,0,0-.909-.333,1.416,1.416,0,0,0-1.038.394,1.658,1.658,0,0,0-.409,1.189v3.476H341.23v-5.816h1.022v.757a1.939,1.939,0,0,1,1.727-.9Z" transform="translate(-324.478 -160.551)"/>
    <path id="Trazado_102941" data-name="Trazado 102941" d="M351.8,198.838a2.749,2.749,0,0,1-1.568-.417,1.749,1.749,0,0,1-.757-1.2l.894-.257a1.287,1.287,0,0,0,.477.81,1.568,1.568,0,0,0,.954.288,2.135,2.135,0,0,0,.56-.076.97.97,0,0,0,.432-.288.826.826,0,0,0,.174-.53.812.812,0,0,0-.053-.242.886.886,0,0,0-.091-.189.485.485,0,0,0-.167-.159,1.74,1.74,0,0,0-.2-.129,1.576,1.576,0,0,0-.258-.106l-.288-.1-.326-.091-.333-.1c-.242-.076-.447-.144-.606-.212a2.773,2.773,0,0,1-.492-.28,1.127,1.127,0,0,1-.379-.462,1.56,1.56,0,0,1-.129-.651,1.514,1.514,0,0,1,.288-.924,1.575,1.575,0,0,1,.757-.553,2.907,2.907,0,0,1,1.03-.167,2.529,2.529,0,0,1,1.416.379,1.621,1.621,0,0,1,.712,1.136l-.841.212a1.091,1.091,0,0,0-.447-.757,1.378,1.378,0,0,0-.833-.25,1.446,1.446,0,0,0-.757.2.689.689,0,0,0-.326.629.643.643,0,0,0,.083.318,1.247,1.247,0,0,0,.174.227,1.089,1.089,0,0,0,.326.182l.341.121.424.106h.091c.227.053.417.106.56.151a4.058,4.058,0,0,1,.5.212,1.839,1.839,0,0,1,.454.318,1.454,1.454,0,0,1,.28.454,1.515,1.515,0,0,1,.121.621,1.749,1.749,0,0,1-.174.757,1.362,1.362,0,0,1-.477.538,2.271,2.271,0,0,1-.674.288,3.143,3.143,0,0,1-.871.182Z" transform="translate(-326.48 -160.556)"/>
    <path id="Trazado_102942" data-name="Trazado 102942" d="M362.452,195.707v.28h-4.544a2.037,2.037,0,0,0,.553,1.515,1.818,1.818,0,0,0,1.325.523,1.757,1.757,0,0,0,1.628-1.053l.924.2a2.627,2.627,0,0,1-.992,1.25,2.719,2.719,0,0,1-1.515.454,2.84,2.84,0,0,1-2.1-.81,3.461,3.461,0,0,1,0-4.423,2.772,2.772,0,0,1,2.06-.81,2.621,2.621,0,0,1,1.954.757A2.946,2.946,0,0,1,362.452,195.707Zm-2.689-2.12a1.787,1.787,0,0,0-1.212.417,1.885,1.885,0,0,0-.613,1.2h3.484a1.7,1.7,0,0,0-.507-1.2,1.605,1.605,0,0,0-1.151-.417Z" transform="translate(-328.29 -160.56)"/>
    <path id="Trazado_102943" data-name="Trazado 102943" d="M367.34,193.95a1.773,1.773,0,0,1,.719-.757,2.2,2.2,0,0,1,1.121-.3v.962a1.893,1.893,0,0,0-1.348.432,1.8,1.8,0,0,0-.47,1.378v3.1H366.34v-5.816h1Z" transform="translate(-330.572 -160.576)"/>
    <path id="Trazado_102944" data-name="Trazado 102944" d="M375.178,192.94h1.1l-2.37,5.816h-.871l-2.355-5.816h1.091l1.7,4.627Z" transform="translate(-331.626 -160.588)"/>
    <path id="Trazado_102945" data-name="Trazado 102945" d="M380.568,198.837a1.961,1.961,0,0,1-1.28-.4,1.424,1.424,0,0,1-.5-1.189,1.664,1.664,0,0,1,.159-.757,1.341,1.341,0,0,1,.477-.53,2.846,2.846,0,0,1,.682-.333,6.447,6.447,0,0,1,.886-.2l.939-.159c.348-.061.515-.242.515-.538a1.007,1.007,0,0,0-.364-.863,1.439,1.439,0,0,0-.916-.28,1.515,1.515,0,0,0-.916.273,1.114,1.114,0,0,0-.432.81l-.924-.189a1.8,1.8,0,0,1,.757-1.25,2.681,2.681,0,0,1,1.583-.417,3.189,3.189,0,0,1,.841.106,2.135,2.135,0,0,1,.7.326,1.432,1.432,0,0,1,.507.621,2.475,2.475,0,0,1,.174.962v2.4a.978.978,0,0,0,.136.606.576.576,0,0,0,.462.159h.091v.757h-.507a.962.962,0,0,1-1.1-.757h-.053A2.2,2.2,0,0,1,380.568,198.837Zm.235-.825a1.568,1.568,0,0,0,1.25-.56,2.325,2.325,0,0,0,.469-1.515l-1.515.3a2.068,2.068,0,0,0-.9.326.84.84,0,0,0-.008,1.272,1.136,1.136,0,0,0,.7.182Z" transform="translate(-333.593 -160.555)"/>
    <path id="Trazado_102946" data-name="Trazado 102946" d="M391.739,188.62h1.022v9.088h-.984v-1.128a2.166,2.166,0,0,1-.833.916,2.271,2.271,0,0,1-1.227.341,2.62,2.62,0,0,1-1.053-.22,2.583,2.583,0,0,1-.871-.606,2.855,2.855,0,0,1-.583-.954,3.552,3.552,0,0,1-.212-1.25,3.029,3.029,0,0,1,.757-2.189,2.537,2.537,0,0,1,1.931-.841,2.34,2.34,0,0,1,1.219.333,2.165,2.165,0,0,1,.825.886Zm-1.833,8.33a1.749,1.749,0,0,0,1.356-.606,2.226,2.226,0,0,0,.545-1.515,2.181,2.181,0,0,0-.553-1.515,1.742,1.742,0,0,0-1.348-.613,1.8,1.8,0,0,0-1.363.591,2.219,2.219,0,0,0-.545,1.515,2.188,2.188,0,0,0,.545,1.515,1.8,1.8,0,0,0,1.363.621Z" transform="translate(-335.585 -159.539)"/>
    <path id="Trazado_102947" data-name="Trazado 102947" d="M399.652,198.833a3.029,3.029,0,0,1-1.515-.364,2.6,2.6,0,0,1-1.053-1.053,3.248,3.248,0,0,1-.386-1.605,2.968,2.968,0,0,1,.826-2.2,3.1,3.1,0,0,1,4.211,0,3.332,3.332,0,0,1,0,4.392A2.855,2.855,0,0,1,399.652,198.833Zm0-.848a1.8,1.8,0,0,0,1.378-.6,2.272,2.272,0,0,0,.545-1.575,2.219,2.219,0,0,0-.545-1.568,1.78,1.78,0,0,0-1.378-.6,1.757,1.757,0,0,0-1.363.6,2.219,2.219,0,0,0-.538,1.568,2.272,2.272,0,0,0,.538,1.575,1.787,1.787,0,0,0,1.356.6Z" transform="translate(-337.939 -160.551)"/>
    <path id="Trazado_102948" data-name="Trazado 102948" d="M407.589,193.95a1.8,1.8,0,0,1,.757-.757,2.151,2.151,0,0,1,1.113-.3v.962a1.909,1.909,0,0,0-1.348.432,1.8,1.8,0,0,0-.469,1.378v3.1H406.62v-5.816h1Z" transform="translate(-340.348 -160.576)"/>
    <path id="Trazado_102949" data-name="Trazado 102949" d="M324.9,209.8h-3.415v2.719h2.976v.992h-2.976v3.681H320.4v-8.33h4.5Z" transform="translate(-319.423 -164.451)"/>
    <path id="Trazado_102950" data-name="Trazado 102950" d="M330.315,218.064a3.029,3.029,0,0,1-1.515-.363,2.59,2.59,0,0,1-1.045-1.053,3.248,3.248,0,0,1-.386-1.605,2.969,2.969,0,0,1,.825-2.2,3.09,3.09,0,0,1,4.2,0,3.332,3.332,0,0,1,0,4.392A2.84,2.84,0,0,1,330.315,218.064Zm0-.848a1.8,1.8,0,0,0,1.378-.6,2.537,2.537,0,0,0,0-3.143,1.78,1.78,0,0,0-1.378-.6,1.757,1.757,0,0,0-1.363.6,2.567,2.567,0,0,0,0,3.143,1.787,1.787,0,0,0,1.356.576Z" transform="translate(-321.114 -165.219)"/>
    <path id="Trazado_102951" data-name="Trazado 102951" d="M338.25,213.15a1.771,1.771,0,0,1,.719-.757,2.181,2.181,0,0,1,1.121-.3v.962a1.931,1.931,0,0,0-1.356.432,1.8,1.8,0,0,0-.462,1.378v3.1H337.25v-5.816h1Z" transform="translate(-323.512 -165.235)"/>
    <path id="Trazado_102952" data-name="Trazado 102952" d="M348.525,212a1.863,1.863,0,0,1,1.356.5,1.8,1.8,0,0,1,.515,1.386v4.044h-1.022v-3.787a1.325,1.325,0,0,0-.318-.962,1.1,1.1,0,0,0-.81-.318,1.151,1.151,0,0,0-.886.364,1.56,1.56,0,0,0-.341,1.1v3.6H345.98v-3.734a1.349,1.349,0,0,0-.326-.992,1.083,1.083,0,0,0-.825-.333,1.136,1.136,0,0,0-.886.371,1.636,1.636,0,0,0-.341,1.128v3.559H342.58v-5.816H343.6v.757a1.81,1.81,0,0,1,.666-.644,1.908,1.908,0,0,1,.9-.22,1.954,1.954,0,0,1,.992.25,1.514,1.514,0,0,1,.644.7,1.832,1.832,0,0,1,.7-.7,1.969,1.969,0,0,1,1.022-.25Z" transform="translate(-324.806 -165.213)"/>
    <path id="Trazado_102953" data-name="Trazado 102953" d="M356.721,218.07a1.939,1.939,0,0,1-1.272-.4,1.424,1.424,0,0,1-.5-1.189,1.666,1.666,0,0,1,.159-.757,1.287,1.287,0,0,1,.477-.53,2.591,2.591,0,0,1,.682-.333,5.976,5.976,0,0,1,.886-.2l.939-.159c.341-.061.515-.242.515-.538a1.007,1.007,0,0,0-.364-.863,1.658,1.658,0,0,0-1.833,0,1.113,1.113,0,0,0-.432.81l-.924-.189a1.817,1.817,0,0,1,.757-1.25,2.726,2.726,0,0,1,1.59-.417,3.271,3.271,0,0,1,.841.106,2.272,2.272,0,0,1,.7.326,1.47,1.47,0,0,1,.5.621,2.34,2.34,0,0,1,.182.962v2.4a.977.977,0,0,0,.136.606.56.56,0,0,0,.454.159h.068v.757h-.507c-.629,0-1-.257-1.106-.757h-.045A2.2,2.2,0,0,1,356.721,218.07Zm.242-.825a1.515,1.515,0,0,0,1.242-.56,2.325,2.325,0,0,0,.477-1.515l-1.515.3a2.128,2.128,0,0,0-.9.326.847.847,0,0,0-.015,1.272,1.174,1.174,0,0,0,.712.159Z" transform="translate(-327.807 -165.224)"/>
    <path id="Trazado_102954" data-name="Trazado 102954" d="M363.9,216.908V207.82h1.038v9.088Z" transform="translate(-329.98 -164.199)"/>
    <path id="Trazado_102955" data-name="Trazado 102955" d="M324.441,228v.969h-2.136v7.361h-1.06v-7.346H319.11V228Z" transform="translate(-319.11 -169.097)"/>
    <path id="Trazado_102956" data-name="Trazado 102956" d="M328,232.35a1.772,1.772,0,0,1,.719-.757,2.182,2.182,0,0,1,1.121-.3v.962a1.931,1.931,0,0,0-1.356.432,1.8,1.8,0,0,0-.462,1.378v3.067H327v-5.816h1Z" transform="translate(-321.025 -169.895)"/>
    <path id="Trazado_102957" data-name="Trazado 102957" d="M333.431,237.24a1.984,1.984,0,0,1-1.272-.4,1.424,1.424,0,0,1-.5-1.189,1.727,1.727,0,0,1,.159-.757,1.347,1.347,0,0,1,.469-.523,2.765,2.765,0,0,1,.689-.333,6.975,6.975,0,0,1,.886-.212l.939-.151c.341-.061.515-.242.515-.538a1.007,1.007,0,0,0-.364-.863,1.462,1.462,0,0,0-.924-.28,1.515,1.515,0,0,0-.909.265,1.143,1.143,0,0,0-.432.818l-.924-.2a1.765,1.765,0,0,1,.757-1.242,2.7,2.7,0,0,1,1.583-.417,3.3,3.3,0,0,1,.848.106,2.272,2.272,0,0,1,.7.326,1.469,1.469,0,0,1,.5.621,2.338,2.338,0,0,1,.182.962V235.6a.977.977,0,0,0,.136.606.553.553,0,0,0,.454.159h.1v.757h-.568a.969.969,0,0,1-1.1-.757h-.045a2.272,2.272,0,0,1-1.886.878Zm.242-.825a1.515,1.515,0,0,0,1.242-.568,2.271,2.271,0,0,0,.477-1.515l-1.515.3a1.991,1.991,0,0,0-.9.326.847.847,0,0,0-.015,1.272,1.174,1.174,0,0,0,.719.189Z" transform="translate(-322.155 -169.877)"/>
    <path id="Trazado_102958" data-name="Trazado 102958" d="M343.369,231.189a2.037,2.037,0,0,1,1.462.53,1.969,1.969,0,0,1,.545,1.515v3.87h-1.022v-3.688a1.356,1.356,0,0,0-.356-1.038,1.25,1.25,0,0,0-.909-.341,1.423,1.423,0,0,0-1.037.4,1.658,1.658,0,0,0-.409,1.189V237.1H340.62v-5.816h1.045v.757A1.939,1.939,0,0,1,343.369,231.189Z" transform="translate(-324.33 -169.87)"/>
    <path id="Trazado_102959" data-name="Trazado 102959" d="M353.689,231.3h.985v8.747h-1.022v-4.014a2.143,2.143,0,0,1-.825.878,2.332,2.332,0,0,1-1.212.333,2.552,2.552,0,0,1-1.939-.841,3.029,3.029,0,0,1-.757-2.189,3.56,3.56,0,0,1,.212-1.257,2.718,2.718,0,0,1,.591-.962,2.544,2.544,0,0,1,.863-.591,2.62,2.62,0,0,1,1.053-.22,2.318,2.318,0,0,1,1.219.333,2.082,2.082,0,0,1,.825.894Zm-1.878,5.044a1.765,1.765,0,0,0,1.363-.606,2.393,2.393,0,0,0,0-3.029,1.787,1.787,0,0,0-1.363-.606,1.765,1.765,0,0,0-1.348.583,2.484,2.484,0,0,0,0,3.105A1.765,1.765,0,0,0,351.811,236.347Z" transform="translate(-326.343 -169.871)"/>
    <path id="Trazado_102960" data-name="Trazado 102960" d="M362.869,231.33h1.022v5.8h-.985v-.757a1.81,1.81,0,0,1-.719.651,2.219,2.219,0,0,1-1.015.227,2.037,2.037,0,0,1-1.469-.523,1.984,1.984,0,0,1-.545-1.515V231.3h1.022v3.688a1.386,1.386,0,0,0,.356,1.038,1.257,1.257,0,0,0,.916.348,1.393,1.393,0,0,0,1.03-.4,1.636,1.636,0,0,0,.409-1.189Z" transform="translate(-328.828 -169.897)"/>
    <path id="Trazado_102961" data-name="Trazado 102961" d="M368.627,229.1a.7.7,0,0,1-.7-.7.659.659,0,0,1,.2-.485.7.7,0,0,1,.977,0,.651.651,0,0,1,.2.485.682.682,0,0,1-.682.7Zm-.523,7.179v-5.816h1.03v5.8Z" transform="translate(-330.958 -169.029)"/>
    <path id="Trazado_102962" data-name="Trazado 102962" d="M372.27,236.088V227h1.037v9.088Z" transform="translate(-332.011 -168.854)"/>
    <path id="Trazado_102963" data-name="Trazado 102963" d="M378.673,237.233a3.029,3.029,0,0,1-1.515-.364,2.59,2.59,0,0,1-1.045-1.053,3.257,3.257,0,0,1-.394-1.605,3.029,3.029,0,0,1,.826-2.2,3.1,3.1,0,0,1,4.211,0,3.332,3.332,0,0,1,0,4.392A2.84,2.84,0,0,1,378.673,237.233Zm0-.848a1.8,1.8,0,0,0,1.378-.6,2.272,2.272,0,0,0,.545-1.575,2.219,2.219,0,0,0-.545-1.568,1.78,1.78,0,0,0-1.378-.6,1.757,1.757,0,0,0-1.363.6,2.565,2.565,0,0,0,0,3.143,1.787,1.787,0,0,0,1.356.6Z" transform="translate(-332.848 -169.871)"/>
  </g>
  <g id="Grupo_57736" data-name="Grupo 57736" transform="translate(242.438 88.287)">
    <path id="Trazado_102964" data-name="Trazado 102964" d="M323.682,117.109a2.59,2.59,0,0,1,1.977.757,2.794,2.794,0,0,1,.757,1.969,2.688,2.688,0,0,1-.757,1.954,2.605,2.605,0,0,1-1.977.757H321.9v3.029H320.13v-8.467Zm-.3,4a1.272,1.272,0,0,0,.977-.333,1.249,1.249,0,0,0,.326-.924,1.272,1.272,0,0,0-.326-.916,1.3,1.3,0,0,0-.977-.341h-1.515v2.514Z" transform="translate(-320.13 -116.707)"/>
    <path id="Trazado_102965" data-name="Trazado 102965" d="M332.482,126.546a3.9,3.9,0,0,1-1.719-.371,2.8,2.8,0,0,1-1.181-1.1,3.225,3.225,0,0,1-.432-1.7,3.029,3.029,0,0,1,.924-2.272,3.855,3.855,0,0,1,4.824,0,3.363,3.363,0,0,1,0,4.627A3.423,3.423,0,0,1,332.482,126.546Zm0-1.356a1.568,1.568,0,0,0,1.2-.5,1.848,1.848,0,0,0,.454-1.31,1.885,1.885,0,0,0-.454-1.318,1.59,1.59,0,0,0-1.2-.492,1.515,1.515,0,0,0-1.174.5,2.143,2.143,0,0,0,0,2.62,1.515,1.515,0,0,0,1.159.5Z" transform="translate(-322.319 -117.473)"/>
    <path id="Trazado_102966" data-name="Trazado 102966" d="M341.613,126.533a3.461,3.461,0,0,1-1.78-.424,1.818,1.818,0,0,1-.863-1.272l1.424-.4a1.144,1.144,0,0,0,1.219.909,1.2,1.2,0,0,0,.621-.144.477.477,0,0,0,.242-.47.523.523,0,0,0-.1-.311.94.94,0,0,0-.31-.227l-.417-.159-.545-.159a5.637,5.637,0,0,1-.56-.174,3.279,3.279,0,0,1-.538-.227,2.028,2.028,0,0,1-.439-.31,1.263,1.263,0,0,1-.333-.477,1.75,1.75,0,0,1-.114-.651,1.56,1.56,0,0,1,.659-1.363,2.984,2.984,0,0,1,1.727-.462,3.029,3.029,0,0,1,1.59.394,1.757,1.757,0,0,1,.818,1.219l-1.325.3a1.03,1.03,0,0,0-1.083-.757,1.158,1.158,0,0,0-.591.136.462.462,0,0,0-.2.591.364.364,0,0,0,.121.144l.174.114a1.122,1.122,0,0,0,.242.1,2.182,2.182,0,0,0,.265.076l.311.083.318.083a4.682,4.682,0,0,1,.568.174,3.64,3.64,0,0,1,.53.25,2.013,2.013,0,0,1,.454.356,1.735,1.735,0,0,1,.3.507,1.908,1.908,0,0,1,.114.674,1.81,1.81,0,0,1-.2.878,1.514,1.514,0,0,1-.56.6,2.689,2.689,0,0,1-.757.318A4.119,4.119,0,0,1,341.613,126.533Z" transform="translate(-324.702 -117.46)"/>
    <path id="Trazado_102967" data-name="Trazado 102967" d="M348.212,118.541a.975.975,0,0,1-.7-1.674.969.969,0,0,1,.7-.288.984.984,0,0,1,0,1.961Zm-.871,6.99v-6.059h1.719v6.059Z" transform="translate(-326.705 -116.58)"/>
    <path id="Trazado_102968" data-name="Trazado 102968" d="M354.02,125.823a1.825,1.825,0,0,1-1.378-.492,1.939,1.939,0,0,1-.485-1.409v-2.87h-1.2v-1.31h.386a.977.977,0,0,0,.757-.257,1.272,1.272,0,0,0,.242-.9v-.8h1.515v1.961h1.257v1.31h-1.257v2.688c0,.53.235.757.7.757h.553v1.3Z" transform="translate(-327.612 -116.871)"/>
    <path id="Trazado_102969" data-name="Trazado 102969" d="M359.024,118.541a.954.954,0,0,1-.7-.288.981.981,0,0,1,.7-1.674.962.962,0,0,1,.689.288.977.977,0,0,1,0,1.386A.962.962,0,0,1,359.024,118.541Zm-.871,6.99v-6.058h1.719v6.058Z" transform="translate(-329.33 -116.58)"/>
    <path id="Trazado_102970" data-name="Trazado 102970" d="M366.442,120.37h1.81l-2.6,6.058H364.14l-2.56-6.058h1.833l1.515,4.158Z" transform="translate(-330.19 -117.5)"/>
    <path id="Trazado_102971" data-name="Trazado 102971" d="M373.931,126.545a3.916,3.916,0,0,1-1.727-.371,2.8,2.8,0,0,1-1.181-1.1,3.293,3.293,0,0,1-.424-1.7,2.961,2.961,0,0,1,.924-2.272,3.84,3.84,0,0,1,4.817,0,3.363,3.363,0,0,1,0,4.627A3.4,3.4,0,0,1,373.931,126.545Zm0-1.356a1.515,1.515,0,0,0,1.2-.5,1.825,1.825,0,0,0,.462-1.31,1.855,1.855,0,0,0-.462-1.318,1.568,1.568,0,0,0-1.2-.485,1.514,1.514,0,0,0-1.166.5,2.113,2.113,0,0,0,0,2.62,1.514,1.514,0,0,0,1.166.492Z" transform="translate(-332.378 -117.473)"/>
  </g>
  <g id="Grupo_57737" data-name="Grupo 57737" transform="translate(328.347 114.52)">
    <path id="Trazado_102972" data-name="Trazado 102972" d="M433.58,159.55v-8.33h1.075v8.33Z" transform="translate(-433.572 -151.22)"/>
    <path id="Trazado_102973" data-name="Trazado 102973" d="M440.827,154.389a2.037,2.037,0,0,1,1.462.53,1.969,1.969,0,0,1,.545,1.515v3.915H441.8v-3.681a1.393,1.393,0,0,0-.356-1.045,1.249,1.249,0,0,0-.909-.341,1.423,1.423,0,0,0-1.038.4,1.658,1.658,0,0,0-.409,1.189v3.476H438.07v-5.816h1.022v.757A1.939,1.939,0,0,1,440.827,154.389Z" transform="translate(-434.662 -151.989)"/>
    <path id="Trazado_102974" data-name="Trazado 102974" d="M448.655,160.438a2.749,2.749,0,0,1-1.568-.417,1.749,1.749,0,0,1-.757-1.2l.894-.257a1.287,1.287,0,0,0,.477.81,1.567,1.567,0,0,0,.954.288,2.137,2.137,0,0,0,.56-.076.97.97,0,0,0,.432-.288.758.758,0,0,0,.167-.53.629.629,0,0,0-.045-.242,1.112,1.112,0,0,0-.091-.189.486.486,0,0,0-.167-.159,1.456,1.456,0,0,0-.47-.235l-.28-.1-.326-.091-.333-.1c-.242-.076-.447-.144-.606-.212a2.774,2.774,0,0,1-.492-.28,1.128,1.128,0,0,1-.379-.462,1.561,1.561,0,0,1-.129-.651,1.515,1.515,0,0,1,.288-.924,1.575,1.575,0,0,1,.757-.553,2.908,2.908,0,0,1,1.03-.167,2.53,2.53,0,0,1,1.416.379,1.621,1.621,0,0,1,.712,1.136l-.841.212a1.136,1.136,0,0,0-.447-.757,1.394,1.394,0,0,0-.833-.25,1.447,1.447,0,0,0-.757.2.689.689,0,0,0-.326.629.644.644,0,0,0,.083.318.757.757,0,0,0,.492.4,3.238,3.238,0,0,0,.348.129l.424.106h.091l.56.159a4.053,4.053,0,0,1,.5.212,1.839,1.839,0,0,1,.454.318,1.589,1.589,0,0,1,.4,1.075,1.75,1.75,0,0,1-.174.757,1.425,1.425,0,0,1-.477.538,2.274,2.274,0,0,1-.674.288A3.144,3.144,0,0,1,448.655,160.438Z" transform="translate(-436.667 -151.994)"/>
    <path id="Trazado_102975" data-name="Trazado 102975" d="M459.3,157.312v.28h-4.544a2.037,2.037,0,0,0,.553,1.515,1.817,1.817,0,0,0,1.325.523,1.765,1.765,0,0,0,.962-.28,1.8,1.8,0,0,0,.667-.757l.924.2a2.673,2.673,0,0,1-.992,1.25,2.719,2.719,0,0,1-1.515.454,2.825,2.825,0,0,1-2.1-.81,3.461,3.461,0,0,1,0-4.423,2.771,2.771,0,0,1,2.06-.81,2.62,2.62,0,0,1,1.954.757A2.939,2.939,0,0,1,459.3,157.312Zm-2.688-2.12a1.787,1.787,0,0,0-1.212.417,1.886,1.886,0,0,0-.613,1.2h3.484a1.7,1.7,0,0,0-.538-1.181A1.606,1.606,0,0,0,456.614,155.191Z" transform="translate(-438.476 -152.003)"/>
    <path id="Trazado_102976" data-name="Trazado 102976" d="M467.231,154.506h.992v5.521a3.158,3.158,0,0,1-.757,2.272,3.12,3.12,0,0,1-4.9-.985l.841-.417a1.931,1.931,0,0,0,1.946,1.348,1.659,1.659,0,0,0,1.363-.568,2.4,2.4,0,0,0,.477-1.59v-1.075a2.067,2.067,0,0,1-.833.841,2.552,2.552,0,0,1-3.09-.507,3.12,3.12,0,0,1,0-4.127,2.514,2.514,0,0,1,1.893-.818,2.431,2.431,0,0,1,1.219.326,2.128,2.128,0,0,1,.818.863Zm-1.848,4.786a1.757,1.757,0,0,0,1.34-.6,2.12,2.12,0,0,0,0-2.848,1.825,1.825,0,0,0-2.681,0,2.022,2.022,0,0,0-.553,1.446,2.044,2.044,0,0,0,.553,1.439A1.8,1.8,0,0,0,465.383,159.292Z" transform="translate(-440.589 -151.992)"/>
    <path id="Trazado_102977" data-name="Trazado 102977" d="M476.421,154.535h1.06v5.816H476.5v-.757a1.863,1.863,0,0,1-.719.651,2.271,2.271,0,0,1-1.022.227,2.029,2.029,0,0,1-1.462-.523,1.984,1.984,0,0,1-.545-1.515V154.52h.947v3.688a1.386,1.386,0,0,0,.356,1.037,1.257,1.257,0,0,0,.916.348,1.4,1.4,0,0,0,1.03-.4,1.674,1.674,0,0,0,.409-1.189Z" transform="translate(-443.077 -152.021)"/>
    <path id="Trazado_102978" data-name="Trazado 102978" d="M482.685,155.55a1.772,1.772,0,0,1,.757-.757,2.181,2.181,0,0,1,1.121-.3v.962a1.931,1.931,0,0,0-1.356.432,1.8,1.8,0,0,0-.462,1.378v3.1H481.7v-5.816h.985Z" transform="translate(-445.251 -152.014)"/>
    <path id="Trazado_102979" data-name="Trazado 102979" d="M489.222,160.433a3.03,3.03,0,0,1-1.515-.364,2.559,2.559,0,0,1-1.053-1.053,3.249,3.249,0,0,1-.386-1.605,2.969,2.969,0,0,1,.826-2.2,2.855,2.855,0,0,1,2.1-.825,2.886,2.886,0,0,1,2.113.825,3.029,3.029,0,0,1,.818,2.2,2.961,2.961,0,0,1-.826,2.2A2.833,2.833,0,0,1,489.222,160.433Zm0-.848a1.787,1.787,0,0,0,1.371-.6,2.272,2.272,0,0,0,.553-1.575,2.226,2.226,0,0,0-.553-1.568,1.765,1.765,0,0,0-1.371-.6,1.734,1.734,0,0,0-1.363.6,2.219,2.219,0,0,0-.545,1.568,2.272,2.272,0,0,0,.545,1.575A1.765,1.765,0,0,0,489.222,159.585Z" transform="translate(-446.359 -151.989)"/>
    <path id="Trazado_102980" data-name="Trazado 102980" d="M433.58,178.75v-8.33h2.688a4.029,4.029,0,0,1,2.12.538,3.355,3.355,0,0,1,1.3,1.469,5.141,5.141,0,0,1,.424,2.151,5.378,5.378,0,0,1-.25,1.689,3.7,3.7,0,0,1-.72,1.318,3.18,3.18,0,0,1-1.212.863,4.27,4.27,0,0,1-1.666.3Zm1.06-.962h1.59a2.552,2.552,0,0,0,2.083-.856,3.62,3.62,0,0,0,.7-2.355,3.567,3.567,0,0,0-.7-2.34,2.53,2.53,0,0,0-2.075-.848h-1.575Z" transform="translate(-433.572 -155.879)"/>
    <path id="Trazado_102981" data-name="Trazado 102981" d="M449.509,176.5v.28h-4.544a2.037,2.037,0,0,0,.553,1.515,1.817,1.817,0,0,0,1.325.523,1.765,1.765,0,0,0,.962-.28,1.8,1.8,0,0,0,.666-.757l.924.2a2.636,2.636,0,0,1-1,1.25,2.681,2.681,0,0,1-1.515.454,2.825,2.825,0,0,1-2.136-.856,3.476,3.476,0,0,1,0-4.423,2.8,2.8,0,0,1,2.067-.81,2.62,2.62,0,0,1,1.954.757,2.938,2.938,0,0,1,.742,2.151Zm-2.688-2.12a1.787,1.787,0,0,0-1.212.417,1.885,1.885,0,0,0-.613,1.2h3.484a1.7,1.7,0,0,0-.507-1.2,1.621,1.621,0,0,0-1.151-.417Z" transform="translate(-436.089 -156.648)"/>
    <path id="Trazado_102982" data-name="Trazado 102982" d="M456.487,173.59a2.6,2.6,0,0,1,1.053.22,2.545,2.545,0,0,1,.863.591,2.771,2.771,0,0,1,.583.962,3.568,3.568,0,0,1,.22,1.257,3.029,3.029,0,0,1-.757,2.189,2.537,2.537,0,0,1-1.931.841,2.272,2.272,0,0,1-1.212-.333,2.2,2.2,0,0,1-.833-.894v4.029H453.45V173.7h.984v1.128a2.128,2.128,0,0,1,.833-.9A2.272,2.272,0,0,1,456.487,173.59Zm-.2,5.165a1.772,1.772,0,0,0,1.348-.583,2.484,2.484,0,0,0,0-3.1,1.772,1.772,0,0,0-1.348-.583,1.8,1.8,0,0,0-1.371.606,2.393,2.393,0,0,0,0,3.029,1.764,1.764,0,0,0,1.371.636Z" transform="translate(-438.395 -156.649)"/>
    <path id="Trazado_102983" data-name="Trazado 102983" d="M464.189,174.75a1.75,1.75,0,0,1,.757-.757,2.151,2.151,0,0,1,1.113-.3v.962a1.909,1.909,0,0,0-1.348.432,1.8,1.8,0,0,0-.469,1.378v3.1H463.22v-5.816h1Z" transform="translate(-440.766 -156.673)"/>
    <path id="Trazado_102984" data-name="Trazado 102984" d="M473.365,176.512v.28h-4.544a2.037,2.037,0,0,0,.553,1.515,1.886,1.886,0,0,0,2.272.242,1.779,1.779,0,0,0,.659-.757l.924.2a2.628,2.628,0,0,1-.992,1.25,2.718,2.718,0,0,1-1.515.454,2.825,2.825,0,0,1-2.1-.81,3.461,3.461,0,0,1,0-4.423,2.772,2.772,0,0,1,2.06-.81,2.621,2.621,0,0,1,1.954.757A2.938,2.938,0,0,1,473.365,176.512Zm-2.688-2.12a1.787,1.787,0,0,0-1.212.417,1.885,1.885,0,0,0-.613,1.2h3.484a1.7,1.7,0,0,0-.507-1.2,1.605,1.605,0,0,0-1.151-.417Z" transform="translate(-441.883 -156.663)"/>
    <path id="Trazado_102985" data-name="Trazado 102985" d="M478.945,179.638a2.749,2.749,0,0,1-1.568-.417,1.749,1.749,0,0,1-.757-1.2l.894-.257a1.227,1.227,0,0,0,.477.81,1.568,1.568,0,0,0,.954.288,2.135,2.135,0,0,0,.56-.076.97.97,0,0,0,.432-.288.757.757,0,0,0,.167-.53.625.625,0,0,0-.045-.242,1.5,1.5,0,0,0-.091-.189.484.484,0,0,0-.167-.159,1.457,1.457,0,0,0-.469-.235l-.28-.1-.326-.091-.333-.1a5.947,5.947,0,0,1-.606-.212,2.771,2.771,0,0,1-.492-.28,1.128,1.128,0,0,1-.379-.462,1.561,1.561,0,0,1-.129-.651,1.514,1.514,0,0,1,.288-.924,1.575,1.575,0,0,1,.757-.553,2.909,2.909,0,0,1,1.03-.167,2.544,2.544,0,0,1,1.416.379,1.621,1.621,0,0,1,.712,1.136l-.841.212a1.113,1.113,0,0,0-.447-.757,1.394,1.394,0,0,0-.833-.25,1.423,1.423,0,0,0-.757.2.689.689,0,0,0-.326.629.642.642,0,0,0,.083.318.988.988,0,0,0,.174.227,1.135,1.135,0,0,0,.318.182l.348.121.424.106h.091l.56.159a4.061,4.061,0,0,1,.5.212,1.842,1.842,0,0,1,.454.318,1.589,1.589,0,0,1,.4,1.075,1.749,1.749,0,0,1-.174.757,1.516,1.516,0,0,1-.477.538,2.271,2.271,0,0,1-.682.288A3.028,3.028,0,0,1,478.945,179.638Z" transform="translate(-444.018 -156.653)"/>
    <path id="Trazado_102986" data-name="Trazado 102986" d="M485.109,171.5a.659.659,0,0,1-.485-.2.674.674,0,0,1-.2-.492.659.659,0,0,1,.2-.485.7.7,0,0,1,.969,0,.659.659,0,0,1,.2.485.674.674,0,0,1-.2.492.659.659,0,0,1-.485.2Zm-.523,7.179v-5.816h1.03v5.816Z" transform="translate(-445.911 -155.807)"/>
    <path id="Trazado_102987" data-name="Trazado 102987" d="M492.1,173.74h1.106l-2.37,5.816h-.871l-2.355-5.816h1.053l1.7,4.627Z" transform="translate(-446.685 -156.685)"/>
    <path id="Trazado_102988" data-name="Trazado 102988" d="M498.572,179.633a3.029,3.029,0,0,1-1.515-.363,2.606,2.606,0,0,1-1.053-1.053,3.249,3.249,0,0,1-.386-1.605,2.969,2.969,0,0,1,.825-2.2,3.1,3.1,0,0,1,4.211,0,3.332,3.332,0,0,1,0,4.392,2.855,2.855,0,0,1-2.083.826Zm0-.848a1.818,1.818,0,0,0,1.378-.6,2.272,2.272,0,0,0,.545-1.575,2.218,2.218,0,0,0-.545-1.568,1.787,1.787,0,0,0-1.378-.6,1.757,1.757,0,0,0-1.363.6,2.219,2.219,0,0,0-.545,1.568,2.272,2.272,0,0,0,.545,1.575,1.787,1.787,0,0,0,1.355.6Z" transform="translate(-448.628 -156.649)"/>
    <path id="Trazado_102989" data-name="Trazado 102989" d="M433.58,197.95v-8.33h1.075v8.33Z" transform="translate(-433.572 -160.539)"/>
    <path id="Trazado_102990" data-name="Trazado 102990" d="M440.827,192.789a2.037,2.037,0,0,1,1.462.53,1.969,1.969,0,0,1,.545,1.515v3.915H441.8v-3.681a1.393,1.393,0,0,0-.356-1.045,1.25,1.25,0,0,0-.909-.333,1.416,1.416,0,0,0-1.037.394,1.658,1.658,0,0,0-.409,1.189v3.476H438.07v-5.816h1.022v.757A1.939,1.939,0,0,1,440.827,192.789Z" transform="translate(-434.662 -161.308)"/>
    <path id="Trazado_102991" data-name="Trazado 102991" d="M451.923,195.712v.28h-4.544a2.037,2.037,0,0,0,.56,1.515,1.817,1.817,0,0,0,1.325.523,1.764,1.764,0,0,0,.962-.28,1.893,1.893,0,0,0,.666-.757l.924.2a2.636,2.636,0,0,1-1,1.25,2.718,2.718,0,0,1-1.514.454,2.81,2.81,0,0,1-2.09-.81,3.446,3.446,0,0,1,0-4.423,2.8,2.8,0,0,1,2.067-.81,2.62,2.62,0,0,1,1.954.757A2.946,2.946,0,0,1,451.923,195.712Zm-2.688-2.12a1.787,1.787,0,0,0-1.212.417,1.885,1.885,0,0,0-.613,1.2h3.484a1.734,1.734,0,0,0-.507-1.2A1.628,1.628,0,0,0,449.235,193.591Z" transform="translate(-436.686 -161.322)"/>
    <path id="Trazado_102992" data-name="Trazado 102992" d="M454.42,198.756l2.234-2.908-2.234-2.908h1.257l1.613,2.227,1.605-2.227h1.265l-2.272,2.908,2.272,2.908h-1.25l-1.6-2.211-1.613,2.211Z" transform="translate(-438.63 -161.345)"/>
    <path id="Trazado_102993" data-name="Trazado 102993" d="M466.717,192.79a2.621,2.621,0,0,1,1.053.22,2.545,2.545,0,0,1,.863.591,2.817,2.817,0,0,1,.583.962,3.567,3.567,0,0,1,.22,1.257,3.1,3.1,0,0,1-.757,2.2,2.552,2.552,0,0,1-1.931.833,2.34,2.34,0,0,1-1.219-.333,2.181,2.181,0,0,1-.825-.894v4.029H463.68V192.9h.984v1.136a2.128,2.128,0,0,1,.825-.909A2.31,2.31,0,0,1,466.717,192.79Zm-.2,5.165a1.749,1.749,0,0,0,1.348-.583,2.484,2.484,0,0,0,0-3.1,1.749,1.749,0,0,0-1.348-.583,1.787,1.787,0,0,0-1.363.606,2.393,2.393,0,0,0,0,3.029A1.765,1.765,0,0,0,466.512,197.955Z" transform="translate(-440.877 -161.309)"/>
    <path id="Trazado_102994" data-name="Trazado 102994" d="M474.41,193.95a1.772,1.772,0,0,1,.719-.757,2.181,2.181,0,0,1,1.121-.3v.962a1.931,1.931,0,0,0-1.356.432,1.8,1.8,0,0,0-.462,1.378v3.1H473.41v-5.816h1Z" transform="translate(-443.239 -161.333)"/>
    <path id="Trazado_102995" data-name="Trazado 102995" d="M483.6,195.712v.28h-4.544a2.037,2.037,0,0,0,.56,1.515,1.818,1.818,0,0,0,1.325.523,1.765,1.765,0,0,0,.962-.28,1.894,1.894,0,0,0,.667-.757l.924.2a2.636,2.636,0,0,1-1,1.25,2.718,2.718,0,0,1-1.514.454,2.81,2.81,0,0,1-2.09-.81,3.446,3.446,0,0,1,0-4.423,2.8,2.8,0,0,1,2.06-.81,2.628,2.628,0,0,1,1.961.757A2.946,2.946,0,0,1,483.6,195.712Zm-2.7-2.12a1.78,1.78,0,0,0-1.2.417,1.885,1.885,0,0,0-.613,1.2h3.476a1.735,1.735,0,0,0-.507-1.2,1.636,1.636,0,0,0-1.151-.417Z" transform="translate(-444.374 -161.322)"/>
    <path id="Trazado_102996" data-name="Trazado 102996" d="M489.175,198.838a2.749,2.749,0,0,1-1.568-.417,1.727,1.727,0,0,1-.757-1.2l.894-.257a1.226,1.226,0,0,0,.477.81,1.514,1.514,0,0,0,.954.288,2.137,2.137,0,0,0,.56-.076.91.91,0,0,0,.424-.288.757.757,0,0,0,.174-.53,1.149,1.149,0,0,0-.045-.242.891.891,0,0,0-.1-.189.424.424,0,0,0-.167-.159,1.725,1.725,0,0,0-.2-.129l-.265-.106-.28-.1-.326-.091-.341-.1c-.242-.076-.439-.144-.6-.212a2.53,2.53,0,0,1-.492-.28,1.068,1.068,0,0,1-.379-.462,1.447,1.447,0,0,1-.129-.651,1.515,1.515,0,0,1,.28-.924,1.612,1.612,0,0,1,.757-.553,2.952,2.952,0,0,1,1.038-.167,2.545,2.545,0,0,1,1.416.379,1.59,1.59,0,0,1,.7,1.136l-.841.212a1.106,1.106,0,0,0-.439-.757,1.409,1.409,0,0,0-.833-.25,1.454,1.454,0,0,0-.757.2.7.7,0,0,0-.326.629.576.576,0,0,0,.091.318.812.812,0,0,0,.174.227,1.135,1.135,0,0,0,.318.182l.341.121.432.106h.083c.235.053.417.106.56.151a4.65,4.65,0,0,1,.507.212,1.651,1.651,0,0,1,.447.318,1.463,1.463,0,0,1,.288.454,1.622,1.622,0,0,1,.114.621,1.651,1.651,0,0,1-.174.757,1.408,1.408,0,0,1-.47.538,2.269,2.269,0,0,1-.682.288A3.092,3.092,0,0,1,489.175,198.838Z" transform="translate(-446.501 -161.313)"/>
    <path id="Trazado_102997" data-name="Trazado 102997" d="M495.337,190.7a.7.7,0,0,1-.7-.7.659.659,0,0,1,.2-.485.7.7,0,0,1,.492-.2.674.674,0,0,1,.477.2.659.659,0,0,1,.2.485.674.674,0,0,1-.2.492A.652.652,0,0,1,495.337,190.7Zm-.522,7.179v-5.816h1.03v5.816Z" transform="translate(-448.391 -160.467)"/>
    <path id="Trazado_102998" data-name="Trazado 102998" d="M502.328,192.94h1.091l-2.363,5.816h-.871l-2.355-5.816h1.09l1.7,4.627Z" transform="translate(-449.165 -161.345)"/>
    <path id="Trazado_102999" data-name="Trazado 102999" d="M508.792,198.833a3.03,3.03,0,0,1-1.515-.364,2.56,2.56,0,0,1-1.053-1.053,3.249,3.249,0,0,1-.386-1.606,2.969,2.969,0,0,1,.825-2.2,2.855,2.855,0,0,1,2.1-.825,2.885,2.885,0,0,1,2.113.825,3.03,3.03,0,0,1,.818,2.2,2.961,2.961,0,0,1-.826,2.2,2.832,2.832,0,0,1-2.075.825Zm0-.848a1.787,1.787,0,0,0,1.371-.6,2.272,2.272,0,0,0,.553-1.575,2.227,2.227,0,0,0-.553-1.568,1.765,1.765,0,0,0-1.371-.6,1.734,1.734,0,0,0-1.363.6,2.218,2.218,0,0,0-.545,1.568,2.272,2.272,0,0,0,.545,1.575A1.765,1.765,0,0,0,508.792,197.985Z" transform="translate(-451.108 -161.308)"/>
    <path id="Trazado_103000" data-name="Trazado 103000" d="M438.046,209.8h-3.393v2.726h3.029v.984h-3.029v2.726h3.385v.962H433.57v-8.33h4.468Z" transform="translate(-433.57 -165.211)"/>
    <path id="Trazado_103001" data-name="Trazado 103001" d="M443.495,218.068a2.749,2.749,0,0,1-1.568-.416,1.727,1.727,0,0,1-.757-1.2l.894-.257a1.226,1.226,0,0,0,.477.81,1.515,1.515,0,0,0,.954.288,2.135,2.135,0,0,0,.56-.076.908.908,0,0,0,.424-.288.757.757,0,0,0,.174-.53,1.154,1.154,0,0,0-.045-.242,1.1,1.1,0,0,0-.1-.189.425.425,0,0,0-.167-.159,1.72,1.72,0,0,0-.2-.129,2.1,2.1,0,0,0-.265-.106l-.28-.1-.326-.091-.341-.1c-.242-.076-.439-.144-.6-.212a2.53,2.53,0,0,1-.492-.28,1.129,1.129,0,0,1-.379-.462,1.449,1.449,0,0,1-.129-.651,1.515,1.515,0,0,1,.28-.931,1.629,1.629,0,0,1,.757-.545,2.877,2.877,0,0,1,1.03-.167,2.544,2.544,0,0,1,1.416.379,1.59,1.59,0,0,1,.7,1.136l-.841.212a1.106,1.106,0,0,0-.439-.757,1.409,1.409,0,0,0-.833-.25,1.454,1.454,0,0,0-.757.2.7.7,0,0,0-.318.629.575.575,0,0,0,.083.318.811.811,0,0,0,.174.227.985.985,0,0,0,.318.174,2.728,2.728,0,0,0,.341.129l.432.106h.083l.56.159a4.664,4.664,0,0,1,.507.212,1.65,1.65,0,0,1,.447.318,1.516,1.516,0,0,1,.288.447,1.688,1.688,0,0,1,.114.629,1.651,1.651,0,0,1-.174.757,1.333,1.333,0,0,1-.47.53,2.121,2.121,0,0,1-.682.3A3.091,3.091,0,0,1,443.495,218.068Z" transform="translate(-435.414 -165.98)"/>
    <path id="Trazado_103002" data-name="Trazado 103002" d="M450.757,217.335a1.514,1.514,0,0,1-1.136-.417,1.59,1.59,0,0,1-.409-1.159v-3.423H448v-.818h.432a.841.841,0,0,0,.644-.2.978.978,0,0,0,.189-.682V209.58h1.007v1.939H451.6v.818h-1.333v3.317a.856.856,0,0,0,.22.636.757.757,0,0,0,.583.227h.53v.818Z" transform="translate(-437.072 -165.383)"/>
    <path id="Trazado_103003" data-name="Trazado 103003" d="M455.781,218.07a1.984,1.984,0,0,1-1.272-.4,1.424,1.424,0,0,1-.5-1.189,1.726,1.726,0,0,1,.159-.757,1.318,1.318,0,0,1,.477-.523,2.587,2.587,0,0,1,.682-.333,6.971,6.971,0,0,1,.886-.212l.939-.151c.341-.061.515-.242.515-.538a1.008,1.008,0,0,0-.363-.863,1.462,1.462,0,0,0-.924-.28,1.515,1.515,0,0,0-.909.265,1.143,1.143,0,0,0-.432.818l-.924-.2a1.818,1.818,0,0,1,.757-1.242,2.726,2.726,0,0,1,1.59-.416,3.269,3.269,0,0,1,.841.106,2.268,2.268,0,0,1,.7.326,1.469,1.469,0,0,1,.5.621,2.34,2.34,0,0,1,.182.962v2.4a.977.977,0,0,0,.136.606.561.561,0,0,0,.454.159h.1v.757h-.507c-.629,0-1-.257-1.106-.757h-.045A2.2,2.2,0,0,1,455.781,218.07Zm.242-.825a1.515,1.515,0,0,0,1.242-.568,2.271,2.271,0,0,0,.477-1.515l-1.515.3a2.029,2.029,0,0,0-.9.326.847.847,0,0,0-.015,1.272,1.174,1.174,0,0,0,.712.167Z" transform="translate(-438.529 -165.982)"/>
    <path id="Trazado_103004" data-name="Trazado 103004" d="M465.719,212a2.022,2.022,0,0,1,1.462.53,1.969,1.969,0,0,1,.545,1.515v3.915H466.7v-3.688a1.355,1.355,0,0,0-.356-1.037,1.25,1.25,0,0,0-.909-.341,1.424,1.424,0,0,0-1.038.4,1.659,1.659,0,0,0-.409,1.189v3.476H463v-5.816h1.022v.757A1.954,1.954,0,0,1,465.719,212Z" transform="translate(-440.712 -165.97)"/>
    <path id="Trazado_103005" data-name="Trazado 103005" d="M474.07,218.065a2.787,2.787,0,0,1-2.083-.833,3.317,3.317,0,0,1,0-4.362,3.029,3.029,0,0,1,3.786-.326,2.575,2.575,0,0,1,.984,1.409l-.962.159a1.742,1.742,0,0,0-.659-.909,1.788,1.788,0,0,0-1.053-.318,1.689,1.689,0,0,0-1.34.6,2.575,2.575,0,0,0,0,3.128,1.688,1.688,0,0,0,1.34.6,1.787,1.787,0,0,0,1.053-.318,1.742,1.742,0,0,0,.659-.909l.962.159a2.589,2.589,0,0,1-.984,1.416A2.833,2.833,0,0,1,474.07,218.065Z" transform="translate(-442.695 -165.978)"/>
    <path id="Trazado_103006" data-name="Trazado 103006" d="M481.751,218.07a1.984,1.984,0,0,1-1.272-.4,1.424,1.424,0,0,1-.5-1.189,1.727,1.727,0,0,1,.159-.757,1.347,1.347,0,0,1,.47-.523,2.761,2.761,0,0,1,.689-.333,6.973,6.973,0,0,1,.886-.212l.939-.151c.341-.061.515-.242.515-.538a1.007,1.007,0,0,0-.364-.863,1.462,1.462,0,0,0-.924-.28,1.515,1.515,0,0,0-.909.265,1.144,1.144,0,0,0-.432.818l-.924-.2a1.764,1.764,0,0,1,.757-1.242,2.7,2.7,0,0,1,1.583-.417,3.294,3.294,0,0,1,.848.106,2.272,2.272,0,0,1,.7.326,1.47,1.47,0,0,1,.5.621,2.338,2.338,0,0,1,.182.962v2.4a.976.976,0,0,0,.136.606.553.553,0,0,0,.454.159h.046v.757h-.515a.969.969,0,0,1-1.1-.757h-.045A2.211,2.211,0,0,1,481.751,218.07Zm.242-.825a1.515,1.515,0,0,0,1.242-.568,2.272,2.272,0,0,0,.477-1.515l-1.515.3a1.991,1.991,0,0,0-.9.326.847.847,0,0,0-.015,1.272,1.174,1.174,0,0,0,.712.167Z" transform="translate(-444.832 -165.982)"/>
    <path id="Trazado_103007" data-name="Trazado 103007" d="M492.927,207.82h1.022v9.088h-.992v-1.128a2.143,2.143,0,0,1-.826.916,2.272,2.272,0,0,1-1.234.341,2.62,2.62,0,0,1-1.053-.22,2.552,2.552,0,0,1-.863-.606,2.7,2.7,0,0,1-.583-.962,3.477,3.477,0,0,1-.22-1.242,3.082,3.082,0,0,1,.757-2.189,2.559,2.559,0,0,1,1.931-.841,2.317,2.317,0,0,1,1.219.333,2.181,2.181,0,0,1,.833.886Zm-1.833,8.33a1.757,1.757,0,0,0,1.348-.606,2.416,2.416,0,0,0,0-3.029,1.75,1.75,0,0,0-1.348-.613,1.779,1.779,0,0,0-1.363.591,2.189,2.189,0,0,0-.553,1.553,2.158,2.158,0,0,0,.553,1.515,1.78,1.78,0,0,0,1.34.583Z" transform="translate(-446.822 -164.956)"/>
    <path id="Trazado_103008" data-name="Trazado 103008" d="M500.835,218.064a3.029,3.029,0,0,1-1.515-.363,2.59,2.59,0,0,1-1.045-1.053,3.249,3.249,0,0,1-.386-1.605,2.962,2.962,0,0,1,.826-2.2,3.09,3.09,0,0,1,4.2,0,3.332,3.332,0,0,1,0,4.392A2.84,2.84,0,0,1,500.835,218.064Zm0-.848a1.8,1.8,0,0,0,1.371-.6,2.537,2.537,0,0,0,0-3.143,1.772,1.772,0,0,0-1.371-.6,1.734,1.734,0,0,0-1.363.6,2.537,2.537,0,0,0,0,3.143,1.765,1.765,0,0,0,1.363.576Z" transform="translate(-449.179 -165.976)"/>
    <path id="Trazado_103009" data-name="Trazado 103009" d="M433.58,236.33V228h1.075v8.33Z" transform="translate(-433.572 -169.854)"/>
    <path id="Trazado_103010" data-name="Trazado 103010" d="M440.827,231.189a2.037,2.037,0,0,1,1.462.53,1.969,1.969,0,0,1,.545,1.515v3.87H441.8v-3.688a1.378,1.378,0,0,0-.356-1.038,1.249,1.249,0,0,0-.909-.341,1.424,1.424,0,0,0-1.037.4,1.658,1.658,0,0,0-.409,1.189V237.1H438.07v-5.816h1.022v.757A1.939,1.939,0,0,1,440.827,231.189Z" transform="translate(-434.662 -170.627)"/>
    <path id="Trazado_103011" data-name="Trazado 103011" d="M451.923,234.082v.28h-4.544a2.037,2.037,0,0,0,.56,1.515,1.817,1.817,0,0,0,1.325.523,1.765,1.765,0,0,0,.962-.28,1.848,1.848,0,0,0,.667-.757l.924.2a2.635,2.635,0,0,1-1,1.25,2.718,2.718,0,0,1-1.514.454,2.81,2.81,0,0,1-2.09-.81,3.446,3.446,0,0,1,0-4.423,2.8,2.8,0,0,1,2.067-.81,2.62,2.62,0,0,1,1.954.757,2.923,2.923,0,0,1,.689,2.105Zm-2.688-2.12a1.787,1.787,0,0,0-1.212.417,1.886,1.886,0,0,0-.613,1.2h3.484a1.734,1.734,0,0,0-.507-1.2,1.628,1.628,0,0,0-1.151-.394Z" transform="translate(-436.686 -170.635)"/>
    <path id="Trazado_103012" data-name="Trazado 103012" d="M456.81,232.35a1.772,1.772,0,0,1,.719-.757,2.181,2.181,0,0,1,1.121-.3v.962a1.931,1.931,0,0,0-1.356.432,1.8,1.8,0,0,0-.462,1.378v3.067H455.81v-5.816h1Z" transform="translate(-438.967 -170.652)"/>
    <path id="Trazado_103013" data-name="Trazado 103013" d="M463.121,236.515a1.515,1.515,0,0,1-1.136-.417,1.6,1.6,0,0,1-.417-1.159v-3.423H460.38V230.7h.47a.84.84,0,0,0,.644-.2,1.014,1.014,0,0,0,.189-.682V228.76h.947V230.7h1.34v.818h-1.34v3.317a.863.863,0,0,0,.227.636.757.757,0,0,0,.583.227h.53v.818Z" transform="translate(-440.077 -170.038)"/>
    <path id="Trazado_103014" data-name="Trazado 103014" d="M471.933,234.077v.28h-4.544a2.037,2.037,0,0,0,.56,1.515,1.818,1.818,0,0,0,1.325.523,1.757,1.757,0,0,0,1.621-1.053l.924.2a2.582,2.582,0,0,1-.992,1.25,2.718,2.718,0,0,1-1.514.454,2.81,2.81,0,0,1-2.09-.81,3.446,3.446,0,0,1,0-4.423,2.787,2.787,0,0,1,2.06-.81,2.628,2.628,0,0,1,1.961.757A2.953,2.953,0,0,1,471.933,234.077Zm-2.7-2.12a1.78,1.78,0,0,0-1.2.417,1.886,1.886,0,0,0-.613,1.2H470.9a1.734,1.734,0,0,0-.507-1.2,1.636,1.636,0,0,0-1.159-.394Z" transform="translate(-441.542 -170.63)"/>
  </g>
  <g id="Grupo_57738" data-name="Grupo 57738" transform="translate(328.127 88.287)">
    <path id="Trazado_103015" data-name="Trazado 103015" d="M439.126,117.11h1.765v8.55h-2.052l-3.787-6.111v6.111H433.28v-8.55h2.06l3.787,6.058Z" transform="translate(-433.28 -116.709)"/>
    <path id="Trazado_103016" data-name="Trazado 103016" d="M451.493,123.278v.409H446.95a1.56,1.56,0,0,0,.485,1.113,1.689,1.689,0,0,0,1.87.174,1.325,1.325,0,0,0,.515-.613l1.56.227a2.658,2.658,0,0,1-1.068,1.431,3.143,3.143,0,0,1-1.795.507,3.287,3.287,0,0,1-2.37-.841,3.029,3.029,0,0,1-.879-2.317,3.1,3.1,0,0,1,.879-2.325,3.2,3.2,0,0,1,2.317-.848,2.779,2.779,0,0,1,3.029,3.082Zm-3.029-1.878a1.348,1.348,0,0,0-1.477,1.174h2.795a1.28,1.28,0,0,0-.424-.871,1.34,1.34,0,0,0-.863-.3Z" transform="translate(-436.188 -117.455)"/>
    <path id="Trazado_103017" data-name="Trazado 103017" d="M459.221,120.324h1.621v5.627a4.547,4.547,0,0,1-.227,1.515,2.446,2.446,0,0,1-.659,1.037,2.764,2.764,0,0,1-1.015.583,4.18,4.18,0,0,1-1.325.189,3,3,0,0,1-3.135-1.886l1.416-.606a2.053,2.053,0,0,0,.651.886,1.673,1.673,0,0,0,1,.28c1.053,0,1.583-.621,1.583-1.878v-.727a1.916,1.916,0,0,1-.757.6,2.568,2.568,0,0,1-1.083.227,2.711,2.711,0,0,1-1.068-.212,2.839,2.839,0,0,1-.886-.606,2.884,2.884,0,0,1-.6-.954,3.582,3.582,0,0,1,0-2.469,2.72,2.72,0,0,1,.606-.939,2.53,2.53,0,0,1,.886-.591,2.733,2.733,0,0,1,1.075-.22,2.5,2.5,0,0,1,1.128.257,1.749,1.749,0,0,1,.757.666Zm-2.613,4.021a1.469,1.469,0,0,0,1.113.47,1.515,1.515,0,0,0,1.121-.47,1.7,1.7,0,0,0,0-2.317,1.583,1.583,0,0,0-2.272,0,1.621,1.621,0,0,0-.447,1.166,1.59,1.59,0,0,0,.485,1.151Z" transform="translate(-438.425 -117.454)"/>
    <path id="Trazado_103018" data-name="Trazado 103018" d="M470.062,124.77a5.688,5.688,0,0,0,.144,1.515v.167h-1.59l-.136-.659a1.961,1.961,0,0,1-.848.583,3.2,3.2,0,0,1-1.1.2,3.3,3.3,0,0,1-.568-.053,2.084,2.084,0,0,1-.515-.182,1.515,1.515,0,0,1-.424-.318,1.259,1.259,0,0,1-.28-.485,1.773,1.773,0,0,1-.106-.659,1.825,1.825,0,0,1,.106-.659,1.574,1.574,0,0,1,.3-.492,1.884,1.884,0,0,1,.485-.364,3.786,3.786,0,0,1,.6-.257,7.085,7.085,0,0,1,.757-.189l1-.227a1.076,1.076,0,0,0,.454-.189.4.4,0,0,0,.129-.3.644.644,0,0,0-.3-.591,1.515,1.515,0,0,0-.757-.174,1.045,1.045,0,0,0-1.189.931l-1.515-.273a2.045,2.045,0,0,1,.878-1.393,3.521,3.521,0,0,1,1.908-.447q2.56,0,2.56,2.2Zm-3.029.613a1.363,1.363,0,0,0,1.053-.439,1.84,1.84,0,0,0,.409-1.3l-1.446.409a1.621,1.621,0,0,0-.606.25.515.515,0,0,0-.212.439.561.561,0,0,0,.227.477.924.924,0,0,0,.606.144Z" transform="translate(-440.891 -117.469)"/>
    <path id="Trazado_103019" data-name="Trazado 103019" d="M475.892,125.823a1.81,1.81,0,0,1-1.371-.492,1.908,1.908,0,0,1-.485-1.409v-2.87h-1.2v-1.31h.386a1,1,0,0,0,.757-.257,1.31,1.31,0,0,0,.242-.9v-.8h1.515v1.961h1.25v1.31h-1.227v2.688c0,.53.235.757.7.757h.545v1.3Z" transform="translate(-442.881 -116.871)"/>
    <path id="Trazado_103020" data-name="Trazado 103020" d="M480.924,118.541a.977.977,0,0,1-.7-.288.954.954,0,0,1-.288-.7.932.932,0,0,1,.3-.689.977.977,0,1,1,1.378,1.386A.947.947,0,0,1,480.924,118.541Zm-.863,6.99v-6.058h1.712v6.058Z" transform="translate(-444.604 -116.58)"/>
    <path id="Trazado_103021" data-name="Trazado 103021" d="M488.362,120.37h1.8l-2.59,6.058H486.06l-2.56-6.058h1.795l1.515,4.158Z" transform="translate(-445.468 -117.5)"/>
    <path id="Trazado_103022" data-name="Trazado 103022" d="M495.832,126.546a3.9,3.9,0,0,1-1.719-.371,2.8,2.8,0,0,1-1.182-1.1,3.226,3.226,0,0,1-.432-1.7,3.029,3.029,0,0,1,.924-2.272,3.855,3.855,0,0,1,4.824,0,3.362,3.362,0,0,1,0,4.627,3.423,3.423,0,0,1-2.416.81Zm0-1.356a1.568,1.568,0,0,0,1.2-.5,1.848,1.848,0,0,0,.454-1.31,1.886,1.886,0,0,0-.454-1.318,1.591,1.591,0,0,0-1.2-.492,1.515,1.515,0,0,0-1.174.5,2.143,2.143,0,0,0,0,2.62,1.515,1.515,0,0,0,1.159.5Z" transform="translate(-447.652 -117.473)"/>
  </g>
</svg>
