<svg xmlns="http://www.w3.org/2000/svg" width="1240" height="369.331" viewBox="0 0 1240 369.331">
  <g id="Grupo_57812" data-name="Grupo 57812" transform="translate(-180 -2213.789)">
    <path id="Trazado_100557" data-name="Trazado 100557" d="M25.875,62.468A36.594,36.594,0,0,0,62.469,25.875,36.357,36.357,0,0,0,51.75,0L40.844,10.906A21.17,21.17,0,1,1,10.906,40.845L0,51.75A36.351,36.351,0,0,0,25.875,62.468Z" transform="translate(579.172 2270.807) rotate(45)" fill="#f1bf5e"/>
    <ellipse id="Elipse_4393" data-name="Elipse 4393" cx="57.016" cy="57.016" rx="57.016" ry="57.016" transform="translate(354.638 2213.789)" fill="#8979f3"/>
    <ellipse id="Elipse_4394" data-name="Elipse 4394" cx="24.098" cy="24.875" rx="24.098" ry="24.875" transform="translate(502.805 2533.369)" fill="#05dbf3"/>
    <rect id="Rectángulo_5461" data-name="Rectángulo 5461" width="187.145" height="303.146" rx="10" transform="translate(398.855 2255.099)" fill="#fff"/>
    <path id="Trazado_101872" data-name="Trazado 101872" d="M.06,55.638,32.079.22a.439.439,0,0,1,.761,0L64.859,55.638a.439.439,0,0,1-.381.659H.44A.439.439,0,0,1,.06,55.638Z" transform="translate(1040.98 2583.119) rotate(180)" fill="#05dbf3"/>
    <text id="Círculo" transform="translate(437.678 2287.161)" fill="#12263f" font-size="18" font-family="Roboto-Black, Roboto" font-weight="800"><tspan x="0" y="19">Círculo</tspan></text>
    <g id="Grupo_57584" data-name="Grupo 57584" transform="translate(-91.322 -68.178)">
      <text id="Ternura_Inocencia_Alegría_Suavidad_Positivismo_Renovación_Jovialidad" data-name="Ternura
Inocencia 
Alegría
Suavidad 
Positivismo
Renovación
Jovialidad" transform="translate(551.5 2396)" fill="#12263f" font-size="16" font-family="Roboto-Regular, Roboto"><tspan x="0" y="17">Ternura</tspan><tspan x="0" y="47">Inocencia </tspan><tspan x="0" y="77">Alegría</tspan><tspan x="0" y="107">Suavidad </tspan><tspan x="0" y="137">Positivismo</tspan><tspan x="0" y="167">Renovación</tspan><tspan x="0" y="197">Jovialidad</tspan></text>
      <g id="Grupo_57582" data-name="Grupo 57582">
        <path id="dot-circle-regular" d="M12.25,8.823A3.427,3.427,0,1,1,8.823,12.25,3.426,3.426,0,0,1,12.25,8.823m0-.823a4.25,4.25,0,1,0,4.25,4.25A4.25,4.25,0,0,0,12.25,8Zm0,2.879a1.371,1.371,0,1,0,1.371,1.371A1.371,1.371,0,0,0,12.25,10.879Z" transform="translate(521 2393)" fill="#12263f"/>
        <path id="dot-circle-regular-2" data-name="dot-circle-regular" d="M12.25,8.823A3.427,3.427,0,1,1,8.823,12.25,3.426,3.426,0,0,1,12.25,8.823m0-.823a4.25,4.25,0,1,0,4.25,4.25A4.25,4.25,0,0,0,12.25,8Zm0,2.879a1.371,1.371,0,1,0,1.371,1.371A1.371,1.371,0,0,0,12.25,10.879Z" transform="translate(521 2423)" fill="#12263f"/>
        <path id="dot-circle-regular-3" data-name="dot-circle-regular" d="M12.25,8.823A3.427,3.427,0,1,1,8.823,12.25,3.426,3.426,0,0,1,12.25,8.823m0-.823a4.25,4.25,0,1,0,4.25,4.25A4.25,4.25,0,0,0,12.25,8Zm0,2.879a1.371,1.371,0,1,0,1.371,1.371A1.371,1.371,0,0,0,12.25,10.879Z" transform="translate(521 2453)" fill="#12263f"/>
        <path id="dot-circle-regular-4" data-name="dot-circle-regular" d="M12.25,8.823A3.427,3.427,0,1,1,8.823,12.25,3.426,3.426,0,0,1,12.25,8.823m0-.823a4.25,4.25,0,1,0,4.25,4.25A4.25,4.25,0,0,0,12.25,8Zm0,2.879a1.371,1.371,0,1,0,1.371,1.371A1.371,1.371,0,0,0,12.25,10.879Z" transform="translate(521 2483)" fill="#12263f"/>
        <path id="dot-circle-regular-5" data-name="dot-circle-regular" d="M12.25,8.823A3.427,3.427,0,1,1,8.823,12.25,3.426,3.426,0,0,1,12.25,8.823m0-.823a4.25,4.25,0,1,0,4.25,4.25A4.25,4.25,0,0,0,12.25,8Zm0,2.879a1.371,1.371,0,1,0,1.371,1.371A1.371,1.371,0,0,0,12.25,10.879Z" transform="translate(521 2513)" fill="#12263f"/>
      </g>
      <path id="dot-circle-regular-6" data-name="dot-circle-regular" d="M12.25,8.823A3.427,3.427,0,1,1,8.823,12.25,3.426,3.426,0,0,1,12.25,8.823m0-.823a4.25,4.25,0,1,0,4.25,4.25A4.25,4.25,0,0,0,12.25,8Zm0,2.879a1.371,1.371,0,1,0,1.371,1.371A1.371,1.371,0,0,0,12.25,10.879Z" transform="translate(521 2543)" fill="#12263f"/>
      <path id="dot-circle-regular-7" data-name="dot-circle-regular" d="M12.25,8.823A3.427,3.427,0,1,1,8.823,12.25,3.426,3.426,0,0,1,12.25,8.823m0-.823a4.25,4.25,0,1,0,4.25,4.25A4.25,4.25,0,0,0,12.25,8Zm0,2.879a1.371,1.371,0,1,0,1.371,1.371A1.371,1.371,0,0,0,12.25,10.879Z" transform="translate(521 2573)" fill="#12263f"/>
    </g>
    <g id="Grupo_53929" data-name="Grupo 53929" transform="translate(412.941 1480.274)">
      <circle id="Elipse_4336" data-name="Elipse 4336" cx="2.395" cy="2.395" r="2.395" transform="translate(325.986 741.725)" fill="#05dbf3"/>
      <circle id="Elipse_4337" data-name="Elipse 4337" cx="2.395" cy="2.395" r="2.395" transform="translate(302.438 741.725)" fill="#05dbf3"/>
      <circle id="Elipse_4338" data-name="Elipse 4338" cx="2.395" cy="2.395" r="2.395" transform="translate(278.89 741.725)" fill="#05dbf3"/>
      <circle id="Elipse_4339" data-name="Elipse 4339" cx="2.395" cy="2.395" r="2.395" transform="translate(255.342 741.725)" fill="#05dbf3"/>
      <circle id="Elipse_4340" data-name="Elipse 4340" cx="2.395" cy="2.395" r="2.395" transform="translate(325.986 764.342)" fill="#05dbf3"/>
      <circle id="Elipse_4341" data-name="Elipse 4341" cx="2.395" cy="2.395" r="2.395" transform="translate(302.438 764.342)" fill="#05dbf3"/>
      <circle id="Elipse_4342" data-name="Elipse 4342" cx="2.395" cy="2.395" r="2.395" transform="translate(278.89 764.342)" fill="#05dbf3"/>
      <circle id="Elipse_4343" data-name="Elipse 4343" cx="2.395" cy="2.395" r="2.395" transform="translate(255.342 764.342)" fill="#05dbf3"/>
      <circle id="Elipse_4344" data-name="Elipse 4344" cx="2.395" cy="2.395" r="2.395" transform="translate(325.986 786.959)" fill="#05dbf3"/>
      <circle id="Elipse_4345" data-name="Elipse 4345" cx="2.395" cy="2.395" r="2.395" transform="translate(302.438 786.959)" fill="#05dbf3"/>
      <circle id="Elipse_4346" data-name="Elipse 4346" cx="2.395" cy="2.395" r="2.395" transform="translate(278.89 786.959)" fill="#05dbf3"/>
      <circle id="Elipse_4347" data-name="Elipse 4347" cx="2.395" cy="2.395" r="2.395" transform="translate(255.342 786.959)" fill="#05dbf3"/>
      <circle id="Elipse_4348" data-name="Elipse 4348" cx="2.395" cy="2.395" r="2.395" transform="translate(325.986 809.576)" fill="#05dbf3"/>
      <circle id="Elipse_4349" data-name="Elipse 4349" cx="2.395" cy="2.395" r="2.395" transform="translate(302.438 809.576)" fill="#05dbf3"/>
      <circle id="Elipse_4350" data-name="Elipse 4350" cx="2.395" cy="2.395" r="2.395" transform="translate(278.89 809.576)" fill="#05dbf3"/>
      <circle id="Elipse_4351" data-name="Elipse 4351" cx="2.395" cy="2.395" r="2.395" transform="translate(255.342 809.576)" fill="#05dbf3"/>
    </g>
    <g id="Rectángulo_5298" data-name="Rectángulo 5298" transform="translate(727.023 2533.631)" fill="#f1bf5e" stroke="#f1bf5e" stroke-width="5">
      <rect width="49.488" height="49.488" rx="5" stroke="none"/>
      <rect x="2.5" y="2.5" width="44.488" height="44.488" rx="2.5" fill="none"/>
    </g>
    <rect id="Rectángulo_5297" data-name="Rectángulo 5297" width="112.145" height="112.146" rx="5" transform="translate(818.976 2359.15)" fill="#8979f3"/>
    <g id="Grupo_57811" data-name="Grupo 57811" transform="translate(33.313)">
      <rect id="Rectángulo_5462" data-name="Rectángulo 5462" width="187.145" height="303.146" rx="10" transform="translate(672.688 2255.099)" fill="#fff"/>
      <text id="Cuadrado" transform="translate(711.511 2287.161)" fill="#12263f" font-size="18" font-family="Roboto-Black, Roboto" font-weight="800"><tspan x="0" y="19">Cuadrado</tspan></text>
      <g id="Grupo_57585" data-name="Grupo 57585" transform="translate(-319.239 -108.178)">
        <g id="Grupo_57581" data-name="Grupo 57581" transform="translate(284 40)">
          <text id="Fuerza_Calma_Equilibrio_Terquedad_Autocontrol_Es_racional" data-name="Fuerza 
Calma 
Equilibrio
Terquedad
Autocontrol 
Es racional" transform="translate(767 2396)" fill="#12263f" font-size="16" font-family="Roboto-Regular, Roboto"><tspan x="0" y="17">Fuerza </tspan><tspan x="0" y="47">Calma </tspan><tspan x="0" y="77">Equilibrio</tspan><tspan x="0" y="107">Terquedad</tspan><tspan x="0" y="137">Autocontrol </tspan><tspan x="0" y="167">Es racional</tspan></text>
          <path id="dot-circle-regular-8" data-name="dot-circle-regular" d="M12.25,8.823A3.427,3.427,0,1,1,8.823,12.25,3.426,3.426,0,0,1,12.25,8.823m0-.823a4.25,4.25,0,1,0,4.25,4.25A4.25,4.25,0,0,0,12.25,8Zm0,2.879a1.371,1.371,0,1,0,1.371,1.371A1.371,1.371,0,0,0,12.25,10.879Z" transform="translate(737 2393)" fill="#12263f"/>
          <path id="dot-circle-regular-9" data-name="dot-circle-regular" d="M12.25,8.823A3.427,3.427,0,1,1,8.823,12.25,3.426,3.426,0,0,1,12.25,8.823m0-.823a4.25,4.25,0,1,0,4.25,4.25A4.25,4.25,0,0,0,12.25,8Zm0,2.879a1.371,1.371,0,1,0,1.371,1.371A1.371,1.371,0,0,0,12.25,10.879Z" transform="translate(737 2423)" fill="#12263f"/>
          <path id="dot-circle-regular-10" data-name="dot-circle-regular" d="M12.25,8.823A3.427,3.427,0,1,1,8.823,12.25,3.426,3.426,0,0,1,12.25,8.823m0-.823a4.25,4.25,0,1,0,4.25,4.25A4.25,4.25,0,0,0,12.25,8Zm0,2.879a1.371,1.371,0,1,0,1.371,1.371A1.371,1.371,0,0,0,12.25,10.879Z" transform="translate(737 2453)" fill="#12263f"/>
          <path id="dot-circle-regular-11" data-name="dot-circle-regular" d="M12.25,8.823A3.427,3.427,0,1,1,8.823,12.25,3.426,3.426,0,0,1,12.25,8.823m0-.823a4.25,4.25,0,1,0,4.25,4.25A4.25,4.25,0,0,0,12.25,8Zm0,2.879a1.371,1.371,0,1,0,1.371,1.371A1.371,1.371,0,0,0,12.25,10.879Z" transform="translate(737 2483)" fill="#12263f"/>
          <path id="dot-circle-regular-12" data-name="dot-circle-regular" d="M12.25,8.823A3.427,3.427,0,1,1,8.823,12.25,3.426,3.426,0,0,1,12.25,8.823m0-.823a4.25,4.25,0,1,0,4.25,4.25A4.25,4.25,0,0,0,12.25,8Zm0,2.879a1.371,1.371,0,1,0,1.371,1.371A1.371,1.371,0,0,0,12.25,10.879Z" transform="translate(737 2513)" fill="#12263f"/>
          <path id="dot-circle-regular-13" data-name="dot-circle-regular" d="M12.25,8.823A3.427,3.427,0,1,1,8.823,12.25,3.426,3.426,0,0,1,12.25,8.823m0-.823a4.25,4.25,0,1,0,4.25,4.25A4.25,4.25,0,0,0,12.25,8Zm0,2.879a1.371,1.371,0,1,0,1.371,1.371A1.371,1.371,0,0,0,12.25,10.879Z" transform="translate(737 2543)" fill="#12263f"/>
        </g>
      </g>
    </g>
    <g id="Grupo_57810" data-name="Grupo 57810" transform="translate(8098.557 11895.871)">
      <path id="Trazado_101094" data-name="Trazado 101094" d="M.015,13.858,7.99.055a.109.109,0,0,1,.19,0l7.975,13.8a.109.109,0,0,1-.095.164H.11A.109.109,0,0,1,.015,13.858Z" transform="translate(-6878.049 -9446.439) rotate(180)" fill="#f1bf5e"/>
      <path id="Trazado_101095" data-name="Trazado 101095" d="M.015,13.858,7.99.055a.109.109,0,0,1,.19,0l7.975,13.8a.109.109,0,0,1-.095.164H.11A.109.109,0,0,1,.015,13.858Z" transform="translate(-6878.049 -9417.563) rotate(180)" fill="#f1bf5e"/>
      <path id="Trazado_101096" data-name="Trazado 101096" d="M.015,13.858,7.99.055a.109.109,0,0,1,.19,0l7.975,13.8a.109.109,0,0,1-.095.164H.11A.109.109,0,0,1,.015,13.858Z" transform="translate(-6878.049 -9388.688) rotate(180)" fill="#f1bf5e"/>
    </g>
    <path id="Trazado_101871" data-name="Trazado 101871" d="M-873.941-213.3l57.552-99.611a.79.79,0,0,1,1.368,0l57.553,99.61a.79.79,0,0,1-.684,1.185H-873.258A.79.79,0,0,1-873.941-213.3Z" transform="translate(1997.602 2527.092)" fill="#8979f3"/>
    <rect id="Rectángulo_5463" data-name="Rectángulo 5463" width="187.145" height="303.146" rx="10" transform="translate(1002.157 2255.099)" fill="#fff"/>
    <text id="Triángulo" transform="translate(1040.98 2287.161)" fill="#12263f" font-size="18" font-family="Roboto-Black, Roboto" font-weight="800"><tspan x="0" y="19">Triángulo</tspan></text>
    <g id="Grupo_57586" data-name="Grupo 57586" transform="translate(101.979 -59.131)">
      <text id="Agresividad_Inestabilidad_Tristeza_Tensión_Dolor_" data-name="Agresividad 
Inestabilidad 
Tristeza 
Tensión 
Dolor  " transform="translate(962.5 2395.75)" fill="#12263f" font-size="16" font-family="Roboto-Regular, Roboto"><tspan x="0" y="17">Agresividad </tspan><tspan x="0" y="47">Inestabilidad </tspan><tspan x="0" y="77">Tristeza </tspan><tspan x="0" y="107">Tensión </tspan><tspan x="0" y="137" xml:space="preserve">Dolor  </tspan></text>
      <g id="Grupo_57583" data-name="Grupo 57583" transform="translate(410)">
        <path id="dot-circle-regular-14" data-name="dot-circle-regular" d="M12.25,8.823A3.427,3.427,0,1,1,8.823,12.25,3.426,3.426,0,0,1,12.25,8.823m0-.823a4.25,4.25,0,1,0,4.25,4.25A4.25,4.25,0,0,0,12.25,8Zm0,2.879a1.371,1.371,0,1,0,1.371,1.371A1.371,1.371,0,0,0,12.25,10.879Z" transform="translate(521 2393)" fill="#12263f"/>
        <path id="dot-circle-regular-15" data-name="dot-circle-regular" d="M12.25,8.823A3.427,3.427,0,1,1,8.823,12.25,3.426,3.426,0,0,1,12.25,8.823m0-.823a4.25,4.25,0,1,0,4.25,4.25A4.25,4.25,0,0,0,12.25,8Zm0,2.879a1.371,1.371,0,1,0,1.371,1.371A1.371,1.371,0,0,0,12.25,10.879Z" transform="translate(521 2423)" fill="#12263f"/>
        <path id="dot-circle-regular-16" data-name="dot-circle-regular" d="M12.25,8.823A3.427,3.427,0,1,1,8.823,12.25,3.426,3.426,0,0,1,12.25,8.823m0-.823a4.25,4.25,0,1,0,4.25,4.25A4.25,4.25,0,0,0,12.25,8Zm0,2.879a1.371,1.371,0,1,0,1.371,1.371A1.371,1.371,0,0,0,12.25,10.879Z" transform="translate(521 2453)" fill="#12263f"/>
        <path id="dot-circle-regular-17" data-name="dot-circle-regular" d="M12.25,8.823A3.427,3.427,0,1,1,8.823,12.25,3.426,3.426,0,0,1,12.25,8.823m0-.823a4.25,4.25,0,1,0,4.25,4.25A4.25,4.25,0,0,0,12.25,8Zm0,2.879a1.371,1.371,0,1,0,1.371,1.371A1.371,1.371,0,0,0,12.25,10.879Z" transform="translate(521 2483)" fill="#12263f"/>
        <path id="dot-circle-regular-18" data-name="dot-circle-regular" d="M12.25,8.823A3.427,3.427,0,1,1,8.823,12.25,3.426,3.426,0,0,1,12.25,8.823m0-.823a4.25,4.25,0,1,0,4.25,4.25A4.25,4.25,0,0,0,12.25,8Zm0,2.879a1.371,1.371,0,1,0,1.371,1.371A1.371,1.371,0,0,0,12.25,10.879Z" transform="translate(521 2513)" fill="#12263f"/>
      </g>
    </g>
    <rect id="Rectángulo_5464" data-name="Rectángulo 5464" width="1240" height="369" transform="translate(180 2214)" fill="none"/>
  </g>
</svg>
