<svg xmlns="http://www.w3.org/2000/svg" width="1240" height="308" viewBox="0 0 1240 308"><g transform="translate(-180 -2156)"><g transform="translate(263 -685)"><circle cx="20" cy="20" r="20" transform="translate(1077 2841)" fill="#f1bf5e" opacity="0.48"/><circle cx="12.5" cy="12.5" r="12.5" transform="translate(1085 2849)" fill="#f1bf5e"/></g><path d="M259.154,1227.625l-4.079,4.079,2.814,2.814,4.079-4.079,4.079,4.079,2.814-2.814-4.079-4.079,4.079-4.079-2.814-2.814-4.079,4.079-4.079-4.079-2.814,2.814Z" transform="translate(217.094 1223.299)" fill="none" stroke="#05dbf3" stroke-width="2"/><path d="M30.991,74.818A43.829,43.829,0,0,0,74.819,30.991,43.545,43.545,0,0,0,61.981,0L48.919,13.062A25.355,25.355,0,1,1,13.062,48.92L0,61.981A43.537,43.537,0,0,0,30.991,74.818Z" transform="translate(614.042 2196) rotate(45)" fill="#f1bf5e"/><ellipse cx="100.326" cy="100.326" rx="100.326" ry="100.326" transform="translate(449.191 2257.165)" fill="#8979f3"/><ellipse cx="18.498" cy="18.184" rx="18.498" ry="18.184" transform="translate(449.191 2282.873)" fill="#f1bf5e"/><ellipse cx="9.719" cy="10.033" rx="9.719" ry="10.033" transform="translate(621.626 2405.145)" fill="#05dbf3"/><ellipse cx="2.051" cy="2.051" rx="2.051" ry="2.051" transform="translate(572.511 2280.862)" fill="#f1bf5e"/><ellipse cx="2.051" cy="2.051" rx="2.051" ry="2.051" transform="translate(555.845 2280.862)" fill="#f1bf5e"/><ellipse cx="2.051" cy="2.051" rx="2.051" ry="2.051" transform="translate(539.181 2280.862)" fill="#f1bf5e"/><ellipse cx="2.051" cy="2.051" rx="2.051" ry="2.051" transform="translate(522.516 2280.862)" fill="#f1bf5e"/><ellipse cx="2.051" cy="2.051" rx="2.051" ry="2.051" transform="translate(572.511 2293.228)" fill="#f1bf5e"/><ellipse cx="2.051" cy="2.051" rx="2.051" ry="2.051" transform="translate(555.845 2293.228)" fill="#f1bf5e"/><ellipse cx="2.051" cy="2.051" rx="2.051" ry="2.051" transform="translate(539.181 2293.228)" fill="#f1bf5e"/><ellipse cx="2.051" cy="2.051" rx="2.051" ry="2.051" transform="translate(522.516 2293.228)" fill="#f1bf5e"/><g transform="translate(522.516 2377.885)"><ellipse cx="2.051" cy="2.051" rx="2.051" ry="2.051" transform="translate(49.994 0)" fill="#f1bf5e"/><ellipse cx="2.051" cy="2.051" rx="2.051" ry="2.051" transform="translate(33.329 0)" fill="#f1bf5e"/><ellipse cx="2.051" cy="2.051" rx="2.051" ry="2.051" transform="translate(16.665 0)" fill="#f1bf5e"/><ellipse cx="2.051" cy="2.051" rx="2.051" ry="2.051" transform="translate(0 0)" fill="#f1bf5e"/></g><ellipse cx="1.853" cy="1.853" rx="1.853" ry="1.853" transform="translate(925.089 2236.172)" fill="#a194f5"/><ellipse cx="1.853" cy="1.853" rx="1.853" ry="1.853" transform="translate(925.089 2253.67)" fill="#a194f5"/><ellipse cx="1.853" cy="1.853" rx="1.853" ry="1.853" transform="translate(925.089 2271.169)" fill="#a194f5"/><ellipse cx="1.853" cy="1.853" rx="1.853" ry="1.853" transform="translate(925.089 2288.668)" fill="#a194f5"/><ellipse cx="1.691" cy="1.691" rx="1.691" ry="1.691" transform="translate(899.951 2232.792)" fill="#a194f5"/><ellipse cx="1.691" cy="1.691" rx="1.691" ry="1.691" transform="translate(883.325 2232.792)" fill="#a194f5"/><ellipse cx="1.691" cy="1.691" rx="1.691" ry="1.691" transform="translate(866.698 2232.792)" fill="#a194f5"/><ellipse cx="1.691" cy="1.691" rx="1.691" ry="1.691" transform="translate(899.951 2248.762)" fill="#a194f5"/><ellipse cx="1.691" cy="1.691" rx="1.691" ry="1.691" transform="translate(883.325 2248.762)" fill="#a194f5"/><ellipse cx="1.691" cy="1.691" rx="1.691" ry="1.691" transform="translate(866.698 2248.762)" fill="#a194f5"/><ellipse cx="1.691" cy="1.691" rx="1.691" ry="1.691" transform="translate(899.951 2264.73)" fill="#a194f5"/><ellipse cx="1.691" cy="1.691" rx="1.691" ry="1.691" transform="translate(883.325 2264.73)" fill="#a194f5"/><ellipse cx="1.691" cy="1.691" rx="1.691" ry="1.691" transform="translate(866.698 2264.73)" fill="#a194f5"/><ellipse cx="1.691" cy="1.691" rx="1.691" ry="1.691" transform="translate(899.951 2280.701)" fill="#a194f5"/><ellipse cx="1.691" cy="1.691" rx="1.691" ry="1.691" transform="translate(883.325 2280.701)" fill="#a194f5"/><ellipse cx="1.691" cy="1.691" rx="1.691" ry="1.691" transform="translate(866.698 2280.701)" fill="#a194f5"/><rect width="187.145" height="187.146" rx="5" transform="translate(707.268 2258.438)" fill="#8979f3"/><g transform="translate(725.686 2432.512)" fill="#f1bf5e" stroke="#f1bf5e" stroke-width="5"><rect width="31.488" height="31.488" rx="5" stroke="none"/><rect x="2.5" y="2.5" width="26.488" height="26.488" rx="2.5" fill="none"/></g><ellipse cx="2.088" cy="2.088" rx="2.088" ry="2.088" transform="translate(824.201 2281.003)" fill="#f1bf5e"/><ellipse cx="2.088" cy="2.088" rx="2.088" ry="2.088" transform="translate(807.235 2281.003)" fill="#f1bf5e"/><ellipse cx="2.088" cy="2.088" rx="2.088" ry="2.088" transform="translate(790.27 2281.003)" fill="#f1bf5e"/><ellipse cx="2.088" cy="2.088" rx="2.088" ry="2.088" transform="translate(773.304 2281.003)" fill="#f1bf5e"/><ellipse cx="2.088" cy="2.088" rx="2.088" ry="2.088" transform="translate(824.201 2293.592)" fill="#f1bf5e"/><ellipse cx="2.088" cy="2.088" rx="2.088" ry="2.088" transform="translate(807.235 2293.592)" fill="#f1bf5e"/><ellipse cx="2.088" cy="2.088" rx="2.088" ry="2.088" transform="translate(790.27 2293.592)" fill="#f1bf5e"/><ellipse cx="2.088" cy="2.088" rx="2.088" ry="2.088" transform="translate(773.304 2293.592)" fill="#f1bf5e"/><g transform="translate(773.304 2377.884)"><ellipse cx="2.088" cy="2.088" rx="2.088" ry="2.088" transform="translate(50.897 0)" fill="#f1bf5e"/><ellipse cx="2.088" cy="2.088" rx="2.088" ry="2.088" transform="translate(33.932 0)" fill="#f1bf5e"/><ellipse cx="2.088" cy="2.088" rx="2.088" ry="2.088" transform="translate(16.966 0)" fill="#f1bf5e"/><ellipse cx="2.088" cy="2.088" rx="2.088" ry="2.088" transform="translate(0 0)" fill="#f1bf5e"/></g><path d="M-873.856-133.326-770.28-312.593a1.421,1.421,0,0,1,2.461,0l103.577,179.267a1.421,1.421,0,0,1-1.231,2.132H-872.625A1.421,1.421,0,0,1-873.856-133.326Z" transform="translate(1840.164 2572.841)" fill="#8979f3"/><path d="M.019,18.19,10.488.072a.144.144,0,0,1,.249,0L21.2,18.19a.144.144,0,0,1-.124.216H.144A.144.144,0,0,1,.019,18.19Z" transform="translate(1142.005 2277.943) rotate(180)" fill="#f1bf5e"/><path d="M.019,18.19,10.488.072a.144.144,0,0,1,.249,0L21.2,18.19a.144.144,0,0,1-.124.216H.144A.144.144,0,0,1,.019,18.19Z" transform="translate(1142.005 2302.719) rotate(180)" fill="#f1bf5e"/><path d="M.019,18.19,10.488.072a.144.144,0,0,1,.249,0L21.2,18.19a.144.144,0,0,1-.124.216H.144A.144.144,0,0,1,.019,18.19Z" transform="translate(1142.005 2327.494) rotate(180)" fill="#f1bf5e"/><g transform="translate(1044.54 2377.884)"><ellipse cx="2.032" cy="2.032" rx="2.032" ry="2.032" transform="translate(49.528 0)" fill="#f1bf5e"/><ellipse cx="2.032" cy="2.032" rx="2.032" ry="2.032" transform="translate(33.019 0)" fill="#f1bf5e"/><ellipse cx="2.032" cy="2.032" rx="2.032" ry="2.032" transform="translate(16.509 0)" fill="#f1bf5e"/><ellipse cx="2.032" cy="2.032" rx="2.032" ry="2.032" transform="translate(0 0)" fill="#f1bf5e"/></g><path d="M.03,28.325,16.332.112a.224.224,0,0,1,.387,0l16.3,28.214a.224.224,0,0,1-.194.336H.224A.224.224,0,0,1,.03,28.325Z" transform="translate(1000.717 2424.086) rotate(180)" fill="#05dbf3"/><path d="M264.644,1236.9l-9.569,9.569,6.6,6.6,9.569-9.568,9.569,9.568,6.6-6.6-9.569-9.569,9.569-9.569-6.6-6.6-9.569,9.569-9.569-9.569-6.6,6.6Z" transform="translate(865.707 1204.747)" fill="none" stroke="#05dbf3" stroke-width="2"/><text transform="translate(521.77 2347)" fill="#fff" font-size="18" font-family="Roboto-Black, Roboto" font-weight="800"><tspan x="0" y="19">Círculo</tspan></text><text transform="translate(767 2347)" fill="#fff" font-size="18" font-family="Roboto-Black, Roboto" font-weight="800"><tspan x="0" y="19">Cuadrado</tspan></text><text transform="translate(1033.115 2347)" fill="#fff" font-size="18" font-family="Roboto-Black, Roboto" font-weight="800"><tspan x="-33.851" y="19">Triángul</tspan><tspan x="-5.054" y="49">o</tspan></text><rect width="1240" height="308" transform="translate(180 2156)" fill="none"/></g></svg>