<svg xmlns="http://www.w3.org/2000/svg" width="231.654" height="115.196" viewBox="0 0 231.654 115.196"><g transform="translate(8993.793 9534.696)"><rect width="38.187" height="74.009" rx="0.924" transform="translate(-8992.293 -9495.01)" fill="#dedcff" stroke="#8979f3" stroke-miterlimit="10" stroke-width="3"/><rect width="50.37" height="50.37" rx="0.924" transform="translate(-8966.29 -9495.01)" fill="#dedcff" stroke="#8979f3" stroke-miterlimit="10" stroke-width="3"/><path d="M.023,21.578,12.441.085a.17.17,0,0,1,.3,0L25.154,21.578a.17.17,0,0,1-.148.256H.171A.17.17,0,0,1,.023,21.578Z" transform="translate(-8900.208 -9499.326) rotate(90)" fill="#d2fdff" stroke="#8979f3" stroke-miterlimit="10" stroke-width="3"/><circle cx="38.187" cy="38.187" r="38.187" transform="translate(-8992.293 -9533.196)" fill="#ffefbb" stroke="#8979f3" stroke-miterlimit="10" stroke-width="3"/><g transform="translate(-8855.801 -9533.196)"><path d="M77.2,1177.347l-14.575-8.421a2.282,2.282,0,0,1-1.126-1.864,38.181,38.181,0,0,0-76.3,2.16c0,.25.014.5.018.747a.837.837,0,0,0-.018.094v70.063a3.105,3.105,0,0,0,3.106,3.106H20.277a3.106,3.106,0,0,0,3.106-3.106v-18.268a2.265,2.265,0,0,1,2.266-2.266H58.463a3.106,3.106,0,0,0,3.106-3.106v-28.507a2.266,2.266,0,0,1,1.132-1.962l14.5-8.375a.178.178,0,0,0,.064-.064A.17.17,0,0,0,77.2,1177.347Z" transform="translate(14.804 -1131.036)" fill="#ffefbb" stroke="#8979f3" stroke-miterlimit="10" stroke-width="3"/><circle cx="5.322" cy="5.322" r="5.322" transform="translate(51.365 28.467)" fill="#8979f3"/></g></g></svg>