<svg xmlns="http://www.w3.org/2000/svg" width="177" height="159" viewBox="0 0 177 159">
  <g id="Grupo_57822" data-name="Grupo 57822" transform="translate(-285 -9820.372)">
    <rect id="Rect치ngulo_5259" data-name="Rect치ngulo 5259" width="177" height="159" transform="translate(285 9820.372)" fill="#e1ddfc" opacity="0.5"/>
    <g id="Grupo_55529" data-name="Grupo 55529" transform="translate(327 9853.032)">
      <rect id="Rect치ngulo_5250" data-name="Rect치ngulo 5250" width="94" height="93" transform="translate(0 0.341)" fill="none"/>
      <g id="animacion" transform="translate(8.044 12.653)">
        <path id="Trazado_101141" data-name="Trazado 101141" d="M208,329.629h14.769v12.733H208Zm0,0" transform="translate(-175.859 -278.693)" fill="#e1ddfc"/>
        <path id="Trazado_101142" data-name="Trazado 101142" d="M275.668,329.629h4.313v12.733h-4.313Zm0,0" transform="translate(-233.07 -278.693)" fill="#8979f3"/>
        <path id="Trazado_101143" data-name="Trazado 101143" d="M81.691,7.4H9.49A2.318,2.318,0,0,0,7.172,9.716V57.844A2.318,2.318,0,0,0,9.49,60.162h72.2a2.318,2.318,0,0,0,2.318-2.318V9.716A2.318,2.318,0,0,0,81.691,7.4Zm0,0" transform="translate(-6.064 -6.255)" fill="#e1ddfc"/>
        <path id="Trazado_101144" data-name="Trazado 101144" d="M81.69,7.4H80.432V53.82a2.318,2.318,0,0,1-2.318,2.318H7.171v1.706a2.318,2.318,0,0,0,2.318,2.318h72.2a2.318,2.318,0,0,0,2.318-2.318V9.716A2.318,2.318,0,0,0,81.69,7.4Zm0,0" transform="translate(-6.063 -6.255)" fill="#8979f3"/>
        <path id="Trazado_101145" data-name="Trazado 101145" d="M169.233,403.172h23.65a1.833,1.833,0,1,1,0,3.667h-23.65a1.833,1.833,0,1,1,0-3.667Zm0,0" transform="translate(-141.531 -340.871)" fill="#e1ddfc"/>
        <path id="Trazado_101146" data-name="Trazado 101146" d="M298.5,403.172h-6.181a1.833,1.833,0,1,1,0,3.667H298.5a1.833,1.833,0,1,0,0-3.667Zm0,0" transform="translate(-247.146 -340.871)" fill="#8979f3"/>
        <path id="Trazado_101147" data-name="Trazado 101147" d="M104.39,81.488H38.562a.773.773,0,0,1-.773-.773V41.957a.773.773,0,0,1,.773-.773H104.39a.773.773,0,0,1,.773.773V80.715A.773.773,0,0,1,104.39,81.488Zm0,0" transform="translate(-31.95 -34.82)" fill="#d7f9f9"/>
        <path id="Trazado_101148" data-name="Trazado 101148" d="M48.5,57.205H37.789V41.956a.773.773,0,0,1,.773-.773H48.5Zm0,0" transform="translate(-31.95 -34.819)" fill="#f8cf7f"/>
        <path id="Trazado_101149" data-name="Trazado 101149" d="M411.793,65.153H402a1.545,1.545,0,0,1-1.545-1.545V40.738H411.02a.773.773,0,0,1,.773.773Zm0,0" transform="translate(-338.576 -34.443)" fill="#f1bf5e"/>
        <path id="Trazado_101150" data-name="Trazado 101150" d="M46.956,148.873H37.789v-9.189H48.5v7.644A1.545,1.545,0,0,1,46.956,148.873Zm0,0" transform="translate(-31.95 -118.075)" fill="#f1bf5e"/>
        <path id="Trazado_101151" data-name="Trazado 101151" d="M116.337,260.095H56a1.159,1.159,0,1,1,0-2.318h60.339a1.159,1.159,0,1,1,0,2.318Zm0,0" transform="translate(-46.365 -217.944)" fill="#0882bf"/>
        <path id="Trazado_101152" data-name="Trazado 101152" d="M354.781,249.794a2.83,2.83,0,1,1-2.83-2.83A2.829,2.829,0,0,1,354.781,249.794Zm0,0" transform="translate(-295.173 -208.802)" fill="#ff7956"/>
        <path id="Trazado_101153" data-name="Trazado 101153" d="M120.66,249.794a2.83,2.83,0,1,1-2.83-2.83A2.83,2.83,0,0,1,120.66,249.794Zm0,0" transform="translate(-97.23 -208.802)" fill="#ff7956"/>
        <path id="Trazado_101154" data-name="Trazado 101154" d="M116.337,223.349H56a1.159,1.159,0,1,1,0-2.318h60.339a1.159,1.159,0,1,1,0,2.318Zm0,0" transform="translate(-46.365 -186.876)" fill="#0882bf"/>
        <path id="Trazado_101155" data-name="Trazado 101155" d="M196.738,213.052a2.83,2.83,0,1,1-2.83-2.83A2.829,2.829,0,0,1,196.738,213.052Zm0,0" transform="translate(-161.551 -177.738)" fill="#ff7956"/>
        <path id="Trazado_101156" data-name="Trazado 101156" d="M229.864,73.755l-14.143-8.166a1.545,1.545,0,0,0-2.318,1.338V83.26a1.545,1.545,0,0,0,2.318,1.338l14.143-8.166a1.545,1.545,0,0,0,0-2.676Zm0,0" transform="translate(-180.426 -55.277)" fill="#f8cf7f"/>
        <path id="Trazado_101157" data-name="Trazado 101157" d="M229.864,112.441l-2.259-1.3a1.523,1.523,0,0,1-.732.99L213.4,119.9v2.042a1.545,1.545,0,0,0,2.318,1.338l14.144-8.166a1.545,1.545,0,0,0,0-2.676Zm0,0" transform="translate(-180.426 -93.963)" fill="#f1bf5e"/>
        <path id="Trazado_101158" data-name="Trazado 101158" d="M75.643,0H3.476A3.475,3.475,0,0,0,0,3.475V51.581a3.475,3.475,0,0,0,3.475,3.475H31.019v6.074h-3.28a2.991,2.991,0,0,0,0,5.982H51.38a2.991,2.991,0,1,0,0-5.982H48.1V55.056H75.643a3.475,3.475,0,0,0,3.475-3.475V3.475A3.475,3.475,0,0,0,75.643,0ZM52.054,64.12a.674.674,0,0,1-.674.674H27.739a.674.674,0,1,1,0-1.348H51.379a.675.675,0,0,1,.675.674ZM76.8,51.58a1.16,1.16,0,0,1-1.158,1.158H39.328a1.158,1.158,0,0,0,0,2.317h6.455v6.074H33.337V55.056h.585a1.158,1.158,0,0,0,0-2.317H3.476A1.16,1.16,0,0,1,2.317,51.58V3.475A1.16,1.16,0,0,1,3.476,2.317H75.643A1.16,1.16,0,0,1,76.8,3.475Zm0,0" transform="translate(-0.001)"/>
        <path id="Trazado_101159" data-name="Trazado 101159" d="M98.333,33.769h-65.8A1.932,1.932,0,0,0,30.6,35.7V74.441a1.933,1.933,0,0,0,1.93,1.93h65.8a1.933,1.933,0,0,0,1.93-1.93V35.7a1.932,1.932,0,0,0-1.93-1.93ZM41.312,36.086v12.9H37.246a1.158,1.158,0,1,0,0,2.317h4.066v6.483a.387.387,0,0,1-.386.386h-8V36.086ZM32.922,74.054V60.486h8a2.706,2.706,0,0,0,2.7-2.7v-21.7H97.947V58.1H89.323a.387.387,0,0,1-.386-.386V40.265a1.159,1.159,0,1,0-2.317,0V57.718a2.706,2.706,0,0,0,2.7,2.7h8.624V74.054Zm0,0" transform="translate(-25.876 -28.551)"/>
        <path id="Trazado_101160" data-name="Trazado 101160" d="M116.611,242.282h-9.374a3.986,3.986,0,0,0-7.629,0H71.076a3.986,3.986,0,0,0-7.629,0H56.3a1.159,1.159,0,0,0,0,2.317h7.147a3.987,3.987,0,0,0,7.63,0H99.608a3.986,3.986,0,0,0,7.629,0h9.373a1.159,1.159,0,0,0,0-2.317ZM67.262,245.11a1.67,1.67,0,1,1,1.67-1.67A1.672,1.672,0,0,1,67.262,245.11Zm36.162,0a1.67,1.67,0,1,1,1.67-1.67A1.672,1.672,0,0,1,103.423,245.11Zm0,0" transform="translate(-46.62 -202.451)"/>
        <path id="Trazado_101161" data-name="Trazado 101161" d="M116.611,205.555H82.827a3.986,3.986,0,0,0-7.629,0H56.3a1.159,1.159,0,0,0,0,2.317H75.2a3.986,3.986,0,0,0,7.629,0H116.61a1.159,1.159,0,0,0,0-2.317Zm-37.6,2.829a1.672,1.672,0,0,1-1.67-1.668v0h0a1.67,1.67,0,1,1,1.67,1.671Zm0,0" transform="translate(-46.62 -171.4)"/>
        <path id="Trazado_101162" data-name="Trazado 101162" d="M207.484,79.315a2.676,2.676,0,0,0,2.7,0l14.137-8.162a2.7,2.7,0,0,0,0-4.682l-14.137-8.162a2.7,2.7,0,0,0-4.055,2.341V76.974a2.675,2.675,0,0,0,1.351,2.341Zm.966-18.665a.374.374,0,0,1,.193-.334.392.392,0,0,1,.194-.054.378.378,0,0,1,.192.054l14.137,8.162a.387.387,0,0,1,0,.669l-14.137,8.162a.386.386,0,0,1-.579-.334Zm0,0" transform="translate(-174.28 -48.989)"/>
      </g>
    </g>
  </g>
</svg>
