<svg xmlns="http://www.w3.org/2000/svg" width="295" height="107.392" viewBox="0 0 295 107.392">
  <g id="Grupo_57834" data-name="Grupo 57834" transform="translate(-968 -1941)">
    <g id="eje" transform="translate(1061.435 1941.262)">
      <path id="Trazado_101873" data-name="Trazado 101873" d="M127,153.6l-16.069,16.069v35.71h35.709l16.07-16.07V153.6Zm0,0" transform="translate(-87.721 -121.463)" fill="#955ba5"/>
      <path id="Trazado_101874" data-name="Trazado 101874" d="M110.934,230.4h35.709v35.71H110.934Zm0,0" transform="translate(-87.722 -182.19)" fill="#8979f3"/>
      <path id="Trazado_101875" data-name="Trazado 101875" d="M162.712,153.6l-16.07,16.069H110.933L127,153.6Zm0,0" transform="translate(-87.722 -121.463)" fill="#d2cbff"/>
      <path id="Trazado_101876" data-name="Trazado 101876" d="M297.667,153.6v35.709l-16.07,16.07v-35.71Zm0,0" transform="translate(-222.676 -121.463)" fill="#8979f3"/>
      <path id="Trazado_101877" data-name="Trazado 101877" d="M292.311,179.2v35.71L281.6,225.622v-35.71Zm0,0" transform="translate(-222.677 -141.704)" fill="#a598f8"/>
      <path id="Trazado_101878" data-name="Trazado 101878" d="M139.894,261.149H104.185a1.786,1.786,0,0,1-1.786-1.786v-35.71a1.785,1.785,0,0,1,1.786-1.785h35.709a1.785,1.785,0,0,1,1.786,1.785v35.71A1.786,1.786,0,0,1,139.894,261.149Zm-33.924-3.571h32.139V225.438H105.97Zm0,0" transform="translate(-80.973 -175.444)"/>
      <path id="Trazado_101879" data-name="Trazado 101879" d="M216.694,184.348a1.786,1.786,0,0,1-1.786-1.786V148.637H180.984a1.785,1.785,0,0,1,0-3.571h35.71a1.786,1.786,0,0,1,1.786,1.786v35.71a1.786,1.786,0,0,1-1.786,1.786Zm0,0" transform="translate(-141.703 -114.713)"/>
      <path id="Trazado_101880" data-name="Trazado 101880" d="M104.186,164.79a1.786,1.786,0,0,1-1.263-3.048l16.07-16.07a1.786,1.786,0,0,1,2.525,2.525l-16.07,16.07a1.779,1.779,0,0,1-1.262.523Zm0,0" transform="translate(-80.974 -114.796)"/>
      <path id="Trazado_101881" data-name="Trazado 101881" d="M274.851,164.79a1.785,1.785,0,0,1-1.262-3.048l16.07-16.07a1.785,1.785,0,0,1,2.524,2.525l-16.069,16.07A1.78,1.78,0,0,1,274.851,164.79Zm0,0" transform="translate(-215.93 -114.796)"/>
      <path id="Trazado_101882" data-name="Trazado 101882" d="M274.851,335.458a1.785,1.785,0,0,1-1.262-3.048l16.07-16.07a1.785,1.785,0,0,1,2.524,2.525l-16.069,16.07A1.783,1.783,0,0,1,274.851,335.458Zm0,0" transform="translate(-215.93 -249.753)"/>
      <path id="Trazado_101883" data-name="Trazado 101883" d="M1.784,417.615a1.785,1.785,0,0,1-1.262-3.048l21.426-21.426a1.786,1.786,0,0,1,2.525,2.525L3.047,417.091a1.781,1.781,0,0,1-1.263.523Zm0,0" transform="translate(0.001 -310.485)"/>
      <path id="Trazado_101884" data-name="Trazado 101884" d="M382,319.306H351.65a1.785,1.785,0,1,1,0-3.571H382a1.785,1.785,0,1,1,0,3.571Zm0,0" transform="translate(-276.659 -249.671)"/>
      <path id="Trazado_101885" data-name="Trazado 101885" d="M180.984,33.925A1.785,1.785,0,0,1,179.2,32.14V1.786a1.785,1.785,0,1,1,3.571,0V32.14A1.785,1.785,0,0,1,180.984,33.925Zm0,0" transform="translate(-141.703 -0.001)"/>
      <path id="Trazado_101886" data-name="Trazado 101886" d="M227.188,17.409a1.784,1.784,0,0,1-1.485-.8l-3.572-5.356A1.786,1.786,0,1,1,225.1,9.277l2.085,3.129,2.086-3.129a1.786,1.786,0,0,1,2.971,1.981l-3.571,5.356a1.787,1.787,0,0,1-1.486.8Zm0,0" transform="translate(-175.408 -6.697)"/>
      <path id="Trazado_101887" data-name="Trazado 101887" d="M240.719,41.275a1.785,1.785,0,0,1-1.785-1.785V35.919a1.785,1.785,0,1,1,3.571,0V39.49A1.785,1.785,0,0,1,240.719,41.275Zm0,0" transform="translate(-188.939 -26.991)"/>
      <path id="Trazado_101888" data-name="Trazado 101888" d="M94.258,464.764H87.115a1.785,1.785,0,0,1-1.394-2.9l4.821-6.027H87.115a1.785,1.785,0,0,1,0-3.571h7.143a1.785,1.785,0,0,1,1.394,2.9l-4.821,6.027h3.426a1.785,1.785,0,0,1,0,3.571Zm0,0" transform="translate(-67.475 -357.634)" fill="#8979f3"/>
      <g id="Grupo_57598" data-name="Grupo 57598" transform="translate(94.631 73.206)">
        <path id="Trazado_101889" data-name="Trazado 101889" d="M454.049,362.365a1.786,1.786,0,0,1-1.393-2.9l7.142-8.928a1.786,1.786,0,0,1,2.79,2.231l-7.143,8.927A1.783,1.783,0,0,1,454.049,362.365Zm0,0" transform="translate(-452.265 -349.865)"/>
        <path id="Trazado_101890" data-name="Trazado 101890" d="M461.193,362.365a1.783,1.783,0,0,1-1.4-.671l-7.142-8.927a1.786,1.786,0,1,1,2.79-2.231l7.142,8.928a1.786,1.786,0,0,1-1.393,2.9Zm0,0" transform="translate(-452.263 -349.865)"/>
      </g>
      <path id="Trazado_101891" data-name="Trazado 101891" d="M138.317,328.626a1.786,1.786,0,0,1-1.786-1.786V308.986a1.785,1.785,0,1,1,3.571,0V326.84A1.785,1.785,0,0,1,138.317,328.626Zm0,0" transform="translate(-107.963 -242.922)"/>
      <path id="Trazado_101892" data-name="Trazado 101892" d="M172.45,355.617a1.786,1.786,0,0,1-1.786-1.786V343.118a1.785,1.785,0,1,1,3.571,0v10.713A1.785,1.785,0,0,1,172.45,355.617Zm0,0" transform="translate(-134.954 -269.913)"/>
      <path id="Trazado_101893" data-name="Trazado 101893" d="M206.583,375.862a1.786,1.786,0,0,1-1.786-1.786v-5.357a1.785,1.785,0,0,1,3.571,0v5.357A1.785,1.785,0,0,1,206.583,375.862Zm0,0" transform="translate(-161.945 -290.157)"/>
    </g>
    <rect id="Rectángulo_5471" data-name="Rectángulo 5471" width="295" height="107" transform="translate(968 1941)" fill="none"/>
  </g>
</svg>
