<svg xmlns="http://www.w3.org/2000/svg" width="400" height="397" viewBox="0 0 400 397">
  <g id="Grupo_57836" data-name="Grupo 57836" transform="translate(-600 -18952)">
    <g id="Grupo_57748" data-name="Grupo 57748" transform="translate(240.722 17967.426)">
      <path id="Trazado_103130" data-name="Trazado 103130" d="M518.261,1039.216a68.539,68.539,0,0,0-15.34-29.885,54.275,54.275,0,0,0-28.032-16.82c-.472-.118-.943-.242-1.418-.347-2.556-.565-4.441-1.846-3.742-4.757.692-2.884,2.888-3.173,5.471-2.58a62.373,62.373,0,0,1,21.981,9.447c14.317,9.967,22.944,23.91,27.613,40.418,1.006,3.554,2.387,4.633,6.131,4.655,10.555.061,21.262-.271,31.63,1.343,36.8,5.727,65.927,38.444,67.381,75.668.763,19.556.305,39.162.281,58.745-.023,19.459.662,38.968-.469,58.367-2.818,48.345-42.758,89-90.933,93.29-20.541,1.828-41.023,1.327-60.13-7.58-39.475-18.4-60.852-49.489-61.916-93.166-.852-35.012-.4-70.064-.117-105.1a82.076,82.076,0,0,1,82.668-81.7C505.5,1039.219,511.675,1039.216,518.261,1039.216Zm-93.973,112.5c-.085.956-.164,1.434-.164,1.912,0,24.684-.262,49.372.071,74.051.5,37.281,24.7,71.611,59.348,85.434,16.361,6.526,33.322,7.517,50.563,6.5,48.377-2.846,87.231-42.62,88.4-91.054.6-24.791.176-49.608.193-74.413a15.67,15.67,0,0,0-.379-2.434Zm198.429-8.052c0-7.491.159-14.754-.027-22.008-.778-30.242-14.712-52.495-41.162-66.929-16.907-9.226-35.374-8.448-53.761-7.927-.2.006-.385.266-.857.614,0,3.666-.126,7.548.1,11.41a3.82,3.82,0,0,0,2.037,2.44c6.188,3.059,9.282,7.987,9.3,14.845.026,12.277-.034,24.555.028,36.831.036,7.283-2.92,12.608-9.613,15.782a3.4,3.4,0,0,0-1.839,2.215c-.181,4.2-.085,8.4-.085,12.727Zm-198.193.012h94.68c0-3.827-.1-7.441.037-11.046a3.988,3.988,0,0,0-2.7-4.428,14.257,14.257,0,0,1-8.767-13.61c-.106-13.257-.059-26.516.036-39.773.036-4.939,1.947-9.753,6.344-11.576,5.6-2.324,5.436-6.222,5.181-10.743a14.391,14.391,0,0,1,.011-2.552c.308-2.51-.67-3.436-3.256-3.368-6.564.173-13.145-.123-19.7.181-22.49,1.043-40.919,10.354-55.416,27.577C423.932,1094.588,422.78,1118.595,424.525,1143.678Zm90.74-48.759c0,6.2-.05,12.4.016,18.6.054,5.106,3.039,8.5,7.467,8.681,4.448.184,7.994-3.321,8.046-8.5q.188-18.783-.01-37.571c-.053-5.227-3.491-8.612-8.033-8.44-4.44.168-7.428,3.558-7.47,8.627C515.23,1082.517,515.269,1088.718,515.266,1094.919Z"/>
      <path id="Trazado_103131" data-name="Trazado 103131" d="M427.158,1213.611H625.193a15.665,15.665,0,0,1,.379,2.434c-.017,24.8.407,49.621-.193,74.412-1.173,48.434-40.026,88.207-88.4,91.054-17.241,1.014-34.2.023-50.563-6.5-34.65-13.823-58.845-48.152-59.348-85.433-.333-24.679-.072-49.368-.071-74.051C426.994,1215.045,427.073,1214.567,427.158,1213.611Z" transform="translate(-2.869 -61.892)" fill="#afafaf"/>
      <path id="Trazado_103132" data-name="Trazado 103132" d="M663.645,1166.606H567.756c0-4.325-.1-8.532.085-12.727a3.4,3.4,0,0,1,1.839-2.215c6.693-3.175,9.65-8.5,9.613-15.782-.061-12.276,0-24.554-.028-36.831-.015-6.858-3.108-11.786-9.3-14.845a3.821,3.821,0,0,1-2.037-2.44c-.221-3.862-.1-7.744-.1-11.41.473-.347.662-.608.858-.614,18.387-.521,36.855-1.3,53.761,7.927,26.45,14.434,40.384,36.687,41.162,66.929C663.8,1151.852,663.645,1159.115,663.645,1166.606Z" transform="translate(-40.927 -22.94)" fill="#b0c0d2"/>
      <path id="Trazado_103133" data-name="Trazado 103133" d="M427.358,1166.637c-1.745-25.083-.593-49.09,16.451-69.339,14.5-17.223,32.926-26.534,55.416-27.577,6.556-.3,13.136-.008,19.7-.181,2.586-.068,3.564.858,3.256,3.368a14.39,14.39,0,0,0-.011,2.552c.255,4.521.42,8.419-5.181,10.743-4.4,1.824-6.308,6.637-6.344,11.576-.1,13.258-.142,26.516-.036,39.773a14.257,14.257,0,0,0,8.767,13.61,3.988,3.988,0,0,1,2.7,4.428c-.136,3.6-.037,7.219-.037,11.046Z" transform="translate(-2.833 -22.96)" fill="#b0c0d2"/>
      <path id="Trazado_103134" data-name="Trazado 103134" d="M551.915,1125.694c0-6.2-.037-12.4.014-18.6.042-5.069,3.03-8.459,7.47-8.627,4.542-.172,7.981,3.213,8.033,8.44q.191,18.784.01,37.571c-.052,5.183-3.6,8.688-8.046,8.5-4.428-.183-7.413-3.574-7.467-8.681C551.864,1138.1,551.913,1131.9,551.915,1125.694Z" transform="translate(-36.648 -30.775)" fill="#727997"/>
    </g>
    <rect id="Rectángulo_5438" data-name="Rectángulo 5438" width="174" height="139" rx="10" transform="translate(784 19210)" fill="#fff"/>
    <g id="Grupo_57751" data-name="Grupo 57751" transform="translate(-144 52)">
      <rect id="Rectángulo_5435" data-name="Rectángulo 5435" width="143" height="57" rx="10" transform="translate(944 19168)" fill="#8979f3"/>
      <rect id="Rectángulo_5436" data-name="Rectángulo 5436" width="69" height="57" rx="10" transform="translate(944 19231)" fill="#f1bf5e"/>
      <rect id="Rectángulo_5437" data-name="Rectángulo 5437" width="69" height="57" rx="10" transform="translate(1018 19231)" fill="#05dbf3"/>
      <text id="Shift" transform="translate(996 19187)" fill="#12263f" font-size="16" font-family="Roboto-Black, Roboto" font-weight="800"><tspan x="0" y="17">Shift</tspan></text>
      <text id="Cntrl" transform="translate(959 19250)" fill="#12263f" font-size="16" font-family="Roboto-Black, Roboto" font-weight="800"><tspan x="0" y="17">Cntrl</tspan></text>
      <text id="Alt" transform="translate(1040 19250)" fill="#12263f" font-size="16" font-family="Roboto-Black, Roboto" font-weight="800"><tspan x="0" y="17">Alt</tspan></text>
    </g>
    <rect id="Rectángulo_5472" data-name="Rectángulo 5472" width="400" height="388" transform="translate(600 18952)" fill="none"/>
  </g>
</svg>
