<svg xmlns="http://www.w3.org/2000/svg" width="620" height="213.5" viewBox="0 0 620 213.5">
  <g id="Grupo_57826" data-name="Grupo 57826" transform="translate(-180 -3739.5)">
    <circle id="Elipse_4404" data-name="Elipse 4404" cx="106.5" cy="106.5" r="106.5" transform="translate(383.376 3739.5)" fill="#fff"/>
    <g id="Grupo_57784" data-name="Grupo 57784" transform="translate(398.268 3754.081)">
      <g id="Grupo_57634" data-name="Grupo 57634" transform="translate(0)">
        <path id="Trazado_101895" data-name="Trazado 101895" d="M767.672,281.608a91.793,91.793,0,0,0-41.13-23.748h0l-23.8,88.808,65.016-65.013Z" transform="translate(-610.823 -254.749)" fill="#fac712"/>
        <path id="Trazado_101896" data-name="Trazado 101896" d="M674.343,251.037a92.6,92.6,0,0,0-47.6,0l.673,2.505c.241.908.492,1.838.745,2.79l.4,1.5c.235.88.476,1.785.73,2.722l.128.489c.191.711.388,1.45.592,2.192l1.391,5.186.085.313,1.077,4.012.288,1.077,17.682,66,14.9-55.546h0Z" transform="translate(-558.625 -247.926)" fill="#feef00"/>
        <path id="Trazado_101897" data-name="Trazado 101897" d="M791.579,375.058h0a91.849,91.849,0,0,0-23.745-41.133l-.05-.085-.016.019h0l-17.7,17.695-47.29,47.29Z" transform="translate(-610.851 -306.934)" fill="#f69f23"/>
        <path id="Trazado_101902" data-name="Trazado 101902" d="M791.555,565.232h0l-33.231-8.9h0l-55.574-14.9,65.013,65.007.047-.085A91.762,91.762,0,0,0,791.555,565.232Z" transform="translate(-610.83 -449.511)" fill="#ff2600"/>
        <path id="Trazado_101903" data-name="Trazado 101903" d="M794.668,489.232a91.96,91.96,0,0,0-3.11-23.8h0l-33.235,8.91h0L702.75,489.232l88.808,23.8h0A91.982,91.982,0,0,0,794.668,489.232Z" transform="translate(-610.83 -397.312)" fill="#fb6312"/>
        <path id="Trazado_101905" data-name="Trazado 101905" d="M560.173,346.668,545.281,291.1h0c-.113-.429-.222-.83-.335-1.253l-.877-3.273c-.4-1.491-.783-2.928-1.146-4.284l-1.071-3.993-.335-1.253-1-3.68c-.028-.1-.053-.194-.078-.291l-4.071-15.214h0a91.777,91.777,0,0,0-41.13,23.752l-.081.044Z" transform="translate(-468.253 -254.749)" fill="#7fd200"/>
        <g id="Grupo_57782" data-name="Grupo 57782" transform="translate(0 26.906)" opacity="0.25">
          <path id="Trazado_101898" data-name="Trazado 101898" d="M674.364,630.238h0L665.457,597h0L650.565,541.43l-23.8,88.808h0a92.59,92.59,0,0,0,47.6,0Z" transform="translate(-558.646 -476.417)" fill="#7421b0"/>
          <path id="Trazado_101899" data-name="Trazado 101899" d="M560.18,541.43l-65.01,65.007.075.044a91.847,91.847,0,0,0,41.139,23.758h0l8.9-33.232h0Z" transform="translate(-468.26 -476.417)" fill="#3a48ba"/>
          <path id="Trazado_101900" data-name="Trazado 101900" d="M767.678,606.493l.085-.05-.016-.019h0L743.426,582.1h0L702.75,541.43l23.8,88.808h0a91.849,91.849,0,0,0,41.127-23.745Z" transform="translate(-610.83 -476.417)" fill="#d2298e"/>
          <path id="Trazado_101901" data-name="Trazado 101901" d="M507.988,541.43l-88.808,23.8h0a91.837,91.837,0,0,0,23.745,41.13l.044.081h.019l24.322-24.322h0Z" transform="translate(-416.068 -476.417)" fill="#006fc4"/>
          <path id="Trazado_101904" data-name="Trazado 101904" d="M501.165,489.232l-88.808-23.8h0a92.59,92.59,0,0,0,0,47.6l33.232-8.9h0Z" transform="translate(-409.245 -424.219)" fill="#00c2af"/>
          <path id="Trazado_101906" data-name="Trazado 101906" d="M507.988,398.853l-65.01-65.013-.044.078a91.809,91.809,0,0,0-23.755,41.139l33.232,8.9h0Z" transform="translate(-416.068 -333.84)" fill="#00b500"/>
        </g>
      </g>
      <path id="Trazado_101909" data-name="Trazado 101909" d="M604.136,397.85A44.966,44.966,0,1,0,649.1,442.816,44.966,44.966,0,0,0,604.136,397.85Zm0,74.311a29.345,29.345,0,1,1,29.345-29.345A29.345,29.345,0,0,1,604.136,472.161Z" transform="translate(-512.216 -350.897)" fill="#fff" opacity="0.5"/>
      <path id="Trazado_101910" data-name="Trazado 101910" d="M638.395,447.73a29.345,29.345,0,1,0,29.345,29.345A29.345,29.345,0,0,0,638.395,447.73Zm0,43.065a13.72,13.72,0,1,1,13.72-13.72,13.72,13.72,0,0,1-13.72,13.72Z" transform="translate(-546.475 -385.155)" fill="#fff" opacity="0.75"/>
      <circle id="Elipse_4402" data-name="Elipse 4402" cx="13.72" cy="13.72" r="13.72" transform="translate(78.2 78.199)" fill="#fff"/>
    </g>
    <rect id="Rectángulo_5465" data-name="Rectángulo 5465" width="620" height="213" transform="translate(180 3740)" fill="none"/>
  </g>
</svg>
