<svg xmlns="http://www.w3.org/2000/svg" xmlns:xlink="http://www.w3.org/1999/xlink" width="210" height="210" viewBox="0 0 210 210">
  <defs>
    <clipPath id="clip-path">
      <rect id="Rect치ngulo_4631" data-name="Rect치ngulo 4631" width="162.323" height="178.945" fill="none"/>
    </clipPath>
  </defs>
  <g id="Grupo_57660" data-name="Grupo 57660" transform="translate(-705 -14677.945)">
    <g id="Grupo_57657" data-name="Grupo 57657" transform="translate(315 12337)">
      <rect id="Rect치ngulo_5290" data-name="Rect치ngulo 5290" width="210" height="210" rx="10" transform="translate(390 2340.945)" fill="#fff"/>
    </g>
    <g id="Grupo_31598" data-name="Grupo 31598" transform="translate(732.677 14694)">
      <g id="Grupo_31595" data-name="Grupo 31595">
        <g id="Grupo_31594" data-name="Grupo 31594" clip-path="url(#clip-path)">
          <path id="Trazado_28992" data-name="Trazado 28992" d="M61.755,78.055A50.34,50.34,0,0,1,81.139,30.94a50.443,50.443,0,1,0-49.732,86.787A50.492,50.492,0,0,1,61.755,78.053" transform="translate(0.023 3.813)" fill="#0099df"/>
          <path id="Trazado_28993" data-name="Trazado 28993" d="M61.755,78.055A50.34,50.34,0,0,1,81.139,30.94a50.443,50.443,0,1,0-49.732,86.787A50.492,50.492,0,0,1,61.755,78.055Z" transform="translate(0.023 3.813)" fill="none" stroke="#000" stroke-miterlimit="10" stroke-width="0.25"/>
          <path id="Trazado_28994" data-name="Trazado 28994" d="M149.481,71.052A50.437,50.437,0,0,0,68.468,30.932a50.318,50.318,0,0,1,19.4,46.932,50.487,50.487,0,0,1,30.786,39.675,50.458,50.458,0,0,0,30.819-46.484" transform="translate(12.693 3.822)" fill="#e93179"/>
          <path id="Trazado_28995" data-name="Trazado 28995" d="M149.481,71.052A50.437,50.437,0,0,0,68.468,30.932a50.318,50.318,0,0,1,19.4,46.932,50.487,50.487,0,0,1,30.786,39.675,50.458,50.458,0,0,0,30.822-46.486Z" transform="translate(12.693 3.822)" fill="none" stroke="#000" stroke-miterlimit="10" stroke-width="0.25"/>
          <path id="Trazado_28996" data-name="Trazado 28996" d="M51.7,69.439a50.776,50.776,0,0,0,.494,6.994,50.549,50.549,0,0,1,38.788-.182A50.317,50.317,0,0,0,71.577,29.318,50.356,50.356,0,0,0,51.7,69.439" transform="translate(9.585 5.435)" fill="#012072"/>
          <path id="Trazado_28997" data-name="Trazado 28997" d="M51.7,69.439a50.776,50.776,0,0,0,.494,6.994,50.549,50.549,0,0,1,38.788-.182A50.317,50.317,0,0,0,71.577,29.318,50.356,50.356,0,0,0,51.7,69.439Z" transform="translate(9.585 5.435)" fill="none" stroke="#000" stroke-miterlimit="10" stroke-width="0.25"/>
          <path id="Trazado_28998" data-name="Trazado 28998" d="M76.324,97.008a50.444,50.444,0,0,1-49.734,6.545,50.445,50.445,0,1,0,99.926-.183,50.485,50.485,0,0,1-50.194-6.362" transform="translate(4.837 17.985)" fill="#fef011"/>
          <path id="Trazado_28999" data-name="Trazado 28999" d="M76.324,97.009a50.444,50.444,0,0,1-49.734,6.545,50.445,50.445,0,1,0,99.926-.183,50.482,50.482,0,0,1-50.192-6.362Z" transform="translate(4.837 17.984)" fill="none" stroke="#000" stroke-miterlimit="10" stroke-width="0.25"/>
          <path id="Trazado_29000" data-name="Trazado 29000" d="M76.246,102.19A50.391,50.391,0,0,1,56.862,69.065a50.5,50.5,0,0,0-30.348,39.672,50.435,50.435,0,0,0,49.732-6.547" transform="translate(4.916 12.804)" fill="#178f48"/>
          <path id="Trazado_29001" data-name="Trazado 29001" d="M76.246,102.19A50.391,50.391,0,0,1,56.862,69.065a50.5,50.5,0,0,0-30.348,39.672,50.435,50.435,0,0,0,49.732-6.547Z" transform="translate(4.916 12.804)" fill="none" stroke="#000" stroke-miterlimit="10" stroke-width="0.25"/>
          <path id="Trazado_29002" data-name="Trazado 29002" d="M87.874,68.907a50.389,50.389,0,0,1-19.406,33.308,50.479,50.479,0,0,0,50.194,6.364A50.488,50.488,0,0,0,87.876,68.9" transform="translate(12.693 12.778)" fill="#eb2d16"/>
          <path id="Trazado_29003" data-name="Trazado 29003" d="M87.874,68.91a50.389,50.389,0,0,1-19.406,33.308,50.479,50.479,0,0,0,50.194,6.364A50.488,50.488,0,0,0,87.874,68.91Z" transform="translate(12.693 12.775)" fill="none" stroke="#000" stroke-miterlimit="10" stroke-width="0.25"/>
          <path id="Trazado_29004" data-name="Trazado 29004" d="M52.114,69.683A50.386,50.386,0,0,0,71.5,102.808,50.387,50.387,0,0,0,90.9,69.5a50.537,50.537,0,0,0-38.79.182" transform="translate(9.664 12.184)"/>
          <path id="Trazado_29005" data-name="Trazado 29005" d="M52.114,69.683A50.386,50.386,0,0,0,71.5,102.808,50.387,50.387,0,0,0,90.9,69.5a50.537,50.537,0,0,0-38.79.182Z" transform="translate(9.664 12.184)" fill="none" stroke="#000" stroke-miterlimit="10" stroke-width="0.25"/>
        </g>
      </g>
      <text id="Verde" transform="translate(42.615 110.932)" fill="#fff" font-size="8" font-family="SegoeUI, Segoe UI"><tspan x="0" y="0" letter-spacing="-0.04em">V</tspan><tspan y="0">erde</tspan></text>
      <text id="Azul" transform="translate(72.288 67.149)" fill="#fff" font-size="8" font-family="SegoeUI, Segoe UI"><tspan x="0" y="0">Azul</tspan></text>
      <text id="Negro" transform="translate(68.049 92.545)" fill="#fff" font-size="8" font-family="SegoeUI, Segoe UI"><tspan x="0" y="0">Negro</tspan></text>
      <text id="Rojo" transform="translate(96.754 110.932)" fill="#fff" font-size="8" font-family="SegoeUI, Segoe UI"><tspan x="0" y="0" letter-spacing="-0.02em">R</tspan><tspan y="0">ojo</tspan></text>
      <text id="Magenta" transform="translate(110.845 67.149)" fill="#fff" font-size="8" font-family="SegoeUI, Segoe UI"><tspan x="0" y="0">Magenta</tspan></text>
      <text id="Amarillo" transform="translate(63.933 145.849)" font-size="8" font-family="SegoeUI, Segoe UI"><tspan x="0" y="0">Amarillo</tspan></text>
      <text id="Cian" transform="translate(21.069 66.149)" fill="#fff" font-size="7" font-family="SegoeUI, Segoe UI"><tspan x="0" y="0">Cian</tspan></text>
      <g id="Grupo_31597" data-name="Grupo 31597">
        <g id="Grupo_31596" data-name="Grupo 31596" clip-path="url(#clip-path)">
          <text id="Colores_pigmento" data-name="Colores pigmento" transform="translate(28.628 9.963)" font-size="12" font-family="SegoeUI, Segoe UI"><tspan x="0" y="0">Colores pigmento</tspan></text>
        </g>
      </g>
    </g>
  </g>
</svg>
