<svg xmlns="http://www.w3.org/2000/svg" xmlns:xlink="http://www.w3.org/1999/xlink" width="210" height="210" viewBox="0 0 210 210">
  <defs>
    <clipPath id="clip-path">
      <rect id="Rect치ngulo_4629" data-name="Rect치ngulo 4629" width="162.323" height="177.056" fill="none"/>
    </clipPath>
  </defs>
  <g id="Grupo_57659" data-name="Grupo 57659" transform="translate(-390 -14677.945)">
    <g id="Grupo_57658" data-name="Grupo 57658" transform="translate(0 12337)">
      <rect id="Rect치ngulo_5290" data-name="Rect치ngulo 5290" width="210" height="210" rx="10" transform="translate(390 2340.945)" fill="#fff"/>
    </g>
    <g id="luz" transform="translate(417.677 14694)">
      <g id="Grupo_31590" data-name="Grupo 31590">
        <g id="Grupo_31589" data-name="Grupo 31589" clip-path="url(#clip-path)">
          <path id="Trazado_28978" data-name="Trazado 28978" d="M61.755,76.461A50.34,50.34,0,0,1,81.139,29.346a50.443,50.443,0,1,0-49.732,86.787A50.492,50.492,0,0,1,61.755,76.459" transform="translate(0.023 3.518)" fill="#ea2c1c"/>
          <path id="Trazado_28979" data-name="Trazado 28979" d="M61.755,76.461A50.34,50.34,0,0,1,81.139,29.346a50.443,50.443,0,1,0-49.732,86.787A50.492,50.492,0,0,1,61.755,76.461Z" transform="translate(0.023 3.518)" fill="none" stroke="#000" stroke-miterlimit="10" stroke-width="0.25"/>
          <path id="Trazado_28980" data-name="Trazado 28980" d="M149.481,69.458A50.437,50.437,0,0,0,68.468,29.338,50.356,50.356,0,0,1,88.343,69.458a50.814,50.814,0,0,1-.471,6.811,50.492,50.492,0,0,1,30.786,39.675A50.458,50.458,0,0,0,149.478,69.46" transform="translate(12.693 3.526)" fill="#12903f"/>
          <path id="Trazado_28981" data-name="Trazado 28981" d="M149.481,69.458A50.437,50.437,0,0,0,68.468,29.338,50.356,50.356,0,0,1,88.343,69.458a50.814,50.814,0,0,1-.471,6.811,50.492,50.492,0,0,1,30.786,39.675,50.458,50.458,0,0,0,30.822-46.486Z" transform="translate(12.693 3.526)" fill="none" stroke="#000" stroke-miterlimit="10" stroke-width="0.25"/>
          <path id="Trazado_28982" data-name="Trazado 28982" d="M51.7,67.845a50.776,50.776,0,0,0,.494,6.994,50.554,50.554,0,0,1,38.79-.182,50.814,50.814,0,0,0,.471-6.811A50.356,50.356,0,0,0,71.577,27.724,50.357,50.357,0,0,0,51.7,67.845" transform="translate(9.584 5.14)" fill="#fef011"/>
          <path id="Trazado_28983" data-name="Trazado 28983" d="M51.7,67.845a50.776,50.776,0,0,0,.494,6.994,50.554,50.554,0,0,1,38.79-.182,50.814,50.814,0,0,0,.471-6.811A50.356,50.356,0,0,0,71.577,27.724,50.357,50.357,0,0,0,51.7,67.845Z" transform="translate(9.584 5.14)" fill="none" stroke="#000" stroke-miterlimit="10" stroke-width="0.25"/>
          <path id="Trazado_28984" data-name="Trazado 28984" d="M76.328,95.414A50.44,50.44,0,0,1,26.6,101.959a50.444,50.444,0,1,0,99.926-.183,50.484,50.484,0,0,1-50.194-6.362" transform="translate(4.833 17.69)" fill="#002172"/>
          <path id="Trazado_28985" data-name="Trazado 28985" d="M76.328,95.415A50.44,50.44,0,0,1,26.6,101.96a50.444,50.444,0,1,0,99.926-.183,50.486,50.486,0,0,1-50.194-6.362Z" transform="translate(4.833 17.689)" fill="none" stroke="#000" stroke-miterlimit="10" stroke-width="0.25"/>
          <path id="Trazado_28986" data-name="Trazado 28986" d="M76.246,100.6A50.391,50.391,0,0,1,56.862,67.471a50.493,50.493,0,0,0-30.348,39.672A50.435,50.435,0,0,0,76.246,100.6" transform="translate(4.916 12.509)" fill="#e53477"/>
          <path id="Trazado_28987" data-name="Trazado 28987" d="M76.246,100.6A50.391,50.391,0,0,1,56.862,67.471a50.493,50.493,0,0,0-30.348,39.672A50.435,50.435,0,0,0,76.246,100.6Z" transform="translate(4.916 12.509)" fill="none" stroke="#000" stroke-miterlimit="10" stroke-width="0.25"/>
          <path id="Trazado_28988" data-name="Trazado 28988" d="M87.874,67.313a50.389,50.389,0,0,1-19.406,33.308,50.479,50.479,0,0,0,50.194,6.364A50.488,50.488,0,0,0,87.876,67.311" transform="translate(12.693 12.483)" fill="#009ae0"/>
          <path id="Trazado_28989" data-name="Trazado 28989" d="M87.874,67.316a50.389,50.389,0,0,1-19.406,33.308,50.479,50.479,0,0,0,50.194,6.364A50.488,50.488,0,0,0,87.874,67.316Z" transform="translate(12.693 12.48)" fill="none" stroke="#000" stroke-miterlimit="10" stroke-width="0.25"/>
          <path id="Trazado_28990" data-name="Trazado 28990" d="M52.114,68.089A50.387,50.387,0,0,0,71.5,101.214,50.387,50.387,0,0,0,90.9,67.907a50.538,50.538,0,0,0-38.79.182" transform="translate(9.664 11.889)" fill="#fff"/>
          <path id="Trazado_28991" data-name="Trazado 28991" d="M52.114,68.089A50.387,50.387,0,0,0,71.5,101.214,50.387,50.387,0,0,0,90.9,67.907a50.538,50.538,0,0,0-38.79.182Z" transform="translate(9.664 11.889)" fill="none" stroke="#000" stroke-miterlimit="10" stroke-width="0.25"/>
        </g>
      </g>
      <text id="Amarillo" transform="translate(65.89 67.596)" font-size="7" font-family="SegoeUI, Segoe UI"><tspan x="0" y="0">Amarillo</tspan></text>
      <text id="Azul" transform="translate(72.06 142.409)" fill="#fff" font-size="8" font-family="SegoeUI, Segoe UI"><tspan x="0" y="0">Azul</tspan></text>
      <text id="Cian" transform="translate(100.376 113.743)" fill="#fff" font-size="7" font-family="SegoeUI, Segoe UI"><tspan x="0" y="0">Cian</tspan></text>
      <text id="Magenta" transform="translate(37.703 113.743)" fill="#fff" font-size="7" font-family="SegoeUI, Segoe UI"><tspan x="0" y="0">Magenta</tspan></text>
      <text id="Verde" transform="translate(116.884 68.3)" fill="#fff" font-size="8" font-family="SegoeUI, Segoe UI"><tspan x="0" y="0" letter-spacing="-0.04em">V</tspan><tspan y="0">erde</tspan></text>
      <text id="Rojo" transform="translate(22.754 68.3)" fill="#fff" font-size="8" font-family="SegoeUI, Segoe UI"><tspan x="0" y="0" letter-spacing="-0.02em">R</tspan><tspan y="0">ojo</tspan></text>
      <g id="Grupo_31592" data-name="Grupo 31592">
        <g id="Grupo_31591" data-name="Grupo 31591" clip-path="url(#clip-path)">
          <text id="Colores_luz" data-name="Colores luz" transform="translate(48.493 9.963)" font-size="12" font-family="SegoeUI, Segoe UI"><tspan x="0" y="0">Colores luz</tspan></text>
        </g>
      </g>
    </g>
  </g>
</svg>
