<svg xmlns="http://www.w3.org/2000/svg" xmlns:xlink="http://www.w3.org/1999/xlink" width="610" height="735.448" viewBox="0 0 610 735.448">
  <defs>
    <clipPath id="clip-path">
      <path id="Trazado_103143" data-name="Trazado 103143" d="M691.686,1658.277V1138.391c0-36.122-12.252-43.442-33.215-43.442-18.345,0-33.217,8.6-33.217,41.331v522a67.118,67.118,0,1,0,66.432,0Z" transform="translate(-591.354 -1094.949)" fill="none"/>
    </clipPath>
  </defs>
  <g id="Grupo_57828" data-name="Grupo 57828" transform="translate(-495 -4500)">
    <path id="Trazado_103144" data-name="Trazado 103144" d="M11.32,14.667a4.673,4.673,0,0,1-.721,2.36,4.35,4.35,0,0,1-1.85,1.586,6.3,6.3,0,0,1-2.72.563,5.025,5.025,0,0,1-3.973-1.644,6.786,6.786,0,0,1-1.45-4.641v-.633a7.746,7.746,0,0,1,.655-3.292,4.961,4.961,0,0,1,1.885-2.18,5.26,5.26,0,0,1,2.848-.769A5.516,5.516,0,0,1,9.738,7.245a4.844,4.844,0,0,1,1.608,3.379H8.271a2.292,2.292,0,0,0-.589-1.679,2.422,2.422,0,0,0-1.687-.51A1.843,1.843,0,0,0,4.307,9.3a5.536,5.536,0,0,0-.562,2.751v.905a6.125,6.125,0,0,0,.514,2.927,1.882,1.882,0,0,0,1.771.879,2.369,2.369,0,0,0,1.626-.5,2.126,2.126,0,0,0,.6-1.591ZM18,19a3.344,3.344,0,0,1-.281-.853,2.754,2.754,0,0,1-2.285,1.028,3.374,3.374,0,0,1-2.285-.813,2.588,2.588,0,0,1-.94-2.043,2.66,2.66,0,0,1,1.143-2.338,5.821,5.821,0,0,1,3.322-.791h.914v-.5q0-1.316-1.134-1.316A.927.927,0,0,0,15.4,12.413H12.437a2.655,2.655,0,0,1,1.173-2.239,4.931,4.931,0,0,1,2.993-.86,4.323,4.323,0,0,1,2.874.888,3.086,3.086,0,0,1,1.081,2.435v4.21a4.311,4.311,0,0,0,.4,2V19Zm-1.854-1.934a1.652,1.652,0,0,0,.918-.237,1.487,1.487,0,0,0,.523-.536V14.772h-.861q-1.547,0-1.547,1.389a.848.848,0,0,0,.272.655A.986.986,0,0,0,16.146,17.066ZM16.884,5.5h3.129L17.569,8.26l-2.417,0ZM25.321,19H22.351V5.5h2.971Zm4.948,0H27.3V9.49H30.27ZM27.123,7.038A1.322,1.322,0,0,1,27.58,6a1.943,1.943,0,0,1,2.373,0,1.322,1.322,0,0,1,.457,1.037,1.322,1.322,0,0,1-.457,1.037,1.943,1.943,0,0,1-2.373,0A1.322,1.322,0,0,1,27.123,7.038Zm4.6,7.137a5.809,5.809,0,0,1,.976-3.56,3.211,3.211,0,0,1,2.725-1.3,2.731,2.731,0,0,1,2.145,1V5.5h2.971V19H37.872l-.149-1.02a2.8,2.8,0,0,1-2.32,1.2,3.205,3.205,0,0,1-2.689-1.3A5.993,5.993,0,0,1,31.72,14.175Zm2.962.185q0,2.531,1.477,2.531a1.458,1.458,0,0,0,1.406-.826V12.443a1.419,1.419,0,0,0-1.389-.844q-1.371,0-1.485,2.215Zm7.163-.2a5.613,5.613,0,0,1,.554-2.536,3.96,3.96,0,0,1,1.591-1.709,4.791,4.791,0,0,1,2.435-.6,4.373,4.373,0,0,1,3.366,1.323,5.076,5.076,0,0,1,1.23,3.6v.105a4.925,4.925,0,0,1-1.235,3.529,4.384,4.384,0,0,1-3.344,1.305,4.434,4.434,0,0,1-3.261-1.217,4.761,4.761,0,0,1-1.327-3.3Zm2.962.185a3.538,3.538,0,0,0,.413,1.934,1.376,1.376,0,0,0,1.222.615q1.582,0,1.617-2.435v-.3q0-2.558-1.635-2.558-1.485,0-1.608,2.206Zm12.5,1.986a.684.684,0,0,0-.4-.606,6.016,6.016,0,0,0-1.5-.475,6.853,6.853,0,0,1-1.828-.646,3.062,3.062,0,0,1-1.1-.971,2.319,2.319,0,0,1-.378-1.31,2.628,2.628,0,0,1,1.081-2.158,4.453,4.453,0,0,1,2.83-.848,4.934,4.934,0,0,1,3.023.853,2.666,2.666,0,0,1,1.143,2.241H57.208q0-1.143-1.2-1.143a1.194,1.194,0,0,0-.782.259.8.8,0,0,0-.316.646.737.737,0,0,0,.387.642,3.654,3.654,0,0,0,1.235.4,10.671,10.671,0,0,1,1.49.378,2.706,2.706,0,0,1,2.145,2.646,2.491,2.491,0,0,1-1.156,2.118,5.068,5.068,0,0,1-2.993.817,5.172,5.172,0,0,1-2.18-.439,3.645,3.645,0,0,1-1.494-1.2A2.707,2.707,0,0,1,51.8,15.95h2.769a1.145,1.145,0,0,0,.439.962,1.808,1.808,0,0,0,1.081.3A1.422,1.422,0,0,0,57,16.97.787.787,0,0,0,57.3,16.328Z" transform="translate(580.793 4732.581)" fill="#12263f"/>
    <path id="Trazado_103145" data-name="Trazado 103145" d="M9.026,13.9H4.052V19H.967V6.2H9.527V8.585H4.052v2.944H9.026ZM16.2,12.171l-.976-.07a1.752,1.752,0,0,0-1.793.879V19H10.468V9.49h2.777l.1,1.222a2.294,2.294,0,0,1,2.083-1.4,2.888,2.888,0,0,1,.826.105ZM20.5,19H17.517V9.49H20.5ZM19.389,5.676h3.129l-2.443,2.76-2.417,0Zm2.637,8.481a5.613,5.613,0,0,1,.554-2.536A3.96,3.96,0,0,1,24.17,9.912a4.791,4.791,0,0,1,2.435-.6,4.373,4.373,0,0,1,3.366,1.323,5.076,5.076,0,0,1,1.23,3.6v.105a4.925,4.925,0,0,1-1.235,3.529,4.384,4.384,0,0,1-3.344,1.305,4.434,4.434,0,0,1-3.261-1.217,4.761,4.761,0,0,1-1.327-3.3Zm2.962.185a3.538,3.538,0,0,0,.413,1.934,1.376,1.376,0,0,0,1.222.615q1.582,0,1.617-2.435v-.3q0-2.558-1.635-2.558-1.485,0-1.608,2.206Zm12.5,1.986a.684.684,0,0,0-.4-.606,6.016,6.016,0,0,0-1.5-.475,6.853,6.853,0,0,1-1.828-.646,3.062,3.062,0,0,1-1.1-.971,2.319,2.319,0,0,1-.378-1.31,2.628,2.628,0,0,1,1.081-2.158,4.453,4.453,0,0,1,2.83-.848,4.934,4.934,0,0,1,3.023.853,2.666,2.666,0,0,1,1.143,2.241H37.389q0-1.143-1.2-1.143a1.194,1.194,0,0,0-.782.259.8.8,0,0,0-.316.646.737.737,0,0,0,.387.642,3.654,3.654,0,0,0,1.235.4,10.671,10.671,0,0,1,1.49.378,2.706,2.706,0,0,1,2.145,2.646,2.491,2.491,0,0,1-1.156,2.118,5.068,5.068,0,0,1-2.993.817,5.172,5.172,0,0,1-2.18-.439,3.645,3.645,0,0,1-1.494-1.2,2.707,2.707,0,0,1-.536-1.591h2.769a1.145,1.145,0,0,0,.439.962,1.808,1.808,0,0,0,1.081.3,1.422,1.422,0,0,0,.91-.246A.787.787,0,0,0,37.485,16.328Z" transform="translate(580.793 4921.637)" fill="#12263f"/>
    <path id="Trazado_103146" data-name="Trazado 103146" d="M11.654,19H8.587L4.052,11.037V19H.967V6.2H4.052l4.526,7.963V6.2h3.076Zm6.416.176a4.889,4.889,0,0,1-3.542-1.305,4.507,4.507,0,0,1-1.354-3.4v-.246a5.84,5.84,0,0,1,.541-2.575,3.955,3.955,0,0,1,1.578-1.727,4.763,4.763,0,0,1,2.461-.611,4.117,4.117,0,0,1,3.164,1.244,4.887,4.887,0,0,1,1.16,3.467v1.151H16.189a2.135,2.135,0,0,0,.694,1.257,2.066,2.066,0,0,0,1.389.457,2.662,2.662,0,0,0,2.2-.984l1.354,1.6a3.784,3.784,0,0,1-1.569,1.217A5.3,5.3,0,0,1,18.07,19.176ZM17.736,11.6q-1.3,0-1.547,1.723h2.988v-.229a1.467,1.467,0,0,0-.36-1.1A1.434,1.434,0,0,0,17.736,11.6Zm11.2,6.372a3.054,3.054,0,0,1-2.54,1.2,3,3,0,0,1-2.369-.91,3.826,3.826,0,0,1-.8-2.615V9.49h2.962v6.179a1.065,1.065,0,0,0,1.187,1.222,1.548,1.548,0,0,0,1.45-.729V9.49H31.8V19H29.021ZM36.87,7.126V9.49h1.564v2.057H36.87V15.9a1.111,1.111,0,0,0,.193.747,1.037,1.037,0,0,0,.765.211,4.345,4.345,0,0,0,.738-.053v2.118a5.466,5.466,0,0,1-1.67.255,3.1,3.1,0,0,1-2.259-.721,2.954,2.954,0,0,1-.729-2.188v-4.72H32.7V9.49h1.213V7.126Zm8.481,5.045-.976-.07a1.752,1.752,0,0,0-1.793.879V19H39.621V9.49H42.4l.1,1.222a2.294,2.294,0,0,1,2.083-1.4,2.888,2.888,0,0,1,.826.105Zm.378,1.986a5.613,5.613,0,0,1,.554-2.536,3.96,3.96,0,0,1,1.591-1.709,4.791,4.791,0,0,1,2.435-.6,4.373,4.373,0,0,1,3.366,1.323,5.076,5.076,0,0,1,1.23,3.6v.105a4.925,4.925,0,0,1-1.235,3.529,4.384,4.384,0,0,1-3.344,1.305,4.434,4.434,0,0,1-3.261-1.217,4.761,4.761,0,0,1-1.327-3.3Zm2.962.185a3.538,3.538,0,0,0,.413,1.934,1.376,1.376,0,0,0,1.222.615q1.582,0,1.617-2.435v-.3q0-2.558-1.635-2.558-1.485,0-1.608,2.206Zm12.5,1.986a.684.684,0,0,0-.4-.606,6.016,6.016,0,0,0-1.5-.475,6.853,6.853,0,0,1-1.828-.646,3.062,3.062,0,0,1-1.1-.971,2.319,2.319,0,0,1-.378-1.31,2.628,2.628,0,0,1,1.081-2.158,4.453,4.453,0,0,1,2.83-.848,4.934,4.934,0,0,1,3.023.853,2.666,2.666,0,0,1,1.143,2.241H61.093q0-1.143-1.2-1.143a1.194,1.194,0,0,0-.782.259.8.8,0,0,0-.316.646.737.737,0,0,0,.387.642,3.654,3.654,0,0,0,1.235.4,10.671,10.671,0,0,1,1.49.378,2.706,2.706,0,0,1,2.145,2.646,2.491,2.491,0,0,1-1.156,2.118,5.068,5.068,0,0,1-2.993.817,5.172,5.172,0,0,1-2.18-.439,3.645,3.645,0,0,1-1.494-1.2,2.707,2.707,0,0,1-.536-1.591h2.769a1.145,1.145,0,0,0,.439.962,1.808,1.808,0,0,0,1.081.3,1.422,1.422,0,0,0,.91-.246A.787.787,0,0,0,61.189,16.328Z" transform="translate(580.793 5054.193)" fill="#12263f"/>
    <g id="Grupo_57796" data-name="Grupo 57796" transform="translate(698.224 4523.969)">
      <g id="Grupo_57795" data-name="Grupo 57795" transform="translate(0 -0.001)">
        <g id="Grupo_57791" data-name="Grupo 57791" transform="translate(0 0)">
          <path id="Trazado_103139" data-name="Trazado 103139" d="M703.564,1652.772v-522.5a44.206,44.206,0,0,0-88.412,0v522.5a78.27,78.27,0,1,0,88.412,0Z" transform="translate(-580.124 -1085.103)" fill="#fff"/>
          <path id="Trazado_103140" data-name="Trazado 103140" d="M659.436,1796.659a79.22,79.22,0,0,1-45.166-144.313v-522a45.166,45.166,0,1,1,90.332,0v522a79.224,79.224,0,0,1-45.166,144.313Zm0-709.56a43.3,43.3,0,0,0-43.247,43.248v522.5a.949.949,0,0,1-.413.79,77.305,77.305,0,1,0,87.32,0,.952.952,0,0,1-.416-.79v-522.5A43.3,43.3,0,0,0,659.436,1087.1Z" transform="translate(-580.201 -1085.18)" fill="#cecece"/>
        </g>
        <g id="Grupo_57792" data-name="Grupo 57792" transform="translate(11.159 9.658)">
          <g id="Trazado_103141" data-name="Trazado 103141" transform="translate(-590.395 -1093.906)" fill="#e5e5e5" stroke-miterlimit="10">
            <path d="M 658.470947265625 1786.199340820312 C 649.2080078125 1786.199340820312 640.2215576171875 1784.38525390625 631.76123046875 1780.807373046875 C 627.695068359375 1779.087768554688 623.7733154296875 1776.95947265625 620.1050415039062 1774.481567382812 C 616.471923828125 1772.027465820312 613.0556640625 1769.209106445312 609.9510498046875 1766.104736328125 C 606.8463134765625 1763.000366210938 604.0276489257812 1759.58447265625 601.5733032226562 1755.951782226562 C 599.0950317382812 1752.283813476562 596.9664916992188 1748.3623046875 595.2467651367188 1744.29638671875 C 591.6683959960938 1735.836547851562 589.8540649414062 1726.8505859375 589.8540649414062 1717.587890625 C 589.8540649414062 1711.332275390625 590.6969604492188 1705.133056640625 592.3593139648438 1699.162719726562 C 593.970703125 1693.375366210938 596.347412109375 1687.814575195312 599.4234008789062 1682.634643554688 C 605.3497924804688 1672.654663085938 613.7499389648438 1664.295532226562 623.753662109375 1658.412841796875 L 623.753662109375 1137.279418945312 C 623.753662109375 1129.255126953125 624.6546630859375 1122.287109375 626.4317016601562 1116.569091796875 C 628.1096801757812 1111.169677734375 630.6232299804688 1106.705444335938 633.902587890625 1103.300537109375 C 636.9229736328125 1100.164428710938 640.6800537109375 1097.836181640625 645.0693969726562 1096.380615234375 C 648.9891357421875 1095.080810546875 653.3728637695312 1094.448974609375 658.470947265625 1094.448974609375 C 664.380859375 1094.448974609375 668.9794311523438 1095.012451171875 672.9427490234375 1096.222534179688 C 677.5117797851562 1097.617431640625 681.1473388671875 1099.874633789062 684.05712890625 1103.123413085938 C 687.1565551757812 1106.583862304688 689.39404296875 1111.120361328125 690.8973388671875 1116.992065429688 C 692.4373779296875 1123.007690429688 693.18603515625 1130.334350585938 693.18603515625 1139.390625 L 693.18603515625 1658.412841796875 C 703.190673828125 1664.29541015625 711.5914916992188 1672.654541015625 717.5182495117188 1682.634643554688 C 720.5942993164062 1687.814453125 722.9711303710938 1693.375366210938 724.5825805664062 1699.162719726562 C 726.2449340820312 1705.132934570312 727.0878295898438 1711.332153320312 727.0878295898438 1717.587890625 C 727.0878295898438 1726.850463867188 725.2733764648438 1735.836547851562 721.6948852539062 1744.296508789062 C 719.9750366210938 1748.3623046875 717.8463134765625 1752.283813476562 715.3680419921875 1755.951782226562 C 712.91357421875 1759.58447265625 710.0948486328125 1763.000366210938 706.9901123046875 1766.104736328125 C 703.8853759765625 1769.209106445312 700.4690551757812 1772.027465820312 696.8359375 1774.481567382812 C 693.1676635742188 1776.95947265625 689.2459716796875 1779.087768554688 685.1798706054688 1780.807373046875 C 676.7196044921875 1784.38525390625 667.7333984375 1786.199340820312 658.470947265625 1786.199340820312 Z" stroke="none"/>
            <path d="M 658.470947265625 1784.699340820312 C 695.537841796875 1784.699340820312 725.5878295898438 1754.65576171875 725.5878295898438 1717.587890625 C 725.5878295898438 1692.610717773438 711.9302368164062 1670.835693359375 691.68603515625 1659.277221679688 L 691.68603515625 1139.390625 C 691.68603515625 1103.26904296875 679.4343872070312 1095.948974609375 658.470947265625 1095.948974609375 C 640.1260375976562 1095.948974609375 625.253662109375 1104.551025390625 625.253662109375 1137.279418945312 L 625.253662109375 1659.277221679688 C 605.0116577148438 1670.835693359375 591.3540649414062 1692.610717773438 591.3540649414062 1717.587890625 C 591.3540649414062 1754.65576171875 621.4019775390625 1784.699340820312 658.470947265625 1784.699340820312 M 658.470947265625 1787.699340820312 C 649.0062255859375 1787.699340820312 639.8231201171875 1785.845336914062 631.1769409179688 1782.18896484375 C 627.0216064453125 1780.431640625 623.0139770507812 1778.256713867188 619.265380859375 1775.724609375 C 615.55322265625 1773.217041015625 612.0625610351562 1770.337280273438 608.890380859375 1767.16552734375 C 605.7182006835938 1763.99365234375 602.8381958007812 1760.503295898438 600.3303833007812 1756.79150390625 C 597.7979736328125 1753.043212890625 595.6227416992188 1749.035888671875 593.865234375 1744.880737304688 C 590.2083129882812 1736.234985351562 588.3540649414062 1727.052368164062 588.3540649414062 1717.587890625 C 588.3540649414062 1711.196166992188 589.2153930664062 1704.861694335938 590.9142456054688 1698.76025390625 C 592.5611572265625 1692.845581054688 594.9901123046875 1687.162475585938 598.1336669921875 1681.868774414062 C 604.0424194335938 1671.91845703125 612.357666015625 1663.545166015625 622.253662109375 1657.560913085938 L 622.253662109375 1137.279418945312 C 622.253662109375 1129.10400390625 623.1774291992188 1121.986206054688 624.9993286132812 1116.123901367188 C 626.7471923828125 1110.499267578125 629.3792114257812 1105.834838867188 632.8221435546875 1102.259887695312 C 636.012939453125 1098.946899414062 639.9746704101562 1096.48974609375 644.5972290039062 1094.956909179688 C 648.6716918945312 1093.605712890625 653.2098388671875 1092.948974609375 658.470947265625 1092.948974609375 C 664.53369140625 1092.948974609375 669.2713012695312 1093.533325195312 673.3807373046875 1094.787841796875 C 678.2189331054688 1096.264892578125 682.0767822265625 1098.664184570312 685.1744995117188 1102.122680664062 C 691.6636962890625 1109.367553710938 694.68603515625 1121.209716796875 694.68603515625 1139.390625 L 694.68603515625 1657.560913085938 C 704.5829467773438 1663.545043945312 712.8988037109375 1671.918334960938 718.8079223632812 1681.868774414062 C 721.9515991210938 1687.162353515625 724.3806762695312 1692.845458984375 726.027587890625 1698.76025390625 C 727.7265014648438 1704.861572265625 728.5878295898438 1711.196166992188 728.5878295898438 1717.587890625 C 728.5878295898438 1727.052368164062 726.7335205078125 1736.234985351562 723.0762939453125 1744.880859375 C 721.3187866210938 1749.035888671875 719.1434936523438 1753.043212890625 716.6109619140625 1756.79150390625 C 714.10302734375 1760.503295898438 711.2229614257812 1763.99365234375 708.0506591796875 1767.16552734375 C 704.8784790039062 1770.337280273438 701.3877563476562 1773.217041015625 697.6755981445312 1775.724609375 C 693.9270629882812 1778.256713867188 689.9193725585938 1780.431640625 685.7640380859375 1782.188842773438 C 677.117919921875 1785.845336914062 667.9352416992188 1787.699340820312 658.470947265625 1787.699340820312 Z" stroke="none" fill="#e5e5e5"/>
          </g>
          <path id="Trazado_103142" data-name="Trazado 103142" d="M658.547,1784.743A68.072,68.072,0,0,1,624.372,1657.8V1136.356c0-28.463,11.178-42.287,34.176-42.287,21.1,0,34.174,7.424,34.174,44.4V1657.8a68.071,68.071,0,0,1-34.174,126.945Zm0-688.755c-22.008,0-32.256,12.824-32.256,40.368v522.561l-.485.271a66.154,66.154,0,1,0,65.481,0l-.488-.271V1138.467C690.8,1102.935,678.973,1095.988,658.547,1095.988Z" transform="translate(-590.471 -1094.069)" fill="#fff"/>
        </g>
        <g id="Grupo_57794" data-name="Grupo 57794" transform="translate(12.118 10.614)">
          <g id="Grupo_57793" data-name="Grupo 57793" clip-path="url(#clip-path)">
            <rect id="Rectángulo_5447" data-name="Rectángulo 5447" width="95.614" height="50.071" transform="translate(19.173 -2.118)" fill="#d5b64c"/>
            <rect id="Rectángulo_5448" data-name="Rectángulo 5448" width="95.614" height="46.811" transform="translate(19.173 47.953)" fill="#4d2311"/>
            <rect id="Rectángulo_5449" data-name="Rectángulo 5449" width="95.614" height="46.811" transform="translate(19.173 94.764)" fill="#f4e703"/>
            <rect id="Rectángulo_5450" data-name="Rectángulo 5450" width="95.614" height="46.811" transform="translate(19.173 141.576)" fill="#e42622"/>
            <rect id="Rectángulo_5451" data-name="Rectángulo 5451" width="95.614" height="46.811" transform="translate(19.173 188.387)" fill="#eb007f"/>
            <rect id="Rectángulo_5452" data-name="Rectángulo 5452" width="95.614" height="46.811" transform="translate(19.173 235.198)" fill="#c5c5c5"/>
            <rect id="Rectángulo_5453" data-name="Rectángulo 5453" width="95.614" height="46.811" transform="translate(19.173 282.009)" fill="#029bdd"/>
            <rect id="Rectángulo_5454" data-name="Rectángulo 5454" width="95.614" height="46.811" transform="translate(19.173 328.82)" fill="#43b035"/>
            <rect id="Rectángulo_5455" data-name="Rectángulo 5455" width="95.614" height="46.811" transform="translate(19.173 375.631)" fill="#7d2283"/>
            <rect id="Rectángulo_5456" data-name="Rectángulo 5456" width="95.614" height="46.811" transform="translate(19.173 422.443)" fill="#747476"/>
            <rect id="Rectángulo_5457" data-name="Rectángulo 5457" width="95.614" height="46.811" transform="translate(19.173 469.254)" fill="#fff"/>
            <rect id="Rectángulo_5458" data-name="Rectángulo 5458" width="95.614" height="46.811" transform="translate(19.173 516.065)" fill="#010101"/>
            <circle id="Elipse_4406" data-name="Elipse 4406" cx="66.821" cy="66.821" r="66.821" transform="translate(0.702 554.184)" fill="#e5e5e5"/>
          </g>
        </g>
      </g>
      <g id="Page-1" transform="translate(41.564 586.723)">
        <g id="_050---Human-Brain" data-name="050---Human-Brain" transform="translate(0 0)">
          <path id="Shape" d="M26.662,72.678C31.616,74.919,33.788,83.8,33.788,83.8l36.258-.1a35.505,35.505,0,0,0-2.312-4.085,29.863,29.863,0,0,1-1.715-4.34,49.783,49.783,0,0,1-1.757-8.8,25.972,25.972,0,0,1,2-13.438c1.628-3.713,4.456-6.655,6.612-10.055a20.852,20.852,0,0,0,3.319-11.126,42,42,0,0,0-1.456-11.848A22.388,22.388,0,0,0,66.6,8.334C59.432,2.716,52.124-.425,42.871.046A95.219,95.219,0,0,0,29.1,2.023c-4.939.994-10.168,2.841-13.712,6.583A26.134,26.134,0,0,0,9.9,17.564a41.445,41.445,0,0,0-1.376,5.057A44.637,44.637,0,0,1,6.388,28.09a3.569,3.569,0,0,0-.311,1.721c.277,2,3.277,2.859,3.3,4.921A2.875,2.875,0,0,1,8.97,36.02,56.589,56.589,0,0,1,2.535,46.494c-.6.73-1.8,2.167-1.653,3.2.107.733.985,1.341,1.527,1.744,1.156.858,3.51,1.445,3.8,2.994a3.9,3.9,0,0,1-.273,2.338c-.8,1.686-1.685,2.585-1.056,3.114s2.312,1.8,2.312,1.8-1.6,2.043-.714,2.67c1.1.78,2.5,1.14,2.87,2.6a8.944,8.944,0,0,1-.341,3.439,7.051,7.051,0,0,0,.416,3.215,3.94,3.94,0,0,0,4.637,2.872,121.326,121.326,0,0,0,12.6-3.8" transform="translate(-0.869 0)" fill="#35495e"/>
          <path id="Shape-2" data-name="Shape" d="M43.568,49.981A4.393,4.393,0,0,1,39.5,47.252c-.393-.952-1.8-2.312-4.42-4.278-4.242-3.179-5.322-8.864-2.89-15.21l.867-2.241,24.163,4.447-4.731,4.739H52.47c-2.136,2.172-4.093,4.69-4.093,7.4a15.338,15.338,0,0,1-.756,4.976,4.235,4.235,0,0,1-4.046,2.9Z" transform="translate(12.498 11.355)" fill="#2c3e50"/>
          <path id="Shape-3" data-name="Shape" d="M55.456,46.587a15.759,15.759,0,0,1-5.086-.831,17.111,17.111,0,0,1-3.333-1.545,36.958,36.958,0,0,1-6.949-5.728,8.2,8.2,0,0,0-3.849-2.2,12.894,12.894,0,0,0-2.322-.322c-.289-.016-.613-.023-.938-.023a73.09,73.09,0,0,0-9.59,1.011l-1.967.289a19.077,19.077,0,0,1-2.6.188c-.273,0-.539,0-.795-.02a11.583,11.583,0,0,1-3.741-.714,9.778,9.778,0,0,1-6.254-8.275L8,28.216a14.941,14.941,0,0,1-.092-3.31,14.765,14.765,0,0,1,.315-2.466c.038-.165.6-2.566,1.043-4.023.1-.325.169-.542.237-.73.348-.923.707-1.757,1.075-2.51a22.686,22.686,0,0,1,3.807-5.491,16.961,16.961,0,0,1,5.515-3.7,27.042,27.042,0,0,1,3.153-1.156c1.134-.34,2.312-.634,3.514-.874,1.337-.276,2.737-.542,4.153-.792.88-.163,1.8-.312,2.711-.446,1.065-.163,2.13-.3,3.209-.418,1.043-.11,2.052-.2,3.062-.247.062,0,.144-.012.233-.016C40.5,2.014,41.056,2,41.6,2c.433,0,.854.016,1.264.03a26.307,26.307,0,0,1,3.2.306A28.261,28.261,0,0,1,55.05,5.349c.761.39,1.5.812,2.232,1.279A40.816,40.816,0,0,1,60.667,8.94c.344.253.682.513,1.035.79a18.921,18.921,0,0,1,1.865,1.618,18.521,18.521,0,0,1,5.275,8.568A35.484,35.484,0,0,1,70,26.286c.1,1.117.159,2.136.173,3.128.022.458.022.964.022,1.484a15.352,15.352,0,0,1-.12,1.8,15.6,15.6,0,0,1-.7,3.439,18.1,18.1,0,0,1-2.037,4.411,13.645,13.645,0,0,1-6.622,5.288,19.984,19.984,0,0,1-5.261.753Z" transform="translate(2.24 0.89)" fill="#2c3e50"/>
          <path id="Shape-4" data-name="Shape" d="M34,27.79c-.954,2.485-2.572,8.5,1.922,11.863,3.364,2.523,4.768,4.067,5.358,5.491a1.445,1.445,0,0,0,2.712,0,12.375,12.375,0,0,0,.6-4.046c0-4.161,3.005-7.586,5.765-10.259.014,0,.029-.014.043-.029Z" transform="translate(13.39 12.364)" fill="#df4d60"/>
          <path id="Shape-5" data-name="Shape" d="M66.4,28.563c-.014-.983-.072-1.951-.159-2.89a32.779,32.779,0,0,0-1.069-5.866A15.649,15.649,0,0,0,60.638,12.5a16.765,16.765,0,0,0-1.6-1.387c-.332-.26-.65-.506-.983-.751-1.084-.809-2.153-1.546-3.208-2.182-.679-.433-1.344-.809-2.023-1.156A25.412,25.412,0,0,0,44.744,4.3a23.355,23.355,0,0,0-2.875-.275C41.493,4.014,41.1,4,40.713,4c-.506,0-1.026.014-1.546.043-.072,0-.144.014-.217.014-.954.043-1.907.13-2.875.231-1.04.116-2.066.246-3.107.4-.881.13-1.763.275-2.63.433-1.387.246-2.76.506-4.089.78-1.156.231-2.24.506-3.251.809a24.509,24.509,0,0,0-2.818,1.026,14.068,14.068,0,0,0-4.595,3.049,19.631,19.631,0,0,0-3.309,4.768c-.347.708-.665,1.459-.954,2.225-.058.159-.116.347-.188.578-.419,1.387-.983,3.786-.983,3.786a12.57,12.57,0,0,0-.26,2.1,11.968,11.968,0,0,0,.1,2.861v.014A6.946,6.946,0,0,0,14.4,33.1a8.788,8.788,0,0,0,2.875.535,15.2,15.2,0,0,0,2.846-.144,76.281,76.281,0,0,1,13.062-1.3,15.872,15.872,0,0,1,2.861.4,11.038,11.038,0,0,1,5.173,2.933,34.833,34.833,0,0,0,6.415,5.317A13.76,13.76,0,0,0,59.049,42.16,10.869,10.869,0,0,0,64,38.114a15.278,15.278,0,0,0,1.734-3.771,12.691,12.691,0,0,0,.578-2.875,12.175,12.175,0,0,0,.1-1.459C66.418,29.517,66.418,29.04,66.4,28.563Z" transform="translate(3.127 1.78)" fill="#fb7b76"/>
          <path id="Shape-6" data-name="Shape" d="M17.291,17.445a4.348,4.348,0,0,1-4.335,4.335H9.994v-.014a11.968,11.968,0,0,1-.1-2.861.706.706,0,0,1,.173-.014h2.89A1.445,1.445,0,0,0,14.4,17.445a1.445,1.445,0,1,1,2.89,0Z" transform="translate(3.127 7.119)" fill="#ff5364"/>
          <path id="Shape-7" data-name="Shape" d="M15.89,23.445v2.037a.492.492,0,0,1-.014.144A8.788,8.788,0,0,1,13,25.092V23.445a1.445,1.445,0,0,1,2.89,0Z" transform="translate(4.528 9.788)" fill="#ff5364"/>
          <path id="Shape-8" data-name="Shape" d="M22.78,24.114H21.335A4.335,4.335,0,0,1,17,19.78V18.335A4.335,4.335,0,0,1,21.335,14H22.78a1.445,1.445,0,0,1,0,2.89H21.335a1.445,1.445,0,0,0-1.445,1.445V19.78a1.445,1.445,0,0,0,1.445,1.445H22.78a1.445,1.445,0,1,1,0,2.89Z" transform="translate(6.307 6.229)" fill="#ff5364"/>
          <path id="Shape-9" data-name="Shape" d="M18.34,13.445A1.445,1.445,0,0,1,16.9,14.89H11.231a1.407,1.407,0,0,1-.491-.087c.072-.231.13-.419.188-.578.289-.766.607-1.517.954-2.225H16.9A1.445,1.445,0,0,1,18.34,13.445Z" transform="translate(3.522 5.339)" fill="#ff5364"/>
          <path id="Shape-10" data-name="Shape" d="M22.78,13.278a1.445,1.445,0,0,1-1.445,1.445A4.348,4.348,0,0,1,17,10.388V6.906A24.509,24.509,0,0,1,19.818,5.88a1.531,1.531,0,0,1,.072.448v4.06a1.445,1.445,0,0,0,1.445,1.445A1.445,1.445,0,0,1,22.78,13.278Z" transform="translate(6.307 2.616)" fill="#ff5364"/>
          <path id="Shape-11" data-name="Shape" d="M25.89,21.669H24.445a1.445,1.445,0,0,1,0-2.89H25.89a1.445,1.445,0,0,0,1.445-1.445v-2.89a1.445,1.445,0,1,1,2.89,0v2.89A4.335,4.335,0,0,1,25.89,21.669Z" transform="translate(8.977 5.784)" fill="#ff5364"/>
          <path id="Shape-12" data-name="Shape" d="M33.114,16.224a1.445,1.445,0,0,1-1.445-1.445V13.335a1.445,1.445,0,0,0-1.445-1.445h-2.89a1.445,1.445,0,0,0-1.445,1.445V14.78a1.445,1.445,0,0,1-2.89,0V13.335A4.335,4.335,0,0,1,27.335,9h2.89a4.335,4.335,0,0,1,4.335,4.335V14.78A1.445,1.445,0,0,1,33.114,16.224Z" transform="translate(8.977 4.004)" fill="#ff5364"/>
          <path id="Shape-13" data-name="Shape" d="M26.89,5.231V6.676a1.445,1.445,0,1,1-2.89,0V5.231a1.131,1.131,0,0,1,.043-.318c.867-.159,1.748-.3,2.63-.433A1.345,1.345,0,0,1,26.89,5.231Z" transform="translate(9.422 1.993)" fill="#ff5364"/>
          <path id="Shape-14" data-name="Shape" d="M30.89,4.127V6.872a1.445,1.445,0,1,1-2.89,0v-2.6c.968-.1,1.922-.188,2.875-.231A.184.184,0,0,1,30.89,4.127Z" transform="translate(11.201 1.798)" fill="#ff5364"/>
          <path id="Shape-15" data-name="Shape" d="M37.78,11.216a1.445,1.445,0,0,1-1.445,1.445h-2.89A1.445,1.445,0,0,1,32,11.216V4.121a.246.246,0,0,1,.014-.1,23.355,23.355,0,0,1,2.875.275V9.771h1.445A1.445,1.445,0,0,1,37.78,11.216Z" transform="translate(12.981 1.789)" fill="#ff5364"/>
          <path id="Shape-16" data-name="Shape" d="M28.89,22.445v2.312a1.606,1.606,0,0,1-.029.275,15.872,15.872,0,0,0-2.861-.4V22.445a1.445,1.445,0,0,1,2.89,0Z" transform="translate(10.312 9.343)" fill="#ff5364"/>
          <path id="Shape-17" data-name="Shape" d="M35.78,24.224H34.335A4.335,4.335,0,0,1,30,19.89V18.445a1.445,1.445,0,0,1,2.89,0V19.89a1.445,1.445,0,0,0,1.445,1.445H35.78a1.445,1.445,0,1,1,0,2.89Z" transform="translate(12.091 7.563)" fill="#ff5364"/>
          <path id="Shape-18" data-name="Shape" d="M39.78,20.669H38.335a4.335,4.335,0,0,1,0-8.669H39.78a1.445,1.445,0,1,1,0,2.89H38.335a1.445,1.445,0,1,0,0,2.89H39.78a1.445,1.445,0,1,1,0,2.89Z" transform="translate(13.871 5.339)" fill="#ff5364"/>
          <path id="Shape-19" data-name="Shape" d="M41.89,7.4V11.74a1.445,1.445,0,1,1-2.89,0V7.4a1.445,1.445,0,0,1,.852-1.315c.679.347,1.344.722,2.023,1.156A.544.544,0,0,1,41.89,7.4Z" transform="translate(16.095 2.71)" fill="#ff5364"/>
          <path id="Shape-20" data-name="Shape" d="M46.78,10.538V13.6a4.348,4.348,0,0,1-4.335,4.335,1.445,1.445,0,1,1,0-2.89A1.445,1.445,0,0,0,43.89,13.6V9.281a1.445,1.445,0,0,1,.3-.881c.332.246.65.491.983.751A16.765,16.765,0,0,1,46.78,10.538Z" transform="translate(16.985 3.737)" fill="#ff5364"/>
          <path id="Shape-21" data-name="Shape" d="M40.89,25.669H39.445a1.445,1.445,0,0,1,0-2.89H40.89a1.445,1.445,0,0,0,1.445-1.445v-2.89a1.445,1.445,0,0,1,2.89,0v2.89A4.335,4.335,0,0,1,40.89,25.669Z" transform="translate(15.65 7.563)" fill="#ff5364"/>
          <path id="Shape-22" data-name="Shape" d="M46.114,26.445a1.445,1.445,0,0,1-1.445,1.445H40.335a1.445,1.445,0,0,0-1.445,1.445v2.89a1.453,1.453,0,0,1-.116.564A14.267,14.267,0,0,1,36,31.5V29.335A4.348,4.348,0,0,1,40.335,25h4.335a1.445,1.445,0,0,1,1.445,1.445Z" transform="translate(14.761 11.123)" fill="#ff5364"/>
          <path id="Shape-23" data-name="Shape" d="M50.765,21.89h-4.32a1.445,1.445,0,0,1,0-2.89h4.161C50.693,19.939,50.751,20.907,50.765,21.89Z" transform="translate(18.765 8.453)" fill="#ff5364"/>
          <path id="Shape-24" data-name="Shape" d="M50.678,23.015A12.691,12.691,0,0,1,50.1,25.89H46.445a1.445,1.445,0,0,1,0-2.89h4.031A.887.887,0,0,1,50.678,23.015Z" transform="translate(18.765 10.233)" fill="#ff5364"/>
        </g>
      </g>
    </g>
    <line id="Línea_159" data-name="Línea 159" x2="290.103" transform="translate(580.25 4770.066)" fill="none" stroke="#afafaf" stroke-width="2" stroke-dasharray="5"/>
    <line id="Línea_160" data-name="Línea 160" x2="290.103" transform="translate(580.25 4956.949)" fill="none" stroke="#afafaf" stroke-width="2" stroke-dasharray="5"/>
    <line id="Línea_161" data-name="Línea 161" x2="290.103" transform="translate(580.25 5088.419)" fill="none" stroke="#afafaf" stroke-width="2" stroke-dasharray="5"/>
    <rect id="Rectángulo_5467" data-name="Rectángulo 5467" width="610" height="735" transform="translate(495 4500)" fill="none"/>
  </g>
</svg>
