<svg xmlns="http://www.w3.org/2000/svg" width="177" height="159" viewBox="0 0 177 159">
  <g id="Grupo_57821" data-name="Grupo 57821" transform="translate(-285 -9637.372)">
    <rect id="Rect치ngulo_5257" data-name="Rect치ngulo 5257" width="177" height="159" transform="translate(285 9637.372)" fill="#e1ddfc" opacity="0.5"/>
    <g id="Grupo_55530" data-name="Grupo 55530" transform="translate(327 9669.47)">
      <rect id="Rect치ngulo_5248" data-name="Rect치ngulo 5248" width="94" height="94" transform="translate(0 -0.096)" fill="none"/>
      <g id="toxico" transform="translate(12.513 12.253)">
        <path id="Trazado_101128" data-name="Trazado 101128" d="M17.783,81.695l-8.6-.1c0-.048,0-.1,0-.143a6.107,6.107,0,0,0,4.419,10.323h5.614l35.38,35.38v5.614a6.107,6.107,0,0,0,10.323,4.419l-.143,0-.1-8.6Z" transform="translate(-6.482 -70.394)" fill="#ffcf70"/>
        <path id="Trazado_101129" data-name="Trazado 101129" d="M251.152,224.18l-5.759,5.759,7.2,7.2h5.759v-5.759Z" transform="translate(-212.083 -193.749)" fill="#ffcf70"/>
        <g id="Grupo_55528" data-name="Grupo 55528" transform="translate(2.705 1.018)">
          <path id="Trazado_101130" data-name="Trazado 101130" d="M38.6,19.223V13.608a6.108,6.108,0,0,0-12.217,0v2.036H24.349a6.089,6.089,0,0,0-4.419,1.894c0,.048,0,.095,0,.143a6.108,6.108,0,0,0,6.108,6.108h3.928a4.072,4.072,0,0,1,2.879,1.193l17.69,17.69,5.759-5.759Z" transform="translate(-19.927 -7.5)" fill="#ffeca1"/>
          <path id="Trazado_101131" data-name="Trazado 101131" d="M298.426,282.973l10.491,10.491a4.073,4.073,0,0,1,1.193,2.879v3.928a6.108,6.108,0,0,0,6.108,6.108l.142,0a6.089,6.089,0,0,0,1.894-4.419v-2.036h2.036a6.108,6.108,0,0,0,0-12.217h-5.614l-10.491-10.491Z" transform="translate(-260.622 -240.603)" fill="#ffeca1"/>
          <path id="Trazado_101132" data-name="Trazado 101132" d="M81.695,128.593l-.1,8.6-.143,0a6.107,6.107,0,0,0,10.323-4.419v-5.614l35.38-35.38h5.614a6.107,6.107,0,0,0,4.419-10.323c0,.048,0,.095,0,.143l-8.6.1Z" transform="translate(-73.099 -71.412)" fill="#ffeca1"/>
        </g>
        <path id="Trazado_101133" data-name="Trazado 101133" d="M54.6,19.222,19.223,54.6H13.608a6.108,6.108,0,1,0,0,12.217h2.036v2.036a6.089,6.089,0,0,0,1.894,4.419l.143,0a6.108,6.108,0,0,0,6.108-6.108V63.24a4.072,4.072,0,0,1,1.193-2.879l35.38-35.38a4.072,4.072,0,0,1,2.88-1.193h3.928a6.108,6.108,0,0,0,6.108-6.108c0-.048,0-.1,0-.143a6.089,6.089,0,0,0-4.419-1.894H66.819V13.607a6.108,6.108,0,0,0-12.217,0v5.614Z" transform="translate(-6.482 -6.481)" fill="#fff9e0"/>
        <path id="Trazado_101134" data-name="Trazado 101134" d="M485.054,248.5h-2.036a1.018,1.018,0,1,0,0,2.036h2.036a1.018,1.018,0,0,0,0-2.036Z" transform="translate(-416.572 -214.768)"/>
        <path id="Trazado_101135" data-name="Trazado 101135" d="M467.6,195.765a1.018,1.018,0,0,0-1.44,0l-1.44,1.44a1.018,1.018,0,0,0,1.44,1.44l1.44-1.44A1.018,1.018,0,0,0,467.6,195.765Z" transform="translate(-401.385 -168.934)"/>
        <path id="Trazado_101136" data-name="Trazado 101136" d="M464.725,291.224a1.018,1.018,0,0,0,0,1.44l1.44,1.44a1.018,1.018,0,0,0,1.44-1.44l-1.44-1.44A1.018,1.018,0,0,0,464.725,291.224Z" transform="translate(-401.384 -251.435)"/>
        <path id="Trazado_101137" data-name="Trazado 101137" d="M0,249.518a1.018,1.018,0,0,0,1.018,1.018H3.054a1.018,1.018,0,0,0,0-2.036H1.018A1.018,1.018,0,0,0,0,249.518Z" transform="translate(0 -214.768)"/>
        <path id="Trazado_101138" data-name="Trazado 101138" d="M25.145,197.205l-1.44-1.44a1.018,1.018,0,0,0-1.44,1.44l1.44,1.44a1.018,1.018,0,0,0,1.44-1.44Z" transform="translate(-18.985 -168.934)"/>
        <path id="Trazado_101139" data-name="Trazado 101139" d="M23.7,291.224l-1.44,1.44a1.018,1.018,0,0,0,1.44,1.44l1.44-1.44a1.018,1.018,0,0,0-1.44-1.44Z" transform="translate(-18.985 -251.435)"/>
        <path id="Trazado_101140" data-name="Trazado 101140" d="M62.373,47.1H57.181L44.828,34.75,57.181,22.4h5.193a7.126,7.126,0,1,0,0-14.253H61.355V7.126a7.126,7.126,0,1,0-14.253,0v5.193L34.75,24.671,22.4,12.319V7.126a7.126,7.126,0,0,0-14.253,0V8.145H7.126a7.126,7.126,0,1,0,0,14.253h5.193L22.512,32.59a1.018,1.018,0,0,0,1.44-1.44L13.461,20.66a1.019,1.019,0,0,0-.72-.3H7.126a5.09,5.09,0,1,1,0-10.181H9.163a1.018,1.018,0,0,0,1.018-1.018V7.126a5.09,5.09,0,0,1,10.181,0v5.614a1.018,1.018,0,0,0,.3.72L33.31,26.111,12.319,47.1H7.126a7.126,7.126,0,0,0,0,14.253H8.144v1.018a7.126,7.126,0,0,0,14.253,0V57.181L34.75,44.828,47.1,57.181v5.193a7.126,7.126,0,0,0,14.253,0V61.355h1.018a7.126,7.126,0,0,0,0-14.253ZM20.659,56.039a1.018,1.018,0,0,0-.3.72v5.614a5.09,5.09,0,0,1-10.181,0V60.337a1.018,1.018,0,0,0-1.018-1.018H7.126a5.09,5.09,0,1,1,0-10.181h5.614a1.018,1.018,0,0,0,.72-.3l35.38-35.38a1.018,1.018,0,0,0,.3-.72V7.126a5.09,5.09,0,0,1,10.181,0V9.163a1.018,1.018,0,0,0,1.018,1.018h2.036a5.09,5.09,0,1,1,0,10.181H56.759a1.018,1.018,0,0,0-.72.3Zm41.714,3.28H60.337a1.018,1.018,0,0,0-1.018,1.018v2.036a5.09,5.09,0,0,1-10.181,0V56.759a1.018,1.018,0,0,0-.3-.72L36.19,43.389l7.2-7.2L56.039,48.84a1.018,1.018,0,0,0,.72.3h5.614a5.09,5.09,0,0,1,0,10.181Z" transform="translate(0 0)"/>
      </g>
    </g>
  </g>
</svg>
