<svg id="info_1_4-02" xmlns="http://www.w3.org/2000/svg" width="426.789" height="227.525" viewBox="0 0 426.789 227.525">
  <rect id="Rectángulo_5375" data-name="Rectángulo 5375" width="53.345" height="54.526" transform="translate(0 173)" fill="#fcee21"/>
  <g id="Grupo_57680" data-name="Grupo 57680">
    <rect id="Rectángulo_5376" data-name="Rectángulo 5376" width="213.395" height="173" fill="#fcee21"/>
    <rect id="Rectángulo_5377" data-name="Rectángulo 5377" width="213.395" height="227.526" transform="translate(213.395)" fill="#f2f2f2"/>
    <g id="Grupo_57672" data-name="Grupo 57672" transform="translate(53.345 173)" opacity="0.75">
      <rect id="Rectángulo_5378" data-name="Rectángulo 5378" width="53.345" height="54.526" fill="#fcee21"/>
    </g>
    <g id="Grupo_57673" data-name="Grupo 57673" transform="translate(106.697 173)" opacity="0.5">
      <rect id="Rectángulo_5379" data-name="Rectángulo 5379" width="53.345" height="54.526" fill="#fcee21"/>
    </g>
    <g id="Grupo_57674" data-name="Grupo 57674" transform="translate(160.042 173)" opacity="0.25">
      <rect id="Rectángulo_5380" data-name="Rectángulo 5380" width="53.345" height="54.526" fill="#fcee21"/>
    </g>
    <g id="Grupo_57675" data-name="Grupo 57675" transform="translate(238.386 40.819)">
      <path id="Trazado_102146" data-name="Trazado 102146" d="M330.578,75.893,329.1,71.706h-8.527L319.1,75.893H314.78l7.475-20.3h5.157l7.475,20.3Zm-8.77-7.709h6.058l-3.029-8.618Z" transform="translate(-314.78 -54.31)"/>
      <path id="Trazado_102147" data-name="Trazado 102147" d="M361.772,63a5.5,5.5,0,0,1,3.726,1.174,4.188,4.188,0,0,1,1.386,3.37V77.689H362.84V68.654a2.408,2.408,0,0,0-.651-1.825,2.272,2.272,0,0,0-1.628-.621,2.628,2.628,0,0,0-1.969.757,3.612,3.612,0,0,0-.757,2.545v8.179h-4.089V68.7a2.477,2.477,0,0,0-.644-1.863,2.317,2.317,0,0,0-1.674-.629,2.537,2.537,0,0,0-1.954.833,3.946,3.946,0,0,0-.757,2.711v7.937H344.68V63.247h4.029v1.7A4.915,4.915,0,0,1,352.882,63a6.18,6.18,0,0,1,2.719.553,3.7,3.7,0,0,1,1.7,1.605A5.119,5.119,0,0,1,361.772,63Z" transform="translate(-322.036 -56.106)"/>
      <path id="Trazado_102148" data-name="Trazado 102148" d="M390.677,73.763a13.476,13.476,0,0,0,.348,3.521v.394h-3.786l-.326-1.575a4.687,4.687,0,0,1-2.022,1.393,7.413,7.413,0,0,1-2.613.462,6.975,6.975,0,0,1-1.348-.121,4.544,4.544,0,0,1-1.219-.432,3.839,3.839,0,0,1-1-.757,3.318,3.318,0,0,1-.674-1.144,4.477,4.477,0,0,1-.258-1.568,4.257,4.257,0,0,1,.273-1.568,3.658,3.658,0,0,1,.7-1.174,4.3,4.3,0,0,1,1.143-.856,8.188,8.188,0,0,1,1.431-.621,16.221,16.221,0,0,1,1.712-.447l2.378-.538a2.628,2.628,0,0,0,1.075-.454.908.908,0,0,0,.318-.757,1.515,1.515,0,0,0-.712-1.386,3.256,3.256,0,0,0-1.719-.424c-1.659,0-2.605.757-2.825,2.2l-3.6-.606a4.847,4.847,0,0,1,2.1-3.294,8.277,8.277,0,0,1,4.544-1.06q6.058,0,6.058,5.21Zm-7.126,1.462a3.256,3.256,0,0,0,2.5-1.053,4.377,4.377,0,0,0,.985-3.1l-3.438,1a4.144,4.144,0,0,0-1.446.591,1.2,1.2,0,0,0-.492,1.038,1.356,1.356,0,0,0,.53,1.151A2.226,2.226,0,0,0,383.551,75.224Z" transform="translate(-330.069 -56.095)"/>
      <path id="Trazado_102149" data-name="Trazado 102149" d="M403.877,65.552a4.748,4.748,0,0,1,1.9-1.734,5.741,5.741,0,0,1,2.825-.757v3.6a5.505,5.505,0,0,0-3.461.894,3.815,3.815,0,0,0-1.068,3.1v7.051H400V63.264h3.877Z" transform="translate(-335.462 -56.123)"/>
      <path id="Trazado_102150" data-name="Trazado 102150" d="M416.468,58.98a2.34,2.34,0,0,1-2.348-2.333,2.219,2.219,0,0,1,.7-1.636,2.272,2.272,0,0,1,1.651-.682,2.325,2.325,0,1,1,0,4.65ZM414.4,75.588V61.146h4.082V75.588Z" transform="translate(-338.889 -54.004)"/>
      <path id="Trazado_102151" data-name="Trazado 102151" d="M425.4,75.483V53.9h4.09V75.483Z" transform="translate(-341.626 -53.9)"/>
      <path id="Trazado_102152" data-name="Trazado 102152" d="M436.33,75.483V53.9h4.09V75.483Z" transform="translate(-344.279 -53.9)"/>
      <path id="Trazado_102153" data-name="Trazado 102153" d="M453.611,77.962a9.088,9.088,0,0,1-4.089-.886,6.535,6.535,0,0,1-2.8-2.6A7.718,7.718,0,0,1,445.7,70.45a7.073,7.073,0,0,1,2.2-5.483,9.171,9.171,0,0,1,11.451,0,7.066,7.066,0,0,1,2.189,5.483,7.1,7.1,0,0,1-2.189,5.5,8.111,8.111,0,0,1-5.733,2.014Zm-.045-3.219a3.734,3.734,0,0,0,2.863-1.151,5.006,5.006,0,0,0,0-6.24,3.711,3.711,0,0,0-2.863-1.181,3.567,3.567,0,0,0-2.772,1.189,5.044,5.044,0,0,0,0,6.225A3.582,3.582,0,0,0,453.566,74.744Z" transform="translate(-346.55 -56.099)"/>
    </g>
    <g id="Grupo_57676" data-name="Grupo 57676" transform="translate(242.059 114.293)">
      <path id="Trazado_102154" data-name="Trazado 102154" d="M324.861,152.2h-3.378v2.726h2.976v.947h-2.976v2.764h3.378v.962H320.4v-8.33h4.461Z" transform="translate(-319.817 -151.005)"/>
      <path id="Trazado_102155" data-name="Trazado 102155" d="M331.369,154.389a2.037,2.037,0,0,1,1.462.53,1.969,1.969,0,0,1,.545,1.515v3.915h-1.022v-3.688a1.356,1.356,0,0,0-.356-1.038,1.25,1.25,0,0,0-.909-.341,1.424,1.424,0,0,0-1.038.4,1.659,1.659,0,0,0-.409,1.189v3.476H328.62v-5.816h1.045v.757A1.939,1.939,0,0,1,331.369,154.389Z" transform="translate(-321.812 -151.762)"/>
      <path id="Trazado_102156" data-name="Trazado 102156" d="M339.121,159.74a1.515,1.515,0,0,1-1.136-.417,1.568,1.568,0,0,1-.416-1.159v-3.423H336.38v-.818h.439a.818.818,0,0,0,.636-.2.978.978,0,0,0,.189-.682V152h.954v1.939h1.28v.818h-1.333v3.3a.886.886,0,0,0,.22.636.757.757,0,0,0,.583.227h.53v.818Z" transform="translate(-323.695 -151.182)"/>
      <path id="Trazado_102157" data-name="Trazado 102157" d="M346.589,154.535h1.022v5.816h-.985v-.757a1.862,1.862,0,0,1-.719.651,2.271,2.271,0,0,1-1.022.227,2.029,2.029,0,0,1-1.462-.523,1.984,1.984,0,0,1-.545-1.515V154.52H343.9v3.688a1.386,1.386,0,0,0,.356,1.037,1.257,1.257,0,0,0,.916.348,1.394,1.394,0,0,0,1.03-.4,1.674,1.674,0,0,0,.409-1.189Z" transform="translate(-325.271 -151.794)"/>
      <path id="Trazado_102158" data-name="Trazado 102158" d="M353.565,160.445a2.749,2.749,0,0,1-1.568-.417,1.749,1.749,0,0,1-.757-1.2l.894-.257a1.227,1.227,0,0,0,.439.833,1.567,1.567,0,0,0,.954.288,2.135,2.135,0,0,0,.56-.076.97.97,0,0,0,.432-.288.757.757,0,0,0,.167-.53.627.627,0,0,0-.045-.242,1.509,1.509,0,0,0-.091-.189.485.485,0,0,0-.167-.159,1.453,1.453,0,0,0-.47-.235l-.28-.1-.326-.091-.333-.1a5.944,5.944,0,0,1-.606-.212,2.771,2.771,0,0,1-.492-.28,1.129,1.129,0,0,1-.379-.462,1.559,1.559,0,0,1-.129-.651,1.514,1.514,0,0,1,.288-.931,1.605,1.605,0,0,1,.757-.545,2.908,2.908,0,0,1,1.03-.167,2.544,2.544,0,0,1,1.416.379,1.62,1.62,0,0,1,.712,1.136l-.841.212a1.113,1.113,0,0,0-.447-.757,1.393,1.393,0,0,0-.833-.25,1.424,1.424,0,0,0-.757.2.689.689,0,0,0-.326.629.644.644,0,0,0,.083.318.757.757,0,0,0,.492.4,3.229,3.229,0,0,0,.348.129l.424.106h.091l.553.159a4.105,4.105,0,0,1,.507.212,1.842,1.842,0,0,1,.454.318,1.589,1.589,0,0,1,.4,1.075,1.75,1.75,0,0,1-.174.757,1.409,1.409,0,0,1-.477.53,2.123,2.123,0,0,1-.682.3A3.091,3.091,0,0,1,353.565,160.445Z" transform="translate(-327.301 -151.774)"/>
      <path id="Trazado_102159" data-name="Trazado 102159" d="M359.779,152.3a.659.659,0,0,1-.485-.2.674.674,0,0,1-.2-.492.659.659,0,0,1,.2-.485.681.681,0,0,1,.485-.2.7.7,0,0,1,.485.2.658.658,0,0,1,.2.485A.7.7,0,0,1,359.779,152.3Zm-.523,7.179v-5.816h1.03v5.816Z" transform="translate(-329.206 -150.92)"/>
      <path id="Trazado_102160" data-name="Trazado 102160" d="M364.579,160.437a1.992,1.992,0,0,1-1.28-.4,1.424,1.424,0,0,1-.5-1.189,1.665,1.665,0,0,1,.159-.757,1.287,1.287,0,0,1,.477-.53,2.59,2.59,0,0,1,.682-.333,7.32,7.32,0,0,1,.886-.212l.939-.151c.341-.061.515-.242.515-.538a1.007,1.007,0,0,0-.364-.863,1.462,1.462,0,0,0-.924-.28,1.515,1.515,0,0,0-.909.265,1.144,1.144,0,0,0-.432.818l-.924-.2a1.817,1.817,0,0,1,.757-1.242,2.726,2.726,0,0,1,1.59-.417,3.271,3.271,0,0,1,.841.106,2.136,2.136,0,0,1,.7.326,1.416,1.416,0,0,1,.5.621,2.34,2.34,0,0,1,.182.962v2.4a.977.977,0,0,0,.136.606.568.568,0,0,0,.454.159h.1v.757h-.507c-.629,0-1-.257-1.106-.757h-.045a2.2,2.2,0,0,1-1.931.848Zm.235-.825a1.552,1.552,0,0,0,1.25-.568,2.333,2.333,0,0,0,.47-1.515l-1.515.3a2.03,2.03,0,0,0-.9.326.847.847,0,0,0-.015,1.272,1.174,1.174,0,0,0,.712.189Z" transform="translate(-330.106 -151.766)"/>
      <path id="Trazado_102161" data-name="Trazado 102161" d="M373.435,160.438a2.779,2.779,0,0,1-1.568-.417,1.741,1.741,0,0,1-.757-1.2l.894-.257a1.226,1.226,0,0,0,.477.81,1.514,1.514,0,0,0,.954.288,2.179,2.179,0,0,0,.56-.076.909.909,0,0,0,.424-.288.758.758,0,0,0,.174-.53,1.154,1.154,0,0,0-.045-.242.889.889,0,0,0-.1-.189.485.485,0,0,0-.167-.159l-.2-.129-.265-.106-.28-.1-.326-.091-.341-.1a5.723,5.723,0,0,1-.6-.212,2.524,2.524,0,0,1-.492-.28,1.082,1.082,0,0,1-.386-.462,1.56,1.56,0,0,1-.121-.651,1.515,1.515,0,0,1,.28-.931,1.605,1.605,0,0,1,.757-.545,2.953,2.953,0,0,1,1.038-.167,2.545,2.545,0,0,1,1.416.379,1.59,1.59,0,0,1,.7,1.136l-.841.212a1.106,1.106,0,0,0-.439-.757,1.416,1.416,0,0,0-.841-.25,1.446,1.446,0,0,0-.757.2.7.7,0,0,0-.326.629.576.576,0,0,0,.091.318.811.811,0,0,0,.174.227.909.909,0,0,0,.318.174,2.726,2.726,0,0,0,.341.129l.424.106h.091l.56.159a4.058,4.058,0,0,1,.5.212,1.591,1.591,0,0,1,.454.318,1.516,1.516,0,0,1,.288.447,1.689,1.689,0,0,1,.114.629,1.651,1.651,0,0,1-.174.757,1.3,1.3,0,0,1-.477.53,2.008,2.008,0,0,1-.674.3,3.106,3.106,0,0,1-.863.174Z" transform="translate(-332.124 -151.767)"/>
      <path id="Trazado_102162" data-name="Trazado 102162" d="M380.719,159.74a1.515,1.515,0,0,1-1.136-.417,1.6,1.6,0,0,1-.417-1.159v-3.423H378v-.818h.439a.84.84,0,0,0,.644-.2,1.014,1.014,0,0,0,.189-.682V152h.947v1.939h1.34v.818H380.2v3.3a.864.864,0,0,0,.227.636.757.757,0,0,0,.583.227h.53v.818Z" transform="translate(-333.796 -151.182)"/>
      <path id="Trazado_102163" data-name="Trazado 102163" d="M385.731,160.437a1.984,1.984,0,0,1-1.272-.4,1.424,1.424,0,0,1-.5-1.189,1.664,1.664,0,0,1,.159-.757,1.317,1.317,0,0,1,.47-.53,2.764,2.764,0,0,1,.689-.333,7.15,7.15,0,0,1,.878-.212l.947-.151c.341-.061.515-.242.515-.538a1.007,1.007,0,0,0-.364-.863,1.461,1.461,0,0,0-.924-.28,1.514,1.514,0,0,0-.909.265,1.1,1.1,0,0,0-.432.818l-.924-.2a1.765,1.765,0,0,1,.757-1.242,2.7,2.7,0,0,1,1.583-.417,3.293,3.293,0,0,1,.848.106,2.273,2.273,0,0,1,.7.326,1.469,1.469,0,0,1,.5.621,2.338,2.338,0,0,1,.182.962v2.4a1.038,1.038,0,0,0,.129.606.576.576,0,0,0,.462.159h.061v.757h-.507a.962.962,0,0,1-1.1-.757h-.045a2.211,2.211,0,0,1-1.908.848Zm.235-.825a1.515,1.515,0,0,0,1.25-.568,2.272,2.272,0,0,0,.477-1.515l-1.515.3a1.992,1.992,0,0,0-.9.326.847.847,0,0,0-.015,1.272A1.166,1.166,0,0,0,385.966,159.612Z" transform="translate(-335.241 -151.766)"/>
      <path id="Trazado_102164" data-name="Trazado 102164" d="M323.78,178.828a4.491,4.491,0,0,1-1.643-.3,4.258,4.258,0,0,1-1.318-.841,3.786,3.786,0,0,1-.871-1.356,5.179,5.179,0,0,1,0-3.575,3.854,3.854,0,0,1,.878-1.356,4.006,4.006,0,0,1,1.31-.841,4.491,4.491,0,0,1,1.643-.3,4.406,4.406,0,0,1,1.621.3,3.787,3.787,0,0,1,2.2,2.189,4.833,4.833,0,0,1,.318,1.78,4.915,4.915,0,0,1-.318,1.795,3.962,3.962,0,0,1-.878,1.356,4.09,4.09,0,0,1-1.318.841A4.4,4.4,0,0,1,323.78,178.828Zm0-1a3.029,3.029,0,0,0,2.2-.878,3.286,3.286,0,0,0,.871-2.408,3.787,3.787,0,0,0-.242-1.378,2.757,2.757,0,0,0-1.628-1.659,3.453,3.453,0,0,0-2.423,0,2.886,2.886,0,0,0-.977.629,2.8,2.8,0,0,0-.659,1.03,3.785,3.785,0,0,0-.242,1.378,3.915,3.915,0,0,0,.242,1.4,2.839,2.839,0,0,0,.659,1.038,3.136,3.136,0,0,0,.977.629A3.386,3.386,0,0,0,323.78,177.828Z" transform="translate(-319.63 -155.616)"/>
      <path id="Trazado_102165" data-name="Trazado 102165" d="M336,173.59a2.62,2.62,0,0,1,1.053.22,2.545,2.545,0,0,1,.863.591,2.9,2.9,0,0,1,.583.962,3.561,3.561,0,0,1,.212,1.257,3.029,3.029,0,0,1-.757,2.189,2.537,2.537,0,0,1-1.931.841,2.317,2.317,0,0,1-1.219-.333,2.2,2.2,0,0,1-.833-.894v4.029H332.9V173.7h.992v1.128a2.1,2.1,0,0,1,.825-.9A2.309,2.309,0,0,1,336,173.59Zm-.2,5.165a1.75,1.75,0,0,0,1.348-.583,2.484,2.484,0,0,0,0-3.1,1.749,1.749,0,0,0-1.348-.583,1.787,1.787,0,0,0-1.363.606,2.37,2.37,0,0,0,0,3.029,1.765,1.765,0,0,0,1.333.636Z" transform="translate(-322.85 -156.421)"/>
      <path id="Trazado_102166" data-name="Trazado 102166" d="M344.963,179.633a3.029,3.029,0,0,1-1.515-.364,2.59,2.59,0,0,1-1.045-1.053,3.173,3.173,0,0,1-.394-1.605,3.029,3.029,0,0,1,.826-2.2,3.1,3.1,0,0,1,4.211,0,3.332,3.332,0,0,1,0,4.392A2.84,2.84,0,0,1,344.963,179.633Zm0-.848a1.8,1.8,0,0,0,1.378-.6,2.272,2.272,0,0,0,.545-1.575,2.219,2.219,0,0,0-.545-1.568,1.78,1.78,0,0,0-1.378-.6,1.757,1.757,0,0,0-1.363.6,2.565,2.565,0,0,0,0,3.143,1.787,1.787,0,0,0,1.356.6Z" transform="translate(-325.061 -156.422)"/>
      <path id="Trazado_102167" data-name="Trazado 102167" d="M352.9,174.75a1.772,1.772,0,0,1,.719-.757,2.158,2.158,0,0,1,1.121-.3v.962a1.915,1.915,0,0,0-1.356.432,1.8,1.8,0,0,0-.462,1.378v3.1H351.9v-5.816h1Z" transform="translate(-327.462 -156.446)"/>
      <path id="Trazado_102168" data-name="Trazado 102168" d="M359.251,178.935a1.515,1.515,0,0,1-1.136-.417,1.568,1.568,0,0,1-.417-1.159v-3.423H356.51v-.818h.439a.856.856,0,0,0,.644-.2,1.023,1.023,0,0,0,.182-.682V171.18h.954v1.939h1.34v.818h-1.34v3.317a.863.863,0,0,0,.227.636.757.757,0,0,0,.576.227h.538v.818Z" transform="translate(-328.58 -155.837)"/>
      <path id="Trazado_102169" data-name="Trazado 102169" d="M366.739,173.735h1.022v5.816h-.977v-.757a1.833,1.833,0,0,1-.757.651,2.2,2.2,0,0,1-1.015.227,2.022,2.022,0,0,1-1.462-.523,1.961,1.961,0,0,1-.553-1.515V173.72h1.022v3.688a1.364,1.364,0,0,0,.364,1.038,1.227,1.227,0,0,0,.909.348,1.409,1.409,0,0,0,1.038-.4,1.636,1.636,0,0,0,.4-1.189Z" transform="translate(-330.154 -156.453)"/>
      <path id="Trazado_102170" data-name="Trazado 102170" d="M374.779,173.589a2.022,2.022,0,0,1,1.462.53,1.969,1.969,0,0,1,.553,1.515v3.915h-1.007v-3.681a1.363,1.363,0,0,0-.356-1.045,1.25,1.25,0,0,0-.909-.341,1.424,1.424,0,0,0-1.038.4,1.621,1.621,0,0,0-.4,1.189v3.476H372v-5.816h1.03v.757A1.931,1.931,0,0,1,374.779,173.589Z" transform="translate(-332.34 -156.421)"/>
      <path id="Trazado_102171" data-name="Trazado 102171" d="M381.4,171.5a.659.659,0,0,1-.485-.2.674.674,0,0,1-.2-.492.659.659,0,0,1,.2-.485.7.7,0,0,1,.969,0,.659.659,0,0,1,.2.485.674.674,0,0,1-.2.492A.659.659,0,0,1,381.4,171.5Zm-.523,7.179v-5.816h1.03v5.816Z" transform="translate(-334.453 -155.58)"/>
      <path id="Trazado_102172" data-name="Trazado 102172" d="M389.2,169.42h1.022v9.088h-.992v-1.128a2.143,2.143,0,0,1-.825.916,2.31,2.31,0,0,1-1.234.341,2.62,2.62,0,0,1-1.053-.22,2.476,2.476,0,0,1-.863-.606,2.72,2.72,0,0,1-.591-.962,3.479,3.479,0,0,1-.212-1.242,3.083,3.083,0,0,1,.757-2.189,2.56,2.56,0,0,1,1.931-.841,2.317,2.317,0,0,1,1.219.333,2.181,2.181,0,0,1,.833.886Zm-1.84,8.33a1.735,1.735,0,0,0,1.356-.606,2.416,2.416,0,0,0,0-3.029,1.827,1.827,0,0,0-2.711-.023,2.189,2.189,0,0,0-.553,1.552A2.159,2.159,0,0,0,386,177.16a1.772,1.772,0,0,0,1.356.583Z" transform="translate(-335.36 -155.41)"/>
      <path id="Trazado_102173" data-name="Trazado 102173" d="M396.021,179.637a1.939,1.939,0,0,1-1.272-.4,1.424,1.424,0,0,1-.5-1.189,1.666,1.666,0,0,1,.159-.757,1.318,1.318,0,0,1,.47-.53,2.762,2.762,0,0,1,.689-.333,6.062,6.062,0,0,1,.878-.2l.947-.159c.341-.061.515-.242.515-.538a.992.992,0,0,0-.371-.863,1.439,1.439,0,0,0-.916-.28,1.515,1.515,0,0,0-.909.265,1.1,1.1,0,0,0-.432.818l-.924-.189a1.764,1.764,0,0,1,.757-1.25,2.681,2.681,0,0,1,1.583-.417,3.292,3.292,0,0,1,.848.106,2.269,2.269,0,0,1,.7.326,1.469,1.469,0,0,1,.5.621,2.339,2.339,0,0,1,.182.962v2.4a1.038,1.038,0,0,0,.129.606.576.576,0,0,0,.462.159h.091v.757H399.1a.962.962,0,0,1-1.1-.757h-.045a2.226,2.226,0,0,1-1.939.848Zm.235-.825a1.515,1.515,0,0,0,1.25-.568,2.272,2.272,0,0,0,.477-1.515l-1.515.3a2.068,2.068,0,0,0-.909.326.855.855,0,0,0-.008,1.272,1.166,1.166,0,0,0,.7.189Z" transform="translate(-337.738 -156.425)"/>
      <path id="Trazado_102174" data-name="Trazado 102174" d="M407.2,169.42h1.022v9.088h-.992v-1.128a2.143,2.143,0,0,1-.825.916,2.31,2.31,0,0,1-1.234.341,2.62,2.62,0,0,1-1.053-.22,2.476,2.476,0,0,1-.863-.606,2.719,2.719,0,0,1-.591-.962,3.475,3.475,0,0,1-.212-1.242,3.083,3.083,0,0,1,.757-2.189,2.56,2.56,0,0,1,1.931-.841,2.317,2.317,0,0,1,1.219.333,2.182,2.182,0,0,1,.833.886Zm-1.84,8.33a1.735,1.735,0,0,0,1.356-.606,2.416,2.416,0,0,0,0-3.029,1.827,1.827,0,0,0-2.711-.023,2.189,2.189,0,0,0-.553,1.552A2.158,2.158,0,0,0,404,177.16a1.772,1.772,0,0,0,1.356.583Z" transform="translate(-339.728 -155.41)"/>
      <path id="Trazado_102175" data-name="Trazado 102175" d="M324.861,190.589h-3.378v2.726h2.976v.947h-2.976v2.726h3.378v.962H320.4v-8.33h4.461Z" transform="translate(-319.817 -160.312)"/>
      <path id="Trazado_102176" data-name="Trazado 102176" d="M327.54,198.756l2.234-2.908-2.234-2.908H328.8l1.613,2.227,1.606-2.227h1.242l-2.272,2.908,2.272,2.908h-1.25l-1.6-2.211-1.613,2.211Z" transform="translate(-321.55 -161.118)"/>
      <path id="Trazado_102177" data-name="Trazado 102177" d="M339.834,192.79a2.62,2.62,0,0,1,1.053.22,2.544,2.544,0,0,1,.863.591,2.818,2.818,0,0,1,.583.962,3.568,3.568,0,0,1,.22,1.257,3.029,3.029,0,0,1-.757,2.189,2.537,2.537,0,0,1-1.931.841,2.34,2.34,0,0,1-1.219-.333,2.181,2.181,0,0,1-.825-.894v4.029h-1.03V192.9h.992v1.128a2.158,2.158,0,0,1,.825-.9A2.31,2.31,0,0,1,339.834,192.79Zm-.2,5.165a1.75,1.75,0,0,0,1.348-.583,2.484,2.484,0,0,0,0-3.1,1.749,1.749,0,0,0-1.348-.583,1.787,1.787,0,0,0-1.363.606,2.371,2.371,0,0,0,0,3.029A1.787,1.787,0,0,0,339.63,197.955Z" transform="translate(-323.795 -161.081)"/>
      <path id="Trazado_102178" data-name="Trazado 102178" d="M348.815,198.834a3.029,3.029,0,0,1-1.515-.363,2.59,2.59,0,0,1-1.045-1.053,3.248,3.248,0,0,1-.386-1.605,2.968,2.968,0,0,1,.825-2.2,3.09,3.09,0,0,1,4.2,0,3.332,3.332,0,0,1,0,4.392A2.84,2.84,0,0,1,348.815,198.834Zm0-.848a1.8,1.8,0,0,0,1.378-.6,2.272,2.272,0,0,0,.545-1.575,2.219,2.219,0,0,0-.545-1.568,1.779,1.779,0,0,0-1.378-.6,1.757,1.757,0,0,0-1.363.6,2.565,2.565,0,0,0,0,3.143,1.787,1.787,0,0,0,1.356.6Z" transform="translate(-325.997 -161.082)"/>
      <path id="Trazado_102179" data-name="Trazado 102179" d="M358.491,192.789a2.052,2.052,0,0,1,1.469.53,1.969,1.969,0,0,1,.545,1.515v3.915h-1.022v-3.688a1.386,1.386,0,0,0-.356-1.037,1.272,1.272,0,0,0-.916-.341,1.4,1.4,0,0,0-1.03.4,1.6,1.6,0,0,0-.409,1.189v3.476H355.75v-5.816h1.022v.757A1.939,1.939,0,0,1,358.491,192.789Z" transform="translate(-328.396 -161.081)"/>
      <path id="Trazado_102180" data-name="Trazado 102180" d="M366.211,198.13a1.515,1.515,0,0,1-1.136-.417,1.6,1.6,0,0,1-.417-1.159v-3.438H363.47V192.3h.439a.841.841,0,0,0,.644-.2,1.015,1.015,0,0,0,.189-.682V190.36h.947V192.3h1.34v.818h-1.34v3.317a.863.863,0,0,0,.227.636.757.757,0,0,0,.583.227h.53v.818Z" transform="translate(-330.269 -160.492)"/>
      <path id="Trazado_102181" data-name="Trazado 102181" d="M371.231,198.837a1.984,1.984,0,0,1-1.272-.4,1.424,1.424,0,0,1-.5-1.189,1.666,1.666,0,0,1,.159-.757,1.317,1.317,0,0,1,.47-.53,2.764,2.764,0,0,1,.689-.333,7.162,7.162,0,0,1,.879-.212l.947-.151c.341-.061.515-.242.515-.538a1.007,1.007,0,0,0-.363-.863,1.462,1.462,0,0,0-.924-.28,1.515,1.515,0,0,0-.909.265,1.1,1.1,0,0,0-.432.818l-.924-.2a1.764,1.764,0,0,1,.757-1.242,2.7,2.7,0,0,1,1.583-.417,3.293,3.293,0,0,1,.848.106,2.272,2.272,0,0,1,.7.326,1.47,1.47,0,0,1,.5.621,2.341,2.341,0,0,1,.182.962v2.4a1.038,1.038,0,0,0,.129.606.576.576,0,0,0,.462.159h.091v.757h-.507a.962.962,0,0,1-1.1-.757h-.045a2.211,2.211,0,0,1-1.939.848Zm.235-.825a1.515,1.515,0,0,0,1.25-.568,2.271,2.271,0,0,0,.477-1.515l-1.515.3a1.991,1.991,0,0,0-.9.326.847.847,0,0,0-.015,1.272A1.166,1.166,0,0,0,371.466,198.012Z" transform="translate(-331.722 -161.085)"/>
      <path id="Trazado_102182" data-name="Trazado 102182" d="M381.119,192.789a2.037,2.037,0,0,1,1.462.53,1.969,1.969,0,0,1,.545,1.515v3.915H382.1v-3.688a1.385,1.385,0,0,0-.356-1.038,1.249,1.249,0,0,0-.909-.341,1.424,1.424,0,0,0-1.037.4,1.659,1.659,0,0,0-.409,1.189v3.476H378.37v-5.816h1.022v.757A1.939,1.939,0,0,1,381.119,192.789Z" transform="translate(-333.886 -161.081)"/>
      <path id="Trazado_102183" data-name="Trazado 102183" d="M392.233,195.712v.28h-4.544a2.068,2.068,0,0,0,.56,1.515,1.818,1.818,0,0,0,1.325.523,1.765,1.765,0,0,0,.962-.28,1.849,1.849,0,0,0,.666-.757l.924.2a2.636,2.636,0,0,1-1,1.25,2.719,2.719,0,0,1-1.515.454,2.81,2.81,0,0,1-2.09-.81,3.446,3.446,0,0,1,0-4.423,2.8,2.8,0,0,1,2.067-.81,2.62,2.62,0,0,1,1.954.757A2.938,2.938,0,0,1,392.233,195.712Zm-2.688-2.12a1.787,1.787,0,0,0-1.212.417,1.885,1.885,0,0,0-.613,1.2H391.2a1.734,1.734,0,0,0-.507-1.2,1.62,1.62,0,0,0-1.136-.417Z" transform="translate(-335.912 -161.095)"/>
      <path id="Trazado_102184" data-name="Trazado 102184" d="M398.425,198.833a3.029,3.029,0,0,1-1.515-.364,2.59,2.59,0,0,1-1.038-1.053,3.172,3.172,0,0,1-.394-1.605,3.029,3.029,0,0,1,.825-2.2,3.1,3.1,0,0,1,4.211,0,3.332,3.332,0,0,1,0,4.392,2.84,2.84,0,0,1-2.09.825Zm0-.848a1.8,1.8,0,0,0,1.378-.6,2.272,2.272,0,0,0,.545-1.575,2.219,2.219,0,0,0-.545-1.568,1.78,1.78,0,0,0-1.378-.6,1.757,1.757,0,0,0-1.363.6,2.565,2.565,0,0,0,0,3.143,1.788,1.788,0,0,0,1.356.6Z" transform="translate(-338.037 -161.081)"/>
      <path id="Trazado_102185" data-name="Trazado 102185" d="M324.9,209.8h-3.415v2.719h2.976v.992h-2.976v3.681H320.4v-8.33h4.5Z" transform="translate(-319.817 -164.982)"/>
      <path id="Trazado_102186" data-name="Trazado 102186" d="M332.983,214.907v.28h-4.544A2.037,2.037,0,0,0,329,216.7a1.8,1.8,0,0,0,1.325.523,1.757,1.757,0,0,0,1.621-1.053l.924.2a2.583,2.583,0,0,1-.992,1.25,2.719,2.719,0,0,1-1.515.454,2.81,2.81,0,0,1-2.09-.81,3.446,3.446,0,0,1,0-4.423,2.772,2.772,0,0,1,2.06-.81,2.605,2.605,0,0,1,1.954.757A2.938,2.938,0,0,1,332.983,214.907Zm-2.7-2.12a1.8,1.8,0,0,0-1.212.417,1.915,1.915,0,0,0-.606,1.2h3.484a1.734,1.734,0,0,0-.507-1.2,1.636,1.636,0,0,0-1.159-.439Z" transform="translate(-321.532 -165.75)"/>
      <path id="Trazado_102187" data-name="Trazado 102187" d="M336.86,216.908V207.82H337.9v9.088Z" transform="translate(-323.812 -164.729)"/>
      <path id="Trazado_102188" data-name="Trazado 102188" d="M341.447,209.9a.7.7,0,0,1-.7-.7.659.659,0,0,1,.2-.485.7.7,0,0,1,.977,0,.659.659,0,0,1,.2.485.7.7,0,0,1-.689.7Zm-.523,7.179v-5.816h1.03v5.816Z" transform="translate(-324.756 -164.899)"/>
      <path id="Trazado_102189" data-name="Trazado 102189" d="M345.657,217.131h3.1v.825H344.12l3.067-4.983H344.3v-.833h4.453Z" transform="translate(-325.573 -165.778)"/>
      <path id="Trazado_102190" data-name="Trazado 102190" d="M323.55,228a2.415,2.415,0,0,1,1.3.348,2.339,2.339,0,0,1,.879.924,2.711,2.711,0,0,1,.3,1.287,2.507,2.507,0,0,1-.689,1.81,2.37,2.37,0,0,1-1.795.757h-2.1v3.2H320.4V228Zm-.151,4.173a1.515,1.515,0,0,0,1.159-.447,1.873,1.873,0,0,0,0-2.355,1.515,1.515,0,0,0-1.159-.454h-1.946v3.256Z" transform="translate(-319.817 -169.626)"/>
      <path id="Trazado_102191" data-name="Trazado 102191" d="M331.543,237.233a3.029,3.029,0,0,1-1.515-.364,2.6,2.6,0,0,1-1.053-1.053,3.249,3.249,0,0,1-.386-1.606,3.029,3.029,0,0,1,.825-2.2,3.1,3.1,0,0,1,4.211,0,3.332,3.332,0,0,1,0,4.392,2.855,2.855,0,0,1-2.083.825Zm0-.848a1.8,1.8,0,0,0,1.378-.6,2.272,2.272,0,0,0,.545-1.575,2.219,2.219,0,0,0-.545-1.568,1.78,1.78,0,0,0-1.378-.6,1.757,1.757,0,0,0-1.363.6,2.219,2.219,0,0,0-.538,1.568,2.272,2.272,0,0,0,.538,1.575,1.787,1.787,0,0,0,1.356.6Z" transform="translate(-321.804 -170.401)"/>
      <path id="Trazado_102192" data-name="Trazado 102192" d="M340.155,237.238a2.764,2.764,0,0,1-1.568-.416,1.719,1.719,0,0,1-.757-1.2l.886-.257a1.288,1.288,0,0,0,.477.81,1.575,1.575,0,0,0,.962.288,2.074,2.074,0,0,0,.553-.076.969.969,0,0,0,.432-.288.757.757,0,0,0,.174-.53.809.809,0,0,0-.053-.242.627.627,0,0,0-.091-.189.485.485,0,0,0-.167-.159,1.74,1.74,0,0,0-.2-.129,1.574,1.574,0,0,0-.257-.106l-.28-.1-.326-.091-.341-.1c-.242-.076-.447-.144-.606-.212a2.728,2.728,0,0,1-.485-.28,1.083,1.083,0,0,1-.386-.462,1.558,1.558,0,0,1-.129-.651,1.514,1.514,0,0,1,.288-.931,1.606,1.606,0,0,1,.757-.545,2.908,2.908,0,0,1,1.03-.167,2.575,2.575,0,0,1,1.424.379,1.636,1.636,0,0,1,.7,1.136l-.841.212a1.091,1.091,0,0,0-.447-.757,1.378,1.378,0,0,0-.833-.25,1.447,1.447,0,0,0-.757.2.689.689,0,0,0-.326.629.574.574,0,0,0,.091.318.811.811,0,0,0,.174.227.841.841,0,0,0,.318.174,2.73,2.73,0,0,0,.341.129l.424.106h.091l.56.159a4.07,4.07,0,0,1,.5.212,1.841,1.841,0,0,1,.454.318,1.517,1.517,0,0,1,.288.447,1.69,1.69,0,0,1,.114.629,1.75,1.75,0,0,1-.174.757,1.3,1.3,0,0,1-.477.53,2.006,2.006,0,0,1-.674.3A3.1,3.1,0,0,1,340.155,237.238Z" transform="translate(-324.047 -170.405)"/>
      <path id="Trazado_102193" data-name="Trazado 102193" d="M346.319,229.1a.659.659,0,0,1-.485-.2.674.674,0,0,1-.2-.492.659.659,0,0,1,.2-.485.7.7,0,0,1,.969,0,.659.659,0,0,1,.2.485.674.674,0,0,1-.2.492.659.659,0,0,1-.485.2Zm-.515,7.179v-5.816h1.03v5.8Z" transform="translate(-325.94 -169.559)"/>
      <path id="Trazado_102194" data-name="Trazado 102194" d="M351.541,236.515a1.515,1.515,0,0,1-1.136-.417,1.568,1.568,0,0,1-.417-1.159v-3.423H348.8V230.7h.439a.855.855,0,0,0,.644-.2,1.023,1.023,0,0,0,.182-.682V228.76h.954V230.7h1.34v.818h-1.34v3.317a.886.886,0,0,0,.22.636.757.757,0,0,0,.583.227h.538v.818Z" transform="translate(-326.709 -169.811)"/>
      <path id="Trazado_102195" data-name="Trazado 102195" d="M355.917,229.1a.7.7,0,0,1-.7-.7.659.659,0,0,1,.2-.485.7.7,0,0,1,.492-.2.674.674,0,0,1,.477.2.658.658,0,0,1,.2.485.674.674,0,0,1-.2.492.651.651,0,0,1-.477.2Zm-.523,7.179v-5.816h1.03v5.8Z" transform="translate(-328.267 -169.559)"/>
      <path id="Trazado_102196" data-name="Trazado 102196" d="M362.908,231.335H364l-2.363,5.8h-.871l-2.355-5.816H359.5l1.7,4.627Z" transform="translate(-329.041 -170.432)"/>
      <path id="Trazado_102197" data-name="Trazado 102197" d="M369.4,237.233a3.029,3.029,0,0,1-1.515-.364,2.56,2.56,0,0,1-1.007-1.053,3.249,3.249,0,0,1-.386-1.605,2.968,2.968,0,0,1,.826-2.2,3.1,3.1,0,0,1,4.211,0,3.029,3.029,0,0,1,.818,2.2,2.961,2.961,0,0,1-.825,2.2A2.825,2.825,0,0,1,369.4,237.233Zm0-.848a1.788,1.788,0,0,0,1.371-.6,2.219,2.219,0,0,0,.553-1.575,2.188,2.188,0,0,0-.553-1.568,1.764,1.764,0,0,0-1.371-.6,1.734,1.734,0,0,0-1.363.6,2.219,2.219,0,0,0-.545,1.568,2.272,2.272,0,0,0,.545,1.575,1.765,1.765,0,0,0,1.356.6Z" transform="translate(-331.001 -170.401)"/>
    </g>
    <g id="Grupo_57677" data-name="Grupo 57677" transform="translate(337.132 113.763)">
      <path id="Trazado_102198" data-name="Trazado 102198" d="M445.58,159.55v-8.33h1.075v8.33Z" transform="translate(-445.27 -150.463)"/>
      <path id="Trazado_102199" data-name="Trazado 102199" d="M451.092,155.55a1.772,1.772,0,0,1,.757-.757,2.2,2.2,0,0,1,1.121-.3v.962a1.893,1.893,0,0,0-1.348.432,1.8,1.8,0,0,0-.47,1.378v3.1H450.13v-5.816h1Z" transform="translate(-446.374 -151.256)"/>
      <path id="Trazado_102200" data-name="Trazado 102200" d="M456.42,155.55a1.773,1.773,0,0,1,.719-.757,2.158,2.158,0,0,1,1.121-.3v.962a1.916,1.916,0,0,0-1.356.432,1.8,1.8,0,0,0-.462,1.378v3.105H455.42v-5.816h1Z" transform="translate(-447.658 -151.256)"/>
      <path id="Trazado_102201" data-name="Trazado 102201" d="M461.861,160.437a1.984,1.984,0,0,1-1.272-.4,1.424,1.424,0,0,1-.5-1.189,1.667,1.667,0,0,1,.159-.757,1.318,1.318,0,0,1,.47-.53,2.762,2.762,0,0,1,.689-.333,7.148,7.148,0,0,1,.879-.212l.947-.151c.341-.061.515-.242.515-.538a1.007,1.007,0,0,0-.364-.863,1.462,1.462,0,0,0-.924-.28,1.515,1.515,0,0,0-.909.265,1.1,1.1,0,0,0-.432.818l-.924-.2a1.765,1.765,0,0,1,.757-1.242,2.7,2.7,0,0,1,1.583-.417,3.293,3.293,0,0,1,.848.106,2.271,2.271,0,0,1,.7.326,1.469,1.469,0,0,1,.5.621,2.341,2.341,0,0,1,.182.962v2.4a1.038,1.038,0,0,0,.129.606.576.576,0,0,0,.462.159h.091v.757h-.507a.962.962,0,0,1-1.1-.757h-.038A2.211,2.211,0,0,1,461.861,160.437Zm.235-.825a1.515,1.515,0,0,0,1.25-.568,2.272,2.272,0,0,0,.477-1.515l-1.515.3a1.992,1.992,0,0,0-.9.326.847.847,0,0,0-.015,1.272,1.166,1.166,0,0,0,.7.189Z" transform="translate(-448.79 -151.236)"/>
      <path id="Trazado_102202" data-name="Trazado 102202" d="M471.14,160.425a2.787,2.787,0,0,1-2.083-.833,3.317,3.317,0,0,1,0-4.362,2.787,2.787,0,0,1,2.083-.841,2.825,2.825,0,0,1,1.689.515,2.6,2.6,0,0,1,.977,1.409l-.962.159a1.727,1.727,0,0,0-.651-.909,1.825,1.825,0,0,0-1.06-.318,1.7,1.7,0,0,0-1.34.6,2.575,2.575,0,0,0,0,3.128,1.7,1.7,0,0,0,1.34.6,1.825,1.825,0,0,0,1.06-.318,1.727,1.727,0,0,0,.651-.909l.962.159a2.59,2.59,0,0,1-.985,1.416,2.833,2.833,0,0,1-1.681.507Z" transform="translate(-450.769 -151.232)"/>
      <path id="Trazado_102203" data-name="Trazado 102203" d="M478.047,152.3a.7.7,0,0,1-.7-.7.659.659,0,0,1,.2-.485.7.7,0,0,1,.492-.2.674.674,0,0,1,.477.2.659.659,0,0,1,.2.485.674.674,0,0,1-.2.492A.652.652,0,0,1,478.047,152.3Zm-.522,7.179v-5.816h1.03v5.816Z" transform="translate(-452.98 -150.39)"/>
      <path id="Trazado_102204" data-name="Trazado 102204" d="M483.973,160.433a3.03,3.03,0,0,1-1.515-.364,2.559,2.559,0,0,1-1.053-1.053,3.248,3.248,0,0,1-.386-1.605,2.969,2.969,0,0,1,.825-2.2,2.855,2.855,0,0,1,2.1-.825,2.885,2.885,0,0,1,2.113.825,3.029,3.029,0,0,1,.818,2.2,2.961,2.961,0,0,1-.825,2.2A2.84,2.84,0,0,1,483.973,160.433Zm0-.848a1.787,1.787,0,0,0,1.371-.6,2.271,2.271,0,0,0,.553-1.575,2.227,2.227,0,0,0-.553-1.568,1.764,1.764,0,0,0-1.371-.6,1.734,1.734,0,0,0-1.363.6,2.219,2.219,0,0,0-.545,1.568,2.272,2.272,0,0,0,.545,1.575A1.765,1.765,0,0,0,483.973,159.585Z" transform="translate(-453.87 -151.232)"/>
      <path id="Trazado_102205" data-name="Trazado 102205" d="M493.651,154.389a2.045,2.045,0,0,1,1.469.53,1.969,1.969,0,0,1,.545,1.515v3.915h-1.022v-3.688a1.386,1.386,0,0,0-.356-1.038,1.25,1.25,0,0,0-.909-.341,1.408,1.408,0,0,0-1.037.4,1.6,1.6,0,0,0-.409,1.189v3.476H490.91v-5.816h1.022v.757A1.939,1.939,0,0,1,493.651,154.389Z" transform="translate(-456.271 -151.231)"/>
      <path id="Trazado_102206" data-name="Trazado 102206" d="M501,160.437a1.984,1.984,0,0,1-1.272-.4,1.424,1.424,0,0,1-.5-1.189,1.664,1.664,0,0,1,.159-.757,1.318,1.318,0,0,1,.47-.53,2.765,2.765,0,0,1,.689-.333,7.158,7.158,0,0,1,.879-.212l.947-.151c.341-.061.515-.242.515-.538a1.007,1.007,0,0,0-.364-.863,1.461,1.461,0,0,0-.924-.28,1.515,1.515,0,0,0-.909.265,1.143,1.143,0,0,0-.432.818l-.924-.2a1.764,1.764,0,0,1,.757-1.242,2.7,2.7,0,0,1,1.583-.417,3.294,3.294,0,0,1,.848.106,2.272,2.272,0,0,1,.7.326,1.469,1.469,0,0,1,.5.621,2.34,2.34,0,0,1,.182.962v2.4a.977.977,0,0,0,.136.606.553.553,0,0,0,.454.159h.1v.757h-.515a.969.969,0,0,1-1.1-.757h-.045a2.211,2.211,0,0,1-1.939.848Zm.235-.825a1.515,1.515,0,0,0,1.25-.568,2.273,2.273,0,0,0,.477-1.515l-1.515.3a1.992,1.992,0,0,0-.9.326.847.847,0,0,0-.015,1.272A1.166,1.166,0,0,0,501.236,159.612Z" transform="translate(-458.289 -151.236)"/>
      <path id="Trazado_102207" data-name="Trazado 102207" d="M508.18,159.308V150.22h1.038v9.088Z" transform="translate(-460.462 -150.22)"/>
      <path id="Trazado_102208" data-name="Trazado 102208" d="M454.288,178.75h-1.03l-.553-6.876-2.666,6.876h-.629l-2.643-6.816-.568,6.816h-1.03l.629-8.33h1.4l2.522,6.5,2.537-6.5h1.4Z" transform="translate(-445.17 -155.122)"/>
      <path id="Trazado_102209" data-name="Trazado 102209" d="M460.367,171.5a.7.7,0,0,1-.7-.7.659.659,0,0,1,.2-.485.7.7,0,0,1,.492-.2.682.682,0,0,1,.682.682.674.674,0,0,1-.2.492.644.644,0,0,1-.477.2Zm-.523,7.179v-5.816h1.03v5.816Z" transform="translate(-448.689 -155.05)"/>
      <path id="Trazado_102210" data-name="Trazado 102210" d="M468.962,176.512v.28h-4.544a2.037,2.037,0,0,0,.56,1.515,1.817,1.817,0,0,0,1.325.523,1.764,1.764,0,0,0,.962-.28,1.848,1.848,0,0,0,.666-.757l.916.2a2.583,2.583,0,0,1-.992,1.25,2.719,2.719,0,0,1-1.515.454,2.81,2.81,0,0,1-2.09-.81,3.448,3.448,0,0,1,0-4.423,2.787,2.787,0,0,1,2.06-.81,2.628,2.628,0,0,1,1.961.757A2.968,2.968,0,0,1,468.962,176.512Zm-2.7-2.12a1.78,1.78,0,0,0-1.2.416,1.885,1.885,0,0,0-.613,1.2h3.484a1.734,1.734,0,0,0-.507-1.2A1.636,1.636,0,0,0,466.266,174.391Z" transform="translate(-449.605 -155.905)"/>
      <path id="Trazado_102211" data-name="Trazado 102211" d="M477,169.42h1.022v9.088h-.992v-1.128a2.143,2.143,0,0,1-.826.916,2.272,2.272,0,0,1-1.234.341,2.65,2.65,0,0,1-1.053-.22,2.553,2.553,0,0,1-.863-.606,2.7,2.7,0,0,1-.583-.962,3.476,3.476,0,0,1-.22-1.242,3.082,3.082,0,0,1,.757-2.189,2.56,2.56,0,0,1,1.931-.841,2.317,2.317,0,0,1,1.219.333,2.181,2.181,0,0,1,.833.886Zm-1.833,8.33a1.734,1.734,0,0,0,1.348-.606,2.416,2.416,0,0,0,0-3.029,1.749,1.749,0,0,0-1.348-.613,1.78,1.78,0,0,0-1.363.591,2.188,2.188,0,0,0-.553,1.552,2.158,2.158,0,0,0,.553,1.515,1.78,1.78,0,0,0,1.363.583Z" transform="translate(-451.741 -154.88)"/>
      <path id="Trazado_102212" data-name="Trazado 102212" d="M484.9,179.634a3.03,3.03,0,0,1-1.515-.363,2.591,2.591,0,0,1-1.045-1.053,3.249,3.249,0,0,1-.386-1.605,2.969,2.969,0,0,1,.826-2.2,3.09,3.09,0,0,1,4.2,0,3.332,3.332,0,0,1,0,4.392A2.84,2.84,0,0,1,484.9,179.634Zm0-.848a1.787,1.787,0,0,0,1.371-.6,2.272,2.272,0,0,0,.545-1.575,2.219,2.219,0,0,0-.545-1.568,1.764,1.764,0,0,0-1.371-.6,1.734,1.734,0,0,0-1.363.6,2.219,2.219,0,0,0-.545,1.568,2.272,2.272,0,0,0,.545,1.575A1.765,1.765,0,0,0,484.9,178.785Z" transform="translate(-454.098 -155.892)"/>
      <path id="Trazado_102213" data-name="Trazado 102213" d="M450.084,190.589h-3.431v2.719h3.029v.954h-3.029v3.688H445.57v-8.33h4.506Z" transform="translate(-445.267 -159.782)"/>
      <path id="Trazado_102214" data-name="Trazado 102214" d="M454.539,193.95a1.8,1.8,0,0,1,.757-.757,2.151,2.151,0,0,1,1.113-.3v.962a1.909,1.909,0,0,0-1.348.432,1.8,1.8,0,0,0-.469,1.378v3.1H453.57v-5.816h1Z" transform="translate(-447.209 -160.576)"/>
      <path id="Trazado_102215" data-name="Trazado 102215" d="M459.981,198.837a1.984,1.984,0,0,1-1.272-.4,1.4,1.4,0,0,1-.5-1.189,1.667,1.667,0,0,1,.159-.757,1.264,1.264,0,0,1,.47-.53,2.845,2.845,0,0,1,.682-.333,7.68,7.68,0,0,1,.886-.212l.939-.151c.348-.061.515-.242.515-.538a1.007,1.007,0,0,0-.364-.863,1.439,1.439,0,0,0-.916-.28,1.561,1.561,0,0,0-.916.265,1.143,1.143,0,0,0-.432.818l-.916-.2a1.764,1.764,0,0,1,.757-1.242,2.681,2.681,0,0,1,1.583-.417,3.189,3.189,0,0,1,.841.106,2.136,2.136,0,0,1,.7.326,1.431,1.431,0,0,1,.507.621,2.341,2.341,0,0,1,.182.962v2.4a.985.985,0,0,0,.129.606.576.576,0,0,0,.462.159h.091v.757h-.507a.962.962,0,0,1-1.1-.757h-.053a2.2,2.2,0,0,1-1.931.848Zm.235-.825a1.553,1.553,0,0,0,1.25-.568,2.272,2.272,0,0,0,.47-1.515l-1.515.3a2.067,2.067,0,0,0-.9.326.855.855,0,0,0-.008,1.272,1.151,1.151,0,0,0,.7.189Z" transform="translate(-448.333 -160.555)"/>
      <path id="Trazado_102216" data-name="Trazado 102216" d="M471.05,192.906h1v5.521a2.955,2.955,0,0,1-5.657,1.287l.848-.417a1.923,1.923,0,0,0,1.946,1.348,1.681,1.681,0,0,0,1.363-.568,2.447,2.447,0,0,0,.469-1.59v-1.075a2.067,2.067,0,0,1-.833.841,2.552,2.552,0,0,1-3.09-.507,2.9,2.9,0,0,1-.757-2.067,2.863,2.863,0,0,1,.757-2.06,2.522,2.522,0,0,1,1.893-.818,2.408,2.408,0,0,1,1.219.326,2.128,2.128,0,0,1,.818.863Zm-1.84,4.779a1.78,1.78,0,0,0,1.34-.591,2.06,2.06,0,0,0,.553-1.424,2.037,2.037,0,0,0-.553-1.424,1.734,1.734,0,0,0-1.34-.6,1.765,1.765,0,0,0-1.34.576,2.053,2.053,0,0,0-.553,1.447,2.022,2.022,0,0,0,.561,1.439,1.757,1.757,0,0,0,1.333.576Z" transform="translate(-450.307 -160.554)"/>
      <path id="Trazado_102217" data-name="Trazado 102217" d="M477.089,190.7a.659.659,0,0,1-.485-.2.674.674,0,0,1-.2-.492.659.659,0,0,1,.2-.485.7.7,0,0,1,.969,0,.659.659,0,0,1,.2.485.674.674,0,0,1-.2.492A.659.659,0,0,1,477.089,190.7Zm-.515,7.179v-5.816h1.037v5.816Z" transform="translate(-452.749 -159.709)"/>
      <path id="Trazado_102218" data-name="Trazado 102218" d="M480.74,197.708V188.62h1.03v9.088Z" transform="translate(-453.802 -159.539)"/>
      <path id="Trazado_102219" data-name="Trazado 102219" d="M485.319,190.7a.659.659,0,0,1-.485-.2.674.674,0,0,1-.2-.492.659.659,0,0,1,.2-.485.7.7,0,0,1,.969,0,.659.659,0,0,1,.2.485.674.674,0,0,1-.2.492A.659.659,0,0,1,485.319,190.7Zm-.523,7.179v-5.816h1.03v5.816Z" transform="translate(-454.747 -159.709)"/>
      <path id="Trazado_102220" data-name="Trazado 102220" d="M493.112,188.62h1.038v9.088h-.992v-1.128a2.145,2.145,0,0,1-.826.916,2.31,2.31,0,0,1-1.234.341,2.619,2.619,0,0,1-1.053-.22,2.477,2.477,0,0,1-.863-.606,2.72,2.72,0,0,1-.591-.962,3.477,3.477,0,0,1-.212-1.242,3.083,3.083,0,0,1,.757-2.189,2.56,2.56,0,0,1,1.931-.841,2.317,2.317,0,0,1,1.219.333,2.166,2.166,0,0,1,.825.886Zm-1.833,8.33a1.764,1.764,0,0,0,1.356-.606,2.227,2.227,0,0,0,.545-1.515,2.181,2.181,0,0,0-.553-1.515,1.727,1.727,0,0,0-1.348-.613,1.772,1.772,0,0,0-1.356.591,2.446,2.446,0,0,0,0,3.1,1.772,1.772,0,0,0,1.356.553Z" transform="translate(-455.655 -159.539)"/>
      <path id="Trazado_102221" data-name="Trazado 102221" d="M499.941,198.837a1.984,1.984,0,0,1-1.272-.4,1.424,1.424,0,0,1-.5-1.189,1.667,1.667,0,0,1,.159-.757,1.318,1.318,0,0,1,.47-.53,2.845,2.845,0,0,1,.682-.333,7.67,7.67,0,0,1,.886-.212l.939-.151c.348-.061.515-.242.515-.538a1.008,1.008,0,0,0-.363-.863,1.44,1.44,0,0,0-.916-.28,1.515,1.515,0,0,0-.909.265,1.1,1.1,0,0,0-.432.818l-.924-.2a1.764,1.764,0,0,1,.757-1.242,2.68,2.68,0,0,1,1.583-.416,3.186,3.186,0,0,1,.841.106,2.136,2.136,0,0,1,.7.326,1.43,1.43,0,0,1,.507.621,2.341,2.341,0,0,1,.182.962v2.4a1.038,1.038,0,0,0,.129.606.576.576,0,0,0,.462.159h.091v.757h-.507a.962.962,0,0,1-1.1-.757h-.1A2.226,2.226,0,0,1,499.941,198.837Zm.235-.825a1.552,1.552,0,0,0,1.25-.568,2.271,2.271,0,0,0,.477-1.515l-1.515.3a2.066,2.066,0,0,0-.9.326.854.854,0,0,0-.008,1.272,1.151,1.151,0,0,0,.7.189Z" transform="translate(-458.031 -160.555)"/>
      <path id="Trazado_102222" data-name="Trazado 102222" d="M511.112,188.62h1.037v9.088h-.992v-1.128a2.143,2.143,0,0,1-.825.916,2.31,2.31,0,0,1-1.234.341,2.62,2.62,0,0,1-1.053-.22,2.477,2.477,0,0,1-.863-.606,2.719,2.719,0,0,1-.591-.962,3.475,3.475,0,0,1-.212-1.242,3.082,3.082,0,0,1,.757-2.189,2.56,2.56,0,0,1,1.931-.841,2.317,2.317,0,0,1,1.219.333,2.166,2.166,0,0,1,.826.886Zm-1.833,8.33a1.764,1.764,0,0,0,1.356-.606,2.227,2.227,0,0,0,.545-1.515,2.181,2.181,0,0,0-.553-1.515,1.727,1.727,0,0,0-1.348-.613,1.772,1.772,0,0,0-1.356.591,2.446,2.446,0,0,0,0,3.1,1.772,1.772,0,0,0,1.356.553Z" transform="translate(-460.024 -159.539)"/>
      <path id="Trazado_102223" data-name="Trazado 102223" d="M450.046,209.8h-3.393v2.726h3.029v.984h-3.029v2.719h3.385v.962H445.57v-8.33h4.468Z" transform="translate(-445.267 -164.451)"/>
      <path id="Trazado_102224" data-name="Trazado 102224" d="M459.755,212a1.87,1.87,0,0,1,1.356.5,1.825,1.825,0,0,1,.515,1.386v4.044H460.6v-3.787a1.333,1.333,0,0,0-.326-.962,1.1,1.1,0,0,0-.81-.326,1.166,1.166,0,0,0-.886.371,1.56,1.56,0,0,0-.333,1.1v3.6H457.2v-3.741a1.371,1.371,0,0,0-.318-.985,1.1,1.1,0,0,0-.825-.341,1.143,1.143,0,0,0-.886.379,1.636,1.636,0,0,0-.341,1.128v3.559H453.81v-5.816h1.022v.757a1.734,1.734,0,0,1,.666-.636,1.878,1.878,0,0,1,.924-.227,1.954,1.954,0,0,1,.992.25,1.514,1.514,0,0,1,.644.7,1.8,1.8,0,0,1,.7-.7A1.954,1.954,0,0,1,459.755,212Z" transform="translate(-447.267 -165.213)"/>
      <path id="Trazado_102225" data-name="Trazado 102225" d="M469.052,218.063a3.029,3.029,0,0,1-1.515-.363,2.606,2.606,0,0,1-1.053-1.053,3.25,3.25,0,0,1-.386-1.605,2.969,2.969,0,0,1,.826-2.2,3.1,3.1,0,0,1,4.211,0,3.332,3.332,0,0,1,0,4.392A2.855,2.855,0,0,1,469.052,218.063Zm0-.848a1.8,1.8,0,0,0,1.378-.6,2.272,2.272,0,0,0,.545-1.575,2.219,2.219,0,0,0-.545-1.568,1.78,1.78,0,0,0-1.378-.6,1.757,1.757,0,0,0-1.363.6,2.218,2.218,0,0,0-.538,1.568,2.272,2.272,0,0,0,.538,1.575,1.787,1.787,0,0,0,1.363.576Z" transform="translate(-450.248 -165.218)"/>
      <path id="Trazado_102226" data-name="Trazado 102226" d="M478.217,218.065a2.779,2.779,0,0,1-2.083-.833,2.976,2.976,0,0,1-.826-2.181,2.946,2.946,0,0,1,.826-2.181,3.029,3.029,0,0,1,3.787-.326,2.575,2.575,0,0,1,.984,1.409l-.962.159a1.742,1.742,0,0,0-1.712-1.227,1.689,1.689,0,0,0-1.34.6,2.575,2.575,0,0,0,0,3.128,1.689,1.689,0,0,0,1.34.6,1.742,1.742,0,0,0,1.712-1.227l.962.159a2.59,2.59,0,0,1-.984,1.416,2.848,2.848,0,0,1-1.7.507Z" transform="translate(-452.484 -165.22)"/>
      <path id="Trazado_102227" data-name="Trazado 102227" d="M485.127,209.9a.7.7,0,0,1-.7-.7.659.659,0,0,1,.2-.485.7.7,0,0,1,.492-.2.674.674,0,0,1,.477.2.659.659,0,0,1,.2.485.674.674,0,0,1-.2.492.651.651,0,0,1-.477.2Zm-.523,7.179v-5.816h1.015v5.816Z" transform="translate(-454.698 -164.369)"/>
      <path id="Trazado_102228" data-name="Trazado 102228" d="M491.053,218.063a3.029,3.029,0,0,1-1.515-.363,2.589,2.589,0,0,1-1.045-1.053,3.255,3.255,0,0,1-.394-1.605,3.029,3.029,0,0,1,.825-2.2,3.1,3.1,0,0,1,4.211,0,3.332,3.332,0,0,1,0,4.392,2.84,2.84,0,0,1-2.083.825Zm0-.848a1.8,1.8,0,0,0,1.378-.6,2.272,2.272,0,0,0,.545-1.575,2.219,2.219,0,0,0-.545-1.568,1.78,1.78,0,0,0-1.378-.6,1.757,1.757,0,0,0-1.363.6,2.565,2.565,0,0,0,0,3.143,1.787,1.787,0,0,0,1.363.576Z" transform="translate(-455.588 -165.218)"/>
      <path id="Trazado_102229" data-name="Trazado 102229" d="M500.734,212a2.052,2.052,0,0,1,1.469.53,1.969,1.969,0,0,1,.545,1.515v3.915h-1.022v-3.688a1.393,1.393,0,0,0-.356-1.045,1.28,1.28,0,0,0-.916-.341,1.4,1.4,0,0,0-1.03.4,1.6,1.6,0,0,0-.409,1.189v3.476H498v-5.816h1.022v.757a1.939,1.939,0,0,1,1.712-.894Z" transform="translate(-457.991 -165.213)"/>
      <path id="Trazado_102230" data-name="Trazado 102230" d="M508.081,218.067a1.984,1.984,0,0,1-1.272-.4,1.424,1.424,0,0,1-.5-1.189,1.664,1.664,0,0,1,.159-.757,1.317,1.317,0,0,1,.469-.53,2.766,2.766,0,0,1,.689-.333,6.055,6.055,0,0,1,.878-.2l.947-.159c.341-.061.507-.242.507-.538a1.007,1.007,0,0,0-.363-.863,1.439,1.439,0,0,0-.916-.28,1.515,1.515,0,0,0-.909.265,1.1,1.1,0,0,0-.432.818l-.924-.189a1.764,1.764,0,0,1,.757-1.25,2.681,2.681,0,0,1,1.583-.417,3.293,3.293,0,0,1,.848.106,2.272,2.272,0,0,1,.7.326,1.468,1.468,0,0,1,.5.621,2.34,2.34,0,0,1,.182.962v2.4a1.037,1.037,0,0,0,.129.606.576.576,0,0,0,.462.159h.091v.757h-.507a.962.962,0,0,1-1.1-.757h-.045a2.226,2.226,0,0,1-1.939.848Zm.235-.825a1.514,1.514,0,0,0,1.25-.568,2.273,2.273,0,0,0,.477-1.515l-1.515.3a2.068,2.068,0,0,0-.909.326.854.854,0,0,0-.008,1.272,1.166,1.166,0,0,0,.734.167Z" transform="translate(-460.007 -165.222)"/>
      <path id="Trazado_102231" data-name="Trazado 102231" d="M515.26,216.908V207.82H516.3v9.088Z" transform="translate(-462.18 -164.199)"/>
      <path id="Trazado_102232" data-name="Trazado 102232" d="M450.084,228.985h-3.431V231.7h3.029v.954h-3.029v3.673H445.57V228h4.506Z" transform="translate(-445.267 -169.097)"/>
      <path id="Trazado_102233" data-name="Trazado 102233" d="M454.539,232.35a1.8,1.8,0,0,1,.757-.757,2.151,2.151,0,0,1,1.113-.3v.962a1.909,1.909,0,0,0-1.348.432,1.8,1.8,0,0,0-.469,1.378v3.067H453.57v-5.816h1Z" transform="translate(-447.209 -169.895)"/>
      <path id="Trazado_102234" data-name="Trazado 102234" d="M462.462,231.33h1.022v5.8h-.977v-.757a1.81,1.81,0,0,1-.719.651,2.2,2.2,0,0,1-1.015.227,2.037,2.037,0,0,1-1.469-.523,1.984,1.984,0,0,1-.545-1.515V231.3h1.022v3.688a1.363,1.363,0,0,0,.364,1.038,1.227,1.227,0,0,0,.909.348,1.424,1.424,0,0,0,1.038-.4,1.635,1.635,0,0,0,.4-1.189Z" transform="translate(-448.466 -169.897)"/>
      <path id="Trazado_102235" data-name="Trazado 102235" d="M469.435,237.233a2.749,2.749,0,0,1-1.568-.417,1.749,1.749,0,0,1-.757-1.2l.894-.257a1.288,1.288,0,0,0,.477.81,1.567,1.567,0,0,0,.954.288,2.134,2.134,0,0,0,.56-.076.969.969,0,0,0,.432-.288.826.826,0,0,0,.174-.53.811.811,0,0,0-.053-.242.884.884,0,0,0-.091-.189.486.486,0,0,0-.167-.159,1.732,1.732,0,0,0-.235-.144,1.573,1.573,0,0,0-.258-.106l-.288-.1-.326-.091-.333-.1c-.242-.076-.447-.144-.606-.212a2.769,2.769,0,0,1-.492-.28,1.128,1.128,0,0,1-.379-.462,1.559,1.559,0,0,1-.129-.651,1.514,1.514,0,0,1,.288-.932,1.605,1.605,0,0,1,.757-.545,2.908,2.908,0,0,1,1.03-.167,2.529,2.529,0,0,1,1.416.379,1.621,1.621,0,0,1,.712,1.136l-.841.212a1.091,1.091,0,0,0-.447-.757,1.378,1.378,0,0,0-.833-.25,1.447,1.447,0,0,0-.757.2.689.689,0,0,0-.326.629.642.642,0,0,0,.083.318,1.246,1.246,0,0,0,.174.227.954.954,0,0,0,.326.174,2.744,2.744,0,0,0,.341.129l.424.106h.091l.56.159a4.05,4.05,0,0,1,.5.212,1.842,1.842,0,0,1,.454.318,1.588,1.588,0,0,1,.4,1.075,1.749,1.749,0,0,1-.174.757,1.294,1.294,0,0,1-.477.53,2.076,2.076,0,0,1-.674.3,3.141,3.141,0,0,1-.841.189Z" transform="translate(-450.495 -169.87)"/>
      <path id="Trazado_102236" data-name="Trazado 102236" d="M476.719,236.515a1.515,1.515,0,0,1-1.136-.417,1.568,1.568,0,0,1-.417-1.159v-3.423H474V230.7h.439a.856.856,0,0,0,.644-.2,1.022,1.022,0,0,0,.182-.682V228.76h.954V230.7h1.34v.818H476.2v3.317a.886.886,0,0,0,.22.636.757.757,0,0,0,.583.227h.538v.818Z" transform="translate(-452.167 -169.281)"/>
      <path id="Trazado_102237" data-name="Trazado 102237" d="M481.62,232.35a1.772,1.772,0,0,1,.719-.757,2.2,2.2,0,0,1,1.121-.3v.962a1.931,1.931,0,0,0-1.356.432,1.8,1.8,0,0,0-.462,1.378v3.067H480.62v-5.816h1Z" transform="translate(-453.773 -169.895)"/>
      <path id="Trazado_102238" data-name="Trazado 102238" d="M487.061,237.24a1.984,1.984,0,0,1-1.272-.4,1.424,1.424,0,0,1-.5-1.189,1.727,1.727,0,0,1,.159-.757,1.318,1.318,0,0,1,.477-.523,2.589,2.589,0,0,1,.682-.333,6.976,6.976,0,0,1,.886-.212l.939-.151c.341-.061.515-.242.515-.538a1.007,1.007,0,0,0-.363-.863,1.461,1.461,0,0,0-.924-.28,1.515,1.515,0,0,0-.909.265,1.144,1.144,0,0,0-.432.818l-.924-.2a1.817,1.817,0,0,1,.757-1.242,2.726,2.726,0,0,1,1.59-.417,3.272,3.272,0,0,1,.841.106,2.135,2.135,0,0,1,.7.326,1.469,1.469,0,0,1,.5.621,2.342,2.342,0,0,1,.182.962V235.6a.977.977,0,0,0,.136.606.56.56,0,0,0,.454.159h.1v.757h-.507c-.629,0-1-.258-1.106-.757H489A2.226,2.226,0,0,1,487.061,237.24Zm.242-.825a1.553,1.553,0,0,0,1.25-.568,2.333,2.333,0,0,0,.469-1.515l-1.515.3a2.03,2.03,0,0,0-.9.326.848.848,0,0,0,0,1.272,1.174,1.174,0,0,0,.735.189Z" transform="translate(-454.906 -169.877)"/>
      <path id="Trazado_102239" data-name="Trazado 102239" d="M496.349,237.225a2.78,2.78,0,0,1-2.083-.833,3.3,3.3,0,0,1,0-4.362,2.787,2.787,0,0,1,2.09-.841,2.817,2.817,0,0,1,1.681.515,2.522,2.522,0,0,1,.977,1.409l-.954.159a1.779,1.779,0,0,0-.659-.909,1.8,1.8,0,0,0-1.053-.318,1.719,1.719,0,0,0-1.348.6,2.575,2.575,0,0,0,0,3.128,1.719,1.719,0,0,0,1.348.6,1.8,1.8,0,0,0,1.053-.318,1.779,1.779,0,0,0,.659-.909l.954.159a2.552,2.552,0,0,1-.984,1.416A2.809,2.809,0,0,1,496.349,237.225Z" transform="translate(-456.886 -169.87)"/>
      <path id="Trazado_102240" data-name="Trazado 102240" d="M503.249,229.1a.659.659,0,0,1-.485-.2.674.674,0,0,1-.2-.492.659.659,0,0,1,.2-.485.7.7,0,0,1,.969,0,.659.659,0,0,1,.2.485.674.674,0,0,1-.2.492A.659.659,0,0,1,503.249,229.1Zm-.523,7.179v-5.816h1.03v5.8Z" transform="translate(-459.098 -169.029)"/>
      <path id="Trazado_102241" data-name="Trazado 102241" d="M509.182,236.34a3.029,3.029,0,0,1-1.515-.364,2.6,2.6,0,0,1-1.053-1.053,3.249,3.249,0,0,1-.386-1.606,2.969,2.969,0,0,1,.825-2.2,3.1,3.1,0,0,1,4.211,0,3.029,3.029,0,0,1,.818,2.2,2.961,2.961,0,0,1-.826,2.2A2.825,2.825,0,0,1,509.182,236.34Zm0-.848a1.818,1.818,0,0,0,1.378-.6,2.272,2.272,0,0,0,.545-1.575,2.219,2.219,0,0,0-.545-1.568,1.787,1.787,0,0,0-1.378-.6,1.757,1.757,0,0,0-1.363.6,2.219,2.219,0,0,0-.545,1.568,2.272,2.272,0,0,0,.545,1.575,1.787,1.787,0,0,0,1.356.6Zm-.386-6.059,1.515-1.924.545.394-1.325,1.515Z" transform="translate(-459.988 -168.978)"/>
      <path id="Trazado_102242" data-name="Trazado 102242" d="M518.849,231.188a2.037,2.037,0,0,1,1.462.53,1.969,1.969,0,0,1,.545,1.515v3.87H519.8v-3.688a1.386,1.386,0,0,0-.356-1.038,1.25,1.25,0,0,0-.909-.341,1.423,1.423,0,0,0-1.037.4,1.658,1.658,0,0,0-.409,1.189V237.1H516.07v-5.816h1.022v.757A1.939,1.939,0,0,1,518.849,231.188Z" transform="translate(-462.377 -169.869)"/>
    </g>
    <g id="Grupo_57678" data-name="Grupo 57678" transform="translate(242.438 88.287)">
      <path id="Trazado_102243" data-name="Trazado 102243" d="M323.689,117.109a2.582,2.582,0,0,1,1.969.757,2.794,2.794,0,0,1,.757,1.969,2.659,2.659,0,0,1-.757,1.954,2.6,2.6,0,0,1-1.969.757H321.9v3.029H320.13v-8.467Zm-.3,4a1.272,1.272,0,0,0,.977-.333,1.249,1.249,0,0,0,.326-.924,1.272,1.272,0,0,0-.326-.916,1.3,1.3,0,0,0-.977-.341h-1.515v2.514Z" transform="translate(-320.13 -116.707)"/>
      <path id="Trazado_102244" data-name="Trazado 102244" d="M332.482,126.546a3.9,3.9,0,0,1-1.719-.371,2.8,2.8,0,0,1-1.181-1.1,3.225,3.225,0,0,1-.432-1.7,3.029,3.029,0,0,1,.924-2.272,3.855,3.855,0,0,1,4.824,0,3.363,3.363,0,0,1,0,4.627A3.423,3.423,0,0,1,332.482,126.546Zm0-1.356a1.568,1.568,0,0,0,1.2-.5,1.848,1.848,0,0,0,.454-1.31,1.885,1.885,0,0,0-.454-1.318,1.59,1.59,0,0,0-1.2-.492,1.514,1.514,0,0,0-1.166.5,2.113,2.113,0,0,0,0,2.62,1.515,1.515,0,0,0,1.151.5Z" transform="translate(-322.319 -117.473)"/>
      <path id="Trazado_102245" data-name="Trazado 102245" d="M341.613,126.533a3.461,3.461,0,0,1-1.78-.424,1.818,1.818,0,0,1-.863-1.272l1.424-.4a1.144,1.144,0,0,0,1.219.909,1.2,1.2,0,0,0,.621-.144.477.477,0,0,0,.242-.47.523.523,0,0,0-.1-.311.94.94,0,0,0-.31-.227l-.417-.159-.545-.159a5.637,5.637,0,0,1-.56-.174,3.592,3.592,0,0,1-.538-.227,2.028,2.028,0,0,1-.439-.31,1.263,1.263,0,0,1-.333-.477,1.75,1.75,0,0,1-.114-.651,1.56,1.56,0,0,1,.659-1.363,2.984,2.984,0,0,1,1.727-.462,3.029,3.029,0,0,1,1.59.394,1.757,1.757,0,0,1,.818,1.219l-1.325.3a1.022,1.022,0,0,0-1.075-.757,1.166,1.166,0,0,0-.6.136.447.447,0,0,0-.242.409.483.483,0,0,0,0,.182.363.363,0,0,0,.121.144l.174.114a1.123,1.123,0,0,0,.242.1,2.186,2.186,0,0,0,.265.076l.31.083.318.083c.22.061.409.114.576.174a4,4,0,0,1,.523.25,2.015,2.015,0,0,1,.454.356,1.733,1.733,0,0,1,.3.507,1.877,1.877,0,0,1,.114.674,1.81,1.81,0,0,1-.2.878,1.514,1.514,0,0,1-.56.6,2.687,2.687,0,0,1-.757.318A4.12,4.12,0,0,1,341.613,126.533Z" transform="translate(-324.702 -117.46)"/>
      <path id="Trazado_102246" data-name="Trazado 102246" d="M348.212,118.541a.975.975,0,0,1-.7-1.674.969.969,0,0,1,.7-.288.984.984,0,0,1,0,1.961Zm-.871,6.99v-6.059h1.719v6.059Z" transform="translate(-326.705 -116.58)"/>
      <path id="Trazado_102247" data-name="Trazado 102247" d="M354.02,125.823a1.825,1.825,0,0,1-1.378-.492,1.939,1.939,0,0,1-.485-1.409v-2.87h-1.2v-1.31h.386a1,1,0,0,0,.757-.25,1.31,1.31,0,0,0,.242-.909v-.8h1.515v1.961h1.257v1.31h-1.257v2.688c0,.53.235.757.7.757h.553v1.3Z" transform="translate(-327.612 -116.871)"/>
      <path id="Trazado_102248" data-name="Trazado 102248" d="M359.024,118.541a.954.954,0,0,1-.7-.288.924.924,0,0,1-.288-.7.947.947,0,0,1,.288-.689.977.977,0,0,1,.7-.288.962.962,0,0,1,.689.288.977.977,0,0,1,0,1.386A.962.962,0,0,1,359.024,118.541Zm-.871,6.99v-6.058h1.719v6.058Z" transform="translate(-329.33 -116.58)"/>
      <path id="Trazado_102249" data-name="Trazado 102249" d="M366.442,120.37h1.81l-2.6,6.058H364.14l-2.56-6.058h1.833l1.515,4.158Z" transform="translate(-330.19 -117.5)"/>
      <path id="Trazado_102250" data-name="Trazado 102250" d="M373.931,126.545a3.915,3.915,0,0,1-1.727-.371,2.741,2.741,0,0,1-1.174-1.1,3.226,3.226,0,0,1-.432-1.7,2.961,2.961,0,0,1,.924-2.272,3.84,3.84,0,0,1,4.817,0,3.362,3.362,0,0,1,0,4.627A3.4,3.4,0,0,1,373.931,126.545Zm0-1.356a1.514,1.514,0,0,0,1.2-.5,1.825,1.825,0,0,0,.462-1.31,1.855,1.855,0,0,0-.462-1.318,1.568,1.568,0,0,0-1.2-.485,1.515,1.515,0,0,0-1.166.5,2.113,2.113,0,0,0,0,2.62A1.515,1.515,0,0,0,373.931,125.19Z" transform="translate(-332.378 -117.473)"/>
    </g>
    <g id="Grupo_57679" data-name="Grupo 57679" transform="translate(337.215 88.287)">
      <path id="Trazado_102251" data-name="Trazado 102251" d="M451.126,117.11h1.765v8.55h-2.052l-3.787-6.111v6.111H445.28v-8.55h2.06l3.787,6.058Z" transform="translate(-445.28 -116.709)"/>
      <path id="Trazado_102252" data-name="Trazado 102252" d="M463.493,123.278v.409H458.95a1.56,1.56,0,0,0,.485,1.113,1.651,1.651,0,0,0,1.871.174,1.325,1.325,0,0,0,.515-.613l1.56.227a2.7,2.7,0,0,1-1.068,1.431,3.2,3.2,0,0,1-1.795.507,3.286,3.286,0,0,1-2.37-.841,3.029,3.029,0,0,1-.879-2.317,3.1,3.1,0,0,1,.879-2.325,3.2,3.2,0,0,1,2.317-.848,2.779,2.779,0,0,1,3.029,3.082Zm-3.029-1.878a1.348,1.348,0,0,0-1.477,1.174h2.795a1.28,1.28,0,0,0-.424-.871,1.341,1.341,0,0,0-.863-.3Z" transform="translate(-448.188 -117.455)"/>
      <path id="Trazado_102253" data-name="Trazado 102253" d="M471.221,120.324h1.621v5.627a4.544,4.544,0,0,1-.227,1.515,2.446,2.446,0,0,1-.659,1.037,2.765,2.765,0,0,1-1.015.583,4.179,4.179,0,0,1-1.325.189,3,3,0,0,1-3.135-1.886l1.416-.606a2.052,2.052,0,0,0,.651.886,1.674,1.674,0,0,0,1,.28c1.053,0,1.583-.621,1.583-1.878v-.727a1.916,1.916,0,0,1-.757.6,2.567,2.567,0,0,1-1.083.227,2.711,2.711,0,0,1-1.068-.212,2.84,2.84,0,0,1-.886-.606,2.884,2.884,0,0,1-.6-.954,3.582,3.582,0,0,1,0-2.469,2.718,2.718,0,0,1,.606-.939,2.528,2.528,0,0,1,.886-.591,2.7,2.7,0,0,1,1.075-.22,2.5,2.5,0,0,1,1.128.257,1.749,1.749,0,0,1,.757.666Zm-2.613,4.021a1.469,1.469,0,0,0,1.113.47,1.514,1.514,0,0,0,1.121-.47,1.7,1.7,0,0,0,0-2.317,1.583,1.583,0,0,0-2.272,0,1.621,1.621,0,0,0-.447,1.166,1.59,1.59,0,0,0,.485,1.151Z" transform="translate(-450.425 -117.454)"/>
      <path id="Trazado_102254" data-name="Trazado 102254" d="M482.06,124.77a5.685,5.685,0,0,0,.144,1.515v.167h-1.59l-.136-.659a1.962,1.962,0,0,1-.848.583,3.21,3.21,0,0,1-1.106.2,2.779,2.779,0,0,1-.568-.053,2.03,2.03,0,0,1-.507-.182,1.516,1.516,0,0,1-.424-.318,1.288,1.288,0,0,1-.28-.477,1.992,1.992,0,0,1,0-1.325,1.666,1.666,0,0,1,.3-.492,1.886,1.886,0,0,1,.485-.364,3.789,3.789,0,0,1,.6-.257,7.1,7.1,0,0,1,.757-.189l1-.227a.992.992,0,0,0,.447-.189.378.378,0,0,0,.136-.3.644.644,0,0,0-.3-.591,1.515,1.515,0,0,0-.757-.174,1.045,1.045,0,0,0-1.189.932l-1.515-.273a2.045,2.045,0,0,1,.878-1.393,3.521,3.521,0,0,1,1.908-.447q2.56,0,2.56,2.2Zm-3.029.621a1.371,1.371,0,0,0,1.053-.447,1.84,1.84,0,0,0,.409-1.3l-1.446.409a1.621,1.621,0,0,0-.606.25.515.515,0,0,0-.212.439.561.561,0,0,0,.227.477.931.931,0,0,0,.606.144Z" transform="translate(-452.888 -117.469)"/>
      <path id="Trazado_102255" data-name="Trazado 102255" d="M487.892,125.823a1.81,1.81,0,0,1-1.371-.492,1.909,1.909,0,0,1-.485-1.409v-2.87h-1.2v-1.31h.386a1.022,1.022,0,0,0,.757-.25,1.348,1.348,0,0,0,.242-.909v-.8h1.515v1.961h1.25v1.31h-1.227v2.688c0,.53.235.757.7.757h.545v1.3Z" transform="translate(-454.881 -116.871)"/>
      <path id="Trazado_102256" data-name="Trazado 102256" d="M492.924,118.541a.969.969,0,0,1-.7-.288.954.954,0,0,1-.288-.7.931.931,0,0,1,.3-.689.977.977,0,1,1,1.378,1.386A.947.947,0,0,1,492.924,118.541Zm-.863,6.99v-6.058h1.711v6.058Z" transform="translate(-456.604 -116.58)"/>
      <path id="Trazado_102257" data-name="Trazado 102257" d="M500.362,120.37h1.8l-2.59,6.058H498.06l-2.56-6.058h1.795l1.515,4.158Z" transform="translate(-457.468 -117.5)"/>
      <path id="Trazado_102258" data-name="Trazado 102258" d="M507.832,126.546a3.9,3.9,0,0,1-1.719-.371,2.8,2.8,0,0,1-1.181-1.1,3.227,3.227,0,0,1-.432-1.7,3.03,3.03,0,0,1,.924-2.272,3.855,3.855,0,0,1,4.824,0,3.362,3.362,0,0,1,0,4.627,3.423,3.423,0,0,1-2.416.81Zm0-1.356a1.567,1.567,0,0,0,1.2-.5,1.848,1.848,0,0,0,.454-1.31,1.886,1.886,0,0,0-.454-1.318,1.59,1.59,0,0,0-1.2-.492,1.515,1.515,0,0,0-1.174.5,2.143,2.143,0,0,0,0,2.62,1.515,1.515,0,0,0,1.159.5Z" transform="translate(-459.652 -117.473)"/>
    </g>
  </g>
</svg>
