<svg xmlns="http://www.w3.org/2000/svg" width="177" height="159" viewBox="0 0 177 159">
  <g id="Grupo_57819" data-name="Grupo 57819" transform="translate(-285 -9271.372)">
    <rect id="Rectángulo_5253" data-name="Rectángulo 5253" width="177" height="159" transform="translate(285 9271.372)" fill="#e1ddfc" opacity="0.5"/>
    <g id="Grupo_55532" data-name="Grupo 55532" transform="translate(331 9303.372)">
      <rect id="Rectángulo_5249" data-name="Rectángulo 5249" width="94" height="94" transform="translate(0 0)" fill="none"/>
      <g id="poligono" transform="translate(8.044 12.512)">
        <path id="Trazado_101100" data-name="Trazado 101100" d="M107.691,94.293V87.237h1.491l-15.4-26.672H79.874v3.528H72.819V60.565H58.911l-15.4,26.672H45v7.056H43.512l15.4,26.672H72.819v-3.528h7.056v3.528H93.783l15.4-26.672Z" transform="translate(-36.788 -55.878)" fill="#787680"/>
        <path id="Trazado_101101" data-name="Trazado 101101" d="M132.3,136.723l13.364-23.148h-1.491V106.52h1.491L132.3,83.372H116.361v0H109.3v0h-7.237l-15.4,26.676,15.4,26.676H109.3v0h7.056v0Z" transform="translate(-73.275 -75.161)" fill="#57565c"/>
        <path id="Trazado_101102" data-name="Trazado 101102" d="M72.068,136.723l-15.4-26.676,15.4-26.676h30.8l15.4,26.676-15.4,26.676Z" transform="translate(-47.91 -75.161)" fill="#ff7956"/>
        <path id="Trazado_101103" data-name="Trazado 101103" d="M262.05,244.6h0a2.55,2.55,0,0,1-2.55-2.55h0a2.55,2.55,0,0,1,2.55-2.55h0a2.55,2.55,0,0,1,2.55,2.55h0A2.55,2.55,0,0,1,262.05,244.6Z" transform="translate(-219.4 -207.163)" fill="#ff3f62"/>
        <g id="Grupo_55522" data-name="Grupo 55522" transform="translate(1.159 1.159)">
          <rect id="Rectángulo_5219" data-name="Rectángulo 5219" width="7.056" height="7.056" transform="translate(0 30.2)" fill="#fff"/>
          <rect id="Rectángulo_5220" data-name="Rectángulo 5220" width="7.056" height="7.056" transform="translate(69.744 30.2)" fill="#fff"/>
          <rect id="Rectángulo_5221" data-name="Rectángulo 5221" width="7.056" height="7.056" transform="translate(0 60.401)" fill="#fff"/>
          <rect id="Rectángulo_5222" data-name="Rectángulo 5222" width="7.056" height="7.056" transform="translate(69.744 60.401)" fill="#fff"/>
          <rect id="Rectángulo_5223" data-name="Rectángulo 5223" width="7.056" height="7.056" transform="translate(34.872 60.401)" fill="#fff"/>
          <rect id="Rectángulo_5224" data-name="Rectángulo 5224" width="7.056" height="7.056" transform="translate(0 0)" fill="#fff"/>
          <rect id="Rectángulo_5225" data-name="Rectángulo 5225" width="7.056" height="7.056" transform="translate(69.744 0)" fill="#fff"/>
          <rect id="Rectángulo_5226" data-name="Rectángulo 5226" width="7.056" height="7.056" transform="translate(34.872 0)" fill="#fff"/>
          <path id="Trazado_101104" data-name="Trazado 101104" d="M242.05,244.6h0a2.55,2.55,0,0,1-2.55-2.55h0a2.55,2.55,0,0,1,2.55-2.55h0a2.55,2.55,0,0,1,2.55,2.55h0A2.55,2.55,0,0,1,242.05,244.6Z" transform="translate(-203.65 -208.322)" fill="#fff"/>
        </g>
        <g id="Grupo_55523" data-name="Grupo 55523" transform="translate(6.724 4.686)">
          <rect id="Rectángulo_5227" data-name="Rectángulo 5227" width="4.636" height="3.528" transform="translate(36.363 0)" fill="#57565c"/>
          <rect id="Rectángulo_5228" data-name="Rectángulo 5228" width="4.636" height="3.528" transform="translate(36.363 56.873)" fill="#57565c"/>
          <path id="Trazado_101105" data-name="Trazado 101105" d="M49.639,94.293V87.237H48.148l15.4-26.672H58.911l-15.4,26.672H45v7.056H43.512l15.4,26.672h4.636l-15.4-26.672Z" transform="translate(-43.512 -60.564)" fill="#57565c"/>
        </g>
        <path id="Trazado_101106" data-name="Trazado 101106" d="M76.7,83.372H72.068l-15.4,26.676,15.4,26.676H76.7L61.3,110.048Z" transform="translate(-47.91 -75.161)" fill="#ff3f62"/>
        <g id="Grupo_55524" data-name="Grupo 55524" transform="translate(1.159 1.159)">
          <rect id="Rectángulo_5229" data-name="Rectángulo 5229" width="4.636" height="7.056" transform="translate(0 30.2)" fill="#d8d7da"/>
          <rect id="Rectángulo_5230" data-name="Rectángulo 5230" width="4.636" height="7.056" transform="translate(69.744 30.2)" fill="#d8d7da"/>
          <rect id="Rectángulo_5231" data-name="Rectángulo 5231" width="4.636" height="7.056" transform="translate(0 60.401)" fill="#d8d7da"/>
          <rect id="Rectángulo_5232" data-name="Rectángulo 5232" width="4.636" height="7.056" transform="translate(69.744 60.401)" fill="#d8d7da"/>
          <rect id="Rectángulo_5233" data-name="Rectángulo 5233" width="4.636" height="7.056" transform="translate(34.872 60.401)" fill="#d8d7da"/>
          <rect id="Rectángulo_5234" data-name="Rectángulo 5234" width="4.636" height="7.056" transform="translate(0 0)" fill="#d8d7da"/>
          <rect id="Rectángulo_5235" data-name="Rectángulo 5235" width="4.636" height="7.056" transform="translate(69.744 0)" fill="#d8d7da"/>
          <rect id="Rectángulo_5236" data-name="Rectángulo 5236" width="4.636" height="7.056" transform="translate(34.872 0)" fill="#d8d7da"/>
          <path id="Trazado_101107" data-name="Trazado 101107" d="M242.591,242.05a2.545,2.545,0,0,1,1-2.028,2.538,2.538,0,0,0-1.545-.522h0a2.55,2.55,0,0,0,0,5.1h0a2.539,2.539,0,0,0,1.545-.522A2.545,2.545,0,0,1,242.591,242.05Z" transform="translate(-203.65 -208.322)" fill="#d8d7da"/>
        </g>
        <rect id="Rectángulo_5237" data-name="Rectángulo 5237" width="2.318" height="10.685" transform="matrix(-0.866, 0.5, -0.5, -0.866, 20.067, 45.112)"/>
        <rect id="Rectángulo_5238" data-name="Rectángulo 5238" width="2.318" height="2.318" transform="translate(50.607 56.879)"/>
        <rect id="Rectángulo_5239" data-name="Rectángulo 5239" width="2.318" height="2.318" transform="translate(46.744 56.879)"/>
        <rect id="Rectángulo_5240" data-name="Rectángulo 5240" width="2.318" height="2.318" transform="translate(39.018 56.879)"/>
        <rect id="Rectángulo_5241" data-name="Rectángulo 5241" width="2.318" height="2.318" transform="translate(42.881 56.879)"/>
        <g id="Grupo_55525" data-name="Grupo 55525" transform="translate(53.688 14.214)">
          <rect id="Rectángulo_5242" data-name="Rectángulo 5242" width="11.986" height="2.318" transform="matrix(-0.5, -0.866, 0.866, -0.5, 9.856, 18.231)" fill="#fff"/>
          <rect id="Rectángulo_5243" data-name="Rectángulo 5243" width="2.318" height="2.318" transform="matrix(-0.5, -0.866, 0.866, -0.5, 3.088, 6.512)" fill="#fff"/>
          <rect id="Rectángulo_5244" data-name="Rectángulo 5244" width="2.318" height="2.318" transform="matrix(0.5, 0.866, -0.866, 0.5, 2.007, 0)" fill="#fff"/>
        </g>
        <path id="Trazado_101108" data-name="Trazado 101108" d="M225.666,430.478h9.374V421.1h-9.374Zm2.318-7.056h4.738v4.738h-4.738Z" transform="translate(-190.795 -360.704)"/>
        <path id="Trazado_101109" data-name="Trazado 101109" d="M331.768,39.608V30.234h-9.374v3.528H298.827V36.08h10.149l13.28,23,2.007-1.159L311.652,36.08h10.742v3.528h3.528V60.434h-3.528v9.374h3.528V90.634h-3.528v3.528H311.653l12.611-21.843-2.007-1.159-13.28,23H298.827V96.48h23.567v3.528h9.374V90.634H328.24V69.808h3.528V60.434H328.24V39.608ZM329.45,97.69h-4.738V92.952h4.738Zm0-30.2h-4.738V62.752h4.738Zm-4.738-34.938h4.738V37.29h-4.738Z" transform="translate(-252.65 -30.234)"/>
        <path id="Trazado_101110" data-name="Trazado 101110" d="M235.04,30.234h-9.374v9.374h9.374Zm-2.318,7.056h-4.738V32.552h4.738Z" transform="translate(-190.795 -30.234)"/>
        <path id="Trazado_101111" data-name="Trazado 101111" d="M239.417,235.709a3.709,3.709,0,1,0-3.709,3.709A3.713,3.713,0,0,0,239.417,235.709Zm-3.709,1.391a1.391,1.391,0,1,1,1.391-1.391A1.392,1.392,0,0,1,235.709,237.1Z" transform="translate(-196.15 -200.822)"/>
        <path id="Trazado_101112" data-name="Trazado 101112" d="M68.674,280.819l-2.007,1.159,13.187,22.84H89.3V302.5H81.192Z" transform="translate(-56.365 -242.097)"/>
        <path id="Trazado_101113" data-name="Trazado 101113" d="M66.667,98.712l2.007,1.159L81.192,78.19H89.3V75.872H79.854Z" transform="translate(-56.365 -68.82)"/>
        <path id="Trazado_101114" data-name="Trazado 101114" d="M319.459,99.871l2.007-1.159-13.187-22.84h-9.452V78.19h8.114Z" transform="translate(-252.65 -68.82)"/>
        <path id="Trazado_101115" data-name="Trazado 101115" d="M321.466,281.978l-2.007-1.159L306.941,302.5h-8.114v2.318h9.452Z" transform="translate(-252.65 -242.097)"/>
        <path id="Trazado_101116" data-name="Trazado 101116" d="M9.374,33.762V30.234H0v9.374H3.528V60.434H0v9.374H3.528V90.634H0v9.374H9.374V96.48H32.94V94.162H22.792l-13.28-23L7.5,72.319,20.115,94.162H9.374V90.634H5.846V69.808H9.374V60.434H5.846V39.608H9.374V36.08H20.116L7.5,57.923l2.007,1.159,13.28-23H32.94V33.762ZM7.056,97.69H2.318V92.952H7.056S7.056,97.69,7.056,97.69Zm0-30.2H2.318V62.752H7.056S7.056,67.49,7.056,67.49Zm0-30.2H2.318V32.552H7.056S7.056,37.29,7.056,37.29Z" transform="translate(0 -30.234)"/>
      </g>
    </g>
  </g>
</svg>
