<svg xmlns="http://www.w3.org/2000/svg" width="426.789" height="227.525" viewBox="0 0 426.789 227.525">
  <g id="info_1_4-05" transform="translate(0)">
    <rect id="Rectángulo_5393" data-name="Rectángulo 5393" width="213.395" height="173" transform="translate(0)" fill="#ff7bac"/>
    <rect id="Rectángulo_5394" data-name="Rectángulo 5394" width="213.395" height="227.526" transform="translate(213.395)" fill="#f2f2f2"/>
    <rect id="Rectángulo_5395" data-name="Rectángulo 5395" width="53.345" height="54.526" transform="translate(0 173)" fill="#ff7bac"/>
    <g id="Grupo_57697" data-name="Grupo 57697" transform="translate(53.345 173)" opacity="0.75">
      <rect id="Rectángulo_5396" data-name="Rectángulo 5396" width="53.345" height="54.526" fill="#ff7bac"/>
    </g>
    <g id="Grupo_57698" data-name="Grupo 57698" transform="translate(106.697 173)" opacity="0.5">
      <rect id="Rectángulo_5397" data-name="Rectángulo 5397" width="53.345" height="54.526" fill="#ff7bac"/>
    </g>
    <g id="Grupo_57699" data-name="Grupo 57699" transform="translate(160.042 173)" opacity="0.25">
      <rect id="Rectángulo_5398" data-name="Rectángulo 5398" width="53.345" height="54.526" fill="#ff7bac"/>
    </g>
    <g id="Grupo_57700" data-name="Grupo 57700" transform="translate(240.567 40.819)">
      <path id="Trazado_102481" data-name="Trazado 102481" d="M328.406,75.893l-5.3-8.936h-1.227v8.936H317.66V55.59h7.369a8.558,8.558,0,0,1,2.946.47,5.074,5.074,0,0,1,2.045,1.31,5.489,5.489,0,0,1,1.151,1.916,7.016,7.016,0,0,1,.386,2.378A4.93,4.93,0,0,1,330.451,65a5.551,5.551,0,0,1-3.188,1.749l6.111,9.148Zm-6.505-16.8v4.847h2.484q3.166,0,3.166-2.416a2.211,2.211,0,0,0-.757-1.787,3.718,3.718,0,0,0-2.393-.644Z" transform="translate(-317.66 -54.31)"/>
      <path id="Trazado_102482" data-name="Trazado 102482" d="M347.031,77.962a9.087,9.087,0,0,1-4.089-.886,6.627,6.627,0,0,1-2.8-2.6,7.718,7.718,0,0,1-1.022-4.029,7.073,7.073,0,0,1,2.2-5.483,9.171,9.171,0,0,1,11.451,0,7.073,7.073,0,0,1,2.2,5.483,7.1,7.1,0,0,1-2.2,5.5A8.111,8.111,0,0,1,347.031,77.962Zm-.038-3.219a3.726,3.726,0,0,0,2.855-1.151,5.006,5.006,0,0,0,0-6.24,3.711,3.711,0,0,0-2.855-1.181,3.567,3.567,0,0,0-2.779,1.189,5.044,5.044,0,0,0,0,6.225A3.59,3.59,0,0,0,346.993,74.744Z" transform="translate(-322.865 -56.099)"/>
      <path id="Trazado_102483" data-name="Trazado 102483" d="M368.708,77.969a8.065,8.065,0,0,1-4.211-1.007,4.263,4.263,0,0,1-2.067-3.029l3.385-.962a2.719,2.719,0,0,0,2.893,2.143,3.029,3.029,0,0,0,1.477-.326,1.151,1.151,0,0,0,.576-1.121,1.174,1.174,0,0,0-.235-.757,1.938,1.938,0,0,0-.757-.538c-.333-.144-.659-.273-.984-.379s-.757-.227-1.28-.371a13.94,13.94,0,0,1-1.34-.417,9.324,9.324,0,0,1-1.272-.538,5.458,5.458,0,0,1-1.053-.757,3.029,3.029,0,0,1-.757-1.136,4.073,4.073,0,0,1-.273-1.515,3.7,3.7,0,0,1,1.568-3.2A7.028,7.028,0,0,1,368.458,63a7.217,7.217,0,0,1,3.787.924,4.2,4.2,0,0,1,1.931,2.863l-3.135.7a2.446,2.446,0,0,0-2.567-1.825,2.786,2.786,0,0,0-1.424.326,1.037,1.037,0,0,0-.56.954,1.121,1.121,0,0,0,.083.432.93.93,0,0,0,.3.356c.144.1.28.189.409.265a3.269,3.269,0,0,0,.576.235l.636.182.757.189.757.2c.515.136.969.28,1.356.417a8.687,8.687,0,0,1,1.25.591,4.362,4.362,0,0,1,1.083.856,3.787,3.787,0,0,1,.712,1.189,4.4,4.4,0,0,1,.28,1.613,4.3,4.3,0,0,1-.485,2.09,3.674,3.674,0,0,1-1.325,1.416,6.559,6.559,0,0,1-1.878.757A10.011,10.011,0,0,1,368.708,77.969Z" transform="translate(-328.525 -56.106)"/>
      <path id="Trazado_102484" data-name="Trazado 102484" d="M393.919,73.75a13.419,13.419,0,0,0,.356,3.522v.394h-3.786l-.326-1.575a4.687,4.687,0,0,1-2.022,1.393,7.414,7.414,0,0,1-2.613.462,6.923,6.923,0,0,1-1.348-.121,4.68,4.68,0,0,1-1.219-.432,4.013,4.013,0,0,1-1.007-.757,3.438,3.438,0,0,1-.674-1.144,4.664,4.664,0,0,1-.25-1.568,4.415,4.415,0,0,1,.265-1.568,3.788,3.788,0,0,1,.7-1.174,4.135,4.135,0,0,1,1.136-.856,8.257,8.257,0,0,1,1.439-.621,15.74,15.74,0,0,1,1.712-.447l2.378-.538a2.582,2.582,0,0,0,1.068-.454.909.909,0,0,0,.318-.757,1.515,1.515,0,0,0-.712-1.386,3.233,3.233,0,0,0-1.719-.424q-2.484,0-2.825,2.2l-3.582-.644a4.847,4.847,0,0,1,2.1-3.294,8.255,8.255,0,0,1,4.544-1.06q6.059,0,6.059,5.21ZM386.8,75.212a3.256,3.256,0,0,0,2.5-1.053,4.415,4.415,0,0,0,.969-3.1l-3.431,1a4.089,4.089,0,0,0-1.439.591,1.212,1.212,0,0,0-.5,1.037,1.363,1.363,0,0,0,.538,1.151A2.226,2.226,0,0,0,386.8,75.212Z" transform="translate(-333.039 -56.082)"/>
      <path id="Trazado_102485" data-name="Trazado 102485" d="M412.7,53.9h4.044V75.483h-3.832l-.1-1.878a4.211,4.211,0,0,1-1.833,1.636,6.217,6.217,0,0,1-2.711.583,7.005,7.005,0,0,1-2.7-.523,6.528,6.528,0,0,1-3.711-3.847,8.842,8.842,0,0,1-.545-3.166,8.2,8.2,0,0,1,.954-4.021,6.528,6.528,0,0,1,2.522-2.62,6.944,6.944,0,0,1,3.476-.856,6.346,6.346,0,0,1,2.62.523,4.142,4.142,0,0,1,1.81,1.515Zm-3.5,18.562a3.59,3.59,0,0,0,2.734-1.151,4.2,4.2,0,0,0,1.09-3.029,4.256,4.256,0,0,0-1.1-3.029,3.832,3.832,0,0,0-5.475,0,4.786,4.786,0,0,0,0,6.058,3.65,3.65,0,0,0,2.749,1.151Z" transform="translate(-337.963 -53.9)"/>
      <path id="Trazado_102486" data-name="Trazado 102486" d="M433.571,77.962a9.088,9.088,0,0,1-4.089-.886,6.627,6.627,0,0,1-2.8-2.6,7.717,7.717,0,0,1-1.022-4.029,7.073,7.073,0,0,1,2.2-5.483,9.171,9.171,0,0,1,11.451,0,7.073,7.073,0,0,1,2.2,5.483,7.1,7.1,0,0,1-2.2,5.5A8.111,8.111,0,0,1,433.571,77.962Zm-.045-3.219a3.734,3.734,0,0,0,2.863-1.151,5.006,5.006,0,0,0,0-6.24,3.711,3.711,0,0,0-2.863-1.181,3.567,3.567,0,0,0-2.772,1.189,5.044,5.044,0,0,0,0,6.225,3.582,3.582,0,0,0,2.772,1.159Z" transform="translate(-343.868 -56.099)"/>
    </g>
    <g id="Grupo_57701" data-name="Grupo 57701" transform="translate(241.665 114.134)">
      <path id="Trazado_102487" data-name="Trazado 102487" d="M323.78,159.627a4.491,4.491,0,0,1-1.643-.3,4.257,4.257,0,0,1-1.318-.841,3.787,3.787,0,0,1-.871-1.356,5.179,5.179,0,0,1,0-3.574,3.853,3.853,0,0,1,.878-1.356,4.007,4.007,0,0,1,1.31-.841,4.491,4.491,0,0,1,1.643-.3,4.2,4.2,0,0,1,2.211.591,3.65,3.65,0,0,1,1.492,1.628l-.977.4a2.809,2.809,0,0,0-1.091-1.189,3.12,3.12,0,0,0-1.613-.417,3.384,3.384,0,0,0-1.219.22,2.884,2.884,0,0,0-.977.629,2.8,2.8,0,0,0-.659,1.03,3.788,3.788,0,0,0-.242,1.378,3.869,3.869,0,0,0,.242,1.393,2.8,2.8,0,0,0,.659,1.03,2.886,2.886,0,0,0,.977.629,3.234,3.234,0,0,0,1.219.22,3.119,3.119,0,0,0,1.613-.417,2.771,2.771,0,0,0,1.091-1.174l.977.394a3.635,3.635,0,0,1-1.515,1.628A4.279,4.279,0,0,1,323.78,159.627Z" transform="translate(-319.236 -150.797)"/>
      <path id="Trazado_102488" data-name="Trazado 102488" d="M334.3,160.433a3.029,3.029,0,0,1-1.515-.363,2.56,2.56,0,0,1-1.053-1.053,3.25,3.25,0,0,1-.386-1.606,2.969,2.969,0,0,1,.825-2.2,3.1,3.1,0,0,1,4.211,0,3.029,3.029,0,0,1,.818,2.2,2.961,2.961,0,0,1-.826,2.2,2.825,2.825,0,0,1-2.075.825Zm0-.848a1.818,1.818,0,0,0,1.378-.6,2.272,2.272,0,0,0,.545-1.575,2.219,2.219,0,0,0-.545-1.568,1.787,1.787,0,0,0-1.378-.6,1.749,1.749,0,0,0-1.363.6,2.219,2.219,0,0,0-.545,1.568,2.272,2.272,0,0,0,.545,1.575,1.772,1.772,0,0,0,1.356.6Z" transform="translate(-322.079 -151.603)"/>
      <path id="Trazado_102489" data-name="Trazado 102489" d="M347.175,154.389a1.863,1.863,0,0,1,1.356.5,1.8,1.8,0,0,1,.515,1.386v4.044h-1.022v-3.787a1.325,1.325,0,0,0-.318-.962,1.106,1.106,0,0,0-.81-.326,1.143,1.143,0,0,0-.886.371,1.56,1.56,0,0,0-.341,1.1v3.6H344.63V156.57a1.378,1.378,0,0,0-.326-.984,1.083,1.083,0,0,0-.825-.341,1.144,1.144,0,0,0-.886.379,1.636,1.636,0,0,0-.341,1.128v3.559H341.23V154.5h1.022v.757a1.848,1.848,0,0,1,.666-.636,1.879,1.879,0,0,1,.924-.227,1.962,1.962,0,0,1,1,.25,1.515,1.515,0,0,1,.644.7,1.779,1.779,0,0,1,.7-.7A1.968,1.968,0,0,1,347.175,154.389Z" transform="translate(-324.478 -151.603)"/>
      <path id="Trazado_102490" data-name="Trazado 102490" d="M357.247,154.39a2.6,2.6,0,0,1,1.053.22,2.543,2.543,0,0,1,.863.591,2.773,2.773,0,0,1,.583.962,3.567,3.567,0,0,1,.22,1.257,3.029,3.029,0,0,1-.757,2.189,2.537,2.537,0,0,1-1.931.841,2.272,2.272,0,0,1-1.212-.333,2.2,2.2,0,0,1-.833-.894v4.029H354.21V154.5h.984v1.128a2.128,2.128,0,0,1,.833-.9,2.272,2.272,0,0,1,1.219-.341Zm-.2,5.165a1.772,1.772,0,0,0,1.348-.583,2.484,2.484,0,0,0,0-3.1,1.772,1.772,0,0,0-1.348-.583,1.8,1.8,0,0,0-1.371.606,2.393,2.393,0,0,0,0,3.029,1.765,1.765,0,0,0,1.4.636Z" transform="translate(-327.628 -151.603)"/>
      <path id="Trazado_102491" data-name="Trazado 102491" d="M365.149,160.437a1.947,1.947,0,0,1-1.28-.4,1.424,1.424,0,0,1-.5-1.189,1.667,1.667,0,0,1,.159-.757,1.287,1.287,0,0,1,.477-.53,2.59,2.59,0,0,1,.682-.333,6.459,6.459,0,0,1,.886-.2l.939-.159c.341-.061.515-.242.515-.538a1.007,1.007,0,0,0-.364-.863,1.461,1.461,0,0,0-.924-.28,1.515,1.515,0,0,0-.909.265,1.143,1.143,0,0,0-.432.818l-.924-.189a1.818,1.818,0,0,1,.757-1.25,2.726,2.726,0,0,1,1.59-.417,3.27,3.27,0,0,1,.841.106,2.134,2.134,0,0,1,.7.326,1.416,1.416,0,0,1,.5.621,2.338,2.338,0,0,1,.182.962v2.4a.977.977,0,0,0,.136.606.568.568,0,0,0,.454.159h.1v.757h-.507c-.629,0-1-.257-1.106-.757h-.045a2.2,2.2,0,0,1-1.931.848Zm.235-.825a1.553,1.553,0,0,0,1.25-.568,2.333,2.333,0,0,0,.469-1.515l-1.515.3a2.029,2.029,0,0,0-.9.326.847.847,0,0,0-.015,1.272,1.174,1.174,0,0,0,.689.189Z" transform="translate(-329.85 -151.607)"/>
      <path id="Trazado_102492" data-name="Trazado 102492" d="M374,160.438a2.779,2.779,0,0,1-1.568-.417,1.742,1.742,0,0,1-.757-1.2l.894-.258a1.227,1.227,0,0,0,.477.81,1.515,1.515,0,0,0,.954.288,2.18,2.18,0,0,0,.56-.076.908.908,0,0,0,.424-.288.757.757,0,0,0,.174-.53,1.157,1.157,0,0,0-.045-.242.887.887,0,0,0-.1-.189.484.484,0,0,0-.167-.159l-.2-.129a2.108,2.108,0,0,0-.265-.106l-.28-.1-.326-.091-.341-.1a5.729,5.729,0,0,1-.6-.212,2.528,2.528,0,0,1-.492-.28,1.083,1.083,0,0,1-.386-.462,1.563,1.563,0,0,1-.121-.651,1.514,1.514,0,0,1,.28-.924,1.575,1.575,0,0,1,.757-.553,2.953,2.953,0,0,1,1.038-.167,2.545,2.545,0,0,1,1.416.379,1.59,1.59,0,0,1,.7,1.136l-.841.212a1.106,1.106,0,0,0-.439-.757,1.416,1.416,0,0,0-.841-.25,1.447,1.447,0,0,0-.757.2.7.7,0,0,0-.326.629.576.576,0,0,0,.091.318.814.814,0,0,0,.174.227,1.137,1.137,0,0,0,.318.182l.341.121.424.106h.091l.56.159a4.055,4.055,0,0,1,.5.212,1.59,1.59,0,0,1,.454.318,1.514,1.514,0,0,1,.288.447,1.689,1.689,0,0,1,.114.629,1.651,1.651,0,0,1-.174.757,1.364,1.364,0,0,1-.477.538,2.158,2.158,0,0,1-.674.288A3.108,3.108,0,0,1,374,160.438Z" transform="translate(-331.868 -151.608)"/>
      <path id="Trazado_102493" data-name="Trazado 102493" d="M380.177,152.3a.7.7,0,0,1-.7-.7.659.659,0,0,1,.2-.485.7.7,0,0,1,.492-.2.674.674,0,0,1,.477.2.659.659,0,0,1,.2.485.674.674,0,0,1-.2.492.651.651,0,0,1-.477.2Zm-.523,7.179v-5.816h1.03v5.816Z" transform="translate(-333.761 -150.761)"/>
      <path id="Trazado_102494" data-name="Trazado 102494" d="M386.1,159.54a3.03,3.03,0,0,1-1.515-.364,2.59,2.59,0,0,1-1.045-1.053,3.173,3.173,0,0,1-.394-1.605,3.029,3.029,0,0,1,.825-2.2,3.1,3.1,0,0,1,4.211,0,3.332,3.332,0,0,1,0,4.392A2.84,2.84,0,0,1,386.1,159.54Zm0-.848a1.8,1.8,0,0,0,1.378-.6,2.271,2.271,0,0,0,.545-1.575,2.219,2.219,0,0,0-.545-1.568,1.78,1.78,0,0,0-1.378-.6,1.757,1.757,0,0,0-1.363.6,2.565,2.565,0,0,0,0,3.143,1.787,1.787,0,0,0,1.325.6Zm-.379-6.058,1.515-1.924.545.394-1.325,1.515Z" transform="translate(-334.651 -150.71)"/>
      <path id="Trazado_102495" data-name="Trazado 102495" d="M395.772,154.389a2.022,2.022,0,0,1,1.462.53,1.939,1.939,0,0,1,.553,1.515v3.915h-1v-3.681a1.394,1.394,0,0,0-.356-1.045,1.28,1.28,0,0,0-.916-.341,1.4,1.4,0,0,0-1.03.4,1.6,1.6,0,0,0-.409,1.189v3.476H393v-5.816h1.022v.757A1.939,1.939,0,0,1,395.772,154.389Z" transform="translate(-337.042 -151.602)"/>
      <path id="Trazado_102496" data-name="Trazado 102496" d="M325.434,178.75l-.719-1.992h-3.787l-.712,1.992H319.11l3.067-8.33h1.265l3.075,8.33Zm-4.135-2.923h3.1l-1.59-4.339Z" transform="translate(-319.11 -155.493)"/>
      <path id="Trazado_102497" data-name="Trazado 102497" d="M336.7,173.587a1.863,1.863,0,0,1,1.356.5,1.8,1.8,0,0,1,.515,1.386v4.044h-1.022v-3.787a1.325,1.325,0,0,0-.318-.962,1.1,1.1,0,0,0-.81-.318,1.136,1.136,0,0,0-.886.364,1.559,1.559,0,0,0-.341,1.1v3.6H334.16v-3.734a1.385,1.385,0,0,0-.326-.992,1.083,1.083,0,0,0-.825-.333,1.136,1.136,0,0,0-.886.371,1.636,1.636,0,0,0-.341,1.128v3.559H330.76v-5.816h1.022v.757a1.81,1.81,0,0,1,.666-.644,1.885,1.885,0,0,1,.931-.227,1.954,1.954,0,0,1,.992.25,1.515,1.515,0,0,1,.644.7,1.833,1.833,0,0,1,.7-.7,1.97,1.97,0,0,1,.992-.242Z" transform="translate(-321.937 -156.26)"/>
      <path id="Trazado_102498" data-name="Trazado 102498" d="M345.982,179.633a3.029,3.029,0,0,1-1.515-.363,2.56,2.56,0,0,1-1.053-1.053,3.248,3.248,0,0,1-.386-1.605,2.968,2.968,0,0,1,.825-2.2,2.855,2.855,0,0,1,2.1-.825,2.885,2.885,0,0,1,2.113.825,3.029,3.029,0,0,1,.818,2.2,2.961,2.961,0,0,1-.826,2.2A2.832,2.832,0,0,1,345.982,179.633Zm0-.848a1.787,1.787,0,0,0,1.371-.6,2.272,2.272,0,0,0,.553-1.575,2.226,2.226,0,0,0-.553-1.568,1.765,1.765,0,0,0-1.371-.6,1.734,1.734,0,0,0-1.363.6,2.218,2.218,0,0,0-.545,1.568,2.272,2.272,0,0,0,.545,1.575,1.765,1.765,0,0,0,1.363.6Z" transform="translate(-324.914 -156.262)"/>
      <path id="Trazado_102499" data-name="Trazado 102499" d="M353.92,174.75a1.771,1.771,0,0,1,.719-.757,2.181,2.181,0,0,1,1.121-.3v.962a1.931,1.931,0,0,0-1.356.432,1.8,1.8,0,0,0-.462,1.378v3.1H352.92v-5.816h1Z" transform="translate(-327.315 -156.287)"/>
      <path id="Trazado_102500" data-name="Trazado 102500" d="M320.4,197.95v-8.33h1.053v8.33Z" transform="translate(-319.423 -160.153)"/>
      <path id="Trazado_102501" data-name="Trazado 102501" d="M327.642,192.789a2.022,2.022,0,0,1,1.462.53,1.938,1.938,0,0,1,.553,1.515v3.915h-1.022v-3.688a1.386,1.386,0,0,0-.356-1.037,1.28,1.28,0,0,0-.916-.341,1.4,1.4,0,0,0-1.03.4,1.6,1.6,0,0,0-.409,1.189v3.476H324.9v-5.816h1.022v.757A1.931,1.931,0,0,1,327.642,192.789Z" transform="translate(-320.515 -160.922)"/>
      <path id="Trazado_102502" data-name="Trazado 102502" d="M339.735,192.789a1.871,1.871,0,0,1,1.356.5,1.825,1.825,0,0,1,.515,1.386v4.044h-1.03v-3.787a1.325,1.325,0,0,0-.318-.962,1.105,1.105,0,0,0-.81-.326,1.166,1.166,0,0,0-.886.371,1.56,1.56,0,0,0-.333,1.1v3.6h-1.045v-3.741a1.34,1.34,0,0,0-.326-.984,1.075,1.075,0,0,0-.825-.341,1.144,1.144,0,0,0-.879.379,1.636,1.636,0,0,0-.341,1.128v3.559H333.79V192.9h1.022v.757a1.735,1.735,0,0,1,.666-.636,1.878,1.878,0,0,1,.924-.227,1.954,1.954,0,0,1,.992.25,1.515,1.515,0,0,1,.644.7,1.8,1.8,0,0,1,.7-.7A1.954,1.954,0,0,1,339.735,192.789Z" transform="translate(-322.673 -160.922)"/>
      <path id="Trazado_102503" data-name="Trazado 102503" d="M347.928,198.844a1.992,1.992,0,0,1-1.28-.4,1.424,1.424,0,0,1-.5-1.189,1.725,1.725,0,0,1,.159-.757,1.317,1.317,0,0,1,.485-.507,2.713,2.713,0,0,1,.682-.333,7.676,7.676,0,0,1,.886-.212l.939-.151c.341-.061.515-.242.515-.538a1.007,1.007,0,0,0-.363-.863,1.439,1.439,0,0,0-.916-.28,1.561,1.561,0,0,0-.916.265,1.144,1.144,0,0,0-.432.818l-.924-.2a1.818,1.818,0,0,1,.757-1.242,2.726,2.726,0,0,1,1.59-.417,3.234,3.234,0,0,1,.841.106,2.136,2.136,0,0,1,.7.326,1.515,1.515,0,0,1,.507.621,2.477,2.477,0,0,1,.174.962v2.4a.977.977,0,0,0,.136.606.576.576,0,0,0,.462.159h.091v.757h-.507a.962.962,0,0,1-1.1-.757h-.1A2.219,2.219,0,0,1,347.928,198.844Zm.235-.825a1.553,1.553,0,0,0,1.25-.568,2.333,2.333,0,0,0,.47-1.515l-1.515.3a2.029,2.029,0,0,0-.9.326.848.848,0,0,0,0,1.272,1.174,1.174,0,0,0,.7.189Z" transform="translate(-325.671 -160.933)"/>
      <path id="Trazado_102504" data-name="Trazado 102504" d="M359.106,188.62h1.045v9.088h-.984v-1.128a2.166,2.166,0,0,1-.833.916,2.272,2.272,0,0,1-1.227.341,2.621,2.621,0,0,1-1.053-.22,2.581,2.581,0,0,1-.871-.606,2.818,2.818,0,0,1-.583-.962,3.475,3.475,0,0,1-.212-1.242,3.029,3.029,0,0,1,.757-2.189,2.537,2.537,0,0,1,1.931-.841,2.272,2.272,0,0,1,1.212.333,2.128,2.128,0,0,1,.833.886Zm-1.833,8.33a1.772,1.772,0,0,0,1.356-.606,2.227,2.227,0,0,0,.545-1.515,2.181,2.181,0,0,0-.553-1.515,1.742,1.742,0,0,0-1.348-.613,1.8,1.8,0,0,0-1.363.591,2.469,2.469,0,0,0,0,3.1,1.8,1.8,0,0,0,1.363.553Z" transform="translate(-327.67 -159.91)"/>
      <path id="Trazado_102505" data-name="Trazado 102505" d="M368.311,192.933h1.03v5.816h-.985v-.757a1.863,1.863,0,0,1-.719.651,2.272,2.272,0,0,1-1.022.227,1.992,1.992,0,0,1-1.462-.53,1.954,1.954,0,0,1-.545-1.515V192.91h1.022V196.6a1.356,1.356,0,0,0,.356,1.038,1.242,1.242,0,0,0,.916.348,1.4,1.4,0,0,0,1.03-.4,1.635,1.635,0,0,0,.4-1.189Z" transform="translate(-330.15 -160.952)"/>
      <path id="Trazado_102506" data-name="Trazado 102506" d="M374.61,193.95a1.772,1.772,0,0,1,.719-.757,2.158,2.158,0,0,1,1.121-.3v.962a1.931,1.931,0,0,0-1.356.432,1.8,1.8,0,0,0-.462,1.378v3.1H373.61v-5.816h1Z" transform="translate(-332.337 -160.947)"/>
      <path id="Trazado_102507" data-name="Trazado 102507" d="M381.135,198.834a3.029,3.029,0,0,1-1.515-.363,2.591,2.591,0,0,1-1.045-1.053,3.249,3.249,0,0,1-.386-1.605,2.961,2.961,0,0,1,.826-2.2,3.09,3.09,0,0,1,4.2,0,3.332,3.332,0,0,1,0,4.392A2.839,2.839,0,0,1,381.135,198.834Zm0-.848a1.8,1.8,0,0,0,1.371-.6,2.272,2.272,0,0,0,.545-1.575,2.219,2.219,0,0,0-.545-1.568,1.871,1.871,0,0,0-2.741,0,2.565,2.565,0,0,0,0,3.143,1.787,1.787,0,0,0,1.371.6Z" transform="translate(-333.447 -160.923)"/>
      <path id="Trazado_102508" data-name="Trazado 102508" d="M320.4,217.15v-8.33h2.681a3.991,3.991,0,0,1,2.12.538,3.264,3.264,0,0,1,1.3,1.469,5.143,5.143,0,0,1,.424,2.151,5.612,5.612,0,0,1-.242,1.689,3.954,3.954,0,0,1-.72,1.318,3.158,3.158,0,0,1-1.212.863,4.338,4.338,0,0,1-1.674.3Zm1.053-.962h1.6a2.537,2.537,0,0,0,2.075-.856,4.264,4.264,0,0,0,0-4.7,2.544,2.544,0,0,0-2.075-.848h-1.6Z" transform="translate(-319.423 -164.812)"/>
      <path id="Trazado_102509" data-name="Trazado 102509" d="M331.857,209.9a.7.7,0,0,1-.7-.7.659.659,0,0,1,.2-.485.7.7,0,0,1,.492-.2.674.674,0,0,1,.477.2.659.659,0,0,1,.2.485.674.674,0,0,1-.2.492.651.651,0,0,1-.477.2Zm-.522,7.179v-5.816h1.03v5.816Z" transform="translate(-322.034 -164.74)"/>
      <path id="Trazado_102510" data-name="Trazado 102510" d="M338.848,212.14h1.091l-2.363,5.816h-.871l-2.355-5.816h1.09l1.7,4.627Z" transform="translate(-322.809 -165.618)"/>
      <path id="Trazado_102511" data-name="Trazado 102511" d="M347.983,214.907v.28h-4.544A2.037,2.037,0,0,0,344,216.7a1.8,1.8,0,0,0,1.325.523,1.757,1.757,0,0,0,1.621-1.053l.924.2a2.582,2.582,0,0,1-.992,1.25,2.719,2.719,0,0,1-1.515.454,2.81,2.81,0,0,1-2.09-.81,3.446,3.446,0,0,1,0-4.423,2.772,2.772,0,0,1,2.06-.81,2.605,2.605,0,0,1,1.954.757,2.938,2.938,0,0,1,.7,2.12Zm-2.7-2.12a1.8,1.8,0,0,0-1.212.417,1.916,1.916,0,0,0-.606,1.2h3.484a1.772,1.772,0,0,0-.507-1.2,1.636,1.636,0,0,0-1.159-.439Z" transform="translate(-324.779 -165.591)"/>
      <path id="Trazado_102512" data-name="Trazado 102512" d="M352.869,213.15a1.8,1.8,0,0,1,.757-.757,2.151,2.151,0,0,1,1.113-.3v.962a1.909,1.909,0,0,0-1.348.432,1.8,1.8,0,0,0-.462,1.378v3.1H351.9v-5.816h1Z" transform="translate(-327.068 -165.606)"/>
      <path id="Trazado_102513" data-name="Trazado 102513" d="M359.221,217.335a1.515,1.515,0,0,1-1.136-.417,1.568,1.568,0,0,1-.417-1.159v-3.423H356.48v-.818h.439a.856.856,0,0,0,.644-.2,1.022,1.022,0,0,0,.182-.682V209.58h.954v1.939h1.34v.818H358.7v3.317a.886.886,0,0,0,.22.636.758.758,0,0,0,.583.227h.538v.818Z" transform="translate(-328.179 -164.997)"/>
      <path id="Trazado_102514" data-name="Trazado 102514" d="M363.6,209.9a.7.7,0,0,1-.7-.7.659.659,0,0,1,.2-.485.7.7,0,0,1,.492-.2.674.674,0,0,1,.477.2.658.658,0,0,1,.2.485.674.674,0,0,1-.2.492.651.651,0,0,1-.477.2Zm-.523,7.179v-5.816h1.03v5.816Z" transform="translate(-329.737 -164.74)"/>
      <path id="Trazado_102515" data-name="Trazado 102515" d="M371.4,207.82h1.022v9.088h-.954v-1.128a2.166,2.166,0,0,1-.833.916,2.272,2.272,0,0,1-1.227.341,2.673,2.673,0,0,1-1.924-.825,2.819,2.819,0,0,1-.583-.962,3.474,3.474,0,0,1-.22-1.242,3.029,3.029,0,0,1,.8-2.189,2.537,2.537,0,0,1,1.931-.841,2.272,2.272,0,0,1,1.212.333,2.181,2.181,0,0,1,.833.886Zm-1.833,8.33a1.749,1.749,0,0,0,1.348-.606,2.393,2.393,0,0,0,0-3.029,1.742,1.742,0,0,0-1.348-.613,1.8,1.8,0,0,0-1.363.591,2.469,2.469,0,0,0,0,3.1,1.8,1.8,0,0,0,1.363.553Z" transform="translate(-330.654 -164.57)"/>
      <path id="Trazado_102516" data-name="Trazado 102516" d="M379.3,218.063a3.03,3.03,0,0,1-1.515-.363,2.561,2.561,0,0,1-1.053-1.053,3.25,3.25,0,0,1-.386-1.605,2.969,2.969,0,0,1,.826-2.2,3.1,3.1,0,0,1,4.211,0,3.029,3.029,0,0,1,.818,2.2,2.961,2.961,0,0,1-.826,2.2A2.825,2.825,0,0,1,379.3,218.063Zm0-.848a1.818,1.818,0,0,0,1.378-.6,2.272,2.272,0,0,0,.545-1.575,2.219,2.219,0,0,0-.545-1.568,1.787,1.787,0,0,0-1.378-.6,1.749,1.749,0,0,0-1.363.6,2.219,2.219,0,0,0-.545,1.568,2.272,2.272,0,0,0,.545,1.575,1.772,1.772,0,0,0,1.356.576Z" transform="translate(-333 -165.589)"/>
      <path id="Trazado_102517" data-name="Trazado 102517" d="M325.441,236.33l-.719-1.992h-3.787l-.689,1.992H319.14l3.067-8.33h1.265l3.075,8.33Zm-4.135-2.908h3.1l-1.59-4.339Z" transform="translate(-319.117 -169.468)"/>
      <path id="Trazado_102518" data-name="Trazado 102518" d="M334.807,227h1.022v9.088h-.992v-1.128a2.144,2.144,0,0,1-.825.916,2.31,2.31,0,0,1-1.234.341,2.621,2.621,0,0,1-1.053-.22,2.477,2.477,0,0,1-.863-.606,2.717,2.717,0,0,1-.591-.962,3.477,3.477,0,0,1-.212-1.242,3.082,3.082,0,0,1,.757-2.189,2.56,2.56,0,0,1,1.931-.841,2.317,2.317,0,0,1,1.219.333,2.181,2.181,0,0,1,.833.886Zm-1.84,8.33a1.764,1.764,0,0,0,1.356-.606,2.226,2.226,0,0,0,.545-1.515,2.181,2.181,0,0,0-.553-1.515,1.727,1.727,0,0,0-1.348-.613,1.772,1.772,0,0,0-1.356.591,2.188,2.188,0,0,0-.553,1.553,2.158,2.158,0,0,0,.553,1.515,1.772,1.772,0,0,0,1.356.591Z" transform="translate(-321.766 -169.225)"/>
      <path id="Trazado_102519" data-name="Trazado 102519" d="M346.375,231.188a1.871,1.871,0,0,1,1.356.5,1.825,1.825,0,0,1,.515,1.386V237.1h-1.022v-3.787a1.333,1.333,0,0,0-.326-.962,1.106,1.106,0,0,0-.81-.326,1.166,1.166,0,0,0-.886.371,1.561,1.561,0,0,0-.333,1.1v3.6h-1.045v-3.741a1.371,1.371,0,0,0-.318-.985,1.1,1.1,0,0,0-.825-.341,1.144,1.144,0,0,0-.886.379,1.635,1.635,0,0,0-.341,1.128V237.1H340.43v-5.816h1.022v.757a1.735,1.735,0,0,1,.666-.636,1.878,1.878,0,0,1,.924-.227,1.954,1.954,0,0,1,.992.25,1.515,1.515,0,0,1,.644.7,1.8,1.8,0,0,1,.7-.7A1.954,1.954,0,0,1,346.375,231.188Z" transform="translate(-324.284 -170.239)"/>
      <path id="Trazado_102520" data-name="Trazado 102520" d="M353.829,229.1a.659.659,0,0,1-.485-.2.674.674,0,0,1-.2-.492.658.658,0,0,1,.2-.485.7.7,0,0,1,.969,0,.659.659,0,0,1,.2.485.674.674,0,0,1-.2.492A.659.659,0,0,1,353.829,229.1Zm-.522,7.179v-5.816h1.03v5.8Z" transform="translate(-327.369 -169.4)"/>
      <path id="Trazado_102521" data-name="Trazado 102521" d="M358.479,232.35a1.8,1.8,0,0,1,.757-.757,2.15,2.15,0,0,1,1.113-.3v.962a1.909,1.909,0,0,0-1.348.432,1.8,1.8,0,0,0-.462,1.378v3.067h-1.03v-5.816h1Z" transform="translate(-328.429 -170.266)"/>
      <path id="Trazado_102522" data-name="Trazado 102522" d="M363.921,237.237a1.984,1.984,0,0,1-1.272-.4,1.424,1.424,0,0,1-.5-1.189,1.665,1.665,0,0,1,.159-.757,1.318,1.318,0,0,1,.47-.53,2.848,2.848,0,0,1,.682-.333,6.449,6.449,0,0,1,.886-.2l.939-.159c.348-.061.515-.242.515-.538a1.007,1.007,0,0,0-.363-.863,1.439,1.439,0,0,0-.916-.28,1.514,1.514,0,0,0-.909.265,1.129,1.129,0,0,0-.439.818l-.916-.189a1.765,1.765,0,0,1,.757-1.25,2.68,2.68,0,0,1,1.583-.417,3.189,3.189,0,0,1,.841.106,2.136,2.136,0,0,1,.7.326,1.43,1.43,0,0,1,.507.621,2.339,2.339,0,0,1,.182.962v2.37a.984.984,0,0,0,.129.606.576.576,0,0,0,.462.159h.091v.757H367a.962.962,0,0,1-1.1-.757h-.083a2.2,2.2,0,0,1-1.9.878Zm.235-.825a1.553,1.553,0,0,0,1.25-.568,2.271,2.271,0,0,0,.477-1.515l-1.515.3a2.067,2.067,0,0,0-.9.326.854.854,0,0,0-.008,1.272A1.151,1.151,0,0,0,364.156,236.412Z" transform="translate(-329.554 -170.245)"/>
      <path id="Trazado_102523" data-name="Trazado 102523" d="M373.2,237.225a2.779,2.779,0,0,1-2.083-.833,2.976,2.976,0,0,1-.825-2.181,2.946,2.946,0,0,1,.825-2.181,2.772,2.772,0,0,1,2.083-.841,2.817,2.817,0,0,1,1.681.515,2.575,2.575,0,0,1,.985,1.409l-.962.159a1.742,1.742,0,0,0-1.711-1.227,1.719,1.719,0,0,0-1.348.6,2.605,2.605,0,0,0,0,3.128,1.719,1.719,0,0,0,1.348.6,1.742,1.742,0,0,0,1.712-1.227l.962.159a2.567,2.567,0,0,1-.992,1.416A2.81,2.81,0,0,1,373.2,237.225Z" transform="translate(-331.53 -170.241)"/>
      <path id="Trazado_102524" data-name="Trazado 102524" d="M380.107,229.1a.7.7,0,0,1-.7-.7.659.659,0,0,1,.2-.485.7.7,0,0,1,.492-.2.674.674,0,0,1,.477.2.659.659,0,0,1,.2.485.674.674,0,0,1-.2.492.651.651,0,0,1-.477.2Zm-.523,7.179v-5.816h1.03v5.8Z" transform="translate(-333.744 -169.4)"/>
      <path id="Trazado_102525" data-name="Trazado 102525" d="M386.053,236.34a3.029,3.029,0,0,1-1.515-.364,2.59,2.59,0,0,1-1.045-1.053,3.173,3.173,0,0,1-.394-1.606,3.029,3.029,0,0,1,.825-2.2,3.1,3.1,0,0,1,4.211,0,3.332,3.332,0,0,1,0,4.392A2.84,2.84,0,0,1,386.053,236.34Zm0-.848a1.8,1.8,0,0,0,1.378-.6,2.272,2.272,0,0,0,.545-1.575,2.219,2.219,0,0,0-.545-1.568,1.78,1.78,0,0,0-1.378-.6,1.757,1.757,0,0,0-1.363.6,2.565,2.565,0,0,0,0,3.143,1.787,1.787,0,0,0,1.363.6Zm-.379-6.059,1.515-1.924.545.394-1.325,1.515Z" transform="translate(-334.639 -169.349)"/>
      <path id="Trazado_102526" data-name="Trazado 102526" d="M395.719,231.189a2.022,2.022,0,0,1,1.462.53,1.939,1.939,0,0,1,.553,1.515v3.87h-1.022v-3.681a1.386,1.386,0,0,0-.356-1.045,1.28,1.28,0,0,0-.916-.341,1.4,1.4,0,0,0-1.03.4,1.6,1.6,0,0,0-.409,1.189V237.1h-1v-5.816h1.022v.757a1.931,1.931,0,0,1,1.7-.856Z" transform="translate(-337.042 -170.241)"/>
    </g>
    <g id="Grupo_57702" data-name="Grupo 57702" transform="translate(242.438 88.287)">
      <path id="Trazado_102527" data-name="Trazado 102527" d="M323.682,117.109a2.59,2.59,0,0,1,1.977.757,2.8,2.8,0,0,1,.757,1.969,2.688,2.688,0,0,1-.757,1.954,2.605,2.605,0,0,1-1.977.757H321.9v3.029H320.13v-8.467Zm-.3,4a1.272,1.272,0,0,0,.977-.333,1.249,1.249,0,0,0,.326-.924,1.272,1.272,0,0,0-.326-.916,1.3,1.3,0,0,0-.977-.341h-1.515v2.514Z" transform="translate(-320.13 -116.707)"/>
      <path id="Trazado_102528" data-name="Trazado 102528" d="M332.482,126.548a3.9,3.9,0,0,1-1.719-.371,2.8,2.8,0,0,1-1.181-1.1,3.225,3.225,0,0,1-.432-1.7,3.029,3.029,0,0,1,.924-2.272,3.878,3.878,0,0,1,4.824,0,3.362,3.362,0,0,1,0,4.627A3.423,3.423,0,0,1,332.482,126.548Zm0-1.356a1.568,1.568,0,0,0,1.2-.5,1.848,1.848,0,0,0,.454-1.31,1.885,1.885,0,0,0-.454-1.318,1.59,1.59,0,0,0-1.2-.492,1.515,1.515,0,0,0-1.174.5,2.143,2.143,0,0,0,0,2.62,1.515,1.515,0,0,0,1.159.5Z" transform="translate(-322.319 -117.475)"/>
      <path id="Trazado_102529" data-name="Trazado 102529" d="M341.613,126.535a3.461,3.461,0,0,1-1.78-.424,1.818,1.818,0,0,1-.863-1.272l1.424-.4a1.144,1.144,0,0,0,1.219.909,1.2,1.2,0,0,0,.621-.144.477.477,0,0,0,.242-.47.523.523,0,0,0-.1-.311.939.939,0,0,0-.31-.227l-.417-.159-.545-.159a5.633,5.633,0,0,1-.56-.174,3.28,3.28,0,0,1-.538-.227,2.028,2.028,0,0,1-.439-.31,1.264,1.264,0,0,1-.333-.477,1.75,1.75,0,0,1-.114-.651,1.56,1.56,0,0,1,.659-1.363,2.984,2.984,0,0,1,1.727-.454,3.029,3.029,0,0,1,1.59.386,1.757,1.757,0,0,1,.818,1.219l-1.325.3a1.022,1.022,0,0,0-1.083-.757,1.242,1.242,0,0,0-.591.129.447.447,0,0,0-.242.409.485.485,0,0,0,0,.182.363.363,0,0,0,.121.144l.174.114a1.12,1.12,0,0,0,.242.1,2.184,2.184,0,0,0,.265.076l.31.083.318.083c.22.061.409.114.568.174a3.654,3.654,0,0,1,.53.25,2.016,2.016,0,0,1,.454.356,1.733,1.733,0,0,1,.3.507,1.906,1.906,0,0,1,.114.674,1.863,1.863,0,0,1-.2.886,1.514,1.514,0,0,1-.56.591,2.688,2.688,0,0,1-.757.318A4.118,4.118,0,0,1,341.613,126.535Z" transform="translate(-324.702 -117.462)"/>
      <path id="Trazado_102530" data-name="Trazado 102530" d="M348.212,118.541a.975.975,0,0,1-.7-1.674.969.969,0,0,1,.7-.288.984.984,0,0,1,0,1.961Zm-.871,6.99v-6.059h1.719v6.059Z" transform="translate(-326.705 -116.58)"/>
      <path id="Trazado_102531" data-name="Trazado 102531" d="M354.02,125.823a1.825,1.825,0,0,1-1.378-.492,1.939,1.939,0,0,1-.485-1.409v-2.87h-1.2v-1.31h.386a1,1,0,0,0,.757-.25,1.31,1.31,0,0,0,.242-.909v-.8h1.515v1.961h1.257v1.31h-1.257v2.688c0,.53.235.757.7.757h.553v1.3Z" transform="translate(-327.612 -116.871)"/>
      <path id="Trazado_102532" data-name="Trazado 102532" d="M359.024,118.541a.954.954,0,0,1-.7-.288.981.981,0,0,1,.7-1.674.962.962,0,0,1,.689.288.977.977,0,0,1,0,1.386A.962.962,0,0,1,359.024,118.541Zm-.871,6.99v-6.058h1.719v6.058Z" transform="translate(-329.33 -116.58)"/>
      <path id="Trazado_102533" data-name="Trazado 102533" d="M366.442,120.37h1.81l-2.6,6.058H364.14l-2.56-6.058h1.833l1.515,4.158Z" transform="translate(-330.19 -117.5)"/>
      <path id="Trazado_102534" data-name="Trazado 102534" d="M373.931,126.548a3.915,3.915,0,0,1-1.727-.371,2.8,2.8,0,0,1-1.181-1.1,3.293,3.293,0,0,1-.424-1.7,2.961,2.961,0,0,1,.924-2.272,3.87,3.87,0,0,1,4.817,0,3.362,3.362,0,0,1,0,4.627A3.4,3.4,0,0,1,373.931,126.548Zm0-1.356a1.515,1.515,0,0,0,1.2-.5,1.825,1.825,0,0,0,.462-1.31,1.855,1.855,0,0,0-.462-1.318,1.568,1.568,0,0,0-1.2-.485,1.514,1.514,0,0,0-1.166.5,2.113,2.113,0,0,0,0,2.62A1.515,1.515,0,0,0,373.931,125.193Z" transform="translate(-332.378 -117.476)"/>
    </g>
    <g id="Grupo_57703" data-name="Grupo 57703" transform="translate(336.855 113.763)">
      <path id="Trazado_102535" data-name="Trazado 102535" d="M445.58,159.55v-8.33h1.075v8.33Z" transform="translate(-444.993 -150.463)"/>
      <path id="Trazado_102536" data-name="Trazado 102536" d="M452.827,154.389a2.037,2.037,0,0,1,1.462.53,1.969,1.969,0,0,1,.545,1.515v3.915H453.8v-3.681a1.393,1.393,0,0,0-.356-1.045,1.249,1.249,0,0,0-.909-.341,1.423,1.423,0,0,0-1.037.4,1.658,1.658,0,0,0-.409,1.189v3.476H450.07v-5.816h1.022v.757A1.939,1.939,0,0,1,452.827,154.389Z" transform="translate(-446.082 -151.231)"/>
      <path id="Trazado_102537" data-name="Trazado 102537" d="M461.757,153.378a1.931,1.931,0,0,1,1.439.545,2.052,2.052,0,0,1,.538,1.515v3.847h-1.022v-3.628a1.431,1.431,0,0,0-.356-1.068,1.265,1.265,0,0,0-.916-.348,1.386,1.386,0,0,0-1.022.4,1.613,1.613,0,0,0-.417,1.189v3.476h-1V150.22h1.022v4.044a1.9,1.9,0,0,1,.757-.651A2.273,2.273,0,0,1,461.757,153.378Z" transform="translate(-448.25 -150.22)"/>
      <path id="Trazado_102538" data-name="Trazado 102538" d="M468.319,152.3a.659.659,0,0,1-.485-.2.674.674,0,0,1-.2-.492.659.659,0,0,1,.2-.485.7.7,0,0,1,.969,0,.659.659,0,0,1,.2.485.674.674,0,0,1-.2.492.659.659,0,0,1-.485.2Zm-.523,7.179v-5.816h1.03v5.816Z" transform="translate(-450.344 -150.39)"/>
      <path id="Trazado_102539" data-name="Trazado 102539" d="M475.029,153.378a2.529,2.529,0,0,1,1.924.841,3.029,3.029,0,0,1,.757,2.189,3.091,3.091,0,0,1-.757,2.189,2.537,2.537,0,0,1-1.931.841,2.272,2.272,0,0,1-1.234-.341,2.113,2.113,0,0,1-.833-.916v1.128H472V150.22h1.022V154.6a2.151,2.151,0,0,1,.833-.894A2.325,2.325,0,0,1,475.029,153.378Zm-.22,5.165a1.772,1.772,0,0,0,1.356-.591,2.158,2.158,0,0,0,.553-1.515,2.188,2.188,0,0,0-.553-1.515,1.772,1.772,0,0,0-1.356-.591,1.727,1.727,0,0,0-1.348.613,2.181,2.181,0,0,0-.553,1.515,2.226,2.226,0,0,0,.545,1.515,1.734,1.734,0,0,0,1.378.568Z" transform="translate(-451.405 -150.22)"/>
      <path id="Trazado_102540" data-name="Trazado 102540" d="M482.2,152.3a.659.659,0,0,1-.485-.2.674.674,0,0,1-.2-.492.659.659,0,0,1,.2-.485.7.7,0,0,1,.969,0,.659.659,0,0,1,.2.485.674.674,0,0,1-.2.492.659.659,0,0,1-.485.2Zm-.515,7.179v-5.816h1.03v5.816Z" transform="translate(-453.713 -150.39)"/>
      <path id="Trazado_102541" data-name="Trazado 102541" d="M488.07,160.425a2.787,2.787,0,0,1-2.083-.833,3.317,3.317,0,0,1,0-4.362,2.787,2.787,0,0,1,2.083-.841,2.825,2.825,0,0,1,1.689.515,2.6,2.6,0,0,1,.977,1.409l-.962.159a1.727,1.727,0,0,0-.651-.909,1.8,1.8,0,0,0-1.053-.318,1.7,1.7,0,0,0-1.348.6,2.583,2.583,0,0,0,0,3.135,1.726,1.726,0,0,0,1.348.591,1.8,1.8,0,0,0,1.053-.318,1.727,1.727,0,0,0,.651-.909l.962.159a2.59,2.59,0,0,1-.985,1.416,2.817,2.817,0,0,1-1.681.507Z" transform="translate(-454.601 -151.232)"/>
      <path id="Trazado_102542" data-name="Trazado 102542" d="M495.007,152.3a.7.7,0,0,1-.7-.7.659.659,0,0,1,.2-.485.7.7,0,0,1,.977,0,.659.659,0,0,1,.2.485.7.7,0,0,1-.689.7Zm-.523,7.179v-5.816h1.03v5.816Z" transform="translate(-456.819 -150.39)"/>
      <path id="Trazado_102543" data-name="Trazado 102543" d="M500.942,159.54a3.029,3.029,0,0,1-1.515-.364,2.56,2.56,0,0,1-1.053-1.053,3.249,3.249,0,0,1-.386-1.605,2.969,2.969,0,0,1,.826-2.2,3.1,3.1,0,0,1,4.211,0,3.029,3.029,0,0,1,.818,2.2,2.961,2.961,0,0,1-.826,2.2,2.825,2.825,0,0,1-2.075.825Zm0-.848a1.788,1.788,0,0,0,1.371-.6,2.219,2.219,0,0,0,.553-1.575,2.189,2.189,0,0,0-.553-1.568,1.765,1.765,0,0,0-1.371-.6,1.734,1.734,0,0,0-1.363.6,2.219,2.219,0,0,0-.545,1.568,2.272,2.272,0,0,0,.545,1.575,1.765,1.765,0,0,0,1.355.6Zm-.386-6.058,1.515-1.924.545.394-1.325,1.515Z" transform="translate(-457.711 -150.339)"/>
      <path id="Trazado_102544" data-name="Trazado 102544" d="M510.611,154.389a2.045,2.045,0,0,1,1.469.53,1.969,1.969,0,0,1,.545,1.515v3.915H511.6v-3.68a1.394,1.394,0,0,0-.356-1.045,1.25,1.25,0,0,0-.909-.341,1.409,1.409,0,0,0-1.038.4,1.658,1.658,0,0,0-.409,1.189v3.476H507.87v-5.816h1.022v.757A1.939,1.939,0,0,1,510.611,154.389Z" transform="translate(-460.11 -151.231)"/>
      <path id="Trazado_102545" data-name="Trazado 102545" d="M448.959,178.826a4.453,4.453,0,0,1-1.636-.3,4.09,4.09,0,0,1-1.318-.841,3.786,3.786,0,0,1-.878-1.356,5.119,5.119,0,0,1,0-3.575A3.838,3.838,0,0,1,446,171.4a3.967,3.967,0,0,1,1.318-.841,4.6,4.6,0,0,1,3.264,0,3.772,3.772,0,0,1,2.189,2.189,4.832,4.832,0,0,1,.318,1.78,4.916,4.916,0,0,1-.318,1.795,3.856,3.856,0,0,1-.879,1.356,4.052,4.052,0,0,1-1.31.841A4.439,4.439,0,0,1,448.959,178.826Zm0-1a3.029,3.029,0,0,0,2.2-.878,3.249,3.249,0,0,0,.871-2.408,3.785,3.785,0,0,0-.235-1.378,2.8,2.8,0,0,0-.659-1.03,2.885,2.885,0,0,0-.977-.629,3.3,3.3,0,0,0-1.2-.22,3.348,3.348,0,0,0-1.212.22,2.847,2.847,0,0,0-.984.629,2.8,2.8,0,0,0-.659,1.03,3.786,3.786,0,0,0-.235,1.378,3.916,3.916,0,0,0,.235,1.4,2.839,2.839,0,0,0,.659,1.037,2.961,2.961,0,0,0,.984.629,3.346,3.346,0,0,0,1.212.22Z" transform="translate(-444.805 -155.085)"/>
      <path id="Trazado_102546" data-name="Trazado 102546" d="M461.167,173.59a2.6,2.6,0,0,1,1.053.22,2.545,2.545,0,0,1,.863.591,2.773,2.773,0,0,1,.583.962,3.568,3.568,0,0,1,.22,1.257,3.1,3.1,0,0,1-.757,2.2,2.552,2.552,0,0,1-1.931.833,2.272,2.272,0,0,1-1.212-.333,2.2,2.2,0,0,1-.833-.894v4.029H458.13V173.7h.984v1.136a2.1,2.1,0,0,1,.833-.909A2.272,2.272,0,0,1,461.167,173.59Zm-.2,5.165a1.749,1.749,0,0,0,1.34-.583,2.453,2.453,0,0,0,0-3.1,1.749,1.749,0,0,0-1.34-.583,1.8,1.8,0,0,0-1.371.606,2.393,2.393,0,0,0,0,3.029A1.764,1.764,0,0,0,460.97,178.755Z" transform="translate(-448.039 -155.892)"/>
      <path id="Trazado_102547" data-name="Trazado 102547" d="M468.869,174.75a1.75,1.75,0,0,1,.757-.757,2.151,2.151,0,0,1,1.113-.3v.962a1.908,1.908,0,0,0-1.348.432,1.8,1.8,0,0,0-.47,1.378v3.1H467.9v-5.816h1Z" transform="translate(-450.41 -155.916)"/>
      <path id="Trazado_102548" data-name="Trazado 102548" d="M478.052,176.512v.28h-4.544a2.037,2.037,0,0,0,.553,1.515,1.818,1.818,0,0,0,1.325.523,1.765,1.765,0,0,0,.962-.28,1.8,1.8,0,0,0,.666-.757l.924.2a2.674,2.674,0,0,1-.992,1.25,2.718,2.718,0,0,1-1.514.454,2.825,2.825,0,0,1-2.1-.81,3.461,3.461,0,0,1,0-4.423,2.772,2.772,0,0,1,2.06-.81,2.62,2.62,0,0,1,1.954.757A2.946,2.946,0,0,1,478.052,176.512Zm-2.688-2.12a1.788,1.788,0,0,0-1.212.417,1.886,1.886,0,0,0-.613,1.2h3.484a1.7,1.7,0,0,0-.507-1.2,1.605,1.605,0,0,0-1.151-.416Z" transform="translate(-451.535 -155.906)"/>
      <path id="Trazado_102549" data-name="Trazado 102549" d="M483.625,179.638a2.749,2.749,0,0,1-1.568-.417,1.75,1.75,0,0,1-.757-1.2l.894-.257a1.228,1.228,0,0,0,.477.81,1.567,1.567,0,0,0,.954.288,2.135,2.135,0,0,0,.56-.076.97.97,0,0,0,.432-.288.758.758,0,0,0,.167-.53.628.628,0,0,0-.045-.242,1.5,1.5,0,0,0-.091-.189.484.484,0,0,0-.167-.159,1.457,1.457,0,0,0-.469-.235l-.28-.1-.326-.091-.333-.1a5.938,5.938,0,0,1-.606-.212,2.769,2.769,0,0,1-.492-.28,1.129,1.129,0,0,1-.379-.462,1.56,1.56,0,0,1-.129-.651,1.515,1.515,0,0,1,.288-.924,1.575,1.575,0,0,1,.757-.553,2.909,2.909,0,0,1,1.03-.167,2.544,2.544,0,0,1,1.416.379,1.621,1.621,0,0,1,.712,1.136l-.841.212a1.113,1.113,0,0,0-.447-.757,1.394,1.394,0,0,0-.833-.25,1.424,1.424,0,0,0-.757.2.689.689,0,0,0-.326.629.644.644,0,0,0,.083.318.985.985,0,0,0,.174.227,1.138,1.138,0,0,0,.318.182l.348.121.424.106h.091c.227.053.409.106.553.151a4.1,4.1,0,0,1,.507.212,1.842,1.842,0,0,1,.454.318,1.454,1.454,0,0,1,.28.454,1.516,1.516,0,0,1,.121.621,1.749,1.749,0,0,1-.174.757,1.514,1.514,0,0,1-.477.538,2.273,2.273,0,0,1-.682.288A3.091,3.091,0,0,1,483.625,179.638Z" transform="translate(-453.662 -155.896)"/>
      <path id="Trazado_102550" data-name="Trazado 102550" d="M489.779,171.5a.659.659,0,0,1-.485-.2.674.674,0,0,1-.2-.492.659.659,0,0,1,.2-.485.681.681,0,0,1,.485-.2.7.7,0,0,1,.485.2.659.659,0,0,1,.2.485A.7.7,0,0,1,489.779,171.5Zm-.523,7.179v-5.816h1.03v5.816Z" transform="translate(-455.552 -155.05)"/>
      <path id="Trazado_102551" data-name="Trazado 102551" d="M496.778,173.74h1.1l-2.37,5.816h-.871l-2.355-5.816h1.091l1.7,4.627Z" transform="translate(-456.326 -155.928)"/>
      <path id="Trazado_102552" data-name="Trazado 102552" d="M503.253,179.633a3.03,3.03,0,0,1-1.515-.364,2.6,2.6,0,0,1-1.053-1.053,3.248,3.248,0,0,1-.386-1.605,2.968,2.968,0,0,1,.826-2.2,3.1,3.1,0,0,1,4.211,0,3.355,3.355,0,0,1,0,4.392,2.855,2.855,0,0,1-2.083.825Zm0-.848a1.817,1.817,0,0,0,1.378-.6,2.272,2.272,0,0,0,.545-1.575,2.219,2.219,0,0,0-.545-1.568,1.787,1.787,0,0,0-1.378-.6,1.757,1.757,0,0,0-1.363.6,2.219,2.219,0,0,0-.545,1.568,2.272,2.272,0,0,0,.545,1.575,1.787,1.787,0,0,0,1.356.6Z" transform="translate(-458.272 -155.892)"/>
      <path id="Trazado_102553" data-name="Trazado 102553" d="M445.23,197.708V188.62h1.038v9.088Z" transform="translate(-444.908 -159.539)"/>
      <path id="Trazado_102554" data-name="Trazado 102554" d="M449.779,190.7a.659.659,0,0,1-.485-.2.674.674,0,0,1-.2-.492.659.659,0,0,1,.2-.485.7.7,0,0,1,.969,0,.659.659,0,0,1,.2.485.674.674,0,0,1-.2.492A.659.659,0,0,1,449.779,190.7Zm-.515,7.179v-5.816h1.03v5.816Z" transform="translate(-445.845 -159.709)"/>
      <path id="Trazado_102555" data-name="Trazado 102555" d="M457.485,192.906h.992v5.521a2.96,2.96,0,0,1-5.665,1.287l.848-.417a1.924,1.924,0,0,0,1.946,1.348,1.658,1.658,0,0,0,1.363-.568,2.446,2.446,0,0,0,.47-1.59v-1.075a2.052,2.052,0,0,1-.825.841,2.56,2.56,0,0,1-3.1-.507,2.893,2.893,0,0,1-.757-2.067,2.832,2.832,0,0,1,.757-2.06,2.492,2.492,0,0,1,1.886-.818,2.386,2.386,0,0,1,1.219.326,2.1,2.1,0,0,1,.825.863Zm-1.848,4.779a1.78,1.78,0,0,0,1.34-.591,2.113,2.113,0,0,0,0-2.847,1.734,1.734,0,0,0-1.34-.6,1.764,1.764,0,0,0-1.341.576,2.045,2.045,0,0,0-.545,1.446,2.015,2.015,0,0,0,.553,1.439,1.772,1.772,0,0,0,1.348.576Z" transform="translate(-446.734 -160.554)"/>
      <path id="Trazado_102556" data-name="Trazado 102556" d="M468.032,195.712v.28h-4.544a2.037,2.037,0,0,0,.56,1.515,1.818,1.818,0,0,0,1.325.523,1.764,1.764,0,0,0,.962-.28,1.847,1.847,0,0,0,.666-.757l.924.2a2.636,2.636,0,0,1-1,1.25,2.719,2.719,0,0,1-1.515.454,2.81,2.81,0,0,1-2.09-.81,3.447,3.447,0,0,1,0-4.423,2.8,2.8,0,0,1,2.06-.81,2.628,2.628,0,0,1,1.961.757A2.938,2.938,0,0,1,468.032,195.712Zm-2.7-2.12a1.78,1.78,0,0,0-1.2.417,1.886,1.886,0,0,0-.613,1.2H467a1.734,1.734,0,0,0-.507-1.2A1.636,1.636,0,0,0,465.336,193.591Z" transform="translate(-449.103 -160.565)"/>
      <path id="Trazado_102557" data-name="Trazado 102557" d="M472.92,193.95a1.772,1.772,0,0,1,.719-.757,2.158,2.158,0,0,1,1.121-.3v.962a1.931,1.931,0,0,0-1.356.432,1.8,1.8,0,0,0-.462,1.378v3.1H471.92v-5.816h1Z" transform="translate(-451.385 -160.576)"/>
      <path id="Trazado_102558" data-name="Trazado 102558" d="M482.113,195.707v.28h-4.544a2.037,2.037,0,0,0,.56,1.515,1.8,1.8,0,0,0,1.325.523,1.757,1.757,0,0,0,1.621-1.053l.924.2a2.582,2.582,0,0,1-.992,1.25,2.719,2.719,0,0,1-1.515.454,2.809,2.809,0,0,1-2.09-.81,3.446,3.446,0,0,1,0-4.423,2.787,2.787,0,0,1,2.06-.81,2.6,2.6,0,0,1,1.954.757,2.938,2.938,0,0,1,.7,2.12Zm-2.7-2.121a1.764,1.764,0,0,0-1.2.417,1.885,1.885,0,0,0-.613,1.2h3.484a1.734,1.734,0,0,0-.507-1.2A1.635,1.635,0,0,0,479.417,193.586Z" transform="translate(-452.521 -160.56)"/>
      <path id="Trazado_102559" data-name="Trazado 102559" d="M486.337,197.931h3.1v.825H484.8l3.067-4.983h-2.916v-.833h4.461Z" transform="translate(-454.511 -160.588)"/>
      <path id="Trazado_102560" data-name="Trazado 102560" d="M493.731,198.837a1.984,1.984,0,0,1-1.272-.4,1.424,1.424,0,0,1-.5-1.189,1.728,1.728,0,0,1,.159-.757,1.348,1.348,0,0,1,.469-.522,2.849,2.849,0,0,1,.682-.333,7.685,7.685,0,0,1,.886-.212l.939-.151c.348-.061.515-.242.515-.538a1.008,1.008,0,0,0-.364-.863,1.439,1.439,0,0,0-.916-.28,1.515,1.515,0,0,0-.909.265,1.129,1.129,0,0,0-.439.818l-.916-.2a1.764,1.764,0,0,1,.757-1.242,2.681,2.681,0,0,1,1.583-.417,3.187,3.187,0,0,1,.841.106,2.135,2.135,0,0,1,.7.326,1.43,1.43,0,0,1,.507.621,2.341,2.341,0,0,1,.182.962v2.4a.985.985,0,0,0,.129.606.576.576,0,0,0,.462.159h.061v.757h-.507a.962.962,0,0,1-1.1-.757h-.053A2.219,2.219,0,0,1,493.731,198.837Zm.235-.825a1.553,1.553,0,0,0,1.25-.568,2.272,2.272,0,0,0,.477-1.515l-1.515.3a2.067,2.067,0,0,0-.9.326.855.855,0,0,0-.008,1.272,1.151,1.151,0,0,0,.7.189Z" transform="translate(-456.248 -160.555)"/>
      <path id="Trazado_102561" data-name="Trazado 102561" d="M445.58,217.15v-8.33h2.688a4.029,4.029,0,0,1,2.121.538,3.355,3.355,0,0,1,1.3,1.469,5.143,5.143,0,0,1,.424,2.151,5.38,5.38,0,0,1-.25,1.689,3.7,3.7,0,0,1-.719,1.318,3.105,3.105,0,0,1-1.212.863,4.271,4.271,0,0,1-1.666.3Zm1.06-.962h1.59a2.552,2.552,0,0,0,2.083-.856,3.62,3.62,0,0,0,.7-2.355,3.567,3.567,0,0,0-.7-2.34,2.529,2.529,0,0,0-2.075-.848h-1.575Z" transform="translate(-444.993 -164.441)"/>
      <path id="Trazado_102562" data-name="Trazado 102562" d="M461.509,214.9v.28h-4.544a2.037,2.037,0,0,0,.553,1.515,1.818,1.818,0,0,0,1.325.523,1.764,1.764,0,0,0,.962-.28,1.794,1.794,0,0,0,.666-.757l.924.2a2.636,2.636,0,0,1-1,1.25,2.682,2.682,0,0,1-1.515.454,2.825,2.825,0,0,1-2.136-.856,3.476,3.476,0,0,1,0-4.423,2.8,2.8,0,0,1,2.067-.81,2.62,2.62,0,0,1,1.954.757A2.938,2.938,0,0,1,461.509,214.9Zm-2.688-2.12a1.787,1.787,0,0,0-1.212.417,1.886,1.886,0,0,0-.613,1.2h3.484a1.7,1.7,0,0,0-.507-1.2,1.62,1.62,0,0,0-1.151-.439Z" transform="translate(-447.51 -165.21)"/>
      <path id="Trazado_102563" data-name="Trazado 102563" d="M468.492,210.986a2.529,2.529,0,0,1,1.908.833,3.082,3.082,0,0,1,.757,2.189,3.12,3.12,0,0,1-.757,2.189,2.537,2.537,0,0,1-1.931.841,2.318,2.318,0,0,1-1.242-.341,2.166,2.166,0,0,1-.833-.916v1.128h-.984V207.82h1.015V212.2a2.15,2.15,0,0,1,.833-.894,2.324,2.324,0,0,1,1.234-.326Zm-.227,5.165a1.787,1.787,0,0,0,1.378-.621,2.446,2.446,0,0,0,0-3.1,1.787,1.787,0,0,0-1.363-.591,1.749,1.749,0,0,0-1.348.613,2.393,2.393,0,0,0,0,3.029,1.749,1.749,0,0,0,1.333.659Z" transform="translate(-449.805 -164.199)"/>
      <path id="Trazado_102564" data-name="Trazado 102564" d="M475.649,209.9a.644.644,0,0,1-.485-.2.674.674,0,0,1-.2-.492.659.659,0,0,1,.2-.485.667.667,0,0,1,.485-.2.7.7,0,0,1,.485.2.658.658,0,0,1,.2.485.7.7,0,0,1-.689.7Zm-.523,7.179v-5.816h1.03v5.816Z" transform="translate(-452.123 -164.369)"/>
      <path id="Trazado_102565" data-name="Trazado 102565" d="M479.29,216.908V207.82h1.037v9.088Z" transform="translate(-453.174 -164.199)"/>
      <path id="Trazado_102566" data-name="Trazado 102566" d="M483.877,209.9a.7.7,0,0,1-.7-.7.659.659,0,0,1,.2-.485.7.7,0,0,1,.492-.2.674.674,0,0,1,.477.2.659.659,0,0,1,.2.485.674.674,0,0,1-.2.492.651.651,0,0,1-.477.2Zm-.523,7.179v-5.816h1.03v5.816Z" transform="translate(-454.118 -164.369)"/>
      <path id="Trazado_102567" data-name="Trazado 102567" d="M491.672,207.82h1.022v9.088h-.985v-1.128a2.165,2.165,0,0,1-.833.916,2.272,2.272,0,0,1-1.227.341,2.674,2.674,0,0,1-1.909-.825,2.82,2.82,0,0,1-.583-.962,3.477,3.477,0,0,1-.22-1.242,3.029,3.029,0,0,1,.8-2.189,2.537,2.537,0,0,1,1.931-.841,2.272,2.272,0,0,1,1.212.333,2.181,2.181,0,0,1,.833.886Zm-1.833,8.33a1.749,1.749,0,0,0,1.348-.606,2.393,2.393,0,0,0,0-3.029,1.75,1.75,0,0,0-1.348-.613,1.788,1.788,0,0,0-1.363.591,2.446,2.446,0,0,0,0,3.1,1.787,1.787,0,0,0,1.363.553Z" transform="translate(-455.029 -164.199)"/>
      <path id="Trazado_102568" data-name="Trazado 102568" d="M498.491,218.067a1.984,1.984,0,0,1-1.272-.4,1.424,1.424,0,0,1-.5-1.189,1.666,1.666,0,0,1,.159-.757,1.287,1.287,0,0,1,.477-.53,2.586,2.586,0,0,1,.682-.333,6.976,6.976,0,0,1,.886-.212l.939-.151c.341-.061.515-.242.515-.538a1.007,1.007,0,0,0-.364-.863,1.462,1.462,0,0,0-.924-.28,1.515,1.515,0,0,0-.909.265,1.144,1.144,0,0,0-.432.818l-.924-.2a1.817,1.817,0,0,1,.757-1.242,2.726,2.726,0,0,1,1.59-.417,3.273,3.273,0,0,1,.841.106,2.136,2.136,0,0,1,.7.326,1.469,1.469,0,0,1,.5.621,2.338,2.338,0,0,1,.182.962v2.4a.977.977,0,0,0,.136.606.561.561,0,0,0,.454.159h.1v.757h-.507c-.629,0-1-.257-1.106-.757h-.046a2.226,2.226,0,0,1-1.939.848Zm.242-.826a1.552,1.552,0,0,0,1.25-.568,2.332,2.332,0,0,0,.47-1.515l-1.515.3a2.029,2.029,0,0,0-.9.326.847.847,0,0,0-.015,1.272,1.174,1.174,0,0,0,.712.167Z" transform="translate(-457.403 -165.222)"/>
      <path id="Trazado_102569" data-name="Trazado 102569" d="M509.672,207.82h1.022v9.088h-.984v-1.128a2.166,2.166,0,0,1-.833.916,2.271,2.271,0,0,1-1.227.341,2.673,2.673,0,0,1-1.908-.825,2.816,2.816,0,0,1-.583-.962,3.478,3.478,0,0,1-.22-1.242,3.029,3.029,0,0,1,.8-2.189,2.537,2.537,0,0,1,1.931-.841,2.272,2.272,0,0,1,1.212.333,2.181,2.181,0,0,1,.833.886Zm-1.833,8.33a1.75,1.75,0,0,0,1.348-.606,2.393,2.393,0,0,0,0-3.029,1.75,1.75,0,0,0-1.348-.613,1.788,1.788,0,0,0-1.363.591,2.446,2.446,0,0,0,0,3.1,1.787,1.787,0,0,0,1.363.553Z" transform="translate(-459.398 -164.199)"/>
      <path id="Trazado_102570" data-name="Trazado 102570" d="M450.046,228.985h-3.393v2.726h3.029v.954h-3.029v2.719h3.385v.947H445.57V228h4.468Z" transform="translate(-444.99 -169.097)"/>
      <path id="Trazado_102571" data-name="Trazado 102571" d="M456.218,227.886h-.432a.916.916,0,0,0-.212,0l-.189.061a.425.425,0,0,0-.174.1l-.136.151a.522.522,0,0,0-.114.212,1.921,1.921,0,0,1-.068.288,2.59,2.59,0,0,0,0,.363v1.2h1.348v.818h-1.348V236.1h-1.015v-5H452.75v-.818h1.128V229.06a3.027,3.027,0,0,1,.061-.674,2.167,2.167,0,0,1,.167-.515,1.3,1.3,0,0,1,.273-.371,2.166,2.166,0,0,1,.356-.25,1.756,1.756,0,0,1,.439-.144,4.216,4.216,0,0,1,.5-.076h.568Z" transform="translate(-446.733 -168.861)"/>
      <path id="Trazado_102572" data-name="Trazado 102572" d="M458.89,236.2v-5.816h1.03V236.2Zm.129-6.816,1.515-1.924.538.394-1.34,1.53Z" transform="translate(-448.223 -168.965)"/>
      <path id="Trazado_102573" data-name="Trazado 102573" d="M468.945,231.188a1.863,1.863,0,0,1,1.356.5,1.8,1.8,0,0,1,.515,1.386V237.1h-1v-3.787a1.325,1.325,0,0,0-.318-.962,1.106,1.106,0,0,0-.81-.326,1.144,1.144,0,0,0-.886.371,1.56,1.56,0,0,0-.341,1.1v3.6h-1.038v-3.741a1.378,1.378,0,0,0-.326-.985,1.083,1.083,0,0,0-.826-.341,1.144,1.144,0,0,0-.886.379,1.635,1.635,0,0,0-.341,1.128V237.1H463v-5.816h1.022v.757a1.848,1.848,0,0,1,.666-.636,1.885,1.885,0,0,1,.931-.227,1.953,1.953,0,0,1,.992.25,1.514,1.514,0,0,1,.644.7,1.833,1.833,0,0,1,.7-.7A1.969,1.969,0,0,1,468.945,231.188Z" transform="translate(-449.221 -169.868)"/>
      <path id="Trazado_102574" data-name="Trazado 102574" d="M480.892,234.082v.28h-4.544a2.037,2.037,0,0,0,.56,1.515,1.818,1.818,0,0,0,1.325.523,1.764,1.764,0,0,0,.962-.28,1.848,1.848,0,0,0,.666-.757l.916.2a2.583,2.583,0,0,1-.992,1.25,2.719,2.719,0,0,1-1.515.454,2.81,2.81,0,0,1-2.09-.81,3.447,3.447,0,0,1,0-4.423,2.787,2.787,0,0,1,2.06-.81,2.628,2.628,0,0,1,1.961.757,2.953,2.953,0,0,1,.689,2.105Zm-2.7-2.12a1.78,1.78,0,0,0-1.2.417,1.886,1.886,0,0,0-.613,1.2h3.484a1.735,1.735,0,0,0-.507-1.2,1.636,1.636,0,0,0-1.159-.394Z" transform="translate(-452.224 -169.877)"/>
      <path id="Trazado_102575" data-name="Trazado 102575" d="M485.78,232.35a1.772,1.772,0,0,1,.719-.757,2.158,2.158,0,0,1,1.121-.3v.962a1.916,1.916,0,0,0-1.356.432,1.8,1.8,0,0,0-.462,1.378v3.067H484.78v-5.816h1Z" transform="translate(-454.506 -169.895)"/>
      <path id="Trazado_102576" data-name="Trazado 102576" d="M492.3,237.234a3.029,3.029,0,0,1-1.515-.364,2.589,2.589,0,0,1-1.045-1.053,3.251,3.251,0,0,1-.386-1.606,2.969,2.969,0,0,1,.826-2.2,3.09,3.09,0,0,1,4.2,0,3.332,3.332,0,0,1,0,4.392,2.84,2.84,0,0,1-2.083.825Zm0-.848a1.8,1.8,0,0,0,1.378-.6,2.272,2.272,0,0,0,.545-1.575,2.219,2.219,0,0,0-.545-1.568,1.78,1.78,0,0,0-1.378-.6,1.757,1.757,0,0,0-1.363.6,2.565,2.565,0,0,0,0,3.143,1.787,1.787,0,0,0,1.356.6Z" transform="translate(-455.617 -169.871)"/>
    </g>
    <g id="Grupo_57704" data-name="Grupo 57704" transform="translate(337.215 88.287)">
      <path id="Trazado_102577" data-name="Trazado 102577" d="M451.126,117.11h1.765v8.55h-2.052l-3.787-6.111v6.111H445.28v-8.55h2.06l3.787,6.058Z" transform="translate(-445.28 -116.709)"/>
      <path id="Trazado_102578" data-name="Trazado 102578" d="M463.493,123.278v.409H458.95a1.56,1.56,0,0,0,.485,1.113,1.651,1.651,0,0,0,1.871.174,1.325,1.325,0,0,0,.515-.613l1.56.227a2.658,2.658,0,0,1-1.068,1.431,3.143,3.143,0,0,1-1.795.507,3.287,3.287,0,0,1-2.37-.841,3.029,3.029,0,0,1-.879-2.317,3.1,3.1,0,0,1,.879-2.325,3.2,3.2,0,0,1,2.317-.848,2.779,2.779,0,0,1,3.029,3.082Zm-3.029-1.878a1.348,1.348,0,0,0-1.477,1.174h2.795a1.28,1.28,0,0,0-.424-.871,1.341,1.341,0,0,0-.863-.3Z" transform="translate(-448.188 -117.455)"/>
      <path id="Trazado_102579" data-name="Trazado 102579" d="M471.221,120.326h1.621v5.627a4.543,4.543,0,0,1-.227,1.515,2.446,2.446,0,0,1-.659,1.038,2.765,2.765,0,0,1-1.015.583,4.18,4.18,0,0,1-1.325.189,3,3,0,0,1-3.135-1.886l1.416-.606a2.052,2.052,0,0,0,.651.886,1.674,1.674,0,0,0,1,.28c1.053,0,1.583-.621,1.583-1.871v-.735a1.915,1.915,0,0,1-.757.6,2.568,2.568,0,0,1-1.083.227,2.711,2.711,0,0,1-1.068-.212,2.84,2.84,0,0,1-.886-.606,2.884,2.884,0,0,1-.6-.954,3.582,3.582,0,0,1,0-2.469,2.718,2.718,0,0,1,.606-.939,2.527,2.527,0,0,1,.886-.591,2.726,2.726,0,0,1,1.075-.212,2.5,2.5,0,0,1,1.128.25,1.749,1.749,0,0,1,.757.666Zm-2.613,4.021a1.469,1.469,0,0,0,1.113.47,1.514,1.514,0,0,0,1.121-.47,1.7,1.7,0,0,0,0-2.317,1.583,1.583,0,0,0-2.272,0,1.621,1.621,0,0,0-.447,1.166,1.59,1.59,0,0,0,.485,1.151Z" transform="translate(-450.425 -117.456)"/>
      <path id="Trazado_102580" data-name="Trazado 102580" d="M482.062,124.772a5.685,5.685,0,0,0,.144,1.515v.167h-1.59l-.136-.659a1.962,1.962,0,0,1-.848.583,3.2,3.2,0,0,1-1.1.2,2.681,2.681,0,0,1-.568-.053,2.085,2.085,0,0,1-.515-.182,1.516,1.516,0,0,1-.424-.318,1.288,1.288,0,0,1-.28-.477,2.12,2.12,0,0,1,0-1.325,1.666,1.666,0,0,1,.3-.492,2.075,2.075,0,0,1,.485-.364,3.782,3.782,0,0,1,.6-.257,7.1,7.1,0,0,1,.757-.189l1-.227a1.075,1.075,0,0,0,.454-.189.4.4,0,0,0,.129-.3.643.643,0,0,0-.3-.591,1.514,1.514,0,0,0-.757-.174,1.045,1.045,0,0,0-1.189.931l-1.515-.273a2.044,2.044,0,0,1,.879-1.393,3.521,3.521,0,0,1,1.908-.439q2.56,0,2.56,2.189Zm-3.029.621a1.371,1.371,0,0,0,1.053-.447,1.84,1.84,0,0,0,.409-1.3l-1.446.409a1.621,1.621,0,0,0-.606.25.515.515,0,0,0-.212.439.561.561,0,0,0,.227.477.931.931,0,0,0,.606.144Z" transform="translate(-452.891 -117.471)"/>
      <path id="Trazado_102581" data-name="Trazado 102581" d="M487.892,125.823a1.81,1.81,0,0,1-1.371-.492,1.909,1.909,0,0,1-.485-1.409v-2.87h-1.2v-1.31h.386a1.022,1.022,0,0,0,.757-.25,1.348,1.348,0,0,0,.242-.909v-.8h1.515v1.961h1.25v1.31h-1.227v2.688c0,.53.235.757.7.757h.545v1.3Z" transform="translate(-454.881 -116.871)"/>
      <path id="Trazado_102582" data-name="Trazado 102582" d="M492.924,118.541a.977.977,0,0,1-.7-.288.954.954,0,0,1-.288-.7.931.931,0,0,1,.3-.689.977.977,0,1,1,1.378,1.386A.947.947,0,0,1,492.924,118.541Zm-.863,6.99v-6.058h1.711v6.058Z" transform="translate(-456.604 -116.58)"/>
      <path id="Trazado_102583" data-name="Trazado 102583" d="M500.362,120.37h1.8l-2.59,6.058H498.06l-2.56-6.058h1.795l1.515,4.158Z" transform="translate(-457.468 -117.5)"/>
      <path id="Trazado_102584" data-name="Trazado 102584" d="M507.832,126.548a3.9,3.9,0,0,1-1.719-.371,2.8,2.8,0,0,1-1.181-1.1,3.227,3.227,0,0,1-.432-1.7,3.029,3.029,0,0,1,.924-2.272,3.877,3.877,0,0,1,4.824,0,3.362,3.362,0,0,1,0,4.627,3.423,3.423,0,0,1-2.416.81Zm0-1.356a1.568,1.568,0,0,0,1.2-.5,1.848,1.848,0,0,0,.454-1.31,1.886,1.886,0,0,0-.454-1.318,1.59,1.59,0,0,0-1.2-.492,1.515,1.515,0,0,0-1.174.5,2.143,2.143,0,0,0,0,2.62,1.515,1.515,0,0,0,1.159.5Z" transform="translate(-459.652 -117.475)"/>
    </g>
  </g>
</svg>
