<svg id="info_1_4-06" xmlns="http://www.w3.org/2000/svg" width="426.789" height="227.525" viewBox="0 0 426.789 227.525">
  <rect id="Rectángulo_5399" data-name="Rectángulo 5399" width="53.345" height="54.526" transform="translate(0 173)" fill="#662d91"/>
  <g id="Grupo_57713" data-name="Grupo 57713">
    <rect id="Rectángulo_5400" data-name="Rectángulo 5400" width="213.395" height="173" fill="#662d91"/>
    <rect id="Rectángulo_5401" data-name="Rectángulo 5401" width="213.395" height="227.526" transform="translate(213.395)" fill="#f2f2f2"/>
    <g id="Grupo_57705" data-name="Grupo 57705" transform="translate(53.345 173)" opacity="0.75">
      <rect id="Rectángulo_5402" data-name="Rectángulo 5402" width="53.345" height="54.526" fill="#662d91"/>
    </g>
    <g id="Grupo_57706" data-name="Grupo 57706" transform="translate(106.697 173)" opacity="0.5">
      <rect id="Rectángulo_5403" data-name="Rectángulo 5403" width="53.345" height="54.526" fill="#662d91"/>
    </g>
    <g id="Grupo_57707" data-name="Grupo 57707" transform="translate(160.042 173)" opacity="0.25">
      <rect id="Rectángulo_5404" data-name="Rectángulo 5404" width="53.345" height="54.526" fill="#662d91"/>
    </g>
    <g id="Grupo_57708" data-name="Grupo 57708" transform="translate(238.386 40.819)">
      <path id="Trazado_102585" data-name="Trazado 102585" d="M329.9,55.59h4.483l-7.5,20.3H322.24l-7.46-20.3h4.468l5.3,15.389Z" transform="translate(-314.78 -54.31)"/>
      <path id="Trazado_102586" data-name="Trazado 102586" d="M345.958,58.98a2.34,2.34,0,0,1-2.348-2.333,2.219,2.219,0,0,1,.7-1.636,2.322,2.322,0,0,1,3.287,0,2.325,2.325,0,0,1,0,3.287,2.272,2.272,0,0,1-1.636.682Zm-2.052,16.608V61.146h4.074V75.588Z" transform="translate(-321.777 -54.004)"/>
      <path id="Trazado_102587" data-name="Trazado 102587" d="M361.243,77.962a9.088,9.088,0,0,1-4.09-.886,6.581,6.581,0,0,1-2.8-2.6,7.785,7.785,0,0,1-1.015-4.029,7.066,7.066,0,0,1,2.189-5.483,9.171,9.171,0,0,1,11.451,0,7.073,7.073,0,0,1,2.2,5.483,7.1,7.1,0,0,1-2.2,5.5A8.111,8.111,0,0,1,361.243,77.962Zm0-3.219a3.681,3.681,0,0,0,2.817-1.151,5.006,5.006,0,0,0,0-6.24,3.688,3.688,0,0,0-2.855-1.181,3.567,3.567,0,0,0-2.779,1.189,5.044,5.044,0,0,0,0,6.225,3.59,3.59,0,0,0,2.779,1.159Z" transform="translate(-324.135 -56.099)"/>
      <path id="Trazado_102588" data-name="Trazado 102588" d="M378.22,75.483V53.9h4.089V75.483Z" transform="translate(-330.176 -53.9)"/>
      <path id="Trazado_102589" data-name="Trazado 102589" d="M402.364,70.245l-.068.969H391.617a3.726,3.726,0,0,0,1.151,2.643,3.688,3.688,0,0,0,2.544.909,3.544,3.544,0,0,0,1.9-.5,3.09,3.09,0,0,0,1.219-1.439l3.7.553a6.324,6.324,0,0,1-2.529,3.385,7.52,7.52,0,0,1-4.271,1.2,7.831,7.831,0,0,1-5.627-1.984,7.27,7.27,0,0,1-2.083-5.513,7.323,7.323,0,0,1,2.09-5.521,7.573,7.573,0,0,1,5.5-2.014,7.247,7.247,0,0,1,5.18,1.84A7.174,7.174,0,0,1,402.364,70.245Zm-7.126-4.453a3.2,3.2,0,0,0-3.514,2.779h6.634a3.029,3.029,0,0,0-.992-2.067,3.18,3.18,0,0,0-2.128-.712Z" transform="translate(-332.456 -56.091)"/>
      <path id="Trazado_102590" data-name="Trazado 102590" d="M415.937,76.277a4.332,4.332,0,0,1-3.256-1.174,4.544,4.544,0,0,1-1.159-3.332V64.955H408.69v-3.1h.909a2.4,2.4,0,0,0,1.8-.606,3.143,3.143,0,0,0,.576-2.151V57.17h3.65v4.665h2.984v3.1h-2.984v6.392c0,1.25.56,1.871,1.674,1.871h1.31v3.075Z" transform="translate(-337.571 -54.694)"/>
      <path id="Trazado_102591" data-name="Trazado 102591" d="M437.354,73.753a13.817,13.817,0,0,0,.348,3.521v.394h-3.787l-.318-1.575a4.665,4.665,0,0,1-2.03,1.393,7.415,7.415,0,0,1-2.613.462,6.972,6.972,0,0,1-1.348-.121,4.459,4.459,0,0,1-1.227-.462,3.6,3.6,0,0,1-1.007-.757,3.319,3.319,0,0,1-.674-1.144,4.665,4.665,0,0,1-.25-1.568,4.257,4.257,0,0,1,.265-1.568,3.537,3.537,0,0,1,.7-1.174,4.136,4.136,0,0,1,1.136-.856,8.437,8.437,0,0,1,1.431-.621,16.383,16.383,0,0,1,1.719-.447l2.37-.538a2.627,2.627,0,0,0,1.121-.417.909.909,0,0,0,.318-.757,1.515,1.515,0,0,0-.712-1.386,3.309,3.309,0,0,0-1.719-.424q-2.492,0-2.825,2.2l-3.582-.644a4.809,4.809,0,0,1,2.09-3.294,8.331,8.331,0,0,1,4.544-1.06q6.058,0,6.058,5.21Zm-7.126,1.462a3.257,3.257,0,0,0,2.507-1.053,4.415,4.415,0,0,0,.969-3.1l-3.431,1a4.089,4.089,0,0,0-1.439.591,1.212,1.212,0,0,0-.5,1.038,1.356,1.356,0,0,0,.53,1.151A2.226,2.226,0,0,0,430.228,75.215Z" transform="translate(-341.396 -56.085)"/>
    </g>
    <g id="Grupo_57709" data-name="Grupo 57709" transform="translate(241.953 114.294)">
      <path id="Trazado_102592" data-name="Trazado 102592" d="M320.4,159.55v-8.33h1.053v8.33Z" transform="translate(-319.711 -150.994)"/>
      <path id="Trazado_102593" data-name="Trazado 102593" d="M330.845,154.389a1.87,1.87,0,0,1,1.356.5,1.825,1.825,0,0,1,.515,1.386v4.044h-1.03v-3.787a1.326,1.326,0,0,0-.318-.962,1.106,1.106,0,0,0-.81-.326,1.166,1.166,0,0,0-.886.371,1.56,1.56,0,0,0-.341,1.1v3.6h-1.037v-3.741a1.341,1.341,0,0,0-.288-.962,1.075,1.075,0,0,0-.825-.341,1.128,1.128,0,0,0-.879.379,1.636,1.636,0,0,0-.341,1.128v3.559H324.9v-5.816h1.022v.757a1.734,1.734,0,0,1,.666-.636,1.878,1.878,0,0,1,.924-.227,1.954,1.954,0,0,1,.992.25,1.514,1.514,0,0,1,.644.7,1.833,1.833,0,0,1,.7-.7A2,2,0,0,1,330.845,154.389Z" transform="translate(-320.803 -151.762)"/>
      <path id="Trazado_102594" data-name="Trazado 102594" d="M339.038,160.437a1.946,1.946,0,0,1-1.28-.4,1.424,1.424,0,0,1-.5-1.189,1.667,1.667,0,0,1,.159-.757,1.287,1.287,0,0,1,.477-.53,2.589,2.589,0,0,1,.682-.333,6.452,6.452,0,0,1,.886-.2l.939-.159c.341-.061.515-.242.515-.538a1.007,1.007,0,0,0-.363-.863,1.454,1.454,0,0,0-.916-.28,1.515,1.515,0,0,0-.916.265,1.143,1.143,0,0,0-.432.818l-.924-.189a1.818,1.818,0,0,1,.757-1.25,2.726,2.726,0,0,1,1.59-.417,3.234,3.234,0,0,1,.841.106,2.136,2.136,0,0,1,.7.326,1.515,1.515,0,0,1,.507.621,2.475,2.475,0,0,1,.174.962v2.4a.976.976,0,0,0,.136.606.568.568,0,0,0,.454.159h.1v.757h-.507a.977.977,0,0,1-1.106-.757h-.045a2.2,2.2,0,0,1-1.931.848Zm.235-.825a1.553,1.553,0,0,0,1.25-.568,2.332,2.332,0,0,0,.47-1.515l-1.515.3a2.029,2.029,0,0,0-.9.326.847.847,0,0,0-.015,1.272,1.174,1.174,0,0,0,.712.189Z" transform="translate(-323.801 -151.767)"/>
      <path id="Trazado_102595" data-name="Trazado 102595" d="M350.122,154.5h.992v5.521a3.158,3.158,0,0,1-.757,2.272,3.12,3.12,0,0,1-4.9-.984l.841-.417a1.931,1.931,0,0,0,1.946,1.348,1.659,1.659,0,0,0,1.409-.576,2.4,2.4,0,0,0,.477-1.59V159a2.067,2.067,0,0,1-.833.841,2.552,2.552,0,0,1-3.09-.507,2.863,2.863,0,0,1-.757-2.067,2.832,2.832,0,0,1,.757-2.06,2.514,2.514,0,0,1,1.893-.818,2.377,2.377,0,0,1,1.212.326,2.1,2.1,0,0,1,.826.863Zm-1.848,4.786a1.757,1.757,0,0,0,1.34-.6,2.12,2.12,0,0,0,0-2.847,1.825,1.825,0,0,0-2.681,0,2.022,2.022,0,0,0-.553,1.446,2.044,2.044,0,0,0,.553,1.439A1.794,1.794,0,0,0,348.274,159.29Z" transform="translate(-325.789 -151.763)"/>
      <path id="Trazado_102596" data-name="Trazado 102596" d="M356.149,152.3a.659.659,0,0,1-.485-.2.674.674,0,0,1-.2-.492.659.659,0,0,1,.2-.485.7.7,0,0,1,.969,0,.659.659,0,0,1,.2.485.674.674,0,0,1-.2.492A.659.659,0,0,1,356.149,152.3Zm-.522,7.179v-5.816h1v5.816Z" transform="translate(-328.22 -150.921)"/>
      <path id="Trazado_102597" data-name="Trazado 102597" d="M362.539,154.389a2.022,2.022,0,0,1,1.462.53,1.969,1.969,0,0,1,.553,1.515v3.915h-1.03v-3.68a1.363,1.363,0,0,0-.356-1.045,1.249,1.249,0,0,0-.909-.341,1.424,1.424,0,0,0-1.038.4,1.62,1.62,0,0,0-.4,1.189v3.476h-1.03v-5.816h1.03v.757A1.931,1.931,0,0,1,362.539,154.389Z" transform="translate(-329.27 -151.762)"/>
      <path id="Trazado_102598" data-name="Trazado 102598" d="M369.889,160.437a1.962,1.962,0,0,1-1.28-.4,1.424,1.424,0,0,1-.5-1.189,1.575,1.575,0,0,1,.167-.757,1.264,1.264,0,0,1,.47-.53,2.85,2.85,0,0,1,.682-.333,6.458,6.458,0,0,1,.886-.2l.939-.159c.348-.061.515-.242.515-.538a1.007,1.007,0,0,0-.364-.863,1.439,1.439,0,0,0-.916-.28,1.56,1.56,0,0,0-.916.265,1.143,1.143,0,0,0-.432.818l-.924-.189a1.8,1.8,0,0,1,.757-1.25,2.681,2.681,0,0,1,1.583-.417,3.187,3.187,0,0,1,.841.106,2.136,2.136,0,0,1,.7.326,1.431,1.431,0,0,1,.507.621,2.478,2.478,0,0,1,.174.962v2.4a.976.976,0,0,0,.136.606.575.575,0,0,0,.462.159h.091v.757h-.507a.962.962,0,0,1-1.1-.757h-.053A2.2,2.2,0,0,1,369.889,160.437Zm.235-.825a1.553,1.553,0,0,0,1.25-.568,2.272,2.272,0,0,0,.47-1.515l-1.515.3a2.068,2.068,0,0,0-.9.326.84.84,0,0,0-.008,1.272A1.137,1.137,0,0,0,370.123,159.612Z" transform="translate(-331.288 -151.767)"/>
      <path id="Trazado_102599" data-name="Trazado 102599" d="M378.594,159.74a1.515,1.515,0,0,1-1.136-.417,1.59,1.59,0,0,1-.409-1.159v-3.423H375.86v-.818h.432a.833.833,0,0,0,.644-.2.977.977,0,0,0,.189-.682V152h.954v1.939h1.333v.818h-1.333v3.3a.856.856,0,0,0,.22.636.757.757,0,0,0,.583.227h.53v.818Z" transform="translate(-333.171 -151.183)"/>
      <path id="Trazado_102600" data-name="Trazado 102600" d="M382.969,152.3a.659.659,0,0,1-.485-.2.674.674,0,0,1-.2-.492.659.659,0,0,1,.2-.485.7.7,0,0,1,.969,0,.659.659,0,0,1,.2.485.674.674,0,0,1-.2.492A.659.659,0,0,1,382.969,152.3Zm-.523,7.179v-5.816h1.03v5.816Z" transform="translate(-334.729 -150.921)"/>
      <path id="Trazado_102601" data-name="Trazado 102601" d="M389.961,154.54h1.1l-2.37,5.816h-.863l-2.355-5.816h1.083l1.7,4.627Z" transform="translate(-335.503 -151.799)"/>
      <path id="Trazado_102602" data-name="Trazado 102602" d="M396.435,160.433a3.029,3.029,0,0,1-1.515-.363,2.659,2.659,0,0,1-1.045-1.053,3.248,3.248,0,0,1-.386-1.606,3.029,3.029,0,0,1,.825-2.2,3.1,3.1,0,0,1,4.211,0,3.332,3.332,0,0,1,0,4.392A2.855,2.855,0,0,1,396.435,160.433Zm0-.848a1.8,1.8,0,0,0,1.378-.6,2.272,2.272,0,0,0,.545-1.575,2.219,2.219,0,0,0-.545-1.568,1.78,1.78,0,0,0-1.378-.6,1.757,1.757,0,0,0-1.363.6,2.218,2.218,0,0,0-.538,1.568,2.272,2.272,0,0,0,.538,1.575,1.787,1.787,0,0,0,1.356.6Z" transform="translate(-337.448 -151.763)"/>
      <path id="Trazado_102603" data-name="Trazado 102603" d="M324.861,171.389h-3.378v2.726h2.976v.954h-2.976v2.719h3.378v.962H320.4v-8.33h4.461Z" transform="translate(-319.711 -155.653)"/>
      <path id="Trazado_102604" data-name="Trazado 102604" d="M330.31,179.633a2.749,2.749,0,0,1-1.552-.432A1.749,1.749,0,0,1,328,178l.894-.257a1.287,1.287,0,0,0,.477.81,1.568,1.568,0,0,0,.954.288,2.135,2.135,0,0,0,.56-.076.97.97,0,0,0,.432-.288.826.826,0,0,0,.174-.53.814.814,0,0,0-.053-.242.887.887,0,0,0-.091-.189.484.484,0,0,0-.167-.159,1.744,1.744,0,0,0-.2-.129,1.578,1.578,0,0,0-.257-.106l-.288-.1-.326-.091-.333-.1c-.242-.076-.447-.144-.606-.212a2.769,2.769,0,0,1-.492-.28,1.128,1.128,0,0,1-.379-.462,1.563,1.563,0,0,1-.129-.651,1.515,1.515,0,0,1,.288-.924,1.576,1.576,0,0,1,.757-.553,2.91,2.91,0,0,1,1.03-.167,2.53,2.53,0,0,1,1.416.379,1.621,1.621,0,0,1,.712,1.136l-.841.212a1.113,1.113,0,0,0-.447-.757,1.378,1.378,0,0,0-.833-.25,1.447,1.447,0,0,0-.757.2.689.689,0,0,0-.326.629.643.643,0,0,0,.083.318,1.248,1.248,0,0,0,.174.227,1.091,1.091,0,0,0,.326.182l.341.121.424.106h.091c.227.053.417.106.56.151a4.062,4.062,0,0,1,.5.212,1.841,1.841,0,0,1,.454.318,1.454,1.454,0,0,1,.28.454,1.514,1.514,0,0,1,.121.621,1.75,1.75,0,0,1-.174.757,1.363,1.363,0,0,1-.477.538,2.272,2.272,0,0,1-.674.288,3.107,3.107,0,0,1-.886.2Z" transform="translate(-321.555 -156.422)"/>
      <path id="Trazado_102605" data-name="Trazado 102605" d="M339.075,173.59a2.62,2.62,0,0,1,1.053.22,2.545,2.545,0,0,1,.863.591,2.891,2.891,0,0,1,.583.962,3.567,3.567,0,0,1,.22,1.257,3.1,3.1,0,0,1-.757,2.2,2.552,2.552,0,0,1-1.931.833,2.339,2.339,0,0,1-1.219-.333,2.181,2.181,0,0,1-.825-.894v4.029H336V173.7h.992v1.136a2.127,2.127,0,0,1,.825-.909A2.31,2.31,0,0,1,339.075,173.59Zm-.2,5.165a1.749,1.749,0,0,0,1.348-.583,2.484,2.484,0,0,0,0-3.105,1.749,1.749,0,0,0-1.348-.583,1.788,1.788,0,0,0-1.363.606,2.37,2.37,0,0,0,0,3.029A1.764,1.764,0,0,0,338.87,178.755Z" transform="translate(-323.497 -156.422)"/>
      <path id="Trazado_102606" data-name="Trazado 102606" d="M346.247,171.5a.7.7,0,0,1-.7-.7.659.659,0,0,1,.2-.485.7.7,0,0,1,.492-.2.674.674,0,0,1,.477.2.659.659,0,0,1,.2.485.674.674,0,0,1-.2.492A.651.651,0,0,1,346.247,171.5Zm-.522,7.179v-5.816h1.03v5.816Z" transform="translate(-325.815 -155.58)"/>
      <path id="Trazado_102607" data-name="Trazado 102607" d="M350.9,174.75a1.772,1.772,0,0,1,.757-.757,2.181,2.181,0,0,1,1.121-.3v.962a1.931,1.931,0,0,0-1.356.432,1.8,1.8,0,0,0-.462,1.378v3.1H349.94v-5.816h1Z" transform="translate(-326.88 -156.447)"/>
      <path id="Trazado_102608" data-name="Trazado 102608" d="M355.689,171.494a.659.659,0,0,1-.485-.2.674.674,0,0,1-.2-.507.659.659,0,0,1,.2-.485.7.7,0,0,1,.969,0,.659.659,0,0,1,.2.485.674.674,0,0,1-.2.492A.659.659,0,0,1,355.689,171.494Zm-.523,7.179v-5.816h1.03v5.816Z" transform="translate(-328.108 -155.576)"/>
      <path id="Trazado_102609" data-name="Trazado 102609" d="M360.911,178.935a1.515,1.515,0,0,1-1.136-.417,1.567,1.567,0,0,1-.417-1.159v-3.423H358.17v-.818h.439a.818.818,0,0,0,.636-.2.977.977,0,0,0,.189-.682V171.18h.954v1.939h1.333v.818h-1.333v3.317a.886.886,0,0,0,.22.636.757.757,0,0,0,.583.227h.53v.818Z" transform="translate(-328.877 -155.838)"/>
      <path id="Trazado_102610" data-name="Trazado 102610" d="M368.421,173.735h1.06v5.816H368.5v-.757a1.863,1.863,0,0,1-.719.651,2.219,2.219,0,0,1-1.015.227,2.037,2.037,0,0,1-1.469-.523,1.984,1.984,0,0,1-.545-1.515V173.72h.947v3.688a1.416,1.416,0,0,0,.356,1.045,1.28,1.28,0,0,0,.916.341,1.393,1.393,0,0,0,1.03-.4,1.636,1.636,0,0,0,.409-1.189Z" transform="translate(-330.473 -156.454)"/>
      <path id="Trazado_102611" data-name="Trazado 102611" d="M374.9,179.64a1.939,1.939,0,0,1-1.272-.4,1.424,1.424,0,0,1-.5-1.189,1.666,1.666,0,0,1,.159-.757,1.288,1.288,0,0,1,.477-.53,2.591,2.591,0,0,1,.682-.333,5.967,5.967,0,0,1,.886-.2l.939-.159c.341-.061.515-.242.515-.538a1.007,1.007,0,0,0-.364-.863,1.658,1.658,0,0,0-1.833,0,1.113,1.113,0,0,0-.432.81l-.924-.189a1.8,1.8,0,0,1,.757-1.25,2.727,2.727,0,0,1,1.59-.417,3.271,3.271,0,0,1,.841.106,2.272,2.272,0,0,1,.7.326,1.469,1.469,0,0,1,.5.621,2.342,2.342,0,0,1,.182.962v2.4a.976.976,0,0,0,.136.606.553.553,0,0,0,.454.159h.1v.757h-.515a.969.969,0,0,1-1.1-.757h-.068A2.2,2.2,0,0,1,374.9,179.64Zm.242-.825a1.514,1.514,0,0,0,1.242-.56,2.325,2.325,0,0,0,.477-1.515l-1.515.3a1.992,1.992,0,0,0-.9.326.847.847,0,0,0-.015,1.272A1.174,1.174,0,0,0,375.143,178.814Z" transform="translate(-332.507 -156.429)"/>
      <path id="Trazado_102612" data-name="Trazado 102612" d="M382.08,178.508V169.42h1.037v9.088Z" transform="translate(-334.68 -155.411)"/>
      <path id="Trazado_102613" data-name="Trazado 102613" d="M323.78,198.027a4.491,4.491,0,0,1-1.643-.3,4.255,4.255,0,0,1-1.318-.841,3.785,3.785,0,0,1-.871-1.356,4.853,4.853,0,0,1-.318-1.795,4.8,4.8,0,0,1,.318-1.78,3.787,3.787,0,0,1,2.189-2.2,4.491,4.491,0,0,1,1.643-.3,4.2,4.2,0,0,1,2.211.591,3.65,3.65,0,0,1,1.492,1.628l-.977.4a2.81,2.81,0,0,0-1.091-1.189,3.12,3.12,0,0,0-1.613-.416,3.385,3.385,0,0,0-1.219.22,2.885,2.885,0,0,0-.977.629,2.8,2.8,0,0,0-.659,1.03,3.788,3.788,0,0,0-.242,1.378,3.871,3.871,0,0,0,.242,1.393,2.8,2.8,0,0,0,.659,1.03,2.884,2.884,0,0,0,.977.629,3.234,3.234,0,0,0,1.219.22,3.12,3.12,0,0,0,1.613-.417,2.749,2.749,0,0,0,1.091-1.181l.977.4a3.635,3.635,0,0,1-1.515,1.628A4.279,4.279,0,0,1,323.78,198.027Z" transform="translate(-319.524 -160.276)"/>
      <path id="Trazado_102614" data-name="Trazado 102614" d="M334.3,198.833a3.029,3.029,0,0,1-1.515-.364,2.559,2.559,0,0,1-1.053-1.053,3.248,3.248,0,0,1-.386-1.605,2.961,2.961,0,0,1,.825-2.2,3.1,3.1,0,0,1,4.211,0,3.347,3.347,0,0,1,0,4.392A2.825,2.825,0,0,1,334.3,198.833Zm0-.848a1.817,1.817,0,0,0,1.378-.6,2.272,2.272,0,0,0,.545-1.575,2.218,2.218,0,0,0-.545-1.568,1.787,1.787,0,0,0-1.378-.6,1.749,1.749,0,0,0-1.363.6,2.219,2.219,0,0,0-.545,1.568,2.272,2.272,0,0,0,.545,1.575,1.772,1.772,0,0,0,1.356.6Z" transform="translate(-322.367 -161.082)"/>
      <path id="Trazado_102615" data-name="Trazado 102615" d="M347.175,192.789a1.863,1.863,0,0,1,1.356.5,1.8,1.8,0,0,1,.515,1.386v4.044h-1.022v-3.787a1.325,1.325,0,0,0-.318-.962,1.106,1.106,0,0,0-.81-.326,1.144,1.144,0,0,0-.886.371,1.56,1.56,0,0,0-.341,1.1v3.6H344.63V194.97a1.378,1.378,0,0,0-.326-.985,1.083,1.083,0,0,0-.825-.341,1.144,1.144,0,0,0-.886.379,1.636,1.636,0,0,0-.341,1.128v3.559H341.23V192.9h1.022v.757a1.848,1.848,0,0,1,.666-.636,1.879,1.879,0,0,1,.924-.227,1.961,1.961,0,0,1,1,.25,1.515,1.515,0,0,1,.644.7,1.779,1.779,0,0,1,.7-.7A1.969,1.969,0,0,1,347.175,192.789Z" transform="translate(-324.766 -161.082)"/>
      <path id="Trazado_102616" data-name="Trazado 102616" d="M357.247,192.79A2.719,2.719,0,0,1,358.3,193a2.674,2.674,0,0,1,.863.6,2.7,2.7,0,0,1,.583.962,3.566,3.566,0,0,1,.22,1.257,3.029,3.029,0,0,1-.757,2.189,2.537,2.537,0,0,1-1.931.841,2.271,2.271,0,0,1-1.212-.333,2.2,2.2,0,0,1-.833-.894v4.029H354.21V192.9h.984v1.128a2.128,2.128,0,0,1,.833-.9,2.272,2.272,0,0,1,1.219-.341Zm-.2,5.165a1.772,1.772,0,0,0,1.348-.583,2.484,2.484,0,0,0,0-3.1,1.772,1.772,0,0,0-1.318-.56,1.8,1.8,0,0,0-1.371.606,2.393,2.393,0,0,0,0,3.029,1.8,1.8,0,0,0,1.371.613Z" transform="translate(-327.916 -161.082)"/>
      <path id="Trazado_102617" data-name="Trazado 102617" d="M365.149,198.84a1.992,1.992,0,0,1-1.28-.4,1.424,1.424,0,0,1-.5-1.189,1.727,1.727,0,0,1,.159-.757,1.317,1.317,0,0,1,.477-.522,2.59,2.59,0,0,1,.682-.333,7.685,7.685,0,0,1,.886-.212l.939-.151c.341-.061.515-.242.515-.538a1.007,1.007,0,0,0-.364-.863,1.461,1.461,0,0,0-.924-.28,1.515,1.515,0,0,0-.909.265,1.143,1.143,0,0,0-.432.818l-.924-.2a1.818,1.818,0,0,1,.757-1.242,2.726,2.726,0,0,1,1.59-.416,3.269,3.269,0,0,1,.841.106,2.135,2.135,0,0,1,.7.326,1.417,1.417,0,0,1,.5.621,2.34,2.34,0,0,1,.182.962v2.4a.977.977,0,0,0,.136.606.568.568,0,0,0,.454.159h.1v.757h-.507c-.629,0-1-.257-1.106-.757h-.045a2.219,2.219,0,0,1-1.931.841Zm.235-.825a1.553,1.553,0,0,0,1.25-.568,2.333,2.333,0,0,0,.47-1.515l-1.515.3a2.029,2.029,0,0,0-.9.326.848.848,0,0,0,0,1.272,1.174,1.174,0,0,0,.674.189Z" transform="translate(-330.138 -161.088)"/>
      <path id="Trazado_102618" data-name="Trazado 102618" d="M374,198.838a2.779,2.779,0,0,1-1.568-.417,1.742,1.742,0,0,1-.757-1.2l.894-.257a1.227,1.227,0,0,0,.477.81,1.515,1.515,0,0,0,.954.288,2.18,2.18,0,0,0,.56-.076.909.909,0,0,0,.424-.288.757.757,0,0,0,.174-.53,1.156,1.156,0,0,0-.045-.242,1.1,1.1,0,0,0-.1-.189.483.483,0,0,0-.167-.159l-.2-.129-.265-.106-.28-.1-.326-.091-.341-.1a5.726,5.726,0,0,1-.6-.212,2.53,2.53,0,0,1-.492-.28,1.082,1.082,0,0,1-.386-.462,1.561,1.561,0,0,1-.121-.651,1.515,1.515,0,0,1,.28-.932,1.605,1.605,0,0,1,.757-.545,2.952,2.952,0,0,1,1.038-.167,2.544,2.544,0,0,1,1.416.379,1.59,1.59,0,0,1,.7,1.136l-.841.212a1.106,1.106,0,0,0-.439-.757,1.416,1.416,0,0,0-.841-.25,1.447,1.447,0,0,0-.757.2.7.7,0,0,0-.326.629.576.576,0,0,0,.091.318.815.815,0,0,0,.174.227.985.985,0,0,0,.318.174,2.718,2.718,0,0,0,.341.129l.424.106h.091l.56.159a4.055,4.055,0,0,1,.5.212,1.592,1.592,0,0,1,.454.318,1.515,1.515,0,0,1,.288.447,1.691,1.691,0,0,1,.113.629,1.651,1.651,0,0,1-.174.757,1.3,1.3,0,0,1-.477.53,2.008,2.008,0,0,1-.674.3A3.107,3.107,0,0,1,374,198.838Z" transform="translate(-332.156 -161.087)"/>
      <path id="Trazado_102619" data-name="Trazado 102619" d="M380.177,190.7a.7.7,0,0,1-.7-.7.659.659,0,0,1,.2-.485.7.7,0,0,1,.492-.2.674.674,0,0,1,.477.2.659.659,0,0,1,.2.485.674.674,0,0,1-.2.492.652.652,0,0,1-.477.2Zm-.523,7.179v-5.816h1.03v5.816Z" transform="translate(-334.049 -160.24)"/>
      <path id="Trazado_102620" data-name="Trazado 102620" d="M387.168,192.94h1.091l-2.363,5.816h-.871l-2.355-5.816h1.091l1.7,4.627Z" transform="translate(-334.823 -161.119)"/>
      <path id="Trazado_102621" data-name="Trazado 102621" d="M393.635,198.834a3.029,3.029,0,0,1-1.515-.363,2.591,2.591,0,0,1-1.045-1.053,3.249,3.249,0,0,1-.386-1.605,2.961,2.961,0,0,1,.826-2.2,3.09,3.09,0,0,1,4.2,0,3.332,3.332,0,0,1,0,4.392A2.84,2.84,0,0,1,393.635,198.834Zm0-.848a1.8,1.8,0,0,0,1.371-.6,2.272,2.272,0,0,0,.545-1.575,2.219,2.219,0,0,0-.545-1.568,1.87,1.87,0,0,0-2.741,0,2.565,2.565,0,0,0,0,3.143A1.787,1.787,0,0,0,393.635,197.985Z" transform="translate(-336.768 -161.082)"/>
      <path id="Trazado_102622" data-name="Trazado 102622" d="M322.746,217.272a3.786,3.786,0,0,1-2.173-.591,2.476,2.476,0,0,1-1.083-1.613l1.068-.257a1.727,1.727,0,0,0,.757,1.136,2.507,2.507,0,0,0,1.469.416,2.584,2.584,0,0,0,.553-.053,2.272,2.272,0,0,0,.5-.151,1.606,1.606,0,0,0,.409-.273,1.136,1.136,0,0,0,.273-.409,1.31,1.31,0,0,0,.091-.553,1.1,1.1,0,0,0-.068-.394,1.323,1.323,0,0,0-.167-.311,1.014,1.014,0,0,0-.28-.25,2.891,2.891,0,0,0-.341-.2,3.141,3.141,0,0,0-.416-.167l-.439-.136-.477-.136h-.091l-.56-.151-.515-.182a2.782,2.782,0,0,1-.492-.227,3.745,3.745,0,0,1-.409-.288,1.385,1.385,0,0,1-.333-.371,1.788,1.788,0,0,1-.2-.47,2.325,2.325,0,0,1,.311-1.871,2.272,2.272,0,0,1,1-.757,3.605,3.605,0,0,1,1.378-.25,3.787,3.787,0,0,1,2,.515,2.272,2.272,0,0,1,1.06,1.515l-1.03.257a1.515,1.515,0,0,0-.689-1.022,2.408,2.408,0,0,0-1.3-.348,2.439,2.439,0,0,0-.636.083,1.718,1.718,0,0,0-.553.235,1.106,1.106,0,0,0-.4.432,1.364,1.364,0,0,0-.151.636,1.1,1.1,0,0,0,.061.356.993.993,0,0,0,.151.28,1.243,1.243,0,0,0,.25.227l.311.189a3.98,3.98,0,0,0,.386.144l.416.136.454.121a9.512,9.512,0,0,1,1.606.53,2.022,2.022,0,0,1,1.234,1.515,2.747,2.747,0,0,1,0,.363,2.317,2.317,0,0,1-.235,1.075,1.977,1.977,0,0,1-.659.757,3.463,3.463,0,0,1-.932.416,4.417,4.417,0,0,1-1.1.1Z" transform="translate(-319.49 -164.958)"/>
      <path id="Trazado_102623" data-name="Trazado 102623" d="M334.922,214.912v.28h-4.544a2.037,2.037,0,0,0,.553,1.515,1.818,1.818,0,0,0,1.325.523,1.764,1.764,0,0,0,.962-.28,1.8,1.8,0,0,0,.666-.757l.924.2a2.674,2.674,0,0,1-.992,1.25,2.719,2.719,0,0,1-1.515.454,2.825,2.825,0,0,1-2.1-.81,3.461,3.461,0,0,1,0-4.423,2.772,2.772,0,0,1,2.06-.81,2.62,2.62,0,0,1,1.954.757A2.938,2.938,0,0,1,334.922,214.912Zm-2.688-2.12a1.787,1.787,0,0,0-1.212.417,1.886,1.886,0,0,0-.614,1.2h3.484a1.7,1.7,0,0,0-.507-1.2,1.621,1.621,0,0,0-1.151-.439Z" transform="translate(-321.896 -165.756)"/>
      <path id="Trazado_102624" data-name="Trazado 102624" d="M341.551,212a2.045,2.045,0,0,1,1.469.53,1.969,1.969,0,0,1,.545,1.515v3.915h-1.022v-3.688a1.386,1.386,0,0,0-.356-1.038,1.249,1.249,0,0,0-.909-.341,1.408,1.408,0,0,0-1.037.4,1.658,1.658,0,0,0-.409,1.189v3.476H338.81v-5.816h1.022v.757A1.939,1.939,0,0,1,341.551,212Z" transform="translate(-324.179 -165.744)"/>
      <path id="Trazado_102625" data-name="Trazado 102625" d="M349.385,218.058a2.749,2.749,0,0,1-1.568-.417,1.749,1.749,0,0,1-.757-1.2l.894-.257a1.227,1.227,0,0,0,.477.81,1.567,1.567,0,0,0,.954.288,2.136,2.136,0,0,0,.56-.076.97.97,0,0,0,.432-.288.758.758,0,0,0,.167-.53.629.629,0,0,0-.045-.242c0-.068-.061-.136-.091-.189a.485.485,0,0,0-.167-.159,1.453,1.453,0,0,0-.47-.235l-.28-.1-.326-.091-.333-.1a5.944,5.944,0,0,1-.606-.212,2.774,2.774,0,0,1-.492-.28,1.128,1.128,0,0,1-.379-.462,1.56,1.56,0,0,1-.129-.651,1.515,1.515,0,0,1,.288-.931,1.605,1.605,0,0,1,.757-.545,2.907,2.907,0,0,1,1.015-.2,2.544,2.544,0,0,1,1.416.379,1.621,1.621,0,0,1,.712,1.136l-.841.212a1.113,1.113,0,0,0-.447-.757,1.394,1.394,0,0,0-.841-.212,1.424,1.424,0,0,0-.757.2.689.689,0,0,0-.326.629.643.643,0,0,0,.083.318.757.757,0,0,0,.492.4,3.215,3.215,0,0,0,.348.129l.424.106h.091l.56.159a4.626,4.626,0,0,1,.5.212,1.838,1.838,0,0,1,.454.318,1.589,1.589,0,0,1,.4,1.075,1.747,1.747,0,0,1-.174.757,1.409,1.409,0,0,1-.477.53,2.122,2.122,0,0,1-.682.3A3.091,3.091,0,0,1,349.385,218.058Z" transform="translate(-326.181 -165.744)"/>
      <path id="Trazado_102626" data-name="Trazado 102626" d="M355.549,209.9a.659.659,0,0,1-.485-.2.674.674,0,0,1-.2-.492.659.659,0,0,1,.2-.485.682.682,0,0,1,.485-.2.7.7,0,0,1,.485.2.659.659,0,0,1,.2.485.7.7,0,0,1-.689.7Zm-.523,7.179v-5.816h1.03v5.816Z" transform="translate(-328.074 -164.9)"/>
      <path id="Trazado_102627" data-name="Trazado 102627" d="M360.764,217.335a1.515,1.515,0,0,1-1.136-.417,1.568,1.568,0,0,1-.416-1.159v-3.423H358v-.818h.439a.817.817,0,0,0,.636-.2.977.977,0,0,0,.189-.682V209.58h1.007v1.939H361.6v.818h-1.333v3.317a.886.886,0,0,0,.22.636.757.757,0,0,0,.583.227h.53v.818Z" transform="translate(-328.836 -165.157)"/>
      <path id="Trazado_102628" data-name="Trazado 102628" d="M365.139,209.9a.659.659,0,0,1-.485-.2.674.674,0,0,1-.2-.492.659.659,0,0,1,.2-.485.7.7,0,0,1,.969,0,.659.659,0,0,1,.2.485.674.674,0,0,1-.2.492A.659.659,0,0,1,365.139,209.9Zm-.515,7.179v-5.816h1v5.816Z" transform="translate(-330.401 -164.9)"/>
      <path id="Trazado_102629" data-name="Trazado 102629" d="M372.134,212.14h1.075l-2.363,5.816h-.871l-2.355-5.816h1.091l1.7,4.627Z" transform="translate(-331.171 -165.778)"/>
      <path id="Trazado_102630" data-name="Trazado 102630" d="M378.6,218.063a3.03,3.03,0,0,1-1.515-.363,2.591,2.591,0,0,1-1.045-1.053,3.174,3.174,0,0,1-.394-1.605,3.029,3.029,0,0,1,.826-2.2,3.1,3.1,0,0,1,4.211,0,3.332,3.332,0,0,1,0,4.392A2.84,2.84,0,0,1,378.6,218.063Zm0-.848a1.8,1.8,0,0,0,1.378-.6,2.272,2.272,0,0,0,.545-1.575,2.22,2.22,0,0,0-.545-1.568,1.78,1.78,0,0,0-1.378-.6,1.757,1.757,0,0,0-1.363.6,2.5,2.5,0,0,0-.03,3.135,1.787,1.787,0,0,0,1.386.583Z" transform="translate(-333.119 -165.749)"/>
      <path id="Trazado_102631" data-name="Trazado 102631" d="M329.088,236.33h-1.03l-.56-6.876-2.635,6.876h-.636l-2.643-6.816-.56,6.816H320l.636-8.33h1.393l2.514,6.513,2.529-6.5h1.409Z" transform="translate(-319.614 -169.627)"/>
      <path id="Trazado_102632" data-name="Trazado 102632" d="M335.179,229.1a.659.659,0,0,1-.485-.2.674.674,0,0,1-.2-.492.659.659,0,0,1,.2-.485.7.7,0,0,1,.969,0,.659.659,0,0,1,.2.485.674.674,0,0,1-.2.492A.659.659,0,0,1,335.179,229.1Zm-.515,7.179v-5.816h1.03v5.8Z" transform="translate(-323.13 -169.56)"/>
      <path id="Trazado_102633" data-name="Trazado 102633" d="M340.5,237.238a2.779,2.779,0,0,1-1.568-.417,1.742,1.742,0,0,1-.757-1.2l.894-.257a1.227,1.227,0,0,0,.477.81,1.514,1.514,0,0,0,.954.288,2.181,2.181,0,0,0,.56-.076.908.908,0,0,0,.424-.288.758.758,0,0,0,.174-.53,1.155,1.155,0,0,0-.045-.242.887.887,0,0,0-.1-.189.485.485,0,0,0-.167-.159l-.2-.129-.265-.106-.28-.1-.326-.091-.341-.1a5.74,5.74,0,0,1-.6-.212,2.531,2.531,0,0,1-.492-.28,1.083,1.083,0,0,1-.386-.462,1.559,1.559,0,0,1-.121-.651,1.514,1.514,0,0,1,.28-.924,1.575,1.575,0,0,1,.757-.553,2.954,2.954,0,0,1,1.038-.167,2.545,2.545,0,0,1,1.416.379,1.59,1.59,0,0,1,.7,1.136l-.841.212a1.105,1.105,0,0,0-.439-.757,1.416,1.416,0,0,0-.841-.25,1.446,1.446,0,0,0-.757.2.7.7,0,0,0-.326.629.577.577,0,0,0,.091.318.811.811,0,0,0,.174.227.985.985,0,0,0,.318.174,2.742,2.742,0,0,0,.341.129l.424.106h.091l.56.159a4.045,4.045,0,0,1,.5.212,1.59,1.59,0,0,1,.454.318,1.513,1.513,0,0,1,.288.447,1.687,1.687,0,0,1,.114.629,1.649,1.649,0,0,1-.174.757,1.363,1.363,0,0,1-.477.538,2.16,2.16,0,0,1-.674.288A3.107,3.107,0,0,1,340.5,237.238Z" transform="translate(-324.026 -170.406)"/>
      <path id="Trazado_102634" data-name="Trazado 102634" d="M347.772,236.515a1.515,1.515,0,0,1-1.136-.417,1.6,1.6,0,0,1-.417-1.159v-3.423H345V230.7h.439a.84.84,0,0,0,.644-.2,1.015,1.015,0,0,0,.189-.682V228.76h1V230.7h1.34v.818h-1.34v3.317a.864.864,0,0,0,.227.636.758.758,0,0,0,.583.227h.53v.818Z" transform="translate(-325.681 -169.812)"/>
      <path id="Trazado_102635" data-name="Trazado 102635" d="M356.529,234.074v.28h-4.544a2.037,2.037,0,0,0,.56,1.515,1.8,1.8,0,0,0,1.325.523,1.757,1.757,0,0,0,1.621-1.053l.924.2a2.582,2.582,0,0,1-.992,1.25,2.718,2.718,0,0,1-1.515.454,2.81,2.81,0,0,1-2.166-.818,3.445,3.445,0,0,1,0-4.423,2.787,2.787,0,0,1,2.06-.81,2.6,2.6,0,0,1,1.954.757A2.923,2.923,0,0,1,356.529,234.074Zm-2.7-2.12a1.764,1.764,0,0,0-1.2.417,1.885,1.885,0,0,0-.614,1.2h3.514a1.734,1.734,0,0,0-.507-1.2,1.636,1.636,0,0,0-1.189-.394Z" transform="translate(-327.122 -170.401)"/>
      <path id="Trazado_102636" data-name="Trazado 102636" d="M361.439,232.35a1.8,1.8,0,0,1,.757-.757,2.151,2.151,0,0,1,1.113-.3v.962a1.909,1.909,0,0,0-1.348.432,1.8,1.8,0,0,0-.462,1.378v3.067h-1.03v-5.816h1Z" transform="translate(-329.435 -170.426)"/>
      <path id="Trazado_102637" data-name="Trazado 102637" d="M366.237,229.1a.7.7,0,0,1-.7-.7.659.659,0,0,1,.2-.485.7.7,0,0,1,.492-.2.682.682,0,0,1,.682.682.674.674,0,0,1-.2.492.644.644,0,0,1-.477.2Zm-.523,7.179v-5.816h1.03v5.8Z" transform="translate(-330.666 -169.559)"/>
      <path id="Trazado_102638" data-name="Trazado 102638" d="M372.162,237.233a3.029,3.029,0,0,1-1.515-.363,2.56,2.56,0,0,1-1.053-1.053,3.248,3.248,0,0,1-.386-1.605,2.968,2.968,0,0,1,.825-2.2,2.855,2.855,0,0,1,2.1-.826,2.885,2.885,0,0,1,2.113.826,3.029,3.029,0,0,1,.818,2.2,2.961,2.961,0,0,1-.826,2.2A2.832,2.832,0,0,1,372.162,237.233Zm0-.848a1.787,1.787,0,0,0,1.371-.6,2.272,2.272,0,0,0,.553-1.575,2.226,2.226,0,0,0-.553-1.568,1.764,1.764,0,0,0-1.371-.6,1.734,1.734,0,0,0-1.363.6,2.219,2.219,0,0,0-.545,1.568,2.272,2.272,0,0,0,.545,1.575A1.764,1.764,0,0,0,372.162,236.385Z" transform="translate(-331.556 -170.401)"/>
      <path id="Trazado_102639" data-name="Trazado 102639" d="M380.785,237.238a2.749,2.749,0,0,1-1.568-.417,1.749,1.749,0,0,1-.757-1.2l.894-.257a1.227,1.227,0,0,0,.477.81,1.515,1.515,0,0,0,.954.288,2.134,2.134,0,0,0,.56-.076.969.969,0,0,0,.432-.288.757.757,0,0,0,.167-.53.628.628,0,0,0-.045-.242.883.883,0,0,0-.1-.189.454.454,0,0,0-.159-.159,1.452,1.452,0,0,0-.469-.235l-.28-.1-.326-.091-.333-.1a5.945,5.945,0,0,1-.606-.212,2.531,2.531,0,0,1-.492-.28,1.129,1.129,0,0,1-.379-.462,1.447,1.447,0,0,1-.129-.651,1.515,1.515,0,0,1,.28-.924,1.59,1.59,0,0,1,.757-.553,2.908,2.908,0,0,1,1.03-.167,2.544,2.544,0,0,1,1.416.379,1.59,1.59,0,0,1,.7,1.136l-.833.212a1.114,1.114,0,0,0-.447-.757,1.409,1.409,0,0,0-.833-.25,1.423,1.423,0,0,0-.757.2.689.689,0,0,0-.326.629.576.576,0,0,0,.083.318.757.757,0,0,0,.492.4,3.218,3.218,0,0,0,.348.129l.424.106h.091l.553.159a4.642,4.642,0,0,1,.507.212,1.84,1.84,0,0,1,.454.318,1.515,1.515,0,0,1,.28.447,1.688,1.688,0,0,1,.121.629,1.75,1.75,0,0,1-.174.757,1.514,1.514,0,0,1-.477.538,2.272,2.272,0,0,1-.682.288A3.087,3.087,0,0,1,380.785,237.238Z" transform="translate(-333.801 -170.406)"/>
      <path id="Trazado_102640" data-name="Trazado 102640" d="M388.772,237.233a3.029,3.029,0,0,1-1.515-.364,2.559,2.559,0,0,1-1.053-1.053,3.249,3.249,0,0,1-.386-1.605,2.969,2.969,0,0,1,.826-2.2,3.1,3.1,0,0,1,4.211,0,3.03,3.03,0,0,1,.818,2.2,2.961,2.961,0,0,1-.826,2.2A2.825,2.825,0,0,1,388.772,237.233Zm0-.848a1.787,1.787,0,0,0,1.371-.6,2.219,2.219,0,0,0,.553-1.575,2.188,2.188,0,0,0-.553-1.568,1.764,1.764,0,0,0-1.371-.6,1.734,1.734,0,0,0-1.363.6,2.219,2.219,0,0,0-.545,1.568,2.272,2.272,0,0,0,.545,1.575,1.765,1.765,0,0,0,1.356.6Z" transform="translate(-335.587 -170.401)"/>
    </g>
    <g id="Grupo_57710" data-name="Grupo 57710" transform="translate(242.438 88.287)">
      <path id="Trazado_102641" data-name="Trazado 102641" d="M323.689,117.109a2.582,2.582,0,0,1,1.969.757,2.8,2.8,0,0,1,.757,1.969,2.659,2.659,0,0,1-.757,1.954,2.6,2.6,0,0,1-1.969.757H321.9v3.029H320.13v-8.467Zm-.3,4a1.272,1.272,0,0,0,.977-.333,1.249,1.249,0,0,0,.326-.924,1.272,1.272,0,0,0-.326-.916,1.3,1.3,0,0,0-.977-.341h-1.515v2.514Z" transform="translate(-320.13 -116.707)"/>
      <path id="Trazado_102642" data-name="Trazado 102642" d="M332.482,126.548a3.9,3.9,0,0,1-1.719-.371,2.8,2.8,0,0,1-1.181-1.1,3.225,3.225,0,0,1-.432-1.7,3.029,3.029,0,0,1,.924-2.272,3.878,3.878,0,0,1,4.824,0,3.362,3.362,0,0,1,0,4.627A3.423,3.423,0,0,1,332.482,126.548Zm0-1.356a1.568,1.568,0,0,0,1.2-.5,1.848,1.848,0,0,0,.454-1.31,1.885,1.885,0,0,0-.454-1.318,1.59,1.59,0,0,0-1.2-.492,1.514,1.514,0,0,0-1.166.5,2.113,2.113,0,0,0,0,2.62,1.515,1.515,0,0,0,1.151.5Z" transform="translate(-322.319 -117.475)"/>
      <path id="Trazado_102643" data-name="Trazado 102643" d="M341.613,126.535a3.461,3.461,0,0,1-1.78-.424,1.818,1.818,0,0,1-.863-1.272l1.424-.4a1.144,1.144,0,0,0,1.219.909,1.2,1.2,0,0,0,.621-.144.477.477,0,0,0,.242-.47.523.523,0,0,0-.1-.311.939.939,0,0,0-.31-.227l-.417-.159-.545-.159a5.633,5.633,0,0,1-.56-.174,3.6,3.6,0,0,1-.538-.227,2.028,2.028,0,0,1-.439-.31,1.264,1.264,0,0,1-.333-.477,1.75,1.75,0,0,1-.114-.651,1.56,1.56,0,0,1,.659-1.363,2.984,2.984,0,0,1,1.727-.454,3.029,3.029,0,0,1,1.59.386,1.757,1.757,0,0,1,.818,1.219l-1.325.3a1.015,1.015,0,0,0-1.075-.757,1.249,1.249,0,0,0-.6.129.447.447,0,0,0-.242.409.483.483,0,0,0,0,.182.363.363,0,0,0,.121.144l.174.114a1.12,1.12,0,0,0,.242.1,2.183,2.183,0,0,0,.265.076l.31.083.318.083c.22.061.409.114.576.174a4,4,0,0,1,.523.25,2.015,2.015,0,0,1,.454.356,1.733,1.733,0,0,1,.3.507,1.906,1.906,0,0,1,.114.674,1.862,1.862,0,0,1-.2.886,1.514,1.514,0,0,1-.56.591,2.687,2.687,0,0,1-.757.318A4.118,4.118,0,0,1,341.613,126.535Z" transform="translate(-324.702 -117.462)"/>
      <path id="Trazado_102644" data-name="Trazado 102644" d="M348.212,118.541a.975.975,0,0,1-.7-1.674.969.969,0,0,1,.7-.288.984.984,0,0,1,0,1.961Zm-.871,6.99v-6.059h1.719v6.059Z" transform="translate(-326.705 -116.58)"/>
      <path id="Trazado_102645" data-name="Trazado 102645" d="M354.02,125.823a1.825,1.825,0,0,1-1.378-.492,1.939,1.939,0,0,1-.485-1.409v-2.87h-1.2v-1.31h.386a1,1,0,0,0,.757-.25,1.31,1.31,0,0,0,.242-.909v-.8h1.515v1.961h1.257v1.31h-1.257v2.688c0,.53.235.757.7.757h.553v1.3Z" transform="translate(-327.612 -116.871)"/>
      <path id="Trazado_102646" data-name="Trazado 102646" d="M359.024,118.541a.954.954,0,0,1-.7-.288.924.924,0,0,1-.288-.7.947.947,0,0,1,.288-.689.977.977,0,0,1,.7-.288.962.962,0,0,1,.689.288.977.977,0,0,1,0,1.386A.962.962,0,0,1,359.024,118.541Zm-.871,6.99v-6.058h1.719v6.058Z" transform="translate(-329.33 -116.58)"/>
      <path id="Trazado_102647" data-name="Trazado 102647" d="M366.442,120.37h1.81l-2.6,6.058H364.14l-2.56-6.058h1.833l1.515,4.158Z" transform="translate(-330.19 -117.5)"/>
      <path id="Trazado_102648" data-name="Trazado 102648" d="M373.931,126.548a3.915,3.915,0,0,1-1.727-.371,2.741,2.741,0,0,1-1.174-1.1,3.226,3.226,0,0,1-.432-1.7,2.961,2.961,0,0,1,.924-2.272,3.87,3.87,0,0,1,4.817,0,3.362,3.362,0,0,1,0,4.627A3.4,3.4,0,0,1,373.931,126.548Zm0-1.356a1.514,1.514,0,0,0,1.2-.5,1.825,1.825,0,0,0,.462-1.31,1.855,1.855,0,0,0-.462-1.318,1.568,1.568,0,0,0-1.2-.485,1.515,1.515,0,0,0-1.166.5,2.113,2.113,0,0,0,0,2.62A1.515,1.515,0,0,0,373.931,125.193Z" transform="translate(-332.378 -117.476)"/>
    </g>
    <g id="Grupo_57711" data-name="Grupo 57711" transform="translate(328.347 114.134)">
      <path id="Trazado_102649" data-name="Trazado 102649" d="M433.58,159.55v-8.33h1.075v8.33Z" transform="translate(-433.572 -150.834)"/>
      <path id="Trazado_102650" data-name="Trazado 102650" d="M440.827,154.389a2.037,2.037,0,0,1,1.462.53,1.969,1.969,0,0,1,.545,1.515v3.915H441.8v-3.681a1.393,1.393,0,0,0-.356-1.045,1.249,1.249,0,0,0-.909-.341,1.423,1.423,0,0,0-1.038.4,1.658,1.658,0,0,0-.409,1.189v3.476H438.07v-5.816h1.022v.757A1.939,1.939,0,0,1,440.827,154.389Z" transform="translate(-434.662 -151.602)"/>
      <path id="Trazado_102651" data-name="Trazado 102651" d="M448.544,159.74a1.515,1.515,0,0,1-1.136-.417,1.59,1.59,0,0,1-.409-1.159v-3.423H445.81v-.818h.432a.833.833,0,0,0,.644-.2.977.977,0,0,0,.189-.682V152h.954v1.939h1.333v.818h-1.333v3.3a.856.856,0,0,0,.22.636.758.758,0,0,0,.583.227h.53v.818Z" transform="translate(-436.541 -151.023)"/>
      <path id="Trazado_102652" data-name="Trazado 102652" d="M453.472,155.55a1.772,1.772,0,0,1,.757-.757,2.157,2.157,0,0,1,1.121-.3v.962a1.916,1.916,0,0,0-1.356.432,1.8,1.8,0,0,0-.462,1.378v3.1H452.51v-5.816h1Z" transform="translate(-438.167 -151.627)"/>
      <path id="Trazado_102653" data-name="Trazado 102653" d="M459.983,160.433a3.029,3.029,0,0,1-1.515-.363,2.591,2.591,0,0,1-1.045-1.053,3.257,3.257,0,0,1-.394-1.606,3.029,3.029,0,0,1,.826-2.2,3.1,3.1,0,0,1,4.211,0,3.332,3.332,0,0,1,0,4.392A2.84,2.84,0,0,1,459.983,160.433Zm0-.848a1.8,1.8,0,0,0,1.378-.6,2.272,2.272,0,0,0,.545-1.575,2.219,2.219,0,0,0-.545-1.568,1.78,1.78,0,0,0-1.378-.6,1.757,1.757,0,0,0-1.363.6,2.565,2.565,0,0,0,0,3.143,1.788,1.788,0,0,0,1.356.6Z" transform="translate(-439.263 -151.603)"/>
      <path id="Trazado_102654" data-name="Trazado 102654" d="M469.958,154.54h1.1l-2.37,5.816h-.871l-2.355-5.816h1.091l1.7,4.627Z" transform="translate(-441.309 -151.64)"/>
      <path id="Trazado_102655" data-name="Trazado 102655" d="M479.091,157.312v.28h-4.544a2.037,2.037,0,0,0,.553,1.515,1.818,1.818,0,0,0,1.325.523,1.765,1.765,0,0,0,.962-.28,1.8,1.8,0,0,0,.666-.757l.924.2a2.635,2.635,0,0,1-1,1.25,2.681,2.681,0,0,1-1.515.454,2.825,2.825,0,0,1-2.1-.81,3.476,3.476,0,0,1,0-4.423,2.8,2.8,0,0,1,2.067-.81,2.62,2.62,0,0,1,1.954.757A2.939,2.939,0,0,1,479.091,157.312Zm-2.689-2.12a1.787,1.787,0,0,0-1.212.417,1.885,1.885,0,0,0-.613,1.2h3.484a1.7,1.7,0,0,0-.507-1.2A1.62,1.62,0,0,0,476.4,155.191Z" transform="translate(-443.278 -151.617)"/>
      <path id="Trazado_102656" data-name="Trazado 102656" d="M483.984,155.55a1.772,1.772,0,0,1,.719-.757,2.181,2.181,0,0,1,1.121-.3v.962a1.931,1.931,0,0,0-1.356.432,1.8,1.8,0,0,0-.462,1.378v3.1H483v-5.816h1Z" transform="translate(-445.566 -151.627)"/>
      <path id="Trazado_102657" data-name="Trazado 102657" d="M489.995,160.438a2.78,2.78,0,0,1-1.568-.417,1.742,1.742,0,0,1-.757-1.2l.893-.257a1.242,1.242,0,0,0,.47.81,1.575,1.575,0,0,0,.962.288,2.074,2.074,0,0,0,.553-.076.924.924,0,0,0,.432-.288.757.757,0,0,0,.174-.53,1.145,1.145,0,0,0-.045-.242.889.889,0,0,0-.1-.189.485.485,0,0,0-.167-.159l-.2-.129-.265-.106-.28-.1-.326-.091-.341-.1a5.732,5.732,0,0,1-.6-.212,2.529,2.529,0,0,1-.492-.28,1.143,1.143,0,0,1-.386-.462,1.562,1.562,0,0,1-.129-.651,1.514,1.514,0,0,1,.288-.924,1.575,1.575,0,0,1,.757-.553,2.954,2.954,0,0,1,1.038-.167,2.545,2.545,0,0,1,1.416.379,1.613,1.613,0,0,1,.7,1.136l-.841.212a1.105,1.105,0,0,0-.439-.757,1.416,1.416,0,0,0-.841-.25,1.446,1.446,0,0,0-.757.2.7.7,0,0,0-.326.629.576.576,0,0,0,.091.318.811.811,0,0,0,.174.227,1.031,1.031,0,0,0,.318.182l.341.121.424.106h.091l.56.159a4.053,4.053,0,0,1,.5.212,1.59,1.59,0,0,1,.454.318,1.516,1.516,0,0,1,.288.447,1.69,1.69,0,0,1,.114.629,1.651,1.651,0,0,1-.174.757,1.362,1.362,0,0,1-.477.538,2.16,2.16,0,0,1-.674.288A3.109,3.109,0,0,1,489.995,160.438Z" transform="translate(-446.7 -151.608)"/>
      <path id="Trazado_102658" data-name="Trazado 102658" d="M496.159,152.3a.659.659,0,0,1-.485-.2.674.674,0,0,1-.2-.492.659.659,0,0,1,.2-.485.7.7,0,0,1,.969,0,.659.659,0,0,1,.2.485.674.674,0,0,1-.2.492.659.659,0,0,1-.485.2Zm-.515,7.179v-5.816h1.03v5.816Z" transform="translate(-448.592 -150.761)"/>
      <path id="Trazado_102659" data-name="Trazado 102659" d="M502.053,159.54a3.029,3.029,0,0,1-1.515-.364,2.589,2.589,0,0,1-1.045-1.053,3.173,3.173,0,0,1-.394-1.605,3.029,3.029,0,0,1,.825-2.2,3.1,3.1,0,0,1,4.211,0,3.332,3.332,0,0,1,0,4.392,2.84,2.84,0,0,1-2.083.826Zm0-.848a1.8,1.8,0,0,0,1.378-.6,2.272,2.272,0,0,0,.545-1.575,2.219,2.219,0,0,0-.545-1.568,1.78,1.78,0,0,0-1.378-.6,1.757,1.757,0,0,0-1.363.6,2.565,2.565,0,0,0,0,3.143A1.787,1.787,0,0,0,502.053,158.692Zm-.379-6.058,1.515-1.924.545.394-1.325,1.515Z" transform="translate(-449.473 -150.71)"/>
      <path id="Trazado_102660" data-name="Trazado 102660" d="M511.764,154.389a2.022,2.022,0,0,1,1.462.53,1.939,1.939,0,0,1,.553,1.515v3.915h-.992v-3.681a1.394,1.394,0,0,0-.356-1.045,1.28,1.28,0,0,0-.916-.341,1.4,1.4,0,0,0-1.03.4,1.6,1.6,0,0,0-.409,1.189v3.476H509v-5.816h1.022v.757A1.939,1.939,0,0,1,511.764,154.389Z" transform="translate(-451.876 -151.602)"/>
      <path id="Trazado_102661" data-name="Trazado 102661" d="M433.58,178.75v-8.33h2.688a4.029,4.029,0,0,1,2.12.538,3.355,3.355,0,0,1,1.3,1.469,5.141,5.141,0,0,1,.424,2.151,5.378,5.378,0,0,1-.25,1.689,3.7,3.7,0,0,1-.72,1.318,3.158,3.158,0,0,1-1.212.863,4.27,4.27,0,0,1-1.666.3Zm1.06-.962h1.59a2.552,2.552,0,0,0,2.083-.856,3.62,3.62,0,0,0,.7-2.355,3.567,3.567,0,0,0-.7-2.34,2.53,2.53,0,0,0-2.075-.848h-1.575Z" transform="translate(-433.572 -155.493)"/>
      <path id="Trazado_102662" data-name="Trazado 102662" d="M449.509,176.5v.28h-4.544a2.037,2.037,0,0,0,.553,1.515,1.817,1.817,0,0,0,1.325.523,1.765,1.765,0,0,0,.962-.28,1.8,1.8,0,0,0,.666-.757l.924.2a2.636,2.636,0,0,1-1,1.25,2.681,2.681,0,0,1-1.515.454,2.81,2.81,0,0,1-2.136-.856,3.476,3.476,0,0,1,0-4.423,2.8,2.8,0,0,1,2.067-.81,2.62,2.62,0,0,1,1.954.757,2.946,2.946,0,0,1,.742,2.151Zm-2.688-2.12a1.787,1.787,0,0,0-1.212.417,1.885,1.885,0,0,0-.613,1.2h3.484a1.7,1.7,0,0,0-.507-1.2,1.621,1.621,0,0,0-1.151-.417Z" transform="translate(-436.089 -156.262)"/>
      <path id="Trazado_102663" data-name="Trazado 102663" d="M455.669,179.625a2.779,2.779,0,0,1-2.083-.833,3.3,3.3,0,0,1,0-4.362,2.787,2.787,0,0,1,2.09-.841,2.817,2.817,0,0,1,1.681.515,2.522,2.522,0,0,1,.977,1.409l-.954.159a1.78,1.78,0,0,0-.659-.909,1.8,1.8,0,0,0-1.053-.318,1.719,1.719,0,0,0-1.348.6,2.583,2.583,0,0,0,0,3.135,1.734,1.734,0,0,0,1.348.591,1.8,1.8,0,0,0,1.06-.326,1.78,1.78,0,0,0,.659-.909l.954.159a2.552,2.552,0,0,1-.984,1.416A2.81,2.81,0,0,1,455.669,179.625Z" transform="translate(-438.228 -156.262)"/>
      <path id="Trazado_102664" data-name="Trazado 102664" d="M463.308,179.637a1.946,1.946,0,0,1-1.28-.4,1.424,1.424,0,0,1-.5-1.189,1.665,1.665,0,0,1,.159-.757,1.288,1.288,0,0,1,.477-.53,2.849,2.849,0,0,1,.682-.333,6.453,6.453,0,0,1,.886-.2l.939-.159c.341-.061.515-.242.515-.538a1.007,1.007,0,0,0-.363-.863,1.439,1.439,0,0,0-.916-.28,1.514,1.514,0,0,0-.916.273,1.113,1.113,0,0,0-.432.81l-.924-.189a1.818,1.818,0,0,1,.757-1.25,2.726,2.726,0,0,1,1.59-.417,3.233,3.233,0,0,1,.841.106,2.135,2.135,0,0,1,.7.326,1.431,1.431,0,0,1,.507.621,2.478,2.478,0,0,1,.174.962v2.4a.977.977,0,0,0,.136.606.576.576,0,0,0,.462.159h.091v.757h-.507a.962.962,0,0,1-1.1-.757h-.053A2.2,2.2,0,0,1,463.308,179.637Zm.235-.825a1.567,1.567,0,0,0,1.25-.56,2.363,2.363,0,0,0,.47-1.515l-1.515.3a2.067,2.067,0,0,0-.9.326.847.847,0,0,0-.015,1.272A1.173,1.173,0,0,0,463.543,178.812Z" transform="translate(-440.354 -156.267)"/>
      <path id="Trazado_102665" data-name="Trazado 102665" d="M474.479,169.42H475.5v9.088h-.985v-1.128a2.166,2.166,0,0,1-.833.916,2.272,2.272,0,0,1-1.227.341,2.62,2.62,0,0,1-1.053-.22,2.582,2.582,0,0,1-.871-.606,2.856,2.856,0,0,1-.583-.954,3.553,3.553,0,0,1-.212-1.25,3.03,3.03,0,0,1,.757-2.189,2.537,2.537,0,0,1,1.931-.841,2.273,2.273,0,0,1,1.212.333,2.128,2.128,0,0,1,.833.886Zm-1.833,8.33a1.749,1.749,0,0,0,1.356-.606,2.227,2.227,0,0,0,.545-1.515,2.181,2.181,0,0,0-.553-1.515,1.742,1.742,0,0,0-1.348-.613,1.8,1.8,0,0,0-1.363.591,2.219,2.219,0,0,0-.545,1.552,2.189,2.189,0,0,0,.545,1.515,1.8,1.8,0,0,0,1.363.583Z" transform="translate(-442.346 -155.251)"/>
      <path id="Trazado_102666" data-name="Trazado 102666" d="M485.052,176.512v.28h-4.544a2.037,2.037,0,0,0,.553,1.515,1.817,1.817,0,0,0,1.325.523,1.765,1.765,0,0,0,.962-.28,1.8,1.8,0,0,0,.666-.757l.924.2a2.674,2.674,0,0,1-.992,1.25,2.719,2.719,0,0,1-1.515.454,2.824,2.824,0,0,1-2.1-.81,3.461,3.461,0,0,1,0-4.423,2.772,2.772,0,0,1,2.06-.81,2.62,2.62,0,0,1,1.954.757,2.946,2.946,0,0,1,.7,2.105Zm-2.688-2.12a1.787,1.787,0,0,0-1.212.417,1.886,1.886,0,0,0-.613,1.2h3.484a1.7,1.7,0,0,0-.507-1.2,1.605,1.605,0,0,0-1.151-.416Z" transform="translate(-444.725 -156.277)"/>
      <path id="Trazado_102667" data-name="Trazado 102667" d="M491.681,173.589a2.045,2.045,0,0,1,1.469.53,1.969,1.969,0,0,1,.545,1.515v3.915h-1.022v-3.681a1.394,1.394,0,0,0-.356-1.045,1.249,1.249,0,0,0-.909-.333,1.4,1.4,0,0,0-1.038.394,1.658,1.658,0,0,0-.409,1.189v3.476H488.94v-5.816h1.022v.757A1.939,1.939,0,0,1,491.681,173.589Z" transform="translate(-447.008 -156.262)"/>
      <path id="Trazado_102668" data-name="Trazado 102668" d="M500.069,179.625a2.779,2.779,0,0,1-2.083-.833,3.3,3.3,0,0,1,0-4.362,3.029,3.029,0,0,1,3.786-.326,2.521,2.521,0,0,1,.977,1.409l-.954.159a1.742,1.742,0,0,0-1.711-1.227,1.719,1.719,0,0,0-1.348.6,2.583,2.583,0,0,0,0,3.135,1.817,1.817,0,0,0,3.06-.636l.954.159a2.514,2.514,0,0,1-.984,1.416,2.81,2.81,0,0,1-1.7.507Z" transform="translate(-449.003 -156.262)"/>
      <path id="Trazado_102669" data-name="Trazado 102669" d="M506.989,171.5a.659.659,0,0,1-.485-.2.674.674,0,0,1-.2-.492.659.659,0,0,1,.2-.485.7.7,0,0,1,.969,0,.659.659,0,0,1,.2.485.674.674,0,0,1-.2.492A.659.659,0,0,1,506.989,171.5Zm-.515,7.179v-5.816H507.5v5.816Z" transform="translate(-451.221 -155.421)"/>
      <path id="Trazado_102670" data-name="Trazado 102670" d="M511.838,179.639a1.976,1.976,0,0,1-1.28-.4,1.424,1.424,0,0,1-.5-1.189,1.577,1.577,0,0,1,.167-.757,1.265,1.265,0,0,1,.47-.53,2.847,2.847,0,0,1,.682-.333,6.456,6.456,0,0,1,.886-.2l.939-.159c.348-.061.515-.242.515-.538a1.007,1.007,0,0,0-.363-.863,1.439,1.439,0,0,0-.916-.28,1.515,1.515,0,0,0-.909.28,1.113,1.113,0,0,0-.432.81l-.916-.189a1.765,1.765,0,0,1,.757-1.25,2.681,2.681,0,0,1,1.583-.417,3.187,3.187,0,0,1,.841.106,2.136,2.136,0,0,1,.7.326,1.431,1.431,0,0,1,.507.621,2.339,2.339,0,0,1,.182.962v2.4a.984.984,0,0,0,.129.606.575.575,0,0,0,.462.159h.091v.757h-.507a.962.962,0,0,1-1.1-.757h-.053A2.2,2.2,0,0,1,511.838,179.639Zm.235-.825a1.567,1.567,0,0,0,1.25-.56,2.325,2.325,0,0,0,.469-1.515l-1.515.3a2.068,2.068,0,0,0-.9.326.84.84,0,0,0-.008,1.272,1.151,1.151,0,0,0,.7.182Z" transform="translate(-452.132 -156.269)"/>
      <path id="Trazado_102671" data-name="Trazado 102671" d="M438.091,197.948l-2.136-3.787H434.66v3.787H433.6v-8.33h2.764a2.476,2.476,0,0,1,1.863.659,2.317,2.317,0,0,1,.644,1.7,2.075,2.075,0,0,1-1.848,2.181l2.325,3.787Zm-3.431-7.4v2.81h1.515a1.757,1.757,0,0,0,1.219-.379,1.31,1.31,0,0,0,.409-1.015,1.348,1.348,0,0,0-.409-1.03,1.734,1.734,0,0,0-1.219-.386Z" transform="translate(-433.577 -160.151)"/>
      <path id="Trazado_102672" data-name="Trazado 102672" d="M447.664,195.712v.28H443.12a2.036,2.036,0,0,0,.553,1.515,1.818,1.818,0,0,0,1.325.523,1.765,1.765,0,0,0,.962-.28,1.8,1.8,0,0,0,.667-.757l.924.2a2.673,2.673,0,0,1-.992,1.25,2.719,2.719,0,0,1-1.515.454,2.824,2.824,0,0,1-2.1-.81,3.476,3.476,0,0,1,0-4.423,2.8,2.8,0,0,1,2.067-.81,2.62,2.62,0,0,1,1.954.757A2.939,2.939,0,0,1,447.664,195.712Zm-2.689-2.12a1.787,1.787,0,0,0-1.212.417,1.886,1.886,0,0,0-.613,1.2h3.484a1.7,1.7,0,0,0-.507-1.2A1.62,1.62,0,0,0,444.975,193.591Z" transform="translate(-435.653 -160.936)"/>
      <path id="Trazado_102673" data-name="Trazado 102673" d="M454.627,192.79a2.719,2.719,0,0,1,1.053.212,2.674,2.674,0,0,1,.863.6,2.7,2.7,0,0,1,.583.962,3.568,3.568,0,0,1,.22,1.257,3.029,3.029,0,0,1-.757,2.189,2.537,2.537,0,0,1-1.931.841,2.271,2.271,0,0,1-1.212-.333,2.2,2.2,0,0,1-.833-.894v4.029H451.59V192.9h.985v1.128a2.128,2.128,0,0,1,.833-.9A2.272,2.272,0,0,1,454.627,192.79Zm-.2,5.165a1.772,1.772,0,0,0,1.348-.583,2.484,2.484,0,0,0,0-3.1,1.772,1.772,0,0,0-1.348-.583,1.8,1.8,0,0,0-1.371.606,2.393,2.393,0,0,0,0,3.029A1.8,1.8,0,0,0,454.43,197.955Z" transform="translate(-437.943 -160.922)"/>
      <path id="Trazado_102674" data-name="Trazado 102674" d="M462.329,193.95a1.8,1.8,0,0,1,.757-.757,2.151,2.151,0,0,1,1.113-.3v.962a1.909,1.909,0,0,0-1.348.432,1.8,1.8,0,0,0-.47,1.378v3.1H461.36v-5.816h1Z" transform="translate(-440.314 -160.947)"/>
      <path id="Trazado_102675" data-name="Trazado 102675" d="M471.5,195.7v.28h-4.544a2.037,2.037,0,0,0,.553,1.515,1.818,1.818,0,0,0,1.325.523,1.757,1.757,0,0,0,1.628-1.053l.924.2a2.628,2.628,0,0,1-.992,1.25,2.719,2.719,0,0,1-1.515.454,2.84,2.84,0,0,1-2.136-.841,3.461,3.461,0,0,1,0-4.423,2.772,2.772,0,0,1,2.06-.81,2.621,2.621,0,0,1,1.954.757,2.938,2.938,0,0,1,.742,2.151Zm-2.688-2.12a1.787,1.787,0,0,0-1.212.416,1.885,1.885,0,0,0-.613,1.2h3.484a1.7,1.7,0,0,0-.507-1.2A1.605,1.605,0,0,0,468.812,193.577Z" transform="translate(-441.427 -160.922)"/>
      <path id="Trazado_102676" data-name="Trazado 102676" d="M477.085,198.843a2.749,2.749,0,0,1-1.568-.417,1.749,1.749,0,0,1-.757-1.2l.894-.257a1.227,1.227,0,0,0,.477.81,1.567,1.567,0,0,0,.954.288,2.134,2.134,0,0,0,.56-.076.969.969,0,0,0,.432-.288.757.757,0,0,0,.167-.53.629.629,0,0,0-.045-.242c0-.068-.061-.136-.091-.189a.485.485,0,0,0-.167-.159,1.455,1.455,0,0,0-.47-.235l-.28-.1-.326-.091-.333-.1a5.933,5.933,0,0,1-.606-.212,2.769,2.769,0,0,1-.492-.28,1.128,1.128,0,0,1-.379-.462,1.56,1.56,0,0,1-.114-.636,1.514,1.514,0,0,1,.288-.932,1.605,1.605,0,0,1,.757-.545,2.909,2.909,0,0,1,1.03-.167,2.53,2.53,0,0,1,1.416.379,1.621,1.621,0,0,1,.712,1.136l-.841.212a1.113,1.113,0,0,0-.447-.757,1.394,1.394,0,0,0-.833-.25,1.424,1.424,0,0,0-.757.2.689.689,0,0,0-.326.629.644.644,0,0,0,.083.318.757.757,0,0,0,.492.4,3.227,3.227,0,0,0,.348.129l.424.106h.091l.56.159a4.055,4.055,0,0,1,.5.212,1.84,1.84,0,0,1,.454.318,1.588,1.588,0,0,1,.4,1.075,1.75,1.75,0,0,1-.174.757,1.408,1.408,0,0,1-.477.53,2.044,2.044,0,0,1-.682.3A3.028,3.028,0,0,1,477.085,198.843Z" transform="translate(-443.566 -160.932)"/>
      <path id="Trazado_102677" data-name="Trazado 102677" d="M483.249,190.7a.659.659,0,0,1-.485-.2.674.674,0,0,1-.2-.492.659.659,0,0,1,.2-.485.7.7,0,0,1,.969,0,.659.659,0,0,1,.2.485.674.674,0,0,1-.2.492A.659.659,0,0,1,483.249,190.7Zm-.523,7.179v-5.816h1.03v5.816Z" transform="translate(-445.459 -160.081)"/>
      <path id="Trazado_102678" data-name="Trazado 102678" d="M489.182,197.938a3.029,3.029,0,0,1-1.515-.364,2.606,2.606,0,0,1-1.053-1.053,3.249,3.249,0,0,1-.386-1.605,2.961,2.961,0,0,1,.826-2.2,3.1,3.1,0,0,1,4.211,0,3.347,3.347,0,0,1,0,4.392A2.825,2.825,0,0,1,489.182,197.938Zm0-.848a1.818,1.818,0,0,0,1.378-.6,2.272,2.272,0,0,0,.545-1.575,2.219,2.219,0,0,0-.545-1.568,1.787,1.787,0,0,0-1.378-.6,1.757,1.757,0,0,0-1.363.6,2.219,2.219,0,0,0-.545,1.568,2.272,2.272,0,0,0,.545,1.575,1.787,1.787,0,0,0,1.356.6Zm-.386-6.059,1.515-1.931.545.4-1.325,1.515Z" transform="translate(-446.349 -160.027)"/>
      <path id="Trazado_102679" data-name="Trazado 102679" d="M498.849,192.789a2.037,2.037,0,0,1,1.462.53,1.969,1.969,0,0,1,.545,1.515v3.915H499.8v-3.688a1.386,1.386,0,0,0-.356-1.038,1.25,1.25,0,0,0-.909-.341,1.424,1.424,0,0,0-1.038.4,1.659,1.659,0,0,0-.409,1.189v3.476H496.07v-5.816h1.022v.757a1.939,1.939,0,0,1,1.757-.9Z" transform="translate(-448.738 -160.921)"/>
      <path id="Trazado_102680" data-name="Trazado 102680" d="M433.58,217.15v-8.33h1.075v8.33Z" transform="translate(-433.572 -164.813)"/>
      <path id="Trazado_102681" data-name="Trazado 102681" d="M440.827,212a2.037,2.037,0,0,1,1.462.53,1.969,1.969,0,0,1,.545,1.515v3.915H441.8v-3.688a1.386,1.386,0,0,0-.356-1.038,1.25,1.25,0,0,0-.909-.341,1.424,1.424,0,0,0-1.038.4,1.658,1.658,0,0,0-.409,1.189v3.476H438.07v-5.816h1.022v.757a1.939,1.939,0,0,1,1.734-.9Z" transform="translate(-434.662 -165.584)"/>
      <path id="Trazado_102682" data-name="Trazado 102682" d="M449.381,208.719h-.432a.988.988,0,0,0-.212,0l-.182.061a.425.425,0,0,0-.174.1.913.913,0,0,0-.136.151.644.644,0,0,0-.121.212,2.117,2.117,0,0,0-.061.288,1.765,1.765,0,0,0,0,.364v1.2h1.348v.818h-1.348v5h-1.015v-5H445.92v-.818h1.128V209.87a3.59,3.59,0,0,1,.061-.674,2.575,2.575,0,0,1,.167-.515,1.3,1.3,0,0,1,.273-.371,1.941,1.941,0,0,1,.364-.25,1.577,1.577,0,0,1,.439-.144,3.8,3.8,0,0,1,.5-.076h.56Z" transform="translate(-436.567 -164.575)"/>
      <path id="Trazado_102683" data-name="Trazado 102683" d="M456.914,214.912v.28H452.37a2.037,2.037,0,0,0,.553,1.515,1.818,1.818,0,0,0,1.325.523,1.765,1.765,0,0,0,.962-.28,1.8,1.8,0,0,0,.667-.757l.924.2a2.674,2.674,0,0,1-.992,1.25,2.719,2.719,0,0,1-1.515.454,2.825,2.825,0,0,1-2.1-.81,3.476,3.476,0,0,1,0-4.423,2.8,2.8,0,0,1,2.067-.81,2.62,2.62,0,0,1,1.954.757A2.939,2.939,0,0,1,456.914,214.912Zm-2.688-2.12a1.787,1.787,0,0,0-1.212.417,1.885,1.885,0,0,0-.613,1.2h3.484a1.7,1.7,0,0,0-.507-1.2,1.621,1.621,0,0,0-1.151-.439Z" transform="translate(-437.897 -165.596)"/>
      <path id="Trazado_102684" data-name="Trazado 102684" d="M461.8,213.15a1.772,1.772,0,0,1,.719-.757,2.181,2.181,0,0,1,1.121-.3v.962a1.931,1.931,0,0,0-1.356.432,1.8,1.8,0,0,0-.462,1.378v3.1H460.8v-5.816h1Z" transform="translate(-440.178 -165.606)"/>
      <path id="Trazado_102685" data-name="Trazado 102685" d="M466.6,209.9a.659.659,0,0,1-.485-.2.674.674,0,0,1-.2-.492.659.659,0,0,1,.2-.485.7.7,0,0,1,.969,0,.659.659,0,0,1,.2.485.674.674,0,0,1-.2.492.659.659,0,0,1-.485.2Zm-.523,7.179v-5.816h1.03v5.816Z" transform="translate(-441.419 -164.74)"/>
      <path id="Trazado_102686" data-name="Trazado 102686" d="M472.532,218.063a3.029,3.029,0,0,1-1.515-.364,2.6,2.6,0,0,1-1.053-1.053,3.249,3.249,0,0,1-.386-1.605,2.969,2.969,0,0,1,.825-2.2,3.1,3.1,0,0,1,4.211,0,3.332,3.332,0,0,1,0,4.392A2.855,2.855,0,0,1,472.532,218.063Zm0-.848a1.8,1.8,0,0,0,1.378-.6,2.272,2.272,0,0,0,.53-1.583,2.219,2.219,0,0,0-.545-1.568,1.78,1.78,0,0,0-1.378-.6,1.757,1.757,0,0,0-1.363.6,2.218,2.218,0,0,0-.5,1.568,2.273,2.273,0,0,0,.538,1.575,1.787,1.787,0,0,0,1.333.583Z" transform="translate(-442.308 -165.589)"/>
      <path id="Trazado_102687" data-name="Trazado 102687" d="M480.469,213.15a1.8,1.8,0,0,1,.757-.757,2.151,2.151,0,0,1,1.113-.3v.962a1.908,1.908,0,0,0-1.348.432,1.8,1.8,0,0,0-.47,1.378v3.1H479.5v-5.816h1Z" transform="translate(-444.717 -165.606)"/>
      <path id="Trazado_102688" data-name="Trazado 102688" d="M485.267,209.9a.7.7,0,0,1-.7-.7.658.658,0,0,1,.2-.485.7.7,0,0,1,.492-.2.674.674,0,0,1,.477.2.659.659,0,0,1,.2.485.674.674,0,0,1-.2.492.651.651,0,0,1-.477.2Zm-.523,7.179v-5.816h1.03v5.816Z" transform="translate(-445.947 -164.74)"/>
      <path id="Trazado_102689" data-name="Trazado 102689" d="M493.057,207.82h1.022v9.088H493.1v-1.128a2.166,2.166,0,0,1-.833.916,2.271,2.271,0,0,1-1.227.341,2.673,2.673,0,0,1-1.924-.825,2.817,2.817,0,0,1-.583-.962,3.475,3.475,0,0,1-.22-1.242,3.029,3.029,0,0,1,.8-2.189,2.537,2.537,0,0,1,1.931-.841,2.272,2.272,0,0,1,1.212.333,2.182,2.182,0,0,1,.833.886Zm-1.833,8.33a1.749,1.749,0,0,0,1.348-.606,2.393,2.393,0,0,0,0-3.029,1.742,1.742,0,0,0-1.348-.613,1.787,1.787,0,0,0-1.363.591,2.446,2.446,0,0,0,0,3.1,1.787,1.787,0,0,0,1.363.553Z" transform="translate(-446.854 -164.57)"/>
      <path id="Trazado_102690" data-name="Trazado 102690" d="M499.889,218.067a1.992,1.992,0,0,1-1.28-.4,1.424,1.424,0,0,1-.5-1.189,1.666,1.666,0,0,1,.159-.757,1.288,1.288,0,0,1,.477-.53,2.591,2.591,0,0,1,.682-.333,6.984,6.984,0,0,1,.886-.212l.939-.151c.341-.061.515-.242.515-.538a1.007,1.007,0,0,0-.364-.863,1.462,1.462,0,0,0-.924-.28,1.514,1.514,0,0,0-.909.265,1.144,1.144,0,0,0-.432.818l-.924-.2a1.818,1.818,0,0,1,.757-1.242,2.726,2.726,0,0,1,1.59-.416,3.271,3.271,0,0,1,.841.106,2.136,2.136,0,0,1,.7.326,1.469,1.469,0,0,1,.5.621,2.34,2.34,0,0,1,.182.962v2.4a.977.977,0,0,0,.136.606.568.568,0,0,0,.454.159h.1v.757h-.507c-.629,0-1-.257-1.106-.757h-.053a2.219,2.219,0,0,1-1.924.848Zm.235-.826a1.552,1.552,0,0,0,1.25-.568,2.333,2.333,0,0,0,.47-1.515l-1.515.3a2.028,2.028,0,0,0-.9.326.847.847,0,0,0-.015,1.272,1.174,1.174,0,0,0,.712.167Z" transform="translate(-449.232 -165.593)"/>
      <path id="Trazado_102691" data-name="Trazado 102691" d="M511.057,207.82h1.022v9.088H511.1v-1.128a2.166,2.166,0,0,1-.833.916,2.272,2.272,0,0,1-1.227.341,2.673,2.673,0,0,1-1.924-.825,2.816,2.816,0,0,1-.583-.962,3.473,3.473,0,0,1-.22-1.242,3.029,3.029,0,0,1,.8-2.189,2.537,2.537,0,0,1,1.931-.841,2.272,2.272,0,0,1,1.212.333,2.181,2.181,0,0,1,.833.886Zm-1.833,8.33a1.749,1.749,0,0,0,1.348-.606,2.393,2.393,0,0,0,0-3.029,1.742,1.742,0,0,0-1.348-.613,1.787,1.787,0,0,0-1.363.591,2.446,2.446,0,0,0,0,3.1,1.787,1.787,0,0,0,1.363.553Z" transform="translate(-451.222 -164.57)"/>
      <path id="Trazado_102692" data-name="Trazado 102692" d="M438.046,228.985h-3.393v2.726h3.029v.954h-3.029v2.719h3.385v.947H433.57V228h4.468Z" transform="translate(-433.57 -169.468)"/>
      <path id="Trazado_102693" data-name="Trazado 102693" d="M440.72,237.136l2.234-2.908-2.234-2.908h1.257l1.613,2.227,1.606-2.227h1.25l-2.272,2.908,2.272,2.908H445.2l-1.6-2.211-1.621,2.211Z" transform="translate(-435.305 -170.273)"/>
      <path id="Trazado_102694" data-name="Trazado 102694" d="M451.514,236.515a1.515,1.515,0,0,1-1.136-.417,1.591,1.591,0,0,1-.409-1.159v-3.423H448.78V230.7h.432a.84.84,0,0,0,.644-.2.977.977,0,0,0,.189-.682V228.76H451V230.7h1.333v.818H451v3.317a.856.856,0,0,0,.22.636.758.758,0,0,0,.583.227h.53v.818Z" transform="translate(-437.261 -169.652)"/>
      <path id="Trazado_102695" data-name="Trazado 102695" d="M456.429,232.35a1.8,1.8,0,0,1,.757-.757,2.151,2.151,0,0,1,1.113-.3v.962a1.908,1.908,0,0,0-1.348.432,1.8,1.8,0,0,0-.462,1.378v3.067h-1.03v-5.816h1Z" transform="translate(-438.882 -170.266)"/>
      <path id="Trazado_102696" data-name="Trazado 102696" d="M461.871,237.237a1.984,1.984,0,0,1-1.272-.4,1.424,1.424,0,0,1-.5-1.189,1.665,1.665,0,0,1,.159-.757,1.318,1.318,0,0,1,.47-.53,2.849,2.849,0,0,1,.682-.333,6.451,6.451,0,0,1,.886-.2l.939-.159c.348-.061.515-.242.515-.538a1.007,1.007,0,0,0-.364-.863,1.439,1.439,0,0,0-.916-.28,1.515,1.515,0,0,0-.909.265,1.1,1.1,0,0,0-.432.818l-.924-.189a1.765,1.765,0,0,1,.757-1.25,2.68,2.68,0,0,1,1.583-.417,3.189,3.189,0,0,1,.841.106,2.136,2.136,0,0,1,.7.326,1.431,1.431,0,0,1,.507.621,2.338,2.338,0,0,1,.182.962v2.37a1.037,1.037,0,0,0,.129.606.576.576,0,0,0,.462.159h.091v.757h-.507a.962.962,0,0,1-1.1-.757h-.045A2.227,2.227,0,0,1,461.871,237.237Zm.235-.825a1.553,1.553,0,0,0,1.25-.568,2.272,2.272,0,0,0,.477-1.515l-1.515.3a2.067,2.067,0,0,0-.9.326.854.854,0,0,0-.008,1.272A1.151,1.151,0,0,0,462.106,236.412Z" transform="translate(-440.007 -170.245)"/>
      <path id="Trazado_102697" data-name="Trazado 102697" d="M472.238,231.335h1.1l-2.37,5.8H470.1l-2.355-5.816h1.091l1.7,4.627Z" transform="translate(-441.863 -170.273)"/>
      <path id="Trazado_102698" data-name="Trazado 102698" d="M477.629,237.237a1.992,1.992,0,0,1-1.28-.4,1.424,1.424,0,0,1-.5-1.189,1.665,1.665,0,0,1,.159-.757,1.34,1.34,0,0,1,.477-.53,2.846,2.846,0,0,1,.682-.333,6.45,6.45,0,0,1,.886-.2l.939-.159c.348-.061.515-.242.515-.538a1.007,1.007,0,0,0-.363-.863,1.439,1.439,0,0,0-.916-.28,1.56,1.56,0,0,0-.916.265,1.144,1.144,0,0,0-.432.818l-.924-.189a1.8,1.8,0,0,1,.757-1.25,2.68,2.68,0,0,1,1.583-.417,3.189,3.189,0,0,1,.841.106,2.135,2.135,0,0,1,.7.326,1.431,1.431,0,0,1,.507.621,2.345,2.345,0,0,1,.174.962v2.37a.978.978,0,0,0,.136.606.576.576,0,0,0,.462.159h.091v.757H480.7a.962.962,0,0,1-1.1-.757h-.053A2.2,2.2,0,0,1,477.629,237.237Zm.235-.825a1.553,1.553,0,0,0,1.25-.568,2.272,2.272,0,0,0,.47-1.515l-1.515.3a2.067,2.067,0,0,0-.9.326.84.84,0,0,0-.008,1.272,1.136,1.136,0,0,0,.7.189Z" transform="translate(-443.83 -170.245)"/>
      <path id="Trazado_102699" data-name="Trazado 102699" d="M488.693,231.306h1v5.521a3.158,3.158,0,0,1-.757,2.272,3.12,3.12,0,0,1-4.9-.984l.841-.417a1.931,1.931,0,0,0,1.946,1.348,1.689,1.689,0,0,0,1.371-.568,2.446,2.446,0,0,0,.47-1.59v-1.075a2.067,2.067,0,0,1-.833.841,2.552,2.552,0,0,1-3.09-.507,3.12,3.12,0,0,1,0-4.127,2.514,2.514,0,0,1,1.893-.818,2.408,2.408,0,0,1,1.219.326,2.129,2.129,0,0,1,.818.863Zm-1.84,4.786a1.78,1.78,0,0,0,1.34-.6,2.06,2.06,0,0,0,.553-1.424,2.037,2.037,0,0,0-.553-1.424,1.825,1.825,0,0,0-2.681,0,2.022,2.022,0,0,0-.553,1.446,2.044,2.044,0,0,0,.553,1.439A1.794,1.794,0,0,0,486.853,236.092Z" transform="translate(-445.799 -170.244)"/>
      <path id="Trazado_102700" data-name="Trazado 102700" d="M495.481,237.237a1.984,1.984,0,0,1-1.272-.4,1.4,1.4,0,0,1-.5-1.189,1.667,1.667,0,0,1,.159-.757,1.264,1.264,0,0,1,.47-.53,2.846,2.846,0,0,1,.682-.333,6.452,6.452,0,0,1,.886-.2l.939-.159c.348-.061.515-.242.515-.538a1.007,1.007,0,0,0-.364-.863,1.438,1.438,0,0,0-.916-.28,1.56,1.56,0,0,0-.916.265,1.144,1.144,0,0,0-.432.818l-.916-.189a1.764,1.764,0,0,1,.757-1.25,2.681,2.681,0,0,1,1.583-.417,3.188,3.188,0,0,1,.841.106,2.136,2.136,0,0,1,.7.326,1.431,1.431,0,0,1,.507.621,2.342,2.342,0,0,1,.182.962v2.37a.984.984,0,0,0,.129.606.576.576,0,0,0,.462.159h.091v.757h-.507a.962.962,0,0,1-1.1-.757h-.053A2.2,2.2,0,0,1,495.481,237.237Zm.235-.825a1.553,1.553,0,0,0,1.25-.568,2.273,2.273,0,0,0,.469-1.515l-1.515.3a2.067,2.067,0,0,0-.9.326.855.855,0,0,0-.008,1.272A1.151,1.151,0,0,0,495.715,236.412Z" transform="translate(-448.164 -170.245)"/>
      <path id="Trazado_102701" data-name="Trazado 102701" d="M505.4,231.189a2.045,2.045,0,0,1,1.469.53,1.969,1.969,0,0,1,.545,1.515v3.87h-1.022v-3.68a1.386,1.386,0,0,0-.356-1.045,1.25,1.25,0,0,0-.909-.341,1.409,1.409,0,0,0-1.038.4,1.6,1.6,0,0,0-.409,1.189V237.1H502.66v-5.816h1.015v.757a1.939,1.939,0,0,1,1.727-.856Z" transform="translate(-450.337 -170.241)"/>
      <path id="Trazado_102702" data-name="Trazado 102702" d="M513.809,237.225a2.779,2.779,0,0,1-2.083-.833,3.3,3.3,0,0,1,0-4.362,2.787,2.787,0,0,1,2.09-.841,2.818,2.818,0,0,1,1.681.515,2.521,2.521,0,0,1,.977,1.409l-.954.159a1.779,1.779,0,0,0-.659-.909,1.8,1.8,0,0,0-1.053-.318,1.719,1.719,0,0,0-1.348.6,2.575,2.575,0,0,0,0,3.128,1.719,1.719,0,0,0,1.348.6,1.8,1.8,0,0,0,1.053-.318,1.78,1.78,0,0,0,.659-.909l.954.159a2.551,2.551,0,0,1-.984,1.416A2.809,2.809,0,0,1,513.809,237.225Z" transform="translate(-452.338 -170.241)"/>
      <path id="Trazado_102703" data-name="Trazado 102703" d="M520.709,229.1a.659.659,0,0,1-.485-.2.674.674,0,0,1-.2-.492.659.659,0,0,1,.2-.485.7.7,0,0,1,.969,0,.659.659,0,0,1,.2.485.674.674,0,0,1-.2.492A.659.659,0,0,1,520.709,229.1Zm-.523,7.179v-5.816h1.03v5.8Z" transform="translate(-454.551 -169.4)"/>
      <path id="Trazado_102704" data-name="Trazado 102704" d="M525.558,237.237a1.991,1.991,0,0,1-1.28-.4,1.423,1.423,0,0,1-.5-1.189,1.667,1.667,0,0,1,.159-.757,1.288,1.288,0,0,1,.477-.53,2.848,2.848,0,0,1,.682-.333,6.451,6.451,0,0,1,.886-.2l.939-.159c.341-.061.515-.242.515-.538a1.008,1.008,0,0,0-.364-.863,1.439,1.439,0,0,0-.916-.28,1.56,1.56,0,0,0-.916.265,1.144,1.144,0,0,0-.432.818l-.924-.189a1.817,1.817,0,0,1,.757-1.249,2.726,2.726,0,0,1,1.59-.417,3.236,3.236,0,0,1,.841.106,2.136,2.136,0,0,1,.7.326,1.431,1.431,0,0,1,.507.621,2.479,2.479,0,0,1,.174.962v2.37a.977.977,0,0,0,.136.606.576.576,0,0,0,.462.159h.091v.757h-.507a.962.962,0,0,1-1.1-.757h-.053A2.2,2.2,0,0,1,525.558,237.237Zm.235-.825a1.553,1.553,0,0,0,1.25-.568,2.333,2.333,0,0,0,.469-1.515l-1.515.3a2.067,2.067,0,0,0-.9.326.847.847,0,0,0-.015,1.272,1.174,1.174,0,0,0,.712.189Z" transform="translate(-455.462 -170.246)"/>
    </g>
    <g id="Grupo_57712" data-name="Grupo 57712" transform="translate(328.127 88.287)">
      <path id="Trazado_102705" data-name="Trazado 102705" d="M439.126,117.11h1.765v8.55h-2.052l-3.787-6.111v6.111H433.28v-8.55h2.06l3.787,6.058Z" transform="translate(-433.28 -116.709)"/>
      <path id="Trazado_102706" data-name="Trazado 102706" d="M451.493,123.278v.409H446.95a1.56,1.56,0,0,0,.485,1.113,1.651,1.651,0,0,0,1.87.174,1.325,1.325,0,0,0,.515-.613l1.56.227a2.7,2.7,0,0,1-1.068,1.431,3.143,3.143,0,0,1-1.795.507,3.287,3.287,0,0,1-2.37-.841,3.029,3.029,0,0,1-.879-2.317,3.1,3.1,0,0,1,.879-2.325,3.2,3.2,0,0,1,2.317-.848,2.779,2.779,0,0,1,3.029,3.082Zm-3.029-1.878a1.348,1.348,0,0,0-1.477,1.174h2.795a1.28,1.28,0,0,0-.424-.871,1.34,1.34,0,0,0-.863-.3Z" transform="translate(-436.188 -117.455)"/>
      <path id="Trazado_102707" data-name="Trazado 102707" d="M459.221,120.326h1.621v5.627a4.546,4.546,0,0,1-.227,1.515,2.446,2.446,0,0,1-.659,1.037,2.764,2.764,0,0,1-1.015.583,4.179,4.179,0,0,1-1.325.189,3,3,0,0,1-3.135-1.886l1.416-.606a2.053,2.053,0,0,0,.651.886,1.674,1.674,0,0,0,1,.28c1.053,0,1.583-.621,1.583-1.871v-.735a1.916,1.916,0,0,1-.757.6,2.567,2.567,0,0,1-1.083.227,2.711,2.711,0,0,1-1.068-.212,2.84,2.84,0,0,1-.886-.606,2.884,2.884,0,0,1-.6-.954,3.582,3.582,0,0,1,0-2.469,2.72,2.72,0,0,1,.606-.939,2.53,2.53,0,0,1,.886-.591,2.7,2.7,0,0,1,1.075-.212,2.5,2.5,0,0,1,1.128.25,1.75,1.75,0,0,1,.757.666Zm-2.613,4.021a1.469,1.469,0,0,0,1.113.47,1.515,1.515,0,0,0,1.121-.47,1.7,1.7,0,0,0,0-2.317,1.583,1.583,0,0,0-2.272,0,1.621,1.621,0,0,0-.447,1.166,1.59,1.59,0,0,0,.485,1.151Z" transform="translate(-438.425 -117.456)"/>
      <path id="Trazado_102708" data-name="Trazado 102708" d="M470.06,124.772a5.687,5.687,0,0,0,.144,1.515v.167h-1.59l-.136-.659a1.961,1.961,0,0,1-.848.583,3.211,3.211,0,0,1-1.106.2,2.78,2.78,0,0,1-.568-.053,2.03,2.03,0,0,1-.507-.182,1.514,1.514,0,0,1-.424-.318,1.286,1.286,0,0,1-.28-.477,1.991,1.991,0,0,1,0-1.325,1.664,1.664,0,0,1,.3-.492,2.076,2.076,0,0,1,.485-.364,3.783,3.783,0,0,1,.6-.257,7.092,7.092,0,0,1,.757-.189l1-.227a.992.992,0,0,0,.447-.189.378.378,0,0,0,.136-.3.644.644,0,0,0-.3-.591,1.515,1.515,0,0,0-.757-.174,1.045,1.045,0,0,0-1.189.931l-1.515-.273a2.045,2.045,0,0,1,.878-1.393,3.522,3.522,0,0,1,1.908-.439q2.56,0,2.56,2.189Zm-3.029.621a1.371,1.371,0,0,0,1.053-.447,1.84,1.84,0,0,0,.409-1.3l-1.447.409a1.621,1.621,0,0,0-.606.25.515.515,0,0,0-.212.439.561.561,0,0,0,.227.477.932.932,0,0,0,.606.144Z" transform="translate(-440.888 -117.471)"/>
      <path id="Trazado_102709" data-name="Trazado 102709" d="M475.892,125.823a1.81,1.81,0,0,1-1.371-.492,1.908,1.908,0,0,1-.485-1.409v-2.87h-1.2v-1.31h.386a1.022,1.022,0,0,0,.757-.25,1.347,1.347,0,0,0,.242-.909v-.8h1.515v1.961h1.25v1.31h-1.227v2.688c0,.53.235.757.7.757h.545v1.3Z" transform="translate(-442.881 -116.871)"/>
      <path id="Trazado_102710" data-name="Trazado 102710" d="M480.924,118.541a.969.969,0,0,1-.7-.288.954.954,0,0,1-.288-.7.932.932,0,0,1,.3-.689.977.977,0,1,1,1.378,1.386A.947.947,0,0,1,480.924,118.541Zm-.863,6.99v-6.058h1.712v6.058Z" transform="translate(-444.604 -116.58)"/>
      <path id="Trazado_102711" data-name="Trazado 102711" d="M488.362,120.37h1.8l-2.59,6.058H486.06l-2.56-6.058h1.795l1.515,4.158Z" transform="translate(-445.468 -117.5)"/>
      <path id="Trazado_102712" data-name="Trazado 102712" d="M495.832,126.548a3.9,3.9,0,0,1-1.719-.371,2.8,2.8,0,0,1-1.182-1.1,3.226,3.226,0,0,1-.432-1.7,3.029,3.029,0,0,1,.924-2.272,3.877,3.877,0,0,1,4.824,0,3.362,3.362,0,0,1,0,4.627A3.423,3.423,0,0,1,495.832,126.548Zm0-1.356a1.568,1.568,0,0,0,1.2-.5,1.848,1.848,0,0,0,.454-1.31,1.886,1.886,0,0,0-.454-1.318,1.591,1.591,0,0,0-1.2-.492,1.515,1.515,0,0,0-1.174.5,2.143,2.143,0,0,0,0,2.62,1.515,1.515,0,0,0,1.159.5Z" transform="translate(-447.652 -117.475)"/>
    </g>
  </g>
</svg>
