<svg id="info_1_4-04" xmlns="http://www.w3.org/2000/svg" width="426.789" height="227.525" viewBox="0 0 426.789 227.525">
  <rect id="Rectángulo_5387" data-name="Rectángulo 5387" width="213.395" height="173" fill="#f7931e"/>
  <rect id="Rectángulo_5388" data-name="Rectángulo 5388" width="213.395" height="227.526" transform="translate(213.395)" fill="#f2f2f2"/>
  <rect id="Rectángulo_5389" data-name="Rectángulo 5389" width="53.345" height="54.526" transform="translate(0 173)" fill="#f7931e"/>
  <g id="Grupo_57689" data-name="Grupo 57689" transform="translate(53.345 173)" opacity="0.75">
    <rect id="Rectángulo_5390" data-name="Rectángulo 5390" width="53.345" height="54.526" fill="#f7931e"/>
  </g>
  <g id="Grupo_57690" data-name="Grupo 57690" transform="translate(106.697 173)" opacity="0.5">
    <rect id="Rectángulo_5391" data-name="Rectángulo 5391" width="53.345" height="54.526" fill="#f7931e"/>
  </g>
  <g id="Grupo_57691" data-name="Grupo 57691" transform="translate(160.042 173)" opacity="0.25">
    <rect id="Rectángulo_5392" data-name="Rectángulo 5392" width="53.345" height="54.526" fill="#f7931e"/>
  </g>
  <g id="Grupo_57692" data-name="Grupo 57692" transform="translate(238.386 40.819)">
    <path id="Trazado_102357" data-name="Trazado 102357" d="M330.578,75.893,329.1,71.706h-8.527L319.1,75.893H314.78l7.475-20.3h5.157l7.475,20.3Zm-8.77-7.709h6.058l-3.029-8.618Z" transform="translate(-314.78 -54.31)"/>
    <path id="Trazado_102358" data-name="Trazado 102358" d="M353.158,63a5.649,5.649,0,0,1,3.991,1.295,4.847,4.847,0,0,1,1.371,3.673v9.724h-4.059V68.835a2.514,2.514,0,0,0-.757-1.992,2.726,2.726,0,0,0-1.863-.636,3.84,3.84,0,0,0-1.212.182,3.187,3.187,0,0,0-1.007.576,2.53,2.53,0,0,0-.757,1.083,5,5,0,0,0-.273,1.674v7.967H344.54V63.246h4.135v1.6A5.574,5.574,0,0,1,353.158,63Z" transform="translate(-322.002 -56.104)"/>
    <path id="Trazado_102359" data-name="Trazado 102359" d="M379.712,73.751a13.418,13.418,0,0,0,.356,3.522v.394h-3.787l-.318-1.575a4.687,4.687,0,0,1-2.022,1.393,7.489,7.489,0,0,1-2.62.462,6.973,6.973,0,0,1-1.348-.121,4.459,4.459,0,0,1-1.212-.432,3.785,3.785,0,0,1-1.007-.757,3.318,3.318,0,0,1-.674-1.144,4.666,4.666,0,0,1-.25-1.568,4.256,4.256,0,0,1,.265-1.568,3.536,3.536,0,0,1,.7-1.174,4.135,4.135,0,0,1,1.136-.856,8.436,8.436,0,0,1,1.431-.621,16.392,16.392,0,0,1,1.719-.447l2.37-.538a2.628,2.628,0,0,0,1.075-.454.909.909,0,0,0,.318-.757,1.515,1.515,0,0,0-.712-1.386,3.233,3.233,0,0,0-1.719-.424q-2.484,0-2.825,2.2l-3.582-.644a4.839,4.839,0,0,1,2.09-3.294,8.33,8.33,0,0,1,4.544-1.06q6.059,0,6.059,5.21Zm-7.126,1.462a3.279,3.279,0,0,0,2.507-1.053,4.415,4.415,0,0,0,.954-3.1l-3.415,1a4.089,4.089,0,0,0-1.439.591,1.212,1.212,0,0,0-.5,1.037,1.356,1.356,0,0,0,.53,1.151,2.226,2.226,0,0,0,1.363.371Z" transform="translate(-327.412 -56.083)"/>
    <path id="Trazado_102360" data-name="Trazado 102360" d="M392.908,65.552a4.718,4.718,0,0,1,1.893-1.734,5.786,5.786,0,0,1,2.825-.757v3.6a5.5,5.5,0,0,0-3.453.894,3.815,3.815,0,0,0-1.068,3.1v7.051H389V63.264h3.877Z" transform="translate(-332.792 -56.123)"/>
    <path id="Trazado_102361" data-name="Trazado 102361" d="M414.927,73.75a13.476,13.476,0,0,0,.348,3.521v.394h-3.786l-.326-1.575a4.688,4.688,0,0,1-2.022,1.393,7.414,7.414,0,0,1-2.613.462,6.975,6.975,0,0,1-1.348-.121,4.544,4.544,0,0,1-1.219-.432,3.84,3.84,0,0,1-1-.757,3.318,3.318,0,0,1-.674-1.144,4.656,4.656,0,0,1-.258-1.568,4.256,4.256,0,0,1,.273-1.568,3.656,3.656,0,0,1,.7-1.174,4.293,4.293,0,0,1,1.144-.856,8.442,8.442,0,0,1,1.431-.621,16.227,16.227,0,0,1,1.712-.447l2.378-.538a2.627,2.627,0,0,0,1.075-.454.909.909,0,0,0,.318-.757,1.515,1.515,0,0,0-.712-1.386,3.256,3.256,0,0,0-1.719-.424c-1.659,0-2.605.757-2.825,2.2l-3.582-.644a4.809,4.809,0,0,1,2.09-3.294,8.277,8.277,0,0,1,4.544-1.06q6.059,0,6.058,5.21ZM407.8,75.212a3.256,3.256,0,0,0,2.5-1.053,4.377,4.377,0,0,0,.969-3.1l-3.423,1a4.143,4.143,0,0,0-1.446.591,1.219,1.219,0,0,0-.492,1.038,1.356,1.356,0,0,0,.53,1.151A2.227,2.227,0,0,0,407.8,75.212Z" transform="translate(-335.955 -56.082)"/>
    <path id="Trazado_102362" data-name="Trazado 102362" d="M432.765,63a5.665,5.665,0,0,1,3.991,1.295,4.846,4.846,0,0,1,1.386,3.7v9.694h-4.059V68.835a2.491,2.491,0,0,0-.757-1.992,2.7,2.7,0,0,0-1.855-.636,3.786,3.786,0,0,0-1.212.182,3.188,3.188,0,0,0-1.007.576,2.53,2.53,0,0,0-.757,1.083,5,5,0,0,0-.273,1.674v7.967H424.17V63.246h4.052v1.6A5.574,5.574,0,0,1,432.765,63Z" transform="translate(-341.328 -56.104)"/>
    <path id="Trazado_102363" data-name="Trazado 102363" d="M443.9,82.365V79.2a4.673,4.673,0,0,0,1.515-.2,1.711,1.711,0,0,0,.894-.757,3.136,3.136,0,0,0,.432-1.25,14.226,14.226,0,0,0,.106-1.931V61.145h4.1V75.1c0,2.522-.553,4.362-1.643,5.521S446.414,82.365,443.9,82.365Zm5.036-23.386a2.34,2.34,0,0,1-2.348-2.333,2.189,2.189,0,0,1,.7-1.636,2.322,2.322,0,1,1,1.651,3.968Z" transform="translate(-346.116 -54.004)"/>
    <path id="Trazado_102364" data-name="Trazado 102364" d="M470.277,73.75a13.471,13.471,0,0,0,.348,3.521v.394h-3.787l-.326-1.575a4.688,4.688,0,0,1-2.022,1.393,7.414,7.414,0,0,1-2.613.462,6.975,6.975,0,0,1-1.348-.121,4.545,4.545,0,0,1-1.219-.432,3.84,3.84,0,0,1-1-.757,3.317,3.317,0,0,1-.674-1.144,4.476,4.476,0,0,1-.258-1.568,4.258,4.258,0,0,1,.273-1.568,3.659,3.659,0,0,1,.7-1.174,4.293,4.293,0,0,1,1.143-.856,7.943,7.943,0,0,1,1.431-.621,16.211,16.211,0,0,1,1.711-.447l2.378-.538a2.628,2.628,0,0,0,1.075-.454.9.9,0,0,0,.31-.757,1.515,1.515,0,0,0-.7-1.386,3.263,3.263,0,0,0-1.727-.424,2.485,2.485,0,0,0-2.817,2.2l-3.59-.644a4.847,4.847,0,0,1,2.1-3.294,8.277,8.277,0,0,1,4.544-1.06q6.059,0,6.059,5.21Zm-7.126,1.462a3.256,3.256,0,0,0,2.5-1.053,4.377,4.377,0,0,0,.969-3.1l-3.423,1a4.144,4.144,0,0,0-1.446.591,1.2,1.2,0,0,0-.492,1.038,1.356,1.356,0,0,0,.53,1.151A2.226,2.226,0,0,0,463.15,75.212Z" transform="translate(-349.387 -56.082)"/>
    <path id="Trazado_102365" data-name="Trazado 102365" d="M489.057,53.9h4.052V75.483h-3.824l-.1-1.878a4.165,4.165,0,0,1-1.833,1.636,6.2,6.2,0,0,1-2.7.583,6.982,6.982,0,0,1-2.7-.523,6.475,6.475,0,0,1-3.711-3.847,8.687,8.687,0,0,1-.553-3.166,8.2,8.2,0,0,1,.954-4.021,6.626,6.626,0,0,1,2.522-2.62,6.952,6.952,0,0,1,3.484-.886,6.4,6.4,0,0,1,2.62.523,4.12,4.12,0,0,1,1.8,1.515Zm-3.5,18.562a3.59,3.59,0,0,0,2.734-1.151,4.733,4.733,0,0,0,0-6.058,3.59,3.59,0,0,0-2.726-1.159,3.627,3.627,0,0,0-2.749,1.144,4.809,4.809,0,0,0,0,6.058A3.65,3.65,0,0,0,485.558,72.462Z" transform="translate(-354.316 -53.9)"/>
    <path id="Trazado_102366" data-name="Trazado 102366" d="M509.918,77.962a9.088,9.088,0,0,1-4.089-.886,6.581,6.581,0,0,1-2.8-2.6A7.709,7.709,0,0,1,502,70.45a7.066,7.066,0,0,1,2.189-5.483,9.171,9.171,0,0,1,11.451,0,7.073,7.073,0,0,1,2.2,5.483,7.1,7.1,0,0,1-2.2,5.5,8.111,8.111,0,0,1-5.718,2.014Zm-.038-3.219a3.719,3.719,0,0,0,2.855-1.151,5.006,5.006,0,0,0,0-6.24,3.7,3.7,0,0,0-2.855-1.181A3.567,3.567,0,0,0,507.1,67.36a5.043,5.043,0,0,0,0,6.225,3.589,3.589,0,0,0,2.779,1.159Z" transform="translate(-360.213 -56.099)"/>
  </g>
  <g id="Grupo_57693" data-name="Grupo 57693" transform="translate(241.665 114.293)">
    <path id="Trazado_102367" data-name="Trazado 102367" d="M323.78,159.628a4.491,4.491,0,0,1-1.643-.3,4.257,4.257,0,0,1-1.318-.841,3.787,3.787,0,0,1-.871-1.356,5.179,5.179,0,0,1,0-3.574,3.853,3.853,0,0,1,.878-1.356,4.135,4.135,0,0,1,1.31-.841,4.491,4.491,0,0,1,1.643-.3,4.408,4.408,0,0,1,1.621.3,3.787,3.787,0,0,1,2.2,2.189,4.832,4.832,0,0,1,.318,1.78,4.917,4.917,0,0,1-.318,1.795,3.961,3.961,0,0,1-.879,1.356,4.09,4.09,0,0,1-1.318.841A4.4,4.4,0,0,1,323.78,159.628Zm0-1a3.029,3.029,0,0,0,2.2-.878,3.287,3.287,0,0,0,.871-2.408,3.789,3.789,0,0,0-.242-1.378,2.757,2.757,0,0,0-1.628-1.658,3.453,3.453,0,0,0-2.423,0,2.886,2.886,0,0,0-.977.629,2.8,2.8,0,0,0-.659,1.03,3.788,3.788,0,0,0-.242,1.378,3.916,3.916,0,0,0,.242,1.4,2.839,2.839,0,0,0,.659,1.038,3.029,3.029,0,0,0,.977.629A3.386,3.386,0,0,0,323.78,158.628Z" transform="translate(-319.236 -150.956)"/>
    <path id="Trazado_102368" data-name="Trazado 102368" d="M336,154.39a2.621,2.621,0,0,1,1.053.22,2.545,2.545,0,0,1,.863.591,2.9,2.9,0,0,1,.583.962,3.561,3.561,0,0,1,.212,1.257,3.09,3.09,0,0,1-.757,2.2,2.552,2.552,0,0,1-1.931.833,2.318,2.318,0,0,1-1.219-.333,2.2,2.2,0,0,1-.833-.894v4.029H332.9V154.5h.992v1.136a2.083,2.083,0,0,1,.825-.909A2.31,2.31,0,0,1,336,154.39Zm-.2,5.165a1.749,1.749,0,0,0,1.348-.583,2.484,2.484,0,0,0,0-3.1,1.749,1.749,0,0,0-1.348-.583,1.787,1.787,0,0,0-1.363.606,2.37,2.37,0,0,0,0,3.029,1.765,1.765,0,0,0,1.333.636Z" transform="translate(-322.457 -151.762)"/>
    <path id="Trazado_102369" data-name="Trazado 102369" d="M344.251,159.74a1.515,1.515,0,0,1-1.136-.417,1.568,1.568,0,0,1-.416-1.159v-3.423H341.51v-.818h.439a.856.856,0,0,0,.644-.2,1.022,1.022,0,0,0,.182-.682V152h.954v1.939h1.34v.818h-1.34v3.3a.863.863,0,0,0,.227.636.757.757,0,0,0,.576.227h.538v.818Z" transform="translate(-324.546 -151.182)"/>
    <path id="Trazado_102370" data-name="Trazado 102370" d="M348.627,152.3a.7.7,0,0,1-.7-.7.659.659,0,0,1,.2-.485.7.7,0,0,1,.977,0,.652.652,0,0,1,.2.485.682.682,0,0,1-.682.7Zm-.523,7.179v-5.816h1.03v5.816Z" transform="translate(-326.104 -150.92)"/>
    <path id="Trazado_102371" data-name="Trazado 102371" d="M358.215,154.387a1.863,1.863,0,0,1,1.356.5,1.825,1.825,0,0,1,.515,1.386v4.044h-1.022v-3.787a1.325,1.325,0,0,0-.318-.962,1.1,1.1,0,0,0-.81-.318,1.136,1.136,0,0,0-.886.364,1.56,1.56,0,0,0-.341,1.1v3.6h-1.045v-3.734a1.378,1.378,0,0,0-.318-.992,1.083,1.083,0,0,0-.825-.333,1.136,1.136,0,0,0-.886.371,1.635,1.635,0,0,0-.341,1.128v3.559H352.27v-5.816h1.022v.757a1.81,1.81,0,0,1,.666-.644,1.879,1.879,0,0,1,.924-.227,1.962,1.962,0,0,1,1,.25,1.514,1.514,0,0,1,.644.7,1.78,1.78,0,0,1,.7-.7A1.954,1.954,0,0,1,358.215,154.387Z" transform="translate(-327.158 -151.76)"/>
    <path id="Trazado_102372" data-name="Trazado 102372" d="M365.677,152.3a.7.7,0,0,1-.7-.7.659.659,0,0,1,.2-.485.7.7,0,0,1,.492-.2.674.674,0,0,1,.477.2.659.659,0,0,1,.2.485.674.674,0,0,1-.2.492A.651.651,0,0,1,365.677,152.3Zm-.523,7.179v-5.816h1.03v5.816Z" transform="translate(-330.242 -150.92)"/>
    <path id="Trazado_102373" data-name="Trazado 102373" d="M371,160.438a2.749,2.749,0,0,1-1.568-.417,1.727,1.727,0,0,1-.757-1.2l.894-.257a1.228,1.228,0,0,0,.477.81,1.514,1.514,0,0,0,.954.288,2.135,2.135,0,0,0,.56-.076.91.91,0,0,0,.424-.288.757.757,0,0,0,.174-.53,1.152,1.152,0,0,0-.045-.242,1.1,1.1,0,0,0-.1-.189.424.424,0,0,0-.166-.159,1.706,1.706,0,0,0-.2-.129l-.265-.106-.28-.1-.326-.091-.341-.1c-.242-.076-.439-.144-.6-.212a2.526,2.526,0,0,1-.492-.28,1.128,1.128,0,0,1-.379-.462,1.446,1.446,0,0,1-.129-.651,1.515,1.515,0,0,1,.28-.924,1.59,1.59,0,0,1,.757-.553,2.878,2.878,0,0,1,1.03-.167,2.545,2.545,0,0,1,1.416.379,1.59,1.59,0,0,1,.7,1.136l-.841.212a1.106,1.106,0,0,0-.439-.757,1.408,1.408,0,0,0-.833-.25,1.424,1.424,0,0,0-.757.2.689.689,0,0,0-.326.629.575.575,0,0,0,.083.318.81.81,0,0,0,.174.227,1.136,1.136,0,0,0,.318.182l.341.121.432.106h.083c.235.053.416.106.56.151a4.656,4.656,0,0,1,.507.212,1.651,1.651,0,0,1,.447.318,1.463,1.463,0,0,1,.288.454,1.621,1.621,0,0,1,.121.621,1.659,1.659,0,0,1-.182.757,1.409,1.409,0,0,1-.469.538,2.272,2.272,0,0,1-.682.288,3.088,3.088,0,0,1-.856.182Z" transform="translate(-331.14 -151.767)"/>
    <path id="Trazado_102374" data-name="Trazado 102374" d="M378.274,159.74a1.515,1.515,0,0,1-1.136-.417,1.591,1.591,0,0,1-.409-1.159v-3.423H375.54v-.818h.432a.84.84,0,0,0,.644-.2.977.977,0,0,0,.189-.682V152h.954v1.939h1.333v.818h-1.333v3.3a.856.856,0,0,0,.22.636.757.757,0,0,0,.583.227h.53v.818Z" transform="translate(-332.805 -151.182)"/>
    <path id="Trazado_102375" data-name="Trazado 102375" d="M383.291,160.44a1.939,1.939,0,0,1-1.272-.4,1.424,1.424,0,0,1-.5-1.189,1.666,1.666,0,0,1,.159-.757,1.288,1.288,0,0,1,.477-.53,2.59,2.59,0,0,1,.682-.333,5.968,5.968,0,0,1,.886-.2l.939-.159c.341-.061.515-.242.515-.538a1.007,1.007,0,0,0-.363-.863,1.659,1.659,0,0,0-1.833,0,1.113,1.113,0,0,0-.432.81l-.924-.189a1.818,1.818,0,0,1,.757-1.25,2.727,2.727,0,0,1,1.59-.417,3.274,3.274,0,0,1,.841.106,2.213,2.213,0,0,1,.7.326,1.469,1.469,0,0,1,.5.621,2.339,2.339,0,0,1,.182.962v2.4a.977.977,0,0,0,.136.606.56.56,0,0,0,.454.159h.1v.757h-.507c-.629,0-1-.257-1.106-.757h-.045a2.2,2.2,0,0,1-1.939.841Zm.242-.825a1.567,1.567,0,0,0,1.249-.56,2.362,2.362,0,0,0,.47-1.515l-1.515.3a2.03,2.03,0,0,0-.9.326.847.847,0,0,0-.015,1.272,1.174,1.174,0,0,0,.712.182Z" transform="translate(-334.255 -151.768)"/>
    <path id="Trazado_102376" data-name="Trazado 102376" d="M320.4,178.75v-8.33h1.053v8.33Z" transform="translate(-319.423 -155.652)"/>
    <path id="Trazado_102377" data-name="Trazado 102377" d="M327.642,173.589a2.022,2.022,0,0,1,1.462.53,1.938,1.938,0,0,1,.553,1.515v3.915h-1.022v-3.681a1.393,1.393,0,0,0-.356-1.045,1.28,1.28,0,0,0-.916-.333,1.4,1.4,0,0,0-1.03.394,1.6,1.6,0,0,0-.409,1.189v3.476H324.9v-5.816h1.022v.757A1.931,1.931,0,0,1,327.642,173.589Z" transform="translate(-320.515 -156.421)"/>
    <path id="Trazado_102378" data-name="Trazado 102378" d="M337.937,169.42h1.022v9.088h-.992v-1.128a2.143,2.143,0,0,1-.826.916,2.272,2.272,0,0,1-1.234.341,2.643,2.643,0,0,1-1.916-.825,2.743,2.743,0,0,1-.583-.954,3.553,3.553,0,0,1-.22-1.25,3.083,3.083,0,0,1,.757-2.189,2.56,2.56,0,0,1,1.931-.841,2.318,2.318,0,0,1,1.219.333,2.18,2.18,0,0,1,.833.886Zm-1.833,8.33a1.734,1.734,0,0,0,1.348-.606,2.416,2.416,0,0,0,0-3.029,1.75,1.75,0,0,0-1.348-.613,1.78,1.78,0,0,0-1.363.591,2.189,2.189,0,0,0-.553,1.552,2.159,2.159,0,0,0,.553,1.515,1.779,1.779,0,0,0,1.333.583Z" transform="translate(-322.526 -155.41)"/>
    <path id="Trazado_102379" data-name="Trazado 102379" d="M348.5,176.5v.28h-4.544a2.037,2.037,0,0,0,.56,1.515,1.817,1.817,0,0,0,1.325.523,1.764,1.764,0,0,0,.962-.28,1.847,1.847,0,0,0,.666-.757l.916.2a2.583,2.583,0,0,1-1.007,1.227,2.718,2.718,0,0,1-1.515.454,2.809,2.809,0,0,1-2.12-.833,3.447,3.447,0,0,1,0-4.423,2.787,2.787,0,0,1,2.06-.81,2.628,2.628,0,0,1,1.961.757A2.976,2.976,0,0,1,348.5,176.5Zm-2.7-2.12a1.779,1.779,0,0,0-1.2.416,1.885,1.885,0,0,0-.613,1.2h3.484a1.735,1.735,0,0,0-.507-1.2A1.636,1.636,0,0,0,345.8,174.377Z" transform="translate(-324.892 -156.421)"/>
    <path id="Trazado_102380" data-name="Trazado 102380" d="M355.467,173.59a2.621,2.621,0,0,1,1.053.22,2.545,2.545,0,0,1,.863.591,2.893,2.893,0,0,1,.583.962,3.568,3.568,0,0,1,.22,1.257,3.082,3.082,0,0,1-.757,2.2,2.552,2.552,0,0,1-1.931.833,2.34,2.34,0,0,1-1.219-.333,2.181,2.181,0,0,1-.825-.894v4.029H352.4V173.7h.984v1.136a2.1,2.1,0,0,1,.833-.909A2.272,2.272,0,0,1,355.467,173.59Zm-.2,5.165a1.749,1.749,0,0,0,1.348-.583,2.484,2.484,0,0,0,0-3.1,1.75,1.75,0,0,0-1.348-.583,1.772,1.772,0,0,0-1.363.613,2.166,2.166,0,0,0-.553,1.515,2.2,2.2,0,0,0,.553,1.515A1.764,1.764,0,0,0,355.263,178.755Z" transform="translate(-327.189 -156.422)"/>
    <path id="Trazado_102381" data-name="Trazado 102381" d="M367.123,176.507v.28h-4.544a2.037,2.037,0,0,0,.56,1.515,1.818,1.818,0,0,0,1.325.523,1.757,1.757,0,0,0,1.621-1.053l.924.2a2.582,2.582,0,0,1-.992,1.25,2.719,2.719,0,0,1-1.515.454,2.81,2.81,0,0,1-2.09-.81,3.446,3.446,0,0,1,0-4.423,2.787,2.787,0,0,1,2.06-.81,2.628,2.628,0,0,1,1.961.757A2.976,2.976,0,0,1,367.123,176.507Zm-2.7-2.12a1.78,1.78,0,0,0-1.2.417,1.886,1.886,0,0,0-.613,1.2h3.484a1.735,1.735,0,0,0-.507-1.2,1.636,1.636,0,0,0-1.159-.417Z" transform="translate(-329.424 -156.431)"/>
    <path id="Trazado_102382" data-name="Trazado 102382" d="M373.749,173.589a2.022,2.022,0,0,1,1.462.53,1.939,1.939,0,0,1,.553,1.515v3.915h-1.03v-3.681a1.393,1.393,0,0,0-.348-1.045,1.28,1.28,0,0,0-.916-.333,1.4,1.4,0,0,0-1.03.394,1.6,1.6,0,0,0-.409,1.189v3.476H371v-5.816h1.03v.757A1.931,1.931,0,0,1,373.749,173.589Z" transform="translate(-331.703 -156.421)"/>
    <path id="Trazado_102383" data-name="Trazado 102383" d="M384.047,169.42h1.022v9.088h-.992v-1.128a2.143,2.143,0,0,1-.826.916,2.31,2.31,0,0,1-1.234.341,2.62,2.62,0,0,1-1.053-.22,2.552,2.552,0,0,1-.863-.606,2.741,2.741,0,0,1-.583-.954,3.554,3.554,0,0,1-.22-1.25,3.083,3.083,0,0,1,.757-2.189,2.56,2.56,0,0,1,1.931-.841,2.317,2.317,0,0,1,1.219.333,2.181,2.181,0,0,1,.833.886Zm-1.833,8.33a1.734,1.734,0,0,0,1.348-.606,2.416,2.416,0,0,0,0-3.029,1.749,1.749,0,0,0-1.348-.613,1.78,1.78,0,0,0-1.363.591,2.188,2.188,0,0,0-.553,1.552,2.159,2.159,0,0,0,.553,1.515,1.78,1.78,0,0,0,1.363.583Z" transform="translate(-333.716 -155.41)"/>
    <path id="Trazado_102384" data-name="Trazado 102384" d="M390.137,171.5a.7.7,0,0,1-.7-.7.659.659,0,0,1,.2-.485.7.7,0,0,1,.492-.2.674.674,0,0,1,.477.2.659.659,0,0,1,.2.485.674.674,0,0,1-.2.492A.652.652,0,0,1,390.137,171.5Zm-.523,7.179v-5.816h1.007v5.816Z" transform="translate(-336.178 -155.58)"/>
    <path id="Trazado_102385" data-name="Trazado 102385" d="M398.723,176.5v.28H394.18a2.037,2.037,0,0,0,.56,1.515,1.8,1.8,0,0,0,1.325.523,1.757,1.757,0,0,0,1.621-1.053l.924.2a2.583,2.583,0,0,1-1.022,1.242,2.719,2.719,0,0,1-1.515.454,2.81,2.81,0,0,1-2.09-.81,3.446,3.446,0,0,1,0-4.423,2.772,2.772,0,0,1,2.06-.81,2.6,2.6,0,0,1,1.954.757A2.953,2.953,0,0,1,398.723,176.5Zm-2.7-2.12a1.8,1.8,0,0,0-1.212.417,1.916,1.916,0,0,0-.606,1.2h3.484a1.734,1.734,0,0,0-.507-1.2,1.636,1.636,0,0,0-1.159-.417Z" transform="translate(-337.086 -156.428)"/>
    <path id="Trazado_102386" data-name="Trazado 102386" d="M405.359,173.589a2.022,2.022,0,0,1,1.462.53,1.969,1.969,0,0,1,.553,1.515v3.915h-1.03v-3.681a1.393,1.393,0,0,0-.348-1.045,1.28,1.28,0,0,0-.916-.333,1.416,1.416,0,0,0-1.037.394,1.62,1.62,0,0,0-.4,1.189v3.476h-1.03v-5.816h1.053v.757A1.931,1.931,0,0,1,405.359,173.589Z" transform="translate(-339.375 -156.421)"/>
    <path id="Trazado_102387" data-name="Trazado 102387" d="M413.121,178.935a1.515,1.515,0,0,1-1.136-.417,1.568,1.568,0,0,1-.417-1.159v-3.423H410.38v-.818h.439a.856.856,0,0,0,.644-.2,1.023,1.023,0,0,0,.182-.682V171.18h.954v1.939h1.28v.818h-1.34v3.317a.886.886,0,0,0,.22.636.757.757,0,0,0,.583.227h.538v.818Z" transform="translate(-341.26 -155.837)"/>
    <path id="Trazado_102388" data-name="Trazado 102388" d="M421.842,176.507v.28H417.3a2.037,2.037,0,0,0,.553,1.515,1.817,1.817,0,0,0,1.325.523,1.757,1.757,0,0,0,1.628-1.053l.924.2a2.628,2.628,0,0,1-.992,1.25,2.719,2.719,0,0,1-1.515.454,2.84,2.84,0,0,1-2.1-.81,3.461,3.461,0,0,1,0-4.423,2.772,2.772,0,0,1,2.06-.81,2.621,2.621,0,0,1,1.954.757A2.946,2.946,0,0,1,421.842,176.507Zm-2.688-2.12a1.787,1.787,0,0,0-1.212.417,1.885,1.885,0,0,0-.613,1.2h3.484a1.7,1.7,0,0,0-.507-1.2A1.605,1.605,0,0,0,419.154,174.387Z" transform="translate(-342.703 -156.431)"/>
    <path id="Trazado_102389" data-name="Trazado 102389" d="M325.434,197.95l-.719-1.992h-3.787l-.712,1.992H319.11l3.067-8.33h1.265l3.075,8.33Zm-4.135-2.923h3.1l-1.59-4.362Z" transform="translate(-319.11 -160.312)"/>
    <path id="Trazado_102390" data-name="Trazado 102390" d="M333.678,192.94h1.1l-2.37,5.816h-.871l-2.355-5.816h1.091l1.7,4.627Z" transform="translate(-321.554 -161.118)"/>
    <path id="Trazado_102391" data-name="Trazado 102391" d="M342.8,195.712v.28h-4.544a2.037,2.037,0,0,0,.553,1.515,1.886,1.886,0,0,0,2.272.242,1.78,1.78,0,0,0,.659-.757l.924.2a2.628,2.628,0,0,1-.992,1.25,2.719,2.719,0,0,1-1.515.454,2.825,2.825,0,0,1-2.1-.81,3.461,3.461,0,0,1,0-4.423,2.772,2.772,0,0,1,2.06-.81,2.62,2.62,0,0,1,1.954.757A2.938,2.938,0,0,1,342.8,195.712Zm-2.688-2.12a1.787,1.787,0,0,0-1.212.416,1.886,1.886,0,0,0-.613,1.2h3.484a1.7,1.7,0,0,0-.507-1.2,1.605,1.605,0,0,0-1.174-.417Z" transform="translate(-323.516 -161.095)"/>
    <path id="Trazado_102392" data-name="Trazado 102392" d="M349.449,192.789a2.037,2.037,0,0,1,1.462.53,1.969,1.969,0,0,1,.545,1.515v3.915h-1.022v-3.68a1.393,1.393,0,0,0-.356-1.045,1.249,1.249,0,0,0-.909-.341,1.409,1.409,0,0,0-1.038.4,1.658,1.658,0,0,0-.409,1.189v3.476H346.7v-5.816h1.022v.757a1.939,1.939,0,0,1,1.727-.9Z" transform="translate(-325.806 -161.081)"/>
    <path id="Trazado_102393" data-name="Trazado 102393" d="M357.124,198.13a1.515,1.515,0,0,1-1.136-.417,1.59,1.59,0,0,1-.409-1.159v-3.438H354.39V192.3h.462a.833.833,0,0,0,.644-.2.978.978,0,0,0,.189-.682V190.36h.954V192.3h1.333v.818h-1.333v3.317a.856.856,0,0,0,.22.636.757.757,0,0,0,.583.227h.53v.818Z" transform="translate(-327.672 -160.492)"/>
    <path id="Trazado_102394" data-name="Trazado 102394" d="M364.669,192.935h1.022v5.816h-.984v-.757a1.863,1.863,0,0,1-.719.651,2.271,2.271,0,0,1-1.022.227,2.03,2.03,0,0,1-1.462-.523,1.984,1.984,0,0,1-.545-1.515V192.92h1.022v3.688a1.386,1.386,0,0,0,.356,1.038,1.257,1.257,0,0,0,.916.348,1.4,1.4,0,0,0,1.03-.4,1.674,1.674,0,0,0,.409-1.189Z" transform="translate(-329.265 -161.113)"/>
    <path id="Trazado_102395" data-name="Trazado 102395" d="M370.969,193.95a1.772,1.772,0,0,1,.757-.757,2.182,2.182,0,0,1,1.121-.3v.962a1.931,1.931,0,0,0-1.356.432,1.8,1.8,0,0,0-.462,1.378v3.1H370v-5.816h1Z" transform="translate(-331.46 -161.106)"/>
    <path id="Trazado_102396" data-name="Trazado 102396" d="M380.152,195.712v.28h-4.544a2.037,2.037,0,0,0,.56,1.515,1.818,1.818,0,0,0,1.325.523,1.764,1.764,0,0,0,.962-.28,1.848,1.848,0,0,0,.666-.757l.916.2a2.583,2.583,0,0,1-.992,1.25,2.719,2.719,0,0,1-1.515.454,2.81,2.81,0,0,1-2.09-.81,3.447,3.447,0,0,1,0-4.423,2.787,2.787,0,0,1,2.06-.81,2.628,2.628,0,0,1,1.962.757A2.969,2.969,0,0,1,380.152,195.712Zm-2.7-2.12a1.78,1.78,0,0,0-1.2.417,1.885,1.885,0,0,0-.583,1.227h3.484a1.734,1.734,0,0,0-.507-1.2A1.636,1.636,0,0,0,377.456,193.591Z" transform="translate(-332.585 -161.095)"/>
    <path id="Trazado_102397" data-name="Trazado 102397" d="M385.03,193.95a1.771,1.771,0,0,1,.719-.757,2.158,2.158,0,0,1,1.121-.3v.962a1.915,1.915,0,0,0-1.356.432,1.8,1.8,0,0,0-.462,1.378v3.1H384v-5.816h1Z" transform="translate(-334.858 -161.106)"/>
    <path id="Trazado_102398" data-name="Trazado 102398" d="M391.565,198.834a3.029,3.029,0,0,1-1.515-.363,2.59,2.59,0,0,1-1.045-1.053,3.248,3.248,0,0,1-.386-1.605,2.969,2.969,0,0,1,.825-2.2,3.09,3.09,0,0,1,4.2,0,3.332,3.332,0,0,1,0,4.392A2.84,2.84,0,0,1,391.565,198.834Zm0-.848a1.8,1.8,0,0,0,1.378-.6,2.272,2.272,0,0,0,.545-1.575,2.219,2.219,0,0,0-.545-1.568,1.779,1.779,0,0,0-1.378-.6,1.757,1.757,0,0,0-1.363.6,2.565,2.565,0,0,0,0,3.143,1.787,1.787,0,0,0,1.356.6Z" transform="translate(-335.978 -161.082)"/>
    <path id="Trazado_102399" data-name="Trazado 102399" d="M323.78,217.257a4.491,4.491,0,0,1-1.643-.3,4.256,4.256,0,0,1-1.318-.841,3.787,3.787,0,0,1-.871-1.356,5.179,5.179,0,0,1,0-3.575,3.855,3.855,0,0,1,.878-1.356,4.136,4.136,0,0,1,1.31-.841,4.491,4.491,0,0,1,1.643-.3,4.2,4.2,0,0,1,2.211.591,3.65,3.65,0,0,1,1.492,1.605l-.977.4a2.81,2.81,0,0,0-1.091-1.189,3.119,3.119,0,0,0-1.613-.417,3.384,3.384,0,0,0-1.219.22,2.885,2.885,0,0,0-.977.629,2.8,2.8,0,0,0-.659,1.03,3.787,3.787,0,0,0-.242,1.378,3.869,3.869,0,0,0,.242,1.393,2.8,2.8,0,0,0,.659,1.03,2.886,2.886,0,0,0,.977.629,3.234,3.234,0,0,0,1.219.227,3.127,3.127,0,0,0,1.613-.424,2.771,2.771,0,0,0,1.091-1.174l.977.394a3.635,3.635,0,0,1-1.515,1.628A4.278,4.278,0,0,1,323.78,217.257Z" transform="translate(-319.236 -164.943)"/>
    <path id="Trazado_102400" data-name="Trazado 102400" d="M333.007,213.15a1.8,1.8,0,0,1,.757-.757,2.151,2.151,0,0,1,1.113-.3v.962a1.909,1.909,0,0,0-1.348.432,1.8,1.8,0,0,0-.469,1.378v3.1H332v-5.816h1Z" transform="translate(-322.238 -165.765)"/>
    <path id="Trazado_102401" data-name="Trazado 102401" d="M342.232,214.907v.28h-4.544a2.037,2.037,0,0,0,.553,1.515,1.817,1.817,0,0,0,1.325.523,1.757,1.757,0,0,0,1.628-1.053l.924.2a2.628,2.628,0,0,1-.992,1.25,2.719,2.719,0,0,1-1.515.454,2.84,2.84,0,0,1-2.1-.81,3.461,3.461,0,0,1,0-4.423,2.772,2.772,0,0,1,2.06-.81,2.621,2.621,0,0,1,1.954.757,2.946,2.946,0,0,1,.7,2.12Zm-2.688-2.12a1.787,1.787,0,0,0-1.212.417,1.885,1.885,0,0,0-.613,1.2H341.2a1.7,1.7,0,0,0-.507-1.2,1.606,1.606,0,0,0-1.174-.439Z" transform="translate(-323.383 -165.75)"/>
    <path id="Trazado_102402" data-name="Trazado 102402" d="M347.291,218.07a1.938,1.938,0,0,1-1.272-.4,1.424,1.424,0,0,1-.5-1.189,1.666,1.666,0,0,1,.159-.757,1.286,1.286,0,0,1,.477-.53,2.588,2.588,0,0,1,.682-.333,5.967,5.967,0,0,1,.886-.2l.939-.159c.341-.061.515-.242.515-.538a1.007,1.007,0,0,0-.363-.863,1.659,1.659,0,0,0-1.833,0,1.114,1.114,0,0,0-.432.81l-.924-.189a1.818,1.818,0,0,1,.757-1.25,2.726,2.726,0,0,1,1.59-.417,3.274,3.274,0,0,1,.841.106,2.211,2.211,0,0,1,.7.326,1.469,1.469,0,0,1,.5.621,2.34,2.34,0,0,1,.182.962v2.4a.977.977,0,0,0,.136.606.56.56,0,0,0,.454.159h.1v.757h-.507c-.629,0-1-.257-1.106-.757h-.045A2.2,2.2,0,0,1,347.291,218.07Zm.242-.825a1.567,1.567,0,0,0,1.25-.56,2.363,2.363,0,0,0,.47-1.515l-1.515.3a2.03,2.03,0,0,0-.9.326.847.847,0,0,0-.015,1.272,1.174,1.174,0,0,0,.712.159Z" transform="translate(-325.518 -165.755)"/>
    <path id="Trazado_102403" data-name="Trazado 102403" d="M356,217.335a1.514,1.514,0,0,1-1.136-.417,1.567,1.567,0,0,1-.417-1.159v-3.423H353.26v-.818h.439a.855.855,0,0,0,.644-.2,1.023,1.023,0,0,0,.182-.682V209.58h.954v1.939h1.371v.818h-1.34v3.317a.863.863,0,0,0,.227.636.757.757,0,0,0,.576.227h.538v.818Z" transform="translate(-327.398 -165.156)"/>
    <path id="Trazado_102404" data-name="Trazado 102404" d="M360.377,209.9a.7.7,0,0,1-.7-.7.659.659,0,0,1,.2-.485.7.7,0,0,1,.977,0,.651.651,0,0,1,.2.485.682.682,0,0,1-.682.7Zm-.523,7.179v-5.816h1.03v5.816Z" transform="translate(-328.956 -164.899)"/>
    <path id="Trazado_102405" data-name="Trazado 102405" d="M367.373,212.14h1.091l-2.363,5.816h-.856l-2.355-5.816h1.09l1.7,4.627Z" transform="translate(-329.735 -165.778)"/>
    <path id="Trazado_102406" data-name="Trazado 102406" d="M373.842,218.063a3.029,3.029,0,0,1-1.515-.363,2.56,2.56,0,0,1-1.053-1.053,3.248,3.248,0,0,1-.386-1.605,2.969,2.969,0,0,1,.825-2.2,3.1,3.1,0,0,1,4.211,0,3.029,3.029,0,0,1,.818,2.2,2.961,2.961,0,0,1-.825,2.2A2.825,2.825,0,0,1,373.842,218.063Zm0-.848a1.788,1.788,0,0,0,1.371-.6,2.219,2.219,0,0,0,.553-1.575,2.189,2.189,0,0,0-.553-1.568,1.765,1.765,0,0,0-1.371-.6,1.734,1.734,0,0,0-1.363.6,2.219,2.219,0,0,0-.545,1.568,2.272,2.272,0,0,0,.545,1.575,1.764,1.764,0,0,0,1.356.576Z" transform="translate(-331.676 -165.748)"/>
    <path id="Trazado_102407" data-name="Trazado 102407" d="M320.4,236.33V228h2.681a3.991,3.991,0,0,1,2.12.538,3.264,3.264,0,0,1,1.3,1.469,5.142,5.142,0,0,1,.424,2.151,5.613,5.613,0,0,1-.242,1.689,3.952,3.952,0,0,1-.719,1.318,3.159,3.159,0,0,1-1.212.863,4.339,4.339,0,0,1-1.674.3Zm1.053-.962h1.6a2.537,2.537,0,0,0,2.075-.856,4.264,4.264,0,0,0,0-4.7,2.544,2.544,0,0,0-2.075-.848h-1.6Z" transform="translate(-319.423 -169.626)"/>
    <path id="Trazado_102408" data-name="Trazado 102408" d="M331.857,229.1a.7.7,0,0,1-.7-.7.659.659,0,0,1,.2-.485.7.7,0,0,1,.492-.2.674.674,0,0,1,.477.2.659.659,0,0,1,.2.485.674.674,0,0,1-.2.492.651.651,0,0,1-.477.2Zm-.522,7.179v-5.816h1.03v5.8Z" transform="translate(-322.034 -169.559)"/>
    <path id="Trazado_102409" data-name="Trazado 102409" d="M338.848,231.335h1.091l-2.363,5.8h-.871l-2.355-5.816h1.09l1.7,4.627Z" transform="translate(-322.809 -170.432)"/>
    <path id="Trazado_102410" data-name="Trazado 102410" d="M347.983,234.077v.28h-4.544a2.037,2.037,0,0,0,.56,1.515,1.8,1.8,0,0,0,1.325.523,1.757,1.757,0,0,0,1.621-1.053l.924.2a2.582,2.582,0,0,1-.992,1.25,2.719,2.719,0,0,1-1.515.454,2.81,2.81,0,0,1-2.09-.81,3.446,3.446,0,0,1,0-4.423,2.772,2.772,0,0,1,2.06-.81,2.605,2.605,0,0,1,1.954.757,2.938,2.938,0,0,1,.7,2.12Zm-2.7-2.12a1.8,1.8,0,0,0-1.212.417,1.916,1.916,0,0,0-.606,1.2h3.484a1.734,1.734,0,0,0-.507-1.2,1.636,1.636,0,0,0-1.159-.394Z" transform="translate(-324.779 -170.402)"/>
    <path id="Trazado_102411" data-name="Trazado 102411" d="M352.869,232.35a1.8,1.8,0,0,1,.757-.757,2.151,2.151,0,0,1,1.113-.3v.962a1.909,1.909,0,0,0-1.348.432,1.8,1.8,0,0,0-.462,1.378v3.067H351.9v-5.816h1Z" transform="translate(-327.068 -170.425)"/>
    <path id="Trazado_102412" data-name="Trazado 102412" d="M359.221,236.515a1.515,1.515,0,0,1-1.136-.417,1.568,1.568,0,0,1-.417-1.159v-3.423H356.48V230.7h.439a.856.856,0,0,0,.644-.2,1.022,1.022,0,0,0,.182-.682V228.76h.954V230.7h1.34v.818H358.7v3.317a.886.886,0,0,0,.22.636.758.758,0,0,0,.583.227h.538v.818Z" transform="translate(-328.179 -169.811)"/>
    <path id="Trazado_102413" data-name="Trazado 102413" d="M363.6,229.1a.7.7,0,0,1-.7-.7.659.659,0,0,1,.2-.485.7.7,0,0,1,.492-.2.674.674,0,0,1,.477.2.659.659,0,0,1,.2.485.674.674,0,0,1-.2.492.651.651,0,0,1-.477.2Zm-.523,7.179v-5.816h1.03v5.8Z" transform="translate(-329.737 -169.559)"/>
    <path id="Trazado_102414" data-name="Trazado 102414" d="M371.4,227h1.022v9.088h-.954v-1.128a2.165,2.165,0,0,1-.833.916,2.272,2.272,0,0,1-1.227.341,2.673,2.673,0,0,1-1.924-.825,2.819,2.819,0,0,1-.583-.962,3.474,3.474,0,0,1-.22-1.242,3.029,3.029,0,0,1,.8-2.189,2.537,2.537,0,0,1,1.931-.841,2.272,2.272,0,0,1,1.212.333,2.128,2.128,0,0,1,.833.886Zm-1.833,8.33a1.719,1.719,0,0,0,1.348-.606,2.393,2.393,0,0,0,0-3.029,1.742,1.742,0,0,0-1.348-.613,1.8,1.8,0,0,0-1.363.591,2.219,2.219,0,0,0-.545,1.552,2.189,2.189,0,0,0,.545,1.515A1.8,1.8,0,0,0,369.564,235.33Z" transform="translate(-330.654 -169.384)"/>
    <path id="Trazado_102415" data-name="Trazado 102415" d="M379.3,237.233a3.029,3.029,0,0,1-1.515-.364,2.56,2.56,0,0,1-1.053-1.053,3.25,3.25,0,0,1-.386-1.605,2.969,2.969,0,0,1,.826-2.2,3.1,3.1,0,0,1,4.211,0,3.029,3.029,0,0,1,.818,2.2,2.961,2.961,0,0,1-.826,2.2A2.825,2.825,0,0,1,379.3,237.233Zm0-.848a1.818,1.818,0,0,0,1.378-.6,2.272,2.272,0,0,0,.545-1.575,2.219,2.219,0,0,0-.545-1.568,1.787,1.787,0,0,0-1.378-.6,1.749,1.749,0,0,0-1.363.6,2.219,2.219,0,0,0-.545,1.568,2.272,2.272,0,0,0,.545,1.575,1.772,1.772,0,0,0,1.356.6Z" transform="translate(-333 -170.401)"/>
  </g>
  <g id="Grupo_57694" data-name="Grupo 57694" transform="translate(242.438 88.287)">
    <path id="Trazado_102416" data-name="Trazado 102416" d="M323.689,117.109a2.582,2.582,0,0,1,1.969.757,2.794,2.794,0,0,1,.757,1.969,2.659,2.659,0,0,1-.757,1.954,2.6,2.6,0,0,1-1.969.757H321.9v3.029H320.13v-8.467Zm-.3,4a1.272,1.272,0,0,0,.977-.333,1.249,1.249,0,0,0,.326-.924,1.272,1.272,0,0,0-.326-.916,1.3,1.3,0,0,0-.977-.341h-1.515v2.514Z" transform="translate(-320.13 -116.707)"/>
    <path id="Trazado_102417" data-name="Trazado 102417" d="M332.482,126.546a3.9,3.9,0,0,1-1.719-.371,2.8,2.8,0,0,1-1.181-1.1,3.225,3.225,0,0,1-.432-1.7,3.029,3.029,0,0,1,.924-2.272,3.855,3.855,0,0,1,4.824,0,3.363,3.363,0,0,1,0,4.627A3.453,3.453,0,0,1,332.482,126.546Zm0-1.356a1.568,1.568,0,0,0,1.2-.5,1.848,1.848,0,0,0,.454-1.31,1.885,1.885,0,0,0-.454-1.318,1.59,1.59,0,0,0-1.2-.492,1.514,1.514,0,0,0-1.166.5,2.113,2.113,0,0,0,0,2.62,1.515,1.515,0,0,0,1.151.5Z" transform="translate(-322.319 -117.473)"/>
    <path id="Trazado_102418" data-name="Trazado 102418" d="M341.613,126.533a3.461,3.461,0,0,1-1.78-.424,1.818,1.818,0,0,1-.863-1.272l1.424-.4a1.144,1.144,0,0,0,1.219.909,1.2,1.2,0,0,0,.621-.144.477.477,0,0,0,.242-.47.523.523,0,0,0-.1-.311.94.94,0,0,0-.31-.227l-.417-.159-.545-.159a5.637,5.637,0,0,1-.56-.174,3.592,3.592,0,0,1-.538-.227,2.028,2.028,0,0,1-.439-.31,1.263,1.263,0,0,1-.333-.477,1.75,1.75,0,0,1-.114-.651,1.56,1.56,0,0,1,.659-1.363,2.984,2.984,0,0,1,1.727-.462,3.029,3.029,0,0,1,1.59.394,1.757,1.757,0,0,1,.818,1.219l-1.325.3a1.022,1.022,0,0,0-1.075-.757,1.166,1.166,0,0,0-.6.136.447.447,0,0,0-.242.409.483.483,0,0,0,0,.182.363.363,0,0,0,.121.144l.174.114a1.123,1.123,0,0,0,.242.1l.265.076.31.083.318.083c.22.061.409.114.576.174a4,4,0,0,1,.523.25,2.015,2.015,0,0,1,.454.356,1.733,1.733,0,0,1,.3.507,1.877,1.877,0,0,1,.114.674,1.81,1.81,0,0,1-.2.878,1.514,1.514,0,0,1-.56.6,2.687,2.687,0,0,1-.757.318A4.12,4.12,0,0,1,341.613,126.533Z" transform="translate(-324.702 -117.46)"/>
    <path id="Trazado_102419" data-name="Trazado 102419" d="M348.212,118.541a.975.975,0,0,1-.7-1.674.969.969,0,0,1,.7-.288.984.984,0,0,1,0,1.961Zm-.871,6.99v-6.059h1.719v6.059Z" transform="translate(-326.705 -116.58)"/>
    <path id="Trazado_102420" data-name="Trazado 102420" d="M354.02,125.823a1.856,1.856,0,0,1-1.378-.492,1.939,1.939,0,0,1-.485-1.409v-2.87h-1.2v-1.31h.386a1,1,0,0,0,.757-.25,1.31,1.31,0,0,0,.242-.909v-.8h1.515v1.961h1.257v1.31h-1.257v2.688c0,.53.235.757.7.757h.553v1.3Z" transform="translate(-327.612 -116.871)"/>
    <path id="Trazado_102421" data-name="Trazado 102421" d="M359.024,118.541a.954.954,0,0,1-.7-.288.924.924,0,0,1-.288-.7.947.947,0,0,1,.288-.689.977.977,0,0,1,.7-.288.962.962,0,0,1,.689.288.977.977,0,0,1,0,1.386A.962.962,0,0,1,359.024,118.541Zm-.871,6.99v-6.058h1.719v6.058Z" transform="translate(-329.33 -116.58)"/>
    <path id="Trazado_102422" data-name="Trazado 102422" d="M366.442,120.37h1.81l-2.6,6.058H364.14l-2.56-6.058h1.833l1.515,4.158Z" transform="translate(-330.19 -117.5)"/>
    <path id="Trazado_102423" data-name="Trazado 102423" d="M373.931,126.545a3.915,3.915,0,0,1-1.727-.371,2.741,2.741,0,0,1-1.174-1.1,3.226,3.226,0,0,1-.432-1.7,2.961,2.961,0,0,1,.924-2.272,3.84,3.84,0,0,1,4.817,0,3.362,3.362,0,0,1,0,4.627,3.438,3.438,0,0,1-2.408.81Zm0-1.356a1.514,1.514,0,0,0,1.2-.5,1.825,1.825,0,0,0,.462-1.31,1.855,1.855,0,0,0-.462-1.318,1.568,1.568,0,0,0-1.2-.485,1.515,1.515,0,0,0-1.166.5,2.113,2.113,0,0,0,0,2.62A1.515,1.515,0,0,0,373.931,125.19Z" transform="translate(-332.378 -117.473)"/>
  </g>
  <g id="Grupo_57695" data-name="Grupo 57695" transform="translate(337.434 114.134)">
    <path id="Trazado_102424" data-name="Trazado 102424" d="M448.735,151.22a2.453,2.453,0,0,1,1.31.348,2.324,2.324,0,0,1,.871.924,2.718,2.718,0,0,1,.311,1.287,2.545,2.545,0,0,1-.689,1.81,2.37,2.37,0,0,1-1.8.757H446.66v3.234H445.6v-8.33Zm-.151,4.173a1.515,1.515,0,0,0,1.159-.447,1.847,1.847,0,0,0,0-2.355,1.515,1.515,0,0,0-1.159-.454H446.66v3.256Z" transform="translate(-445.577 -150.834)"/>
    <path id="Trazado_102425" data-name="Trazado 102425" d="M456.13,155.55a1.772,1.772,0,0,1,.719-.757,2.181,2.181,0,0,1,1.121-.3v.962a1.931,1.931,0,0,0-1.356.432,1.8,1.8,0,0,0-.462,1.378v3.1H455.13v-5.816h1Z" transform="translate(-447.89 -151.627)"/>
    <path id="Trazado_102426" data-name="Trazado 102426" d="M460.929,152.3a.659.659,0,0,1-.485-.2.674.674,0,0,1-.2-.492.659.659,0,0,1,.2-.485.7.7,0,0,1,.969,0,.659.659,0,0,1,.2.485.674.674,0,0,1-.2.492A.659.659,0,0,1,460.929,152.3Zm-.522,7.179v-5.816h1.03v5.816Z" transform="translate(-449.13 -150.761)"/>
    <path id="Trazado_102427" data-name="Trazado 102427" d="M467.918,154.54h1.1l-2.37,5.816h-.871l-2.355-5.816h1.091l1.7,4.627Z" transform="translate(-449.902 -151.64)"/>
    <path id="Trazado_102428" data-name="Trazado 102428" d="M473.309,160.437a1.992,1.992,0,0,1-1.28-.4,1.424,1.424,0,0,1-.5-1.189,1.667,1.667,0,0,1,.159-.757,1.287,1.287,0,0,1,.477-.53,2.847,2.847,0,0,1,.682-.333,7.673,7.673,0,0,1,.886-.212l.939-.151c.341-.061.515-.242.515-.538a1.007,1.007,0,0,0-.364-.863,1.439,1.439,0,0,0-.916-.28,1.56,1.56,0,0,0-.916.265,1.143,1.143,0,0,0-.432.818l-.924-.2a1.818,1.818,0,0,1,.757-1.242,2.726,2.726,0,0,1,1.59-.417,3.235,3.235,0,0,1,.841.106,2.135,2.135,0,0,1,.7.326,1.432,1.432,0,0,1,.507.621,2.476,2.476,0,0,1,.174.962v2.4a.977.977,0,0,0,.136.606.576.576,0,0,0,.462.159h.091v.757h-.507a.962.962,0,0,1-1.1-.757h-.053A2.219,2.219,0,0,1,473.309,160.437Zm.235-.825a1.552,1.552,0,0,0,1.25-.568,2.333,2.333,0,0,0,.47-1.515l-1.515.3a2.067,2.067,0,0,0-.9.326.847.847,0,0,0-.015,1.272A1.174,1.174,0,0,0,473.543,159.612Z" transform="translate(-451.869 -151.607)"/>
    <path id="Trazado_102429" data-name="Trazado 102429" d="M482.589,160.425a2.779,2.779,0,0,1-2.083-.833,3.3,3.3,0,0,1,0-4.362,3.029,3.029,0,0,1,3.787-.326,2.522,2.522,0,0,1,.977,1.409l-.954.159a1.742,1.742,0,0,0-1.712-1.227,1.719,1.719,0,0,0-1.348.6,2.575,2.575,0,0,0,0,3.128,1.719,1.719,0,0,0,1.348.6,1.742,1.742,0,0,0,1.712-1.227l.954.159a2.514,2.514,0,0,1-.985,1.416,2.809,2.809,0,0,1-1.7.507Z" transform="translate(-453.849 -151.603)"/>
    <path id="Trazado_102430" data-name="Trazado 102430" d="M489.489,152.3a.659.659,0,0,1-.485-.2.674.674,0,0,1-.2-.492.659.659,0,0,1,.2-.485.7.7,0,0,1,.969,0,.659.659,0,0,1,.2.485.674.674,0,0,1-.2.492A.659.659,0,0,1,489.489,152.3Zm-.515,7.179v-5.816H490v5.816Z" transform="translate(-456.061 -150.761)"/>
    <path id="Trazado_102431" data-name="Trazado 102431" d="M495.428,159.54a3.029,3.029,0,0,1-1.515-.364,2.605,2.605,0,0,1-1.038-1.053,3.248,3.248,0,0,1-.386-1.605,3.029,3.029,0,0,1,.825-2.2,3.1,3.1,0,0,1,4.211,0,3.332,3.332,0,0,1,0,4.392A2.855,2.855,0,0,1,495.428,159.54Zm0-.848a1.8,1.8,0,0,0,1.378-.6,2.272,2.272,0,0,0,.545-1.575,2.219,2.219,0,0,0-.545-1.568,1.78,1.78,0,0,0-1.378-.6,1.757,1.757,0,0,0-1.363.6,2.219,2.219,0,0,0-.538,1.568,2.272,2.272,0,0,0,.538,1.575,1.787,1.787,0,0,0,1.356.6Zm-.386-6.058,1.515-1.924.545.394-1.325,1.515Z" transform="translate(-456.956 -150.71)"/>
    <path id="Trazado_102432" data-name="Trazado 102432" d="M505.119,154.389a2.022,2.022,0,0,1,1.462.53,1.97,1.97,0,0,1,.545,1.515v3.915H506.1v-3.688a1.355,1.355,0,0,0-.356-1.038,1.25,1.25,0,0,0-.909-.341,1.423,1.423,0,0,0-1.037.4,1.62,1.62,0,0,0-.4,1.189v3.476h-1.03v-5.816h1.03v.757A1.931,1.931,0,0,1,505.119,154.389Z" transform="translate(-459.355 -151.602)"/>
    <path id="Trazado_102433" data-name="Trazado 102433" d="M450.084,171.389h-3.431v2.719h3.029v.962h-3.029v3.681H445.57v-8.33h4.506Z" transform="translate(-445.57 -155.493)"/>
    <path id="Trazado_102434" data-name="Trazado 102434" d="M454.539,174.75a1.8,1.8,0,0,1,.757-.757,2.151,2.151,0,0,1,1.113-.3v.962a1.909,1.909,0,0,0-1.348.432,1.8,1.8,0,0,0-.469,1.378v3.1H453.57v-5.816h1Z" transform="translate(-447.512 -156.287)"/>
    <path id="Trazado_102435" data-name="Trazado 102435" d="M462.462,173.735h1.022v5.816h-.977v-.757a1.809,1.809,0,0,1-.719.651,2.2,2.2,0,0,1-1.015.227,2.037,2.037,0,0,1-1.469-.523,1.984,1.984,0,0,1-.545-1.515V173.72h1.022v3.688a1.363,1.363,0,0,0,.363,1.038,1.227,1.227,0,0,0,.909.348,1.424,1.424,0,0,0,1.038-.4,1.636,1.636,0,0,0,.4-1.189Z" transform="translate(-448.769 -156.294)"/>
    <path id="Trazado_102436" data-name="Trazado 102436" d="M469.435,179.638a2.749,2.749,0,0,1-1.568-.417,1.749,1.749,0,0,1-.757-1.2l.894-.258a1.288,1.288,0,0,0,.477.81,1.568,1.568,0,0,0,.954.288,2.134,2.134,0,0,0,.56-.076.97.97,0,0,0,.432-.288.826.826,0,0,0,.174-.53.811.811,0,0,0-.053-.242.885.885,0,0,0-.091-.189.485.485,0,0,0-.167-.159,1.731,1.731,0,0,0-.2-.129,1.574,1.574,0,0,0-.257-.106l-.288-.1-.326-.091-.333-.1c-.242-.076-.447-.144-.606-.212a2.775,2.775,0,0,1-.492-.28,1.129,1.129,0,0,1-.379-.462,1.562,1.562,0,0,1-.129-.651,1.515,1.515,0,0,1,.288-.924,1.575,1.575,0,0,1,.757-.553,2.908,2.908,0,0,1,1.03-.167,2.528,2.528,0,0,1,1.416.379,1.62,1.62,0,0,1,.712,1.136l-.841.212a1.09,1.09,0,0,0-.447-.757,1.378,1.378,0,0,0-.833-.25,1.446,1.446,0,0,0-.757.2.689.689,0,0,0-.326.629.643.643,0,0,0,.083.318,1.25,1.25,0,0,0,.174.227.954.954,0,0,0,.326.174,2.731,2.731,0,0,0,.341.129l.424.106h.091l.56.159a4.066,4.066,0,0,1,.5.212,1.842,1.842,0,0,1,.454.318,1.59,1.59,0,0,1,.4,1.075,1.75,1.75,0,0,1-.174.757,1.363,1.363,0,0,1-.477.538,2.273,2.273,0,0,1-.674.288,3.143,3.143,0,0,1-.871.174Z" transform="translate(-450.798 -156.267)"/>
    <path id="Trazado_102437" data-name="Trazado 102437" d="M476.719,178.935a1.515,1.515,0,0,1-1.136-.417,1.568,1.568,0,0,1-.417-1.159v-3.423H474v-.818h.439a.856.856,0,0,0,.644-.2,1.022,1.022,0,0,0,.182-.682V171.18h.954v1.939h1.34v.818H476.2v3.317a.886.886,0,0,0,.22.636.758.758,0,0,0,.583.227h.538v.818Z" transform="translate(-452.47 -155.678)"/>
    <path id="Trazado_102438" data-name="Trazado 102438" d="M481.62,174.75a1.772,1.772,0,0,1,.719-.757,2.2,2.2,0,0,1,1.121-.3v.962a1.931,1.931,0,0,0-1.356.432,1.8,1.8,0,0,0-.462,1.378v3.1H480.62v-5.816h1Z" transform="translate(-454.076 -156.287)"/>
    <path id="Trazado_102439" data-name="Trazado 102439" d="M487.073,179.627a1.984,1.984,0,0,1-1.234-.432,1.423,1.423,0,0,1-.5-1.189,1.665,1.665,0,0,1,.159-.757,1.287,1.287,0,0,1,.477-.53,2.591,2.591,0,0,1,.682-.333,5.973,5.973,0,0,1,.886-.2l.939-.159c.341-.061.515-.242.515-.538a1.007,1.007,0,0,0-.364-.863,1.461,1.461,0,0,0-.924-.28,1.515,1.515,0,0,0-.909.265,1.144,1.144,0,0,0-.432.818l-.924-.189a1.817,1.817,0,0,1,.757-1.25,2.726,2.726,0,0,1,1.59-.416,3.272,3.272,0,0,1,.841.106,2.137,2.137,0,0,1,.7.326,1.469,1.469,0,0,1,.5.621,2.339,2.339,0,0,1,.182.962v2.4a.977.977,0,0,0,.136.606.56.56,0,0,0,.454.159h.1v.757H490.2c-.629,0-1-.257-1.106-.757h-.045A2.2,2.2,0,0,1,487.073,179.627Zm.242-.825a1.552,1.552,0,0,0,1.25-.568,2.332,2.332,0,0,0,.47-1.515l-1.515.3a2.028,2.028,0,0,0-.9.326.847.847,0,0,0-.015,1.272,1.174,1.174,0,0,0,.75.189Z" transform="translate(-455.221 -156.257)"/>
    <path id="Trazado_102440" data-name="Trazado 102440" d="M496.349,179.625a2.78,2.78,0,0,1-2.083-.833,3.3,3.3,0,0,1,0-4.362,2.787,2.787,0,0,1,2.09-.841,2.817,2.817,0,0,1,1.681.515,2.521,2.521,0,0,1,.977,1.409l-.954.159a1.779,1.779,0,0,0-.659-.909,1.8,1.8,0,0,0-1.053-.318,1.719,1.719,0,0,0-1.348.6,2.575,2.575,0,0,0,0,3.128,1.719,1.719,0,0,0,1.348.6,1.8,1.8,0,0,0,1.053-.318,1.779,1.779,0,0,0,.659-.909l.954.159a2.552,2.552,0,0,1-.984,1.416A2.809,2.809,0,0,1,496.349,179.625Z" transform="translate(-457.188 -156.262)"/>
    <path id="Trazado_102441" data-name="Trazado 102441" d="M503.249,171.5a.659.659,0,0,1-.485-.2.674.674,0,0,1-.2-.492.658.658,0,0,1,.2-.485.7.7,0,0,1,.969,0,.659.659,0,0,1,.2.485.674.674,0,0,1-.2.492A.659.659,0,0,1,503.249,171.5Zm-.523,7.179v-5.816h1.03v5.816Z" transform="translate(-459.401 -155.421)"/>
    <path id="Trazado_102442" data-name="Trazado 102442" d="M509.182,178.74a3.03,3.03,0,0,1-1.515-.364,2.6,2.6,0,0,1-1.053-1.053,3.249,3.249,0,0,1-.386-1.605,2.969,2.969,0,0,1,.826-2.2,3.1,3.1,0,0,1,4.211,0,3.029,3.029,0,0,1,.818,2.2,2.961,2.961,0,0,1-.825,2.2,2.825,2.825,0,0,1-2.075.825Zm0-.848a1.817,1.817,0,0,0,1.378-.6,2.272,2.272,0,0,0,.545-1.575,2.219,2.219,0,0,0-.545-1.568,1.787,1.787,0,0,0-1.378-.6,1.757,1.757,0,0,0-1.363.6,2.219,2.219,0,0,0-.545,1.568,2.272,2.272,0,0,0,.545,1.575,1.787,1.787,0,0,0,1.356.6Zm-.386-6.058,1.515-1.924.545.394-1.325,1.515Z" transform="translate(-460.291 -155.37)"/>
    <path id="Trazado_102443" data-name="Trazado 102443" d="M518.849,173.589a2.037,2.037,0,0,1,1.462.53,1.969,1.969,0,0,1,.545,1.515v3.915H519.8v-3.681a1.393,1.393,0,0,0-.356-1.045,1.25,1.25,0,0,0-.909-.341,1.424,1.424,0,0,0-1.037.4,1.658,1.658,0,0,0-.409,1.189v3.476H516.07v-5.816h1.022v.757A1.938,1.938,0,0,1,518.849,173.589Z" transform="translate(-462.68 -156.262)"/>
    <path id="Trazado_102444" data-name="Trazado 102444" d="M450.084,190.589h-3.431v2.719h3.029v.954h-3.029v3.688H445.57v-8.33h4.506Z" transform="translate(-445.57 -160.153)"/>
    <path id="Trazado_102445" data-name="Trazado 102445" d="M454.539,193.95a1.8,1.8,0,0,1,.757-.757,2.151,2.151,0,0,1,1.113-.3v.962a1.909,1.909,0,0,0-1.348.432,1.8,1.8,0,0,0-.469,1.378v3.1H453.57v-5.816h1Z" transform="translate(-447.512 -160.947)"/>
    <path id="Trazado_102446" data-name="Trazado 102446" d="M459.337,190.7a.7.7,0,0,1-.7-.7.658.658,0,0,1,.2-.485.7.7,0,0,1,.492-.2.674.674,0,0,1,.477.2.659.659,0,0,1,.2.485.674.674,0,0,1-.2.492.651.651,0,0,1-.477.2Zm-.523,7.179v-5.816h1.03v5.816Z" transform="translate(-448.742 -160.08)"/>
    <path id="Trazado_102447" data-name="Trazado 102447" d="M466.328,192.94h1.09l-2.363,5.816h-.871l-2.355-5.816h1.091l1.7,4.627Z" transform="translate(-449.516 -160.959)"/>
    <path id="Trazado_102448" data-name="Trazado 102448" d="M472.792,198.833a3.029,3.029,0,0,1-1.515-.364,2.561,2.561,0,0,1-1.053-1.053,3.25,3.25,0,0,1-.386-1.606,2.969,2.969,0,0,1,.826-2.2,2.855,2.855,0,0,1,2.1-.825,2.885,2.885,0,0,1,2.113.825,3.029,3.029,0,0,1,.818,2.2,2.961,2.961,0,0,1-.826,2.2A2.832,2.832,0,0,1,472.792,198.833Zm0-.848a1.787,1.787,0,0,0,1.371-.6,2.271,2.271,0,0,0,.553-1.575,2.227,2.227,0,0,0-.553-1.568,1.764,1.764,0,0,0-1.371-.6,1.734,1.734,0,0,0-1.363.6,2.219,2.219,0,0,0-.545,1.568,2.272,2.272,0,0,0,.545,1.575,1.765,1.765,0,0,0,1.363.6Z" transform="translate(-451.459 -160.922)"/>
    <path id="Trazado_102449" data-name="Trazado 102449" d="M479.73,197.708V188.62h1.037v9.088Z" transform="translate(-453.86 -159.91)"/>
    <path id="Trazado_102450" data-name="Trazado 102450" d="M484.309,190.7a.659.659,0,0,1-.485-.2.674.674,0,0,1-.2-.492.658.658,0,0,1,.2-.485.7.7,0,0,1,.969,0,.659.659,0,0,1,.2.485.674.674,0,0,1-.2.492A.659.659,0,0,1,484.309,190.7Zm-.515,7.179v-5.816h1.03v5.816Z" transform="translate(-454.804 -160.081)"/>
    <path id="Trazado_102451" data-name="Trazado 102451" d="M492.112,188.62h1.037v9.088h-.992v-1.128a2.144,2.144,0,0,1-.826.916,2.31,2.31,0,0,1-1.234.341,2.62,2.62,0,0,1-1.053-.22,2.552,2.552,0,0,1-.863-.606,2.7,2.7,0,0,1-.583-.962,3.326,3.326,0,0,1-.22-1.242,3.083,3.083,0,0,1,.757-2.189,2.56,2.56,0,0,1,1.931-.841,2.318,2.318,0,0,1,1.219.333,2.181,2.181,0,0,1,.833.886Zm-1.833,8.33a1.757,1.757,0,0,0,1.348-.606,2.416,2.416,0,0,0,0-3.029,1.75,1.75,0,0,0-1.348-.613,1.78,1.78,0,0,0-1.363.591,2.446,2.446,0,0,0,0,3.1,1.78,1.78,0,0,0,1.363.553Z" transform="translate(-455.716 -159.91)"/>
    <path id="Trazado_102452" data-name="Trazado 102452" d="M498.931,198.837a1.984,1.984,0,0,1-1.272-.4,1.424,1.424,0,0,1-.5-1.189,1.726,1.726,0,0,1,.159-.757,1.348,1.348,0,0,1,.477-.507,2.765,2.765,0,0,1,.689-.333,7.165,7.165,0,0,1,.878-.212l.947-.151c.341-.061.515-.242.515-.538a1.007,1.007,0,0,0-.363-.863,1.462,1.462,0,0,0-.924-.28,1.514,1.514,0,0,0-.909.265,1.12,1.12,0,0,0-.432.818l-.931-.22a1.765,1.765,0,0,1,.757-1.242,2.7,2.7,0,0,1,1.583-.417,3.291,3.291,0,0,1,.848.106,2.272,2.272,0,0,1,.7.326,1.469,1.469,0,0,1,.5.621,2.338,2.338,0,0,1,.182.962v2.4a1.037,1.037,0,0,0,.129.606.576.576,0,0,0,.462.159h.1v.757h-.515a.969.969,0,0,1-1.1-.757h-.091A2.272,2.272,0,0,1,498.931,198.837Zm.235-.825a1.514,1.514,0,0,0,1.25-.568,2.271,2.271,0,0,0,.477-1.515l-1.515.3a1.992,1.992,0,0,0-.9.326.847.847,0,0,0-.015,1.272A1.166,1.166,0,0,0,499.166,198.012Z" transform="translate(-458.089 -160.926)"/>
    <path id="Trazado_102453" data-name="Trazado 102453" d="M510.112,188.62h1.038v9.088h-.992v-1.128a2.143,2.143,0,0,1-.825.916,2.31,2.31,0,0,1-1.234.341,2.62,2.62,0,0,1-1.053-.22,2.551,2.551,0,0,1-.863-.606,2.7,2.7,0,0,1-.583-.962,3.325,3.325,0,0,1-.22-1.242,3.082,3.082,0,0,1,.757-2.189,2.56,2.56,0,0,1,1.931-.841,2.317,2.317,0,0,1,1.219.333,2.181,2.181,0,0,1,.833.886Zm-1.833,8.33a1.757,1.757,0,0,0,1.348-.606,2.416,2.416,0,0,0,0-3.029,1.75,1.75,0,0,0-1.348-.613,1.78,1.78,0,0,0-1.363.591,2.446,2.446,0,0,0,0,3.1,1.78,1.78,0,0,0,1.363.553Z" transform="translate(-460.084 -159.91)"/>
    <path id="Trazado_102454" data-name="Trazado 102454" d="M445.58,217.15v-8.33h1.075v8.33Z" transform="translate(-445.572 -164.813)"/>
    <path id="Trazado_102455" data-name="Trazado 102455" d="M452.827,212a2.037,2.037,0,0,1,1.462.53,1.969,1.969,0,0,1,.545,1.515v3.915H453.8v-3.688a1.386,1.386,0,0,0-.356-1.038,1.25,1.25,0,0,0-.909-.341,1.424,1.424,0,0,0-1.038.4,1.659,1.659,0,0,0-.409,1.189v3.476H450.07v-5.816h1.022v.757a1.939,1.939,0,0,1,1.734-.9Z" transform="translate(-446.662 -165.584)"/>
    <path id="Trazado_102456" data-name="Trazado 102456" d="M464.922,212a1.863,1.863,0,0,1,1.356.5,1.825,1.825,0,0,1,.515,1.386v4.044H465.77v-3.787a1.325,1.325,0,0,0-.318-.962,1.106,1.106,0,0,0-.81-.326,1.144,1.144,0,0,0-.886.371,1.56,1.56,0,0,0-.341,1.1v3.6h-1.038V214.18a1.379,1.379,0,0,0-.326-.985,1.083,1.083,0,0,0-.826-.341,1.143,1.143,0,0,0-.886.379,1.636,1.636,0,0,0-.341,1.128v3.559h-1v-5.816h1.022v.757a1.848,1.848,0,0,1,.666-.636,1.878,1.878,0,0,1,.924-.227,1.962,1.962,0,0,1,1,.25,1.514,1.514,0,0,1,.644.7,1.78,1.78,0,0,1,.7-.7,1.97,1.97,0,0,1,.969-.25Z" transform="translate(-448.829 -165.584)"/>
    <path id="Trazado_102457" data-name="Trazado 102457" d="M473.111,218.067a1.984,1.984,0,0,1-1.272-.4,1.424,1.424,0,0,1-.5-1.189,1.665,1.665,0,0,1,.159-.757,1.316,1.316,0,0,1,.469-.53,2.766,2.766,0,0,1,.689-.333,7.167,7.167,0,0,1,.879-.212l.947-.151c.341-.061.515-.242.515-.538a1.007,1.007,0,0,0-.364-.863,1.462,1.462,0,0,0-.924-.28,1.514,1.514,0,0,0-.909.265,1.1,1.1,0,0,0-.432.818l-.924-.2a1.765,1.765,0,0,1,.757-1.242,2.7,2.7,0,0,1,1.583-.417,3.293,3.293,0,0,1,.848.106,2.273,2.273,0,0,1,.7.326,1.469,1.469,0,0,1,.5.621,2.34,2.34,0,0,1,.182.962v2.4a1.037,1.037,0,0,0,.129.606.575.575,0,0,0,.462.159h.091v.757h-.507a.962.962,0,0,1-1.1-.757h-.045A2.211,2.211,0,0,1,473.111,218.067Zm.235-.825a1.515,1.515,0,0,0,1.25-.568,2.272,2.272,0,0,0,.477-1.515l-1.515.3a1.992,1.992,0,0,0-.9.326.847.847,0,0,0-.015,1.272,1.166,1.166,0,0,0,.712.167Z" transform="translate(-451.823 -165.593)"/>
    <path id="Trazado_102458" data-name="Trazado 102458" d="M484.287,207.82h1.022v9.088h-.992v-1.128a2.144,2.144,0,0,1-.826.916,2.309,2.309,0,0,1-1.234.341,2.62,2.62,0,0,1-1.053-.22,2.553,2.553,0,0,1-.863-.606,2.7,2.7,0,0,1-.583-.962,3.324,3.324,0,0,1-.22-1.242,3.082,3.082,0,0,1,.757-2.189,2.559,2.559,0,0,1,1.939-.833,2.317,2.317,0,0,1,1.219.333,2.182,2.182,0,0,1,.833.886Zm-1.84,8.33a1.765,1.765,0,0,0,1.356-.606,2.416,2.416,0,0,0,0-3.029,1.827,1.827,0,0,0-2.711-.023,2.188,2.188,0,0,0-.553,1.552,2.158,2.158,0,0,0,.553,1.515,1.772,1.772,0,0,0,1.356.583Z" transform="translate(-453.813 -164.57)"/>
    <path id="Trazado_102459" data-name="Trazado 102459" d="M493.489,212.135h.992v5.816H493.5v-.757a1.809,1.809,0,0,1-.719.651,2.219,2.219,0,0,1-1.015.227,2.037,2.037,0,0,1-1.469-.523,1.984,1.984,0,0,1-.545-1.515V212.12h1.022v3.7a1.386,1.386,0,0,0,.356,1.038,1.257,1.257,0,0,0,.916.348,1.393,1.393,0,0,0,1.03-.4,1.635,1.635,0,0,0,.409-1.189Z" transform="translate(-456.29 -165.614)"/>
    <path id="Trazado_102460" data-name="Trazado 102460" d="M499.79,213.15a1.772,1.772,0,0,1,.719-.757,2.2,2.2,0,0,1,1.121-.3v.962a1.908,1.908,0,0,0-1.348.432,1.8,1.8,0,0,0-.47,1.378v3.1H498.79v-5.816h1Z" transform="translate(-458.486 -165.606)"/>
    <path id="Trazado_102461" data-name="Trazado 102461" d="M508.984,214.9v.28H504.44a2.037,2.037,0,0,0,.553,1.515,1.817,1.817,0,0,0,1.325.523,1.764,1.764,0,0,0,.962-.28,1.8,1.8,0,0,0,.667-.757l.924.2a2.673,2.673,0,0,1-.992,1.25,2.719,2.719,0,0,1-1.515.454,2.825,2.825,0,0,1-2.1-.81,3.476,3.476,0,0,1,0-4.423A2.8,2.8,0,0,1,506.3,212a2.62,2.62,0,0,1,1.954.757A2.938,2.938,0,0,1,508.984,214.9Zm-2.689-2.143a1.787,1.787,0,0,0-1.212.417,1.886,1.886,0,0,0-.613,1.2h3.484a1.7,1.7,0,0,0-.507-1.2A1.605,1.605,0,0,0,506.3,212.757Z" transform="translate(-459.622 -165.584)"/>
    <path id="Trazado_102462" data-name="Trazado 102462" d="M513.215,217.131h3.1v.825H511.67l3.067-4.983h-2.885v-.833H516.3Z" transform="translate(-461.612 -165.619)"/>
    <path id="Trazado_102463" data-name="Trazado 102463" d="M445.58,236.33V228h1.075v8.33Z" transform="translate(-445.572 -169.468)"/>
    <path id="Trazado_102464" data-name="Trazado 102464" d="M454.013,231.306h1v5.521a3.158,3.158,0,0,1-.757,2.272,3.12,3.12,0,0,1-4.9-.984l.841-.417a1.931,1.931,0,0,0,1.946,1.348,1.688,1.688,0,0,0,1.371-.568,2.446,2.446,0,0,0,.47-1.59v-1.075a2.067,2.067,0,0,1-.833.841,2.552,2.552,0,0,1-3.09-.507,3.12,3.12,0,0,1,0-4.127,2.522,2.522,0,0,1,1.893-.818,2.408,2.408,0,0,1,1.219.326,2.128,2.128,0,0,1,.818.863Zm-1.84,4.779a1.78,1.78,0,0,0,1.34-.591,2.06,2.06,0,0,0,.553-1.424,2.037,2.037,0,0,0-.553-1.424,1.825,1.825,0,0,0-2.681,0,2.022,2.022,0,0,0-.553,1.446,2.044,2.044,0,0,0,.553,1.439A1.787,1.787,0,0,0,452.173,236.085Z" transform="translate(-446.47 -170.244)"/>
    <path id="Trazado_102465" data-name="Trazado 102465" d="M462.341,231.189a2.022,2.022,0,0,1,1.462.53,1.938,1.938,0,0,1,.553,1.515v3.87h-1.022v-3.688a1.386,1.386,0,0,0-.356-1.038,1.28,1.28,0,0,0-.916-.341,1.4,1.4,0,0,0-1.03.4,1.6,1.6,0,0,0-.409,1.189V237.1H459.6v-5.816h1.06v.757A1.939,1.939,0,0,1,462.341,231.189Z" transform="translate(-448.975 -170.241)"/>
    <path id="Trazado_102466" data-name="Trazado 102466" d="M470.773,237.233a3.029,3.029,0,0,1-1.515-.364,2.59,2.59,0,0,1-1.045-1.053,3.173,3.173,0,0,1-.394-1.605,3.029,3.029,0,0,1,.825-2.2,3.1,3.1,0,0,1,4.211,0,2.961,2.961,0,0,1,.825,2.2,3.029,3.029,0,0,1-.825,2.2,2.84,2.84,0,0,1-2.083.825Zm0-.848a1.8,1.8,0,0,0,1.378-.6,2.272,2.272,0,0,0,.545-1.575,2.22,2.22,0,0,0-.545-1.568,1.78,1.78,0,0,0-1.378-.6,1.757,1.757,0,0,0-1.363.6,2.565,2.565,0,0,0,0,3.143,1.787,1.787,0,0,0,1.355.6Z" transform="translate(-450.969 -170.242)"/>
    <path id="Trazado_102467" data-name="Trazado 102467" d="M478.692,232.35a1.772,1.772,0,0,1,.757-.757,2.158,2.158,0,0,1,1.121-.3v.962a1.916,1.916,0,0,0-1.356.432,1.8,1.8,0,0,0-.462,1.378v3.067H477.73v-5.816h.962Z" transform="translate(-453.375 -170.266)"/>
    <path id="Trazado_102468" data-name="Trazado 102468" d="M484.151,237.239a1.984,1.984,0,0,1-1.272-.4,1.424,1.424,0,0,1-.5-1.189,1.725,1.725,0,0,1,.159-.757,1.348,1.348,0,0,1,.469-.523,2.764,2.764,0,0,1,.689-.333,7.163,7.163,0,0,1,.878-.212l.947-.151c.341-.061.515-.242.515-.538a.992.992,0,0,0-.371-.863,1.439,1.439,0,0,0-.916-.28,1.515,1.515,0,0,0-.909.265,1.1,1.1,0,0,0-.432.818l-.924-.2a1.765,1.765,0,0,1,.757-1.242,2.681,2.681,0,0,1,1.583-.417,3.293,3.293,0,0,1,.848.106,2.271,2.271,0,0,1,.7.326,1.468,1.468,0,0,1,.5.621,2.338,2.338,0,0,1,.182.962V235.6a1.037,1.037,0,0,0,.129.606.575.575,0,0,0,.462.159h.091v.757h-.507a.962.962,0,0,1-1.1-.757h-.045A2.272,2.272,0,0,1,484.151,237.239Zm.235-.825a1.514,1.514,0,0,0,1.25-.568,2.272,2.272,0,0,0,.477-1.515l-1.515.3a2.069,2.069,0,0,0-.909.326.854.854,0,0,0-.008,1.272,1.166,1.166,0,0,0,.682.189Z" transform="translate(-454.502 -170.248)"/>
    <path id="Trazado_102469" data-name="Trazado 102469" d="M494.119,231.189a2.037,2.037,0,0,1,1.462.53,1.969,1.969,0,0,1,.545,1.515v3.87H495.1v-3.688a1.386,1.386,0,0,0-.356-1.038,1.25,1.25,0,0,0-.909-.341,1.424,1.424,0,0,0-1.038.4,1.659,1.659,0,0,0-.409,1.189V237.1H491.37v-5.816h1.022v.757A1.939,1.939,0,0,1,494.119,231.189Z" transform="translate(-456.685 -170.241)"/>
    <path id="Trazado_102470" data-name="Trazado 102470" d="M502.479,237.225a2.779,2.779,0,0,1-2.083-.833,3.3,3.3,0,0,1,0-4.362,3.029,3.029,0,0,1,3.786-.326,2.522,2.522,0,0,1,.977,1.409l-.954.159a1.742,1.742,0,0,0-1.711-1.227,1.719,1.719,0,0,0-1.348.6,2.575,2.575,0,0,0,0,3.128,1.719,1.719,0,0,0,1.348.6,1.742,1.742,0,0,0,1.712-1.227l.954.159a2.514,2.514,0,0,1-.984,1.416A2.809,2.809,0,0,1,502.479,237.225Z" transform="translate(-458.676 -170.241)"/>
    <path id="Trazado_102471" data-name="Trazado 102471" d="M509.379,229.1a.659.659,0,0,1-.485-.2.674.674,0,0,1-.2-.492.659.659,0,0,1,.235-.47.7.7,0,0,1,.969,0,.659.659,0,0,1,.2.485.674.674,0,0,1-.2.492A.659.659,0,0,1,509.379,229.1Zm-.515,7.179v-5.816h1.03v5.8Z" transform="translate(-460.889 -169.405)"/>
    <path id="Trazado_102472" data-name="Trazado 102472" d="M514.231,237.239a1.984,1.984,0,0,1-1.272-.4,1.4,1.4,0,0,1-.5-1.189,1.726,1.726,0,0,1,.159-.757,1.293,1.293,0,0,1,.47-.523,2.846,2.846,0,0,1,.682-.333,7.683,7.683,0,0,1,.886-.212l.939-.151c.348-.061.515-.242.515-.538a1.008,1.008,0,0,0-.364-.863,1.439,1.439,0,0,0-.916-.28,1.559,1.559,0,0,0-.916.265,1.144,1.144,0,0,0-.432.818l-.916-.2a1.765,1.765,0,0,1,.757-1.242,2.681,2.681,0,0,1,1.583-.417,3.187,3.187,0,0,1,.841.106,2.137,2.137,0,0,1,.7.326,1.431,1.431,0,0,1,.507.621,2.339,2.339,0,0,1,.182.962V235.6a.984.984,0,0,0,.129.606.575.575,0,0,0,.462.159h.091v.757h-.507a.962.962,0,0,1-1.1-.757h-.053A2.219,2.219,0,0,1,514.231,237.239Zm.235-.825a1.552,1.552,0,0,0,1.25-.568,2.272,2.272,0,0,0,.47-1.515l-1.515.3a2.067,2.067,0,0,0-.9.326.854.854,0,0,0-.008,1.272A1.151,1.151,0,0,0,514.465,236.414Z" transform="translate(-461.802 -170.248)"/>
  </g>
  <g id="Grupo_57696" data-name="Grupo 57696" transform="translate(337.215 88.287)">
    <path id="Trazado_102473" data-name="Trazado 102473" d="M451.126,117.11h1.765v8.55h-2.052l-3.787-6.111v6.111H445.28v-8.55h2.06l3.787,6.058Z" transform="translate(-445.28 -116.709)"/>
    <path id="Trazado_102474" data-name="Trazado 102474" d="M463.493,123.278v.409H458.95a1.56,1.56,0,0,0,.485,1.113,1.651,1.651,0,0,0,1.871.174,1.325,1.325,0,0,0,.515-.613l1.56.227a2.7,2.7,0,0,1-1.068,1.431,3.2,3.2,0,0,1-1.795.507,3.286,3.286,0,0,1-2.37-.841,3.029,3.029,0,0,1-.879-2.317,3.1,3.1,0,0,1,.879-2.325,3.2,3.2,0,0,1,2.317-.848,2.779,2.779,0,0,1,3.029,3.082Zm-3.029-1.878a1.348,1.348,0,0,0-1.477,1.174h2.795a1.28,1.28,0,0,0-.424-.871,1.341,1.341,0,0,0-.863-.3Z" transform="translate(-448.188 -117.455)"/>
    <path id="Trazado_102475" data-name="Trazado 102475" d="M471.221,120.324h1.621v5.627a4.544,4.544,0,0,1-.227,1.515,2.446,2.446,0,0,1-.659,1.037,2.765,2.765,0,0,1-1.015.583,4.179,4.179,0,0,1-1.325.189,3,3,0,0,1-3.135-1.886l1.416-.606a2.052,2.052,0,0,0,.651.886,1.674,1.674,0,0,0,1,.28c1.053,0,1.583-.621,1.583-1.878v-.727a1.916,1.916,0,0,1-.757.6,2.567,2.567,0,0,1-1.083.227,2.711,2.711,0,0,1-1.068-.212,2.84,2.84,0,0,1-.886-.606,2.884,2.884,0,0,1-.6-.954,3.582,3.582,0,0,1,0-2.469,2.718,2.718,0,0,1,.606-.939,2.528,2.528,0,0,1,.886-.591,2.7,2.7,0,0,1,1.075-.22,2.5,2.5,0,0,1,1.128.257,1.749,1.749,0,0,1,.757.666Zm-2.613,4.021a1.469,1.469,0,0,0,1.113.47,1.514,1.514,0,0,0,1.121-.47,1.7,1.7,0,0,0,0-2.317,1.583,1.583,0,0,0-2.272,0,1.621,1.621,0,0,0-.447,1.166,1.59,1.59,0,0,0,.485,1.151Z" transform="translate(-450.425 -117.454)"/>
    <path id="Trazado_102476" data-name="Trazado 102476" d="M482.06,124.77a5.685,5.685,0,0,0,.144,1.515v.167h-1.59l-.136-.659a1.962,1.962,0,0,1-.848.583,3.21,3.21,0,0,1-1.106.2,2.779,2.779,0,0,1-.568-.053,2.03,2.03,0,0,1-.507-.182,1.516,1.516,0,0,1-.424-.318,1.288,1.288,0,0,1-.28-.477,1.992,1.992,0,0,1,0-1.325,1.666,1.666,0,0,1,.3-.492,1.886,1.886,0,0,1,.485-.364,3.789,3.789,0,0,1,.6-.257,7.1,7.1,0,0,1,.757-.189l1-.227a.992.992,0,0,0,.447-.189.378.378,0,0,0,.136-.3.644.644,0,0,0-.3-.591,1.515,1.515,0,0,0-.757-.174,1.045,1.045,0,0,0-1.189.932l-1.515-.273a2.045,2.045,0,0,1,.878-1.393,3.521,3.521,0,0,1,1.908-.447q2.56,0,2.56,2.2Zm-3.029.621a1.371,1.371,0,0,0,1.053-.447,1.84,1.84,0,0,0,.409-1.3l-1.446.409a1.621,1.621,0,0,0-.606.25.515.515,0,0,0-.212.439.561.561,0,0,0,.227.477.931.931,0,0,0,.606.144Z" transform="translate(-452.888 -117.469)"/>
    <path id="Trazado_102477" data-name="Trazado 102477" d="M487.892,125.823a1.84,1.84,0,0,1-1.371-.492,1.909,1.909,0,0,1-.485-1.409v-2.87h-1.2v-1.31h.386a1.022,1.022,0,0,0,.757-.25,1.348,1.348,0,0,0,.242-.909v-.8h1.515v1.961h1.25v1.31h-1.227v2.688c0,.53.235.757.7.757h.545v1.3Z" transform="translate(-454.881 -116.871)"/>
    <path id="Trazado_102478" data-name="Trazado 102478" d="M492.924,118.541a.969.969,0,0,1-.7-.288.954.954,0,0,1-.288-.7.931.931,0,0,1,.3-.689.977.977,0,1,1,1.378,1.386A.947.947,0,0,1,492.924,118.541Zm-.863,6.99v-6.058h1.711v6.058Z" transform="translate(-456.604 -116.58)"/>
    <path id="Trazado_102479" data-name="Trazado 102479" d="M500.362,120.37h1.8l-2.59,6.058H498.06l-2.56-6.058h1.795l1.515,4.158Z" transform="translate(-457.468 -117.5)"/>
    <path id="Trazado_102480" data-name="Trazado 102480" d="M507.832,126.546a3.9,3.9,0,0,1-1.719-.371,2.8,2.8,0,0,1-1.181-1.1,3.227,3.227,0,0,1-.432-1.7,3.03,3.03,0,0,1,.924-2.272,3.855,3.855,0,0,1,4.824,0,3.362,3.362,0,0,1,0,4.627A3.453,3.453,0,0,1,507.832,126.546Zm0-1.356a1.567,1.567,0,0,0,1.2-.5,1.848,1.848,0,0,0,.454-1.31,1.886,1.886,0,0,0-.454-1.318,1.59,1.59,0,0,0-1.2-.492,1.515,1.515,0,0,0-1.174.5,2.143,2.143,0,0,0,0,2.62,1.515,1.515,0,0,0,1.159.5Z" transform="translate(-459.652 -117.473)"/>
  </g>
</svg>
